%TF.GenerationSoftware,KiCad,Pcbnew,10.0.5-10.0.5~ubuntu24.04.1*%
%TF.CreationDate,2026-08-25T15:43:37+02:00*%
%TF.ProjectId,xiaos3_adapter,7869616f-7333-45f6-9164-61707465722e,rev?*%
%TF.SameCoordinates,Original*%
%TF.FileFunction,Legend,Top*%
%TF.FilePolarity,Positive*%
%FSLAX46Y46*%
G04 Gerber Fmt 4.6, Leading zero omitted, Abs format (unit mm)*
G04 Created by KiCad (PCBNEW 10.0.5-10.0.5~ubuntu24.04.1) date 2026-08-25 15:43:37*
%MOMM*%
%LPD*%
G01*
G04 APERTURE LIST*
%ADD10C,0.254000*%
%ADD11C,0.150000*%
%ADD12C,0.300000*%
%ADD13C,0.000000*%
%ADD14C,0.120000*%
G04 APERTURE END LIST*
D10*
X84715047Y-29270110D02*
X85561714Y-30540110D01*
X85561714Y-29270110D02*
X84715047Y-30540110D01*
X86045523Y-30540110D02*
X86045523Y-29270110D01*
X86589809Y-30177253D02*
X87194571Y-30177253D01*
X86468857Y-30540110D02*
X86892190Y-29270110D01*
X86892190Y-29270110D02*
X87315524Y-30540110D01*
X87980761Y-29270110D02*
X88222666Y-29270110D01*
X88222666Y-29270110D02*
X88343618Y-29330586D01*
X88343618Y-29330586D02*
X88464571Y-29451538D01*
X88464571Y-29451538D02*
X88525047Y-29693443D01*
X88525047Y-29693443D02*
X88525047Y-30116776D01*
X88525047Y-30116776D02*
X88464571Y-30358681D01*
X88464571Y-30358681D02*
X88343618Y-30479634D01*
X88343618Y-30479634D02*
X88222666Y-30540110D01*
X88222666Y-30540110D02*
X87980761Y-30540110D01*
X87980761Y-30540110D02*
X87859809Y-30479634D01*
X87859809Y-30479634D02*
X87738856Y-30358681D01*
X87738856Y-30358681D02*
X87678380Y-30116776D01*
X87678380Y-30116776D02*
X87678380Y-29693443D01*
X87678380Y-29693443D02*
X87738856Y-29451538D01*
X87738856Y-29451538D02*
X87859809Y-29330586D01*
X87859809Y-29330586D02*
X87980761Y-29270110D01*
X89069332Y-30056300D02*
X90036952Y-30056300D01*
X90581237Y-30479634D02*
X90762666Y-30540110D01*
X90762666Y-30540110D02*
X91065047Y-30540110D01*
X91065047Y-30540110D02*
X91185999Y-30479634D01*
X91185999Y-30479634D02*
X91246475Y-30419157D01*
X91246475Y-30419157D02*
X91306952Y-30298205D01*
X91306952Y-30298205D02*
X91306952Y-30177253D01*
X91306952Y-30177253D02*
X91246475Y-30056300D01*
X91246475Y-30056300D02*
X91185999Y-29995824D01*
X91185999Y-29995824D02*
X91065047Y-29935348D01*
X91065047Y-29935348D02*
X90823142Y-29874872D01*
X90823142Y-29874872D02*
X90702190Y-29814395D01*
X90702190Y-29814395D02*
X90641713Y-29753919D01*
X90641713Y-29753919D02*
X90581237Y-29632967D01*
X90581237Y-29632967D02*
X90581237Y-29512014D01*
X90581237Y-29512014D02*
X90641713Y-29391062D01*
X90641713Y-29391062D02*
X90702190Y-29330586D01*
X90702190Y-29330586D02*
X90823142Y-29270110D01*
X90823142Y-29270110D02*
X91125523Y-29270110D01*
X91125523Y-29270110D02*
X91306952Y-29330586D01*
X91730285Y-29270110D02*
X92516476Y-29270110D01*
X92516476Y-29270110D02*
X92093142Y-29753919D01*
X92093142Y-29753919D02*
X92274571Y-29753919D01*
X92274571Y-29753919D02*
X92395523Y-29814395D01*
X92395523Y-29814395D02*
X92455999Y-29874872D01*
X92455999Y-29874872D02*
X92516476Y-29995824D01*
X92516476Y-29995824D02*
X92516476Y-30298205D01*
X92516476Y-30298205D02*
X92455999Y-30419157D01*
X92455999Y-30419157D02*
X92395523Y-30479634D01*
X92395523Y-30479634D02*
X92274571Y-30540110D01*
X92274571Y-30540110D02*
X91911714Y-30540110D01*
X91911714Y-30540110D02*
X91790761Y-30479634D01*
X91790761Y-30479634D02*
X91730285Y-30419157D01*
X79997905Y-31738072D02*
X80481714Y-31738072D01*
X80179333Y-31314739D02*
X80179333Y-32403310D01*
X80179333Y-32403310D02*
X80239810Y-32524263D01*
X80239810Y-32524263D02*
X80360762Y-32584739D01*
X80360762Y-32584739D02*
X80481714Y-32584739D01*
X81086476Y-32584739D02*
X80965524Y-32524263D01*
X80965524Y-32524263D02*
X80905047Y-32463786D01*
X80905047Y-32463786D02*
X80844571Y-32342834D01*
X80844571Y-32342834D02*
X80844571Y-31979977D01*
X80844571Y-31979977D02*
X80905047Y-31859024D01*
X80905047Y-31859024D02*
X80965524Y-31798548D01*
X80965524Y-31798548D02*
X81086476Y-31738072D01*
X81086476Y-31738072D02*
X81267905Y-31738072D01*
X81267905Y-31738072D02*
X81388857Y-31798548D01*
X81388857Y-31798548D02*
X81449333Y-31859024D01*
X81449333Y-31859024D02*
X81509809Y-31979977D01*
X81509809Y-31979977D02*
X81509809Y-32342834D01*
X81509809Y-32342834D02*
X81449333Y-32463786D01*
X81449333Y-32463786D02*
X81388857Y-32524263D01*
X81388857Y-32524263D02*
X81267905Y-32584739D01*
X81267905Y-32584739D02*
X81086476Y-32584739D01*
X83445048Y-31919501D02*
X83626476Y-31979977D01*
X83626476Y-31979977D02*
X83686953Y-32040453D01*
X83686953Y-32040453D02*
X83747429Y-32161405D01*
X83747429Y-32161405D02*
X83747429Y-32342834D01*
X83747429Y-32342834D02*
X83686953Y-32463786D01*
X83686953Y-32463786D02*
X83626476Y-32524263D01*
X83626476Y-32524263D02*
X83505524Y-32584739D01*
X83505524Y-32584739D02*
X83021714Y-32584739D01*
X83021714Y-32584739D02*
X83021714Y-31314739D01*
X83021714Y-31314739D02*
X83445048Y-31314739D01*
X83445048Y-31314739D02*
X83566000Y-31375215D01*
X83566000Y-31375215D02*
X83626476Y-31435691D01*
X83626476Y-31435691D02*
X83686953Y-31556643D01*
X83686953Y-31556643D02*
X83686953Y-31677596D01*
X83686953Y-31677596D02*
X83626476Y-31798548D01*
X83626476Y-31798548D02*
X83566000Y-31859024D01*
X83566000Y-31859024D02*
X83445048Y-31919501D01*
X83445048Y-31919501D02*
X83021714Y-31919501D01*
X84291714Y-32584739D02*
X84291714Y-31738072D01*
X84291714Y-31314739D02*
X84231238Y-31375215D01*
X84231238Y-31375215D02*
X84291714Y-31435691D01*
X84291714Y-31435691D02*
X84352191Y-31375215D01*
X84352191Y-31375215D02*
X84291714Y-31314739D01*
X84291714Y-31314739D02*
X84291714Y-31435691D01*
X84715048Y-31738072D02*
X85198857Y-31738072D01*
X84896476Y-31314739D02*
X84896476Y-32403310D01*
X84896476Y-32403310D02*
X84956953Y-32524263D01*
X84956953Y-32524263D02*
X85077905Y-32584739D01*
X85077905Y-32584739D02*
X85198857Y-32584739D01*
X86589809Y-32584739D02*
X86589809Y-31314739D01*
X86589809Y-31314739D02*
X87073619Y-31314739D01*
X87073619Y-31314739D02*
X87194571Y-31375215D01*
X87194571Y-31375215D02*
X87255048Y-31435691D01*
X87255048Y-31435691D02*
X87315524Y-31556643D01*
X87315524Y-31556643D02*
X87315524Y-31738072D01*
X87315524Y-31738072D02*
X87255048Y-31859024D01*
X87255048Y-31859024D02*
X87194571Y-31919501D01*
X87194571Y-31919501D02*
X87073619Y-31979977D01*
X87073619Y-31979977D02*
X86589809Y-31979977D01*
X87859809Y-32584739D02*
X87859809Y-31738072D01*
X87859809Y-31314739D02*
X87799333Y-31375215D01*
X87799333Y-31375215D02*
X87859809Y-31435691D01*
X87859809Y-31435691D02*
X87920286Y-31375215D01*
X87920286Y-31375215D02*
X87859809Y-31314739D01*
X87859809Y-31314739D02*
X87859809Y-31435691D01*
X88464571Y-32584739D02*
X88464571Y-31738072D01*
X88464571Y-31979977D02*
X88525048Y-31859024D01*
X88525048Y-31859024D02*
X88585524Y-31798548D01*
X88585524Y-31798548D02*
X88706476Y-31738072D01*
X88706476Y-31738072D02*
X88827429Y-31738072D01*
X89795047Y-32584739D02*
X89795047Y-31919501D01*
X89795047Y-31919501D02*
X89734571Y-31798548D01*
X89734571Y-31798548D02*
X89613619Y-31738072D01*
X89613619Y-31738072D02*
X89371714Y-31738072D01*
X89371714Y-31738072D02*
X89250761Y-31798548D01*
X89795047Y-32524263D02*
X89674095Y-32584739D01*
X89674095Y-32584739D02*
X89371714Y-32584739D01*
X89371714Y-32584739D02*
X89250761Y-32524263D01*
X89250761Y-32524263D02*
X89190285Y-32403310D01*
X89190285Y-32403310D02*
X89190285Y-32282358D01*
X89190285Y-32282358D02*
X89250761Y-32161405D01*
X89250761Y-32161405D02*
X89371714Y-32100929D01*
X89371714Y-32100929D02*
X89674095Y-32100929D01*
X89674095Y-32100929D02*
X89795047Y-32040453D01*
X90218381Y-31738072D02*
X90702190Y-31738072D01*
X90399809Y-31314739D02*
X90399809Y-32403310D01*
X90399809Y-32403310D02*
X90460286Y-32524263D01*
X90460286Y-32524263D02*
X90581238Y-32584739D01*
X90581238Y-32584739D02*
X90702190Y-32584739D01*
X91609333Y-32524263D02*
X91488381Y-32584739D01*
X91488381Y-32584739D02*
X91246476Y-32584739D01*
X91246476Y-32584739D02*
X91125523Y-32524263D01*
X91125523Y-32524263D02*
X91065047Y-32403310D01*
X91065047Y-32403310D02*
X91065047Y-31919501D01*
X91065047Y-31919501D02*
X91125523Y-31798548D01*
X91125523Y-31798548D02*
X91246476Y-31738072D01*
X91246476Y-31738072D02*
X91488381Y-31738072D01*
X91488381Y-31738072D02*
X91609333Y-31798548D01*
X91609333Y-31798548D02*
X91669809Y-31919501D01*
X91669809Y-31919501D02*
X91669809Y-32040453D01*
X91669809Y-32040453D02*
X91065047Y-32161405D01*
X93181713Y-32584739D02*
X93181713Y-31314739D01*
X93181713Y-31314739D02*
X93484094Y-31314739D01*
X93484094Y-31314739D02*
X93665523Y-31375215D01*
X93665523Y-31375215D02*
X93786475Y-31496167D01*
X93786475Y-31496167D02*
X93846952Y-31617120D01*
X93846952Y-31617120D02*
X93907428Y-31859024D01*
X93907428Y-31859024D02*
X93907428Y-32040453D01*
X93907428Y-32040453D02*
X93846952Y-32282358D01*
X93846952Y-32282358D02*
X93786475Y-32403310D01*
X93786475Y-32403310D02*
X93665523Y-32524263D01*
X93665523Y-32524263D02*
X93484094Y-32584739D01*
X93484094Y-32584739D02*
X93181713Y-32584739D01*
X94633142Y-32584739D02*
X94512190Y-32524263D01*
X94512190Y-32524263D02*
X94451713Y-32463786D01*
X94451713Y-32463786D02*
X94391237Y-32342834D01*
X94391237Y-32342834D02*
X94391237Y-31979977D01*
X94391237Y-31979977D02*
X94451713Y-31859024D01*
X94451713Y-31859024D02*
X94512190Y-31798548D01*
X94512190Y-31798548D02*
X94633142Y-31738072D01*
X94633142Y-31738072D02*
X94814571Y-31738072D01*
X94814571Y-31738072D02*
X94935523Y-31798548D01*
X94935523Y-31798548D02*
X94995999Y-31859024D01*
X94995999Y-31859024D02*
X95056475Y-31979977D01*
X95056475Y-31979977D02*
X95056475Y-32342834D01*
X95056475Y-32342834D02*
X94995999Y-32463786D01*
X94995999Y-32463786D02*
X94935523Y-32524263D01*
X94935523Y-32524263D02*
X94814571Y-32584739D01*
X94814571Y-32584739D02*
X94633142Y-32584739D01*
X96145047Y-32524263D02*
X96024095Y-32584739D01*
X96024095Y-32584739D02*
X95782190Y-32584739D01*
X95782190Y-32584739D02*
X95661238Y-32524263D01*
X95661238Y-32524263D02*
X95600761Y-32463786D01*
X95600761Y-32463786D02*
X95540285Y-32342834D01*
X95540285Y-32342834D02*
X95540285Y-31979977D01*
X95540285Y-31979977D02*
X95600761Y-31859024D01*
X95600761Y-31859024D02*
X95661238Y-31798548D01*
X95661238Y-31798548D02*
X95782190Y-31738072D01*
X95782190Y-31738072D02*
X96024095Y-31738072D01*
X96024095Y-31738072D02*
X96145047Y-31798548D01*
X96689332Y-32584739D02*
X96689332Y-31314739D01*
X96810285Y-32100929D02*
X97173142Y-32584739D01*
X97173142Y-31738072D02*
X96689332Y-32221882D01*
X86710762Y-33359368D02*
X87134095Y-34629368D01*
X87134095Y-34629368D02*
X87557429Y-33359368D01*
X88646000Y-34629368D02*
X87920285Y-34629368D01*
X88283142Y-34629368D02*
X88283142Y-33359368D01*
X88283142Y-33359368D02*
X88162190Y-33540796D01*
X88162190Y-33540796D02*
X88041238Y-33661749D01*
X88041238Y-33661749D02*
X87920285Y-33722225D01*
X89190285Y-34508415D02*
X89250762Y-34568892D01*
X89250762Y-34568892D02*
X89190285Y-34629368D01*
X89190285Y-34629368D02*
X89129809Y-34568892D01*
X89129809Y-34568892D02*
X89190285Y-34508415D01*
X89190285Y-34508415D02*
X89190285Y-34629368D01*
X90036952Y-33359368D02*
X90157905Y-33359368D01*
X90157905Y-33359368D02*
X90278857Y-33419844D01*
X90278857Y-33419844D02*
X90339333Y-33480320D01*
X90339333Y-33480320D02*
X90399809Y-33601272D01*
X90399809Y-33601272D02*
X90460286Y-33843177D01*
X90460286Y-33843177D02*
X90460286Y-34145558D01*
X90460286Y-34145558D02*
X90399809Y-34387463D01*
X90399809Y-34387463D02*
X90339333Y-34508415D01*
X90339333Y-34508415D02*
X90278857Y-34568892D01*
X90278857Y-34568892D02*
X90157905Y-34629368D01*
X90157905Y-34629368D02*
X90036952Y-34629368D01*
X90036952Y-34629368D02*
X89916000Y-34568892D01*
X89916000Y-34568892D02*
X89855524Y-34508415D01*
X89855524Y-34508415D02*
X89795047Y-34387463D01*
X89795047Y-34387463D02*
X89734571Y-34145558D01*
X89734571Y-34145558D02*
X89734571Y-33843177D01*
X89734571Y-33843177D02*
X89795047Y-33601272D01*
X89795047Y-33601272D02*
X89855524Y-33480320D01*
X89855524Y-33480320D02*
X89916000Y-33419844D01*
X89916000Y-33419844D02*
X90036952Y-33359368D01*
D11*
X80946666Y-63184819D02*
X80946666Y-63899104D01*
X80946666Y-63899104D02*
X80899047Y-64041961D01*
X80899047Y-64041961D02*
X80803809Y-64137200D01*
X80803809Y-64137200D02*
X80660952Y-64184819D01*
X80660952Y-64184819D02*
X80565714Y-64184819D01*
X81851428Y-63518152D02*
X81851428Y-64184819D01*
X81613333Y-63137200D02*
X81375238Y-63851485D01*
X81375238Y-63851485D02*
X81994285Y-63851485D01*
X96186666Y-63184819D02*
X96186666Y-63899104D01*
X96186666Y-63899104D02*
X96139047Y-64041961D01*
X96139047Y-64041961D02*
X96043809Y-64137200D01*
X96043809Y-64137200D02*
X95900952Y-64184819D01*
X95900952Y-64184819D02*
X95805714Y-64184819D01*
X96567619Y-63184819D02*
X97186666Y-63184819D01*
X97186666Y-63184819D02*
X96853333Y-63565771D01*
X96853333Y-63565771D02*
X96996190Y-63565771D01*
X96996190Y-63565771D02*
X97091428Y-63613390D01*
X97091428Y-63613390D02*
X97139047Y-63661009D01*
X97139047Y-63661009D02*
X97186666Y-63756247D01*
X97186666Y-63756247D02*
X97186666Y-63994342D01*
X97186666Y-63994342D02*
X97139047Y-64089580D01*
X97139047Y-64089580D02*
X97091428Y-64137200D01*
X97091428Y-64137200D02*
X96996190Y-64184819D01*
X96996190Y-64184819D02*
X96710476Y-64184819D01*
X96710476Y-64184819D02*
X96615238Y-64137200D01*
X96615238Y-64137200D02*
X96567619Y-64089580D01*
D12*
X85166653Y-66137257D02*
X85166653Y-68565828D01*
X85166653Y-68565828D02*
X85309510Y-68851542D01*
X85309510Y-68851542D02*
X85452368Y-68994400D01*
X85452368Y-68994400D02*
X85738082Y-69137257D01*
X85738082Y-69137257D02*
X86309510Y-69137257D01*
X86309510Y-69137257D02*
X86595225Y-68994400D01*
X86595225Y-68994400D02*
X86738082Y-68851542D01*
X86738082Y-68851542D02*
X86880939Y-68565828D01*
X86880939Y-68565828D02*
X86880939Y-66137257D01*
X88166653Y-68994400D02*
X88595225Y-69137257D01*
X88595225Y-69137257D02*
X89309510Y-69137257D01*
X89309510Y-69137257D02*
X89595225Y-68994400D01*
X89595225Y-68994400D02*
X89738082Y-68851542D01*
X89738082Y-68851542D02*
X89880939Y-68565828D01*
X89880939Y-68565828D02*
X89880939Y-68280114D01*
X89880939Y-68280114D02*
X89738082Y-67994400D01*
X89738082Y-67994400D02*
X89595225Y-67851542D01*
X89595225Y-67851542D02*
X89309510Y-67708685D01*
X89309510Y-67708685D02*
X88738082Y-67565828D01*
X88738082Y-67565828D02*
X88452367Y-67422971D01*
X88452367Y-67422971D02*
X88309510Y-67280114D01*
X88309510Y-67280114D02*
X88166653Y-66994400D01*
X88166653Y-66994400D02*
X88166653Y-66708685D01*
X88166653Y-66708685D02*
X88309510Y-66422971D01*
X88309510Y-66422971D02*
X88452367Y-66280114D01*
X88452367Y-66280114D02*
X88738082Y-66137257D01*
X88738082Y-66137257D02*
X89452367Y-66137257D01*
X89452367Y-66137257D02*
X89880939Y-66280114D01*
X92166653Y-67565828D02*
X92595225Y-67708685D01*
X92595225Y-67708685D02*
X92738082Y-67851542D01*
X92738082Y-67851542D02*
X92880939Y-68137257D01*
X92880939Y-68137257D02*
X92880939Y-68565828D01*
X92880939Y-68565828D02*
X92738082Y-68851542D01*
X92738082Y-68851542D02*
X92595225Y-68994400D01*
X92595225Y-68994400D02*
X92309510Y-69137257D01*
X92309510Y-69137257D02*
X91166653Y-69137257D01*
X91166653Y-69137257D02*
X91166653Y-66137257D01*
X91166653Y-66137257D02*
X92166653Y-66137257D01*
X92166653Y-66137257D02*
X92452368Y-66280114D01*
X92452368Y-66280114D02*
X92595225Y-66422971D01*
X92595225Y-66422971D02*
X92738082Y-66708685D01*
X92738082Y-66708685D02*
X92738082Y-66994400D01*
X92738082Y-66994400D02*
X92595225Y-67280114D01*
X92595225Y-67280114D02*
X92452368Y-67422971D01*
X92452368Y-67422971D02*
X92166653Y-67565828D01*
X92166653Y-67565828D02*
X91166653Y-67565828D01*
D13*
%TO.C,G1*%
G36*
X84467346Y-76939696D02*
G01*
X84462504Y-76944538D01*
X84457663Y-76939696D01*
X84462504Y-76934855D01*
X84467346Y-76939696D01*
G37*
G36*
X93269710Y-72427153D02*
G01*
X93264868Y-72431995D01*
X93260026Y-72427153D01*
X93264868Y-72422312D01*
X93269710Y-72427153D01*
G37*
G36*
X93502116Y-71855823D02*
G01*
X93497274Y-71860665D01*
X93492432Y-71855823D01*
X93497274Y-71850981D01*
X93502116Y-71855823D01*
G37*
G36*
X85457491Y-77062864D02*
G01*
X85576115Y-77065583D01*
X85576115Y-77641755D01*
X85576115Y-78217927D01*
X85457491Y-78220646D01*
X85338867Y-78223365D01*
X85338867Y-77641755D01*
X85338867Y-77060145D01*
X85457491Y-77062864D01*
G37*
G36*
X85566431Y-76005232D02*
G01*
X85566431Y-76687924D01*
X85452584Y-76690652D01*
X85338737Y-76693381D01*
X85341223Y-76007961D01*
X85343709Y-75322540D01*
X85455070Y-75322540D01*
X85566431Y-75322540D01*
X85566431Y-76005232D01*
G37*
G36*
X85571273Y-74257348D02*
G01*
X85571273Y-74949723D01*
X85455070Y-74949723D01*
X85338867Y-74949723D01*
X85338867Y-74257348D01*
X85338867Y-73564973D01*
X85455070Y-73564973D01*
X85571273Y-73564973D01*
X85571273Y-74257348D01*
G37*
G36*
X87662924Y-71589408D02*
G01*
X87662924Y-71696044D01*
X87295799Y-71696044D01*
X86928675Y-71696044D01*
X86923496Y-71659731D01*
X86921795Y-71630952D01*
X86922498Y-71591956D01*
X86925066Y-71555632D01*
X86931814Y-71487847D01*
X87297369Y-71485310D01*
X87662924Y-71482773D01*
X87662924Y-71589408D01*
G37*
G36*
X88516603Y-73257519D02*
G01*
X88518013Y-73298423D01*
X88517615Y-73340809D01*
X88516968Y-73354355D01*
X88514017Y-73400352D01*
X88157385Y-73400352D01*
X87800753Y-73400352D01*
X87794901Y-73378564D01*
X87792838Y-73358572D01*
X87792791Y-73325907D01*
X87794742Y-73287154D01*
X87795164Y-73281728D01*
X87801278Y-73206681D01*
X88157282Y-73206681D01*
X88513285Y-73206681D01*
X88516603Y-73257519D01*
G37*
G36*
X87662924Y-73303516D02*
G01*
X87662924Y-73400352D01*
X87296562Y-73400352D01*
X87214161Y-73400187D01*
X87137895Y-73399717D01*
X87069922Y-73398978D01*
X87012400Y-73398010D01*
X86967486Y-73396848D01*
X86937338Y-73395530D01*
X86924113Y-73394094D01*
X86923745Y-73393896D01*
X86920928Y-73381965D01*
X86918734Y-73355326D01*
X86917473Y-73318635D01*
X86917289Y-73297061D01*
X86917289Y-73206681D01*
X87290106Y-73206681D01*
X87662924Y-73206681D01*
X87662924Y-73303516D01*
G37*
G36*
X94135458Y-74737036D02*
G01*
X94153867Y-74745024D01*
X94183403Y-74757489D01*
X94222928Y-74773343D01*
X94264247Y-74789303D01*
X94267118Y-74790385D01*
X94313884Y-74809140D01*
X94344947Y-74825142D01*
X94363274Y-74840795D01*
X94371831Y-74858500D01*
X94373637Y-74876660D01*
X94368256Y-74906910D01*
X94351572Y-74924679D01*
X94322768Y-74930020D01*
X94281033Y-74922981D01*
X94225550Y-74903615D01*
X94189649Y-74888077D01*
X94097655Y-74846215D01*
X94094772Y-74786608D01*
X94093968Y-74751353D01*
X94098170Y-74732966D01*
X94110845Y-74729006D01*
X94135458Y-74737036D01*
G37*
G36*
X88771914Y-76695067D02*
G01*
X88774135Y-76714705D01*
X88775182Y-76747526D01*
X88774900Y-76787374D01*
X88774550Y-76799285D01*
X88771692Y-76881595D01*
X88415563Y-76884135D01*
X88320309Y-76884701D01*
X88242746Y-76884871D01*
X88181202Y-76884597D01*
X88134003Y-76883833D01*
X88099477Y-76882528D01*
X88075952Y-76880636D01*
X88061754Y-76878108D01*
X88055211Y-76874895D01*
X88054465Y-76873725D01*
X88052575Y-76858809D01*
X88051647Y-76829597D01*
X88051785Y-76791140D01*
X88052302Y-76769507D01*
X88055108Y-76678240D01*
X88410765Y-76675700D01*
X88766422Y-76673160D01*
X88771914Y-76695067D01*
G37*
G36*
X83504811Y-74632645D02*
G01*
X83544889Y-74637641D01*
X83573556Y-74646655D01*
X83598724Y-74662387D01*
X83603881Y-74666454D01*
X83629916Y-74690894D01*
X83651733Y-74717015D01*
X83656442Y-74724242D01*
X83668333Y-74754679D01*
X83678462Y-74800341D01*
X83686232Y-74857117D01*
X83691047Y-74920899D01*
X83692362Y-74971511D01*
X83692661Y-75046559D01*
X83465097Y-75046559D01*
X83237533Y-75046559D01*
X83237508Y-74956986D01*
X83241603Y-74869017D01*
X83254203Y-74797209D01*
X83275697Y-74740137D01*
X83306478Y-74696376D01*
X83309870Y-74692889D01*
X83354962Y-74657955D01*
X83407151Y-74637706D01*
X83469618Y-74631159D01*
X83504811Y-74632645D01*
G37*
G36*
X88534445Y-71583436D02*
G01*
X88534445Y-71684103D01*
X88507815Y-71689398D01*
X88492023Y-71690679D01*
X88459322Y-71691902D01*
X88412168Y-71693024D01*
X88353021Y-71694002D01*
X88284337Y-71694794D01*
X88208575Y-71695358D01*
X88149309Y-71695603D01*
X88057631Y-71695729D01*
X87983584Y-71695514D01*
X87925434Y-71694893D01*
X87881447Y-71693805D01*
X87849889Y-71692187D01*
X87829027Y-71689977D01*
X87817125Y-71687111D01*
X87812451Y-71683528D01*
X87812419Y-71683447D01*
X87810511Y-71668478D01*
X87809568Y-71639220D01*
X87809697Y-71600733D01*
X87810212Y-71579115D01*
X87813019Y-71487847D01*
X88173732Y-71485309D01*
X88534445Y-71482770D01*
X88534445Y-71583436D01*
G37*
G36*
X87524481Y-76675192D02*
G01*
X87610311Y-76675698D01*
X87967956Y-76678240D01*
X87967956Y-76779917D01*
X87967956Y-76881595D01*
X87614139Y-76884133D01*
X87515544Y-76884675D01*
X87434887Y-76884726D01*
X87370745Y-76884250D01*
X87321695Y-76883212D01*
X87286313Y-76881576D01*
X87263177Y-76879306D01*
X87250861Y-76876366D01*
X87248584Y-76874934D01*
X87243316Y-76860240D01*
X87239541Y-76831890D01*
X87237370Y-76795545D01*
X87236913Y-76756868D01*
X87238279Y-76721518D01*
X87241579Y-76695159D01*
X87244904Y-76685382D01*
X87251037Y-76682092D01*
X87265848Y-76679483D01*
X87290891Y-76677512D01*
X87327721Y-76676139D01*
X87377893Y-76675322D01*
X87442962Y-76675020D01*
X87524481Y-76675192D01*
G37*
G36*
X89278984Y-71484992D02*
G01*
X89328013Y-71485857D01*
X89363858Y-71487274D01*
X89388063Y-71489285D01*
X89402175Y-71491928D01*
X89407593Y-71494990D01*
X89411057Y-71509662D01*
X89413760Y-71538570D01*
X89415297Y-71576589D01*
X89415501Y-71595361D01*
X89415650Y-71683508D01*
X89316393Y-71689713D01*
X89279610Y-71691383D01*
X89227247Y-71692883D01*
X89163092Y-71694151D01*
X89090933Y-71695122D01*
X89014556Y-71695735D01*
X88944903Y-71695926D01*
X88672669Y-71695935D01*
X88667564Y-71645151D01*
X88665748Y-71603747D01*
X88667107Y-71558356D01*
X88668658Y-71541107D01*
X88674857Y-71487847D01*
X89037345Y-71485307D01*
X89135195Y-71484757D01*
X89215226Y-71484639D01*
X89278984Y-71484992D01*
G37*
G36*
X88532377Y-78322194D02*
G01*
X88533025Y-78369196D01*
X88531500Y-78399562D01*
X88527543Y-78415926D01*
X88522693Y-78420639D01*
X88510438Y-78421673D01*
X88481072Y-78422905D01*
X88436851Y-78424280D01*
X88380028Y-78425738D01*
X88312859Y-78427222D01*
X88237598Y-78428673D01*
X88158843Y-78429998D01*
X88064094Y-78431362D01*
X87987039Y-78432173D01*
X87926012Y-78432397D01*
X87879347Y-78432000D01*
X87845377Y-78430950D01*
X87822437Y-78429212D01*
X87808859Y-78426753D01*
X87802978Y-78423539D01*
X87802586Y-78422821D01*
X87800743Y-78408033D01*
X87799851Y-78378930D01*
X87800008Y-78340546D01*
X87800529Y-78318878D01*
X87803336Y-78227611D01*
X88166469Y-78227611D01*
X88529603Y-78227611D01*
X88532377Y-78322194D01*
G37*
G36*
X88764800Y-75040917D02*
G01*
X88765394Y-75089699D01*
X88763648Y-75121772D01*
X88759326Y-75139678D01*
X88755116Y-75144867D01*
X88742856Y-75146687D01*
X88713484Y-75148368D01*
X88669256Y-75149859D01*
X88612427Y-75151111D01*
X88545253Y-75152074D01*
X88469989Y-75152697D01*
X88391308Y-75152930D01*
X88296361Y-75152846D01*
X88219128Y-75152469D01*
X88157959Y-75151739D01*
X88111203Y-75150597D01*
X88077209Y-75148986D01*
X88054328Y-75146845D01*
X88040906Y-75144116D01*
X88035295Y-75140741D01*
X88035052Y-75140247D01*
X88033183Y-75125386D01*
X88032270Y-75096222D01*
X88032416Y-75057797D01*
X88032935Y-75036149D01*
X88035741Y-74944881D01*
X88398875Y-74944881D01*
X88762009Y-74944881D01*
X88764800Y-75040917D01*
G37*
G36*
X89407683Y-78255623D02*
G01*
X89409128Y-78282644D01*
X89409071Y-78320327D01*
X89407725Y-78356317D01*
X89403905Y-78423925D01*
X89368622Y-78429760D01*
X89350640Y-78431159D01*
X89315853Y-78432445D01*
X89266825Y-78433575D01*
X89206118Y-78434506D01*
X89136295Y-78435197D01*
X89059918Y-78435606D01*
X89006215Y-78435701D01*
X88914819Y-78435596D01*
X88841082Y-78435171D01*
X88783299Y-78434361D01*
X88739764Y-78433101D01*
X88708771Y-78431326D01*
X88688615Y-78428969D01*
X88677590Y-78425965D01*
X88674167Y-78422977D01*
X88672298Y-78408116D01*
X88671385Y-78378951D01*
X88671531Y-78340526D01*
X88672050Y-78318878D01*
X88674857Y-78227611D01*
X89039339Y-78225075D01*
X89403820Y-78222538D01*
X89407683Y-78255623D01*
G37*
G36*
X93133059Y-72827187D02*
G01*
X93134329Y-72829022D01*
X93144754Y-72863246D01*
X93137428Y-72904648D01*
X93112476Y-72952963D01*
X93070027Y-73007926D01*
X93025789Y-73054326D01*
X92975014Y-73100666D01*
X92926887Y-73138342D01*
X92883443Y-73166228D01*
X92846715Y-73183204D01*
X92818738Y-73188143D01*
X92801545Y-73179924D01*
X92800694Y-73178661D01*
X92800289Y-73164813D01*
X92805825Y-73140866D01*
X92808530Y-73132642D01*
X92820295Y-73110759D01*
X92843515Y-73080475D01*
X92879219Y-73040595D01*
X92928432Y-72989927D01*
X92948432Y-72970023D01*
X93001889Y-72917616D01*
X93043587Y-72877949D01*
X93075163Y-72849778D01*
X93098260Y-72831861D01*
X93114515Y-72822952D01*
X93125568Y-72821809D01*
X93133059Y-72827187D01*
G37*
G36*
X86782450Y-71584167D02*
G01*
X86781169Y-71625775D01*
X86779288Y-71660029D01*
X86777103Y-71682364D01*
X86775700Y-71688266D01*
X86765254Y-71690030D01*
X86737611Y-71691655D01*
X86694943Y-71693092D01*
X86639418Y-71694296D01*
X86573209Y-71695221D01*
X86498485Y-71695819D01*
X86417416Y-71696043D01*
X86412868Y-71696044D01*
X86316946Y-71695923D01*
X86238754Y-71695522D01*
X86176657Y-71694783D01*
X86129019Y-71693648D01*
X86094207Y-71692060D01*
X86070583Y-71689960D01*
X86056512Y-71687291D01*
X86050360Y-71683994D01*
X86049920Y-71683213D01*
X86048051Y-71668352D01*
X86047138Y-71639188D01*
X86047284Y-71600763D01*
X86047803Y-71579115D01*
X86050610Y-71487847D01*
X86417501Y-71487847D01*
X86784393Y-71487847D01*
X86782450Y-71584167D01*
G37*
G36*
X87598614Y-78225170D02*
G01*
X87629301Y-78226044D01*
X87642689Y-78227335D01*
X87652102Y-78231456D01*
X87658009Y-78239088D01*
X87661058Y-78253973D01*
X87661893Y-78279853D01*
X87661161Y-78320471D01*
X87660833Y-78332467D01*
X87658082Y-78430966D01*
X87299790Y-78432683D01*
X87218038Y-78432944D01*
X87142191Y-78432934D01*
X87074478Y-78432672D01*
X87017126Y-78432179D01*
X86972365Y-78431473D01*
X86942422Y-78430575D01*
X86929526Y-78429503D01*
X86929394Y-78429455D01*
X86923126Y-78419360D01*
X86919211Y-78394079D01*
X86917442Y-78351909D01*
X86917289Y-78329736D01*
X86917289Y-78234962D01*
X87269541Y-78227833D01*
X87351035Y-78226373D01*
X87427011Y-78225373D01*
X87495147Y-78224837D01*
X87553122Y-78224769D01*
X87598614Y-78225170D01*
G37*
G36*
X92903650Y-73986647D02*
G01*
X92939431Y-74002291D01*
X92979776Y-74029959D01*
X93026856Y-74071102D01*
X93072863Y-74116789D01*
X93117101Y-74163403D01*
X93149035Y-74199758D01*
X93170569Y-74228758D01*
X93183609Y-74253302D01*
X93190060Y-74276292D01*
X93191805Y-74297932D01*
X93189950Y-74322833D01*
X93181234Y-74332704D01*
X93162326Y-74328971D01*
X93141837Y-74319335D01*
X93121832Y-74305508D01*
X93091905Y-74280435D01*
X93055081Y-74247099D01*
X93014389Y-74208485D01*
X92972853Y-74167579D01*
X92933502Y-74127364D01*
X92899362Y-74090825D01*
X92873460Y-74060947D01*
X92858822Y-74040714D01*
X92858301Y-74039743D01*
X92845406Y-74008694D01*
X92846090Y-73990068D01*
X92860708Y-73982142D01*
X92870263Y-73981579D01*
X92903650Y-73986647D01*
G37*
G36*
X94204064Y-74918964D02*
G01*
X94247751Y-74941811D01*
X94296185Y-74977908D01*
X94328495Y-75007284D01*
X94364390Y-75041255D01*
X94401217Y-75074514D01*
X94432961Y-75101684D01*
X94443407Y-75110045D01*
X94471097Y-75136519D01*
X94494409Y-75167846D01*
X94510699Y-75199214D01*
X94517323Y-75225809D01*
X94514508Y-75239486D01*
X94498053Y-75248681D01*
X94469495Y-75245753D01*
X94431536Y-75231067D01*
X94424037Y-75227268D01*
X94388684Y-75205039D01*
X94345678Y-75172509D01*
X94300028Y-75134030D01*
X94256744Y-75093955D01*
X94220838Y-75056634D01*
X94203957Y-75036090D01*
X94186901Y-75008364D01*
X94173079Y-74977410D01*
X94163842Y-74947908D01*
X94160541Y-74924534D01*
X94164527Y-74911968D01*
X94167827Y-74910989D01*
X94204064Y-74918964D01*
G37*
G36*
X94578681Y-75025708D02*
G01*
X94589211Y-75034454D01*
X94598971Y-75050730D01*
X94613661Y-75082026D01*
X94632026Y-75125014D01*
X94652810Y-75176363D01*
X94674758Y-75232746D01*
X94696615Y-75290832D01*
X94717125Y-75347294D01*
X94735035Y-75398802D01*
X94749088Y-75442027D01*
X94758029Y-75473639D01*
X94760672Y-75489203D01*
X94753376Y-75522438D01*
X94734227Y-75543812D01*
X94710574Y-75550104D01*
X94685748Y-75543501D01*
X94671632Y-75533158D01*
X94657015Y-75510128D01*
X94649687Y-75492003D01*
X94640640Y-75464807D01*
X94630712Y-75438743D01*
X94592125Y-75343171D01*
X94559717Y-75259851D01*
X94533870Y-75189855D01*
X94514968Y-75134257D01*
X94503392Y-75094128D01*
X94499523Y-75070752D01*
X94507471Y-75044017D01*
X94527313Y-75025978D01*
X94553050Y-75019066D01*
X94578681Y-75025708D01*
G37*
G36*
X92668392Y-77035953D02*
G01*
X92677549Y-77050994D01*
X92683426Y-77078580D01*
X92685462Y-77112082D01*
X92683096Y-77144871D01*
X92679074Y-77162232D01*
X92658969Y-77209208D01*
X92628830Y-77262419D01*
X92591992Y-77317329D01*
X92551790Y-77369402D01*
X92511560Y-77414101D01*
X92474638Y-77446891D01*
X92464766Y-77453688D01*
X92434608Y-77470951D01*
X92416811Y-77476018D01*
X92408926Y-77469167D01*
X92407926Y-77460188D01*
X92411790Y-77430127D01*
X92423971Y-77394458D01*
X92445625Y-77350774D01*
X92477909Y-77296670D01*
X92510227Y-77247157D01*
X92538692Y-77203972D01*
X92562836Y-77166018D01*
X92580763Y-77136377D01*
X92590583Y-77118132D01*
X92591860Y-77114282D01*
X92597976Y-77100112D01*
X92613159Y-77080297D01*
X92632659Y-77059698D01*
X92651729Y-77043176D01*
X92665619Y-77035589D01*
X92668392Y-77035953D01*
G37*
G36*
X93039124Y-74307557D02*
G01*
X93064779Y-74315173D01*
X93101142Y-74328949D01*
X93151038Y-74349786D01*
X93175410Y-74360295D01*
X93223914Y-74381842D01*
X93265832Y-74401430D01*
X93298056Y-74417529D01*
X93317472Y-74428606D01*
X93321717Y-74432289D01*
X93323157Y-74447490D01*
X93322053Y-74474037D01*
X93320722Y-74487970D01*
X93315394Y-74517476D01*
X93307084Y-74531000D01*
X93299922Y-74532825D01*
X93284654Y-74529179D01*
X93256115Y-74519761D01*
X93218945Y-74506165D01*
X93192241Y-74495800D01*
X93121990Y-74466694D01*
X93064621Y-74440387D01*
X93021818Y-74417722D01*
X92995262Y-74399545D01*
X92990038Y-74394306D01*
X92982406Y-74374824D01*
X92980916Y-74348235D01*
X92980963Y-74347728D01*
X92987918Y-74322124D01*
X93005204Y-74308504D01*
X93008633Y-74307210D01*
X93021351Y-74305203D01*
X93039124Y-74307557D01*
G37*
G36*
X93224239Y-76672471D02*
G01*
X93226825Y-76687525D01*
X93218758Y-76712003D01*
X93202471Y-76741054D01*
X93180399Y-76769826D01*
X93169900Y-76780746D01*
X93147094Y-76798631D01*
X93111915Y-76821474D01*
X93069553Y-76846065D01*
X93033741Y-76864960D01*
X92983612Y-76889172D01*
X92944835Y-76905174D01*
X92912174Y-76914750D01*
X92880391Y-76919687D01*
X92870833Y-76920488D01*
X92836925Y-76921963D01*
X92810073Y-76921402D01*
X92797636Y-76919370D01*
X92786560Y-76906898D01*
X92791523Y-76888554D01*
X92810781Y-76866140D01*
X92842592Y-76841457D01*
X92885212Y-76816307D01*
X92908372Y-76804888D01*
X92948748Y-76785576D01*
X92997302Y-76761589D01*
X93045114Y-76737349D01*
X93056671Y-76731370D01*
X93116488Y-76701894D01*
X93164677Y-76681591D01*
X93199888Y-76670935D01*
X93220774Y-76670400D01*
X93224239Y-76672471D01*
G37*
G36*
X93780914Y-76277380D02*
G01*
X93822594Y-76282000D01*
X93848320Y-76289654D01*
X93874778Y-76306888D01*
X93895250Y-76326533D01*
X93905626Y-76344062D01*
X93905051Y-76352114D01*
X93889783Y-76361437D01*
X93857425Y-76369757D01*
X93810247Y-76376559D01*
X93787781Y-76378735D01*
X93701129Y-76386782D01*
X93628117Y-76394879D01*
X93570209Y-76402829D01*
X93528868Y-76410433D01*
X93506957Y-76416849D01*
X93480824Y-76427197D01*
X93448389Y-76438731D01*
X93415771Y-76449442D01*
X93389087Y-76457322D01*
X93374504Y-76460360D01*
X93366691Y-76453029D01*
X93366546Y-76451307D01*
X93374090Y-76421733D01*
X93393946Y-76387298D01*
X93421950Y-76353319D01*
X93453940Y-76325114D01*
X93475545Y-76312088D01*
X93510353Y-76300236D01*
X93557641Y-76290447D01*
X93612875Y-76282994D01*
X93671521Y-76278150D01*
X93729045Y-76276188D01*
X93780914Y-76277380D01*
G37*
G36*
X94579966Y-75397773D02*
G01*
X94588171Y-75407823D01*
X94599571Y-75430387D01*
X94607146Y-75448797D01*
X94614952Y-75473234D01*
X94620240Y-75500894D01*
X94623423Y-75536005D01*
X94624918Y-75582793D01*
X94625175Y-75632415D01*
X94624891Y-75686825D01*
X94623841Y-75726006D01*
X94621424Y-75754094D01*
X94617041Y-75775227D01*
X94610090Y-75793541D01*
X94599970Y-75813173D01*
X94598554Y-75815743D01*
X94578814Y-75848245D01*
X94563645Y-75863933D01*
X94550590Y-75864041D01*
X94537190Y-75849801D01*
X94535556Y-75847360D01*
X94522104Y-75815771D01*
X94511767Y-75769671D01*
X94504786Y-75713702D01*
X94501399Y-75652505D01*
X94501847Y-75590721D01*
X94506369Y-75532992D01*
X94515204Y-75483960D01*
X94516542Y-75478962D01*
X94528113Y-75450587D01*
X94544735Y-75424221D01*
X94562528Y-75404832D01*
X94577610Y-75397389D01*
X94579966Y-75397773D01*
G37*
G36*
X87221562Y-75231774D02*
G01*
X87241325Y-75233572D01*
X87252089Y-75237620D01*
X87257306Y-75244482D01*
X87259717Y-75252038D01*
X87260717Y-75265258D01*
X87261669Y-75296206D01*
X87262557Y-75343241D01*
X87263366Y-75404724D01*
X87264082Y-75479013D01*
X87264690Y-75564470D01*
X87265177Y-75659454D01*
X87265527Y-75762326D01*
X87265725Y-75871445D01*
X87265765Y-75935026D01*
X87265898Y-76595930D01*
X87149391Y-76595930D01*
X87095045Y-76595260D01*
X87058047Y-76593118D01*
X87036422Y-76589308D01*
X87028260Y-76583825D01*
X87027520Y-76572335D01*
X87026889Y-76543076D01*
X87026369Y-76497648D01*
X87025968Y-76437648D01*
X87025689Y-76364676D01*
X87025538Y-76280331D01*
X87025520Y-76186210D01*
X87025640Y-76083913D01*
X87025902Y-75975038D01*
X87026143Y-75903555D01*
X87028650Y-75235388D01*
X87141225Y-75232671D01*
X87189346Y-75231661D01*
X87221562Y-75231774D01*
G37*
G36*
X92374922Y-77267638D02*
G01*
X92389683Y-77280100D01*
X92395486Y-77304236D01*
X92393450Y-77342801D01*
X92390556Y-77363765D01*
X92383950Y-77404061D01*
X92375059Y-77454307D01*
X92364652Y-77510574D01*
X92353496Y-77568928D01*
X92342359Y-77625439D01*
X92332008Y-77676176D01*
X92323210Y-77717207D01*
X92316733Y-77744600D01*
X92315033Y-77750638D01*
X92298854Y-77779416D01*
X92275499Y-77793752D01*
X92249516Y-77792216D01*
X92229038Y-77777670D01*
X92221530Y-77766525D01*
X92216873Y-77751320D01*
X92215292Y-77730028D01*
X92217014Y-77700625D01*
X92222264Y-77661086D01*
X92231268Y-77609387D01*
X92244251Y-77543502D01*
X92261440Y-77461406D01*
X92267398Y-77433558D01*
X92275957Y-77392984D01*
X92283456Y-77356190D01*
X92288486Y-77330111D01*
X92289029Y-77327039D01*
X92302187Y-77290984D01*
X92325693Y-77269486D01*
X92350086Y-77264096D01*
X92374922Y-77267638D01*
G37*
G36*
X94253852Y-76316863D02*
G01*
X94269682Y-76327709D01*
X94271242Y-76329642D01*
X94283936Y-76351559D01*
X94282400Y-76370214D01*
X94265874Y-76392606D01*
X94264223Y-76394400D01*
X94235926Y-76414021D01*
X94190496Y-76431209D01*
X94174650Y-76435538D01*
X94131885Y-76446542D01*
X94088493Y-76457912D01*
X94058921Y-76465822D01*
X93971980Y-76488747D01*
X93902084Y-76505523D01*
X93847988Y-76516374D01*
X93808448Y-76521524D01*
X93782219Y-76521197D01*
X93770835Y-76517671D01*
X93757856Y-76500271D01*
X93754030Y-76473872D01*
X93759323Y-76446522D01*
X93771217Y-76428312D01*
X93787704Y-76419385D01*
X93818128Y-76407991D01*
X93857522Y-76395865D01*
X93884999Y-76388559D01*
X93940754Y-76374535D01*
X94003913Y-76358482D01*
X94063145Y-76343284D01*
X94078288Y-76339366D01*
X94143588Y-76323626D01*
X94193091Y-76314706D01*
X94229084Y-76312490D01*
X94253852Y-76316863D01*
G37*
G36*
X92788336Y-72976766D02*
G01*
X92797354Y-72989628D01*
X92801400Y-73003698D01*
X92802033Y-73022843D01*
X92798787Y-73049314D01*
X92791195Y-73085365D01*
X92778790Y-73133247D01*
X92761105Y-73195211D01*
X92740319Y-73264782D01*
X92725978Y-73312295D01*
X92712687Y-73356568D01*
X92702037Y-73392290D01*
X92696113Y-73412428D01*
X92677591Y-73461744D01*
X92655597Y-73492712D01*
X92629485Y-73506141D01*
X92620846Y-73506871D01*
X92595875Y-73501771D01*
X92580785Y-73483441D01*
X92580096Y-73481962D01*
X92575600Y-73453880D01*
X92579873Y-73409070D01*
X92592830Y-73348029D01*
X92614384Y-73271255D01*
X92619391Y-73255099D01*
X92631249Y-73216835D01*
X92646084Y-73168254D01*
X92661381Y-73117611D01*
X92667361Y-73097637D01*
X92681071Y-73055459D01*
X92695056Y-73018721D01*
X92707281Y-72992506D01*
X92712999Y-72983855D01*
X92737894Y-72967319D01*
X92765146Y-72965103D01*
X92788336Y-72976766D01*
G37*
G36*
X92856364Y-76701917D02*
G01*
X92866738Y-76717589D01*
X92868576Y-76731772D01*
X92863450Y-76749711D01*
X92850173Y-76772988D01*
X92827558Y-76803187D01*
X92794418Y-76841891D01*
X92749565Y-76890683D01*
X92691814Y-76951146D01*
X92690964Y-76952025D01*
X92640629Y-77003777D01*
X92601591Y-77043018D01*
X92571940Y-77071398D01*
X92549764Y-77090572D01*
X92533153Y-77102193D01*
X92520197Y-77107912D01*
X92509066Y-77109383D01*
X92484130Y-77105617D01*
X92467911Y-77097538D01*
X92459205Y-77079676D01*
X92456290Y-77058944D01*
X92458673Y-77047672D01*
X92466795Y-77032597D01*
X92482116Y-77011982D01*
X92506095Y-76984092D01*
X92540191Y-76947189D01*
X92585865Y-76899539D01*
X92618466Y-76866058D01*
X92665073Y-76818964D01*
X92708346Y-76776342D01*
X92746109Y-76740245D01*
X92776188Y-76712731D01*
X92796407Y-76695853D01*
X92803088Y-76691613D01*
X92831946Y-76689224D01*
X92856364Y-76701917D01*
G37*
G36*
X85442966Y-71783344D02*
G01*
X85486835Y-71784092D01*
X85524017Y-71785998D01*
X85549918Y-71788751D01*
X85559232Y-71791217D01*
X85561603Y-71796403D01*
X85563634Y-71809469D01*
X85565341Y-71831525D01*
X85566737Y-71863682D01*
X85567839Y-71907051D01*
X85568660Y-71962743D01*
X85569216Y-72031868D01*
X85569521Y-72115537D01*
X85569590Y-72214861D01*
X85569439Y-72330951D01*
X85569082Y-72464918D01*
X85568915Y-72514916D01*
X85566431Y-73230890D01*
X85464754Y-73232705D01*
X85421404Y-73233001D01*
X85384764Y-73232364D01*
X85359491Y-73230925D01*
X85350972Y-73229478D01*
X85348604Y-73224717D01*
X85346545Y-73211817D01*
X85344775Y-73189688D01*
X85343278Y-73157242D01*
X85342033Y-73113389D01*
X85341024Y-73057042D01*
X85340232Y-72987111D01*
X85339639Y-72902507D01*
X85339227Y-72802142D01*
X85338978Y-72684927D01*
X85338873Y-72549773D01*
X85338867Y-72503815D01*
X85338867Y-71783196D01*
X85442966Y-71783344D01*
G37*
G36*
X92775783Y-73360355D02*
G01*
X92798921Y-73383154D01*
X92821549Y-73416639D01*
X92821845Y-73417167D01*
X92826987Y-73435071D01*
X92830661Y-73468454D01*
X92832942Y-73518494D01*
X92833906Y-73586370D01*
X92833949Y-73607674D01*
X92833872Y-73668606D01*
X92833372Y-73713327D01*
X92832053Y-73744994D01*
X92829516Y-73766763D01*
X92825363Y-73781792D01*
X92819195Y-73793237D01*
X92810613Y-73804254D01*
X92808880Y-73806319D01*
X92790359Y-73825253D01*
X92775309Y-73835486D01*
X92772566Y-73836076D01*
X92762567Y-73827848D01*
X92750256Y-73807084D01*
X92744891Y-73794921D01*
X92738302Y-73773994D01*
X92733464Y-73746907D01*
X92730090Y-73710438D01*
X92727891Y-73661368D01*
X92726579Y-73596474D01*
X92726488Y-73589182D01*
X92726119Y-73512139D01*
X92727231Y-73452589D01*
X92730052Y-73408700D01*
X92734809Y-73378639D01*
X92741729Y-73360572D01*
X92751039Y-73352666D01*
X92755871Y-73351934D01*
X92775783Y-73360355D01*
G37*
G36*
X93544654Y-76473259D02*
G01*
X93557160Y-76489362D01*
X93560217Y-76510414D01*
X93551486Y-76542778D01*
X93526119Y-76566571D01*
X93485349Y-76580682D01*
X93481352Y-76581376D01*
X93451114Y-76587118D01*
X93410308Y-76595925D01*
X93367118Y-76606023D01*
X93361704Y-76607350D01*
X93304786Y-76620956D01*
X93247529Y-76633876D01*
X93193728Y-76645331D01*
X93147183Y-76654540D01*
X93111690Y-76660721D01*
X93091049Y-76663094D01*
X93090564Y-76663099D01*
X93065365Y-76658197D01*
X93054251Y-76653255D01*
X93040667Y-76634533D01*
X93037304Y-76610197D01*
X93040657Y-76586760D01*
X93052611Y-76568835D01*
X93076009Y-76554519D01*
X93113696Y-76541908D01*
X93153724Y-76532276D01*
X93199583Y-76521997D01*
X93247720Y-76510877D01*
X93284235Y-76502164D01*
X93322131Y-76493646D01*
X93370016Y-76483924D01*
X93418755Y-76474837D01*
X93428292Y-76473173D01*
X93482390Y-76465777D01*
X93520454Y-76465601D01*
X93544654Y-76473259D01*
G37*
G36*
X94467874Y-76010754D02*
G01*
X94470472Y-76017972D01*
X94463828Y-76042226D01*
X94447193Y-76071517D01*
X94425517Y-76098555D01*
X94403943Y-76115951D01*
X94386720Y-76126610D01*
X94357888Y-76146303D01*
X94321266Y-76172355D01*
X94280671Y-76202089D01*
X94274846Y-76206425D01*
X94233978Y-76235898D01*
X94196310Y-76261235D01*
X94165679Y-76279977D01*
X94145922Y-76289666D01*
X94144118Y-76290190D01*
X94117068Y-76297035D01*
X94098644Y-76302148D01*
X94086446Y-76303494D01*
X94083662Y-76293995D01*
X94086242Y-76277759D01*
X94104511Y-76230036D01*
X94138717Y-76182511D01*
X94185831Y-76139294D01*
X94191326Y-76135230D01*
X94218451Y-76115252D01*
X94238855Y-76099614D01*
X94247750Y-76092049D01*
X94257856Y-76084474D01*
X94279999Y-76069908D01*
X94309619Y-76051342D01*
X94313201Y-76049145D01*
X94351537Y-76028981D01*
X94389960Y-76014309D01*
X94424683Y-76005880D01*
X94451917Y-76004444D01*
X94467874Y-76010754D01*
G37*
G36*
X86362440Y-78224471D02*
G01*
X86433111Y-78224910D01*
X86776877Y-78227611D01*
X86779668Y-78323646D01*
X86780263Y-78372429D01*
X86778517Y-78404501D01*
X86774194Y-78422408D01*
X86769985Y-78427596D01*
X86756441Y-78430159D01*
X86726438Y-78432250D01*
X86682657Y-78433881D01*
X86627785Y-78435064D01*
X86564506Y-78435814D01*
X86495502Y-78436143D01*
X86423459Y-78436064D01*
X86351060Y-78435589D01*
X86280991Y-78434731D01*
X86215934Y-78433504D01*
X86158574Y-78431920D01*
X86111596Y-78429991D01*
X86077683Y-78427732D01*
X86059519Y-78425154D01*
X86057388Y-78424187D01*
X86051177Y-78407648D01*
X86047224Y-78373953D01*
X86045771Y-78325209D01*
X86045768Y-78322694D01*
X86046054Y-78280469D01*
X86047505Y-78253721D01*
X86051010Y-78238563D01*
X86057461Y-78231109D01*
X86067556Y-78227516D01*
X86082075Y-78226356D01*
X86113596Y-78225435D01*
X86159757Y-78224768D01*
X86218193Y-78224375D01*
X86286542Y-78224270D01*
X86362440Y-78224471D01*
G37*
G36*
X94744953Y-75751801D02*
G01*
X94757125Y-75771612D01*
X94759227Y-75795547D01*
X94750632Y-75826700D01*
X94730711Y-75868168D01*
X94716051Y-75894177D01*
X94689678Y-75939603D01*
X94661071Y-75989078D01*
X94635772Y-76033015D01*
X94632267Y-76039124D01*
X94598324Y-76097598D01*
X94571726Y-76141578D01*
X94550788Y-76173702D01*
X94533827Y-76196609D01*
X94525646Y-76206166D01*
X94501285Y-76222986D01*
X94474171Y-76227620D01*
X94450964Y-76219825D01*
X94441762Y-76209224D01*
X94433512Y-76188166D01*
X94431738Y-76177485D01*
X94436815Y-76159775D01*
X94451119Y-76128519D01*
X94473265Y-76086370D01*
X94501864Y-76035982D01*
X94531924Y-75985865D01*
X94556447Y-75945496D01*
X94580849Y-75904602D01*
X94600521Y-75870921D01*
X94603389Y-75865896D01*
X94625259Y-75827512D01*
X94640299Y-75801838D01*
X94651174Y-75784704D01*
X94660548Y-75771938D01*
X94671087Y-75759373D01*
X94672529Y-75757712D01*
X94698331Y-75737849D01*
X94723867Y-75736921D01*
X94744953Y-75751801D01*
G37*
G36*
X92515550Y-76902081D02*
G01*
X92519196Y-76905743D01*
X92515901Y-76918180D01*
X92498739Y-76941906D01*
X92468645Y-76975720D01*
X92448689Y-76996391D01*
X92390768Y-77059815D01*
X92341092Y-77123590D01*
X92301184Y-77185171D01*
X92272566Y-77242011D01*
X92256759Y-77291566D01*
X92254183Y-77321635D01*
X92253344Y-77358394D01*
X92247735Y-77390176D01*
X92238656Y-77412006D01*
X92228747Y-77419033D01*
X92215776Y-77411454D01*
X92199699Y-77392628D01*
X92195624Y-77386418D01*
X92182537Y-77361574D01*
X92175737Y-77341498D01*
X92175467Y-77338572D01*
X92170035Y-77321540D01*
X92165783Y-77317356D01*
X92156473Y-77300841D01*
X92156732Y-77271211D01*
X92165958Y-77231832D01*
X92183551Y-77186070D01*
X92192621Y-77167077D01*
X92219916Y-77118051D01*
X92253029Y-77066374D01*
X92288770Y-77016374D01*
X92323946Y-76972376D01*
X92355365Y-76938707D01*
X92370962Y-76925354D01*
X92396988Y-76911806D01*
X92430267Y-76901937D01*
X92464990Y-76896515D01*
X92495354Y-76896307D01*
X92515550Y-76902081D01*
G37*
G36*
X90509893Y-75898141D02*
G01*
X90509815Y-76036547D01*
X90509568Y-76156617D01*
X90509137Y-76259384D01*
X90508501Y-76345877D01*
X90507646Y-76417128D01*
X90506552Y-76474168D01*
X90505202Y-76518029D01*
X90503579Y-76549741D01*
X90501665Y-76570335D01*
X90499443Y-76580844D01*
X90498258Y-76582610D01*
X90484216Y-76585958D01*
X90455404Y-76589359D01*
X90416415Y-76592354D01*
X90383545Y-76594048D01*
X90280465Y-76598295D01*
X90274219Y-76546273D01*
X90272969Y-76526028D01*
X90271859Y-76488662D01*
X90270889Y-76436269D01*
X90270059Y-76370945D01*
X90269370Y-76294783D01*
X90268823Y-76209879D01*
X90268417Y-76118326D01*
X90268153Y-76022220D01*
X90268032Y-75923655D01*
X90268053Y-75824725D01*
X90268218Y-75727525D01*
X90268527Y-75634150D01*
X90268980Y-75546693D01*
X90269578Y-75467251D01*
X90270320Y-75397916D01*
X90271208Y-75340784D01*
X90272242Y-75297950D01*
X90273422Y-75271507D01*
X90273962Y-75265791D01*
X90280120Y-75220863D01*
X90395006Y-75220863D01*
X90509893Y-75220863D01*
X90509893Y-75898141D01*
G37*
G36*
X92652645Y-73695838D02*
G01*
X92672338Y-73712210D01*
X92692607Y-73742130D01*
X92715108Y-73787751D01*
X92726205Y-73813502D01*
X92740591Y-73847192D01*
X92760576Y-73893042D01*
X92783757Y-73945579D01*
X92807728Y-73999327D01*
X92813225Y-74011562D01*
X92836245Y-74063322D01*
X92851990Y-74100840D01*
X92861443Y-74127391D01*
X92865591Y-74146252D01*
X92865418Y-74160698D01*
X92861994Y-74173762D01*
X92852666Y-74194395D01*
X92844117Y-74204000D01*
X92843478Y-74204088D01*
X92827664Y-74206840D01*
X92822637Y-74208325D01*
X92804114Y-74208254D01*
X92787522Y-74203636D01*
X92769588Y-74189177D01*
X92753200Y-74164634D01*
X92750295Y-74158244D01*
X92741656Y-74137961D01*
X92726658Y-74103488D01*
X92706836Y-74058318D01*
X92683722Y-74005948D01*
X92658852Y-73949873D01*
X92658731Y-73949601D01*
X92626238Y-73874327D01*
X92602904Y-73814465D01*
X92588568Y-73768452D01*
X92583067Y-73734726D01*
X92586238Y-73711722D01*
X92597920Y-73697876D01*
X92617950Y-73691626D01*
X92631872Y-73690859D01*
X92652645Y-73695838D01*
G37*
G36*
X94414452Y-74700283D02*
G01*
X94445302Y-74708446D01*
X94477355Y-74724189D01*
X94513561Y-74749260D01*
X94556869Y-74785409D01*
X94607268Y-74831593D01*
X94660861Y-74886405D01*
X94698384Y-74935658D01*
X94721349Y-74981926D01*
X94731263Y-75027778D01*
X94731929Y-75043967D01*
X94728095Y-75078345D01*
X94718181Y-75112970D01*
X94704563Y-75141769D01*
X94689623Y-75158669D01*
X94686406Y-75160183D01*
X94677432Y-75153972D01*
X94665073Y-75134483D01*
X94656860Y-75117123D01*
X94643601Y-75082459D01*
X94632937Y-75048725D01*
X94630041Y-75037046D01*
X94617066Y-75007661D01*
X94591114Y-74971558D01*
X94555777Y-74932053D01*
X94514643Y-74892458D01*
X94471302Y-74856089D01*
X94429346Y-74826261D01*
X94392364Y-74806286D01*
X94373637Y-74800329D01*
X94341579Y-74791842D01*
X94307879Y-74779243D01*
X94277619Y-74764931D01*
X94255884Y-74751303D01*
X94247750Y-74740922D01*
X94256621Y-74728490D01*
X94280051Y-74716460D01*
X94313261Y-74706365D01*
X94351477Y-74699733D01*
X94381856Y-74697950D01*
X94414452Y-74700283D01*
G37*
G36*
X87552681Y-74943890D02*
G01*
X87624052Y-74944078D01*
X87694451Y-74944410D01*
X87761030Y-74944877D01*
X87820943Y-74945470D01*
X87871341Y-74946180D01*
X87909379Y-74946999D01*
X87932209Y-74947917D01*
X87936823Y-74948371D01*
X87939731Y-74957959D01*
X87941570Y-74982777D01*
X87942143Y-75018709D01*
X87941665Y-75048980D01*
X87938906Y-75148236D01*
X87890488Y-75154651D01*
X87869361Y-75156189D01*
X87832728Y-75157514D01*
X87783485Y-75158619D01*
X87724528Y-75159497D01*
X87658754Y-75160141D01*
X87589058Y-75160547D01*
X87518337Y-75160707D01*
X87449488Y-75160614D01*
X87385407Y-75160264D01*
X87328990Y-75159648D01*
X87283133Y-75158762D01*
X87250733Y-75157598D01*
X87234686Y-75156150D01*
X87234426Y-75156086D01*
X87226716Y-75151814D01*
X87221739Y-75141491D01*
X87218924Y-75121595D01*
X87217699Y-75088605D01*
X87217480Y-75051599D01*
X87217480Y-74951540D01*
X87263477Y-74946278D01*
X87280892Y-74945417D01*
X87314417Y-74944753D01*
X87361206Y-74944278D01*
X87418411Y-74943981D01*
X87483185Y-74943855D01*
X87552681Y-74943890D01*
G37*
G36*
X93952570Y-76528948D02*
G01*
X93953456Y-76529852D01*
X93952491Y-76543505D01*
X93943256Y-76567394D01*
X93928592Y-76595891D01*
X93911339Y-76623368D01*
X93897320Y-76641115D01*
X93874953Y-76658397D01*
X93841096Y-76673199D01*
X93793690Y-76686101D01*
X93730681Y-76697685D01*
X93665129Y-76706704D01*
X93610466Y-76713422D01*
X93571990Y-76717926D01*
X93546661Y-76720329D01*
X93531440Y-76720742D01*
X93523286Y-76719275D01*
X93519160Y-76716041D01*
X93516641Y-76712132D01*
X93502858Y-76703733D01*
X93493605Y-76702449D01*
X93474746Y-76695811D01*
X93451568Y-76679528D01*
X93430202Y-76659042D01*
X93416782Y-76639798D01*
X93414964Y-76632646D01*
X93422916Y-76621163D01*
X93447336Y-76612963D01*
X93489066Y-76607891D01*
X93548950Y-76605795D01*
X93563046Y-76605720D01*
X93617448Y-76603244D01*
X93675827Y-76596629D01*
X93732361Y-76586880D01*
X93781225Y-76575004D01*
X93816597Y-76562006D01*
X93816832Y-76561889D01*
X93845998Y-76549683D01*
X93879550Y-76539021D01*
X93912092Y-76531167D01*
X93938231Y-76527388D01*
X93952570Y-76528948D01*
G37*
G36*
X92327734Y-73295273D02*
G01*
X92367918Y-73296673D01*
X92391866Y-73299019D01*
X92398189Y-73301604D01*
X92391505Y-73314630D01*
X92382163Y-73324119D01*
X92370395Y-73335027D01*
X92360747Y-73347656D01*
X92352977Y-73363977D01*
X92346841Y-73385963D01*
X92342099Y-73415587D01*
X92338508Y-73454820D01*
X92335826Y-73505636D01*
X92333810Y-73570005D01*
X92332219Y-73649901D01*
X92330883Y-73741698D01*
X92330404Y-73778011D01*
X92226305Y-73776588D01*
X92176100Y-73775394D01*
X92126399Y-73773353D01*
X92084522Y-73770802D01*
X92066777Y-73769230D01*
X92038466Y-73765870D01*
X92016835Y-73761030D01*
X92000940Y-73752305D01*
X91989835Y-73737287D01*
X91982572Y-73713571D01*
X91978206Y-73678749D01*
X91975791Y-73630416D01*
X91974380Y-73566165D01*
X91973843Y-73532879D01*
X91972318Y-73459899D01*
X91971818Y-73403842D01*
X91974544Y-73362454D01*
X91982698Y-73333479D01*
X91998481Y-73314662D01*
X92024094Y-73303746D01*
X92061740Y-73298477D01*
X92113619Y-73296600D01*
X92181933Y-73295858D01*
X92205512Y-73295527D01*
X92273028Y-73294873D01*
X92327734Y-73295273D01*
G37*
G36*
X92692209Y-74096475D02*
G01*
X92706151Y-74118123D01*
X92720905Y-74147781D01*
X92733872Y-74180248D01*
X92742159Y-74208930D01*
X92752101Y-74228564D01*
X92773722Y-74257141D01*
X92803701Y-74291351D01*
X92838716Y-74327885D01*
X92875449Y-74363432D01*
X92910577Y-74394682D01*
X92940783Y-74418325D01*
X92962744Y-74431052D01*
X92965942Y-74432015D01*
X92999249Y-74441212D01*
X93034953Y-74453893D01*
X93068275Y-74467973D01*
X93094435Y-74481367D01*
X93108653Y-74491988D01*
X93109931Y-74494847D01*
X93101038Y-74511166D01*
X93077414Y-74524971D01*
X93043643Y-74535183D01*
X93004307Y-74540723D01*
X92963990Y-74540511D01*
X92935676Y-74535881D01*
X92910340Y-74524048D01*
X92875753Y-74500500D01*
X92835203Y-74468279D01*
X92791978Y-74430432D01*
X92749365Y-74390001D01*
X92710652Y-74350032D01*
X92679128Y-74313569D01*
X92658079Y-74283656D01*
X92653497Y-74274605D01*
X92644174Y-74240701D01*
X92641098Y-74201827D01*
X92643577Y-74162582D01*
X92650914Y-74127563D01*
X92662416Y-74101368D01*
X92677387Y-74088593D01*
X92681682Y-74088036D01*
X92692209Y-74096475D01*
G37*
G36*
X93447294Y-72396665D02*
G01*
X93461637Y-72405791D01*
X93466722Y-72410970D01*
X93477819Y-72425257D01*
X93483268Y-72439321D01*
X93481819Y-72454728D01*
X93472221Y-72473047D01*
X93453226Y-72495844D01*
X93423583Y-72524688D01*
X93382042Y-72561145D01*
X93327353Y-72606784D01*
X93279149Y-72646198D01*
X93235034Y-72682142D01*
X93191939Y-72717331D01*
X93154156Y-72748253D01*
X93125978Y-72771399D01*
X93120692Y-72775762D01*
X93075583Y-72812537D01*
X93042143Y-72838281D01*
X93017550Y-72854810D01*
X92998978Y-72863942D01*
X92983606Y-72867492D01*
X92977701Y-72867756D01*
X92949117Y-72859060D01*
X92935047Y-72844021D01*
X92925099Y-72818639D01*
X92925685Y-72800786D01*
X92936919Y-72783844D01*
X92961696Y-72757763D01*
X92997750Y-72724596D01*
X93042817Y-72686396D01*
X93094635Y-72645218D01*
X93110855Y-72632820D01*
X93139834Y-72610382D01*
X93179279Y-72579169D01*
X93224727Y-72542744D01*
X93271716Y-72504671D01*
X93288839Y-72490683D01*
X93339800Y-72449807D01*
X93378814Y-72421004D01*
X93408193Y-72403236D01*
X93430250Y-72395468D01*
X93447294Y-72396665D01*
G37*
G36*
X94779350Y-75340455D02*
G01*
X94809147Y-75351889D01*
X94840727Y-75371441D01*
X94868483Y-75395991D01*
X94878140Y-75407709D01*
X94898122Y-75441335D01*
X94912155Y-75480490D01*
X94920786Y-75528414D01*
X94924560Y-75588350D01*
X94924024Y-75663536D01*
X94923570Y-75677334D01*
X94920210Y-75741247D01*
X94914565Y-75790000D01*
X94905458Y-75827767D01*
X94891716Y-75858723D01*
X94872164Y-75887042D01*
X94860794Y-75900448D01*
X94838935Y-75918468D01*
X94809978Y-75934000D01*
X94779056Y-75945390D01*
X94751305Y-75950987D01*
X94731859Y-75949137D01*
X94726305Y-75943744D01*
X94728954Y-75930115D01*
X94740366Y-75904764D01*
X94758455Y-75872012D01*
X94770094Y-75853038D01*
X94819081Y-75775879D01*
X94819081Y-75642928D01*
X94818847Y-75588854D01*
X94817774Y-75550092D01*
X94815303Y-75522586D01*
X94810878Y-75502284D01*
X94803940Y-75485131D01*
X94795185Y-75469201D01*
X94776744Y-75434001D01*
X94760247Y-75396552D01*
X94756734Y-75387174D01*
X94748457Y-75361359D01*
X94747535Y-75347970D01*
X94753993Y-75341506D01*
X94756942Y-75340259D01*
X94779350Y-75340455D01*
G37*
G36*
X92995089Y-72640822D02*
G01*
X93013650Y-72649084D01*
X93026209Y-72660767D01*
X93027606Y-72666422D01*
X92985346Y-72696913D01*
X92951459Y-72718494D01*
X92919744Y-72735010D01*
X92909628Y-72739595D01*
X92880930Y-72756092D01*
X92846193Y-72781886D01*
X92808265Y-72814131D01*
X92769995Y-72849980D01*
X92734233Y-72886585D01*
X92703827Y-72921101D01*
X92681627Y-72950679D01*
X92670483Y-72972473D01*
X92669867Y-72979177D01*
X92668627Y-72994629D01*
X92663359Y-73020809D01*
X92655844Y-73049966D01*
X92648181Y-73073532D01*
X92634761Y-73095220D01*
X92618883Y-73097728D01*
X92601008Y-73081017D01*
X92598520Y-73077368D01*
X92579940Y-73031702D01*
X92576037Y-72974541D01*
X92581941Y-72929268D01*
X92587006Y-72906425D01*
X92593502Y-72887596D01*
X92603809Y-72869494D01*
X92620304Y-72848830D01*
X92645367Y-72822316D01*
X92681377Y-72786664D01*
X92694101Y-72774250D01*
X92733844Y-72736948D01*
X92772624Y-72703065D01*
X92806605Y-72675787D01*
X92831951Y-72658302D01*
X92836913Y-72655626D01*
X92873697Y-72643131D01*
X92916650Y-72636339D01*
X92959278Y-72635489D01*
X92995089Y-72640822D01*
G37*
G36*
X94626579Y-76128277D02*
G01*
X94629474Y-76130473D01*
X94643271Y-76152841D01*
X94650298Y-76187986D01*
X94650112Y-76230382D01*
X94642268Y-76274500D01*
X94641320Y-76277857D01*
X94626106Y-76315032D01*
X94601354Y-76351029D01*
X94564664Y-76388539D01*
X94513640Y-76430248D01*
X94489384Y-76448200D01*
X94419668Y-76494819D01*
X94359151Y-76526368D01*
X94305683Y-76543469D01*
X94257114Y-76546745D01*
X94211294Y-76536821D01*
X94199621Y-76532178D01*
X94169295Y-76516245D01*
X94145224Y-76498614D01*
X94132436Y-76483186D01*
X94131548Y-76479355D01*
X94132234Y-76476037D01*
X94136380Y-76472991D01*
X94147112Y-76469317D01*
X94167560Y-76464120D01*
X94200851Y-76456500D01*
X94246681Y-76446321D01*
X94294811Y-76432851D01*
X94338893Y-76413355D01*
X94387332Y-76384054D01*
X94391935Y-76380980D01*
X94440070Y-76348363D01*
X94475108Y-76323364D01*
X94500146Y-76302973D01*
X94518278Y-76284184D01*
X94532600Y-76263988D01*
X94546208Y-76239376D01*
X94554387Y-76223112D01*
X94577444Y-76177746D01*
X94594380Y-76147814D01*
X94607007Y-76131081D01*
X94617136Y-76125314D01*
X94626579Y-76128277D01*
G37*
G36*
X93080487Y-76419351D02*
G01*
X93109205Y-76426819D01*
X93137802Y-76442589D01*
X93141403Y-76444980D01*
X93165415Y-76464328D01*
X93180172Y-76482517D01*
X93182558Y-76490032D01*
X93179847Y-76498996D01*
X93169269Y-76505191D01*
X93147161Y-76509743D01*
X93109857Y-76513780D01*
X93103503Y-76514343D01*
X93069571Y-76517984D01*
X93040591Y-76523359D01*
X93011802Y-76532086D01*
X92978443Y-76545781D01*
X92935753Y-76566064D01*
X92902569Y-76582628D01*
X92851364Y-76608982D01*
X92813711Y-76630174D01*
X92785531Y-76649057D01*
X92762746Y-76668490D01*
X92741280Y-76691327D01*
X92732272Y-76701908D01*
X92707816Y-76729447D01*
X92686866Y-76749989D01*
X92673279Y-76759820D01*
X92671750Y-76760175D01*
X92663374Y-76751138D01*
X92659792Y-76723349D01*
X92659645Y-76713577D01*
X92662559Y-76666926D01*
X92672670Y-76627655D01*
X92692035Y-76593375D01*
X92722709Y-76561695D01*
X92766750Y-76530223D01*
X92826212Y-76496569D01*
X92861885Y-76478417D01*
X92912487Y-76453720D01*
X92950157Y-76436722D01*
X92979059Y-76426018D01*
X93003355Y-76420203D01*
X93027207Y-76417871D01*
X93042146Y-76417562D01*
X93080487Y-76419351D01*
G37*
G36*
X92570484Y-73307963D02*
G01*
X92571767Y-73320625D01*
X92567477Y-73345787D01*
X92559114Y-73377920D01*
X92548178Y-73411493D01*
X92536166Y-73440978D01*
X92532351Y-73448627D01*
X92522735Y-73477364D01*
X92516610Y-73517806D01*
X92513792Y-73565684D01*
X92514101Y-73616730D01*
X92517352Y-73666677D01*
X92523365Y-73711258D01*
X92531956Y-73746206D01*
X92542944Y-73767251D01*
X92546073Y-73769859D01*
X92554933Y-73782078D01*
X92566687Y-73806091D01*
X92578587Y-73835167D01*
X92587888Y-73862571D01*
X92591844Y-73881570D01*
X92591852Y-73882110D01*
X92584260Y-73892158D01*
X92564650Y-73893357D01*
X92537803Y-73886500D01*
X92508498Y-73872379D01*
X92499996Y-73866883D01*
X92470762Y-73845197D01*
X92449328Y-73824185D01*
X92434457Y-73800338D01*
X92424912Y-73770146D01*
X92419455Y-73730103D01*
X92416848Y-73676698D01*
X92416050Y-73628905D01*
X92415484Y-73564413D01*
X92415452Y-73516213D01*
X92416176Y-73481230D01*
X92417878Y-73456391D01*
X92420779Y-73438623D01*
X92425101Y-73424852D01*
X92431067Y-73412004D01*
X92431816Y-73410548D01*
X92450247Y-73383485D01*
X92475872Y-73356501D01*
X92504711Y-73332539D01*
X92532787Y-73314543D01*
X92556120Y-73305456D01*
X92570484Y-73307963D01*
G37*
G36*
X89816344Y-73699015D02*
G01*
X89830282Y-73724598D01*
X89851186Y-73764516D01*
X89878280Y-73817241D01*
X89910787Y-73881244D01*
X89947932Y-73954997D01*
X89988936Y-74036971D01*
X90033025Y-74125637D01*
X90079137Y-74218891D01*
X90138879Y-74340035D01*
X90190625Y-74444974D01*
X90234941Y-74534877D01*
X90272393Y-74610909D01*
X90303545Y-74674240D01*
X90328964Y-74726035D01*
X90349214Y-74767464D01*
X90364862Y-74799693D01*
X90376472Y-74823890D01*
X90384611Y-74841222D01*
X90389843Y-74852857D01*
X90392733Y-74859963D01*
X90393849Y-74863707D01*
X90393754Y-74865256D01*
X90393014Y-74865778D01*
X90392556Y-74866036D01*
X90382242Y-74871410D01*
X90360648Y-74881623D01*
X90350114Y-74886451D01*
X90317475Y-74901505D01*
X90279552Y-74919297D01*
X90263571Y-74926889D01*
X90236166Y-74939529D01*
X90216440Y-74947796D01*
X90210311Y-74949666D01*
X90205167Y-74941227D01*
X90192097Y-74916867D01*
X90171821Y-74877997D01*
X90145057Y-74826028D01*
X90112526Y-74762369D01*
X90074946Y-74688431D01*
X90033038Y-74605624D01*
X89987520Y-74515359D01*
X89939112Y-74419045D01*
X89911052Y-74363078D01*
X89861485Y-74264002D01*
X89814641Y-74170128D01*
X89771217Y-74082867D01*
X89731912Y-74003635D01*
X89697423Y-73933844D01*
X89668447Y-73874908D01*
X89645683Y-73828241D01*
X89629828Y-73795256D01*
X89621580Y-73777367D01*
X89620545Y-73774469D01*
X89647867Y-73758799D01*
X89682386Y-73741113D01*
X89719736Y-73723370D01*
X89755555Y-73707532D01*
X89785478Y-73695558D01*
X89805140Y-73689408D01*
X89810149Y-73689297D01*
X89816344Y-73699015D01*
G37*
G36*
X90276997Y-76881524D02*
G01*
X90302334Y-76894007D01*
X90333735Y-76911557D01*
X90366794Y-76931493D01*
X90397104Y-76951131D01*
X90420258Y-76967792D01*
X90431849Y-76978793D01*
X90432424Y-76980407D01*
X90428114Y-76992039D01*
X90415811Y-77018976D01*
X90396457Y-77059340D01*
X90370993Y-77111253D01*
X90340360Y-77172837D01*
X90305500Y-77242213D01*
X90267355Y-77317503D01*
X90226866Y-77396830D01*
X90184973Y-77478314D01*
X90142620Y-77560079D01*
X90122765Y-77598179D01*
X90086524Y-77667713D01*
X90047050Y-77743673D01*
X90006131Y-77822602D01*
X89965552Y-77901044D01*
X89927100Y-77975543D01*
X89892562Y-78042642D01*
X89863723Y-78098886D01*
X89845460Y-78134719D01*
X89819846Y-78181952D01*
X89800179Y-78210925D01*
X89786362Y-78221775D01*
X89784944Y-78221859D01*
X89769829Y-78216892D01*
X89742759Y-78204367D01*
X89708470Y-78186551D01*
X89691631Y-78177233D01*
X89657322Y-78157750D01*
X89630024Y-78142018D01*
X89613685Y-78132325D01*
X89610857Y-78130454D01*
X89612772Y-78124332D01*
X89620514Y-78107208D01*
X89634399Y-78078462D01*
X89654743Y-78037472D01*
X89681860Y-77983618D01*
X89716067Y-77916277D01*
X89757677Y-77834831D01*
X89807008Y-77738656D01*
X89864373Y-77627133D01*
X89930090Y-77499640D01*
X89999194Y-77365773D01*
X90053255Y-77261160D01*
X90099158Y-77172476D01*
X90137600Y-77098426D01*
X90169276Y-77037716D01*
X90194883Y-76989050D01*
X90215117Y-76951133D01*
X90230676Y-76922670D01*
X90242254Y-76902367D01*
X90250550Y-76888927D01*
X90256258Y-76881057D01*
X90260076Y-76877460D01*
X90262131Y-76876788D01*
X90276997Y-76881524D01*
G37*
G36*
X88929794Y-75198791D02*
G01*
X88951510Y-75217682D01*
X88979755Y-75245417D01*
X89011656Y-75278927D01*
X89044340Y-75315143D01*
X89074935Y-75350998D01*
X89100566Y-75383423D01*
X89112405Y-75400009D01*
X89159184Y-75475388D01*
X89195831Y-75548864D01*
X89224142Y-75625464D01*
X89245914Y-75710212D01*
X89262941Y-75808134D01*
X89265901Y-75829487D01*
X89272340Y-75881794D01*
X89275439Y-75922184D01*
X89275218Y-75957814D01*
X89271699Y-75995840D01*
X89266516Y-76032842D01*
X89250480Y-76125067D01*
X89231525Y-76203266D01*
X89207664Y-76272759D01*
X89176910Y-76338867D01*
X89137276Y-76406907D01*
X89112773Y-76444407D01*
X89089369Y-76476192D01*
X89059581Y-76512304D01*
X89026299Y-76549737D01*
X88992411Y-76585489D01*
X88960806Y-76616555D01*
X88934373Y-76639931D01*
X88916000Y-76652613D01*
X88911205Y-76654031D01*
X88898422Y-76647184D01*
X88876730Y-76628795D01*
X88849744Y-76602096D01*
X88833773Y-76584838D01*
X88806603Y-76554036D01*
X88784673Y-76528199D01*
X88771035Y-76510974D01*
X88768158Y-76506449D01*
X88772413Y-76495031D01*
X88787079Y-76475032D01*
X88803141Y-76457019D01*
X88867733Y-76379841D01*
X88924156Y-76293269D01*
X88969393Y-76202690D01*
X89000426Y-76113491D01*
X89004230Y-76098171D01*
X89013407Y-76041469D01*
X89018433Y-75973026D01*
X89019307Y-75899803D01*
X89016025Y-75828760D01*
X89008582Y-75766857D01*
X89004392Y-75746008D01*
X88980680Y-75669621D01*
X88945750Y-75590117D01*
X88902750Y-75513152D01*
X88854828Y-75444382D01*
X88806708Y-75390935D01*
X88787949Y-75370330D01*
X88777387Y-75353056D01*
X88776534Y-75349093D01*
X88782767Y-75336401D01*
X88799173Y-75314133D01*
X88822317Y-75286122D01*
X88848763Y-75256204D01*
X88875074Y-75228213D01*
X88897815Y-75205982D01*
X88913550Y-75193347D01*
X88917479Y-75191812D01*
X88929794Y-75198791D01*
G37*
G36*
X92194842Y-77599155D02*
G01*
X92197077Y-77612422D01*
X92194411Y-77637765D01*
X92188232Y-77668940D01*
X92179929Y-77699707D01*
X92170891Y-77723822D01*
X92165006Y-77733265D01*
X92161852Y-77745770D01*
X92159189Y-77773956D01*
X92157234Y-77814140D01*
X92156204Y-77862639D01*
X92156100Y-77884460D01*
X92156223Y-77939726D01*
X92156930Y-77979063D01*
X92158722Y-78005911D01*
X92162104Y-78023708D01*
X92167579Y-78035894D01*
X92175650Y-78045907D01*
X92180446Y-78050803D01*
X92217574Y-78075363D01*
X92259882Y-78082036D01*
X92295848Y-78073575D01*
X92317696Y-78063202D01*
X92333897Y-78051015D01*
X92345288Y-78034135D01*
X92352710Y-78009683D01*
X92357002Y-77974781D01*
X92359004Y-77926549D01*
X92359554Y-77862109D01*
X92359561Y-77855060D01*
X92360273Y-77772528D01*
X92362321Y-77708677D01*
X92365757Y-77662863D01*
X92370635Y-77634443D01*
X92377007Y-77622772D01*
X92378607Y-77622388D01*
X92394835Y-77630370D01*
X92415321Y-77651275D01*
X92435997Y-77680541D01*
X92445218Y-77697050D01*
X92453421Y-77715091D01*
X92459151Y-77734130D01*
X92462839Y-77758008D01*
X92464916Y-77790567D01*
X92465815Y-77835650D01*
X92465974Y-77881971D01*
X92465502Y-77942916D01*
X92463882Y-77987904D01*
X92460811Y-78020325D01*
X92455983Y-78043570D01*
X92450062Y-78059082D01*
X92414812Y-78112414D01*
X92368294Y-78153321D01*
X92313948Y-78180080D01*
X92255212Y-78190972D01*
X92198365Y-78185025D01*
X92151082Y-78164034D01*
X92105781Y-78127297D01*
X92077770Y-78094157D01*
X92049580Y-78055243D01*
X92049740Y-77889654D01*
X92049968Y-77828511D01*
X92050762Y-77783338D01*
X92052485Y-77750739D01*
X92055503Y-77727317D01*
X92060181Y-77709677D01*
X92066882Y-77694422D01*
X92071644Y-77685674D01*
X92089513Y-77661892D01*
X92114466Y-77638015D01*
X92142093Y-77617139D01*
X92167986Y-77602360D01*
X92187738Y-77596773D01*
X92194842Y-77599155D01*
G37*
G36*
X89845936Y-71790338D02*
G01*
X89869505Y-71809708D01*
X89900252Y-71838815D01*
X89935678Y-71874994D01*
X89973285Y-71915585D01*
X90010575Y-71957924D01*
X90045049Y-71999348D01*
X90074209Y-72037194D01*
X90086281Y-72054336D01*
X90126059Y-72120290D01*
X90163535Y-72195260D01*
X90195765Y-72272505D01*
X90219803Y-72345286D01*
X90228006Y-72378736D01*
X90236281Y-72417042D01*
X90244621Y-72453473D01*
X90249119Y-72471853D01*
X90253892Y-72502664D01*
X90256266Y-72545374D01*
X90256482Y-72596026D01*
X90254777Y-72650662D01*
X90251390Y-72705324D01*
X90246562Y-72756056D01*
X90240530Y-72798899D01*
X90233533Y-72829895D01*
X90226621Y-72844382D01*
X90220408Y-72859365D01*
X90219386Y-72869552D01*
X90215962Y-72888806D01*
X90206878Y-72920696D01*
X90193915Y-72959977D01*
X90178855Y-73001407D01*
X90163480Y-73039741D01*
X90155386Y-73057924D01*
X90137186Y-73092265D01*
X90111694Y-73134199D01*
X90080915Y-73181031D01*
X90046849Y-73230066D01*
X90011501Y-73278607D01*
X89976871Y-73323959D01*
X89944964Y-73363426D01*
X89917781Y-73394314D01*
X89897324Y-73413926D01*
X89886607Y-73419719D01*
X89874566Y-73413588D01*
X89852046Y-73397081D01*
X89822738Y-73373022D01*
X89802352Y-73355175D01*
X89771585Y-73327128D01*
X89746719Y-73303596D01*
X89731022Y-73287718D01*
X89727296Y-73283024D01*
X89732263Y-73273302D01*
X89748082Y-73252833D01*
X89772155Y-73224806D01*
X89796210Y-73198446D01*
X89870600Y-73109758D01*
X89927950Y-73021336D01*
X89953540Y-72969433D01*
X89977239Y-72912857D01*
X89994651Y-72865352D01*
X90006726Y-72821907D01*
X90014420Y-72777511D01*
X90018684Y-72727155D01*
X90020471Y-72665827D01*
X90020757Y-72615983D01*
X90020061Y-72543116D01*
X90017245Y-72484751D01*
X90011397Y-72436062D01*
X90001606Y-72392223D01*
X89986959Y-72348405D01*
X89966544Y-72299784D01*
X89957084Y-72279044D01*
X89943031Y-72248012D01*
X89932927Y-72224438D01*
X89928885Y-72213261D01*
X89928879Y-72213149D01*
X89922727Y-72198068D01*
X89906050Y-72172204D01*
X89881514Y-72138955D01*
X89851786Y-72101718D01*
X89819533Y-72063889D01*
X89787421Y-72028866D01*
X89771700Y-72012926D01*
X89741171Y-71981949D01*
X89717001Y-71955518D01*
X89701884Y-71936708D01*
X89698172Y-71928988D01*
X89707514Y-71913794D01*
X89726078Y-71890244D01*
X89750289Y-71862230D01*
X89776567Y-71833644D01*
X89801336Y-71808377D01*
X89821017Y-71790321D01*
X89832033Y-71783368D01*
X89832043Y-71783368D01*
X89845936Y-71790338D01*
G37*
G36*
X91149723Y-75116601D02*
G01*
X91161883Y-75122851D01*
X91177825Y-75134252D01*
X91198343Y-75151560D01*
X91224230Y-75175533D01*
X91256282Y-75206927D01*
X91295293Y-75246498D01*
X91342056Y-75295004D01*
X91397367Y-75353201D01*
X91462019Y-75421847D01*
X91536807Y-75501696D01*
X91622526Y-75593507D01*
X91719969Y-75698036D01*
X91817175Y-75802353D01*
X91898141Y-75889362D01*
X91969025Y-75965798D01*
X92029286Y-76031073D01*
X92078383Y-76084597D01*
X92115777Y-76125781D01*
X92140927Y-76154035D01*
X92152991Y-76168372D01*
X92164700Y-76195752D01*
X92157241Y-76221156D01*
X92148324Y-76231069D01*
X92139054Y-76236882D01*
X92124046Y-76241254D01*
X92100556Y-76244446D01*
X92065841Y-76246720D01*
X92017159Y-76248335D01*
X91954110Y-76249516D01*
X91777355Y-76252163D01*
X91838109Y-76339315D01*
X91876766Y-76390035D01*
X91926536Y-76448223D01*
X91984006Y-76510472D01*
X92045762Y-76573376D01*
X92108390Y-76633529D01*
X92168476Y-76687523D01*
X92222607Y-76731952D01*
X92255356Y-76755691D01*
X92290262Y-76779871D01*
X92318182Y-76800721D01*
X92335743Y-76815629D01*
X92340087Y-76821340D01*
X92333378Y-76831869D01*
X92315808Y-76850861D01*
X92291720Y-76873705D01*
X92259620Y-76907222D01*
X92222554Y-76953326D01*
X92183948Y-77007149D01*
X92147228Y-77063824D01*
X92115821Y-77118483D01*
X92106250Y-77137188D01*
X92089271Y-77181242D01*
X92076937Y-77230963D01*
X92073997Y-77250970D01*
X92068200Y-77288798D01*
X92060646Y-77308629D01*
X92054130Y-77312514D01*
X92043208Y-77305980D01*
X92021208Y-77287866D01*
X91990627Y-77260401D01*
X91953962Y-77225818D01*
X91921290Y-77193890D01*
X91810315Y-77078264D01*
X91713570Y-76964767D01*
X91627453Y-76848423D01*
X91548364Y-76724254D01*
X91472703Y-76587281D01*
X91449382Y-76541444D01*
X91385841Y-76414331D01*
X91320884Y-76488184D01*
X91271481Y-76544171D01*
X91232987Y-76586914D01*
X91203577Y-76617763D01*
X91181430Y-76638070D01*
X91164724Y-76649186D01*
X91151636Y-76652462D01*
X91140342Y-76649249D01*
X91129022Y-76640897D01*
X91122677Y-76635119D01*
X91109674Y-76615552D01*
X91094308Y-76580586D01*
X91077737Y-76533866D01*
X91061122Y-76479037D01*
X91045622Y-76419746D01*
X91032398Y-76359635D01*
X91028564Y-76339315D01*
X91020266Y-76293305D01*
X91012051Y-76248045D01*
X91005375Y-76211536D01*
X91003937Y-76203745D01*
X90997805Y-76158175D01*
X90993075Y-76098044D01*
X90989860Y-76028117D01*
X90988274Y-75953157D01*
X90988429Y-75877929D01*
X90990439Y-75807195D01*
X90993359Y-75758301D01*
X91007355Y-75618616D01*
X91026852Y-75484335D01*
X91050996Y-75360889D01*
X91065001Y-75303173D01*
X91079814Y-75247054D01*
X91090936Y-75206459D01*
X91099397Y-75178131D01*
X91106228Y-75158812D01*
X91112459Y-75145243D01*
X91117839Y-75136132D01*
X91123008Y-75127977D01*
X91127986Y-75121191D01*
X91133568Y-75116528D01*
X91140549Y-75114746D01*
X91149723Y-75116601D01*
G37*
G36*
X96259851Y-75114344D02*
G01*
X96272197Y-75116636D01*
X96283601Y-75124594D01*
X96294598Y-75139840D01*
X96305720Y-75163997D01*
X96317504Y-75198685D01*
X96330483Y-75245528D01*
X96345191Y-75306148D01*
X96362164Y-75382166D01*
X96381935Y-75475205D01*
X96387455Y-75501686D01*
X96393940Y-75540514D01*
X96400561Y-75593635D01*
X96406767Y-75655989D01*
X96412006Y-75722514D01*
X96412775Y-75734092D01*
X96413791Y-75760536D01*
X96414530Y-75801141D01*
X96414994Y-75851589D01*
X96415188Y-75907566D01*
X96415114Y-75964755D01*
X96414776Y-76018840D01*
X96414177Y-76065506D01*
X96413320Y-76100437D01*
X96412488Y-76116593D01*
X96406043Y-76189805D01*
X96400379Y-76246309D01*
X96395194Y-76288736D01*
X96390188Y-76319715D01*
X96388137Y-76329632D01*
X96381628Y-76358814D01*
X96372811Y-76398443D01*
X96363568Y-76440059D01*
X96363361Y-76440993D01*
X96343921Y-76519585D01*
X96324506Y-76579499D01*
X96304796Y-76621421D01*
X96284468Y-76646036D01*
X96263320Y-76654031D01*
X96247642Y-76647022D01*
X96221874Y-76625763D01*
X96185660Y-76589906D01*
X96138647Y-76539102D01*
X96087390Y-76480981D01*
X96057879Y-76448646D01*
X96036079Y-76428263D01*
X96023607Y-76421255D01*
X96021458Y-76422879D01*
X96015822Y-76436500D01*
X96003534Y-76463491D01*
X95986457Y-76499829D01*
X95968228Y-76537828D01*
X95892960Y-76682573D01*
X95812394Y-76815406D01*
X95723429Y-76940616D01*
X95622967Y-77062492D01*
X95507910Y-77185323D01*
X95481018Y-77212221D01*
X95337852Y-77342007D01*
X95183303Y-77458871D01*
X95015934Y-77563725D01*
X94834306Y-77657483D01*
X94665391Y-77730020D01*
X94618651Y-77748499D01*
X94577110Y-77765045D01*
X94544773Y-77778053D01*
X94525646Y-77785920D01*
X94523732Y-77786747D01*
X94505332Y-77794342D01*
X94475105Y-77806298D01*
X94439340Y-77820128D01*
X94436580Y-77821182D01*
X94381137Y-77843272D01*
X94319469Y-77869365D01*
X94255552Y-77897631D01*
X94193359Y-77926236D01*
X94136866Y-77953351D01*
X94090048Y-77977143D01*
X94056878Y-77995781D01*
X94054612Y-77997197D01*
X93980301Y-78047143D01*
X93911923Y-78099849D01*
X93842581Y-78160792D01*
X93810816Y-78190831D01*
X93767051Y-78231190D01*
X93734379Y-78257194D01*
X93711787Y-78269608D01*
X93704297Y-78270963D01*
X93688416Y-78265356D01*
X93664557Y-78248008D01*
X93631338Y-78217771D01*
X93589268Y-78175459D01*
X93498404Y-78092098D01*
X93393117Y-78015636D01*
X93272261Y-77945401D01*
X93134690Y-77880720D01*
X92995793Y-77826753D01*
X92943402Y-77807443D01*
X92881561Y-77783645D01*
X92815887Y-77757614D01*
X92751997Y-77731603D01*
X92695510Y-77707867D01*
X92654803Y-77689928D01*
X92624573Y-77675033D01*
X92588564Y-77655717D01*
X92550625Y-77634256D01*
X92514606Y-77612927D01*
X92484357Y-77594007D01*
X92463725Y-77579770D01*
X92456541Y-77572687D01*
X92463952Y-77564885D01*
X92483816Y-77549728D01*
X92512197Y-77530176D01*
X92519253Y-77525539D01*
X92552763Y-77501560D01*
X92583018Y-77474445D01*
X92612972Y-77440825D01*
X92645580Y-77397332D01*
X92683795Y-77340598D01*
X92690469Y-77330312D01*
X92721742Y-77280690D01*
X92743522Y-77241727D01*
X92757588Y-77208334D01*
X92765719Y-77175421D01*
X92769695Y-77137899D01*
X92771113Y-77099660D01*
X92773141Y-77007851D01*
X92922169Y-77007651D01*
X92979494Y-77007414D01*
X93021442Y-77006526D01*
X93052000Y-77004451D01*
X93075158Y-77000656D01*
X93094905Y-76994607D01*
X93115228Y-76985771D01*
X93126556Y-76980286D01*
X93196912Y-76935464D01*
X93255271Y-76875755D01*
X93302133Y-76800636D01*
X93305052Y-76794671D01*
X93321890Y-76761352D01*
X93336206Y-76736039D01*
X93345628Y-76722825D01*
X93347305Y-76721816D01*
X93358892Y-76728359D01*
X93365665Y-76735280D01*
X93390753Y-76754065D01*
X93431106Y-76770789D01*
X93482641Y-76784185D01*
X93541270Y-76792983D01*
X93555375Y-76794226D01*
X93608368Y-76795633D01*
X93669483Y-76793086D01*
X93733224Y-76787222D01*
X93794093Y-76778676D01*
X93846594Y-76768082D01*
X93885164Y-76756104D01*
X93922662Y-76734029D01*
X93961901Y-76700790D01*
X93996426Y-76662649D01*
X94019784Y-76625868D01*
X94020092Y-76625190D01*
X94032274Y-76601606D01*
X94042414Y-76587767D01*
X94045180Y-76586246D01*
X94050988Y-76594901D01*
X94058361Y-76617344D01*
X94064224Y-76641927D01*
X94088787Y-76733567D01*
X94121699Y-76809530D01*
X94163993Y-76872069D01*
X94175900Y-76885597D01*
X94235209Y-76938865D01*
X94301290Y-76976831D01*
X94376235Y-77000199D01*
X94462134Y-77009674D01*
X94538257Y-77007862D01*
X94591224Y-77002304D01*
X94649411Y-76993302D01*
X94707038Y-76982018D01*
X94758325Y-76969611D01*
X94797492Y-76957245D01*
X94804556Y-76954364D01*
X94920028Y-76901132D01*
X95022662Y-76848039D01*
X95110452Y-76796198D01*
X95181398Y-76746717D01*
X95187057Y-76742284D01*
X95221349Y-76714559D01*
X95260386Y-76682123D01*
X95300232Y-76648342D01*
X95336955Y-76616584D01*
X95366622Y-76590218D01*
X95385299Y-76572609D01*
X95385612Y-76572289D01*
X95437187Y-76516091D01*
X95491958Y-76450990D01*
X95543655Y-76384673D01*
X95579563Y-76334473D01*
X95635345Y-76252163D01*
X95456233Y-76247321D01*
X95379338Y-76244704D01*
X95320809Y-76240757D01*
X95279644Y-76234331D01*
X95254842Y-76224277D01*
X95245403Y-76209445D01*
X95250325Y-76188685D01*
X95268607Y-76160849D01*
X95299248Y-76124787D01*
X95325047Y-76096682D01*
X95351661Y-76068130D01*
X95389161Y-76027957D01*
X95435196Y-75978677D01*
X95487416Y-75922807D01*
X95543470Y-75862861D01*
X95601007Y-75801355D01*
X95627659Y-75772874D01*
X95690854Y-75705266D01*
X95758763Y-75632467D01*
X95827903Y-75558222D01*
X95894789Y-75486275D01*
X95955939Y-75420370D01*
X96007870Y-75364252D01*
X96015002Y-75356527D01*
X96075017Y-75291515D01*
X96123312Y-75239320D01*
X96161309Y-75198535D01*
X96190430Y-75167754D01*
X96212100Y-75145570D01*
X96227739Y-75130574D01*
X96238770Y-75121361D01*
X96246617Y-75116523D01*
X96252701Y-75114652D01*
X96258446Y-75114342D01*
X96259851Y-75114344D01*
G37*
G36*
X93765598Y-71432279D02*
G01*
X93787781Y-71435570D01*
X93900121Y-71458427D01*
X93997921Y-71489735D01*
X94084806Y-71531236D01*
X94164405Y-71584673D01*
X94240343Y-71651787D01*
X94242632Y-71654059D01*
X94321306Y-71745599D01*
X94383975Y-71846477D01*
X94430247Y-71954617D01*
X94459725Y-72067946D01*
X94472016Y-72184389D01*
X94466725Y-72301873D01*
X94443456Y-72418324D01*
X94407301Y-72519433D01*
X94354775Y-72617024D01*
X94286910Y-72707494D01*
X94206706Y-72787803D01*
X94117164Y-72854916D01*
X94028925Y-72902477D01*
X93976173Y-72925806D01*
X93978813Y-73102557D01*
X93981452Y-73279307D01*
X94625410Y-73285313D01*
X94769357Y-73286740D01*
X94895150Y-73288191D01*
X95004004Y-73289719D01*
X95097132Y-73291373D01*
X95175747Y-73293206D01*
X95241064Y-73295267D01*
X95294296Y-73297609D01*
X95336656Y-73300281D01*
X95369359Y-73303334D01*
X95393618Y-73306821D01*
X95410647Y-73310791D01*
X95421659Y-73315296D01*
X95426592Y-73318946D01*
X95430618Y-73332400D01*
X95433907Y-73361549D01*
X95436432Y-73402737D01*
X95438166Y-73452304D01*
X95439083Y-73506593D01*
X95439154Y-73561946D01*
X95438354Y-73614704D01*
X95436656Y-73661210D01*
X95434033Y-73697805D01*
X95430457Y-73720832D01*
X95429562Y-73723657D01*
X95421399Y-73739828D01*
X95409097Y-73752413D01*
X95390235Y-73761975D01*
X95362390Y-73769073D01*
X95323141Y-73774268D01*
X95270068Y-73778119D01*
X95200748Y-73781186D01*
X95177373Y-73782006D01*
X95106796Y-73784459D01*
X95023692Y-73787467D01*
X94934884Y-73790776D01*
X94847194Y-73794131D01*
X94767446Y-73797279D01*
X94765821Y-73797344D01*
X94691057Y-73800296D01*
X94602970Y-73803673D01*
X94507592Y-73807251D01*
X94410956Y-73810805D01*
X94319095Y-73814110D01*
X94271959Y-73815769D01*
X94201544Y-73818240D01*
X94137672Y-73820512D01*
X94082834Y-73822495D01*
X94039524Y-73824098D01*
X94010233Y-73825228D01*
X93997456Y-73825795D01*
X93997126Y-73825825D01*
X93996359Y-73835241D01*
X93996147Y-73861402D01*
X93996461Y-73901696D01*
X93997271Y-73953510D01*
X93998547Y-74014230D01*
X93999848Y-74066097D01*
X94001670Y-74134739D01*
X94003863Y-74218352D01*
X94006315Y-74312550D01*
X94008911Y-74412942D01*
X94011539Y-74515140D01*
X94014083Y-74614756D01*
X94015581Y-74673741D01*
X94020865Y-74881071D01*
X94025813Y-75072401D01*
X94030415Y-75247316D01*
X94034657Y-75405400D01*
X94038530Y-75546239D01*
X94042021Y-75669416D01*
X94045119Y-75774518D01*
X94047813Y-75861129D01*
X94050091Y-75928834D01*
X94050293Y-75934488D01*
X94056289Y-76100992D01*
X94022334Y-76171736D01*
X94005623Y-76207188D01*
X93991901Y-76237463D01*
X93983646Y-76257061D01*
X93982799Y-76259426D01*
X93972062Y-76274645D01*
X93958211Y-76271702D01*
X93948689Y-76259115D01*
X93928801Y-76238630D01*
X93894475Y-76219718D01*
X93850635Y-76204378D01*
X93802205Y-76194609D01*
X93785639Y-76192917D01*
X93745651Y-76191803D01*
X93695140Y-76193031D01*
X93642775Y-76196323D01*
X93623160Y-76198164D01*
X93580592Y-76202608D01*
X93544382Y-76206352D01*
X93519451Y-76208891D01*
X93511799Y-76209638D01*
X93496099Y-76214234D01*
X93468890Y-76225016D01*
X93436058Y-76239650D01*
X93435994Y-76239680D01*
X93405155Y-76253360D01*
X93381861Y-76262244D01*
X93370886Y-76264523D01*
X93370719Y-76264406D01*
X93369415Y-76262348D01*
X93368280Y-76258327D01*
X93367327Y-76251417D01*
X93366569Y-76240694D01*
X93366019Y-76225234D01*
X93365690Y-76204113D01*
X93365594Y-76176404D01*
X93365745Y-76141184D01*
X93366156Y-76097528D01*
X93366839Y-76044512D01*
X93367807Y-75981211D01*
X93369074Y-75906700D01*
X93370652Y-75820055D01*
X93372554Y-75720350D01*
X93374793Y-75606663D01*
X93377383Y-75478067D01*
X93380335Y-75333638D01*
X93383663Y-75172452D01*
X93387380Y-74993583D01*
X93390718Y-74833520D01*
X93392610Y-74748520D01*
X93394818Y-74658591D01*
X93397206Y-74568762D01*
X93399634Y-74484065D01*
X93401965Y-74409530D01*
X93403725Y-74359025D01*
X93406119Y-74283758D01*
X93408121Y-74199394D01*
X93409586Y-74113886D01*
X93410366Y-74035183D01*
X93410446Y-73995963D01*
X93410121Y-73932934D01*
X93409274Y-73886786D01*
X93407695Y-73855037D01*
X93405171Y-73835203D01*
X93401493Y-73824801D01*
X93396448Y-73821349D01*
X93395596Y-73821278D01*
X93371336Y-73820310D01*
X93331980Y-73818501D01*
X93281771Y-73816068D01*
X93224951Y-73813226D01*
X93165763Y-73810193D01*
X93108449Y-73807183D01*
X93057253Y-73804413D01*
X93016416Y-73802099D01*
X93002076Y-73801235D01*
X92913588Y-73795734D01*
X92918557Y-73697299D01*
X92919989Y-73612477D01*
X92915952Y-73531763D01*
X92906906Y-73458915D01*
X92893313Y-73397691D01*
X92876244Y-73353008D01*
X92863189Y-73325396D01*
X92855975Y-73305149D01*
X92855704Y-73297901D01*
X92866281Y-73296212D01*
X92893208Y-73294035D01*
X92933475Y-73291505D01*
X92984075Y-73288757D01*
X93041999Y-73285926D01*
X93104240Y-73283146D01*
X93167788Y-73280552D01*
X93229637Y-73278280D01*
X93286777Y-73276463D01*
X93336201Y-73275237D01*
X93372358Y-73274747D01*
X93431430Y-73274466D01*
X93437558Y-73146158D01*
X93440347Y-73094330D01*
X93443516Y-73045936D01*
X93446689Y-73006136D01*
X93449492Y-72980089D01*
X93449702Y-72978675D01*
X93455717Y-72939499D01*
X93365134Y-72888111D01*
X93315370Y-72859323D01*
X93280479Y-72837523D01*
X93258098Y-72820860D01*
X93245866Y-72807489D01*
X93241420Y-72795560D01*
X93241273Y-72791207D01*
X93248800Y-72780637D01*
X93269145Y-72760804D01*
X93299574Y-72733984D01*
X93337350Y-72702453D01*
X93379738Y-72668488D01*
X93424002Y-72634363D01*
X93467407Y-72602357D01*
X93473359Y-72598104D01*
X93484271Y-72592759D01*
X93499382Y-72591405D01*
X93522629Y-72594453D01*
X93557950Y-72602314D01*
X93589282Y-72610208D01*
X93641948Y-72623251D01*
X93681783Y-72631069D01*
X93714554Y-72633845D01*
X93746028Y-72631761D01*
X93781971Y-72624997D01*
X93814030Y-72617288D01*
X93898278Y-72587552D01*
X93970044Y-72543293D01*
X94030017Y-72483926D01*
X94078885Y-72408868D01*
X94092728Y-72380476D01*
X94106312Y-72348630D01*
X94114891Y-72321485D01*
X94119590Y-72292712D01*
X94121535Y-72255979D01*
X94121864Y-72216612D01*
X94120529Y-72159435D01*
X94116032Y-72115598D01*
X94107634Y-72079224D01*
X94102804Y-72064861D01*
X94066457Y-71984346D01*
X94021669Y-71919854D01*
X93967002Y-71869355D01*
X93962085Y-71865807D01*
X93918692Y-71836768D01*
X93880526Y-71816322D01*
X93842602Y-71803170D01*
X93799934Y-71796015D01*
X93747535Y-71793559D01*
X93687421Y-71794306D01*
X93623858Y-71797020D01*
X93579403Y-71801199D01*
X93554140Y-71806834D01*
X93549072Y-71809826D01*
X93529122Y-71820539D01*
X93519728Y-71821930D01*
X93500416Y-71829352D01*
X93473208Y-71849448D01*
X93441221Y-71878961D01*
X93407574Y-71914635D01*
X93375385Y-71953215D01*
X93347772Y-71991444D01*
X93331848Y-72018105D01*
X93315226Y-72050487D01*
X93304490Y-72075840D01*
X93298332Y-72100176D01*
X93295438Y-72129506D01*
X93294498Y-72169840D01*
X93294378Y-72189906D01*
X93294891Y-72237419D01*
X93296646Y-72282291D01*
X93299331Y-72318074D01*
X93301239Y-72332382D01*
X93308559Y-72373180D01*
X93252821Y-72414462D01*
X93217907Y-72440938D01*
X93176121Y-72473523D01*
X93135486Y-72505944D01*
X93128452Y-72511654D01*
X93097121Y-72536325D01*
X93070861Y-72555433D01*
X93053602Y-72566189D01*
X93049676Y-72567565D01*
X93035440Y-72558452D01*
X93018854Y-72532797D01*
X93000959Y-72493125D01*
X92982798Y-72441961D01*
X92965413Y-72381831D01*
X92954535Y-72336974D01*
X92945882Y-72277625D01*
X92943153Y-72208279D01*
X92945942Y-72134921D01*
X92953843Y-72063538D01*
X92966448Y-72000117D01*
X92980322Y-71957500D01*
X93039549Y-71838105D01*
X93111083Y-71732725D01*
X93194137Y-71641994D01*
X93287924Y-71566549D01*
X93391657Y-71507024D01*
X93504548Y-71464055D01*
X93623160Y-71438641D01*
X93671060Y-71432440D01*
X93706408Y-71429394D01*
X93735742Y-71429381D01*
X93765598Y-71432279D01*
G37*
G36*
X82877294Y-71374040D02*
G01*
X82979603Y-71374164D01*
X83092967Y-71374370D01*
X83216199Y-71374656D01*
X83348112Y-71375022D01*
X83487520Y-71375466D01*
X83633233Y-71375987D01*
X83760446Y-71376486D01*
X84946683Y-71381328D01*
X84949715Y-73134054D01*
X84950026Y-73351860D01*
X84950236Y-73585484D01*
X84950349Y-73832187D01*
X84950367Y-74089227D01*
X84950293Y-74353865D01*
X84950131Y-74623358D01*
X84949882Y-74894967D01*
X84949551Y-75165951D01*
X84949139Y-75433569D01*
X84948650Y-75695080D01*
X84948086Y-75947745D01*
X84947451Y-76188821D01*
X84946746Y-76415570D01*
X84946105Y-76592645D01*
X84939462Y-78298511D01*
X84870446Y-78305460D01*
X84851400Y-78306415D01*
X84814551Y-78307340D01*
X84761464Y-78308229D01*
X84693703Y-78309076D01*
X84612831Y-78309878D01*
X84520413Y-78310628D01*
X84418013Y-78311323D01*
X84307196Y-78311956D01*
X84189526Y-78312523D01*
X84066566Y-78313019D01*
X83939882Y-78313438D01*
X83811036Y-78313775D01*
X83681595Y-78314026D01*
X83553121Y-78314186D01*
X83427179Y-78314248D01*
X83305334Y-78314209D01*
X83189149Y-78314063D01*
X83080189Y-78313805D01*
X82980018Y-78313430D01*
X82890199Y-78312933D01*
X82812299Y-78312308D01*
X82799352Y-78312179D01*
X82550000Y-78309594D01*
X82550000Y-77874042D01*
X82964661Y-77874042D01*
X83718424Y-77876582D01*
X83837569Y-77877013D01*
X83951099Y-77877481D01*
X84057526Y-77877975D01*
X84155362Y-77878488D01*
X84243119Y-77879008D01*
X84319307Y-77879526D01*
X84382440Y-77880033D01*
X84431027Y-77880519D01*
X84463582Y-77880975D01*
X84478615Y-77881391D01*
X84479451Y-77881484D01*
X84480879Y-77872581D01*
X84482214Y-77846143D01*
X84483428Y-77803998D01*
X84484493Y-77747979D01*
X84485381Y-77679914D01*
X84486066Y-77601636D01*
X84486517Y-77514974D01*
X84486709Y-77421759D01*
X84486713Y-77404508D01*
X84486713Y-76925171D01*
X84362682Y-76925171D01*
X84238651Y-76925171D01*
X84236088Y-77247150D01*
X84235265Y-77324327D01*
X84234106Y-77395313D01*
X84232680Y-77457789D01*
X84231057Y-77509435D01*
X84229305Y-77547934D01*
X84227495Y-77570966D01*
X84226261Y-77576616D01*
X84214698Y-77578854D01*
X84186957Y-77580537D01*
X84146225Y-77581583D01*
X84095686Y-77581907D01*
X84040560Y-77581458D01*
X83862123Y-77578812D01*
X83859519Y-77278621D01*
X83856915Y-76978431D01*
X83721528Y-76975402D01*
X83586142Y-76972373D01*
X83586142Y-77272987D01*
X83586142Y-77573601D01*
X83564354Y-77578975D01*
X83547462Y-77580648D01*
X83515084Y-77581752D01*
X83471097Y-77582232D01*
X83419375Y-77582028D01*
X83387628Y-77581580D01*
X83232691Y-77578812D01*
X83230142Y-77251991D01*
X83227592Y-76925171D01*
X83101834Y-76925171D01*
X82976077Y-76925171D01*
X82975744Y-77242308D01*
X82975482Y-77328043D01*
X82974906Y-77415700D01*
X82974062Y-77501239D01*
X82973001Y-77580624D01*
X82971770Y-77649817D01*
X82970418Y-77704779D01*
X82970036Y-77716743D01*
X82964661Y-77874042D01*
X82550000Y-77874042D01*
X82550000Y-76175972D01*
X82977329Y-76175972D01*
X82981290Y-76241287D01*
X82989451Y-76293583D01*
X83015575Y-76377077D01*
X83053272Y-76452804D01*
X83100438Y-76517622D01*
X83154970Y-76568391D01*
X83187514Y-76589282D01*
X83276288Y-76628009D01*
X83366340Y-76647764D01*
X83459435Y-76648778D01*
X83540975Y-76635387D01*
X83613071Y-76612853D01*
X83674090Y-76581016D01*
X83726276Y-76537725D01*
X83771870Y-76480831D01*
X83813116Y-76408184D01*
X83839695Y-76348999D01*
X83846960Y-76326064D01*
X83855824Y-76290347D01*
X83864835Y-76248192D01*
X83872545Y-76205944D01*
X83872902Y-76203745D01*
X83877626Y-76179302D01*
X83885353Y-76144051D01*
X83893672Y-76108702D01*
X83917353Y-76043742D01*
X83952630Y-75993758D01*
X83998679Y-75959389D01*
X84054675Y-75941270D01*
X84112947Y-75939387D01*
X84166870Y-75951515D01*
X84210085Y-75978863D01*
X84244503Y-76022781D01*
X84252781Y-76038143D01*
X84262969Y-76060577D01*
X84269314Y-76081943D01*
X84272484Y-76107425D01*
X84273151Y-76142208D01*
X84272102Y-76187706D01*
X84270171Y-76235623D01*
X84266993Y-76270407D01*
X84261174Y-76298294D01*
X84251319Y-76325517D01*
X84236034Y-76358311D01*
X84232208Y-76366076D01*
X84207595Y-76409814D01*
X84177439Y-76454954D01*
X84148025Y-76492132D01*
X84146406Y-76493922D01*
X84097229Y-76547729D01*
X84187873Y-76643727D01*
X84221285Y-76678789D01*
X84249876Y-76708184D01*
X84271083Y-76729320D01*
X84282343Y-76739609D01*
X84283358Y-76740193D01*
X84292966Y-76734697D01*
X84311138Y-76720383D01*
X84318217Y-76714293D01*
X84375592Y-76654675D01*
X84424785Y-76583095D01*
X84466985Y-76497418D01*
X84503387Y-76395509D01*
X84511402Y-76368366D01*
X84520074Y-76324547D01*
X84525792Y-76267937D01*
X84528559Y-76203952D01*
X84528378Y-76138009D01*
X84525251Y-76075525D01*
X84519180Y-76021914D01*
X84511243Y-75985865D01*
X84472674Y-75883020D01*
X84426728Y-75797689D01*
X84372646Y-75729184D01*
X84309668Y-75676815D01*
X84237035Y-75639896D01*
X84153986Y-75617738D01*
X84097613Y-75611157D01*
X83998937Y-75611751D01*
X83911287Y-75627868D01*
X83834472Y-75659685D01*
X83768300Y-75707382D01*
X83712580Y-75771135D01*
X83667118Y-75851122D01*
X83631725Y-75947522D01*
X83606207Y-76060512D01*
X83604947Y-76068061D01*
X83589856Y-76147250D01*
X83572770Y-76209765D01*
X83552531Y-76258284D01*
X83527976Y-76295482D01*
X83497948Y-76324035D01*
X83492136Y-76328277D01*
X83442937Y-76352267D01*
X83390962Y-76359350D01*
X83340256Y-76350226D01*
X83294867Y-76325595D01*
X83260126Y-76288122D01*
X83234977Y-76233681D01*
X83223529Y-76169500D01*
X83225252Y-76098979D01*
X83239620Y-76025520D01*
X83266103Y-75952521D01*
X83304174Y-75883384D01*
X83328092Y-75850444D01*
X83362690Y-75807017D01*
X83336425Y-75779326D01*
X83317068Y-75760128D01*
X83288304Y-75733027D01*
X83255307Y-75702870D01*
X83243656Y-75692437D01*
X83177151Y-75633240D01*
X83139787Y-75676404D01*
X83110328Y-75715915D01*
X83078277Y-75767909D01*
X83046898Y-75826407D01*
X83019457Y-75885431D01*
X83003751Y-75925520D01*
X82991271Y-75974537D01*
X82982552Y-76036610D01*
X82977827Y-76105750D01*
X82977329Y-76175972D01*
X82550000Y-76175972D01*
X82550000Y-75356433D01*
X82995444Y-75356433D01*
X83741079Y-75356433D01*
X84486713Y-75356433D01*
X84486713Y-75201647D01*
X84486713Y-75046860D01*
X84213153Y-75044289D01*
X83939592Y-75041717D01*
X83934060Y-74857729D01*
X83931704Y-74788638D01*
X83928977Y-74734971D01*
X83925348Y-74692788D01*
X83920284Y-74658148D01*
X83913254Y-74627108D01*
X83903726Y-74595728D01*
X83895505Y-74572064D01*
X83877592Y-74533407D01*
X83851324Y-74489934D01*
X83821496Y-74448740D01*
X83792903Y-74416922D01*
X83787277Y-74411904D01*
X83725537Y-74369530D01*
X83654580Y-74339446D01*
X83571785Y-74320783D01*
X83489715Y-74313231D01*
X83390534Y-74317375D01*
X83300212Y-74338506D01*
X83219599Y-74375977D01*
X83149546Y-74429143D01*
X83090905Y-74497357D01*
X83044527Y-74579971D01*
X83011261Y-74676339D01*
X83011107Y-74676944D01*
X83006541Y-74698060D01*
X83002917Y-74723270D01*
X83000138Y-74754893D01*
X82998104Y-74795246D01*
X82996718Y-74846648D01*
X82995882Y-74911418D01*
X82995498Y-74991873D01*
X82995444Y-75047341D01*
X82995444Y-75356433D01*
X82550000Y-75356433D01*
X82550000Y-75047341D01*
X82550000Y-74844076D01*
X82550012Y-74525589D01*
X82550048Y-74225962D01*
X82550111Y-73944689D01*
X82550203Y-73681265D01*
X82550266Y-73553514D01*
X82979367Y-73553514D01*
X82979704Y-73667601D01*
X82994186Y-73768962D01*
X83020198Y-73861708D01*
X83057944Y-73942249D01*
X83110030Y-74015460D01*
X83147767Y-74056414D01*
X83178229Y-74085778D01*
X83204584Y-74109015D01*
X83223371Y-74123195D01*
X83230077Y-74126166D01*
X83241739Y-74118500D01*
X83259600Y-74099042D01*
X83276267Y-74076928D01*
X83302599Y-74040364D01*
X83331888Y-74001616D01*
X83346111Y-73983583D01*
X83382061Y-73939023D01*
X83339884Y-73893932D01*
X83292644Y-73832844D01*
X83257895Y-73765737D01*
X83235952Y-73695643D01*
X83227125Y-73625591D01*
X83231728Y-73558612D01*
X83250072Y-73497735D01*
X83282472Y-73445990D01*
X83292553Y-73435087D01*
X83322877Y-73409932D01*
X83355321Y-73396094D01*
X83397056Y-73390925D01*
X83412779Y-73390669D01*
X83468024Y-73396320D01*
X83513004Y-73414045D01*
X83548520Y-73445003D01*
X83575372Y-73490350D01*
X83594360Y-73551245D01*
X83606284Y-73628846D01*
X83609945Y-73675965D01*
X83612605Y-73718947D01*
X83615117Y-73754003D01*
X83617170Y-73777116D01*
X83618314Y-73784361D01*
X83628280Y-73785367D01*
X83653768Y-73786452D01*
X83690935Y-73787487D01*
X83735936Y-73788341D01*
X83736500Y-73788349D01*
X83852440Y-73790091D01*
X83858383Y-73665428D01*
X83861434Y-73611068D01*
X83865038Y-73571821D01*
X83869930Y-73543437D01*
X83876848Y-73521661D01*
X83886525Y-73502242D01*
X83886647Y-73502030D01*
X83916913Y-73455997D01*
X83949383Y-73422108D01*
X83990526Y-73393613D01*
X83990699Y-73393511D01*
X84016330Y-73380187D01*
X84040226Y-73373435D01*
X84070099Y-73371795D01*
X84099330Y-73372944D01*
X84154653Y-73381270D01*
X84198138Y-73400583D01*
X84231851Y-73432883D01*
X84257859Y-73480170D01*
X84278229Y-73544444D01*
X84278766Y-73546622D01*
X84287652Y-73587512D01*
X84290789Y-73619696D01*
X84288526Y-73652849D01*
X84283689Y-73683084D01*
X84263540Y-73757586D01*
X84231642Y-73828556D01*
X84190934Y-73890336D01*
X84157071Y-73926629D01*
X84132761Y-73949197D01*
X84115489Y-73966588D01*
X84109054Y-73974933D01*
X84113704Y-73984962D01*
X84126173Y-74007587D01*
X84144241Y-74038843D01*
X84155051Y-74057089D01*
X84177726Y-74095337D01*
X84198552Y-74130952D01*
X84214108Y-74158069D01*
X84217920Y-74164913D01*
X84234792Y-74195715D01*
X84280322Y-74163588D01*
X84314218Y-74137714D01*
X84348336Y-74108674D01*
X84361919Y-74095936D01*
X84387981Y-74067299D01*
X84416318Y-74031765D01*
X84432613Y-74008992D01*
X84448190Y-73984080D01*
X84461978Y-73957226D01*
X84475517Y-73924582D01*
X84490348Y-73882299D01*
X84508012Y-73826532D01*
X84515420Y-73802220D01*
X84521795Y-73770191D01*
X84526689Y-73724344D01*
X84529895Y-73670187D01*
X84531204Y-73613228D01*
X84530407Y-73558973D01*
X84527296Y-73512932D01*
X84526592Y-73506871D01*
X84517372Y-73443917D01*
X84506161Y-73393290D01*
X84490867Y-73347953D01*
X84469402Y-73300866D01*
X84459984Y-73282553D01*
X84416283Y-73211872D01*
X84366761Y-73157673D01*
X84308065Y-73117423D01*
X84236840Y-73088589D01*
X84185991Y-73075562D01*
X84098053Y-73065778D01*
X84014145Y-73074069D01*
X83936216Y-73099506D01*
X83866213Y-73141159D01*
X83806084Y-73198100D01*
X83757778Y-73269400D01*
X83750762Y-73283127D01*
X83734967Y-73310613D01*
X83720616Y-73327251D01*
X83713344Y-73330193D01*
X83702941Y-73320400D01*
X83690041Y-73297756D01*
X83681166Y-73276807D01*
X83653299Y-73224671D01*
X83611247Y-73174361D01*
X83559921Y-73130916D01*
X83511287Y-73102506D01*
X83461673Y-73085078D01*
X83406631Y-73074512D01*
X83352829Y-73071471D01*
X83306937Y-73076618D01*
X83293039Y-73080827D01*
X83227977Y-73108276D01*
X83177455Y-73136707D01*
X83136817Y-73169673D01*
X83101407Y-73210728D01*
X83078004Y-73244980D01*
X83028910Y-73339747D01*
X82995901Y-73443410D01*
X82979367Y-73553514D01*
X82550266Y-73553514D01*
X82550324Y-73435182D01*
X82550478Y-73205935D01*
X82550664Y-72993016D01*
X82550887Y-72795919D01*
X82551146Y-72614139D01*
X82551445Y-72447169D01*
X82551784Y-72294502D01*
X82551795Y-72290478D01*
X82987497Y-72290478D01*
X82988370Y-72365370D01*
X83002194Y-72472425D01*
X83031770Y-72568453D01*
X83076909Y-72653161D01*
X83137420Y-72726254D01*
X83213115Y-72787437D01*
X83285951Y-72828311D01*
X83317709Y-72842924D01*
X83342376Y-72853540D01*
X83354994Y-72858033D01*
X83355356Y-72858065D01*
X83362179Y-72849829D01*
X83371959Y-72829003D01*
X83376580Y-72816917D01*
X83401037Y-72748077D01*
X83419171Y-72695249D01*
X83431566Y-72656355D01*
X83438810Y-72629312D01*
X83441487Y-72612043D01*
X83440184Y-72602466D01*
X83437793Y-72599586D01*
X83422322Y-72590376D01*
X83397694Y-72577134D01*
X83389412Y-72572883D01*
X83358895Y-72553022D01*
X83328968Y-72526947D01*
X83322477Y-72519994D01*
X83299075Y-72487861D01*
X83276086Y-72447168D01*
X83256303Y-72403993D01*
X83242522Y-72364418D01*
X83237533Y-72335220D01*
X83246674Y-72274544D01*
X83272284Y-72218855D01*
X83311648Y-72171967D01*
X83362047Y-72137693D01*
X83384943Y-72128284D01*
X83443240Y-72115277D01*
X83498799Y-72118058D01*
X83555409Y-72137277D01*
X83606265Y-72166420D01*
X83628224Y-72181345D01*
X83648457Y-72196364D01*
X83668579Y-72213188D01*
X83690205Y-72233529D01*
X83714953Y-72259101D01*
X83744435Y-72291614D01*
X83780270Y-72332781D01*
X83824071Y-72384315D01*
X83877454Y-72447927D01*
X83920225Y-72499162D01*
X83968866Y-72557310D01*
X84017718Y-72615367D01*
X84064106Y-72670181D01*
X84105358Y-72718600D01*
X84138798Y-72757470D01*
X84156147Y-72777334D01*
X84227449Y-72858072D01*
X84376448Y-72858072D01*
X84525448Y-72858072D01*
X84525448Y-72330318D01*
X84525448Y-71802563D01*
X84389000Y-71802563D01*
X84252553Y-71802563D01*
X84254414Y-72100333D01*
X84255011Y-72200506D01*
X84255405Y-72282995D01*
X84255556Y-72349482D01*
X84255425Y-72401650D01*
X84254973Y-72441181D01*
X84254160Y-72469757D01*
X84252946Y-72489061D01*
X84251292Y-72500775D01*
X84249158Y-72506582D01*
X84246505Y-72508163D01*
X84244835Y-72507850D01*
X84236200Y-72499453D01*
X84217365Y-72477620D01*
X84189884Y-72444308D01*
X84155311Y-72401472D01*
X84115203Y-72351068D01*
X84071114Y-72295051D01*
X84024599Y-72235378D01*
X83977214Y-72174003D01*
X83930513Y-72112883D01*
X83924767Y-72105314D01*
X83854135Y-72017623D01*
X83787230Y-71945500D01*
X83724900Y-71889764D01*
X83667995Y-71851234D01*
X83653884Y-71843988D01*
X83567251Y-71812394D01*
X83478474Y-71797841D01*
X83390262Y-71799886D01*
X83305323Y-71818083D01*
X83226364Y-71851988D01*
X83156094Y-71901157D01*
X83125680Y-71930660D01*
X83067429Y-72006414D01*
X83025189Y-72090980D01*
X82998648Y-72185340D01*
X82987497Y-72290478D01*
X82551795Y-72290478D01*
X82552165Y-72155632D01*
X82552591Y-72030052D01*
X82553063Y-71917257D01*
X82553582Y-71816739D01*
X82554151Y-71727993D01*
X82554772Y-71650512D01*
X82555445Y-71583790D01*
X82556173Y-71527320D01*
X82556958Y-71480596D01*
X82557801Y-71443111D01*
X82558704Y-71414360D01*
X82559669Y-71393835D01*
X82560698Y-71381031D01*
X82561792Y-71375441D01*
X82562104Y-71375101D01*
X82573145Y-71374703D01*
X82602365Y-71374395D01*
X82648577Y-71374176D01*
X82710594Y-71374045D01*
X82787229Y-71374000D01*
X82877294Y-71374040D01*
G37*
%TO.C,J4*%
D14*
X79950000Y-59690000D02*
X79950000Y-44390000D01*
X79950000Y-62290000D02*
X79950000Y-60960000D01*
X81280000Y-62290000D02*
X79950000Y-62290000D01*
X82610000Y-44390000D02*
X79950000Y-44390000D01*
X82610000Y-59690000D02*
X79950000Y-59690000D01*
X82610000Y-59690000D02*
X82610000Y-44390000D01*
%TO.C,J3*%
X95190000Y-59690000D02*
X95190000Y-44390000D01*
X95190000Y-62290000D02*
X95190000Y-60960000D01*
X96520000Y-62290000D02*
X95190000Y-62290000D01*
X97850000Y-44390000D02*
X95190000Y-44390000D01*
X97850000Y-59690000D02*
X95190000Y-59690000D01*
X97850000Y-59690000D02*
X97850000Y-44390000D01*
%TO.C,G2*%
D12*
X84255000Y-58090000D02*
X93145000Y-58090000D01*
X93145000Y-63170000D01*
X84255000Y-63170000D01*
X84255000Y-58090000D01*
%TD*%
M02*
