%TF.GenerationSoftware,KiCad,Pcbnew,10.0.5-10.0.5~ubuntu24.04.1*%
%TF.CreationDate,2026-08-25T15:43:37+02:00*%
%TF.ProjectId,xiaos3_adapter,7869616f-7333-45f6-9164-61707465722e,rev?*%
%TF.SameCoordinates,Original*%
%TF.FileFunction,Legend,Bot*%
%TF.FilePolarity,Positive*%
%FSLAX46Y46*%
G04 Gerber Fmt 4.6, Leading zero omitted, Abs format (unit mm)*
G04 Created by KiCad (PCBNEW 10.0.5-10.0.5~ubuntu24.04.1) date 2026-08-25 15:43:37*
%MOMM*%
%LPD*%
G01*
G04 APERTURE LIST*
%ADD10C,0.150000*%
%ADD11C,0.120000*%
G04 APERTURE END LIST*
D10*
X80165533Y-24804019D02*
X80165533Y-25518304D01*
X80165533Y-25518304D02*
X80213152Y-25661161D01*
X80213152Y-25661161D02*
X80308390Y-25756400D01*
X80308390Y-25756400D02*
X80451247Y-25804019D01*
X80451247Y-25804019D02*
X80546485Y-25804019D01*
X79165533Y-25804019D02*
X79736961Y-25804019D01*
X79451247Y-25804019D02*
X79451247Y-24804019D01*
X79451247Y-24804019D02*
X79546485Y-24946876D01*
X79546485Y-24946876D02*
X79641723Y-25042114D01*
X79641723Y-25042114D02*
X79736961Y-25089733D01*
X98402733Y-24753219D02*
X98402733Y-25467504D01*
X98402733Y-25467504D02*
X98450352Y-25610361D01*
X98450352Y-25610361D02*
X98545590Y-25705600D01*
X98545590Y-25705600D02*
X98688447Y-25753219D01*
X98688447Y-25753219D02*
X98783685Y-25753219D01*
X97974161Y-24848457D02*
X97926542Y-24800838D01*
X97926542Y-24800838D02*
X97831304Y-24753219D01*
X97831304Y-24753219D02*
X97593209Y-24753219D01*
X97593209Y-24753219D02*
X97497971Y-24800838D01*
X97497971Y-24800838D02*
X97450352Y-24848457D01*
X97450352Y-24848457D02*
X97402733Y-24943695D01*
X97402733Y-24943695D02*
X97402733Y-25038933D01*
X97402733Y-25038933D02*
X97450352Y-25181790D01*
X97450352Y-25181790D02*
X98021780Y-25753219D01*
X98021780Y-25753219D02*
X97402733Y-25753219D01*
%TO.C,J1*%
D11*
X74820000Y-26670000D02*
X74820000Y-80120000D01*
X77580000Y-24020000D02*
X76200000Y-24020000D01*
X77580000Y-25400000D02*
X77580000Y-24020000D01*
X77580000Y-26670000D02*
X74820000Y-26670000D01*
X77580000Y-26670000D02*
X77580000Y-80120000D01*
X77580000Y-80120000D02*
X74820000Y-80120000D01*
%TO.C,J2*%
X100220000Y-26670000D02*
X100220000Y-80120000D01*
X102980000Y-24020000D02*
X101600000Y-24020000D01*
X102980000Y-25400000D02*
X102980000Y-24020000D01*
X102980000Y-26670000D02*
X100220000Y-26670000D01*
X102980000Y-26670000D02*
X102980000Y-80120000D01*
X102980000Y-80120000D02*
X100220000Y-80120000D01*
%TD*%
M02*
