%TF.GenerationSoftware,KiCad,Pcbnew,10.0.5-10.0.5~ubuntu24.04.1*%
%TF.CreationDate,2026-08-25T15:43:37+02:00*%
%TF.ProjectId,xiaos3_adapter,7869616f-7333-45f6-9164-61707465722e,rev?*%
%TF.SameCoordinates,Original*%
%TF.FileFunction,Copper,L1,Top*%
%TF.FilePolarity,Positive*%
%FSLAX46Y46*%
G04 Gerber Fmt 4.6, Leading zero omitted, Abs format (unit mm)*
G04 Created by KiCad (PCBNEW 10.0.5-10.0.5~ubuntu24.04.1) date 2026-08-25 15:43:37*
%MOMM*%
%LPD*%
G01*
G04 APERTURE LIST*
%TA.AperFunction,ComponentPad*%
%ADD10R,1.700000X1.700000*%
%TD*%
%TA.AperFunction,ComponentPad*%
%ADD11C,1.700000*%
%TD*%
%TA.AperFunction,Conductor*%
%ADD12C,1.016000*%
%TD*%
G04 APERTURE END LIST*
D10*
%TO.P,J4,1,Pin_1_1*%
%TO.N,+5V*%
X81280000Y-60960000D03*
D11*
%TO.P,J4,2,Pin_2_2*%
%TO.N,GND*%
X81280000Y-58420000D03*
%TO.P,J4,3,Pin_3_3*%
%TO.N,+3.3V*%
X81280000Y-55880000D03*
%TO.P,J4,4,Pin_4_4*%
%TO.N,/GPIO9*%
X81280000Y-53340000D03*
%TO.P,J4,5,Pin_5_5*%
%TO.N,/GPIO8*%
X81280000Y-50800000D03*
%TO.P,J4,6,Pin_6_6*%
%TO.N,/GPIO7*%
X81280000Y-48260000D03*
%TO.P,J4,7,Pin_7_7*%
%TO.N,/GPIO44*%
X81280000Y-45720000D03*
%TD*%
D10*
%TO.P,J3,1,Pin_1_1*%
%TO.N,/GPIO1*%
X96520000Y-60960000D03*
D11*
%TO.P,J3,2,Pin_2_2*%
%TO.N,/GPIO2*%
X96520000Y-58420000D03*
%TO.P,J3,3,Pin_3_3*%
%TO.N,/GPIO3*%
X96520000Y-55880000D03*
%TO.P,J3,4,Pin_4_4*%
%TO.N,/GPIO4*%
X96520000Y-53340000D03*
%TO.P,J3,5,Pin_5_5*%
%TO.N,/GPIO5*%
X96520000Y-50800000D03*
%TO.P,J3,6,Pin_6_6*%
%TO.N,/GPIO6*%
X96520000Y-48260000D03*
%TO.P,J3,7,Pin_7_7*%
%TO.N,/GPIO43*%
X96520000Y-45720000D03*
%TD*%
D10*
%TO.P,J1,1,Pin_1_1*%
%TO.N,+3.3V*%
X76200000Y-25400000D03*
D11*
%TO.P,J1,2,Pin_2_2*%
X76200000Y-27940000D03*
%TO.P,J1,3,Pin_3_3*%
%TO.N,/RST*%
X76200000Y-30480000D03*
%TO.P,J1,4,Pin_4_4*%
%TO.N,/IO4*%
X76200000Y-33020000D03*
%TO.P,J1,5,Pin_5_5*%
%TO.N,/IO5*%
X76200000Y-35560000D03*
%TO.P,J1,6,Pin_6_6*%
%TO.N,/IO6*%
X76200000Y-38100000D03*
%TO.P,J1,7,Pin_7_7*%
%TO.N,/IO7*%
X76200000Y-40640000D03*
%TO.P,J1,8,Pin_8_8*%
%TO.N,/GPIO7*%
X76200000Y-43180000D03*
%TO.P,J1,9,Pin_9_9*%
%TO.N,/GPIO8*%
X76200000Y-45720000D03*
%TO.P,J1,10,Pin_10_10*%
%TO.N,/GPIO9*%
X76200000Y-48260000D03*
%TO.P,J1,11,Pin_11_11*%
%TO.N,/GPIO6*%
X76200000Y-50800000D03*
%TO.P,J1,12,Pin_12_12*%
%TO.N,/IO8*%
X76200000Y-53340000D03*
%TO.P,J1,13,Pin_13_13*%
%TO.N,/IO3*%
X76200000Y-55880000D03*
%TO.P,J1,14,Pin_14_14*%
%TO.N,/IO46*%
X76200000Y-58420000D03*
%TO.P,J1,15,Pin_15_15*%
%TO.N,/IO9*%
X76200000Y-60960000D03*
%TO.P,J1,16,Pin_16_16*%
%TO.N,/GPIO4*%
X76200000Y-63500000D03*
%TO.P,J1,17,Pin_17_17*%
%TO.N,/GPIO3*%
X76200000Y-66040000D03*
%TO.P,J1,18,Pin_18_18*%
%TO.N,/GPIO2*%
X76200000Y-68580000D03*
%TO.P,J1,19,Pin_19_19*%
%TO.N,/GPIO1*%
X76200000Y-71120000D03*
%TO.P,J1,20,Pin_20_20*%
%TO.N,/IO14*%
X76200000Y-73660000D03*
%TO.P,J1,21,Pin_21_21*%
%TO.N,+5V*%
X76200000Y-76200000D03*
%TO.P,J1,22,Pin_22_22*%
%TO.N,GND*%
X76200000Y-78740000D03*
%TD*%
D10*
%TO.P,J2,1,Pin_1_1*%
%TO.N,GND*%
X101600000Y-25400000D03*
D11*
%TO.P,J2,2,Pin_2_2*%
%TO.N,/IO43*%
X101600000Y-27940000D03*
%TO.P,J2,3,Pin_3_3*%
%TO.N,/IO44*%
X101600000Y-30480000D03*
%TO.P,J2,4,Pin_4_4*%
%TO.N,/IO1*%
X101600000Y-33020000D03*
%TO.P,J2,5,Pin_5_5*%
%TO.N,/IO2*%
X101600000Y-35560000D03*
%TO.P,J2,6,Pin_6_6*%
%TO.N,/IO42*%
X101600000Y-38100000D03*
%TO.P,J2,7,Pin_7_7*%
%TO.N,/IO41*%
X101600000Y-40640000D03*
%TO.P,J2,8,Pin_8_8*%
%TO.N,/IO40*%
X101600000Y-43180000D03*
%TO.P,J2,9,Pin_9_9*%
%TO.N,/IO39*%
X101600000Y-45720000D03*
%TO.P,J2,10,Pin_10_10*%
%TO.N,/IO38*%
X101600000Y-48260000D03*
%TO.P,J2,11,Pin_11_11*%
%TO.N,/IO37*%
X101600000Y-50800000D03*
%TO.P,J2,12,Pin_12_12*%
%TO.N,/IO36*%
X101600000Y-53340000D03*
%TO.P,J2,13,Pin_13_13*%
%TO.N,/IO35*%
X101600000Y-55880000D03*
%TO.P,J2,14,Pin_14_14*%
%TO.N,/IO0*%
X101600000Y-58420000D03*
%TO.P,J2,15,Pin_15_15*%
%TO.N,/IO45*%
X101600000Y-60960000D03*
%TO.P,J2,16,Pin_16_16*%
%TO.N,/IO48*%
X101600000Y-63500000D03*
%TO.P,J2,17,Pin_17_17*%
%TO.N,/IO47*%
X101600000Y-66040000D03*
%TO.P,J2,18,Pin_18_18*%
%TO.N,/IO21*%
X101600000Y-68580000D03*
%TO.P,J2,19,Pin_19_19*%
%TO.N,/IO20*%
X101600000Y-71120000D03*
%TO.P,J2,20,Pin_20_20*%
%TO.N,/IO19*%
X101600000Y-73660000D03*
%TO.P,J2,21,Pin_21_21*%
%TO.N,GND*%
X101600000Y-76200000D03*
%TO.P,J2,22,Pin_22_22*%
X101600000Y-78740000D03*
%TD*%
%TO.N,+5V*%
D12*
X81280000Y-60960000D02*
X81280000Y-71120000D01*
X81280000Y-71120000D02*
X76200000Y-76200000D01*
%TO.N,+3.3V*%
X78510000Y-53110000D02*
X78510000Y-30250000D01*
X78510000Y-30250000D02*
X76200000Y-27940000D01*
X81280000Y-55880000D02*
X78510000Y-53110000D01*
X76200000Y-27940000D02*
X76200000Y-25400000D01*
%TD*%
%TA.AperFunction,Conductor*%
%TO.N,GND*%
G36*
X103081694Y-23886806D02*
G01*
X103100000Y-23931000D01*
X103100000Y-80209000D01*
X103081694Y-80253194D01*
X103037500Y-80271500D01*
X74812500Y-80271500D01*
X74768306Y-80253194D01*
X74750000Y-80209000D01*
X74750000Y-79009006D01*
X74768306Y-78964812D01*
X74812500Y-78946506D01*
X74856694Y-78964812D01*
X74874230Y-78999229D01*
X74883241Y-79056123D01*
X74883241Y-79056124D01*
X74948905Y-79258218D01*
X74948906Y-79258221D01*
X75045379Y-79447557D01*
X75084727Y-79501716D01*
X75717036Y-78869406D01*
X75734075Y-78932993D01*
X75799901Y-79047007D01*
X75892993Y-79140099D01*
X76007007Y-79205925D01*
X76070591Y-79222962D01*
X75438281Y-79855271D01*
X75492442Y-79894620D01*
X75681778Y-79991093D01*
X75681781Y-79991094D01*
X75883875Y-80056758D01*
X76093739Y-80089998D01*
X76093755Y-80090000D01*
X76306245Y-80090000D01*
X76306260Y-80089998D01*
X76516123Y-80056758D01*
X76516124Y-80056758D01*
X76718218Y-79991094D01*
X76718226Y-79991090D01*
X76907549Y-79894625D01*
X76961716Y-79855270D01*
X76329408Y-79222962D01*
X76392993Y-79205925D01*
X76507007Y-79140099D01*
X76600099Y-79047007D01*
X76665925Y-78932993D01*
X76682962Y-78869408D01*
X77315270Y-79501716D01*
X77354625Y-79447549D01*
X77451090Y-79258226D01*
X77451094Y-79258218D01*
X77516758Y-79056124D01*
X77516758Y-79056123D01*
X77549998Y-78846260D01*
X77550000Y-78846244D01*
X77550000Y-78633755D01*
X77549998Y-78633739D01*
X77516758Y-78423876D01*
X77516758Y-78423875D01*
X77451094Y-78221781D01*
X77451093Y-78221778D01*
X77354620Y-78032442D01*
X77315270Y-77978281D01*
X76682962Y-78610590D01*
X76665925Y-78547007D01*
X76600099Y-78432993D01*
X76507007Y-78339901D01*
X76392993Y-78274075D01*
X76329407Y-78257036D01*
X76961717Y-77624727D01*
X76907557Y-77585379D01*
X76790958Y-77525968D01*
X76759892Y-77489593D01*
X76763645Y-77441905D01*
X76790957Y-77414593D01*
X76907816Y-77355051D01*
X77079792Y-77230104D01*
X77230104Y-77079792D01*
X77355051Y-76907816D01*
X77451557Y-76718412D01*
X77517246Y-76516243D01*
X77550500Y-76306287D01*
X77550500Y-76301622D01*
X77568806Y-76257428D01*
X77779131Y-76047103D01*
X79903807Y-73922427D01*
X82063353Y-71762881D01*
X82173722Y-71597704D01*
X82227477Y-71467924D01*
X82249744Y-71414169D01*
X82288500Y-71219329D01*
X82288500Y-62328457D01*
X82306806Y-62284263D01*
X82329156Y-62269898D01*
X82372331Y-62253796D01*
X82487546Y-62167546D01*
X82526846Y-62115048D01*
X82573793Y-62052336D01*
X82573796Y-62052331D01*
X82624090Y-61917486D01*
X82624090Y-61917485D01*
X82624091Y-61917483D01*
X82630500Y-61857873D01*
X82630499Y-60062128D01*
X82624091Y-60002517D01*
X82597005Y-59929896D01*
X82573796Y-59867668D01*
X82573793Y-59867663D01*
X82487548Y-59752456D01*
X82487543Y-59752451D01*
X82372336Y-59666206D01*
X82372331Y-59666203D01*
X82237485Y-59615909D01*
X82237487Y-59615909D01*
X82177880Y-59609500D01*
X82103487Y-59609500D01*
X82059293Y-59591194D01*
X82040987Y-59547000D01*
X82041180Y-59542096D01*
X82041717Y-59535271D01*
X81409408Y-58902962D01*
X81472993Y-58885925D01*
X81587007Y-58820099D01*
X81680099Y-58727007D01*
X81745925Y-58612993D01*
X81762962Y-58549408D01*
X82395270Y-59181716D01*
X82434625Y-59127549D01*
X82531090Y-58938226D01*
X82531094Y-58938218D01*
X82596758Y-58736124D01*
X82596758Y-58736123D01*
X82629998Y-58526260D01*
X82630000Y-58526244D01*
X82630000Y-58313755D01*
X82629998Y-58313739D01*
X82596758Y-58103876D01*
X82596758Y-58103875D01*
X82531094Y-57901781D01*
X82531093Y-57901778D01*
X82434620Y-57712442D01*
X82395270Y-57658281D01*
X81762962Y-58290590D01*
X81745925Y-58227007D01*
X81680099Y-58112993D01*
X81587007Y-58019901D01*
X81472993Y-57954075D01*
X81409407Y-57937036D01*
X82041717Y-57304727D01*
X81987557Y-57265379D01*
X81870958Y-57205968D01*
X81839892Y-57169593D01*
X81843645Y-57121905D01*
X81870957Y-57094593D01*
X81987816Y-57035051D01*
X82159792Y-56910104D01*
X82310104Y-56759792D01*
X82435051Y-56587816D01*
X82531557Y-56398412D01*
X82597246Y-56196243D01*
X82630500Y-55986287D01*
X82630500Y-55773713D01*
X82597246Y-55563757D01*
X82531557Y-55361588D01*
X82435051Y-55172184D01*
X82310104Y-55000208D01*
X82310102Y-55000205D01*
X82159794Y-54849897D01*
X81987817Y-54724949D01*
X81912689Y-54686669D01*
X81871508Y-54665687D01*
X81840442Y-54629314D01*
X81844195Y-54581626D01*
X81871508Y-54554312D01*
X81987816Y-54495051D01*
X82159792Y-54370104D01*
X82310104Y-54219792D01*
X82435051Y-54047816D01*
X82531557Y-53858412D01*
X82597246Y-53656243D01*
X82630500Y-53446287D01*
X82630500Y-53233713D01*
X82597246Y-53023757D01*
X82531557Y-52821588D01*
X82435051Y-52632184D01*
X82435048Y-52632180D01*
X82310102Y-52460205D01*
X82159794Y-52309897D01*
X81987817Y-52184949D01*
X81912689Y-52146669D01*
X81871508Y-52125687D01*
X81840442Y-52089314D01*
X81844195Y-52041626D01*
X81871508Y-52014312D01*
X81987816Y-51955051D01*
X82159792Y-51830104D01*
X82310104Y-51679792D01*
X82435051Y-51507816D01*
X82531557Y-51318412D01*
X82597246Y-51116243D01*
X82630500Y-50906287D01*
X82630500Y-50693713D01*
X82597246Y-50483757D01*
X82531557Y-50281588D01*
X82435051Y-50092184D01*
X82435048Y-50092180D01*
X82310102Y-49920205D01*
X82159794Y-49769897D01*
X81987817Y-49644949D01*
X81912689Y-49606669D01*
X81871508Y-49585687D01*
X81840442Y-49549314D01*
X81844195Y-49501626D01*
X81871508Y-49474312D01*
X81987816Y-49415051D01*
X82159792Y-49290104D01*
X82310104Y-49139792D01*
X82435051Y-48967816D01*
X82531557Y-48778412D01*
X82597246Y-48576243D01*
X82630500Y-48366287D01*
X82630500Y-48153713D01*
X82597246Y-47943757D01*
X82531557Y-47741588D01*
X82435051Y-47552184D01*
X82435048Y-47552180D01*
X82310102Y-47380205D01*
X82159794Y-47229897D01*
X81987817Y-47104949D01*
X81912689Y-47066669D01*
X81871508Y-47045687D01*
X81840442Y-47009314D01*
X81844195Y-46961626D01*
X81871508Y-46934312D01*
X81987816Y-46875051D01*
X82159792Y-46750104D01*
X82310104Y-46599792D01*
X82435051Y-46427816D01*
X82531557Y-46238412D01*
X82597246Y-46036243D01*
X82630500Y-45826287D01*
X82630500Y-45613715D01*
X95169500Y-45613715D01*
X95169500Y-45826284D01*
X95169501Y-45826300D01*
X95202753Y-46036240D01*
X95202753Y-46036241D01*
X95268442Y-46238410D01*
X95268446Y-46238418D01*
X95364949Y-46427817D01*
X95489897Y-46599794D01*
X95640205Y-46750102D01*
X95640208Y-46750104D01*
X95812184Y-46875051D01*
X95928491Y-46934312D01*
X95959557Y-46970687D01*
X95955804Y-47018375D01*
X95928491Y-47045687D01*
X95826141Y-47097837D01*
X95812180Y-47104951D01*
X95640205Y-47229897D01*
X95489897Y-47380205D01*
X95364949Y-47552182D01*
X95268446Y-47741581D01*
X95268442Y-47741589D01*
X95202753Y-47943758D01*
X95202753Y-47943759D01*
X95169501Y-48153699D01*
X95169500Y-48153715D01*
X95169500Y-48366284D01*
X95169501Y-48366300D01*
X95202753Y-48576240D01*
X95202753Y-48576241D01*
X95268442Y-48778410D01*
X95268446Y-48778418D01*
X95364949Y-48967817D01*
X95489897Y-49139794D01*
X95640205Y-49290102D01*
X95640208Y-49290104D01*
X95812184Y-49415051D01*
X95928491Y-49474312D01*
X95959557Y-49510687D01*
X95955804Y-49558375D01*
X95928491Y-49585687D01*
X95826141Y-49637837D01*
X95812180Y-49644951D01*
X95640205Y-49769897D01*
X95489897Y-49920205D01*
X95364949Y-50092182D01*
X95268446Y-50281581D01*
X95268442Y-50281589D01*
X95202753Y-50483758D01*
X95202753Y-50483759D01*
X95169501Y-50693699D01*
X95169500Y-50693715D01*
X95169500Y-50906284D01*
X95169501Y-50906300D01*
X95202753Y-51116240D01*
X95202753Y-51116241D01*
X95268442Y-51318410D01*
X95268446Y-51318418D01*
X95364949Y-51507817D01*
X95489897Y-51679794D01*
X95640205Y-51830102D01*
X95640208Y-51830104D01*
X95812184Y-51955051D01*
X95928491Y-52014312D01*
X95959557Y-52050687D01*
X95955804Y-52098375D01*
X95928491Y-52125687D01*
X95826141Y-52177837D01*
X95812180Y-52184951D01*
X95640205Y-52309897D01*
X95489897Y-52460205D01*
X95364949Y-52632182D01*
X95268446Y-52821581D01*
X95268442Y-52821589D01*
X95202753Y-53023758D01*
X95202753Y-53023759D01*
X95169501Y-53233699D01*
X95169500Y-53233715D01*
X95169500Y-53446284D01*
X95169501Y-53446300D01*
X95202753Y-53656240D01*
X95202753Y-53656241D01*
X95268442Y-53858410D01*
X95268446Y-53858418D01*
X95364949Y-54047817D01*
X95489897Y-54219794D01*
X95640205Y-54370102D01*
X95640208Y-54370104D01*
X95812184Y-54495051D01*
X95928491Y-54554312D01*
X95959557Y-54590687D01*
X95955804Y-54638375D01*
X95928491Y-54665687D01*
X95826141Y-54717837D01*
X95812180Y-54724951D01*
X95640205Y-54849897D01*
X95489897Y-55000205D01*
X95364949Y-55172182D01*
X95268446Y-55361581D01*
X95268442Y-55361589D01*
X95202753Y-55563758D01*
X95202753Y-55563759D01*
X95169501Y-55773699D01*
X95169500Y-55773715D01*
X95169500Y-55986284D01*
X95169501Y-55986300D01*
X95202753Y-56196240D01*
X95202753Y-56196241D01*
X95268442Y-56398410D01*
X95268446Y-56398418D01*
X95364949Y-56587817D01*
X95489897Y-56759794D01*
X95640205Y-56910102D01*
X95640208Y-56910104D01*
X95812184Y-57035051D01*
X95928491Y-57094312D01*
X95959557Y-57130687D01*
X95955804Y-57178375D01*
X95928491Y-57205687D01*
X95927941Y-57205968D01*
X95812180Y-57264951D01*
X95640205Y-57389897D01*
X95489897Y-57540205D01*
X95364949Y-57712182D01*
X95268446Y-57901581D01*
X95268442Y-57901589D01*
X95202753Y-58103758D01*
X95202753Y-58103759D01*
X95169501Y-58313699D01*
X95169500Y-58313715D01*
X95169500Y-58526284D01*
X95169501Y-58526300D01*
X95202753Y-58736240D01*
X95202753Y-58736241D01*
X95268442Y-58938410D01*
X95268446Y-58938418D01*
X95364949Y-59127817D01*
X95489897Y-59299794D01*
X95640200Y-59450097D01*
X95640205Y-59450101D01*
X95640208Y-59450104D01*
X95703980Y-59496437D01*
X95728974Y-59537222D01*
X95717808Y-59583736D01*
X95677022Y-59608730D01*
X95667245Y-59609500D01*
X95622136Y-59609500D01*
X95622118Y-59609501D01*
X95562513Y-59615909D01*
X95427668Y-59666203D01*
X95427663Y-59666206D01*
X95312456Y-59752451D01*
X95312451Y-59752456D01*
X95226206Y-59867663D01*
X95226203Y-59867668D01*
X95175909Y-60002513D01*
X95169500Y-60062119D01*
X95169500Y-61857864D01*
X95169501Y-61857881D01*
X95175909Y-61917486D01*
X95226203Y-62052331D01*
X95226206Y-62052336D01*
X95312451Y-62167543D01*
X95312456Y-62167548D01*
X95427663Y-62253793D01*
X95427668Y-62253796D01*
X95562514Y-62304090D01*
X95562515Y-62304090D01*
X95562517Y-62304091D01*
X95622127Y-62310500D01*
X97417872Y-62310499D01*
X97477483Y-62304091D01*
X97481768Y-62302493D01*
X97612331Y-62253796D01*
X97612336Y-62253793D01*
X97727543Y-62167548D01*
X97727542Y-62167548D01*
X97727546Y-62167546D01*
X97766846Y-62115048D01*
X97813793Y-62052336D01*
X97813796Y-62052331D01*
X97864090Y-61917486D01*
X97864090Y-61917485D01*
X97864091Y-61917483D01*
X97870500Y-61857873D01*
X97870499Y-60062128D01*
X97864091Y-60002517D01*
X97837005Y-59929896D01*
X97813796Y-59867668D01*
X97813793Y-59867663D01*
X97727548Y-59752456D01*
X97727543Y-59752451D01*
X97612336Y-59666206D01*
X97612331Y-59666203D01*
X97477485Y-59615909D01*
X97477487Y-59615909D01*
X97417880Y-59609500D01*
X97417873Y-59609500D01*
X97372757Y-59609500D01*
X97328563Y-59591194D01*
X97310257Y-59547000D01*
X97328563Y-59502806D01*
X97336014Y-59496440D01*
X97399792Y-59450104D01*
X97550104Y-59299792D01*
X97675051Y-59127816D01*
X97771557Y-58938412D01*
X97837246Y-58736243D01*
X97870500Y-58526287D01*
X97870500Y-58313713D01*
X97837246Y-58103757D01*
X97771557Y-57901588D01*
X97675051Y-57712184D01*
X97635889Y-57658282D01*
X97550102Y-57540205D01*
X97399794Y-57389897D01*
X97227817Y-57264949D01*
X97112059Y-57205968D01*
X97111508Y-57205687D01*
X97080442Y-57169314D01*
X97084195Y-57121626D01*
X97111508Y-57094312D01*
X97227816Y-57035051D01*
X97399792Y-56910104D01*
X97550104Y-56759792D01*
X97675051Y-56587816D01*
X97771557Y-56398412D01*
X97837246Y-56196243D01*
X97870500Y-55986287D01*
X97870500Y-55773713D01*
X97837246Y-55563757D01*
X97771557Y-55361588D01*
X97675051Y-55172184D01*
X97550104Y-55000208D01*
X97550102Y-55000205D01*
X97399794Y-54849897D01*
X97227817Y-54724949D01*
X97152689Y-54686669D01*
X97111508Y-54665687D01*
X97080442Y-54629314D01*
X97084195Y-54581626D01*
X97111508Y-54554312D01*
X97227816Y-54495051D01*
X97399792Y-54370104D01*
X97550104Y-54219792D01*
X97675051Y-54047816D01*
X97771557Y-53858412D01*
X97837246Y-53656243D01*
X97870500Y-53446287D01*
X97870500Y-53233713D01*
X97837246Y-53023757D01*
X97771557Y-52821588D01*
X97675051Y-52632184D01*
X97675048Y-52632180D01*
X97550102Y-52460205D01*
X97399794Y-52309897D01*
X97227817Y-52184949D01*
X97152689Y-52146669D01*
X97111508Y-52125687D01*
X97080442Y-52089314D01*
X97084195Y-52041626D01*
X97111508Y-52014312D01*
X97227816Y-51955051D01*
X97399792Y-51830104D01*
X97550104Y-51679792D01*
X97675051Y-51507816D01*
X97771557Y-51318412D01*
X97837246Y-51116243D01*
X97870500Y-50906287D01*
X97870500Y-50693713D01*
X97837246Y-50483757D01*
X97771557Y-50281588D01*
X97675051Y-50092184D01*
X97675048Y-50092180D01*
X97550102Y-49920205D01*
X97399794Y-49769897D01*
X97227817Y-49644949D01*
X97152689Y-49606669D01*
X97111508Y-49585687D01*
X97080442Y-49549314D01*
X97084195Y-49501626D01*
X97111508Y-49474312D01*
X97227816Y-49415051D01*
X97399792Y-49290104D01*
X97550104Y-49139792D01*
X97675051Y-48967816D01*
X97771557Y-48778412D01*
X97837246Y-48576243D01*
X97870500Y-48366287D01*
X97870500Y-48153713D01*
X97837246Y-47943757D01*
X97771557Y-47741588D01*
X97675051Y-47552184D01*
X97675048Y-47552180D01*
X97550102Y-47380205D01*
X97399794Y-47229897D01*
X97227817Y-47104949D01*
X97152689Y-47066669D01*
X97111508Y-47045687D01*
X97080442Y-47009314D01*
X97084195Y-46961626D01*
X97111508Y-46934312D01*
X97227816Y-46875051D01*
X97399792Y-46750104D01*
X97550104Y-46599792D01*
X97675051Y-46427816D01*
X97771557Y-46238412D01*
X97837246Y-46036243D01*
X97870500Y-45826287D01*
X97870500Y-45613713D01*
X97837246Y-45403757D01*
X97771557Y-45201588D01*
X97675051Y-45012184D01*
X97675048Y-45012180D01*
X97550102Y-44840205D01*
X97399794Y-44689897D01*
X97227817Y-44564949D01*
X97038418Y-44468446D01*
X97038410Y-44468442D01*
X96836241Y-44402753D01*
X96626300Y-44369501D01*
X96626288Y-44369500D01*
X96626287Y-44369500D01*
X96413713Y-44369500D01*
X96413711Y-44369500D01*
X96413699Y-44369501D01*
X96203759Y-44402753D01*
X96203758Y-44402753D01*
X96001589Y-44468442D01*
X96001581Y-44468446D01*
X95812182Y-44564949D01*
X95640205Y-44689897D01*
X95489897Y-44840205D01*
X95364949Y-45012182D01*
X95268446Y-45201581D01*
X95268442Y-45201589D01*
X95202753Y-45403758D01*
X95202753Y-45403759D01*
X95169501Y-45613699D01*
X95169500Y-45613715D01*
X82630500Y-45613715D01*
X82630500Y-45613713D01*
X82597246Y-45403757D01*
X82531557Y-45201588D01*
X82435051Y-45012184D01*
X82435048Y-45012180D01*
X82310102Y-44840205D01*
X82159794Y-44689897D01*
X81987817Y-44564949D01*
X81798418Y-44468446D01*
X81798410Y-44468442D01*
X81596241Y-44402753D01*
X81386300Y-44369501D01*
X81386288Y-44369500D01*
X81386287Y-44369500D01*
X81173713Y-44369500D01*
X81173711Y-44369500D01*
X81173699Y-44369501D01*
X80963759Y-44402753D01*
X80963758Y-44402753D01*
X80761589Y-44468442D01*
X80761581Y-44468446D01*
X80572182Y-44564949D01*
X80400205Y-44689897D01*
X80249897Y-44840205D01*
X80124949Y-45012182D01*
X80028446Y-45201581D01*
X80028442Y-45201589D01*
X79962753Y-45403758D01*
X79962753Y-45403759D01*
X79929501Y-45613699D01*
X79929500Y-45613715D01*
X79929500Y-45826284D01*
X79929501Y-45826300D01*
X79962753Y-46036240D01*
X79962753Y-46036241D01*
X80028442Y-46238410D01*
X80028446Y-46238418D01*
X80124949Y-46427817D01*
X80249897Y-46599794D01*
X80400205Y-46750102D01*
X80400208Y-46750104D01*
X80572184Y-46875051D01*
X80688491Y-46934312D01*
X80719557Y-46970687D01*
X80715804Y-47018375D01*
X80688491Y-47045687D01*
X80586141Y-47097837D01*
X80572180Y-47104951D01*
X80400205Y-47229897D01*
X80249897Y-47380205D01*
X80124949Y-47552182D01*
X80028446Y-47741581D01*
X80028442Y-47741589D01*
X79962753Y-47943758D01*
X79962753Y-47943759D01*
X79929501Y-48153699D01*
X79929500Y-48153715D01*
X79929500Y-48366284D01*
X79929501Y-48366300D01*
X79962753Y-48576240D01*
X79962753Y-48576241D01*
X80028442Y-48778410D01*
X80028446Y-48778418D01*
X80124949Y-48967817D01*
X80249897Y-49139794D01*
X80400205Y-49290102D01*
X80400208Y-49290104D01*
X80572184Y-49415051D01*
X80688491Y-49474312D01*
X80719557Y-49510687D01*
X80715804Y-49558375D01*
X80688491Y-49585687D01*
X80586141Y-49637837D01*
X80572180Y-49644951D01*
X80400205Y-49769897D01*
X80249897Y-49920205D01*
X80124949Y-50092182D01*
X80028446Y-50281581D01*
X80028442Y-50281589D01*
X79962753Y-50483758D01*
X79962753Y-50483759D01*
X79929501Y-50693699D01*
X79929500Y-50693715D01*
X79929500Y-50906284D01*
X79929501Y-50906300D01*
X79962753Y-51116240D01*
X79962753Y-51116241D01*
X80028442Y-51318410D01*
X80028446Y-51318418D01*
X80124949Y-51507817D01*
X80249897Y-51679794D01*
X80400205Y-51830102D01*
X80400208Y-51830104D01*
X80572184Y-51955051D01*
X80688491Y-52014312D01*
X80719557Y-52050687D01*
X80715804Y-52098375D01*
X80688491Y-52125687D01*
X80586141Y-52177837D01*
X80572180Y-52184951D01*
X80400205Y-52309897D01*
X80249897Y-52460205D01*
X80124949Y-52632182D01*
X80028446Y-52821581D01*
X80028442Y-52821589D01*
X79966617Y-53011867D01*
X79935550Y-53048241D01*
X79887862Y-53051994D01*
X79862982Y-53036747D01*
X79536806Y-52710571D01*
X79518500Y-52666377D01*
X79518500Y-30150671D01*
X79479744Y-29955831D01*
X79403721Y-29772296D01*
X79293353Y-29607119D01*
X79152881Y-29466647D01*
X77568806Y-27882572D01*
X77550500Y-27838378D01*
X77550500Y-27833715D01*
X100249500Y-27833715D01*
X100249500Y-28046284D01*
X100249501Y-28046300D01*
X100282753Y-28256240D01*
X100282753Y-28256241D01*
X100348442Y-28458410D01*
X100348446Y-28458418D01*
X100444949Y-28647817D01*
X100569897Y-28819794D01*
X100720205Y-28970102D01*
X100720208Y-28970104D01*
X100892184Y-29095051D01*
X101008491Y-29154312D01*
X101039557Y-29190687D01*
X101035804Y-29238375D01*
X101008491Y-29265687D01*
X100906141Y-29317837D01*
X100892180Y-29324951D01*
X100720205Y-29449897D01*
X100569897Y-29600205D01*
X100444949Y-29772182D01*
X100348446Y-29961581D01*
X100348442Y-29961589D01*
X100282753Y-30163758D01*
X100282753Y-30163759D01*
X100249501Y-30373699D01*
X100249500Y-30373715D01*
X100249500Y-30586284D01*
X100249501Y-30586300D01*
X100282753Y-30796240D01*
X100282753Y-30796241D01*
X100348442Y-30998410D01*
X100348446Y-30998418D01*
X100444949Y-31187817D01*
X100569897Y-31359794D01*
X100720205Y-31510102D01*
X100720208Y-31510104D01*
X100892184Y-31635051D01*
X101008491Y-31694312D01*
X101039557Y-31730687D01*
X101035804Y-31778375D01*
X101008491Y-31805687D01*
X100906141Y-31857837D01*
X100892180Y-31864951D01*
X100720205Y-31989897D01*
X100569897Y-32140205D01*
X100444949Y-32312182D01*
X100348446Y-32501581D01*
X100348442Y-32501589D01*
X100282753Y-32703758D01*
X100282753Y-32703759D01*
X100249501Y-32913699D01*
X100249500Y-32913715D01*
X100249500Y-33126284D01*
X100249501Y-33126300D01*
X100282753Y-33336240D01*
X100282753Y-33336241D01*
X100348442Y-33538410D01*
X100348446Y-33538418D01*
X100444949Y-33727817D01*
X100569897Y-33899794D01*
X100720205Y-34050102D01*
X100720208Y-34050104D01*
X100892184Y-34175051D01*
X101008491Y-34234312D01*
X101039557Y-34270687D01*
X101035804Y-34318375D01*
X101008491Y-34345687D01*
X100906141Y-34397837D01*
X100892180Y-34404951D01*
X100720205Y-34529897D01*
X100569897Y-34680205D01*
X100444949Y-34852182D01*
X100348446Y-35041581D01*
X100348442Y-35041589D01*
X100282753Y-35243758D01*
X100282753Y-35243759D01*
X100249501Y-35453699D01*
X100249500Y-35453715D01*
X100249500Y-35666284D01*
X100249501Y-35666300D01*
X100282753Y-35876240D01*
X100282753Y-35876241D01*
X100348442Y-36078410D01*
X100348446Y-36078418D01*
X100444949Y-36267817D01*
X100569897Y-36439794D01*
X100720205Y-36590102D01*
X100720208Y-36590104D01*
X100892184Y-36715051D01*
X101008491Y-36774312D01*
X101039557Y-36810687D01*
X101035804Y-36858375D01*
X101008491Y-36885687D01*
X100906141Y-36937837D01*
X100892180Y-36944951D01*
X100720205Y-37069897D01*
X100569897Y-37220205D01*
X100444949Y-37392182D01*
X100348446Y-37581581D01*
X100348442Y-37581589D01*
X100282753Y-37783758D01*
X100282753Y-37783759D01*
X100249501Y-37993699D01*
X100249500Y-37993715D01*
X100249500Y-38206284D01*
X100249501Y-38206300D01*
X100282753Y-38416240D01*
X100282753Y-38416241D01*
X100348442Y-38618410D01*
X100348446Y-38618418D01*
X100444949Y-38807817D01*
X100569897Y-38979794D01*
X100720205Y-39130102D01*
X100720208Y-39130104D01*
X100892184Y-39255051D01*
X101008491Y-39314312D01*
X101039557Y-39350687D01*
X101035804Y-39398375D01*
X101008491Y-39425687D01*
X100906141Y-39477837D01*
X100892180Y-39484951D01*
X100720205Y-39609897D01*
X100569897Y-39760205D01*
X100444949Y-39932182D01*
X100348446Y-40121581D01*
X100348442Y-40121589D01*
X100282753Y-40323758D01*
X100282753Y-40323759D01*
X100249501Y-40533699D01*
X100249500Y-40533715D01*
X100249500Y-40746284D01*
X100249501Y-40746300D01*
X100282753Y-40956240D01*
X100282753Y-40956241D01*
X100348442Y-41158410D01*
X100348446Y-41158418D01*
X100444949Y-41347817D01*
X100569897Y-41519794D01*
X100720205Y-41670102D01*
X100720208Y-41670104D01*
X100892184Y-41795051D01*
X101008491Y-41854312D01*
X101039557Y-41890687D01*
X101035804Y-41938375D01*
X101008491Y-41965687D01*
X100906141Y-42017837D01*
X100892180Y-42024951D01*
X100720205Y-42149897D01*
X100569897Y-42300205D01*
X100444949Y-42472182D01*
X100348446Y-42661581D01*
X100348442Y-42661589D01*
X100282753Y-42863758D01*
X100282753Y-42863759D01*
X100249501Y-43073699D01*
X100249500Y-43073715D01*
X100249500Y-43286284D01*
X100249501Y-43286300D01*
X100282753Y-43496240D01*
X100282753Y-43496241D01*
X100348442Y-43698410D01*
X100348446Y-43698418D01*
X100444949Y-43887817D01*
X100569897Y-44059794D01*
X100720205Y-44210102D01*
X100720208Y-44210104D01*
X100892184Y-44335051D01*
X101008491Y-44394312D01*
X101039557Y-44430687D01*
X101035804Y-44478375D01*
X101008491Y-44505687D01*
X100906141Y-44557837D01*
X100892180Y-44564951D01*
X100720205Y-44689897D01*
X100569897Y-44840205D01*
X100444949Y-45012182D01*
X100348446Y-45201581D01*
X100348442Y-45201589D01*
X100282753Y-45403758D01*
X100282753Y-45403759D01*
X100249501Y-45613699D01*
X100249500Y-45613715D01*
X100249500Y-45826284D01*
X100249501Y-45826300D01*
X100282753Y-46036240D01*
X100282753Y-46036241D01*
X100348442Y-46238410D01*
X100348446Y-46238418D01*
X100444949Y-46427817D01*
X100569897Y-46599794D01*
X100720205Y-46750102D01*
X100720208Y-46750104D01*
X100892184Y-46875051D01*
X101008491Y-46934312D01*
X101039557Y-46970687D01*
X101035804Y-47018375D01*
X101008491Y-47045687D01*
X100906141Y-47097837D01*
X100892180Y-47104951D01*
X100720205Y-47229897D01*
X100569897Y-47380205D01*
X100444949Y-47552182D01*
X100348446Y-47741581D01*
X100348442Y-47741589D01*
X100282753Y-47943758D01*
X100282753Y-47943759D01*
X100249501Y-48153699D01*
X100249500Y-48153715D01*
X100249500Y-48366284D01*
X100249501Y-48366300D01*
X100282753Y-48576240D01*
X100282753Y-48576241D01*
X100348442Y-48778410D01*
X100348446Y-48778418D01*
X100444949Y-48967817D01*
X100569897Y-49139794D01*
X100720205Y-49290102D01*
X100720208Y-49290104D01*
X100892184Y-49415051D01*
X101008491Y-49474312D01*
X101039557Y-49510687D01*
X101035804Y-49558375D01*
X101008491Y-49585687D01*
X100906141Y-49637837D01*
X100892180Y-49644951D01*
X100720205Y-49769897D01*
X100569897Y-49920205D01*
X100444949Y-50092182D01*
X100348446Y-50281581D01*
X100348442Y-50281589D01*
X100282753Y-50483758D01*
X100282753Y-50483759D01*
X100249501Y-50693699D01*
X100249500Y-50693715D01*
X100249500Y-50906284D01*
X100249501Y-50906300D01*
X100282753Y-51116240D01*
X100282753Y-51116241D01*
X100348442Y-51318410D01*
X100348446Y-51318418D01*
X100444949Y-51507817D01*
X100569897Y-51679794D01*
X100720205Y-51830102D01*
X100720208Y-51830104D01*
X100892184Y-51955051D01*
X101008491Y-52014312D01*
X101039557Y-52050687D01*
X101035804Y-52098375D01*
X101008491Y-52125687D01*
X100906141Y-52177837D01*
X100892180Y-52184951D01*
X100720205Y-52309897D01*
X100569897Y-52460205D01*
X100444949Y-52632182D01*
X100348446Y-52821581D01*
X100348442Y-52821589D01*
X100282753Y-53023758D01*
X100282753Y-53023759D01*
X100249501Y-53233699D01*
X100249500Y-53233715D01*
X100249500Y-53446284D01*
X100249501Y-53446300D01*
X100282753Y-53656240D01*
X100282753Y-53656241D01*
X100348442Y-53858410D01*
X100348446Y-53858418D01*
X100444949Y-54047817D01*
X100569897Y-54219794D01*
X100720205Y-54370102D01*
X100720208Y-54370104D01*
X100892184Y-54495051D01*
X101008491Y-54554312D01*
X101039557Y-54590687D01*
X101035804Y-54638375D01*
X101008491Y-54665687D01*
X100906141Y-54717837D01*
X100892180Y-54724951D01*
X100720205Y-54849897D01*
X100569897Y-55000205D01*
X100444949Y-55172182D01*
X100348446Y-55361581D01*
X100348442Y-55361589D01*
X100282753Y-55563758D01*
X100282753Y-55563759D01*
X100249501Y-55773699D01*
X100249500Y-55773715D01*
X100249500Y-55986284D01*
X100249501Y-55986300D01*
X100282753Y-56196240D01*
X100282753Y-56196241D01*
X100348442Y-56398410D01*
X100348446Y-56398418D01*
X100444949Y-56587817D01*
X100569897Y-56759794D01*
X100720205Y-56910102D01*
X100720208Y-56910104D01*
X100892184Y-57035051D01*
X101008491Y-57094312D01*
X101039557Y-57130687D01*
X101035804Y-57178375D01*
X101008491Y-57205687D01*
X101007941Y-57205968D01*
X100892180Y-57264951D01*
X100720205Y-57389897D01*
X100569897Y-57540205D01*
X100444949Y-57712182D01*
X100348446Y-57901581D01*
X100348442Y-57901589D01*
X100282753Y-58103758D01*
X100282753Y-58103759D01*
X100249501Y-58313699D01*
X100249500Y-58313715D01*
X100249500Y-58526284D01*
X100249501Y-58526300D01*
X100282753Y-58736240D01*
X100282753Y-58736241D01*
X100348442Y-58938410D01*
X100348446Y-58938418D01*
X100444949Y-59127817D01*
X100569897Y-59299794D01*
X100720205Y-59450102D01*
X100720208Y-59450104D01*
X100892184Y-59575051D01*
X101008491Y-59634312D01*
X101039557Y-59670687D01*
X101035804Y-59718375D01*
X101008491Y-59745687D01*
X100906141Y-59797837D01*
X100892180Y-59804951D01*
X100720205Y-59929897D01*
X100569897Y-60080205D01*
X100444949Y-60252182D01*
X100348446Y-60441581D01*
X100348442Y-60441589D01*
X100282753Y-60643758D01*
X100282753Y-60643759D01*
X100249501Y-60853699D01*
X100249500Y-60853715D01*
X100249500Y-61066284D01*
X100249501Y-61066300D01*
X100282753Y-61276240D01*
X100282753Y-61276241D01*
X100348442Y-61478410D01*
X100348446Y-61478418D01*
X100444949Y-61667817D01*
X100569897Y-61839794D01*
X100720205Y-61990102D01*
X100720208Y-61990104D01*
X100892184Y-62115051D01*
X101008491Y-62174312D01*
X101039557Y-62210687D01*
X101035804Y-62258375D01*
X101008491Y-62285687D01*
X100906141Y-62337837D01*
X100892180Y-62344951D01*
X100720205Y-62469897D01*
X100569897Y-62620205D01*
X100444949Y-62792182D01*
X100348446Y-62981581D01*
X100348442Y-62981589D01*
X100282753Y-63183758D01*
X100282753Y-63183759D01*
X100249501Y-63393699D01*
X100249500Y-63393715D01*
X100249500Y-63606284D01*
X100249501Y-63606300D01*
X100282753Y-63816240D01*
X100282753Y-63816241D01*
X100348442Y-64018410D01*
X100348446Y-64018418D01*
X100444949Y-64207817D01*
X100569897Y-64379794D01*
X100720205Y-64530102D01*
X100720208Y-64530104D01*
X100892184Y-64655051D01*
X101008491Y-64714312D01*
X101039557Y-64750687D01*
X101035804Y-64798375D01*
X101008491Y-64825687D01*
X100906141Y-64877837D01*
X100892180Y-64884951D01*
X100720205Y-65009897D01*
X100569897Y-65160205D01*
X100444949Y-65332182D01*
X100348446Y-65521581D01*
X100348442Y-65521589D01*
X100282753Y-65723758D01*
X100282753Y-65723759D01*
X100249501Y-65933699D01*
X100249500Y-65933715D01*
X100249500Y-66146284D01*
X100249501Y-66146300D01*
X100282753Y-66356240D01*
X100282753Y-66356241D01*
X100348442Y-66558410D01*
X100348446Y-66558418D01*
X100444949Y-66747817D01*
X100569897Y-66919794D01*
X100720205Y-67070102D01*
X100720208Y-67070104D01*
X100892184Y-67195051D01*
X101008491Y-67254312D01*
X101039557Y-67290687D01*
X101035804Y-67338375D01*
X101008491Y-67365687D01*
X100906141Y-67417837D01*
X100892180Y-67424951D01*
X100720205Y-67549897D01*
X100569897Y-67700205D01*
X100444949Y-67872182D01*
X100348446Y-68061581D01*
X100348442Y-68061589D01*
X100282753Y-68263758D01*
X100282753Y-68263759D01*
X100249501Y-68473699D01*
X100249500Y-68473715D01*
X100249500Y-68686284D01*
X100249501Y-68686300D01*
X100282753Y-68896240D01*
X100282753Y-68896241D01*
X100348442Y-69098410D01*
X100348446Y-69098418D01*
X100444949Y-69287817D01*
X100569897Y-69459794D01*
X100720205Y-69610102D01*
X100720208Y-69610104D01*
X100892184Y-69735051D01*
X101008491Y-69794312D01*
X101039557Y-69830687D01*
X101035804Y-69878375D01*
X101008491Y-69905687D01*
X100906141Y-69957837D01*
X100892180Y-69964951D01*
X100720205Y-70089897D01*
X100569897Y-70240205D01*
X100444949Y-70412182D01*
X100348446Y-70601581D01*
X100348442Y-70601589D01*
X100282753Y-70803758D01*
X100282753Y-70803759D01*
X100249501Y-71013699D01*
X100249500Y-71013715D01*
X100249500Y-71226284D01*
X100249501Y-71226300D01*
X100282753Y-71436240D01*
X100282753Y-71436241D01*
X100348442Y-71638410D01*
X100348446Y-71638418D01*
X100444949Y-71827817D01*
X100569897Y-71999794D01*
X100720205Y-72150102D01*
X100720208Y-72150104D01*
X100892184Y-72275051D01*
X101008491Y-72334312D01*
X101039557Y-72370687D01*
X101035804Y-72418375D01*
X101008491Y-72445687D01*
X100906141Y-72497837D01*
X100892180Y-72504951D01*
X100720205Y-72629897D01*
X100569897Y-72780205D01*
X100444949Y-72952182D01*
X100348446Y-73141581D01*
X100348442Y-73141589D01*
X100282753Y-73343758D01*
X100282753Y-73343759D01*
X100249501Y-73553699D01*
X100249500Y-73553715D01*
X100249500Y-73766284D01*
X100249501Y-73766300D01*
X100282753Y-73976240D01*
X100282753Y-73976241D01*
X100348442Y-74178410D01*
X100348446Y-74178418D01*
X100444949Y-74367817D01*
X100569897Y-74539794D01*
X100720205Y-74690102D01*
X100892182Y-74815050D01*
X101009040Y-74874592D01*
X101040107Y-74910966D01*
X101036354Y-74958654D01*
X101009041Y-74985968D01*
X100892444Y-75045378D01*
X100892439Y-75045381D01*
X100838282Y-75084727D01*
X100838281Y-75084727D01*
X101470591Y-75717037D01*
X101407007Y-75734075D01*
X101292993Y-75799901D01*
X101199901Y-75892993D01*
X101134075Y-76007007D01*
X101117037Y-76070591D01*
X100484727Y-75438281D01*
X100484727Y-75438282D01*
X100445381Y-75492439D01*
X100445378Y-75492444D01*
X100348906Y-75681778D01*
X100348905Y-75681781D01*
X100283241Y-75883875D01*
X100283241Y-75883876D01*
X100250001Y-76093739D01*
X100250000Y-76093755D01*
X100250000Y-76306244D01*
X100250001Y-76306260D01*
X100283241Y-76516123D01*
X100283241Y-76516124D01*
X100348905Y-76718218D01*
X100348906Y-76718221D01*
X100445379Y-76907557D01*
X100484727Y-76961716D01*
X101117036Y-76329406D01*
X101134075Y-76392993D01*
X101199901Y-76507007D01*
X101292993Y-76600099D01*
X101407007Y-76665925D01*
X101470591Y-76682962D01*
X100838281Y-77315271D01*
X100892442Y-77354620D01*
X101009591Y-77414312D01*
X101040657Y-77450687D01*
X101036904Y-77498375D01*
X101009591Y-77525688D01*
X100892444Y-77585378D01*
X100892439Y-77585381D01*
X100838282Y-77624727D01*
X100838281Y-77624727D01*
X101470591Y-78257037D01*
X101407007Y-78274075D01*
X101292993Y-78339901D01*
X101199901Y-78432993D01*
X101134075Y-78547007D01*
X101117037Y-78610591D01*
X100484727Y-77978281D01*
X100484727Y-77978282D01*
X100445381Y-78032439D01*
X100445378Y-78032444D01*
X100348906Y-78221778D01*
X100348905Y-78221781D01*
X100283241Y-78423875D01*
X100283241Y-78423876D01*
X100250001Y-78633739D01*
X100250000Y-78633755D01*
X100250000Y-78846244D01*
X100250001Y-78846260D01*
X100283241Y-79056123D01*
X100283241Y-79056124D01*
X100348905Y-79258218D01*
X100348906Y-79258221D01*
X100445379Y-79447557D01*
X100484727Y-79501716D01*
X101117036Y-78869406D01*
X101134075Y-78932993D01*
X101199901Y-79047007D01*
X101292993Y-79140099D01*
X101407007Y-79205925D01*
X101470591Y-79222962D01*
X100838281Y-79855271D01*
X100892442Y-79894620D01*
X101081778Y-79991093D01*
X101081781Y-79991094D01*
X101283875Y-80056758D01*
X101493739Y-80089998D01*
X101493755Y-80090000D01*
X101706245Y-80090000D01*
X101706260Y-80089998D01*
X101916123Y-80056758D01*
X101916124Y-80056758D01*
X102118218Y-79991094D01*
X102118226Y-79991090D01*
X102307549Y-79894625D01*
X102361716Y-79855270D01*
X101729408Y-79222962D01*
X101792993Y-79205925D01*
X101907007Y-79140099D01*
X102000099Y-79047007D01*
X102065925Y-78932993D01*
X102082962Y-78869408D01*
X102715270Y-79501716D01*
X102754625Y-79447549D01*
X102851090Y-79258226D01*
X102851094Y-79258218D01*
X102916758Y-79056124D01*
X102916758Y-79056123D01*
X102949998Y-78846260D01*
X102950000Y-78846244D01*
X102950000Y-78633755D01*
X102949998Y-78633739D01*
X102916758Y-78423876D01*
X102916758Y-78423875D01*
X102851094Y-78221781D01*
X102851093Y-78221778D01*
X102754620Y-78032442D01*
X102715270Y-77978281D01*
X102082962Y-78610590D01*
X102065925Y-78547007D01*
X102000099Y-78432993D01*
X101907007Y-78339901D01*
X101792993Y-78274075D01*
X101729407Y-78257036D01*
X102361717Y-77624727D01*
X102307557Y-77585379D01*
X102190407Y-77525688D01*
X102159341Y-77489313D01*
X102163094Y-77441625D01*
X102190408Y-77414312D01*
X102307549Y-77354625D01*
X102361716Y-77315270D01*
X101729408Y-76682962D01*
X101792993Y-76665925D01*
X101907007Y-76600099D01*
X102000099Y-76507007D01*
X102065925Y-76392993D01*
X102082962Y-76329408D01*
X102715270Y-76961716D01*
X102754625Y-76907549D01*
X102851090Y-76718226D01*
X102851094Y-76718218D01*
X102916758Y-76516124D01*
X102916758Y-76516123D01*
X102949998Y-76306260D01*
X102950000Y-76306244D01*
X102950000Y-76093755D01*
X102949998Y-76093739D01*
X102916758Y-75883876D01*
X102916758Y-75883875D01*
X102851094Y-75681781D01*
X102851093Y-75681778D01*
X102754620Y-75492442D01*
X102715270Y-75438281D01*
X102082962Y-76070590D01*
X102065925Y-76007007D01*
X102000099Y-75892993D01*
X101907007Y-75799901D01*
X101792993Y-75734075D01*
X101729407Y-75717036D01*
X102361717Y-75084727D01*
X102307557Y-75045379D01*
X102190958Y-74985968D01*
X102159892Y-74949593D01*
X102163645Y-74901905D01*
X102190957Y-74874593D01*
X102307816Y-74815051D01*
X102479792Y-74690104D01*
X102630104Y-74539792D01*
X102755051Y-74367816D01*
X102851557Y-74178412D01*
X102917246Y-73976243D01*
X102950500Y-73766287D01*
X102950500Y-73553713D01*
X102917246Y-73343757D01*
X102851557Y-73141588D01*
X102755051Y-72952184D01*
X102630104Y-72780208D01*
X102630102Y-72780205D01*
X102479794Y-72629897D01*
X102307817Y-72504949D01*
X102232689Y-72466669D01*
X102191508Y-72445687D01*
X102160442Y-72409314D01*
X102164195Y-72361626D01*
X102191508Y-72334312D01*
X102307816Y-72275051D01*
X102479792Y-72150104D01*
X102630104Y-71999792D01*
X102755051Y-71827816D01*
X102851557Y-71638412D01*
X102917246Y-71436243D01*
X102950500Y-71226287D01*
X102950500Y-71013713D01*
X102917246Y-70803757D01*
X102851557Y-70601588D01*
X102755051Y-70412184D01*
X102630104Y-70240208D01*
X102630102Y-70240205D01*
X102479794Y-70089897D01*
X102307817Y-69964949D01*
X102232689Y-69926669D01*
X102191508Y-69905687D01*
X102160442Y-69869314D01*
X102164195Y-69821626D01*
X102191508Y-69794312D01*
X102307816Y-69735051D01*
X102479792Y-69610104D01*
X102630104Y-69459792D01*
X102755051Y-69287816D01*
X102851557Y-69098412D01*
X102917246Y-68896243D01*
X102950500Y-68686287D01*
X102950500Y-68473713D01*
X102917246Y-68263757D01*
X102851557Y-68061588D01*
X102755051Y-67872184D01*
X102630104Y-67700208D01*
X102630102Y-67700205D01*
X102479794Y-67549897D01*
X102307817Y-67424949D01*
X102232689Y-67386669D01*
X102191508Y-67365687D01*
X102160442Y-67329314D01*
X102164195Y-67281626D01*
X102191508Y-67254312D01*
X102307816Y-67195051D01*
X102479792Y-67070104D01*
X102630104Y-66919792D01*
X102755051Y-66747816D01*
X102851557Y-66558412D01*
X102917246Y-66356243D01*
X102950500Y-66146287D01*
X102950500Y-65933713D01*
X102917246Y-65723757D01*
X102851557Y-65521588D01*
X102755051Y-65332184D01*
X102630104Y-65160208D01*
X102630102Y-65160205D01*
X102479794Y-65009897D01*
X102307817Y-64884949D01*
X102232689Y-64846669D01*
X102191508Y-64825687D01*
X102160442Y-64789314D01*
X102164195Y-64741626D01*
X102191508Y-64714312D01*
X102307816Y-64655051D01*
X102479792Y-64530104D01*
X102630104Y-64379792D01*
X102755051Y-64207816D01*
X102851557Y-64018412D01*
X102917246Y-63816243D01*
X102950500Y-63606287D01*
X102950500Y-63393713D01*
X102917246Y-63183757D01*
X102851557Y-62981588D01*
X102755051Y-62792184D01*
X102630104Y-62620208D01*
X102630102Y-62620205D01*
X102479794Y-62469897D01*
X102307817Y-62344949D01*
X102232689Y-62306669D01*
X102191508Y-62285687D01*
X102160442Y-62249314D01*
X102164195Y-62201626D01*
X102191508Y-62174312D01*
X102307816Y-62115051D01*
X102479792Y-61990104D01*
X102630104Y-61839792D01*
X102755051Y-61667816D01*
X102851557Y-61478412D01*
X102917246Y-61276243D01*
X102950500Y-61066287D01*
X102950500Y-60853713D01*
X102917246Y-60643757D01*
X102851557Y-60441588D01*
X102755051Y-60252184D01*
X102630104Y-60080208D01*
X102630102Y-60080205D01*
X102479794Y-59929897D01*
X102307817Y-59804949D01*
X102232689Y-59766669D01*
X102191508Y-59745687D01*
X102160442Y-59709314D01*
X102164195Y-59661626D01*
X102191508Y-59634312D01*
X102307816Y-59575051D01*
X102479792Y-59450104D01*
X102630104Y-59299792D01*
X102755051Y-59127816D01*
X102851557Y-58938412D01*
X102917246Y-58736243D01*
X102950500Y-58526287D01*
X102950500Y-58313713D01*
X102917246Y-58103757D01*
X102851557Y-57901588D01*
X102755051Y-57712184D01*
X102715889Y-57658282D01*
X102630102Y-57540205D01*
X102479794Y-57389897D01*
X102307817Y-57264949D01*
X102192059Y-57205968D01*
X102191508Y-57205687D01*
X102160442Y-57169314D01*
X102164195Y-57121626D01*
X102191508Y-57094312D01*
X102307816Y-57035051D01*
X102479792Y-56910104D01*
X102630104Y-56759792D01*
X102755051Y-56587816D01*
X102851557Y-56398412D01*
X102917246Y-56196243D01*
X102950500Y-55986287D01*
X102950500Y-55773713D01*
X102917246Y-55563757D01*
X102851557Y-55361588D01*
X102755051Y-55172184D01*
X102630104Y-55000208D01*
X102630102Y-55000205D01*
X102479794Y-54849897D01*
X102307817Y-54724949D01*
X102232689Y-54686669D01*
X102191508Y-54665687D01*
X102160442Y-54629314D01*
X102164195Y-54581626D01*
X102191508Y-54554312D01*
X102307816Y-54495051D01*
X102479792Y-54370104D01*
X102630104Y-54219792D01*
X102755051Y-54047816D01*
X102851557Y-53858412D01*
X102917246Y-53656243D01*
X102950500Y-53446287D01*
X102950500Y-53233713D01*
X102917246Y-53023757D01*
X102851557Y-52821588D01*
X102755051Y-52632184D01*
X102755048Y-52632180D01*
X102630102Y-52460205D01*
X102479794Y-52309897D01*
X102307817Y-52184949D01*
X102232689Y-52146669D01*
X102191508Y-52125687D01*
X102160442Y-52089314D01*
X102164195Y-52041626D01*
X102191508Y-52014312D01*
X102307816Y-51955051D01*
X102479792Y-51830104D01*
X102630104Y-51679792D01*
X102755051Y-51507816D01*
X102851557Y-51318412D01*
X102917246Y-51116243D01*
X102950500Y-50906287D01*
X102950500Y-50693713D01*
X102917246Y-50483757D01*
X102851557Y-50281588D01*
X102755051Y-50092184D01*
X102755048Y-50092180D01*
X102630102Y-49920205D01*
X102479794Y-49769897D01*
X102307817Y-49644949D01*
X102232689Y-49606669D01*
X102191508Y-49585687D01*
X102160442Y-49549314D01*
X102164195Y-49501626D01*
X102191508Y-49474312D01*
X102307816Y-49415051D01*
X102479792Y-49290104D01*
X102630104Y-49139792D01*
X102755051Y-48967816D01*
X102851557Y-48778412D01*
X102917246Y-48576243D01*
X102950500Y-48366287D01*
X102950500Y-48153713D01*
X102917246Y-47943757D01*
X102851557Y-47741588D01*
X102755051Y-47552184D01*
X102755048Y-47552180D01*
X102630102Y-47380205D01*
X102479794Y-47229897D01*
X102307817Y-47104949D01*
X102232689Y-47066669D01*
X102191508Y-47045687D01*
X102160442Y-47009314D01*
X102164195Y-46961626D01*
X102191508Y-46934312D01*
X102307816Y-46875051D01*
X102479792Y-46750104D01*
X102630104Y-46599792D01*
X102755051Y-46427816D01*
X102851557Y-46238412D01*
X102917246Y-46036243D01*
X102950500Y-45826287D01*
X102950500Y-45613713D01*
X102917246Y-45403757D01*
X102851557Y-45201588D01*
X102755051Y-45012184D01*
X102755048Y-45012180D01*
X102630102Y-44840205D01*
X102479794Y-44689897D01*
X102307817Y-44564949D01*
X102232689Y-44526669D01*
X102191508Y-44505687D01*
X102160442Y-44469314D01*
X102164195Y-44421626D01*
X102191508Y-44394312D01*
X102307816Y-44335051D01*
X102479792Y-44210104D01*
X102630104Y-44059792D01*
X102755051Y-43887816D01*
X102851557Y-43698412D01*
X102917246Y-43496243D01*
X102950500Y-43286287D01*
X102950500Y-43073713D01*
X102917246Y-42863757D01*
X102851557Y-42661588D01*
X102755051Y-42472184D01*
X102755048Y-42472180D01*
X102630102Y-42300205D01*
X102479794Y-42149897D01*
X102307817Y-42024949D01*
X102232689Y-41986669D01*
X102191508Y-41965687D01*
X102160442Y-41929314D01*
X102164195Y-41881626D01*
X102191508Y-41854312D01*
X102307816Y-41795051D01*
X102479792Y-41670104D01*
X102630104Y-41519792D01*
X102755051Y-41347816D01*
X102851557Y-41158412D01*
X102917246Y-40956243D01*
X102950500Y-40746287D01*
X102950500Y-40533713D01*
X102917246Y-40323757D01*
X102851557Y-40121588D01*
X102755051Y-39932184D01*
X102755048Y-39932180D01*
X102630102Y-39760205D01*
X102479794Y-39609897D01*
X102307817Y-39484949D01*
X102232689Y-39446669D01*
X102191508Y-39425687D01*
X102160442Y-39389314D01*
X102164195Y-39341626D01*
X102191508Y-39314312D01*
X102307816Y-39255051D01*
X102479792Y-39130104D01*
X102630104Y-38979792D01*
X102755051Y-38807816D01*
X102851557Y-38618412D01*
X102917246Y-38416243D01*
X102950500Y-38206287D01*
X102950500Y-37993713D01*
X102917246Y-37783757D01*
X102851557Y-37581588D01*
X102755051Y-37392184D01*
X102755048Y-37392180D01*
X102630102Y-37220205D01*
X102479794Y-37069897D01*
X102307817Y-36944949D01*
X102232689Y-36906669D01*
X102191508Y-36885687D01*
X102160442Y-36849314D01*
X102164195Y-36801626D01*
X102191508Y-36774312D01*
X102307816Y-36715051D01*
X102479792Y-36590104D01*
X102630104Y-36439792D01*
X102755051Y-36267816D01*
X102851557Y-36078412D01*
X102917246Y-35876243D01*
X102950500Y-35666287D01*
X102950500Y-35453713D01*
X102917246Y-35243757D01*
X102851557Y-35041588D01*
X102755051Y-34852184D01*
X102755048Y-34852180D01*
X102630102Y-34680205D01*
X102479794Y-34529897D01*
X102307817Y-34404949D01*
X102232689Y-34366669D01*
X102191508Y-34345687D01*
X102160442Y-34309314D01*
X102164195Y-34261626D01*
X102191508Y-34234312D01*
X102307816Y-34175051D01*
X102479792Y-34050104D01*
X102630104Y-33899792D01*
X102755051Y-33727816D01*
X102851557Y-33538412D01*
X102917246Y-33336243D01*
X102950500Y-33126287D01*
X102950500Y-32913713D01*
X102917246Y-32703757D01*
X102851557Y-32501588D01*
X102755051Y-32312184D01*
X102755048Y-32312180D01*
X102630102Y-32140205D01*
X102479794Y-31989897D01*
X102307817Y-31864949D01*
X102232689Y-31826669D01*
X102191508Y-31805687D01*
X102160442Y-31769314D01*
X102164195Y-31721626D01*
X102191508Y-31694312D01*
X102307816Y-31635051D01*
X102479792Y-31510104D01*
X102630104Y-31359792D01*
X102755051Y-31187816D01*
X102851557Y-30998412D01*
X102917246Y-30796243D01*
X102950500Y-30586287D01*
X102950500Y-30373713D01*
X102917246Y-30163757D01*
X102851557Y-29961588D01*
X102755051Y-29772184D01*
X102630104Y-29600208D01*
X102630102Y-29600205D01*
X102479794Y-29449897D01*
X102307817Y-29324949D01*
X102232689Y-29286669D01*
X102191508Y-29265687D01*
X102160442Y-29229314D01*
X102164195Y-29181626D01*
X102191508Y-29154312D01*
X102307816Y-29095051D01*
X102479792Y-28970104D01*
X102630104Y-28819792D01*
X102755051Y-28647816D01*
X102851557Y-28458412D01*
X102917246Y-28256243D01*
X102950500Y-28046287D01*
X102950500Y-27833713D01*
X102917246Y-27623757D01*
X102851557Y-27421588D01*
X102755051Y-27232184D01*
X102630104Y-27060208D01*
X102630102Y-27060205D01*
X102479799Y-26909902D01*
X102479795Y-26909899D01*
X102479792Y-26909896D01*
X102415331Y-26863062D01*
X102390338Y-26822277D01*
X102401505Y-26775763D01*
X102442292Y-26750769D01*
X102452069Y-26750000D01*
X102497822Y-26750000D01*
X102497835Y-26749999D01*
X102557377Y-26743597D01*
X102692091Y-26693352D01*
X102692094Y-26693350D01*
X102807186Y-26607191D01*
X102807191Y-26607186D01*
X102893350Y-26492094D01*
X102893352Y-26492091D01*
X102943597Y-26357377D01*
X102949999Y-26297835D01*
X102950000Y-26297822D01*
X102950000Y-25650000D01*
X102033012Y-25650000D01*
X102065925Y-25592993D01*
X102100000Y-25465826D01*
X102100000Y-25334174D01*
X102065925Y-25207007D01*
X102033012Y-25150000D01*
X102950000Y-25150000D01*
X102950000Y-24502177D01*
X102949999Y-24502164D01*
X102943597Y-24442622D01*
X102893352Y-24307908D01*
X102893350Y-24307905D01*
X102807191Y-24192813D01*
X102807186Y-24192808D01*
X102692094Y-24106649D01*
X102692091Y-24106647D01*
X102557377Y-24056402D01*
X102497835Y-24050000D01*
X101850000Y-24050000D01*
X101850000Y-24966988D01*
X101792993Y-24934075D01*
X101665826Y-24900000D01*
X101534174Y-24900000D01*
X101407007Y-24934075D01*
X101350000Y-24966988D01*
X101350000Y-24050000D01*
X100702164Y-24050000D01*
X100642622Y-24056402D01*
X100507908Y-24106647D01*
X100507905Y-24106649D01*
X100392813Y-24192808D01*
X100392808Y-24192813D01*
X100306649Y-24307905D01*
X100306647Y-24307908D01*
X100256402Y-24442622D01*
X100250000Y-24502164D01*
X100250000Y-25150000D01*
X101166988Y-25150000D01*
X101134075Y-25207007D01*
X101100000Y-25334174D01*
X101100000Y-25465826D01*
X101134075Y-25592993D01*
X101166988Y-25650000D01*
X100250000Y-25650000D01*
X100250000Y-26297835D01*
X100256402Y-26357377D01*
X100306647Y-26492091D01*
X100306649Y-26492094D01*
X100392808Y-26607186D01*
X100392813Y-26607191D01*
X100507905Y-26693350D01*
X100507908Y-26693352D01*
X100642622Y-26743597D01*
X100702164Y-26749999D01*
X100702178Y-26750000D01*
X100747931Y-26750000D01*
X100792125Y-26768306D01*
X100810431Y-26812500D01*
X100792125Y-26856694D01*
X100784672Y-26863059D01*
X100720208Y-26909896D01*
X100720200Y-26909902D01*
X100569897Y-27060205D01*
X100444949Y-27232182D01*
X100348446Y-27421581D01*
X100348442Y-27421589D01*
X100282753Y-27623758D01*
X100282753Y-27623759D01*
X100249501Y-27833699D01*
X100249500Y-27833715D01*
X77550500Y-27833715D01*
X77550498Y-27833699D01*
X77530039Y-27704531D01*
X77517246Y-27623757D01*
X77451557Y-27421588D01*
X77355051Y-27232184D01*
X77230104Y-27060208D01*
X77230102Y-27060205D01*
X77226806Y-27056909D01*
X77208500Y-27012715D01*
X77208500Y-26768457D01*
X77226806Y-26724263D01*
X77249156Y-26709898D01*
X77292331Y-26693796D01*
X77407546Y-26607546D01*
X77428987Y-26578904D01*
X77493793Y-26492336D01*
X77493796Y-26492331D01*
X77544090Y-26357486D01*
X77544090Y-26357485D01*
X77544091Y-26357483D01*
X77550500Y-26297873D01*
X77550499Y-24502128D01*
X77544091Y-24442517D01*
X77541998Y-24436906D01*
X77493796Y-24307668D01*
X77493793Y-24307663D01*
X77407548Y-24192456D01*
X77407543Y-24192451D01*
X77292336Y-24106206D01*
X77292331Y-24106203D01*
X77157485Y-24055909D01*
X77157487Y-24055909D01*
X77097873Y-24049500D01*
X75302135Y-24049500D01*
X75302118Y-24049501D01*
X75242513Y-24055909D01*
X75107668Y-24106203D01*
X75107663Y-24106206D01*
X74992456Y-24192451D01*
X74992451Y-24192456D01*
X74906206Y-24307663D01*
X74906204Y-24307666D01*
X74871059Y-24401896D01*
X74838463Y-24436906D01*
X74790658Y-24438613D01*
X74755648Y-24406017D01*
X74750000Y-24380054D01*
X74750000Y-23931000D01*
X74768306Y-23886806D01*
X74812500Y-23868500D01*
X103037500Y-23868500D01*
X103081694Y-23886806D01*
G37*
%TD.AperFunction*%
%TA.AperFunction,Conductor*%
G36*
X74856694Y-76428010D02*
G01*
X74874230Y-76462427D01*
X74882753Y-76516240D01*
X74882753Y-76516241D01*
X74948442Y-76718410D01*
X74948446Y-76718418D01*
X75044949Y-76907817D01*
X75169897Y-77079794D01*
X75320205Y-77230102D01*
X75492182Y-77355050D01*
X75609040Y-77414592D01*
X75640107Y-77450966D01*
X75636354Y-77498654D01*
X75609041Y-77525968D01*
X75492444Y-77585378D01*
X75492439Y-77585381D01*
X75438282Y-77624727D01*
X75438281Y-77624727D01*
X76070591Y-78257037D01*
X76007007Y-78274075D01*
X75892993Y-78339901D01*
X75799901Y-78432993D01*
X75734075Y-78547007D01*
X75717037Y-78610591D01*
X75084727Y-77978281D01*
X75084727Y-77978282D01*
X75045381Y-78032439D01*
X75045378Y-78032444D01*
X74948906Y-78221778D01*
X74948905Y-78221781D01*
X74883241Y-78423875D01*
X74883241Y-78423876D01*
X74874230Y-78480770D01*
X74849236Y-78521557D01*
X74802723Y-78532723D01*
X74761936Y-78507729D01*
X74750000Y-78470993D01*
X74750000Y-76472204D01*
X74768306Y-76428010D01*
X74812500Y-76409704D01*
X74856694Y-76428010D01*
G37*
%TD.AperFunction*%
%TA.AperFunction,Conductor*%
G36*
X77632309Y-53611782D02*
G01*
X77633714Y-53613798D01*
X77726646Y-53752880D01*
X79911194Y-55937428D01*
X79929500Y-55981622D01*
X79929500Y-55986284D01*
X79929501Y-55986300D01*
X79962753Y-56196240D01*
X79962753Y-56196241D01*
X80028442Y-56398410D01*
X80028446Y-56398418D01*
X80124949Y-56587817D01*
X80249897Y-56759794D01*
X80400205Y-56910102D01*
X80572182Y-57035050D01*
X80689040Y-57094592D01*
X80720107Y-57130966D01*
X80716354Y-57178654D01*
X80689041Y-57205968D01*
X80572444Y-57265378D01*
X80572439Y-57265381D01*
X80518282Y-57304727D01*
X80518281Y-57304727D01*
X81150591Y-57937037D01*
X81087007Y-57954075D01*
X80972993Y-58019901D01*
X80879901Y-58112993D01*
X80814075Y-58227007D01*
X80797037Y-58290591D01*
X80164727Y-57658281D01*
X80164727Y-57658282D01*
X80125381Y-57712439D01*
X80125378Y-57712444D01*
X80028906Y-57901778D01*
X80028905Y-57901781D01*
X79963241Y-58103875D01*
X79963241Y-58103876D01*
X79930001Y-58313739D01*
X79930000Y-58313755D01*
X79930000Y-58526244D01*
X79930001Y-58526260D01*
X79963241Y-58736123D01*
X79963241Y-58736124D01*
X80028905Y-58938218D01*
X80028906Y-58938221D01*
X80125379Y-59127557D01*
X80164727Y-59181716D01*
X80797036Y-58549406D01*
X80814075Y-58612993D01*
X80879901Y-58727007D01*
X80972993Y-58820099D01*
X81087007Y-58885925D01*
X81150591Y-58902962D01*
X80518280Y-59535272D01*
X80518818Y-59542098D01*
X80504036Y-59587592D01*
X80461413Y-59609307D01*
X80456512Y-59609500D01*
X80382135Y-59609500D01*
X80382118Y-59609501D01*
X80322513Y-59615909D01*
X80187668Y-59666203D01*
X80187663Y-59666206D01*
X80072456Y-59752451D01*
X80072451Y-59752456D01*
X79986206Y-59867663D01*
X79986203Y-59867668D01*
X79935909Y-60002513D01*
X79929500Y-60062119D01*
X79929500Y-61857864D01*
X79929501Y-61857881D01*
X79935909Y-61917486D01*
X79986203Y-62052331D01*
X79986206Y-62052336D01*
X80072451Y-62167543D01*
X80072452Y-62167544D01*
X80072453Y-62167544D01*
X80072454Y-62167546D01*
X80187669Y-62253796D01*
X80230842Y-62269898D01*
X80265852Y-62302493D01*
X80271500Y-62328457D01*
X80271500Y-70676377D01*
X80253194Y-70720571D01*
X77617017Y-73356747D01*
X77572823Y-73375053D01*
X77528629Y-73356747D01*
X77513383Y-73331869D01*
X77451557Y-73141588D01*
X77355051Y-72952184D01*
X77230104Y-72780208D01*
X77230102Y-72780205D01*
X77079794Y-72629897D01*
X76907817Y-72504949D01*
X76832689Y-72466669D01*
X76791508Y-72445687D01*
X76760442Y-72409314D01*
X76764195Y-72361626D01*
X76791508Y-72334312D01*
X76907816Y-72275051D01*
X77079792Y-72150104D01*
X77230104Y-71999792D01*
X77355051Y-71827816D01*
X77451557Y-71638412D01*
X77517246Y-71436243D01*
X77550500Y-71226287D01*
X77550500Y-71013713D01*
X77517246Y-70803757D01*
X77451557Y-70601588D01*
X77355051Y-70412184D01*
X77230104Y-70240208D01*
X77230102Y-70240205D01*
X77079794Y-70089897D01*
X76907817Y-69964949D01*
X76832689Y-69926669D01*
X76791508Y-69905687D01*
X76760442Y-69869314D01*
X76764195Y-69821626D01*
X76791508Y-69794312D01*
X76907816Y-69735051D01*
X77079792Y-69610104D01*
X77230104Y-69459792D01*
X77355051Y-69287816D01*
X77451557Y-69098412D01*
X77517246Y-68896243D01*
X77550500Y-68686287D01*
X77550500Y-68473713D01*
X77517246Y-68263757D01*
X77451557Y-68061588D01*
X77355051Y-67872184D01*
X77230104Y-67700208D01*
X77230102Y-67700205D01*
X77079794Y-67549897D01*
X76907817Y-67424949D01*
X76832689Y-67386669D01*
X76791508Y-67365687D01*
X76760442Y-67329314D01*
X76764195Y-67281626D01*
X76791508Y-67254312D01*
X76907816Y-67195051D01*
X77079792Y-67070104D01*
X77230104Y-66919792D01*
X77355051Y-66747816D01*
X77451557Y-66558412D01*
X77517246Y-66356243D01*
X77550500Y-66146287D01*
X77550500Y-65933713D01*
X77517246Y-65723757D01*
X77451557Y-65521588D01*
X77355051Y-65332184D01*
X77230104Y-65160208D01*
X77230102Y-65160205D01*
X77079794Y-65009897D01*
X76907817Y-64884949D01*
X76832689Y-64846669D01*
X76791508Y-64825687D01*
X76760442Y-64789314D01*
X76764195Y-64741626D01*
X76791508Y-64714312D01*
X76907816Y-64655051D01*
X77079792Y-64530104D01*
X77230104Y-64379792D01*
X77355051Y-64207816D01*
X77451557Y-64018412D01*
X77517246Y-63816243D01*
X77550500Y-63606287D01*
X77550500Y-63393713D01*
X77517246Y-63183757D01*
X77451557Y-62981588D01*
X77355051Y-62792184D01*
X77230104Y-62620208D01*
X77230102Y-62620205D01*
X77079794Y-62469897D01*
X76907817Y-62344949D01*
X76832689Y-62306669D01*
X76791508Y-62285687D01*
X76760442Y-62249314D01*
X76764195Y-62201626D01*
X76791508Y-62174312D01*
X76907816Y-62115051D01*
X77079792Y-61990104D01*
X77230104Y-61839792D01*
X77355051Y-61667816D01*
X77451557Y-61478412D01*
X77517246Y-61276243D01*
X77550500Y-61066287D01*
X77550500Y-60853713D01*
X77517246Y-60643757D01*
X77451557Y-60441588D01*
X77355051Y-60252184D01*
X77230104Y-60080208D01*
X77230102Y-60080205D01*
X77079794Y-59929897D01*
X76907817Y-59804949D01*
X76832689Y-59766669D01*
X76791508Y-59745687D01*
X76760442Y-59709314D01*
X76764195Y-59661626D01*
X76791508Y-59634312D01*
X76907816Y-59575051D01*
X77079792Y-59450104D01*
X77230104Y-59299792D01*
X77355051Y-59127816D01*
X77451557Y-58938412D01*
X77517246Y-58736243D01*
X77550500Y-58526287D01*
X77550500Y-58313713D01*
X77517246Y-58103757D01*
X77451557Y-57901588D01*
X77355051Y-57712184D01*
X77315889Y-57658282D01*
X77230102Y-57540205D01*
X77079794Y-57389897D01*
X76907817Y-57264949D01*
X76792059Y-57205968D01*
X76791508Y-57205687D01*
X76760442Y-57169314D01*
X76764195Y-57121626D01*
X76791508Y-57094312D01*
X76907816Y-57035051D01*
X77079792Y-56910104D01*
X77230104Y-56759792D01*
X77355051Y-56587816D01*
X77451557Y-56398412D01*
X77517246Y-56196243D01*
X77550500Y-55986287D01*
X77550500Y-55773713D01*
X77517246Y-55563757D01*
X77451557Y-55361588D01*
X77355051Y-55172184D01*
X77230104Y-55000208D01*
X77230102Y-55000205D01*
X77079794Y-54849897D01*
X76907817Y-54724949D01*
X76832689Y-54686669D01*
X76791508Y-54665687D01*
X76760442Y-54629314D01*
X76764195Y-54581626D01*
X76791508Y-54554312D01*
X76907816Y-54495051D01*
X77079792Y-54370104D01*
X77230104Y-54219792D01*
X77355051Y-54047816D01*
X77451557Y-53858412D01*
X77517246Y-53656243D01*
X77520017Y-53638743D01*
X77545008Y-53597959D01*
X77591522Y-53586790D01*
X77632309Y-53611782D01*
G37*
%TD.AperFunction*%
%TD*%
M02*
