%TF.GenerationSoftware,KiCad,Pcbnew,10.0.5-10.0.5~ubuntu24.04.1*%
%TF.CreationDate,2026-08-02T15:20:56+02:00*%
%TF.ProjectId,atoms3lite_adapter,61746f6d-7333-46c6-9974-655f61646170,rev?*%
%TF.SameCoordinates,Original*%
%TF.FileFunction,Soldermask,Top*%
%TF.FilePolarity,Negative*%
%FSLAX46Y46*%
G04 Gerber Fmt 4.6, Leading zero omitted, Abs format (unit mm)*
G04 Created by KiCad (PCBNEW 10.0.5-10.0.5~ubuntu24.04.1) date 2026-08-02 15:20:56*
%MOMM*%
%LPD*%
G01*
G04 APERTURE LIST*
G04 Aperture macros list*
%AMRoundRect*
0 Rectangle with rounded corners*
0 $1 Rounding radius*
0 $2 $3 $4 $5 $6 $7 $8 $9 X,Y pos of 4 corners*
0 Add a 4 corners polygon primitive as box body*
4,1,4,$2,$3,$4,$5,$6,$7,$8,$9,$2,$3,0*
0 Add four circle primitives for the rounded corners*
1,1,$1+$1,$2,$3*
1,1,$1+$1,$4,$5*
1,1,$1+$1,$6,$7*
1,1,$1+$1,$8,$9*
0 Add four rect primitives between the rounded corners*
20,1,$1+$1,$2,$3,$4,$5,0*
20,1,$1+$1,$4,$5,$6,$7,0*
20,1,$1+$1,$6,$7,$8,$9,0*
20,1,$1+$1,$8,$9,$2,$3,0*%
G04 Aperture macros list end*
%ADD10RoundRect,0.650000X0.650000X0.650000X-0.650000X0.650000X-0.650000X-0.650000X0.650000X-0.650000X0*%
%ADD11C,2.600000*%
%ADD12R,1.700000X1.700000*%
%ADD13C,1.700000*%
G04 APERTURE END LIST*
D10*
%TO.C,TP1*%
X91440000Y-47244000D03*
D11*
X86360000Y-47244000D03*
%TD*%
D12*
%TO.C,J3*%
X96520000Y-53340000D03*
D13*
X96520000Y-55880000D03*
X96520000Y-58420000D03*
X96520000Y-60960000D03*
X96520000Y-63500000D03*
%TD*%
D12*
%TO.C,J4*%
X81280000Y-55880000D03*
D13*
X81280000Y-58420000D03*
X81280000Y-60960000D03*
X81280000Y-63500000D03*
%TD*%
D12*
%TO.C,J1*%
X76200000Y-25400000D03*
D13*
X76200000Y-27940000D03*
X76200000Y-30480000D03*
X76200000Y-33020000D03*
X76200000Y-35560000D03*
X76200000Y-38100000D03*
X76200000Y-40640000D03*
X76200000Y-43180000D03*
X76200000Y-45720000D03*
X76200000Y-48260000D03*
X76200000Y-50800000D03*
X76200000Y-53340000D03*
X76200000Y-55880000D03*
X76200000Y-58420000D03*
X76200000Y-60960000D03*
X76200000Y-63500000D03*
X76200000Y-66040000D03*
X76200000Y-68580000D03*
X76200000Y-71120000D03*
X76200000Y-73660000D03*
X76200000Y-76200000D03*
X76200000Y-78740000D03*
%TD*%
D12*
%TO.C,J2*%
X101600000Y-25400000D03*
D13*
X101600000Y-27940000D03*
X101600000Y-30480000D03*
X101600000Y-33020000D03*
X101600000Y-35560000D03*
X101600000Y-38100000D03*
X101600000Y-40640000D03*
X101600000Y-43180000D03*
X101600000Y-45720000D03*
X101600000Y-48260000D03*
X101600000Y-50800000D03*
X101600000Y-53340000D03*
X101600000Y-55880000D03*
X101600000Y-58420000D03*
X101600000Y-60960000D03*
X101600000Y-63500000D03*
X101600000Y-66040000D03*
X101600000Y-68580000D03*
X101600000Y-71120000D03*
X101600000Y-73660000D03*
X101600000Y-76200000D03*
X101600000Y-78740000D03*
%TD*%
M02*
