%TF.GenerationSoftware,KiCad,Pcbnew,10.0.5-10.0.5~ubuntu24.04.1*%
%TF.CreationDate,2026-08-25T15:10:46+02:00*%
%TF.ProjectId,atoms3lite_adapter,61746f6d-7333-46c6-9974-655f61646170,rev?*%
%TF.SameCoordinates,Original*%
%TF.FileFunction,Copper,L2,Bot*%
%TF.FilePolarity,Positive*%
%FSLAX46Y46*%
G04 Gerber Fmt 4.6, Leading zero omitted, Abs format (unit mm)*
G04 Created by KiCad (PCBNEW 10.0.5-10.0.5~ubuntu24.04.1) date 2026-08-25 15:10:46*
%MOMM*%
%LPD*%
G01*
G04 APERTURE LIST*
G04 Aperture macros list*
%AMRoundRect*
0 Rectangle with rounded corners*
0 $1 Rounding radius*
0 $2 $3 $4 $5 $6 $7 $8 $9 X,Y pos of 4 corners*
0 Add a 4 corners polygon primitive as box body*
4,1,4,$2,$3,$4,$5,$6,$7,$8,$9,$2,$3,0*
0 Add four circle primitives for the rounded corners*
1,1,$1+$1,$2,$3*
1,1,$1+$1,$4,$5*
1,1,$1+$1,$6,$7*
1,1,$1+$1,$8,$9*
0 Add four rect primitives between the rounded corners*
20,1,$1+$1,$2,$3,$4,$5,0*
20,1,$1+$1,$4,$5,$6,$7,0*
20,1,$1+$1,$6,$7,$8,$9,0*
20,1,$1+$1,$8,$9,$2,$3,0*%
G04 Aperture macros list end*
%TA.AperFunction,ComponentPad*%
%ADD10RoundRect,0.650000X0.650000X0.650000X-0.650000X0.650000X-0.650000X-0.650000X0.650000X-0.650000X0*%
%TD*%
%TA.AperFunction,ComponentPad*%
%ADD11C,2.600000*%
%TD*%
%TA.AperFunction,ComponentPad*%
%ADD12R,1.700000X1.700000*%
%TD*%
%TA.AperFunction,ComponentPad*%
%ADD13C,1.700000*%
%TD*%
%TA.AperFunction,Conductor*%
%ADD14C,0.508000*%
%TD*%
%TA.AperFunction,Conductor*%
%ADD15C,0.762000*%
%TD*%
G04 APERTURE END LIST*
D10*
%TO.P,TP1,1,1_1*%
%TO.N,/G1*%
X91440000Y-47244000D03*
D11*
%TO.P,TP1,2,2_2*%
%TO.N,/G2*%
X86360000Y-47244000D03*
%TD*%
D12*
%TO.P,J3,1,Pin_1_1*%
%TO.N,+3.3V*%
X96520000Y-53340000D03*
D13*
%TO.P,J3,2,Pin_2_2*%
%TO.N,/G5*%
X96520000Y-55880000D03*
%TO.P,J3,3,Pin_3_3*%
%TO.N,/G6*%
X96520000Y-58420000D03*
%TO.P,J3,4,Pin_4_4*%
%TO.N,/G7*%
X96520000Y-60960000D03*
%TO.P,J3,5,Pin_5_5*%
%TO.N,/G8*%
X96520000Y-63500000D03*
%TD*%
D12*
%TO.P,J4,1,Pin_1_1*%
%TO.N,/G39*%
X81280000Y-55880000D03*
D13*
%TO.P,J4,2,Pin_2_2*%
%TO.N,/G38*%
X81280000Y-58420000D03*
%TO.P,J4,3,Pin_3_3*%
%TO.N,+5V*%
X81280000Y-60960000D03*
%TO.P,J4,4,Pin_4_4*%
%TO.N,GND*%
X81280000Y-63500000D03*
%TD*%
D12*
%TO.P,J1,1,Pin_1_1*%
%TO.N,+3.3V*%
X76200000Y-25400000D03*
D13*
%TO.P,J1,2,Pin_2_2*%
X76200000Y-27940000D03*
%TO.P,J1,3,Pin_3_3*%
%TO.N,/RST*%
X76200000Y-30480000D03*
%TO.P,J1,4,Pin_4_4*%
%TO.N,/IO4*%
X76200000Y-33020000D03*
%TO.P,J1,5,Pin_5_5*%
%TO.N,/IO5*%
X76200000Y-35560000D03*
%TO.P,J1,6,Pin_6_6*%
%TO.N,/IO6*%
X76200000Y-38100000D03*
%TO.P,J1,7,Pin_7_7*%
%TO.N,/IO7*%
X76200000Y-40640000D03*
%TO.P,J1,8,Pin_8_8*%
%TO.N,/G1*%
X76200000Y-43180000D03*
%TO.P,J1,9,Pin_9_9*%
%TO.N,/G2*%
X76200000Y-45720000D03*
%TO.P,J1,10,Pin_10_10*%
%TO.N,/G5*%
X76200000Y-48260000D03*
%TO.P,J1,11,Pin_11_11*%
%TO.N,/G6*%
X76200000Y-50800000D03*
%TO.P,J1,12,Pin_12_12*%
%TO.N,/IO8*%
X76200000Y-53340000D03*
%TO.P,J1,13,Pin_13_13*%
%TO.N,/IO3*%
X76200000Y-55880000D03*
%TO.P,J1,14,Pin_14_14*%
%TO.N,/IO46*%
X76200000Y-58420000D03*
%TO.P,J1,15,Pin_15_15*%
%TO.N,/IO9*%
X76200000Y-60960000D03*
%TO.P,J1,16,Pin_16_16*%
%TO.N,/G39*%
X76200000Y-63500000D03*
%TO.P,J1,17,Pin_17_17*%
%TO.N,/G38*%
X76200000Y-66040000D03*
%TO.P,J1,18,Pin_18_18*%
%TO.N,/G7*%
X76200000Y-68580000D03*
%TO.P,J1,19,Pin_19_19*%
%TO.N,/G8*%
X76200000Y-71120000D03*
%TO.P,J1,20,Pin_20_20*%
%TO.N,/IO14*%
X76200000Y-73660000D03*
%TO.P,J1,21,Pin_21_21*%
%TO.N,+5V*%
X76200000Y-76200000D03*
%TO.P,J1,22,Pin_22_22*%
%TO.N,GND*%
X76200000Y-78740000D03*
%TD*%
D12*
%TO.P,J2,1,Pin_1_1*%
%TO.N,GND*%
X101600000Y-25400000D03*
D13*
%TO.P,J2,2,Pin_2_2*%
%TO.N,/IO43*%
X101600000Y-27940000D03*
%TO.P,J2,3,Pin_3_3*%
%TO.N,/IO44*%
X101600000Y-30480000D03*
%TO.P,J2,4,Pin_4_4*%
%TO.N,/IO1*%
X101600000Y-33020000D03*
%TO.P,J2,5,Pin_5_5*%
%TO.N,/IO2*%
X101600000Y-35560000D03*
%TO.P,J2,6,Pin_6_6*%
%TO.N,/IO42*%
X101600000Y-38100000D03*
%TO.P,J2,7,Pin_7_7*%
%TO.N,/IO41*%
X101600000Y-40640000D03*
%TO.P,J2,8,Pin_8_8*%
%TO.N,/IO40*%
X101600000Y-43180000D03*
%TO.P,J2,9,Pin_9_9*%
%TO.N,/IO39*%
X101600000Y-45720000D03*
%TO.P,J2,10,Pin_10_10*%
%TO.N,/IO38*%
X101600000Y-48260000D03*
%TO.P,J2,11,Pin_11_11*%
%TO.N,/IO37*%
X101600000Y-50800000D03*
%TO.P,J2,12,Pin_12_12*%
%TO.N,/IO36*%
X101600000Y-53340000D03*
%TO.P,J2,13,Pin_13_13*%
%TO.N,/IO35*%
X101600000Y-55880000D03*
%TO.P,J2,14,Pin_14_14*%
%TO.N,/IO0*%
X101600000Y-58420000D03*
%TO.P,J2,15,Pin_15_15*%
%TO.N,/IO45*%
X101600000Y-60960000D03*
%TO.P,J2,16,Pin_16_16*%
%TO.N,/IO48*%
X101600000Y-63500000D03*
%TO.P,J2,17,Pin_17_17*%
%TO.N,/IO47*%
X101600000Y-66040000D03*
%TO.P,J2,18,Pin_18_18*%
%TO.N,/IO21*%
X101600000Y-68580000D03*
%TO.P,J2,19,Pin_19_19*%
%TO.N,/IO20*%
X101600000Y-71120000D03*
%TO.P,J2,20,Pin_20_20*%
%TO.N,/IO19*%
X101600000Y-73660000D03*
%TO.P,J2,21,Pin_21_21*%
%TO.N,GND*%
X101600000Y-76200000D03*
%TO.P,J2,22,Pin_22_22*%
X101600000Y-78740000D03*
%TD*%
%TO.N,/G1*%
D14*
X91440000Y-47244000D02*
X89154000Y-47244000D01*
X85090000Y-43180000D02*
X76200000Y-43180000D01*
X89154000Y-47244000D02*
X85090000Y-43180000D01*
%TO.N,/G2*%
X82550000Y-45720000D02*
X76200000Y-45720000D01*
X84074000Y-47244000D02*
X82550000Y-45720000D01*
X86360000Y-47244000D02*
X84074000Y-47244000D01*
%TO.N,+3.3V*%
D15*
X76200000Y-25400000D02*
X76200000Y-27940000D01*
X96520000Y-53340000D02*
X96520000Y-40132000D01*
X96520000Y-40132000D02*
X84328000Y-27940000D01*
X84328000Y-27940000D02*
X76200000Y-27940000D01*
%TO.N,/G5*%
D14*
X96520000Y-55880000D02*
X90170000Y-55880000D01*
X90170000Y-55880000D02*
X82550000Y-48260000D01*
X82550000Y-48260000D02*
X76200000Y-48260000D01*
%TO.N,/G6*%
X82042000Y-50800000D02*
X76200000Y-50800000D01*
X96520000Y-58420000D02*
X89662000Y-58420000D01*
X89662000Y-58420000D02*
X82042000Y-50800000D01*
%TO.N,/G7*%
X96520000Y-60960000D02*
X90170000Y-60960000D01*
X90170000Y-60960000D02*
X82550000Y-68580000D01*
X82550000Y-68580000D02*
X76200000Y-68580000D01*
%TO.N,/G8*%
X95504000Y-64516000D02*
X91440000Y-64516000D01*
X84836000Y-71120000D02*
X76200000Y-71120000D01*
X96520000Y-63500000D02*
X95504000Y-64516000D01*
X91440000Y-64516000D02*
X84836000Y-71120000D01*
%TO.N,/G39*%
X76200000Y-63500000D02*
X76300000Y-63400000D01*
X81280000Y-55880000D02*
X78232000Y-58166000D01*
X78232000Y-61468000D02*
X76200000Y-63500000D01*
X78232000Y-58166000D02*
X78232000Y-61468000D01*
%TO.N,/G38*%
X81280000Y-58420000D02*
X80010000Y-58420000D01*
X79502000Y-62738000D02*
X76200000Y-66040000D01*
X80010000Y-58420000D02*
X79502000Y-58928000D01*
X79502000Y-58928000D02*
X79502000Y-62738000D01*
%TD*%
M02*
