%TF.GenerationSoftware,KiCad,Pcbnew,10.0.5-10.0.5~ubuntu24.04.1*%
%TF.CreationDate,2026-08-15T15:03:07+02:00*%
%TF.ProjectId,sticks3_adapter,73746963-6b73-4335-9f61-646170746572,rev?*%
%TF.SameCoordinates,Original*%
%TF.FileFunction,Copper,L1,Top*%
%TF.FilePolarity,Positive*%
%FSLAX46Y46*%
G04 Gerber Fmt 4.6, Leading zero omitted, Abs format (unit mm)*
G04 Created by KiCad (PCBNEW 10.0.5-10.0.5~ubuntu24.04.1) date 2026-08-15 15:03:07*
%MOMM*%
%LPD*%
G01*
G04 APERTURE LIST*
%TA.AperFunction,ComponentPad*%
%ADD10R,1.700000X1.700000*%
%TD*%
%TA.AperFunction,ComponentPad*%
%ADD11C,1.700000*%
%TD*%
%TA.AperFunction,ViaPad*%
%ADD12C,0.600000*%
%TD*%
%TA.AperFunction,Conductor*%
%ADD13C,0.762000*%
%TD*%
G04 APERTURE END LIST*
D10*
%TO.P,J3,1,Pin_1_1*%
%TO.N,/G5*%
X97790000Y-30480000D03*
D11*
%TO.P,J3,2,Pin_2_2*%
%TO.N,GND*%
X97790000Y-33020000D03*
%TO.P,J3,3,Pin_3_3*%
%TO.N,/G4*%
X95250000Y-30480000D03*
%TO.P,J3,4,Pin_4_4*%
%TO.N,+5V*%
X95250000Y-33020000D03*
%TO.P,J3,5,Pin_5_5*%
%TO.N,/G6*%
X92710000Y-30480000D03*
%TO.P,J3,6,Pin_6_6*%
%TO.N,/BOOT*%
X92710000Y-33020000D03*
%TO.P,J3,7,Pin_7_7*%
%TO.N,/G7*%
X90170000Y-30480000D03*
%TO.P,J3,8,Pin_8_8*%
%TO.N,/G1*%
X90170000Y-33020000D03*
%TO.P,J3,9,Pin_9_9*%
%TO.N,/G43*%
X87630000Y-30480000D03*
%TO.P,J3,10,Pin_10_10*%
%TO.N,/G8*%
X87630000Y-33020000D03*
%TO.P,J3,11,Pin_11_11*%
%TO.N,/G44*%
X85090000Y-30480000D03*
%TO.P,J3,12,Pin_12_12*%
%TO.N,/BAT*%
X85090000Y-33020000D03*
%TO.P,J3,13,Pin_13_13*%
%TO.N,/G2*%
X82550000Y-30480000D03*
%TO.P,J3,14,Pin_14_14*%
%TO.N,+3.3V*%
X82550000Y-33020000D03*
%TO.P,J3,15,Pin_15_15*%
%TO.N,/G3*%
X80010000Y-30480000D03*
%TO.P,J3,16,Pin_16_16*%
%TO.N,/5V_IN*%
X80010000Y-33020000D03*
%TD*%
D10*
%TO.P,J1,1,Pin_1_1*%
%TO.N,+3.3V*%
X76200000Y-25400000D03*
D11*
%TO.P,J1,2,Pin_2_2*%
X76200000Y-27940000D03*
%TO.P,J1,3,Pin_3_3*%
%TO.N,/RST*%
X76200000Y-30480000D03*
%TO.P,J1,4,Pin_4_4*%
%TO.N,/IO4*%
X76200000Y-33020000D03*
%TO.P,J1,5,Pin_5_5*%
%TO.N,/IO5*%
X76200000Y-35560000D03*
%TO.P,J1,6,Pin_6_6*%
%TO.N,/IO6*%
X76200000Y-38100000D03*
%TO.P,J1,7,Pin_7_7*%
%TO.N,/IO7*%
X76200000Y-40640000D03*
%TO.P,J1,8,Pin_8_8*%
%TO.N,/G3*%
X76200000Y-43180000D03*
%TO.P,J1,9,Pin_9_9*%
%TO.N,/G2*%
X76200000Y-45720000D03*
%TO.P,J1,10,Pin_10_10*%
%TO.N,/G8*%
X76200000Y-48260000D03*
%TO.P,J1,11,Pin_11_11*%
%TO.N,/G7*%
X76200000Y-50800000D03*
%TO.P,J1,12,Pin_12_12*%
%TO.N,/IO8*%
X76200000Y-53340000D03*
%TO.P,J1,13,Pin_13_13*%
%TO.N,/IO3*%
X76200000Y-55880000D03*
%TO.P,J1,14,Pin_14_14*%
%TO.N,/IO46*%
X76200000Y-58420000D03*
%TO.P,J1,15,Pin_15_15*%
%TO.N,/IO9*%
X76200000Y-60960000D03*
%TO.P,J1,16,Pin_16_16*%
%TO.N,/G1*%
X76200000Y-63500000D03*
%TO.P,J1,17,Pin_17_17*%
%TO.N,/G6*%
X76200000Y-66040000D03*
%TO.P,J1,18,Pin_18_18*%
%TO.N,/G4*%
X76200000Y-68580000D03*
%TO.P,J1,19,Pin_19_19*%
%TO.N,/G5*%
X76200000Y-71120000D03*
%TO.P,J1,20,Pin_20_20*%
%TO.N,/IO14*%
X76200000Y-73660000D03*
%TO.P,J1,21,Pin_21_21*%
%TO.N,+5V*%
X76200000Y-76200000D03*
%TO.P,J1,22,Pin_22_22*%
%TO.N,GND*%
X76200000Y-78740000D03*
%TD*%
D10*
%TO.P,J2,1,Pin_1_1*%
%TO.N,GND*%
X101600000Y-25400000D03*
D11*
%TO.P,J2,2,Pin_2_2*%
%TO.N,/IO43*%
X101600000Y-27940000D03*
%TO.P,J2,3,Pin_3_3*%
%TO.N,/IO44*%
X101600000Y-30480000D03*
%TO.P,J2,4,Pin_4_4*%
%TO.N,/IO1*%
X101600000Y-33020000D03*
%TO.P,J2,5,Pin_5_5*%
%TO.N,/IO2*%
X101600000Y-35560000D03*
%TO.P,J2,6,Pin_6_6*%
%TO.N,/IO42*%
X101600000Y-38100000D03*
%TO.P,J2,7,Pin_7_7*%
%TO.N,/IO41*%
X101600000Y-40640000D03*
%TO.P,J2,8,Pin_8_8*%
%TO.N,/IO40*%
X101600000Y-43180000D03*
%TO.P,J2,9,Pin_9_9*%
%TO.N,/IO39*%
X101600000Y-45720000D03*
%TO.P,J2,10,Pin_10_10*%
%TO.N,/IO38*%
X101600000Y-48260000D03*
%TO.P,J2,11,Pin_11_11*%
%TO.N,/IO37*%
X101600000Y-50800000D03*
%TO.P,J2,12,Pin_12_12*%
%TO.N,/IO36*%
X101600000Y-53340000D03*
%TO.P,J2,13,Pin_13_13*%
%TO.N,/IO35*%
X101600000Y-55880000D03*
%TO.P,J2,14,Pin_14_14*%
%TO.N,/IO0*%
X101600000Y-58420000D03*
%TO.P,J2,15,Pin_15_15*%
%TO.N,/IO45*%
X101600000Y-60960000D03*
%TO.P,J2,16,Pin_16_16*%
%TO.N,/IO48*%
X101600000Y-63500000D03*
%TO.P,J2,17,Pin_17_17*%
%TO.N,/IO47*%
X101600000Y-66040000D03*
%TO.P,J2,18,Pin_18_18*%
%TO.N,/IO21*%
X101600000Y-68580000D03*
%TO.P,J2,19,Pin_19_19*%
%TO.N,/IO20*%
X101600000Y-71120000D03*
%TO.P,J2,20,Pin_20_20*%
%TO.N,/IO19*%
X101600000Y-73660000D03*
%TO.P,J2,21,Pin_21_21*%
%TO.N,GND*%
X101600000Y-76200000D03*
%TO.P,J2,22,Pin_22_22*%
X101600000Y-78740000D03*
%TD*%
D12*
%TO.N,+5V*%
X97750000Y-36150000D03*
%TD*%
%TO.N,+5V*%
D13*
X95250000Y-36150000D02*
X97750000Y-36150000D01*
X95250000Y-33020000D02*
X95250000Y-36150000D01*
%TO.N,+3.3V*%
X78550000Y-35050000D02*
X80520000Y-35050000D01*
X80520000Y-35050000D02*
X82550000Y-33020000D01*
X76200000Y-27940000D02*
X78000000Y-29740000D01*
X78000000Y-29740000D02*
X78000000Y-34500000D01*
X76200000Y-25400000D02*
X76200000Y-27940000D01*
X78000000Y-34500000D02*
X78550000Y-35050000D01*
%TD*%
%TA.AperFunction,Conductor*%
%TO.N,GND*%
G36*
X96374340Y-31368068D02*
G01*
X96430274Y-31409939D01*
X96447189Y-31440917D01*
X96496202Y-31572328D01*
X96496206Y-31572335D01*
X96582452Y-31687544D01*
X96582455Y-31687547D01*
X96697664Y-31773793D01*
X96697671Y-31773797D01*
X96742618Y-31790561D01*
X96832517Y-31824091D01*
X96892127Y-31830500D01*
X96902685Y-31830499D01*
X96969723Y-31850179D01*
X96990372Y-31866818D01*
X97660591Y-32537037D01*
X97597007Y-32554075D01*
X97482993Y-32619901D01*
X97389901Y-32712993D01*
X97324075Y-32827007D01*
X97307037Y-32890591D01*
X96674728Y-32258282D01*
X96674727Y-32258282D01*
X96635380Y-32312440D01*
X96635376Y-32312446D01*
X96630760Y-32321505D01*
X96582781Y-32372297D01*
X96514959Y-32389087D01*
X96448826Y-32366543D01*
X96409794Y-32321493D01*
X96405051Y-32312184D01*
X96405049Y-32312181D01*
X96405048Y-32312179D01*
X96280109Y-32140213D01*
X96129786Y-31989890D01*
X95957820Y-31864951D01*
X95957115Y-31864591D01*
X95949054Y-31860485D01*
X95898259Y-31812512D01*
X95881463Y-31744692D01*
X95903999Y-31678556D01*
X95949054Y-31639515D01*
X95957816Y-31635051D01*
X96129792Y-31510104D01*
X96243329Y-31396566D01*
X96304648Y-31363084D01*
X96374340Y-31368068D01*
G37*
%TD.AperFunction*%
%TA.AperFunction,Conductor*%
G36*
X103442539Y-23520185D02*
G01*
X103488294Y-23572989D01*
X103499500Y-23624500D01*
X103499500Y-80575500D01*
X103479815Y-80642539D01*
X103427011Y-80688294D01*
X103375500Y-80699500D01*
X74624500Y-80699500D01*
X74557461Y-80679815D01*
X74511706Y-80627011D01*
X74500500Y-80575500D01*
X74500500Y-24502135D01*
X74849500Y-24502135D01*
X74849500Y-26297870D01*
X74849501Y-26297876D01*
X74855908Y-26357483D01*
X74906202Y-26492328D01*
X74906206Y-26492335D01*
X74992452Y-26607544D01*
X74992455Y-26607547D01*
X75107664Y-26693793D01*
X75107671Y-26693797D01*
X75237833Y-26742344D01*
X75293767Y-26784215D01*
X75318184Y-26849679D01*
X75318500Y-26858526D01*
X75318500Y-26860242D01*
X75298815Y-26927281D01*
X75282181Y-26947923D01*
X75169894Y-27060209D01*
X75169890Y-27060213D01*
X75044951Y-27232179D01*
X74948444Y-27421585D01*
X74882753Y-27623760D01*
X74849500Y-27833713D01*
X74849500Y-28046286D01*
X74882753Y-28256239D01*
X74948444Y-28458414D01*
X75044951Y-28647820D01*
X75169890Y-28819786D01*
X75320213Y-28970109D01*
X75492182Y-29095050D01*
X75500946Y-29099516D01*
X75551742Y-29147491D01*
X75568536Y-29215312D01*
X75545998Y-29281447D01*
X75500946Y-29320484D01*
X75492182Y-29324949D01*
X75320213Y-29449890D01*
X75169890Y-29600213D01*
X75044951Y-29772179D01*
X74948444Y-29961585D01*
X74882753Y-30163760D01*
X74849500Y-30373713D01*
X74849500Y-30586286D01*
X74882753Y-30796239D01*
X74948444Y-30998414D01*
X75044951Y-31187820D01*
X75169890Y-31359786D01*
X75320213Y-31510109D01*
X75492182Y-31635050D01*
X75500946Y-31639516D01*
X75551742Y-31687491D01*
X75568536Y-31755312D01*
X75545998Y-31821447D01*
X75500946Y-31860484D01*
X75492182Y-31864949D01*
X75320213Y-31989890D01*
X75169890Y-32140213D01*
X75044951Y-32312179D01*
X74948444Y-32501585D01*
X74882753Y-32703760D01*
X74849500Y-32913713D01*
X74849500Y-33126286D01*
X74882753Y-33336239D01*
X74948444Y-33538414D01*
X75044951Y-33727820D01*
X75169890Y-33899786D01*
X75320213Y-34050109D01*
X75492182Y-34175050D01*
X75500946Y-34179516D01*
X75551742Y-34227491D01*
X75568536Y-34295312D01*
X75545998Y-34361447D01*
X75500946Y-34400484D01*
X75492182Y-34404949D01*
X75320213Y-34529890D01*
X75169890Y-34680213D01*
X75044951Y-34852179D01*
X74948444Y-35041585D01*
X74882753Y-35243760D01*
X74849500Y-35453713D01*
X74849500Y-35666287D01*
X74882754Y-35876243D01*
X74889701Y-35897625D01*
X74948444Y-36078414D01*
X75044951Y-36267820D01*
X75169890Y-36439786D01*
X75320213Y-36590109D01*
X75492182Y-36715050D01*
X75500946Y-36719516D01*
X75551742Y-36767491D01*
X75568536Y-36835312D01*
X75545998Y-36901447D01*
X75500946Y-36940484D01*
X75492182Y-36944949D01*
X75320213Y-37069890D01*
X75169890Y-37220213D01*
X75044951Y-37392179D01*
X74948444Y-37581585D01*
X74882753Y-37783760D01*
X74849500Y-37993713D01*
X74849500Y-38206286D01*
X74882753Y-38416239D01*
X74948444Y-38618414D01*
X75044951Y-38807820D01*
X75169890Y-38979786D01*
X75320213Y-39130109D01*
X75492182Y-39255050D01*
X75500946Y-39259516D01*
X75551742Y-39307491D01*
X75568536Y-39375312D01*
X75545998Y-39441447D01*
X75500946Y-39480484D01*
X75492182Y-39484949D01*
X75320213Y-39609890D01*
X75169890Y-39760213D01*
X75044951Y-39932179D01*
X74948444Y-40121585D01*
X74882753Y-40323760D01*
X74849500Y-40533713D01*
X74849500Y-40746286D01*
X74882753Y-40956239D01*
X74948444Y-41158414D01*
X75044951Y-41347820D01*
X75169890Y-41519786D01*
X75320213Y-41670109D01*
X75492182Y-41795050D01*
X75500946Y-41799516D01*
X75551742Y-41847491D01*
X75568536Y-41915312D01*
X75545998Y-41981447D01*
X75500946Y-42020484D01*
X75492182Y-42024949D01*
X75320213Y-42149890D01*
X75169890Y-42300213D01*
X75044951Y-42472179D01*
X74948444Y-42661585D01*
X74882753Y-42863760D01*
X74849500Y-43073713D01*
X74849500Y-43286286D01*
X74882753Y-43496239D01*
X74948444Y-43698414D01*
X75044951Y-43887820D01*
X75169890Y-44059786D01*
X75320213Y-44210109D01*
X75492182Y-44335050D01*
X75500946Y-44339516D01*
X75551742Y-44387491D01*
X75568536Y-44455312D01*
X75545998Y-44521447D01*
X75500946Y-44560484D01*
X75492182Y-44564949D01*
X75320213Y-44689890D01*
X75169890Y-44840213D01*
X75044951Y-45012179D01*
X74948444Y-45201585D01*
X74882753Y-45403760D01*
X74849500Y-45613713D01*
X74849500Y-45826286D01*
X74882753Y-46036239D01*
X74948444Y-46238414D01*
X75044951Y-46427820D01*
X75169890Y-46599786D01*
X75320213Y-46750109D01*
X75492182Y-46875050D01*
X75500946Y-46879516D01*
X75551742Y-46927491D01*
X75568536Y-46995312D01*
X75545998Y-47061447D01*
X75500946Y-47100484D01*
X75492182Y-47104949D01*
X75320213Y-47229890D01*
X75169890Y-47380213D01*
X75044951Y-47552179D01*
X74948444Y-47741585D01*
X74882753Y-47943760D01*
X74849500Y-48153713D01*
X74849500Y-48366286D01*
X74882753Y-48576239D01*
X74948444Y-48778414D01*
X75044951Y-48967820D01*
X75169890Y-49139786D01*
X75320213Y-49290109D01*
X75492182Y-49415050D01*
X75500946Y-49419516D01*
X75551742Y-49467491D01*
X75568536Y-49535312D01*
X75545998Y-49601447D01*
X75500946Y-49640484D01*
X75492182Y-49644949D01*
X75320213Y-49769890D01*
X75169890Y-49920213D01*
X75044951Y-50092179D01*
X74948444Y-50281585D01*
X74882753Y-50483760D01*
X74849500Y-50693713D01*
X74849500Y-50906286D01*
X74882753Y-51116239D01*
X74948444Y-51318414D01*
X75044951Y-51507820D01*
X75169890Y-51679786D01*
X75320213Y-51830109D01*
X75492182Y-51955050D01*
X75500946Y-51959516D01*
X75551742Y-52007491D01*
X75568536Y-52075312D01*
X75545998Y-52141447D01*
X75500946Y-52180484D01*
X75492182Y-52184949D01*
X75320213Y-52309890D01*
X75169890Y-52460213D01*
X75044951Y-52632179D01*
X74948444Y-52821585D01*
X74882753Y-53023760D01*
X74849500Y-53233713D01*
X74849500Y-53446286D01*
X74882753Y-53656239D01*
X74948444Y-53858414D01*
X75044951Y-54047820D01*
X75169890Y-54219786D01*
X75320213Y-54370109D01*
X75492182Y-54495050D01*
X75500946Y-54499516D01*
X75551742Y-54547491D01*
X75568536Y-54615312D01*
X75545998Y-54681447D01*
X75500946Y-54720484D01*
X75492182Y-54724949D01*
X75320213Y-54849890D01*
X75169890Y-55000213D01*
X75044951Y-55172179D01*
X74948444Y-55361585D01*
X74882753Y-55563760D01*
X74849500Y-55773713D01*
X74849500Y-55986286D01*
X74882753Y-56196239D01*
X74948444Y-56398414D01*
X75044951Y-56587820D01*
X75169890Y-56759786D01*
X75320213Y-56910109D01*
X75492182Y-57035050D01*
X75500946Y-57039516D01*
X75551742Y-57087491D01*
X75568536Y-57155312D01*
X75545998Y-57221447D01*
X75500946Y-57260484D01*
X75492182Y-57264949D01*
X75320213Y-57389890D01*
X75169890Y-57540213D01*
X75044951Y-57712179D01*
X74948444Y-57901585D01*
X74882753Y-58103760D01*
X74849500Y-58313713D01*
X74849500Y-58526286D01*
X74882753Y-58736239D01*
X74948444Y-58938414D01*
X75044951Y-59127820D01*
X75169890Y-59299786D01*
X75320213Y-59450109D01*
X75492182Y-59575050D01*
X75500946Y-59579516D01*
X75551742Y-59627491D01*
X75568536Y-59695312D01*
X75545998Y-59761447D01*
X75500946Y-59800484D01*
X75492182Y-59804949D01*
X75320213Y-59929890D01*
X75169890Y-60080213D01*
X75044951Y-60252179D01*
X74948444Y-60441585D01*
X74882753Y-60643760D01*
X74849500Y-60853713D01*
X74849500Y-61066286D01*
X74882753Y-61276239D01*
X74948444Y-61478414D01*
X75044951Y-61667820D01*
X75169890Y-61839786D01*
X75320213Y-61990109D01*
X75492182Y-62115050D01*
X75500946Y-62119516D01*
X75551742Y-62167491D01*
X75568536Y-62235312D01*
X75545998Y-62301447D01*
X75500946Y-62340484D01*
X75492182Y-62344949D01*
X75320213Y-62469890D01*
X75169890Y-62620213D01*
X75044951Y-62792179D01*
X74948444Y-62981585D01*
X74882753Y-63183760D01*
X74849500Y-63393713D01*
X74849500Y-63606286D01*
X74882753Y-63816239D01*
X74948444Y-64018414D01*
X75044951Y-64207820D01*
X75169890Y-64379786D01*
X75320213Y-64530109D01*
X75492182Y-64655050D01*
X75500946Y-64659516D01*
X75551742Y-64707491D01*
X75568536Y-64775312D01*
X75545998Y-64841447D01*
X75500946Y-64880484D01*
X75492182Y-64884949D01*
X75320213Y-65009890D01*
X75169890Y-65160213D01*
X75044951Y-65332179D01*
X74948444Y-65521585D01*
X74882753Y-65723760D01*
X74849500Y-65933713D01*
X74849500Y-66146286D01*
X74882753Y-66356239D01*
X74948444Y-66558414D01*
X75044951Y-66747820D01*
X75169890Y-66919786D01*
X75320213Y-67070109D01*
X75492182Y-67195050D01*
X75500946Y-67199516D01*
X75551742Y-67247491D01*
X75568536Y-67315312D01*
X75545998Y-67381447D01*
X75500946Y-67420484D01*
X75492182Y-67424949D01*
X75320213Y-67549890D01*
X75169890Y-67700213D01*
X75044951Y-67872179D01*
X74948444Y-68061585D01*
X74882753Y-68263760D01*
X74849500Y-68473713D01*
X74849500Y-68686286D01*
X74882753Y-68896239D01*
X74948444Y-69098414D01*
X75044951Y-69287820D01*
X75169890Y-69459786D01*
X75320213Y-69610109D01*
X75492182Y-69735050D01*
X75500946Y-69739516D01*
X75551742Y-69787491D01*
X75568536Y-69855312D01*
X75545998Y-69921447D01*
X75500946Y-69960484D01*
X75492182Y-69964949D01*
X75320213Y-70089890D01*
X75169890Y-70240213D01*
X75044951Y-70412179D01*
X74948444Y-70601585D01*
X74882753Y-70803760D01*
X74849500Y-71013713D01*
X74849500Y-71226286D01*
X74882753Y-71436239D01*
X74948444Y-71638414D01*
X75044951Y-71827820D01*
X75169890Y-71999786D01*
X75320213Y-72150109D01*
X75492182Y-72275050D01*
X75500946Y-72279516D01*
X75551742Y-72327491D01*
X75568536Y-72395312D01*
X75545998Y-72461447D01*
X75500946Y-72500484D01*
X75492182Y-72504949D01*
X75320213Y-72629890D01*
X75169890Y-72780213D01*
X75044951Y-72952179D01*
X74948444Y-73141585D01*
X74882753Y-73343760D01*
X74849500Y-73553713D01*
X74849500Y-73766286D01*
X74882753Y-73976239D01*
X74948444Y-74178414D01*
X75044951Y-74367820D01*
X75169890Y-74539786D01*
X75320213Y-74690109D01*
X75492182Y-74815050D01*
X75500946Y-74819516D01*
X75551742Y-74867491D01*
X75568536Y-74935312D01*
X75545998Y-75001447D01*
X75500946Y-75040484D01*
X75492182Y-75044949D01*
X75320213Y-75169890D01*
X75169890Y-75320213D01*
X75044951Y-75492179D01*
X74948444Y-75681585D01*
X74882753Y-75883760D01*
X74849500Y-76093713D01*
X74849500Y-76306286D01*
X74882753Y-76516239D01*
X74948444Y-76718414D01*
X75044951Y-76907820D01*
X75169890Y-77079786D01*
X75320213Y-77230109D01*
X75492179Y-77355048D01*
X75492181Y-77355049D01*
X75492184Y-77355051D01*
X75501493Y-77359794D01*
X75552290Y-77407766D01*
X75569087Y-77475587D01*
X75546552Y-77541722D01*
X75501505Y-77580760D01*
X75492446Y-77585376D01*
X75492440Y-77585380D01*
X75438282Y-77624727D01*
X75438282Y-77624728D01*
X76070591Y-78257037D01*
X76007007Y-78274075D01*
X75892993Y-78339901D01*
X75799901Y-78432993D01*
X75734075Y-78547007D01*
X75717037Y-78610591D01*
X75084728Y-77978282D01*
X75084727Y-77978282D01*
X75045380Y-78032439D01*
X74948904Y-78221782D01*
X74883242Y-78423869D01*
X74883242Y-78423872D01*
X74850000Y-78633753D01*
X74850000Y-78846246D01*
X74883242Y-79056127D01*
X74883242Y-79056130D01*
X74948904Y-79258217D01*
X75045375Y-79447550D01*
X75084728Y-79501716D01*
X75717037Y-78869408D01*
X75734075Y-78932993D01*
X75799901Y-79047007D01*
X75892993Y-79140099D01*
X76007007Y-79205925D01*
X76070590Y-79222962D01*
X75438282Y-79855269D01*
X75438282Y-79855270D01*
X75492449Y-79894624D01*
X75681782Y-79991095D01*
X75883870Y-80056757D01*
X76093754Y-80090000D01*
X76306246Y-80090000D01*
X76516127Y-80056757D01*
X76516130Y-80056757D01*
X76718217Y-79991095D01*
X76907554Y-79894622D01*
X76961716Y-79855270D01*
X76961717Y-79855270D01*
X76329408Y-79222962D01*
X76392993Y-79205925D01*
X76507007Y-79140099D01*
X76600099Y-79047007D01*
X76665925Y-78932993D01*
X76682962Y-78869408D01*
X77315270Y-79501717D01*
X77315270Y-79501716D01*
X77354622Y-79447554D01*
X77451095Y-79258217D01*
X77516757Y-79056130D01*
X77516757Y-79056127D01*
X77550000Y-78846246D01*
X77550000Y-78633753D01*
X77516757Y-78423872D01*
X77516757Y-78423869D01*
X77451095Y-78221782D01*
X77354624Y-78032449D01*
X77315270Y-77978282D01*
X77315269Y-77978282D01*
X76682962Y-78610590D01*
X76665925Y-78547007D01*
X76600099Y-78432993D01*
X76507007Y-78339901D01*
X76392993Y-78274075D01*
X76329409Y-78257037D01*
X76961716Y-77624728D01*
X76907547Y-77585373D01*
X76907547Y-77585372D01*
X76898500Y-77580763D01*
X76847706Y-77532788D01*
X76830912Y-77464966D01*
X76853451Y-77398832D01*
X76898508Y-77359793D01*
X76907816Y-77355051D01*
X77006187Y-77283581D01*
X77079786Y-77230109D01*
X77079788Y-77230106D01*
X77079792Y-77230104D01*
X77230104Y-77079792D01*
X77230106Y-77079788D01*
X77230109Y-77079786D01*
X77355048Y-76907820D01*
X77355047Y-76907820D01*
X77355051Y-76907816D01*
X77451557Y-76718412D01*
X77517246Y-76516243D01*
X77550500Y-76306287D01*
X77550500Y-76093713D01*
X77517246Y-75883757D01*
X77451557Y-75681588D01*
X77355051Y-75492184D01*
X77355049Y-75492181D01*
X77355048Y-75492179D01*
X77230109Y-75320213D01*
X77079786Y-75169890D01*
X76907820Y-75044951D01*
X76899600Y-75040763D01*
X76899054Y-75040485D01*
X76848259Y-74992512D01*
X76831463Y-74924692D01*
X76853999Y-74858556D01*
X76899054Y-74819515D01*
X76907816Y-74815051D01*
X76929789Y-74799086D01*
X77079786Y-74690109D01*
X77079788Y-74690106D01*
X77079792Y-74690104D01*
X77230104Y-74539792D01*
X77230106Y-74539788D01*
X77230109Y-74539786D01*
X77355048Y-74367820D01*
X77355047Y-74367820D01*
X77355051Y-74367816D01*
X77451557Y-74178412D01*
X77517246Y-73976243D01*
X77550500Y-73766287D01*
X77550500Y-73553713D01*
X77517246Y-73343757D01*
X77451557Y-73141588D01*
X77355051Y-72952184D01*
X77355049Y-72952181D01*
X77355048Y-72952179D01*
X77230109Y-72780213D01*
X77079786Y-72629890D01*
X76907820Y-72504951D01*
X76907115Y-72504591D01*
X76899054Y-72500485D01*
X76848259Y-72452512D01*
X76831463Y-72384692D01*
X76853999Y-72318556D01*
X76899054Y-72279515D01*
X76907816Y-72275051D01*
X76929789Y-72259086D01*
X77079786Y-72150109D01*
X77079788Y-72150106D01*
X77079792Y-72150104D01*
X77230104Y-71999792D01*
X77230106Y-71999788D01*
X77230109Y-71999786D01*
X77355048Y-71827820D01*
X77355047Y-71827820D01*
X77355051Y-71827816D01*
X77451557Y-71638412D01*
X77517246Y-71436243D01*
X77550500Y-71226287D01*
X77550500Y-71013713D01*
X77517246Y-70803757D01*
X77451557Y-70601588D01*
X77355051Y-70412184D01*
X77355049Y-70412181D01*
X77355048Y-70412179D01*
X77230109Y-70240213D01*
X77079786Y-70089890D01*
X76907820Y-69964951D01*
X76907115Y-69964591D01*
X76899054Y-69960485D01*
X76848259Y-69912512D01*
X76831463Y-69844692D01*
X76853999Y-69778556D01*
X76899054Y-69739515D01*
X76907816Y-69735051D01*
X76929789Y-69719086D01*
X77079786Y-69610109D01*
X77079788Y-69610106D01*
X77079792Y-69610104D01*
X77230104Y-69459792D01*
X77230106Y-69459788D01*
X77230109Y-69459786D01*
X77355048Y-69287820D01*
X77355047Y-69287820D01*
X77355051Y-69287816D01*
X77451557Y-69098412D01*
X77517246Y-68896243D01*
X77550500Y-68686287D01*
X77550500Y-68473713D01*
X77517246Y-68263757D01*
X77451557Y-68061588D01*
X77355051Y-67872184D01*
X77355049Y-67872181D01*
X77355048Y-67872179D01*
X77230109Y-67700213D01*
X77079786Y-67549890D01*
X76907820Y-67424951D01*
X76907115Y-67424591D01*
X76899054Y-67420485D01*
X76848259Y-67372512D01*
X76831463Y-67304692D01*
X76853999Y-67238556D01*
X76899054Y-67199515D01*
X76907816Y-67195051D01*
X76929789Y-67179086D01*
X77079786Y-67070109D01*
X77079788Y-67070106D01*
X77079792Y-67070104D01*
X77230104Y-66919792D01*
X77230106Y-66919788D01*
X77230109Y-66919786D01*
X77355048Y-66747820D01*
X77355047Y-66747820D01*
X77355051Y-66747816D01*
X77451557Y-66558412D01*
X77517246Y-66356243D01*
X77550500Y-66146287D01*
X77550500Y-65933713D01*
X77517246Y-65723757D01*
X77451557Y-65521588D01*
X77355051Y-65332184D01*
X77355049Y-65332181D01*
X77355048Y-65332179D01*
X77230109Y-65160213D01*
X77079786Y-65009890D01*
X76907820Y-64884951D01*
X76907115Y-64884591D01*
X76899054Y-64880485D01*
X76848259Y-64832512D01*
X76831463Y-64764692D01*
X76853999Y-64698556D01*
X76899054Y-64659515D01*
X76907816Y-64655051D01*
X76929789Y-64639086D01*
X77079786Y-64530109D01*
X77079788Y-64530106D01*
X77079792Y-64530104D01*
X77230104Y-64379792D01*
X77230106Y-64379788D01*
X77230109Y-64379786D01*
X77355048Y-64207820D01*
X77355047Y-64207820D01*
X77355051Y-64207816D01*
X77451557Y-64018412D01*
X77517246Y-63816243D01*
X77550500Y-63606287D01*
X77550500Y-63393713D01*
X77517246Y-63183757D01*
X77451557Y-62981588D01*
X77355051Y-62792184D01*
X77355049Y-62792181D01*
X77355048Y-62792179D01*
X77230109Y-62620213D01*
X77079786Y-62469890D01*
X76907820Y-62344951D01*
X76907115Y-62344591D01*
X76899054Y-62340485D01*
X76848259Y-62292512D01*
X76831463Y-62224692D01*
X76853999Y-62158556D01*
X76899054Y-62119515D01*
X76907816Y-62115051D01*
X76929789Y-62099086D01*
X77079786Y-61990109D01*
X77079788Y-61990106D01*
X77079792Y-61990104D01*
X77230104Y-61839792D01*
X77230106Y-61839788D01*
X77230109Y-61839786D01*
X77355048Y-61667820D01*
X77355047Y-61667820D01*
X77355051Y-61667816D01*
X77451557Y-61478412D01*
X77517246Y-61276243D01*
X77550500Y-61066287D01*
X77550500Y-60853713D01*
X77517246Y-60643757D01*
X77451557Y-60441588D01*
X77355051Y-60252184D01*
X77355049Y-60252181D01*
X77355048Y-60252179D01*
X77230109Y-60080213D01*
X77079786Y-59929890D01*
X76907820Y-59804951D01*
X76907115Y-59804591D01*
X76899054Y-59800485D01*
X76848259Y-59752512D01*
X76831463Y-59684692D01*
X76853999Y-59618556D01*
X76899054Y-59579515D01*
X76907816Y-59575051D01*
X76929789Y-59559086D01*
X77079786Y-59450109D01*
X77079788Y-59450106D01*
X77079792Y-59450104D01*
X77230104Y-59299792D01*
X77230106Y-59299788D01*
X77230109Y-59299786D01*
X77355048Y-59127820D01*
X77355047Y-59127820D01*
X77355051Y-59127816D01*
X77451557Y-58938412D01*
X77517246Y-58736243D01*
X77550500Y-58526287D01*
X77550500Y-58313713D01*
X77517246Y-58103757D01*
X77451557Y-57901588D01*
X77355051Y-57712184D01*
X77355049Y-57712181D01*
X77355048Y-57712179D01*
X77230109Y-57540213D01*
X77079786Y-57389890D01*
X76907820Y-57264951D01*
X76907115Y-57264591D01*
X76899054Y-57260485D01*
X76848259Y-57212512D01*
X76831463Y-57144692D01*
X76853999Y-57078556D01*
X76899054Y-57039515D01*
X76907816Y-57035051D01*
X76929789Y-57019086D01*
X77079786Y-56910109D01*
X77079788Y-56910106D01*
X77079792Y-56910104D01*
X77230104Y-56759792D01*
X77230106Y-56759788D01*
X77230109Y-56759786D01*
X77355048Y-56587820D01*
X77355047Y-56587820D01*
X77355051Y-56587816D01*
X77451557Y-56398412D01*
X77517246Y-56196243D01*
X77550500Y-55986287D01*
X77550500Y-55773713D01*
X77517246Y-55563757D01*
X77451557Y-55361588D01*
X77355051Y-55172184D01*
X77355049Y-55172181D01*
X77355048Y-55172179D01*
X77230109Y-55000213D01*
X77079786Y-54849890D01*
X76907820Y-54724951D01*
X76907115Y-54724591D01*
X76899054Y-54720485D01*
X76848259Y-54672512D01*
X76831463Y-54604692D01*
X76853999Y-54538556D01*
X76899054Y-54499515D01*
X76907816Y-54495051D01*
X76929789Y-54479086D01*
X77079786Y-54370109D01*
X77079788Y-54370106D01*
X77079792Y-54370104D01*
X77230104Y-54219792D01*
X77230106Y-54219788D01*
X77230109Y-54219786D01*
X77355048Y-54047820D01*
X77355047Y-54047820D01*
X77355051Y-54047816D01*
X77451557Y-53858412D01*
X77517246Y-53656243D01*
X77550500Y-53446287D01*
X77550500Y-53233713D01*
X77517246Y-53023757D01*
X77451557Y-52821588D01*
X77355051Y-52632184D01*
X77355049Y-52632181D01*
X77355048Y-52632179D01*
X77230109Y-52460213D01*
X77079786Y-52309890D01*
X76907820Y-52184951D01*
X76907115Y-52184591D01*
X76899054Y-52180485D01*
X76848259Y-52132512D01*
X76831463Y-52064692D01*
X76853999Y-51998556D01*
X76899054Y-51959515D01*
X76907816Y-51955051D01*
X76929789Y-51939086D01*
X77079786Y-51830109D01*
X77079788Y-51830106D01*
X77079792Y-51830104D01*
X77230104Y-51679792D01*
X77230106Y-51679788D01*
X77230109Y-51679786D01*
X77355048Y-51507820D01*
X77355047Y-51507820D01*
X77355051Y-51507816D01*
X77451557Y-51318412D01*
X77517246Y-51116243D01*
X77550500Y-50906287D01*
X77550500Y-50693713D01*
X77517246Y-50483757D01*
X77451557Y-50281588D01*
X77355051Y-50092184D01*
X77355049Y-50092181D01*
X77355048Y-50092179D01*
X77230109Y-49920213D01*
X77079786Y-49769890D01*
X76907820Y-49644951D01*
X76907115Y-49644591D01*
X76899054Y-49640485D01*
X76848259Y-49592512D01*
X76831463Y-49524692D01*
X76853999Y-49458556D01*
X76899054Y-49419515D01*
X76907816Y-49415051D01*
X76929789Y-49399086D01*
X77079786Y-49290109D01*
X77079788Y-49290106D01*
X77079792Y-49290104D01*
X77230104Y-49139792D01*
X77230106Y-49139788D01*
X77230109Y-49139786D01*
X77355048Y-48967820D01*
X77355047Y-48967820D01*
X77355051Y-48967816D01*
X77451557Y-48778412D01*
X77517246Y-48576243D01*
X77550500Y-48366287D01*
X77550500Y-48153713D01*
X77517246Y-47943757D01*
X77451557Y-47741588D01*
X77355051Y-47552184D01*
X77355049Y-47552181D01*
X77355048Y-47552179D01*
X77230109Y-47380213D01*
X77079786Y-47229890D01*
X76907820Y-47104951D01*
X76907115Y-47104591D01*
X76899054Y-47100485D01*
X76848259Y-47052512D01*
X76831463Y-46984692D01*
X76853999Y-46918556D01*
X76899054Y-46879515D01*
X76907816Y-46875051D01*
X76929789Y-46859086D01*
X77079786Y-46750109D01*
X77079788Y-46750106D01*
X77079792Y-46750104D01*
X77230104Y-46599792D01*
X77230106Y-46599788D01*
X77230109Y-46599786D01*
X77355048Y-46427820D01*
X77355047Y-46427820D01*
X77355051Y-46427816D01*
X77451557Y-46238412D01*
X77517246Y-46036243D01*
X77550500Y-45826287D01*
X77550500Y-45613713D01*
X77517246Y-45403757D01*
X77451557Y-45201588D01*
X77355051Y-45012184D01*
X77355049Y-45012181D01*
X77355048Y-45012179D01*
X77230109Y-44840213D01*
X77079786Y-44689890D01*
X76907820Y-44564951D01*
X76907115Y-44564591D01*
X76899054Y-44560485D01*
X76848259Y-44512512D01*
X76831463Y-44444692D01*
X76853999Y-44378556D01*
X76899054Y-44339515D01*
X76907816Y-44335051D01*
X76929789Y-44319086D01*
X77079786Y-44210109D01*
X77079788Y-44210106D01*
X77079792Y-44210104D01*
X77230104Y-44059792D01*
X77230106Y-44059788D01*
X77230109Y-44059786D01*
X77355048Y-43887820D01*
X77355047Y-43887820D01*
X77355051Y-43887816D01*
X77451557Y-43698412D01*
X77517246Y-43496243D01*
X77550500Y-43286287D01*
X77550500Y-43073713D01*
X77517246Y-42863757D01*
X77451557Y-42661588D01*
X77355051Y-42472184D01*
X77355049Y-42472181D01*
X77355048Y-42472179D01*
X77230109Y-42300213D01*
X77079786Y-42149890D01*
X76907820Y-42024951D01*
X76907115Y-42024591D01*
X76899054Y-42020485D01*
X76848259Y-41972512D01*
X76831463Y-41904692D01*
X76853999Y-41838556D01*
X76899054Y-41799515D01*
X76907816Y-41795051D01*
X76929789Y-41779086D01*
X77079786Y-41670109D01*
X77079788Y-41670106D01*
X77079792Y-41670104D01*
X77230104Y-41519792D01*
X77230106Y-41519788D01*
X77230109Y-41519786D01*
X77355048Y-41347820D01*
X77355047Y-41347820D01*
X77355051Y-41347816D01*
X77451557Y-41158412D01*
X77517246Y-40956243D01*
X77550500Y-40746287D01*
X77550500Y-40533713D01*
X77517246Y-40323757D01*
X77451557Y-40121588D01*
X77355051Y-39932184D01*
X77355049Y-39932181D01*
X77355048Y-39932179D01*
X77230109Y-39760213D01*
X77079786Y-39609890D01*
X76907820Y-39484951D01*
X76907115Y-39484591D01*
X76899054Y-39480485D01*
X76848259Y-39432512D01*
X76831463Y-39364692D01*
X76853999Y-39298556D01*
X76899054Y-39259515D01*
X76907816Y-39255051D01*
X76929789Y-39239086D01*
X77079786Y-39130109D01*
X77079788Y-39130106D01*
X77079792Y-39130104D01*
X77230104Y-38979792D01*
X77230106Y-38979788D01*
X77230109Y-38979786D01*
X77355048Y-38807820D01*
X77355047Y-38807820D01*
X77355051Y-38807816D01*
X77451557Y-38618412D01*
X77517246Y-38416243D01*
X77550500Y-38206287D01*
X77550500Y-37993713D01*
X77517246Y-37783757D01*
X77451557Y-37581588D01*
X77355051Y-37392184D01*
X77355049Y-37392181D01*
X77355048Y-37392179D01*
X77230109Y-37220213D01*
X77079786Y-37069890D01*
X76907820Y-36944951D01*
X76907115Y-36944591D01*
X76899054Y-36940485D01*
X76848259Y-36892512D01*
X76831463Y-36824692D01*
X76853999Y-36758556D01*
X76899054Y-36719515D01*
X76907816Y-36715051D01*
X76929789Y-36699086D01*
X77079786Y-36590109D01*
X77079788Y-36590106D01*
X77079792Y-36590104D01*
X77230104Y-36439792D01*
X77230106Y-36439788D01*
X77230109Y-36439786D01*
X77355048Y-36267820D01*
X77355047Y-36267820D01*
X77355051Y-36267816D01*
X77451557Y-36078412D01*
X77517246Y-35876243D01*
X77550500Y-35666287D01*
X77550500Y-35596491D01*
X77570185Y-35529452D01*
X77622989Y-35483697D01*
X77692147Y-35473753D01*
X77755703Y-35502778D01*
X77762181Y-35508810D01*
X77865294Y-35611923D01*
X77985817Y-35732446D01*
X77988078Y-35734707D01*
X78132446Y-35831171D01*
X78132459Y-35831178D01*
X78241257Y-35876243D01*
X78292876Y-35897624D01*
X78292880Y-35897624D01*
X78292881Y-35897625D01*
X78463177Y-35931500D01*
X78463180Y-35931500D01*
X80606823Y-35931500D01*
X80721393Y-35908709D01*
X80777124Y-35897624D01*
X80857335Y-35864399D01*
X80937543Y-35831177D01*
X80937544Y-35831176D01*
X80937547Y-35831175D01*
X81081924Y-35734706D01*
X82409810Y-34406818D01*
X82471133Y-34373334D01*
X82497491Y-34370500D01*
X82656286Y-34370500D01*
X82656287Y-34370500D01*
X82866243Y-34337246D01*
X83068412Y-34271557D01*
X83257816Y-34175051D01*
X83397728Y-34073400D01*
X83429786Y-34050109D01*
X83429788Y-34050106D01*
X83429792Y-34050104D01*
X83580104Y-33899792D01*
X83580106Y-33899788D01*
X83580109Y-33899786D01*
X83705048Y-33727820D01*
X83705047Y-33727820D01*
X83705051Y-33727816D01*
X83709514Y-33719054D01*
X83757488Y-33668259D01*
X83825308Y-33651463D01*
X83891444Y-33673999D01*
X83930486Y-33719056D01*
X83934951Y-33727820D01*
X84059890Y-33899786D01*
X84210213Y-34050109D01*
X84382179Y-34175048D01*
X84382181Y-34175049D01*
X84382184Y-34175051D01*
X84571588Y-34271557D01*
X84773757Y-34337246D01*
X84983713Y-34370500D01*
X84983714Y-34370500D01*
X85196286Y-34370500D01*
X85196287Y-34370500D01*
X85406243Y-34337246D01*
X85608412Y-34271557D01*
X85797816Y-34175051D01*
X85937728Y-34073400D01*
X85969786Y-34050109D01*
X85969788Y-34050106D01*
X85969792Y-34050104D01*
X86120104Y-33899792D01*
X86120106Y-33899788D01*
X86120109Y-33899786D01*
X86245048Y-33727820D01*
X86245047Y-33727820D01*
X86245051Y-33727816D01*
X86249514Y-33719054D01*
X86297488Y-33668259D01*
X86365308Y-33651463D01*
X86431444Y-33673999D01*
X86470486Y-33719056D01*
X86474951Y-33727820D01*
X86599890Y-33899786D01*
X86750213Y-34050109D01*
X86922179Y-34175048D01*
X86922181Y-34175049D01*
X86922184Y-34175051D01*
X87111588Y-34271557D01*
X87313757Y-34337246D01*
X87523713Y-34370500D01*
X87523714Y-34370500D01*
X87736286Y-34370500D01*
X87736287Y-34370500D01*
X87946243Y-34337246D01*
X88148412Y-34271557D01*
X88337816Y-34175051D01*
X88477728Y-34073400D01*
X88509786Y-34050109D01*
X88509788Y-34050106D01*
X88509792Y-34050104D01*
X88660104Y-33899792D01*
X88660106Y-33899788D01*
X88660109Y-33899786D01*
X88785048Y-33727820D01*
X88785047Y-33727820D01*
X88785051Y-33727816D01*
X88789514Y-33719054D01*
X88837488Y-33668259D01*
X88905308Y-33651463D01*
X88971444Y-33673999D01*
X89010486Y-33719056D01*
X89014951Y-33727820D01*
X89139890Y-33899786D01*
X89290213Y-34050109D01*
X89462179Y-34175048D01*
X89462181Y-34175049D01*
X89462184Y-34175051D01*
X89651588Y-34271557D01*
X89853757Y-34337246D01*
X90063713Y-34370500D01*
X90063714Y-34370500D01*
X90276286Y-34370500D01*
X90276287Y-34370500D01*
X90486243Y-34337246D01*
X90688412Y-34271557D01*
X90877816Y-34175051D01*
X91017728Y-34073400D01*
X91049786Y-34050109D01*
X91049788Y-34050106D01*
X91049792Y-34050104D01*
X91200104Y-33899792D01*
X91200106Y-33899788D01*
X91200109Y-33899786D01*
X91325048Y-33727820D01*
X91325047Y-33727820D01*
X91325051Y-33727816D01*
X91329514Y-33719054D01*
X91377488Y-33668259D01*
X91445308Y-33651463D01*
X91511444Y-33673999D01*
X91550486Y-33719056D01*
X91554951Y-33727820D01*
X91679890Y-33899786D01*
X91830213Y-34050109D01*
X92002179Y-34175048D01*
X92002181Y-34175049D01*
X92002184Y-34175051D01*
X92191588Y-34271557D01*
X92393757Y-34337246D01*
X92603713Y-34370500D01*
X92603714Y-34370500D01*
X92816286Y-34370500D01*
X92816287Y-34370500D01*
X93026243Y-34337246D01*
X93228412Y-34271557D01*
X93417816Y-34175051D01*
X93557728Y-34073400D01*
X93589786Y-34050109D01*
X93589788Y-34050106D01*
X93589792Y-34050104D01*
X93740104Y-33899792D01*
X93740106Y-33899788D01*
X93740109Y-33899786D01*
X93865048Y-33727820D01*
X93865047Y-33727820D01*
X93865051Y-33727816D01*
X93869514Y-33719054D01*
X93917488Y-33668259D01*
X93985308Y-33651463D01*
X94051444Y-33673999D01*
X94090486Y-33719056D01*
X94094951Y-33727820D01*
X94219890Y-33899786D01*
X94332181Y-34012077D01*
X94365666Y-34073400D01*
X94368500Y-34099758D01*
X94368500Y-36236820D01*
X94368500Y-36236822D01*
X94368499Y-36236822D01*
X94402374Y-36407118D01*
X94402377Y-36407128D01*
X94468821Y-36567540D01*
X94468828Y-36567553D01*
X94565293Y-36711922D01*
X94565296Y-36711926D01*
X94688073Y-36834703D01*
X94688077Y-36834706D01*
X94832446Y-36931171D01*
X94832459Y-36931178D01*
X94992871Y-36997622D01*
X94992876Y-36997624D01*
X94992880Y-36997624D01*
X94992881Y-36997625D01*
X95163177Y-37031500D01*
X95163180Y-37031500D01*
X97836822Y-37031500D01*
X97951394Y-37008709D01*
X98007124Y-36997624D01*
X98167547Y-36931175D01*
X98311923Y-36834706D01*
X98434706Y-36711923D01*
X98531175Y-36567547D01*
X98597624Y-36407124D01*
X98625334Y-36267820D01*
X98631500Y-36236822D01*
X98631500Y-36063177D01*
X98597625Y-35892881D01*
X98597624Y-35892880D01*
X98597624Y-35892876D01*
X98597622Y-35892871D01*
X98531178Y-35732459D01*
X98531171Y-35732446D01*
X98434706Y-35588077D01*
X98434703Y-35588073D01*
X98311926Y-35465296D01*
X98311922Y-35465293D01*
X98167553Y-35368828D01*
X98167540Y-35368821D01*
X98007128Y-35302377D01*
X98007118Y-35302374D01*
X97836822Y-35268500D01*
X97836820Y-35268500D01*
X96255500Y-35268500D01*
X96188461Y-35248815D01*
X96142706Y-35196011D01*
X96131500Y-35144500D01*
X96131500Y-34099758D01*
X96140144Y-34070317D01*
X96146668Y-34040331D01*
X96150422Y-34035315D01*
X96151185Y-34032719D01*
X96167819Y-34012077D01*
X96179566Y-34000330D01*
X96280104Y-33899792D01*
X96280106Y-33899788D01*
X96280109Y-33899786D01*
X96365890Y-33781717D01*
X96405051Y-33727816D01*
X96409793Y-33718508D01*
X96457763Y-33667711D01*
X96525583Y-33650911D01*
X96591719Y-33673445D01*
X96630763Y-33718500D01*
X96635373Y-33727547D01*
X96674728Y-33781716D01*
X97307037Y-33149408D01*
X97324075Y-33212993D01*
X97389901Y-33327007D01*
X97482993Y-33420099D01*
X97597007Y-33485925D01*
X97660590Y-33502962D01*
X97028282Y-34135269D01*
X97028282Y-34135270D01*
X97082449Y-34174624D01*
X97271782Y-34271095D01*
X97473870Y-34336757D01*
X97683754Y-34370000D01*
X97896246Y-34370000D01*
X98106127Y-34336757D01*
X98106130Y-34336757D01*
X98308217Y-34271095D01*
X98497554Y-34174622D01*
X98551716Y-34135270D01*
X98551717Y-34135270D01*
X97919408Y-33502962D01*
X97982993Y-33485925D01*
X98097007Y-33420099D01*
X98190099Y-33327007D01*
X98255925Y-33212993D01*
X98272962Y-33149409D01*
X98905270Y-33781717D01*
X98905270Y-33781716D01*
X98944622Y-33727554D01*
X99041095Y-33538217D01*
X99106757Y-33336130D01*
X99106757Y-33336127D01*
X99140000Y-33126246D01*
X99140000Y-32913753D01*
X99106757Y-32703872D01*
X99106757Y-32703869D01*
X99041095Y-32501782D01*
X98944624Y-32312449D01*
X98905270Y-32258282D01*
X98905269Y-32258282D01*
X98272962Y-32890590D01*
X98255925Y-32827007D01*
X98190099Y-32712993D01*
X98097007Y-32619901D01*
X97982993Y-32554075D01*
X97919409Y-32537037D01*
X98589627Y-31866818D01*
X98650950Y-31833333D01*
X98677307Y-31830499D01*
X98687872Y-31830499D01*
X98747483Y-31824091D01*
X98882331Y-31773796D01*
X98997546Y-31687546D01*
X99083796Y-31572331D01*
X99134091Y-31437483D01*
X99140500Y-31377873D01*
X99140499Y-29582128D01*
X99134091Y-29522517D01*
X99132810Y-29519083D01*
X99083797Y-29387671D01*
X99083793Y-29387664D01*
X98997547Y-29272455D01*
X98997544Y-29272452D01*
X98882335Y-29186206D01*
X98882328Y-29186202D01*
X98747482Y-29135908D01*
X98747483Y-29135908D01*
X98687883Y-29129501D01*
X98687881Y-29129500D01*
X98687873Y-29129500D01*
X98687864Y-29129500D01*
X96892129Y-29129500D01*
X96892123Y-29129501D01*
X96832516Y-29135908D01*
X96697671Y-29186202D01*
X96697664Y-29186206D01*
X96582455Y-29272452D01*
X96582452Y-29272455D01*
X96496206Y-29387664D01*
X96496203Y-29387669D01*
X96447189Y-29519083D01*
X96405317Y-29575016D01*
X96339853Y-29599433D01*
X96271580Y-29584581D01*
X96243326Y-29563430D01*
X96129786Y-29449890D01*
X95957820Y-29324951D01*
X95768414Y-29228444D01*
X95768413Y-29228443D01*
X95768412Y-29228443D01*
X95566243Y-29162754D01*
X95566241Y-29162753D01*
X95566240Y-29162753D01*
X95404957Y-29137208D01*
X95356287Y-29129500D01*
X95143713Y-29129500D01*
X95095042Y-29137208D01*
X94933760Y-29162753D01*
X94731585Y-29228444D01*
X94542179Y-29324951D01*
X94370213Y-29449890D01*
X94219890Y-29600213D01*
X94094949Y-29772182D01*
X94090484Y-29780946D01*
X94042509Y-29831742D01*
X93974688Y-29848536D01*
X93908553Y-29825998D01*
X93869516Y-29780946D01*
X93865050Y-29772182D01*
X93740109Y-29600213D01*
X93589786Y-29449890D01*
X93417820Y-29324951D01*
X93228414Y-29228444D01*
X93228413Y-29228443D01*
X93228412Y-29228443D01*
X93026243Y-29162754D01*
X93026241Y-29162753D01*
X93026240Y-29162753D01*
X92864957Y-29137208D01*
X92816287Y-29129500D01*
X92603713Y-29129500D01*
X92555042Y-29137208D01*
X92393760Y-29162753D01*
X92191585Y-29228444D01*
X92002179Y-29324951D01*
X91830213Y-29449890D01*
X91679890Y-29600213D01*
X91554949Y-29772182D01*
X91550484Y-29780946D01*
X91502509Y-29831742D01*
X91434688Y-29848536D01*
X91368553Y-29825998D01*
X91329516Y-29780946D01*
X91325050Y-29772182D01*
X91200109Y-29600213D01*
X91049786Y-29449890D01*
X90877820Y-29324951D01*
X90688414Y-29228444D01*
X90688413Y-29228443D01*
X90688412Y-29228443D01*
X90486243Y-29162754D01*
X90486241Y-29162753D01*
X90486240Y-29162753D01*
X90324957Y-29137208D01*
X90276287Y-29129500D01*
X90063713Y-29129500D01*
X90015042Y-29137208D01*
X89853760Y-29162753D01*
X89651585Y-29228444D01*
X89462179Y-29324951D01*
X89290213Y-29449890D01*
X89139890Y-29600213D01*
X89014949Y-29772182D01*
X89010484Y-29780946D01*
X88962509Y-29831742D01*
X88894688Y-29848536D01*
X88828553Y-29825998D01*
X88789516Y-29780946D01*
X88785050Y-29772182D01*
X88660109Y-29600213D01*
X88509786Y-29449890D01*
X88337820Y-29324951D01*
X88148414Y-29228444D01*
X88148413Y-29228443D01*
X88148412Y-29228443D01*
X87946243Y-29162754D01*
X87946241Y-29162753D01*
X87946240Y-29162753D01*
X87784957Y-29137208D01*
X87736287Y-29129500D01*
X87523713Y-29129500D01*
X87475042Y-29137208D01*
X87313760Y-29162753D01*
X87111585Y-29228444D01*
X86922179Y-29324951D01*
X86750213Y-29449890D01*
X86599890Y-29600213D01*
X86474949Y-29772182D01*
X86470484Y-29780946D01*
X86422509Y-29831742D01*
X86354688Y-29848536D01*
X86288553Y-29825998D01*
X86249516Y-29780946D01*
X86245050Y-29772182D01*
X86120109Y-29600213D01*
X85969786Y-29449890D01*
X85797820Y-29324951D01*
X85608414Y-29228444D01*
X85608413Y-29228443D01*
X85608412Y-29228443D01*
X85406243Y-29162754D01*
X85406241Y-29162753D01*
X85406240Y-29162753D01*
X85244957Y-29137208D01*
X85196287Y-29129500D01*
X84983713Y-29129500D01*
X84935042Y-29137208D01*
X84773760Y-29162753D01*
X84571585Y-29228444D01*
X84382179Y-29324951D01*
X84210213Y-29449890D01*
X84059890Y-29600213D01*
X83934949Y-29772182D01*
X83930484Y-29780946D01*
X83882509Y-29831742D01*
X83814688Y-29848536D01*
X83748553Y-29825998D01*
X83709516Y-29780946D01*
X83705050Y-29772182D01*
X83580109Y-29600213D01*
X83429786Y-29449890D01*
X83257820Y-29324951D01*
X83068414Y-29228444D01*
X83068413Y-29228443D01*
X83068412Y-29228443D01*
X82866243Y-29162754D01*
X82866241Y-29162753D01*
X82866240Y-29162753D01*
X82704957Y-29137208D01*
X82656287Y-29129500D01*
X82443713Y-29129500D01*
X82395042Y-29137208D01*
X82233760Y-29162753D01*
X82031585Y-29228444D01*
X81842179Y-29324951D01*
X81670213Y-29449890D01*
X81519890Y-29600213D01*
X81394949Y-29772182D01*
X81390484Y-29780946D01*
X81342509Y-29831742D01*
X81274688Y-29848536D01*
X81208553Y-29825998D01*
X81169516Y-29780946D01*
X81165050Y-29772182D01*
X81040109Y-29600213D01*
X80889786Y-29449890D01*
X80717820Y-29324951D01*
X80528414Y-29228444D01*
X80528413Y-29228443D01*
X80528412Y-29228443D01*
X80326243Y-29162754D01*
X80326241Y-29162753D01*
X80326240Y-29162753D01*
X80164957Y-29137208D01*
X80116287Y-29129500D01*
X79903713Y-29129500D01*
X79855042Y-29137208D01*
X79693760Y-29162753D01*
X79491585Y-29228444D01*
X79302179Y-29324951D01*
X79130215Y-29449889D01*
X79051955Y-29528149D01*
X78990631Y-29561633D01*
X78920940Y-29556649D01*
X78865006Y-29514777D01*
X78849713Y-29487919D01*
X78781178Y-29322459D01*
X78781171Y-29322446D01*
X78684707Y-29178078D01*
X78636129Y-29129500D01*
X78561923Y-29055294D01*
X77586819Y-28080189D01*
X77572115Y-28053261D01*
X77555523Y-28027443D01*
X77554631Y-28021242D01*
X77553334Y-28018866D01*
X77550500Y-27992508D01*
X77550500Y-27833713D01*
X100249500Y-27833713D01*
X100249500Y-28046286D01*
X100282753Y-28256239D01*
X100348444Y-28458414D01*
X100444951Y-28647820D01*
X100569890Y-28819786D01*
X100720213Y-28970109D01*
X100892182Y-29095050D01*
X100900946Y-29099516D01*
X100951742Y-29147491D01*
X100968536Y-29215312D01*
X100945998Y-29281447D01*
X100900946Y-29320484D01*
X100892182Y-29324949D01*
X100720213Y-29449890D01*
X100569890Y-29600213D01*
X100444951Y-29772179D01*
X100348444Y-29961585D01*
X100282753Y-30163760D01*
X100249500Y-30373713D01*
X100249500Y-30586286D01*
X100282753Y-30796239D01*
X100348444Y-30998414D01*
X100444951Y-31187820D01*
X100569890Y-31359786D01*
X100720213Y-31510109D01*
X100892182Y-31635050D01*
X100900946Y-31639516D01*
X100951742Y-31687491D01*
X100968536Y-31755312D01*
X100945998Y-31821447D01*
X100900946Y-31860484D01*
X100892182Y-31864949D01*
X100720213Y-31989890D01*
X100569890Y-32140213D01*
X100444951Y-32312179D01*
X100348444Y-32501585D01*
X100282753Y-32703760D01*
X100249500Y-32913713D01*
X100249500Y-33126286D01*
X100282753Y-33336239D01*
X100348444Y-33538414D01*
X100444951Y-33727820D01*
X100569890Y-33899786D01*
X100720213Y-34050109D01*
X100892182Y-34175050D01*
X100900946Y-34179516D01*
X100951742Y-34227491D01*
X100968536Y-34295312D01*
X100945998Y-34361447D01*
X100900946Y-34400484D01*
X100892182Y-34404949D01*
X100720213Y-34529890D01*
X100569890Y-34680213D01*
X100444951Y-34852179D01*
X100348444Y-35041585D01*
X100282753Y-35243760D01*
X100249500Y-35453713D01*
X100249500Y-35666287D01*
X100282754Y-35876243D01*
X100289701Y-35897625D01*
X100348444Y-36078414D01*
X100444951Y-36267820D01*
X100569890Y-36439786D01*
X100720213Y-36590109D01*
X100892182Y-36715050D01*
X100900946Y-36719516D01*
X100951742Y-36767491D01*
X100968536Y-36835312D01*
X100945998Y-36901447D01*
X100900946Y-36940484D01*
X100892182Y-36944949D01*
X100720213Y-37069890D01*
X100569890Y-37220213D01*
X100444951Y-37392179D01*
X100348444Y-37581585D01*
X100282753Y-37783760D01*
X100249500Y-37993713D01*
X100249500Y-38206286D01*
X100282753Y-38416239D01*
X100348444Y-38618414D01*
X100444951Y-38807820D01*
X100569890Y-38979786D01*
X100720213Y-39130109D01*
X100892182Y-39255050D01*
X100900946Y-39259516D01*
X100951742Y-39307491D01*
X100968536Y-39375312D01*
X100945998Y-39441447D01*
X100900946Y-39480484D01*
X100892182Y-39484949D01*
X100720213Y-39609890D01*
X100569890Y-39760213D01*
X100444951Y-39932179D01*
X100348444Y-40121585D01*
X100282753Y-40323760D01*
X100249500Y-40533713D01*
X100249500Y-40746286D01*
X100282753Y-40956239D01*
X100348444Y-41158414D01*
X100444951Y-41347820D01*
X100569890Y-41519786D01*
X100720213Y-41670109D01*
X100892182Y-41795050D01*
X100900946Y-41799516D01*
X100951742Y-41847491D01*
X100968536Y-41915312D01*
X100945998Y-41981447D01*
X100900946Y-42020484D01*
X100892182Y-42024949D01*
X100720213Y-42149890D01*
X100569890Y-42300213D01*
X100444951Y-42472179D01*
X100348444Y-42661585D01*
X100282753Y-42863760D01*
X100249500Y-43073713D01*
X100249500Y-43286286D01*
X100282753Y-43496239D01*
X100348444Y-43698414D01*
X100444951Y-43887820D01*
X100569890Y-44059786D01*
X100720213Y-44210109D01*
X100892182Y-44335050D01*
X100900946Y-44339516D01*
X100951742Y-44387491D01*
X100968536Y-44455312D01*
X100945998Y-44521447D01*
X100900946Y-44560484D01*
X100892182Y-44564949D01*
X100720213Y-44689890D01*
X100569890Y-44840213D01*
X100444951Y-45012179D01*
X100348444Y-45201585D01*
X100282753Y-45403760D01*
X100249500Y-45613713D01*
X100249500Y-45826286D01*
X100282753Y-46036239D01*
X100348444Y-46238414D01*
X100444951Y-46427820D01*
X100569890Y-46599786D01*
X100720213Y-46750109D01*
X100892182Y-46875050D01*
X100900946Y-46879516D01*
X100951742Y-46927491D01*
X100968536Y-46995312D01*
X100945998Y-47061447D01*
X100900946Y-47100484D01*
X100892182Y-47104949D01*
X100720213Y-47229890D01*
X100569890Y-47380213D01*
X100444951Y-47552179D01*
X100348444Y-47741585D01*
X100282753Y-47943760D01*
X100249500Y-48153713D01*
X100249500Y-48366286D01*
X100282753Y-48576239D01*
X100348444Y-48778414D01*
X100444951Y-48967820D01*
X100569890Y-49139786D01*
X100720213Y-49290109D01*
X100892182Y-49415050D01*
X100900946Y-49419516D01*
X100951742Y-49467491D01*
X100968536Y-49535312D01*
X100945998Y-49601447D01*
X100900946Y-49640484D01*
X100892182Y-49644949D01*
X100720213Y-49769890D01*
X100569890Y-49920213D01*
X100444951Y-50092179D01*
X100348444Y-50281585D01*
X100282753Y-50483760D01*
X100249500Y-50693713D01*
X100249500Y-50906286D01*
X100282753Y-51116239D01*
X100348444Y-51318414D01*
X100444951Y-51507820D01*
X100569890Y-51679786D01*
X100720213Y-51830109D01*
X100892182Y-51955050D01*
X100900946Y-51959516D01*
X100951742Y-52007491D01*
X100968536Y-52075312D01*
X100945998Y-52141447D01*
X100900946Y-52180484D01*
X100892182Y-52184949D01*
X100720213Y-52309890D01*
X100569890Y-52460213D01*
X100444951Y-52632179D01*
X100348444Y-52821585D01*
X100282753Y-53023760D01*
X100249500Y-53233713D01*
X100249500Y-53446286D01*
X100282753Y-53656239D01*
X100348444Y-53858414D01*
X100444951Y-54047820D01*
X100569890Y-54219786D01*
X100720213Y-54370109D01*
X100892182Y-54495050D01*
X100900946Y-54499516D01*
X100951742Y-54547491D01*
X100968536Y-54615312D01*
X100945998Y-54681447D01*
X100900946Y-54720484D01*
X100892182Y-54724949D01*
X100720213Y-54849890D01*
X100569890Y-55000213D01*
X100444951Y-55172179D01*
X100348444Y-55361585D01*
X100282753Y-55563760D01*
X100249500Y-55773713D01*
X100249500Y-55986286D01*
X100282753Y-56196239D01*
X100348444Y-56398414D01*
X100444951Y-56587820D01*
X100569890Y-56759786D01*
X100720213Y-56910109D01*
X100892182Y-57035050D01*
X100900946Y-57039516D01*
X100951742Y-57087491D01*
X100968536Y-57155312D01*
X100945998Y-57221447D01*
X100900946Y-57260484D01*
X100892182Y-57264949D01*
X100720213Y-57389890D01*
X100569890Y-57540213D01*
X100444951Y-57712179D01*
X100348444Y-57901585D01*
X100282753Y-58103760D01*
X100249500Y-58313713D01*
X100249500Y-58526286D01*
X100282753Y-58736239D01*
X100348444Y-58938414D01*
X100444951Y-59127820D01*
X100569890Y-59299786D01*
X100720213Y-59450109D01*
X100892182Y-59575050D01*
X100900946Y-59579516D01*
X100951742Y-59627491D01*
X100968536Y-59695312D01*
X100945998Y-59761447D01*
X100900946Y-59800484D01*
X100892182Y-59804949D01*
X100720213Y-59929890D01*
X100569890Y-60080213D01*
X100444951Y-60252179D01*
X100348444Y-60441585D01*
X100282753Y-60643760D01*
X100249500Y-60853713D01*
X100249500Y-61066286D01*
X100282753Y-61276239D01*
X100348444Y-61478414D01*
X100444951Y-61667820D01*
X100569890Y-61839786D01*
X100720213Y-61990109D01*
X100892182Y-62115050D01*
X100900946Y-62119516D01*
X100951742Y-62167491D01*
X100968536Y-62235312D01*
X100945998Y-62301447D01*
X100900946Y-62340484D01*
X100892182Y-62344949D01*
X100720213Y-62469890D01*
X100569890Y-62620213D01*
X100444951Y-62792179D01*
X100348444Y-62981585D01*
X100282753Y-63183760D01*
X100249500Y-63393713D01*
X100249500Y-63606286D01*
X100282753Y-63816239D01*
X100348444Y-64018414D01*
X100444951Y-64207820D01*
X100569890Y-64379786D01*
X100720213Y-64530109D01*
X100892182Y-64655050D01*
X100900946Y-64659516D01*
X100951742Y-64707491D01*
X100968536Y-64775312D01*
X100945998Y-64841447D01*
X100900946Y-64880484D01*
X100892182Y-64884949D01*
X100720213Y-65009890D01*
X100569890Y-65160213D01*
X100444951Y-65332179D01*
X100348444Y-65521585D01*
X100282753Y-65723760D01*
X100249500Y-65933713D01*
X100249500Y-66146286D01*
X100282753Y-66356239D01*
X100348444Y-66558414D01*
X100444951Y-66747820D01*
X100569890Y-66919786D01*
X100720213Y-67070109D01*
X100892182Y-67195050D01*
X100900946Y-67199516D01*
X100951742Y-67247491D01*
X100968536Y-67315312D01*
X100945998Y-67381447D01*
X100900946Y-67420484D01*
X100892182Y-67424949D01*
X100720213Y-67549890D01*
X100569890Y-67700213D01*
X100444951Y-67872179D01*
X100348444Y-68061585D01*
X100282753Y-68263760D01*
X100249500Y-68473713D01*
X100249500Y-68686286D01*
X100282753Y-68896239D01*
X100348444Y-69098414D01*
X100444951Y-69287820D01*
X100569890Y-69459786D01*
X100720213Y-69610109D01*
X100892182Y-69735050D01*
X100900946Y-69739516D01*
X100951742Y-69787491D01*
X100968536Y-69855312D01*
X100945998Y-69921447D01*
X100900946Y-69960484D01*
X100892182Y-69964949D01*
X100720213Y-70089890D01*
X100569890Y-70240213D01*
X100444951Y-70412179D01*
X100348444Y-70601585D01*
X100282753Y-70803760D01*
X100249500Y-71013713D01*
X100249500Y-71226286D01*
X100282753Y-71436239D01*
X100348444Y-71638414D01*
X100444951Y-71827820D01*
X100569890Y-71999786D01*
X100720213Y-72150109D01*
X100892182Y-72275050D01*
X100900946Y-72279516D01*
X100951742Y-72327491D01*
X100968536Y-72395312D01*
X100945998Y-72461447D01*
X100900946Y-72500484D01*
X100892182Y-72504949D01*
X100720213Y-72629890D01*
X100569890Y-72780213D01*
X100444951Y-72952179D01*
X100348444Y-73141585D01*
X100282753Y-73343760D01*
X100249500Y-73553713D01*
X100249500Y-73766286D01*
X100282753Y-73976239D01*
X100348444Y-74178414D01*
X100444951Y-74367820D01*
X100569890Y-74539786D01*
X100720213Y-74690109D01*
X100892179Y-74815048D01*
X100892181Y-74815049D01*
X100892184Y-74815051D01*
X100901493Y-74819794D01*
X100952290Y-74867766D01*
X100969087Y-74935587D01*
X100946552Y-75001722D01*
X100901505Y-75040760D01*
X100892446Y-75045376D01*
X100892440Y-75045380D01*
X100838282Y-75084727D01*
X100838282Y-75084728D01*
X101470591Y-75717037D01*
X101407007Y-75734075D01*
X101292993Y-75799901D01*
X101199901Y-75892993D01*
X101134075Y-76007007D01*
X101117037Y-76070591D01*
X100484728Y-75438282D01*
X100484727Y-75438282D01*
X100445380Y-75492439D01*
X100348904Y-75681782D01*
X100283242Y-75883869D01*
X100283242Y-75883872D01*
X100250000Y-76093753D01*
X100250000Y-76306246D01*
X100283242Y-76516127D01*
X100283242Y-76516130D01*
X100348904Y-76718217D01*
X100445375Y-76907550D01*
X100484728Y-76961716D01*
X101117037Y-76329408D01*
X101134075Y-76392993D01*
X101199901Y-76507007D01*
X101292993Y-76600099D01*
X101407007Y-76665925D01*
X101470591Y-76682962D01*
X100869971Y-77283581D01*
X100948711Y-77400895D01*
X100949920Y-77404729D01*
X100952844Y-77407491D01*
X100960343Y-77437778D01*
X100969727Y-77467529D01*
X100968671Y-77471408D01*
X100969638Y-77475312D01*
X100959573Y-77504844D01*
X100951383Y-77534947D01*
X100948397Y-77537640D01*
X100947100Y-77541447D01*
X100902051Y-77580483D01*
X100892440Y-77585380D01*
X100838282Y-77624727D01*
X100838282Y-77624728D01*
X101470591Y-78257037D01*
X101407007Y-78274075D01*
X101292993Y-78339901D01*
X101199901Y-78432993D01*
X101134075Y-78547007D01*
X101117037Y-78610591D01*
X100484728Y-77978282D01*
X100484727Y-77978282D01*
X100445380Y-78032439D01*
X100348904Y-78221782D01*
X100283242Y-78423869D01*
X100283242Y-78423872D01*
X100250000Y-78633753D01*
X100250000Y-78846246D01*
X100283242Y-79056127D01*
X100283242Y-79056130D01*
X100348904Y-79258217D01*
X100445375Y-79447550D01*
X100484728Y-79501716D01*
X101117037Y-78869408D01*
X101134075Y-78932993D01*
X101199901Y-79047007D01*
X101292993Y-79140099D01*
X101407007Y-79205925D01*
X101470590Y-79222962D01*
X100838282Y-79855269D01*
X100838282Y-79855270D01*
X100892449Y-79894624D01*
X101081782Y-79991095D01*
X101283870Y-80056757D01*
X101493754Y-80090000D01*
X101706246Y-80090000D01*
X101916127Y-80056757D01*
X101916130Y-80056757D01*
X102118217Y-79991095D01*
X102307554Y-79894622D01*
X102361716Y-79855270D01*
X102361717Y-79855270D01*
X101729408Y-79222962D01*
X101792993Y-79205925D01*
X101907007Y-79140099D01*
X102000099Y-79047007D01*
X102065925Y-78932993D01*
X102082962Y-78869409D01*
X102715270Y-79501717D01*
X102715270Y-79501716D01*
X102754622Y-79447554D01*
X102851095Y-79258217D01*
X102916757Y-79056130D01*
X102916757Y-79056127D01*
X102950000Y-78846246D01*
X102950000Y-78633753D01*
X102916757Y-78423872D01*
X102916757Y-78423869D01*
X102851095Y-78221782D01*
X102754624Y-78032449D01*
X102715270Y-77978282D01*
X102715269Y-77978282D01*
X102082962Y-78610590D01*
X102065925Y-78547007D01*
X102000099Y-78432993D01*
X101907007Y-78339901D01*
X101792993Y-78274075D01*
X101729409Y-78257037D01*
X102361716Y-77624728D01*
X102307550Y-77585375D01*
X102297954Y-77580486D01*
X102247157Y-77532512D01*
X102230361Y-77464692D01*
X102252897Y-77398556D01*
X102297954Y-77359514D01*
X102307554Y-77354622D01*
X102361716Y-77315270D01*
X102361717Y-77315270D01*
X101729408Y-76682962D01*
X101792993Y-76665925D01*
X101907007Y-76600099D01*
X102000099Y-76507007D01*
X102065925Y-76392993D01*
X102082962Y-76329409D01*
X102715270Y-76961717D01*
X102715270Y-76961716D01*
X102754622Y-76907554D01*
X102851095Y-76718217D01*
X102916757Y-76516130D01*
X102916757Y-76516127D01*
X102950000Y-76306246D01*
X102950000Y-76093753D01*
X102916757Y-75883872D01*
X102916757Y-75883869D01*
X102851095Y-75681782D01*
X102754624Y-75492449D01*
X102715270Y-75438282D01*
X102715269Y-75438282D01*
X102082962Y-76070590D01*
X102065925Y-76007007D01*
X102000099Y-75892993D01*
X101907007Y-75799901D01*
X101792993Y-75734075D01*
X101729409Y-75717037D01*
X102361716Y-75084728D01*
X102307547Y-75045373D01*
X102307547Y-75045372D01*
X102298500Y-75040763D01*
X102247706Y-74992788D01*
X102230912Y-74924966D01*
X102253451Y-74858832D01*
X102298508Y-74819793D01*
X102307816Y-74815051D01*
X102387007Y-74757515D01*
X102479786Y-74690109D01*
X102479788Y-74690106D01*
X102479792Y-74690104D01*
X102630104Y-74539792D01*
X102630106Y-74539788D01*
X102630109Y-74539786D01*
X102755048Y-74367820D01*
X102755047Y-74367820D01*
X102755051Y-74367816D01*
X102851557Y-74178412D01*
X102917246Y-73976243D01*
X102950500Y-73766287D01*
X102950500Y-73553713D01*
X102917246Y-73343757D01*
X102851557Y-73141588D01*
X102755051Y-72952184D01*
X102755049Y-72952181D01*
X102755048Y-72952179D01*
X102630109Y-72780213D01*
X102479786Y-72629890D01*
X102307820Y-72504951D01*
X102307115Y-72504591D01*
X102299054Y-72500485D01*
X102248259Y-72452512D01*
X102231463Y-72384692D01*
X102253999Y-72318556D01*
X102299054Y-72279515D01*
X102307816Y-72275051D01*
X102329789Y-72259086D01*
X102479786Y-72150109D01*
X102479788Y-72150106D01*
X102479792Y-72150104D01*
X102630104Y-71999792D01*
X102630106Y-71999788D01*
X102630109Y-71999786D01*
X102755048Y-71827820D01*
X102755047Y-71827820D01*
X102755051Y-71827816D01*
X102851557Y-71638412D01*
X102917246Y-71436243D01*
X102950500Y-71226287D01*
X102950500Y-71013713D01*
X102917246Y-70803757D01*
X102851557Y-70601588D01*
X102755051Y-70412184D01*
X102755049Y-70412181D01*
X102755048Y-70412179D01*
X102630109Y-70240213D01*
X102479786Y-70089890D01*
X102307820Y-69964951D01*
X102307115Y-69964591D01*
X102299054Y-69960485D01*
X102248259Y-69912512D01*
X102231463Y-69844692D01*
X102253999Y-69778556D01*
X102299054Y-69739515D01*
X102307816Y-69735051D01*
X102329789Y-69719086D01*
X102479786Y-69610109D01*
X102479788Y-69610106D01*
X102479792Y-69610104D01*
X102630104Y-69459792D01*
X102630106Y-69459788D01*
X102630109Y-69459786D01*
X102755048Y-69287820D01*
X102755047Y-69287820D01*
X102755051Y-69287816D01*
X102851557Y-69098412D01*
X102917246Y-68896243D01*
X102950500Y-68686287D01*
X102950500Y-68473713D01*
X102917246Y-68263757D01*
X102851557Y-68061588D01*
X102755051Y-67872184D01*
X102755049Y-67872181D01*
X102755048Y-67872179D01*
X102630109Y-67700213D01*
X102479786Y-67549890D01*
X102307820Y-67424951D01*
X102307115Y-67424591D01*
X102299054Y-67420485D01*
X102248259Y-67372512D01*
X102231463Y-67304692D01*
X102253999Y-67238556D01*
X102299054Y-67199515D01*
X102307816Y-67195051D01*
X102329789Y-67179086D01*
X102479786Y-67070109D01*
X102479788Y-67070106D01*
X102479792Y-67070104D01*
X102630104Y-66919792D01*
X102630106Y-66919788D01*
X102630109Y-66919786D01*
X102755048Y-66747820D01*
X102755047Y-66747820D01*
X102755051Y-66747816D01*
X102851557Y-66558412D01*
X102917246Y-66356243D01*
X102950500Y-66146287D01*
X102950500Y-65933713D01*
X102917246Y-65723757D01*
X102851557Y-65521588D01*
X102755051Y-65332184D01*
X102755049Y-65332181D01*
X102755048Y-65332179D01*
X102630109Y-65160213D01*
X102479786Y-65009890D01*
X102307820Y-64884951D01*
X102307115Y-64884591D01*
X102299054Y-64880485D01*
X102248259Y-64832512D01*
X102231463Y-64764692D01*
X102253999Y-64698556D01*
X102299054Y-64659515D01*
X102307816Y-64655051D01*
X102329789Y-64639086D01*
X102479786Y-64530109D01*
X102479788Y-64530106D01*
X102479792Y-64530104D01*
X102630104Y-64379792D01*
X102630106Y-64379788D01*
X102630109Y-64379786D01*
X102755048Y-64207820D01*
X102755047Y-64207820D01*
X102755051Y-64207816D01*
X102851557Y-64018412D01*
X102917246Y-63816243D01*
X102950500Y-63606287D01*
X102950500Y-63393713D01*
X102917246Y-63183757D01*
X102851557Y-62981588D01*
X102755051Y-62792184D01*
X102755049Y-62792181D01*
X102755048Y-62792179D01*
X102630109Y-62620213D01*
X102479786Y-62469890D01*
X102307820Y-62344951D01*
X102307115Y-62344591D01*
X102299054Y-62340485D01*
X102248259Y-62292512D01*
X102231463Y-62224692D01*
X102253999Y-62158556D01*
X102299054Y-62119515D01*
X102307816Y-62115051D01*
X102329789Y-62099086D01*
X102479786Y-61990109D01*
X102479788Y-61990106D01*
X102479792Y-61990104D01*
X102630104Y-61839792D01*
X102630106Y-61839788D01*
X102630109Y-61839786D01*
X102755048Y-61667820D01*
X102755047Y-61667820D01*
X102755051Y-61667816D01*
X102851557Y-61478412D01*
X102917246Y-61276243D01*
X102950500Y-61066287D01*
X102950500Y-60853713D01*
X102917246Y-60643757D01*
X102851557Y-60441588D01*
X102755051Y-60252184D01*
X102755049Y-60252181D01*
X102755048Y-60252179D01*
X102630109Y-60080213D01*
X102479786Y-59929890D01*
X102307820Y-59804951D01*
X102307115Y-59804591D01*
X102299054Y-59800485D01*
X102248259Y-59752512D01*
X102231463Y-59684692D01*
X102253999Y-59618556D01*
X102299054Y-59579515D01*
X102307816Y-59575051D01*
X102329789Y-59559086D01*
X102479786Y-59450109D01*
X102479788Y-59450106D01*
X102479792Y-59450104D01*
X102630104Y-59299792D01*
X102630106Y-59299788D01*
X102630109Y-59299786D01*
X102755048Y-59127820D01*
X102755047Y-59127820D01*
X102755051Y-59127816D01*
X102851557Y-58938412D01*
X102917246Y-58736243D01*
X102950500Y-58526287D01*
X102950500Y-58313713D01*
X102917246Y-58103757D01*
X102851557Y-57901588D01*
X102755051Y-57712184D01*
X102755049Y-57712181D01*
X102755048Y-57712179D01*
X102630109Y-57540213D01*
X102479786Y-57389890D01*
X102307820Y-57264951D01*
X102307115Y-57264591D01*
X102299054Y-57260485D01*
X102248259Y-57212512D01*
X102231463Y-57144692D01*
X102253999Y-57078556D01*
X102299054Y-57039515D01*
X102307816Y-57035051D01*
X102329789Y-57019086D01*
X102479786Y-56910109D01*
X102479788Y-56910106D01*
X102479792Y-56910104D01*
X102630104Y-56759792D01*
X102630106Y-56759788D01*
X102630109Y-56759786D01*
X102755048Y-56587820D01*
X102755047Y-56587820D01*
X102755051Y-56587816D01*
X102851557Y-56398412D01*
X102917246Y-56196243D01*
X102950500Y-55986287D01*
X102950500Y-55773713D01*
X102917246Y-55563757D01*
X102851557Y-55361588D01*
X102755051Y-55172184D01*
X102755049Y-55172181D01*
X102755048Y-55172179D01*
X102630109Y-55000213D01*
X102479786Y-54849890D01*
X102307820Y-54724951D01*
X102307115Y-54724591D01*
X102299054Y-54720485D01*
X102248259Y-54672512D01*
X102231463Y-54604692D01*
X102253999Y-54538556D01*
X102299054Y-54499515D01*
X102307816Y-54495051D01*
X102329789Y-54479086D01*
X102479786Y-54370109D01*
X102479788Y-54370106D01*
X102479792Y-54370104D01*
X102630104Y-54219792D01*
X102630106Y-54219788D01*
X102630109Y-54219786D01*
X102755048Y-54047820D01*
X102755047Y-54047820D01*
X102755051Y-54047816D01*
X102851557Y-53858412D01*
X102917246Y-53656243D01*
X102950500Y-53446287D01*
X102950500Y-53233713D01*
X102917246Y-53023757D01*
X102851557Y-52821588D01*
X102755051Y-52632184D01*
X102755049Y-52632181D01*
X102755048Y-52632179D01*
X102630109Y-52460213D01*
X102479786Y-52309890D01*
X102307820Y-52184951D01*
X102307115Y-52184591D01*
X102299054Y-52180485D01*
X102248259Y-52132512D01*
X102231463Y-52064692D01*
X102253999Y-51998556D01*
X102299054Y-51959515D01*
X102307816Y-51955051D01*
X102329789Y-51939086D01*
X102479786Y-51830109D01*
X102479788Y-51830106D01*
X102479792Y-51830104D01*
X102630104Y-51679792D01*
X102630106Y-51679788D01*
X102630109Y-51679786D01*
X102755048Y-51507820D01*
X102755047Y-51507820D01*
X102755051Y-51507816D01*
X102851557Y-51318412D01*
X102917246Y-51116243D01*
X102950500Y-50906287D01*
X102950500Y-50693713D01*
X102917246Y-50483757D01*
X102851557Y-50281588D01*
X102755051Y-50092184D01*
X102755049Y-50092181D01*
X102755048Y-50092179D01*
X102630109Y-49920213D01*
X102479786Y-49769890D01*
X102307820Y-49644951D01*
X102307115Y-49644591D01*
X102299054Y-49640485D01*
X102248259Y-49592512D01*
X102231463Y-49524692D01*
X102253999Y-49458556D01*
X102299054Y-49419515D01*
X102307816Y-49415051D01*
X102329789Y-49399086D01*
X102479786Y-49290109D01*
X102479788Y-49290106D01*
X102479792Y-49290104D01*
X102630104Y-49139792D01*
X102630106Y-49139788D01*
X102630109Y-49139786D01*
X102755048Y-48967820D01*
X102755047Y-48967820D01*
X102755051Y-48967816D01*
X102851557Y-48778412D01*
X102917246Y-48576243D01*
X102950500Y-48366287D01*
X102950500Y-48153713D01*
X102917246Y-47943757D01*
X102851557Y-47741588D01*
X102755051Y-47552184D01*
X102755049Y-47552181D01*
X102755048Y-47552179D01*
X102630109Y-47380213D01*
X102479786Y-47229890D01*
X102307820Y-47104951D01*
X102307115Y-47104591D01*
X102299054Y-47100485D01*
X102248259Y-47052512D01*
X102231463Y-46984692D01*
X102253999Y-46918556D01*
X102299054Y-46879515D01*
X102307816Y-46875051D01*
X102329789Y-46859086D01*
X102479786Y-46750109D01*
X102479788Y-46750106D01*
X102479792Y-46750104D01*
X102630104Y-46599792D01*
X102630106Y-46599788D01*
X102630109Y-46599786D01*
X102755048Y-46427820D01*
X102755047Y-46427820D01*
X102755051Y-46427816D01*
X102851557Y-46238412D01*
X102917246Y-46036243D01*
X102950500Y-45826287D01*
X102950500Y-45613713D01*
X102917246Y-45403757D01*
X102851557Y-45201588D01*
X102755051Y-45012184D01*
X102755049Y-45012181D01*
X102755048Y-45012179D01*
X102630109Y-44840213D01*
X102479786Y-44689890D01*
X102307820Y-44564951D01*
X102307115Y-44564591D01*
X102299054Y-44560485D01*
X102248259Y-44512512D01*
X102231463Y-44444692D01*
X102253999Y-44378556D01*
X102299054Y-44339515D01*
X102307816Y-44335051D01*
X102329789Y-44319086D01*
X102479786Y-44210109D01*
X102479788Y-44210106D01*
X102479792Y-44210104D01*
X102630104Y-44059792D01*
X102630106Y-44059788D01*
X102630109Y-44059786D01*
X102755048Y-43887820D01*
X102755047Y-43887820D01*
X102755051Y-43887816D01*
X102851557Y-43698412D01*
X102917246Y-43496243D01*
X102950500Y-43286287D01*
X102950500Y-43073713D01*
X102917246Y-42863757D01*
X102851557Y-42661588D01*
X102755051Y-42472184D01*
X102755049Y-42472181D01*
X102755048Y-42472179D01*
X102630109Y-42300213D01*
X102479786Y-42149890D01*
X102307820Y-42024951D01*
X102307115Y-42024591D01*
X102299054Y-42020485D01*
X102248259Y-41972512D01*
X102231463Y-41904692D01*
X102253999Y-41838556D01*
X102299054Y-41799515D01*
X102307816Y-41795051D01*
X102329789Y-41779086D01*
X102479786Y-41670109D01*
X102479788Y-41670106D01*
X102479792Y-41670104D01*
X102630104Y-41519792D01*
X102630106Y-41519788D01*
X102630109Y-41519786D01*
X102755048Y-41347820D01*
X102755047Y-41347820D01*
X102755051Y-41347816D01*
X102851557Y-41158412D01*
X102917246Y-40956243D01*
X102950500Y-40746287D01*
X102950500Y-40533713D01*
X102917246Y-40323757D01*
X102851557Y-40121588D01*
X102755051Y-39932184D01*
X102755049Y-39932181D01*
X102755048Y-39932179D01*
X102630109Y-39760213D01*
X102479786Y-39609890D01*
X102307820Y-39484951D01*
X102307115Y-39484591D01*
X102299054Y-39480485D01*
X102248259Y-39432512D01*
X102231463Y-39364692D01*
X102253999Y-39298556D01*
X102299054Y-39259515D01*
X102307816Y-39255051D01*
X102329789Y-39239086D01*
X102479786Y-39130109D01*
X102479788Y-39130106D01*
X102479792Y-39130104D01*
X102630104Y-38979792D01*
X102630106Y-38979788D01*
X102630109Y-38979786D01*
X102755048Y-38807820D01*
X102755047Y-38807820D01*
X102755051Y-38807816D01*
X102851557Y-38618412D01*
X102917246Y-38416243D01*
X102950500Y-38206287D01*
X102950500Y-37993713D01*
X102917246Y-37783757D01*
X102851557Y-37581588D01*
X102755051Y-37392184D01*
X102755049Y-37392181D01*
X102755048Y-37392179D01*
X102630109Y-37220213D01*
X102479786Y-37069890D01*
X102307820Y-36944951D01*
X102307115Y-36944591D01*
X102299054Y-36940485D01*
X102248259Y-36892512D01*
X102231463Y-36824692D01*
X102253999Y-36758556D01*
X102299054Y-36719515D01*
X102307816Y-36715051D01*
X102329789Y-36699086D01*
X102479786Y-36590109D01*
X102479788Y-36590106D01*
X102479792Y-36590104D01*
X102630104Y-36439792D01*
X102630106Y-36439788D01*
X102630109Y-36439786D01*
X102755048Y-36267820D01*
X102755047Y-36267820D01*
X102755051Y-36267816D01*
X102851557Y-36078412D01*
X102917246Y-35876243D01*
X102950500Y-35666287D01*
X102950500Y-35453713D01*
X102917246Y-35243757D01*
X102851557Y-35041588D01*
X102755051Y-34852184D01*
X102755049Y-34852181D01*
X102755048Y-34852179D01*
X102630109Y-34680213D01*
X102479786Y-34529890D01*
X102307820Y-34404951D01*
X102307115Y-34404591D01*
X102299054Y-34400485D01*
X102248259Y-34352512D01*
X102231463Y-34284692D01*
X102253999Y-34218556D01*
X102299054Y-34179515D01*
X102307816Y-34175051D01*
X102447728Y-34073400D01*
X102479786Y-34050109D01*
X102479788Y-34050106D01*
X102479792Y-34050104D01*
X102630104Y-33899792D01*
X102630106Y-33899788D01*
X102630109Y-33899786D01*
X102755048Y-33727820D01*
X102755047Y-33727820D01*
X102755051Y-33727816D01*
X102851557Y-33538412D01*
X102917246Y-33336243D01*
X102950500Y-33126287D01*
X102950500Y-32913713D01*
X102917246Y-32703757D01*
X102851557Y-32501588D01*
X102755051Y-32312184D01*
X102755049Y-32312181D01*
X102755048Y-32312179D01*
X102630109Y-32140213D01*
X102479786Y-31989890D01*
X102307820Y-31864951D01*
X102307115Y-31864591D01*
X102299054Y-31860485D01*
X102248259Y-31812512D01*
X102231463Y-31744692D01*
X102253999Y-31678556D01*
X102299054Y-31639515D01*
X102307816Y-31635051D01*
X102394138Y-31572335D01*
X102479786Y-31510109D01*
X102479788Y-31510106D01*
X102479792Y-31510104D01*
X102630104Y-31359792D01*
X102630106Y-31359788D01*
X102630109Y-31359786D01*
X102755048Y-31187820D01*
X102755047Y-31187820D01*
X102755051Y-31187816D01*
X102851557Y-30998412D01*
X102917246Y-30796243D01*
X102950500Y-30586287D01*
X102950500Y-30373713D01*
X102917246Y-30163757D01*
X102851557Y-29961588D01*
X102755051Y-29772184D01*
X102755049Y-29772181D01*
X102755048Y-29772179D01*
X102630109Y-29600213D01*
X102479786Y-29449890D01*
X102307820Y-29324951D01*
X102302917Y-29322453D01*
X102299054Y-29320485D01*
X102248259Y-29272512D01*
X102231463Y-29204692D01*
X102253999Y-29138556D01*
X102299054Y-29099515D01*
X102307816Y-29095051D01*
X102362537Y-29055294D01*
X102479786Y-28970109D01*
X102479788Y-28970106D01*
X102479792Y-28970104D01*
X102630104Y-28819792D01*
X102630106Y-28819788D01*
X102630109Y-28819786D01*
X102755048Y-28647820D01*
X102755047Y-28647820D01*
X102755051Y-28647816D01*
X102851557Y-28458412D01*
X102917246Y-28256243D01*
X102950500Y-28046287D01*
X102950500Y-27833713D01*
X102917246Y-27623757D01*
X102851557Y-27421588D01*
X102755051Y-27232184D01*
X102755049Y-27232181D01*
X102755048Y-27232179D01*
X102630109Y-27060213D01*
X102516181Y-26946285D01*
X102482696Y-26884962D01*
X102487680Y-26815270D01*
X102529552Y-26759337D01*
X102560529Y-26742422D01*
X102692086Y-26693354D01*
X102692093Y-26693350D01*
X102807187Y-26607190D01*
X102807190Y-26607187D01*
X102893350Y-26492093D01*
X102893354Y-26492086D01*
X102943596Y-26357379D01*
X102943598Y-26357372D01*
X102949999Y-26297844D01*
X102950000Y-26297827D01*
X102950000Y-25650000D01*
X102033012Y-25650000D01*
X102065925Y-25592993D01*
X102100000Y-25465826D01*
X102100000Y-25334174D01*
X102065925Y-25207007D01*
X102033012Y-25150000D01*
X102950000Y-25150000D01*
X102950000Y-24502172D01*
X102949999Y-24502155D01*
X102943598Y-24442627D01*
X102943596Y-24442620D01*
X102893354Y-24307913D01*
X102893350Y-24307906D01*
X102807190Y-24192812D01*
X102807187Y-24192809D01*
X102692093Y-24106649D01*
X102692086Y-24106645D01*
X102557379Y-24056403D01*
X102557372Y-24056401D01*
X102497844Y-24050000D01*
X101850000Y-24050000D01*
X101850000Y-24966988D01*
X101792993Y-24934075D01*
X101665826Y-24900000D01*
X101534174Y-24900000D01*
X101407007Y-24934075D01*
X101350000Y-24966988D01*
X101350000Y-24050000D01*
X100702155Y-24050000D01*
X100642627Y-24056401D01*
X100642620Y-24056403D01*
X100507913Y-24106645D01*
X100507906Y-24106649D01*
X100392812Y-24192809D01*
X100392809Y-24192812D01*
X100306649Y-24307906D01*
X100306645Y-24307913D01*
X100256403Y-24442620D01*
X100256401Y-24442627D01*
X100250000Y-24502155D01*
X100250000Y-25150000D01*
X101166988Y-25150000D01*
X101134075Y-25207007D01*
X101100000Y-25334174D01*
X101100000Y-25465826D01*
X101134075Y-25592993D01*
X101166988Y-25650000D01*
X100250000Y-25650000D01*
X100250000Y-26297844D01*
X100256401Y-26357372D01*
X100256403Y-26357379D01*
X100306645Y-26492086D01*
X100306649Y-26492093D01*
X100392809Y-26607187D01*
X100392812Y-26607190D01*
X100507906Y-26693350D01*
X100507913Y-26693354D01*
X100639470Y-26742422D01*
X100695404Y-26784293D01*
X100719821Y-26849758D01*
X100704969Y-26918031D01*
X100683819Y-26946285D01*
X100569889Y-27060215D01*
X100444951Y-27232179D01*
X100348444Y-27421585D01*
X100282753Y-27623760D01*
X100249500Y-27833713D01*
X77550500Y-27833713D01*
X77517246Y-27623760D01*
X77517246Y-27623757D01*
X77451557Y-27421588D01*
X77355051Y-27232184D01*
X77355049Y-27232181D01*
X77355048Y-27232179D01*
X77230109Y-27060213D01*
X77117819Y-26947923D01*
X77084334Y-26886600D01*
X77081500Y-26860242D01*
X77081500Y-26858526D01*
X77101185Y-26791487D01*
X77153989Y-26745732D01*
X77162167Y-26742344D01*
X77292328Y-26693797D01*
X77292327Y-26693797D01*
X77292331Y-26693796D01*
X77407546Y-26607546D01*
X77493796Y-26492331D01*
X77544091Y-26357483D01*
X77550500Y-26297873D01*
X77550499Y-24502128D01*
X77544091Y-24442517D01*
X77493884Y-24307906D01*
X77493797Y-24307671D01*
X77493793Y-24307664D01*
X77407547Y-24192455D01*
X77407544Y-24192452D01*
X77292335Y-24106206D01*
X77292328Y-24106202D01*
X77157482Y-24055908D01*
X77157483Y-24055908D01*
X77097883Y-24049501D01*
X77097881Y-24049500D01*
X77097873Y-24049500D01*
X77097864Y-24049500D01*
X75302129Y-24049500D01*
X75302123Y-24049501D01*
X75242516Y-24055908D01*
X75107671Y-24106202D01*
X75107664Y-24106206D01*
X74992455Y-24192452D01*
X74992452Y-24192455D01*
X74906206Y-24307664D01*
X74906202Y-24307671D01*
X74855908Y-24442517D01*
X74849501Y-24502116D01*
X74849501Y-24502123D01*
X74849500Y-24502135D01*
X74500500Y-24502135D01*
X74500500Y-23624500D01*
X74520185Y-23557461D01*
X74572989Y-23511706D01*
X74624500Y-23500500D01*
X103375500Y-23500500D01*
X103442539Y-23520185D01*
G37*
%TD.AperFunction*%
%TD*%
M02*
