%TF.GenerationSoftware,KiCad,Pcbnew,10.0.5-10.0.5~ubuntu24.04.1*%
%TF.CreationDate,2026-08-25T15:28:09+02:00*%
%TF.ProjectId,T190_adapter,54313930-5f61-4646-9170-7465722e6b69,rev?*%
%TF.SameCoordinates,Original*%
%TF.FileFunction,Legend,Top*%
%TF.FilePolarity,Positive*%
%FSLAX46Y46*%
G04 Gerber Fmt 4.6, Leading zero omitted, Abs format (unit mm)*
G04 Created by KiCad (PCBNEW 10.0.5-10.0.5~ubuntu24.04.1) date 2026-08-25 15:28:09*
%MOMM*%
%LPD*%
G01*
G04 APERTURE LIST*
%ADD10C,0.125000*%
%ADD11C,0.250000*%
%ADD12C,0.150000*%
%ADD13C,0.300000*%
%ADD14C,0.120000*%
%ADD15C,0.000000*%
G04 APERTURE END LIST*
D10*
X83036191Y-24601231D02*
X83369524Y-25601231D01*
X83369524Y-25601231D02*
X83702857Y-24601231D01*
X84036191Y-25601231D02*
X84036191Y-24601231D01*
X84464762Y-25553612D02*
X84607619Y-25601231D01*
X84607619Y-25601231D02*
X84845714Y-25601231D01*
X84845714Y-25601231D02*
X84940952Y-25553612D01*
X84940952Y-25553612D02*
X84988571Y-25505992D01*
X84988571Y-25505992D02*
X85036190Y-25410754D01*
X85036190Y-25410754D02*
X85036190Y-25315516D01*
X85036190Y-25315516D02*
X84988571Y-25220278D01*
X84988571Y-25220278D02*
X84940952Y-25172659D01*
X84940952Y-25172659D02*
X84845714Y-25125040D01*
X84845714Y-25125040D02*
X84655238Y-25077421D01*
X84655238Y-25077421D02*
X84560000Y-25029802D01*
X84560000Y-25029802D02*
X84512381Y-24982183D01*
X84512381Y-24982183D02*
X84464762Y-24886945D01*
X84464762Y-24886945D02*
X84464762Y-24791707D01*
X84464762Y-24791707D02*
X84512381Y-24696469D01*
X84512381Y-24696469D02*
X84560000Y-24648850D01*
X84560000Y-24648850D02*
X84655238Y-24601231D01*
X84655238Y-24601231D02*
X84893333Y-24601231D01*
X84893333Y-24601231D02*
X85036190Y-24648850D01*
X85464762Y-25601231D02*
X85464762Y-24601231D01*
X86131428Y-24601231D02*
X86321904Y-24601231D01*
X86321904Y-24601231D02*
X86417142Y-24648850D01*
X86417142Y-24648850D02*
X86512380Y-24744088D01*
X86512380Y-24744088D02*
X86559999Y-24934564D01*
X86559999Y-24934564D02*
X86559999Y-25267897D01*
X86559999Y-25267897D02*
X86512380Y-25458373D01*
X86512380Y-25458373D02*
X86417142Y-25553612D01*
X86417142Y-25553612D02*
X86321904Y-25601231D01*
X86321904Y-25601231D02*
X86131428Y-25601231D01*
X86131428Y-25601231D02*
X86036190Y-25553612D01*
X86036190Y-25553612D02*
X85940952Y-25458373D01*
X85940952Y-25458373D02*
X85893333Y-25267897D01*
X85893333Y-25267897D02*
X85893333Y-24934564D01*
X85893333Y-24934564D02*
X85940952Y-24744088D01*
X85940952Y-24744088D02*
X86036190Y-24648850D01*
X86036190Y-24648850D02*
X86131428Y-24601231D01*
X86988571Y-25601231D02*
X86988571Y-24601231D01*
X86988571Y-24601231D02*
X87559999Y-25601231D01*
X87559999Y-25601231D02*
X87559999Y-24601231D01*
X88655238Y-24601231D02*
X89226666Y-24601231D01*
X88940952Y-25601231D02*
X88940952Y-24601231D01*
X90083809Y-25601231D02*
X89512381Y-25601231D01*
X89798095Y-25601231D02*
X89798095Y-24601231D01*
X89798095Y-24601231D02*
X89702857Y-24744088D01*
X89702857Y-24744088D02*
X89607619Y-24839326D01*
X89607619Y-24839326D02*
X89512381Y-24886945D01*
X90560000Y-25601231D02*
X90750476Y-25601231D01*
X90750476Y-25601231D02*
X90845714Y-25553612D01*
X90845714Y-25553612D02*
X90893333Y-25505992D01*
X90893333Y-25505992D02*
X90988571Y-25363135D01*
X90988571Y-25363135D02*
X91036190Y-25172659D01*
X91036190Y-25172659D02*
X91036190Y-24791707D01*
X91036190Y-24791707D02*
X90988571Y-24696469D01*
X90988571Y-24696469D02*
X90940952Y-24648850D01*
X90940952Y-24648850D02*
X90845714Y-24601231D01*
X90845714Y-24601231D02*
X90655238Y-24601231D01*
X90655238Y-24601231D02*
X90560000Y-24648850D01*
X90560000Y-24648850D02*
X90512381Y-24696469D01*
X90512381Y-24696469D02*
X90464762Y-24791707D01*
X90464762Y-24791707D02*
X90464762Y-25029802D01*
X90464762Y-25029802D02*
X90512381Y-25125040D01*
X90512381Y-25125040D02*
X90560000Y-25172659D01*
X90560000Y-25172659D02*
X90655238Y-25220278D01*
X90655238Y-25220278D02*
X90845714Y-25220278D01*
X90845714Y-25220278D02*
X90940952Y-25172659D01*
X90940952Y-25172659D02*
X90988571Y-25125040D01*
X90988571Y-25125040D02*
X91036190Y-25029802D01*
X91655238Y-24601231D02*
X91750476Y-24601231D01*
X91750476Y-24601231D02*
X91845714Y-24648850D01*
X91845714Y-24648850D02*
X91893333Y-24696469D01*
X91893333Y-24696469D02*
X91940952Y-24791707D01*
X91940952Y-24791707D02*
X91988571Y-24982183D01*
X91988571Y-24982183D02*
X91988571Y-25220278D01*
X91988571Y-25220278D02*
X91940952Y-25410754D01*
X91940952Y-25410754D02*
X91893333Y-25505992D01*
X91893333Y-25505992D02*
X91845714Y-25553612D01*
X91845714Y-25553612D02*
X91750476Y-25601231D01*
X91750476Y-25601231D02*
X91655238Y-25601231D01*
X91655238Y-25601231D02*
X91560000Y-25553612D01*
X91560000Y-25553612D02*
X91512381Y-25505992D01*
X91512381Y-25505992D02*
X91464762Y-25410754D01*
X91464762Y-25410754D02*
X91417143Y-25220278D01*
X91417143Y-25220278D02*
X91417143Y-24982183D01*
X91417143Y-24982183D02*
X91464762Y-24791707D01*
X91464762Y-24791707D02*
X91512381Y-24696469D01*
X91512381Y-24696469D02*
X91560000Y-24648850D01*
X91560000Y-24648850D02*
X91655238Y-24601231D01*
X80750475Y-26544508D02*
X81131427Y-26544508D01*
X80893332Y-26211175D02*
X80893332Y-27068317D01*
X80893332Y-27068317D02*
X80940951Y-27163556D01*
X80940951Y-27163556D02*
X81036189Y-27211175D01*
X81036189Y-27211175D02*
X81131427Y-27211175D01*
X81607618Y-27211175D02*
X81512380Y-27163556D01*
X81512380Y-27163556D02*
X81464761Y-27115936D01*
X81464761Y-27115936D02*
X81417142Y-27020698D01*
X81417142Y-27020698D02*
X81417142Y-26734984D01*
X81417142Y-26734984D02*
X81464761Y-26639746D01*
X81464761Y-26639746D02*
X81512380Y-26592127D01*
X81512380Y-26592127D02*
X81607618Y-26544508D01*
X81607618Y-26544508D02*
X81750475Y-26544508D01*
X81750475Y-26544508D02*
X81845713Y-26592127D01*
X81845713Y-26592127D02*
X81893332Y-26639746D01*
X81893332Y-26639746D02*
X81940951Y-26734984D01*
X81940951Y-26734984D02*
X81940951Y-27020698D01*
X81940951Y-27020698D02*
X81893332Y-27115936D01*
X81893332Y-27115936D02*
X81845713Y-27163556D01*
X81845713Y-27163556D02*
X81750475Y-27211175D01*
X81750475Y-27211175D02*
X81607618Y-27211175D01*
X83464761Y-26687365D02*
X83607618Y-26734984D01*
X83607618Y-26734984D02*
X83655237Y-26782603D01*
X83655237Y-26782603D02*
X83702856Y-26877841D01*
X83702856Y-26877841D02*
X83702856Y-27020698D01*
X83702856Y-27020698D02*
X83655237Y-27115936D01*
X83655237Y-27115936D02*
X83607618Y-27163556D01*
X83607618Y-27163556D02*
X83512380Y-27211175D01*
X83512380Y-27211175D02*
X83131428Y-27211175D01*
X83131428Y-27211175D02*
X83131428Y-26211175D01*
X83131428Y-26211175D02*
X83464761Y-26211175D01*
X83464761Y-26211175D02*
X83559999Y-26258794D01*
X83559999Y-26258794D02*
X83607618Y-26306413D01*
X83607618Y-26306413D02*
X83655237Y-26401651D01*
X83655237Y-26401651D02*
X83655237Y-26496889D01*
X83655237Y-26496889D02*
X83607618Y-26592127D01*
X83607618Y-26592127D02*
X83559999Y-26639746D01*
X83559999Y-26639746D02*
X83464761Y-26687365D01*
X83464761Y-26687365D02*
X83131428Y-26687365D01*
X84131428Y-27211175D02*
X84131428Y-26544508D01*
X84131428Y-26211175D02*
X84083809Y-26258794D01*
X84083809Y-26258794D02*
X84131428Y-26306413D01*
X84131428Y-26306413D02*
X84179047Y-26258794D01*
X84179047Y-26258794D02*
X84131428Y-26211175D01*
X84131428Y-26211175D02*
X84131428Y-26306413D01*
X84464761Y-26544508D02*
X84845713Y-26544508D01*
X84607618Y-26211175D02*
X84607618Y-27068317D01*
X84607618Y-27068317D02*
X84655237Y-27163556D01*
X84655237Y-27163556D02*
X84750475Y-27211175D01*
X84750475Y-27211175D02*
X84845713Y-27211175D01*
X85940952Y-27211175D02*
X85940952Y-26211175D01*
X85940952Y-26211175D02*
X86321904Y-26211175D01*
X86321904Y-26211175D02*
X86417142Y-26258794D01*
X86417142Y-26258794D02*
X86464761Y-26306413D01*
X86464761Y-26306413D02*
X86512380Y-26401651D01*
X86512380Y-26401651D02*
X86512380Y-26544508D01*
X86512380Y-26544508D02*
X86464761Y-26639746D01*
X86464761Y-26639746D02*
X86417142Y-26687365D01*
X86417142Y-26687365D02*
X86321904Y-26734984D01*
X86321904Y-26734984D02*
X85940952Y-26734984D01*
X86940952Y-27211175D02*
X86940952Y-26544508D01*
X86940952Y-26211175D02*
X86893333Y-26258794D01*
X86893333Y-26258794D02*
X86940952Y-26306413D01*
X86940952Y-26306413D02*
X86988571Y-26258794D01*
X86988571Y-26258794D02*
X86940952Y-26211175D01*
X86940952Y-26211175D02*
X86940952Y-26306413D01*
X87417142Y-27211175D02*
X87417142Y-26544508D01*
X87417142Y-26734984D02*
X87464761Y-26639746D01*
X87464761Y-26639746D02*
X87512380Y-26592127D01*
X87512380Y-26592127D02*
X87607618Y-26544508D01*
X87607618Y-26544508D02*
X87702856Y-26544508D01*
X88464761Y-27211175D02*
X88464761Y-26687365D01*
X88464761Y-26687365D02*
X88417142Y-26592127D01*
X88417142Y-26592127D02*
X88321904Y-26544508D01*
X88321904Y-26544508D02*
X88131428Y-26544508D01*
X88131428Y-26544508D02*
X88036190Y-26592127D01*
X88464761Y-27163556D02*
X88369523Y-27211175D01*
X88369523Y-27211175D02*
X88131428Y-27211175D01*
X88131428Y-27211175D02*
X88036190Y-27163556D01*
X88036190Y-27163556D02*
X87988571Y-27068317D01*
X87988571Y-27068317D02*
X87988571Y-26973079D01*
X87988571Y-26973079D02*
X88036190Y-26877841D01*
X88036190Y-26877841D02*
X88131428Y-26830222D01*
X88131428Y-26830222D02*
X88369523Y-26830222D01*
X88369523Y-26830222D02*
X88464761Y-26782603D01*
X88798095Y-26544508D02*
X89179047Y-26544508D01*
X88940952Y-26211175D02*
X88940952Y-27068317D01*
X88940952Y-27068317D02*
X88988571Y-27163556D01*
X88988571Y-27163556D02*
X89083809Y-27211175D01*
X89083809Y-27211175D02*
X89179047Y-27211175D01*
X89893333Y-27163556D02*
X89798095Y-27211175D01*
X89798095Y-27211175D02*
X89607619Y-27211175D01*
X89607619Y-27211175D02*
X89512381Y-27163556D01*
X89512381Y-27163556D02*
X89464762Y-27068317D01*
X89464762Y-27068317D02*
X89464762Y-26687365D01*
X89464762Y-26687365D02*
X89512381Y-26592127D01*
X89512381Y-26592127D02*
X89607619Y-26544508D01*
X89607619Y-26544508D02*
X89798095Y-26544508D01*
X89798095Y-26544508D02*
X89893333Y-26592127D01*
X89893333Y-26592127D02*
X89940952Y-26687365D01*
X89940952Y-26687365D02*
X89940952Y-26782603D01*
X89940952Y-26782603D02*
X89464762Y-26877841D01*
X91131429Y-27211175D02*
X91131429Y-26211175D01*
X91131429Y-26211175D02*
X91369524Y-26211175D01*
X91369524Y-26211175D02*
X91512381Y-26258794D01*
X91512381Y-26258794D02*
X91607619Y-26354032D01*
X91607619Y-26354032D02*
X91655238Y-26449270D01*
X91655238Y-26449270D02*
X91702857Y-26639746D01*
X91702857Y-26639746D02*
X91702857Y-26782603D01*
X91702857Y-26782603D02*
X91655238Y-26973079D01*
X91655238Y-26973079D02*
X91607619Y-27068317D01*
X91607619Y-27068317D02*
X91512381Y-27163556D01*
X91512381Y-27163556D02*
X91369524Y-27211175D01*
X91369524Y-27211175D02*
X91131429Y-27211175D01*
X92274286Y-27211175D02*
X92179048Y-27163556D01*
X92179048Y-27163556D02*
X92131429Y-27115936D01*
X92131429Y-27115936D02*
X92083810Y-27020698D01*
X92083810Y-27020698D02*
X92083810Y-26734984D01*
X92083810Y-26734984D02*
X92131429Y-26639746D01*
X92131429Y-26639746D02*
X92179048Y-26592127D01*
X92179048Y-26592127D02*
X92274286Y-26544508D01*
X92274286Y-26544508D02*
X92417143Y-26544508D01*
X92417143Y-26544508D02*
X92512381Y-26592127D01*
X92512381Y-26592127D02*
X92560000Y-26639746D01*
X92560000Y-26639746D02*
X92607619Y-26734984D01*
X92607619Y-26734984D02*
X92607619Y-27020698D01*
X92607619Y-27020698D02*
X92560000Y-27115936D01*
X92560000Y-27115936D02*
X92512381Y-27163556D01*
X92512381Y-27163556D02*
X92417143Y-27211175D01*
X92417143Y-27211175D02*
X92274286Y-27211175D01*
X93464762Y-27163556D02*
X93369524Y-27211175D01*
X93369524Y-27211175D02*
X93179048Y-27211175D01*
X93179048Y-27211175D02*
X93083810Y-27163556D01*
X93083810Y-27163556D02*
X93036191Y-27115936D01*
X93036191Y-27115936D02*
X92988572Y-27020698D01*
X92988572Y-27020698D02*
X92988572Y-26734984D01*
X92988572Y-26734984D02*
X93036191Y-26639746D01*
X93036191Y-26639746D02*
X93083810Y-26592127D01*
X93083810Y-26592127D02*
X93179048Y-26544508D01*
X93179048Y-26544508D02*
X93369524Y-26544508D01*
X93369524Y-26544508D02*
X93464762Y-26592127D01*
X93893334Y-27211175D02*
X93893334Y-26211175D01*
X93988572Y-26830222D02*
X94274286Y-27211175D01*
X94274286Y-26544508D02*
X93893334Y-26925460D01*
X86036191Y-27821119D02*
X86369524Y-28821119D01*
X86369524Y-28821119D02*
X86702857Y-27821119D01*
X87560000Y-28821119D02*
X86988572Y-28821119D01*
X87274286Y-28821119D02*
X87274286Y-27821119D01*
X87274286Y-27821119D02*
X87179048Y-27963976D01*
X87179048Y-27963976D02*
X87083810Y-28059214D01*
X87083810Y-28059214D02*
X86988572Y-28106833D01*
X87988572Y-28725880D02*
X88036191Y-28773500D01*
X88036191Y-28773500D02*
X87988572Y-28821119D01*
X87988572Y-28821119D02*
X87940953Y-28773500D01*
X87940953Y-28773500D02*
X87988572Y-28725880D01*
X87988572Y-28725880D02*
X87988572Y-28821119D01*
X88655238Y-27821119D02*
X88750476Y-27821119D01*
X88750476Y-27821119D02*
X88845714Y-27868738D01*
X88845714Y-27868738D02*
X88893333Y-27916357D01*
X88893333Y-27916357D02*
X88940952Y-28011595D01*
X88940952Y-28011595D02*
X88988571Y-28202071D01*
X88988571Y-28202071D02*
X88988571Y-28440166D01*
X88988571Y-28440166D02*
X88940952Y-28630642D01*
X88940952Y-28630642D02*
X88893333Y-28725880D01*
X88893333Y-28725880D02*
X88845714Y-28773500D01*
X88845714Y-28773500D02*
X88750476Y-28821119D01*
X88750476Y-28821119D02*
X88655238Y-28821119D01*
X88655238Y-28821119D02*
X88560000Y-28773500D01*
X88560000Y-28773500D02*
X88512381Y-28725880D01*
X88512381Y-28725880D02*
X88464762Y-28630642D01*
X88464762Y-28630642D02*
X88417143Y-28440166D01*
X88417143Y-28440166D02*
X88417143Y-28202071D01*
X88417143Y-28202071D02*
X88464762Y-28011595D01*
X88464762Y-28011595D02*
X88512381Y-27916357D01*
X88512381Y-27916357D02*
X88560000Y-27868738D01*
X88560000Y-27868738D02*
X88655238Y-27821119D01*
D11*
X80180901Y-65766152D02*
X80180901Y-67822342D01*
X80180901Y-67822342D02*
X80295187Y-68064247D01*
X80295187Y-68064247D02*
X80409473Y-68185200D01*
X80409473Y-68185200D02*
X80638044Y-68306152D01*
X80638044Y-68306152D02*
X81095187Y-68306152D01*
X81095187Y-68306152D02*
X81323758Y-68185200D01*
X81323758Y-68185200D02*
X81438044Y-68064247D01*
X81438044Y-68064247D02*
X81552330Y-67822342D01*
X81552330Y-67822342D02*
X81552330Y-65766152D01*
X82580901Y-68185200D02*
X82923759Y-68306152D01*
X82923759Y-68306152D02*
X83495187Y-68306152D01*
X83495187Y-68306152D02*
X83723759Y-68185200D01*
X83723759Y-68185200D02*
X83838044Y-68064247D01*
X83838044Y-68064247D02*
X83952330Y-67822342D01*
X83952330Y-67822342D02*
X83952330Y-67580438D01*
X83952330Y-67580438D02*
X83838044Y-67338533D01*
X83838044Y-67338533D02*
X83723759Y-67217580D01*
X83723759Y-67217580D02*
X83495187Y-67096628D01*
X83495187Y-67096628D02*
X83038044Y-66975676D01*
X83038044Y-66975676D02*
X82809473Y-66854723D01*
X82809473Y-66854723D02*
X82695187Y-66733771D01*
X82695187Y-66733771D02*
X82580901Y-66491866D01*
X82580901Y-66491866D02*
X82580901Y-66249961D01*
X82580901Y-66249961D02*
X82695187Y-66008057D01*
X82695187Y-66008057D02*
X82809473Y-65887104D01*
X82809473Y-65887104D02*
X83038044Y-65766152D01*
X83038044Y-65766152D02*
X83609473Y-65766152D01*
X83609473Y-65766152D02*
X83952330Y-65887104D01*
X85780901Y-66975676D02*
X86123758Y-67096628D01*
X86123758Y-67096628D02*
X86238044Y-67217580D01*
X86238044Y-67217580D02*
X86352330Y-67459485D01*
X86352330Y-67459485D02*
X86352330Y-67822342D01*
X86352330Y-67822342D02*
X86238044Y-68064247D01*
X86238044Y-68064247D02*
X86123758Y-68185200D01*
X86123758Y-68185200D02*
X85895187Y-68306152D01*
X85895187Y-68306152D02*
X84980901Y-68306152D01*
X84980901Y-68306152D02*
X84980901Y-65766152D01*
X84980901Y-65766152D02*
X85780901Y-65766152D01*
X85780901Y-65766152D02*
X86009473Y-65887104D01*
X86009473Y-65887104D02*
X86123758Y-66008057D01*
X86123758Y-66008057D02*
X86238044Y-66249961D01*
X86238044Y-66249961D02*
X86238044Y-66491866D01*
X86238044Y-66491866D02*
X86123758Y-66733771D01*
X86123758Y-66733771D02*
X86009473Y-66854723D01*
X86009473Y-66854723D02*
X85780901Y-66975676D01*
X85780901Y-66975676D02*
X84980901Y-66975676D01*
D12*
X93392666Y-65724819D02*
X93392666Y-66439104D01*
X93392666Y-66439104D02*
X93345047Y-66581961D01*
X93345047Y-66581961D02*
X93249809Y-66677200D01*
X93249809Y-66677200D02*
X93106952Y-66724819D01*
X93106952Y-66724819D02*
X93011714Y-66724819D01*
X94297428Y-66058152D02*
X94297428Y-66724819D01*
X94059333Y-65677200D02*
X93821238Y-66391485D01*
X93821238Y-66391485D02*
X94440285Y-66391485D01*
X70532666Y-65724819D02*
X70532666Y-66439104D01*
X70532666Y-66439104D02*
X70485047Y-66581961D01*
X70485047Y-66581961D02*
X70389809Y-66677200D01*
X70389809Y-66677200D02*
X70246952Y-66724819D01*
X70246952Y-66724819D02*
X70151714Y-66724819D01*
X70913619Y-65724819D02*
X71532666Y-65724819D01*
X71532666Y-65724819D02*
X71199333Y-66105771D01*
X71199333Y-66105771D02*
X71342190Y-66105771D01*
X71342190Y-66105771D02*
X71437428Y-66153390D01*
X71437428Y-66153390D02*
X71485047Y-66201009D01*
X71485047Y-66201009D02*
X71532666Y-66296247D01*
X71532666Y-66296247D02*
X71532666Y-66534342D01*
X71532666Y-66534342D02*
X71485047Y-66629580D01*
X71485047Y-66629580D02*
X71437428Y-66677200D01*
X71437428Y-66677200D02*
X71342190Y-66724819D01*
X71342190Y-66724819D02*
X71056476Y-66724819D01*
X71056476Y-66724819D02*
X70961238Y-66677200D01*
X70961238Y-66677200D02*
X70913619Y-66629580D01*
%TO.C,G2*%
D13*
X79445000Y-59740000D02*
X88335000Y-59740000D01*
X88335000Y-64820000D01*
X79445000Y-64820000D01*
X79445000Y-59740000D01*
%TO.C,J4*%
D14*
X92396000Y-62230000D02*
X92396000Y-34230000D01*
X92396000Y-64830000D02*
X92396000Y-63500000D01*
X93726000Y-64830000D02*
X92396000Y-64830000D01*
X95056000Y-34230000D02*
X92396000Y-34230000D01*
X95056000Y-62230000D02*
X92396000Y-62230000D01*
X95056000Y-62230000D02*
X95056000Y-34230000D01*
%TO.C,J3*%
X69536000Y-62230000D02*
X69536000Y-34230000D01*
X69536000Y-64830000D02*
X69536000Y-63500000D01*
X70866000Y-64830000D02*
X69536000Y-64830000D01*
X72196000Y-34230000D02*
X69536000Y-34230000D01*
X72196000Y-62230000D02*
X69536000Y-62230000D01*
X72196000Y-62230000D02*
X72196000Y-34230000D01*
D15*
%TO.C,G1*%
G36*
X80035880Y-35312473D02*
G01*
X80031038Y-35317315D01*
X80026197Y-35312473D01*
X80031038Y-35307632D01*
X80035880Y-35312473D01*
G37*
G36*
X88838244Y-30799930D02*
G01*
X88833402Y-30804772D01*
X88828560Y-30799930D01*
X88833402Y-30795089D01*
X88838244Y-30799930D01*
G37*
G36*
X89070650Y-30228600D02*
G01*
X89065808Y-30233442D01*
X89060966Y-30228600D01*
X89065808Y-30223758D01*
X89070650Y-30228600D01*
G37*
G36*
X81026025Y-35435641D02*
G01*
X81144649Y-35438360D01*
X81144649Y-36014532D01*
X81144649Y-36590704D01*
X81026025Y-36593423D01*
X80907401Y-36596142D01*
X80907401Y-36014532D01*
X80907401Y-35432922D01*
X81026025Y-35435641D01*
G37*
G36*
X81134965Y-34378009D02*
G01*
X81134965Y-35060701D01*
X81021118Y-35063429D01*
X80907271Y-35066158D01*
X80909757Y-34380738D01*
X80912243Y-33695317D01*
X81023604Y-33695317D01*
X81134965Y-33695317D01*
X81134965Y-34378009D01*
G37*
G36*
X81139807Y-32630125D02*
G01*
X81139807Y-33322500D01*
X81023604Y-33322500D01*
X80907401Y-33322500D01*
X80907401Y-32630125D01*
X80907401Y-31937750D01*
X81023604Y-31937750D01*
X81139807Y-31937750D01*
X81139807Y-32630125D01*
G37*
G36*
X83231458Y-29962185D02*
G01*
X83231458Y-30068821D01*
X82864333Y-30068821D01*
X82497209Y-30068821D01*
X82492030Y-30032508D01*
X82490329Y-30003729D01*
X82491032Y-29964733D01*
X82493600Y-29928409D01*
X82500348Y-29860624D01*
X82865903Y-29858087D01*
X83231458Y-29855550D01*
X83231458Y-29962185D01*
G37*
G36*
X84085137Y-31630296D02*
G01*
X84086547Y-31671200D01*
X84086149Y-31713586D01*
X84085502Y-31727132D01*
X84082551Y-31773129D01*
X83725919Y-31773129D01*
X83369287Y-31773129D01*
X83363435Y-31751341D01*
X83361372Y-31731349D01*
X83361325Y-31698684D01*
X83363276Y-31659931D01*
X83363698Y-31654505D01*
X83369812Y-31579458D01*
X83725816Y-31579458D01*
X84081819Y-31579458D01*
X84085137Y-31630296D01*
G37*
G36*
X83231458Y-31676293D02*
G01*
X83231458Y-31773129D01*
X82865096Y-31773129D01*
X82782695Y-31772964D01*
X82706429Y-31772494D01*
X82638456Y-31771755D01*
X82580934Y-31770787D01*
X82536020Y-31769625D01*
X82505872Y-31768307D01*
X82492647Y-31766871D01*
X82492279Y-31766673D01*
X82489462Y-31754742D01*
X82487268Y-31728103D01*
X82486007Y-31691412D01*
X82485823Y-31669838D01*
X82485823Y-31579458D01*
X82858640Y-31579458D01*
X83231458Y-31579458D01*
X83231458Y-31676293D01*
G37*
G36*
X89703992Y-33109813D02*
G01*
X89722401Y-33117801D01*
X89751937Y-33130266D01*
X89791462Y-33146120D01*
X89832781Y-33162080D01*
X89835652Y-33163162D01*
X89882418Y-33181917D01*
X89913481Y-33197919D01*
X89931808Y-33213572D01*
X89940365Y-33231277D01*
X89942171Y-33249437D01*
X89936790Y-33279687D01*
X89920106Y-33297456D01*
X89891302Y-33302797D01*
X89849567Y-33295758D01*
X89794084Y-33276392D01*
X89758183Y-33260854D01*
X89666189Y-33218992D01*
X89663306Y-33159385D01*
X89662502Y-33124130D01*
X89666704Y-33105743D01*
X89679379Y-33101783D01*
X89703992Y-33109813D01*
G37*
G36*
X84340448Y-35067844D02*
G01*
X84342669Y-35087482D01*
X84343716Y-35120303D01*
X84343434Y-35160151D01*
X84343084Y-35172062D01*
X84340226Y-35254372D01*
X83984097Y-35256912D01*
X83888843Y-35257478D01*
X83811280Y-35257648D01*
X83749736Y-35257374D01*
X83702537Y-35256610D01*
X83668011Y-35255305D01*
X83644486Y-35253413D01*
X83630288Y-35250885D01*
X83623745Y-35247672D01*
X83622999Y-35246502D01*
X83621109Y-35231586D01*
X83620181Y-35202374D01*
X83620319Y-35163917D01*
X83620836Y-35142284D01*
X83623642Y-35051017D01*
X83979299Y-35048477D01*
X84334956Y-35045937D01*
X84340448Y-35067844D01*
G37*
G36*
X79073345Y-33005422D02*
G01*
X79113423Y-33010418D01*
X79142090Y-33019432D01*
X79167258Y-33035164D01*
X79172415Y-33039231D01*
X79198450Y-33063671D01*
X79220267Y-33089792D01*
X79224976Y-33097019D01*
X79236867Y-33127456D01*
X79246996Y-33173118D01*
X79254766Y-33229894D01*
X79259581Y-33293676D01*
X79260896Y-33344288D01*
X79261195Y-33419336D01*
X79033631Y-33419336D01*
X78806067Y-33419336D01*
X78806042Y-33329763D01*
X78810137Y-33241794D01*
X78822737Y-33169986D01*
X78844231Y-33112914D01*
X78875012Y-33069153D01*
X78878404Y-33065666D01*
X78923496Y-33030732D01*
X78975685Y-33010483D01*
X79038152Y-33003936D01*
X79073345Y-33005422D01*
G37*
G36*
X84102979Y-29956213D02*
G01*
X84102979Y-30056880D01*
X84076349Y-30062175D01*
X84060557Y-30063456D01*
X84027856Y-30064679D01*
X83980702Y-30065801D01*
X83921555Y-30066779D01*
X83852871Y-30067571D01*
X83777109Y-30068135D01*
X83717843Y-30068380D01*
X83626165Y-30068506D01*
X83552118Y-30068291D01*
X83493968Y-30067670D01*
X83449981Y-30066582D01*
X83418423Y-30064964D01*
X83397561Y-30062754D01*
X83385659Y-30059888D01*
X83380985Y-30056305D01*
X83380953Y-30056224D01*
X83379045Y-30041255D01*
X83378102Y-30011997D01*
X83378231Y-29973510D01*
X83378746Y-29951892D01*
X83381553Y-29860624D01*
X83742266Y-29858086D01*
X84102979Y-29855547D01*
X84102979Y-29956213D01*
G37*
G36*
X83093015Y-35047969D02*
G01*
X83178845Y-35048475D01*
X83536490Y-35051017D01*
X83536490Y-35152694D01*
X83536490Y-35254372D01*
X83182673Y-35256910D01*
X83084078Y-35257452D01*
X83003421Y-35257503D01*
X82939279Y-35257027D01*
X82890229Y-35255989D01*
X82854847Y-35254353D01*
X82831711Y-35252083D01*
X82819395Y-35249143D01*
X82817118Y-35247711D01*
X82811850Y-35233017D01*
X82808075Y-35204667D01*
X82805904Y-35168322D01*
X82805447Y-35129645D01*
X82806813Y-35094295D01*
X82810113Y-35067936D01*
X82813438Y-35058159D01*
X82819571Y-35054869D01*
X82834382Y-35052260D01*
X82859425Y-35050289D01*
X82896255Y-35048916D01*
X82946427Y-35048099D01*
X83011496Y-35047797D01*
X83093015Y-35047969D01*
G37*
G36*
X84847518Y-29857769D02*
G01*
X84896547Y-29858634D01*
X84932392Y-29860051D01*
X84956597Y-29862062D01*
X84970709Y-29864705D01*
X84976127Y-29867767D01*
X84979591Y-29882439D01*
X84982294Y-29911347D01*
X84983831Y-29949366D01*
X84984035Y-29968138D01*
X84984184Y-30056285D01*
X84884927Y-30062490D01*
X84848144Y-30064160D01*
X84795781Y-30065660D01*
X84731626Y-30066928D01*
X84659467Y-30067899D01*
X84583090Y-30068512D01*
X84513437Y-30068703D01*
X84241203Y-30068712D01*
X84236098Y-30017928D01*
X84234282Y-29976524D01*
X84235641Y-29931133D01*
X84237192Y-29913884D01*
X84243391Y-29860624D01*
X84605879Y-29858084D01*
X84703729Y-29857534D01*
X84783760Y-29857416D01*
X84847518Y-29857769D01*
G37*
G36*
X84100911Y-36694971D02*
G01*
X84101559Y-36741973D01*
X84100034Y-36772339D01*
X84096077Y-36788703D01*
X84091227Y-36793416D01*
X84078972Y-36794450D01*
X84049606Y-36795682D01*
X84005385Y-36797057D01*
X83948562Y-36798515D01*
X83881393Y-36799999D01*
X83806132Y-36801450D01*
X83727377Y-36802775D01*
X83632628Y-36804139D01*
X83555573Y-36804950D01*
X83494546Y-36805174D01*
X83447881Y-36804777D01*
X83413911Y-36803727D01*
X83390971Y-36801989D01*
X83377393Y-36799530D01*
X83371512Y-36796316D01*
X83371120Y-36795598D01*
X83369277Y-36780810D01*
X83368385Y-36751707D01*
X83368542Y-36713323D01*
X83369063Y-36691655D01*
X83371870Y-36600388D01*
X83735003Y-36600388D01*
X84098137Y-36600388D01*
X84100911Y-36694971D01*
G37*
G36*
X84333334Y-33413694D02*
G01*
X84333928Y-33462476D01*
X84332182Y-33494549D01*
X84327860Y-33512455D01*
X84323650Y-33517644D01*
X84311390Y-33519464D01*
X84282018Y-33521145D01*
X84237790Y-33522636D01*
X84180961Y-33523888D01*
X84113787Y-33524851D01*
X84038523Y-33525474D01*
X83959842Y-33525707D01*
X83864895Y-33525623D01*
X83787662Y-33525246D01*
X83726493Y-33524516D01*
X83679737Y-33523374D01*
X83645743Y-33521763D01*
X83622862Y-33519622D01*
X83609440Y-33516893D01*
X83603829Y-33513518D01*
X83603586Y-33513024D01*
X83601717Y-33498163D01*
X83600804Y-33468999D01*
X83600950Y-33430574D01*
X83601469Y-33408926D01*
X83604275Y-33317658D01*
X83967409Y-33317658D01*
X84330543Y-33317658D01*
X84333334Y-33413694D01*
G37*
G36*
X84976217Y-36628400D02*
G01*
X84977662Y-36655421D01*
X84977605Y-36693104D01*
X84976259Y-36729094D01*
X84972439Y-36796702D01*
X84937156Y-36802537D01*
X84919174Y-36803936D01*
X84884387Y-36805222D01*
X84835359Y-36806352D01*
X84774652Y-36807283D01*
X84704829Y-36807974D01*
X84628452Y-36808383D01*
X84574749Y-36808478D01*
X84483353Y-36808373D01*
X84409616Y-36807948D01*
X84351833Y-36807138D01*
X84308298Y-36805878D01*
X84277305Y-36804103D01*
X84257149Y-36801746D01*
X84246124Y-36798742D01*
X84242701Y-36795754D01*
X84240832Y-36780893D01*
X84239919Y-36751728D01*
X84240065Y-36713303D01*
X84240584Y-36691655D01*
X84243391Y-36600388D01*
X84607873Y-36597852D01*
X84972354Y-36595315D01*
X84976217Y-36628400D01*
G37*
G36*
X88701593Y-31199964D02*
G01*
X88702863Y-31201799D01*
X88713288Y-31236023D01*
X88705962Y-31277425D01*
X88681010Y-31325740D01*
X88638561Y-31380703D01*
X88594323Y-31427103D01*
X88543548Y-31473443D01*
X88495421Y-31511119D01*
X88451977Y-31539005D01*
X88415249Y-31555981D01*
X88387272Y-31560920D01*
X88370079Y-31552701D01*
X88369228Y-31551438D01*
X88368823Y-31537590D01*
X88374359Y-31513643D01*
X88377064Y-31505419D01*
X88388829Y-31483536D01*
X88412049Y-31453252D01*
X88447753Y-31413372D01*
X88496966Y-31362704D01*
X88516966Y-31342800D01*
X88570423Y-31290393D01*
X88612121Y-31250726D01*
X88643697Y-31222555D01*
X88666794Y-31204638D01*
X88683049Y-31195729D01*
X88694102Y-31194586D01*
X88701593Y-31199964D01*
G37*
G36*
X82350984Y-29956944D02*
G01*
X82349703Y-29998552D01*
X82347822Y-30032806D01*
X82345637Y-30055141D01*
X82344234Y-30061043D01*
X82333788Y-30062807D01*
X82306145Y-30064432D01*
X82263477Y-30065869D01*
X82207952Y-30067073D01*
X82141743Y-30067998D01*
X82067019Y-30068596D01*
X81985950Y-30068820D01*
X81981402Y-30068821D01*
X81885480Y-30068700D01*
X81807288Y-30068299D01*
X81745191Y-30067560D01*
X81697553Y-30066425D01*
X81662741Y-30064837D01*
X81639117Y-30062737D01*
X81625046Y-30060068D01*
X81618894Y-30056771D01*
X81618454Y-30055990D01*
X81616585Y-30041129D01*
X81615672Y-30011965D01*
X81615818Y-29973540D01*
X81616337Y-29951892D01*
X81619144Y-29860624D01*
X81986035Y-29860624D01*
X82352927Y-29860624D01*
X82350984Y-29956944D01*
G37*
G36*
X83167148Y-36597947D02*
G01*
X83197835Y-36598821D01*
X83211223Y-36600112D01*
X83220636Y-36604233D01*
X83226543Y-36611865D01*
X83229592Y-36626750D01*
X83230427Y-36652630D01*
X83229695Y-36693248D01*
X83229367Y-36705244D01*
X83226616Y-36803743D01*
X82868324Y-36805460D01*
X82786572Y-36805721D01*
X82710725Y-36805711D01*
X82643012Y-36805449D01*
X82585660Y-36804956D01*
X82540899Y-36804250D01*
X82510956Y-36803352D01*
X82498060Y-36802280D01*
X82497928Y-36802232D01*
X82491660Y-36792137D01*
X82487745Y-36766856D01*
X82485976Y-36724686D01*
X82485823Y-36702513D01*
X82485823Y-36607739D01*
X82838075Y-36600610D01*
X82919569Y-36599150D01*
X82995545Y-36598150D01*
X83063681Y-36597614D01*
X83121656Y-36597546D01*
X83167148Y-36597947D01*
G37*
G36*
X88472184Y-32359424D02*
G01*
X88507965Y-32375068D01*
X88548310Y-32402736D01*
X88595390Y-32443879D01*
X88641397Y-32489566D01*
X88685635Y-32536180D01*
X88717569Y-32572535D01*
X88739103Y-32601535D01*
X88752143Y-32626079D01*
X88758594Y-32649069D01*
X88760339Y-32670709D01*
X88758484Y-32695610D01*
X88749768Y-32705481D01*
X88730860Y-32701748D01*
X88710371Y-32692112D01*
X88690366Y-32678285D01*
X88660439Y-32653212D01*
X88623615Y-32619876D01*
X88582923Y-32581262D01*
X88541387Y-32540356D01*
X88502036Y-32500141D01*
X88467896Y-32463602D01*
X88441994Y-32433724D01*
X88427356Y-32413491D01*
X88426835Y-32412520D01*
X88413940Y-32381471D01*
X88414624Y-32362845D01*
X88429242Y-32354919D01*
X88438797Y-32354356D01*
X88472184Y-32359424D01*
G37*
G36*
X89772598Y-33291741D02*
G01*
X89816285Y-33314588D01*
X89864719Y-33350685D01*
X89897029Y-33380061D01*
X89932924Y-33414032D01*
X89969751Y-33447291D01*
X90001495Y-33474461D01*
X90011941Y-33482822D01*
X90039631Y-33509296D01*
X90062943Y-33540623D01*
X90079233Y-33571991D01*
X90085857Y-33598586D01*
X90083042Y-33612263D01*
X90066587Y-33621458D01*
X90038029Y-33618530D01*
X90000070Y-33603844D01*
X89992571Y-33600045D01*
X89957218Y-33577816D01*
X89914212Y-33545286D01*
X89868562Y-33506807D01*
X89825278Y-33466732D01*
X89789372Y-33429411D01*
X89772491Y-33408867D01*
X89755435Y-33381141D01*
X89741613Y-33350187D01*
X89732376Y-33320685D01*
X89729075Y-33297311D01*
X89733061Y-33284745D01*
X89736361Y-33283766D01*
X89772598Y-33291741D01*
G37*
G36*
X90147215Y-33398485D02*
G01*
X90157745Y-33407231D01*
X90167505Y-33423507D01*
X90182195Y-33454803D01*
X90200560Y-33497791D01*
X90221344Y-33549140D01*
X90243292Y-33605523D01*
X90265149Y-33663609D01*
X90285659Y-33720071D01*
X90303569Y-33771579D01*
X90317622Y-33814804D01*
X90326563Y-33846416D01*
X90329206Y-33861980D01*
X90321910Y-33895215D01*
X90302761Y-33916589D01*
X90279108Y-33922881D01*
X90254282Y-33916278D01*
X90240166Y-33905935D01*
X90225549Y-33882905D01*
X90218221Y-33864780D01*
X90209174Y-33837584D01*
X90199246Y-33811520D01*
X90160659Y-33715948D01*
X90128251Y-33632628D01*
X90102404Y-33562632D01*
X90083502Y-33507034D01*
X90071926Y-33466905D01*
X90068057Y-33443529D01*
X90076005Y-33416794D01*
X90095847Y-33398755D01*
X90121584Y-33391843D01*
X90147215Y-33398485D01*
G37*
G36*
X88236926Y-35408730D02*
G01*
X88246083Y-35423771D01*
X88251960Y-35451357D01*
X88253996Y-35484859D01*
X88251630Y-35517648D01*
X88247608Y-35535009D01*
X88227503Y-35581985D01*
X88197364Y-35635196D01*
X88160526Y-35690106D01*
X88120324Y-35742179D01*
X88080094Y-35786878D01*
X88043172Y-35819668D01*
X88033300Y-35826465D01*
X88003142Y-35843728D01*
X87985345Y-35848795D01*
X87977460Y-35841944D01*
X87976460Y-35832965D01*
X87980324Y-35802904D01*
X87992505Y-35767235D01*
X88014159Y-35723551D01*
X88046443Y-35669447D01*
X88078761Y-35619934D01*
X88107226Y-35576749D01*
X88131370Y-35538795D01*
X88149297Y-35509154D01*
X88159117Y-35490909D01*
X88160394Y-35487059D01*
X88166510Y-35472889D01*
X88181693Y-35453074D01*
X88201193Y-35432475D01*
X88220263Y-35415953D01*
X88234153Y-35408366D01*
X88236926Y-35408730D01*
G37*
G36*
X88607658Y-32680334D02*
G01*
X88633313Y-32687950D01*
X88669676Y-32701726D01*
X88719572Y-32722563D01*
X88743944Y-32733072D01*
X88792448Y-32754619D01*
X88834366Y-32774207D01*
X88866590Y-32790306D01*
X88886006Y-32801383D01*
X88890251Y-32805066D01*
X88891691Y-32820267D01*
X88890587Y-32846814D01*
X88889256Y-32860747D01*
X88883928Y-32890253D01*
X88875618Y-32903777D01*
X88868456Y-32905602D01*
X88853188Y-32901956D01*
X88824649Y-32892538D01*
X88787479Y-32878942D01*
X88760775Y-32868577D01*
X88690524Y-32839471D01*
X88633155Y-32813164D01*
X88590352Y-32790499D01*
X88563796Y-32772322D01*
X88558572Y-32767083D01*
X88550940Y-32747601D01*
X88549450Y-32721012D01*
X88549497Y-32720505D01*
X88556452Y-32694901D01*
X88573738Y-32681281D01*
X88577167Y-32679987D01*
X88589885Y-32677980D01*
X88607658Y-32680334D01*
G37*
G36*
X88792773Y-35045248D02*
G01*
X88795359Y-35060302D01*
X88787292Y-35084780D01*
X88771005Y-35113831D01*
X88748933Y-35142603D01*
X88738434Y-35153523D01*
X88715628Y-35171408D01*
X88680449Y-35194251D01*
X88638087Y-35218842D01*
X88602275Y-35237737D01*
X88552146Y-35261949D01*
X88513369Y-35277951D01*
X88480708Y-35287527D01*
X88448925Y-35292464D01*
X88439367Y-35293265D01*
X88405459Y-35294740D01*
X88378607Y-35294179D01*
X88366170Y-35292147D01*
X88355094Y-35279675D01*
X88360057Y-35261331D01*
X88379315Y-35238917D01*
X88411126Y-35214234D01*
X88453746Y-35189084D01*
X88476906Y-35177665D01*
X88517282Y-35158353D01*
X88565836Y-35134366D01*
X88613648Y-35110126D01*
X88625205Y-35104147D01*
X88685022Y-35074671D01*
X88733211Y-35054368D01*
X88768422Y-35043712D01*
X88789308Y-35043177D01*
X88792773Y-35045248D01*
G37*
G36*
X89349448Y-34650157D02*
G01*
X89391128Y-34654777D01*
X89416854Y-34662431D01*
X89443312Y-34679665D01*
X89463784Y-34699310D01*
X89474160Y-34716839D01*
X89473585Y-34724891D01*
X89458317Y-34734214D01*
X89425959Y-34742534D01*
X89378781Y-34749336D01*
X89356315Y-34751512D01*
X89269663Y-34759559D01*
X89196651Y-34767656D01*
X89138743Y-34775606D01*
X89097402Y-34783210D01*
X89075491Y-34789626D01*
X89049358Y-34799974D01*
X89016923Y-34811508D01*
X88984305Y-34822219D01*
X88957621Y-34830099D01*
X88943038Y-34833137D01*
X88935225Y-34825806D01*
X88935080Y-34824084D01*
X88942624Y-34794510D01*
X88962480Y-34760075D01*
X88990484Y-34726096D01*
X89022474Y-34697891D01*
X89044079Y-34684865D01*
X89078887Y-34673013D01*
X89126175Y-34663224D01*
X89181409Y-34655771D01*
X89240055Y-34650927D01*
X89297579Y-34648965D01*
X89349448Y-34650157D01*
G37*
G36*
X90148500Y-33770550D02*
G01*
X90156705Y-33780600D01*
X90168105Y-33803164D01*
X90175680Y-33821574D01*
X90183486Y-33846011D01*
X90188774Y-33873671D01*
X90191957Y-33908782D01*
X90193452Y-33955570D01*
X90193709Y-34005192D01*
X90193425Y-34059602D01*
X90192375Y-34098783D01*
X90189958Y-34126871D01*
X90185575Y-34148004D01*
X90178624Y-34166318D01*
X90168504Y-34185950D01*
X90167088Y-34188520D01*
X90147348Y-34221022D01*
X90132179Y-34236710D01*
X90119124Y-34236818D01*
X90105724Y-34222578D01*
X90104090Y-34220137D01*
X90090638Y-34188548D01*
X90080301Y-34142448D01*
X90073320Y-34086479D01*
X90069933Y-34025282D01*
X90070381Y-33963498D01*
X90074903Y-33905769D01*
X90083738Y-33856737D01*
X90085076Y-33851739D01*
X90096647Y-33823364D01*
X90113269Y-33796998D01*
X90131062Y-33777609D01*
X90146144Y-33770166D01*
X90148500Y-33770550D01*
G37*
G36*
X82790096Y-33604551D02*
G01*
X82809859Y-33606349D01*
X82820623Y-33610397D01*
X82825840Y-33617259D01*
X82828251Y-33624815D01*
X82829251Y-33638035D01*
X82830203Y-33668983D01*
X82831091Y-33716018D01*
X82831900Y-33777501D01*
X82832616Y-33851790D01*
X82833224Y-33937247D01*
X82833711Y-34032231D01*
X82834061Y-34135103D01*
X82834259Y-34244222D01*
X82834299Y-34307803D01*
X82834432Y-34968707D01*
X82717925Y-34968707D01*
X82663579Y-34968037D01*
X82626581Y-34965895D01*
X82604956Y-34962085D01*
X82596794Y-34956602D01*
X82596054Y-34945112D01*
X82595423Y-34915853D01*
X82594903Y-34870425D01*
X82594502Y-34810425D01*
X82594223Y-34737453D01*
X82594072Y-34653108D01*
X82594054Y-34558987D01*
X82594174Y-34456690D01*
X82594436Y-34347815D01*
X82594677Y-34276332D01*
X82597184Y-33608165D01*
X82709759Y-33605448D01*
X82757880Y-33604438D01*
X82790096Y-33604551D01*
G37*
G36*
X87943456Y-35640415D02*
G01*
X87958217Y-35652877D01*
X87964020Y-35677013D01*
X87961984Y-35715578D01*
X87959090Y-35736542D01*
X87952484Y-35776838D01*
X87943593Y-35827084D01*
X87933186Y-35883351D01*
X87922030Y-35941705D01*
X87910893Y-35998216D01*
X87900542Y-36048953D01*
X87891744Y-36089984D01*
X87885267Y-36117377D01*
X87883567Y-36123415D01*
X87867388Y-36152193D01*
X87844033Y-36166529D01*
X87818050Y-36164993D01*
X87797572Y-36150447D01*
X87790064Y-36139302D01*
X87785407Y-36124097D01*
X87783826Y-36102805D01*
X87785548Y-36073402D01*
X87790798Y-36033863D01*
X87799802Y-35982164D01*
X87812785Y-35916279D01*
X87829974Y-35834183D01*
X87835932Y-35806335D01*
X87844491Y-35765761D01*
X87851990Y-35728967D01*
X87857020Y-35702888D01*
X87857563Y-35699816D01*
X87870721Y-35663761D01*
X87894227Y-35642263D01*
X87918620Y-35636873D01*
X87943456Y-35640415D01*
G37*
G36*
X89822386Y-34689640D02*
G01*
X89838216Y-34700486D01*
X89839776Y-34702419D01*
X89852470Y-34724336D01*
X89850934Y-34742991D01*
X89834408Y-34765383D01*
X89832757Y-34767177D01*
X89804460Y-34786798D01*
X89759030Y-34803986D01*
X89743184Y-34808315D01*
X89700419Y-34819319D01*
X89657027Y-34830689D01*
X89627455Y-34838599D01*
X89540514Y-34861524D01*
X89470618Y-34878300D01*
X89416522Y-34889151D01*
X89376982Y-34894301D01*
X89350753Y-34893974D01*
X89339369Y-34890448D01*
X89326390Y-34873048D01*
X89322564Y-34846649D01*
X89327857Y-34819299D01*
X89339751Y-34801089D01*
X89356238Y-34792162D01*
X89386662Y-34780768D01*
X89426056Y-34768642D01*
X89453533Y-34761336D01*
X89509288Y-34747312D01*
X89572447Y-34731259D01*
X89631679Y-34716061D01*
X89646822Y-34712143D01*
X89712122Y-34696403D01*
X89761625Y-34687483D01*
X89797618Y-34685267D01*
X89822386Y-34689640D01*
G37*
G36*
X88356870Y-31349543D02*
G01*
X88365888Y-31362405D01*
X88369934Y-31376475D01*
X88370567Y-31395620D01*
X88367321Y-31422091D01*
X88359729Y-31458142D01*
X88347324Y-31506024D01*
X88329639Y-31567988D01*
X88308853Y-31637559D01*
X88294512Y-31685072D01*
X88281221Y-31729345D01*
X88270571Y-31765067D01*
X88264647Y-31785205D01*
X88246125Y-31834521D01*
X88224131Y-31865489D01*
X88198019Y-31878918D01*
X88189380Y-31879648D01*
X88164409Y-31874548D01*
X88149319Y-31856218D01*
X88148630Y-31854739D01*
X88144134Y-31826657D01*
X88148407Y-31781847D01*
X88161364Y-31720806D01*
X88182918Y-31644032D01*
X88187925Y-31627876D01*
X88199783Y-31589612D01*
X88214618Y-31541031D01*
X88229915Y-31490388D01*
X88235895Y-31470414D01*
X88249605Y-31428236D01*
X88263590Y-31391498D01*
X88275815Y-31365283D01*
X88281533Y-31356632D01*
X88306428Y-31340096D01*
X88333680Y-31337880D01*
X88356870Y-31349543D01*
G37*
G36*
X88424898Y-35074694D02*
G01*
X88435272Y-35090366D01*
X88437110Y-35104549D01*
X88431984Y-35122488D01*
X88418707Y-35145765D01*
X88396092Y-35175964D01*
X88362952Y-35214668D01*
X88318099Y-35263460D01*
X88260348Y-35323923D01*
X88259498Y-35324802D01*
X88209163Y-35376554D01*
X88170125Y-35415795D01*
X88140474Y-35444175D01*
X88118298Y-35463349D01*
X88101687Y-35474970D01*
X88088731Y-35480689D01*
X88077600Y-35482160D01*
X88052664Y-35478394D01*
X88036445Y-35470315D01*
X88027739Y-35452453D01*
X88024824Y-35431721D01*
X88027207Y-35420449D01*
X88035329Y-35405374D01*
X88050650Y-35384759D01*
X88074629Y-35356869D01*
X88108725Y-35319966D01*
X88154399Y-35272316D01*
X88187000Y-35238835D01*
X88233607Y-35191741D01*
X88276880Y-35149119D01*
X88314643Y-35113022D01*
X88344722Y-35085508D01*
X88364941Y-35068630D01*
X88371622Y-35064390D01*
X88400480Y-35062001D01*
X88424898Y-35074694D01*
G37*
G36*
X81011500Y-30156121D02*
G01*
X81055369Y-30156869D01*
X81092551Y-30158775D01*
X81118452Y-30161528D01*
X81127766Y-30163994D01*
X81130137Y-30169180D01*
X81132168Y-30182246D01*
X81133875Y-30204302D01*
X81135271Y-30236459D01*
X81136373Y-30279828D01*
X81137194Y-30335520D01*
X81137750Y-30404645D01*
X81138055Y-30488314D01*
X81138124Y-30587638D01*
X81137973Y-30703728D01*
X81137616Y-30837695D01*
X81137449Y-30887693D01*
X81134965Y-31603667D01*
X81033288Y-31605482D01*
X80989938Y-31605778D01*
X80953298Y-31605141D01*
X80928025Y-31603702D01*
X80919506Y-31602255D01*
X80917138Y-31597494D01*
X80915079Y-31584594D01*
X80913309Y-31562465D01*
X80911812Y-31530019D01*
X80910567Y-31486166D01*
X80909558Y-31429819D01*
X80908766Y-31359888D01*
X80908173Y-31275284D01*
X80907761Y-31174919D01*
X80907512Y-31057704D01*
X80907407Y-30922550D01*
X80907401Y-30876592D01*
X80907401Y-30155973D01*
X81011500Y-30156121D01*
G37*
G36*
X88344317Y-31733132D02*
G01*
X88367455Y-31755931D01*
X88390083Y-31789416D01*
X88390379Y-31789944D01*
X88395521Y-31807848D01*
X88399195Y-31841231D01*
X88401476Y-31891271D01*
X88402440Y-31959147D01*
X88402483Y-31980451D01*
X88402406Y-32041383D01*
X88401906Y-32086104D01*
X88400587Y-32117771D01*
X88398050Y-32139540D01*
X88393897Y-32154569D01*
X88387729Y-32166014D01*
X88379147Y-32177031D01*
X88377414Y-32179096D01*
X88358893Y-32198030D01*
X88343843Y-32208263D01*
X88341100Y-32208853D01*
X88331101Y-32200625D01*
X88318790Y-32179861D01*
X88313425Y-32167698D01*
X88306836Y-32146771D01*
X88301998Y-32119684D01*
X88298624Y-32083215D01*
X88296425Y-32034145D01*
X88295113Y-31969251D01*
X88295022Y-31961959D01*
X88294653Y-31884916D01*
X88295765Y-31825366D01*
X88298586Y-31781477D01*
X88303343Y-31751416D01*
X88310263Y-31733349D01*
X88319573Y-31725443D01*
X88324405Y-31724711D01*
X88344317Y-31733132D01*
G37*
G36*
X89113188Y-34846036D02*
G01*
X89125694Y-34862139D01*
X89128751Y-34883191D01*
X89120020Y-34915555D01*
X89094653Y-34939348D01*
X89053883Y-34953459D01*
X89049886Y-34954153D01*
X89019648Y-34959895D01*
X88978842Y-34968702D01*
X88935652Y-34978800D01*
X88930238Y-34980127D01*
X88873320Y-34993733D01*
X88816063Y-35006653D01*
X88762262Y-35018108D01*
X88715717Y-35027317D01*
X88680224Y-35033498D01*
X88659583Y-35035871D01*
X88659098Y-35035876D01*
X88633899Y-35030974D01*
X88622785Y-35026032D01*
X88609201Y-35007310D01*
X88605838Y-34982974D01*
X88609191Y-34959537D01*
X88621145Y-34941612D01*
X88644543Y-34927296D01*
X88682230Y-34914685D01*
X88722258Y-34905053D01*
X88768117Y-34894774D01*
X88816254Y-34883654D01*
X88852769Y-34874941D01*
X88890665Y-34866423D01*
X88938550Y-34856701D01*
X88987289Y-34847614D01*
X88996826Y-34845950D01*
X89050924Y-34838554D01*
X89088988Y-34838378D01*
X89113188Y-34846036D01*
G37*
G36*
X90036408Y-34383531D02*
G01*
X90039006Y-34390749D01*
X90032362Y-34415003D01*
X90015727Y-34444294D01*
X89994051Y-34471332D01*
X89972477Y-34488728D01*
X89955254Y-34499387D01*
X89926422Y-34519080D01*
X89889800Y-34545132D01*
X89849205Y-34574866D01*
X89843380Y-34579202D01*
X89802512Y-34608675D01*
X89764844Y-34634012D01*
X89734213Y-34652754D01*
X89714456Y-34662443D01*
X89712652Y-34662967D01*
X89685602Y-34669812D01*
X89667178Y-34674925D01*
X89654980Y-34676271D01*
X89652196Y-34666772D01*
X89654776Y-34650536D01*
X89673045Y-34602813D01*
X89707251Y-34555288D01*
X89754365Y-34512071D01*
X89759860Y-34508007D01*
X89786985Y-34488029D01*
X89807389Y-34472391D01*
X89816284Y-34464826D01*
X89826390Y-34457251D01*
X89848533Y-34442685D01*
X89878153Y-34424119D01*
X89881735Y-34421922D01*
X89920071Y-34401758D01*
X89958494Y-34387086D01*
X89993217Y-34378657D01*
X90020451Y-34377221D01*
X90036408Y-34383531D01*
G37*
G36*
X81930974Y-36597248D02*
G01*
X82001645Y-36597687D01*
X82345411Y-36600388D01*
X82348202Y-36696423D01*
X82348797Y-36745206D01*
X82347051Y-36777278D01*
X82342728Y-36795185D01*
X82338519Y-36800373D01*
X82324975Y-36802936D01*
X82294972Y-36805027D01*
X82251191Y-36806658D01*
X82196319Y-36807841D01*
X82133040Y-36808591D01*
X82064036Y-36808920D01*
X81991993Y-36808841D01*
X81919594Y-36808366D01*
X81849525Y-36807508D01*
X81784468Y-36806281D01*
X81727108Y-36804697D01*
X81680130Y-36802768D01*
X81646217Y-36800509D01*
X81628053Y-36797931D01*
X81625922Y-36796964D01*
X81619711Y-36780425D01*
X81615758Y-36746730D01*
X81614305Y-36697986D01*
X81614302Y-36695471D01*
X81614588Y-36653246D01*
X81616039Y-36626498D01*
X81619544Y-36611340D01*
X81625995Y-36603886D01*
X81636090Y-36600293D01*
X81650609Y-36599133D01*
X81682130Y-36598212D01*
X81728291Y-36597545D01*
X81786727Y-36597152D01*
X81855076Y-36597047D01*
X81930974Y-36597248D01*
G37*
G36*
X90313487Y-34124578D02*
G01*
X90325659Y-34144389D01*
X90327761Y-34168324D01*
X90319166Y-34199477D01*
X90299245Y-34240945D01*
X90284585Y-34266954D01*
X90258212Y-34312380D01*
X90229605Y-34361855D01*
X90204306Y-34405792D01*
X90200801Y-34411901D01*
X90166858Y-34470375D01*
X90140260Y-34514355D01*
X90119322Y-34546479D01*
X90102361Y-34569386D01*
X90094180Y-34578943D01*
X90069819Y-34595763D01*
X90042705Y-34600397D01*
X90019498Y-34592602D01*
X90010296Y-34582001D01*
X90002046Y-34560943D01*
X90000272Y-34550262D01*
X90005349Y-34532552D01*
X90019653Y-34501296D01*
X90041799Y-34459147D01*
X90070398Y-34408759D01*
X90100458Y-34358642D01*
X90124981Y-34318273D01*
X90149383Y-34277379D01*
X90169055Y-34243698D01*
X90171923Y-34238673D01*
X90193793Y-34200289D01*
X90208833Y-34174615D01*
X90219708Y-34157481D01*
X90229082Y-34144715D01*
X90239621Y-34132150D01*
X90241063Y-34130489D01*
X90266865Y-34110626D01*
X90292401Y-34109698D01*
X90313487Y-34124578D01*
G37*
G36*
X88084084Y-35274858D02*
G01*
X88087730Y-35278520D01*
X88084435Y-35290957D01*
X88067273Y-35314683D01*
X88037179Y-35348497D01*
X88017223Y-35369168D01*
X87959302Y-35432592D01*
X87909626Y-35496367D01*
X87869718Y-35557948D01*
X87841100Y-35614788D01*
X87825293Y-35664343D01*
X87822717Y-35694412D01*
X87821878Y-35731171D01*
X87816269Y-35762953D01*
X87807190Y-35784783D01*
X87797281Y-35791810D01*
X87784310Y-35784231D01*
X87768233Y-35765405D01*
X87764158Y-35759195D01*
X87751071Y-35734351D01*
X87744271Y-35714275D01*
X87744001Y-35711349D01*
X87738569Y-35694317D01*
X87734317Y-35690133D01*
X87725007Y-35673618D01*
X87725266Y-35643988D01*
X87734492Y-35604609D01*
X87752085Y-35558847D01*
X87761155Y-35539854D01*
X87788450Y-35490828D01*
X87821563Y-35439151D01*
X87857304Y-35389151D01*
X87892480Y-35345153D01*
X87923899Y-35311484D01*
X87939496Y-35298131D01*
X87965522Y-35284583D01*
X87998801Y-35274714D01*
X88033524Y-35269292D01*
X88063888Y-35269084D01*
X88084084Y-35274858D01*
G37*
G36*
X86078427Y-34270918D02*
G01*
X86078349Y-34409324D01*
X86078102Y-34529394D01*
X86077671Y-34632161D01*
X86077035Y-34718654D01*
X86076180Y-34789905D01*
X86075086Y-34846945D01*
X86073736Y-34890806D01*
X86072113Y-34922518D01*
X86070199Y-34943112D01*
X86067977Y-34953621D01*
X86066792Y-34955387D01*
X86052750Y-34958735D01*
X86023938Y-34962136D01*
X85984949Y-34965131D01*
X85952079Y-34966825D01*
X85848999Y-34971072D01*
X85842753Y-34919050D01*
X85841503Y-34898805D01*
X85840393Y-34861439D01*
X85839423Y-34809046D01*
X85838593Y-34743722D01*
X85837904Y-34667560D01*
X85837357Y-34582656D01*
X85836951Y-34491103D01*
X85836687Y-34394997D01*
X85836566Y-34296432D01*
X85836587Y-34197502D01*
X85836752Y-34100302D01*
X85837061Y-34006927D01*
X85837514Y-33919470D01*
X85838112Y-33840028D01*
X85838854Y-33770693D01*
X85839742Y-33713561D01*
X85840776Y-33670727D01*
X85841956Y-33644284D01*
X85842496Y-33638568D01*
X85848654Y-33593640D01*
X85963540Y-33593640D01*
X86078427Y-33593640D01*
X86078427Y-34270918D01*
G37*
G36*
X88221179Y-32068615D02*
G01*
X88240872Y-32084987D01*
X88261141Y-32114907D01*
X88283642Y-32160528D01*
X88294739Y-32186279D01*
X88309125Y-32219969D01*
X88329110Y-32265819D01*
X88352291Y-32318356D01*
X88376262Y-32372104D01*
X88381759Y-32384339D01*
X88404779Y-32436099D01*
X88420524Y-32473617D01*
X88429977Y-32500168D01*
X88434125Y-32519029D01*
X88433952Y-32533475D01*
X88430528Y-32546539D01*
X88421200Y-32567172D01*
X88412651Y-32576777D01*
X88412012Y-32576865D01*
X88396198Y-32579617D01*
X88391171Y-32581102D01*
X88372648Y-32581031D01*
X88356056Y-32576413D01*
X88338122Y-32561954D01*
X88321734Y-32537411D01*
X88318829Y-32531021D01*
X88310190Y-32510738D01*
X88295192Y-32476265D01*
X88275370Y-32431095D01*
X88252256Y-32378725D01*
X88227386Y-32322650D01*
X88227265Y-32322378D01*
X88194772Y-32247104D01*
X88171438Y-32187242D01*
X88157102Y-32141229D01*
X88151601Y-32107503D01*
X88154772Y-32084499D01*
X88166454Y-32070653D01*
X88186484Y-32064403D01*
X88200406Y-32063636D01*
X88221179Y-32068615D01*
G37*
G36*
X89982986Y-33073060D02*
G01*
X90013836Y-33081223D01*
X90045889Y-33096966D01*
X90082095Y-33122037D01*
X90125403Y-33158186D01*
X90175802Y-33204370D01*
X90229395Y-33259182D01*
X90266918Y-33308435D01*
X90289883Y-33354703D01*
X90299797Y-33400555D01*
X90300463Y-33416744D01*
X90296629Y-33451122D01*
X90286715Y-33485747D01*
X90273097Y-33514546D01*
X90258157Y-33531446D01*
X90254940Y-33532960D01*
X90245966Y-33526749D01*
X90233607Y-33507260D01*
X90225394Y-33489900D01*
X90212135Y-33455236D01*
X90201471Y-33421502D01*
X90198575Y-33409823D01*
X90185600Y-33380438D01*
X90159648Y-33344335D01*
X90124311Y-33304830D01*
X90083177Y-33265235D01*
X90039836Y-33228866D01*
X89997880Y-33199038D01*
X89960898Y-33179063D01*
X89942171Y-33173106D01*
X89910113Y-33164619D01*
X89876413Y-33152020D01*
X89846153Y-33137708D01*
X89824418Y-33124080D01*
X89816284Y-33113699D01*
X89825155Y-33101267D01*
X89848585Y-33089237D01*
X89881795Y-33079142D01*
X89920011Y-33072510D01*
X89950390Y-33070727D01*
X89982986Y-33073060D01*
G37*
G36*
X83121215Y-33316667D02*
G01*
X83192586Y-33316855D01*
X83262985Y-33317187D01*
X83329564Y-33317654D01*
X83389477Y-33318247D01*
X83439875Y-33318957D01*
X83477913Y-33319776D01*
X83500743Y-33320694D01*
X83505357Y-33321148D01*
X83508265Y-33330736D01*
X83510104Y-33355554D01*
X83510677Y-33391486D01*
X83510199Y-33421757D01*
X83507440Y-33521013D01*
X83459022Y-33527428D01*
X83437895Y-33528966D01*
X83401262Y-33530291D01*
X83352019Y-33531396D01*
X83293062Y-33532274D01*
X83227288Y-33532918D01*
X83157592Y-33533324D01*
X83086871Y-33533484D01*
X83018022Y-33533391D01*
X82953941Y-33533041D01*
X82897524Y-33532425D01*
X82851667Y-33531539D01*
X82819267Y-33530375D01*
X82803220Y-33528927D01*
X82802960Y-33528863D01*
X82795250Y-33524591D01*
X82790273Y-33514268D01*
X82787458Y-33494372D01*
X82786233Y-33461382D01*
X82786014Y-33424376D01*
X82786014Y-33324317D01*
X82832011Y-33319055D01*
X82849426Y-33318194D01*
X82882951Y-33317530D01*
X82929740Y-33317055D01*
X82986945Y-33316758D01*
X83051719Y-33316632D01*
X83121215Y-33316667D01*
G37*
G36*
X89521104Y-34901725D02*
G01*
X89521990Y-34902629D01*
X89521025Y-34916282D01*
X89511790Y-34940171D01*
X89497126Y-34968668D01*
X89479873Y-34996145D01*
X89465854Y-35013892D01*
X89443487Y-35031174D01*
X89409630Y-35045976D01*
X89362224Y-35058878D01*
X89299215Y-35070462D01*
X89233663Y-35079481D01*
X89179000Y-35086199D01*
X89140524Y-35090703D01*
X89115195Y-35093106D01*
X89099974Y-35093519D01*
X89091820Y-35092052D01*
X89087694Y-35088818D01*
X89085175Y-35084909D01*
X89071392Y-35076510D01*
X89062139Y-35075226D01*
X89043280Y-35068588D01*
X89020102Y-35052305D01*
X88998736Y-35031819D01*
X88985316Y-35012575D01*
X88983498Y-35005423D01*
X88991450Y-34993940D01*
X89015870Y-34985740D01*
X89057600Y-34980668D01*
X89117484Y-34978572D01*
X89131580Y-34978497D01*
X89185982Y-34976021D01*
X89244361Y-34969406D01*
X89300895Y-34959657D01*
X89349759Y-34947781D01*
X89385131Y-34934783D01*
X89385366Y-34934666D01*
X89414532Y-34922460D01*
X89448084Y-34911798D01*
X89480626Y-34903944D01*
X89506765Y-34900165D01*
X89521104Y-34901725D01*
G37*
G36*
X87896268Y-31668050D02*
G01*
X87936452Y-31669450D01*
X87960400Y-31671796D01*
X87966723Y-31674381D01*
X87960039Y-31687407D01*
X87950697Y-31696896D01*
X87938929Y-31707804D01*
X87929281Y-31720433D01*
X87921511Y-31736754D01*
X87915375Y-31758740D01*
X87910633Y-31788364D01*
X87907042Y-31827597D01*
X87904360Y-31878413D01*
X87902344Y-31942782D01*
X87900753Y-32022678D01*
X87899417Y-32114475D01*
X87898938Y-32150788D01*
X87794839Y-32149365D01*
X87744634Y-32148171D01*
X87694933Y-32146130D01*
X87653056Y-32143579D01*
X87635311Y-32142007D01*
X87607000Y-32138647D01*
X87585369Y-32133807D01*
X87569474Y-32125082D01*
X87558369Y-32110064D01*
X87551106Y-32086348D01*
X87546740Y-32051526D01*
X87544325Y-32003193D01*
X87542914Y-31938942D01*
X87542377Y-31905656D01*
X87540852Y-31832676D01*
X87540352Y-31776619D01*
X87543078Y-31735231D01*
X87551232Y-31706256D01*
X87567015Y-31687439D01*
X87592628Y-31676523D01*
X87630274Y-31671254D01*
X87682153Y-31669377D01*
X87750467Y-31668635D01*
X87774046Y-31668304D01*
X87841562Y-31667650D01*
X87896268Y-31668050D01*
G37*
G36*
X88260743Y-32469252D02*
G01*
X88274685Y-32490900D01*
X88289439Y-32520558D01*
X88302406Y-32553025D01*
X88310693Y-32581707D01*
X88320635Y-32601341D01*
X88342256Y-32629918D01*
X88372235Y-32664128D01*
X88407250Y-32700662D01*
X88443983Y-32736209D01*
X88479111Y-32767459D01*
X88509317Y-32791102D01*
X88531278Y-32803829D01*
X88534476Y-32804792D01*
X88567783Y-32813989D01*
X88603487Y-32826670D01*
X88636809Y-32840750D01*
X88662969Y-32854144D01*
X88677187Y-32864765D01*
X88678465Y-32867624D01*
X88669572Y-32883943D01*
X88645948Y-32897748D01*
X88612177Y-32907960D01*
X88572841Y-32913500D01*
X88532524Y-32913288D01*
X88504210Y-32908658D01*
X88478874Y-32896825D01*
X88444287Y-32873277D01*
X88403737Y-32841056D01*
X88360512Y-32803209D01*
X88317899Y-32762778D01*
X88279186Y-32722809D01*
X88247662Y-32686346D01*
X88226613Y-32656433D01*
X88222031Y-32647382D01*
X88212708Y-32613478D01*
X88209632Y-32574604D01*
X88212111Y-32535359D01*
X88219448Y-32500340D01*
X88230950Y-32474145D01*
X88245921Y-32461370D01*
X88250216Y-32460813D01*
X88260743Y-32469252D01*
G37*
G36*
X89015828Y-30769442D02*
G01*
X89030171Y-30778568D01*
X89035256Y-30783747D01*
X89046353Y-30798034D01*
X89051802Y-30812098D01*
X89050353Y-30827505D01*
X89040755Y-30845824D01*
X89021760Y-30868621D01*
X88992117Y-30897465D01*
X88950576Y-30933922D01*
X88895887Y-30979561D01*
X88847683Y-31018975D01*
X88803568Y-31054919D01*
X88760473Y-31090108D01*
X88722690Y-31121030D01*
X88694512Y-31144176D01*
X88689226Y-31148539D01*
X88644117Y-31185314D01*
X88610677Y-31211058D01*
X88586084Y-31227587D01*
X88567512Y-31236719D01*
X88552140Y-31240269D01*
X88546235Y-31240533D01*
X88517651Y-31231837D01*
X88503581Y-31216798D01*
X88493633Y-31191416D01*
X88494219Y-31173563D01*
X88505453Y-31156621D01*
X88530230Y-31130540D01*
X88566284Y-31097373D01*
X88611351Y-31059173D01*
X88663169Y-31017995D01*
X88679389Y-31005597D01*
X88708368Y-30983159D01*
X88747813Y-30951946D01*
X88793261Y-30915521D01*
X88840250Y-30877448D01*
X88857373Y-30863460D01*
X88908334Y-30822584D01*
X88947348Y-30793781D01*
X88976727Y-30776013D01*
X88998784Y-30768245D01*
X89015828Y-30769442D01*
G37*
G36*
X90347884Y-33713232D02*
G01*
X90377681Y-33724666D01*
X90409261Y-33744218D01*
X90437017Y-33768768D01*
X90446674Y-33780486D01*
X90466656Y-33814112D01*
X90480689Y-33853267D01*
X90489320Y-33901191D01*
X90493094Y-33961127D01*
X90492558Y-34036313D01*
X90492104Y-34050111D01*
X90488744Y-34114024D01*
X90483099Y-34162777D01*
X90473992Y-34200544D01*
X90460250Y-34231500D01*
X90440698Y-34259819D01*
X90429328Y-34273225D01*
X90407469Y-34291245D01*
X90378512Y-34306777D01*
X90347590Y-34318167D01*
X90319839Y-34323764D01*
X90300393Y-34321914D01*
X90294839Y-34316521D01*
X90297488Y-34302892D01*
X90308900Y-34277541D01*
X90326989Y-34244789D01*
X90338628Y-34225815D01*
X90387615Y-34148656D01*
X90387615Y-34015705D01*
X90387381Y-33961631D01*
X90386308Y-33922869D01*
X90383837Y-33895363D01*
X90379412Y-33875061D01*
X90372474Y-33857908D01*
X90363719Y-33841978D01*
X90345278Y-33806778D01*
X90328781Y-33769329D01*
X90325268Y-33759951D01*
X90316991Y-33734136D01*
X90316069Y-33720747D01*
X90322527Y-33714283D01*
X90325476Y-33713036D01*
X90347884Y-33713232D01*
G37*
G36*
X88563623Y-31013599D02*
G01*
X88582184Y-31021861D01*
X88594743Y-31033544D01*
X88596140Y-31039199D01*
X88553880Y-31069690D01*
X88519993Y-31091271D01*
X88488278Y-31107787D01*
X88478162Y-31112372D01*
X88449464Y-31128869D01*
X88414727Y-31154663D01*
X88376799Y-31186908D01*
X88338529Y-31222757D01*
X88302767Y-31259362D01*
X88272361Y-31293878D01*
X88250161Y-31323456D01*
X88239017Y-31345250D01*
X88238401Y-31351954D01*
X88237161Y-31367406D01*
X88231893Y-31393586D01*
X88224378Y-31422743D01*
X88216715Y-31446309D01*
X88203295Y-31467997D01*
X88187417Y-31470505D01*
X88169542Y-31453794D01*
X88167054Y-31450145D01*
X88148474Y-31404479D01*
X88144571Y-31347318D01*
X88150475Y-31302045D01*
X88155540Y-31279202D01*
X88162036Y-31260373D01*
X88172343Y-31242271D01*
X88188838Y-31221607D01*
X88213901Y-31195093D01*
X88249911Y-31159441D01*
X88262635Y-31147027D01*
X88302378Y-31109725D01*
X88341158Y-31075842D01*
X88375139Y-31048564D01*
X88400485Y-31031079D01*
X88405447Y-31028403D01*
X88442231Y-31015908D01*
X88485184Y-31009116D01*
X88527812Y-31008266D01*
X88563623Y-31013599D01*
G37*
G36*
X90195113Y-34501054D02*
G01*
X90198008Y-34503250D01*
X90211805Y-34525618D01*
X90218832Y-34560763D01*
X90218646Y-34603159D01*
X90210802Y-34647277D01*
X90209854Y-34650634D01*
X90194640Y-34687809D01*
X90169888Y-34723806D01*
X90133198Y-34761316D01*
X90082174Y-34803025D01*
X90057918Y-34820977D01*
X89988202Y-34867596D01*
X89927685Y-34899145D01*
X89874217Y-34916246D01*
X89825648Y-34919522D01*
X89779828Y-34909598D01*
X89768155Y-34904955D01*
X89737829Y-34889022D01*
X89713758Y-34871391D01*
X89700970Y-34855963D01*
X89700082Y-34852132D01*
X89700768Y-34848814D01*
X89704914Y-34845768D01*
X89715646Y-34842094D01*
X89736094Y-34836897D01*
X89769385Y-34829277D01*
X89815215Y-34819098D01*
X89863345Y-34805628D01*
X89907427Y-34786132D01*
X89955866Y-34756831D01*
X89960469Y-34753757D01*
X90008604Y-34721140D01*
X90043642Y-34696141D01*
X90068680Y-34675750D01*
X90086812Y-34656961D01*
X90101134Y-34636765D01*
X90114742Y-34612153D01*
X90122921Y-34595889D01*
X90145978Y-34550523D01*
X90162914Y-34520591D01*
X90175541Y-34503858D01*
X90185670Y-34498091D01*
X90195113Y-34501054D01*
G37*
G36*
X88649021Y-34792128D02*
G01*
X88677739Y-34799596D01*
X88706336Y-34815366D01*
X88709937Y-34817757D01*
X88733949Y-34837105D01*
X88748706Y-34855294D01*
X88751092Y-34862809D01*
X88748381Y-34871773D01*
X88737803Y-34877968D01*
X88715695Y-34882520D01*
X88678391Y-34886557D01*
X88672037Y-34887120D01*
X88638105Y-34890761D01*
X88609125Y-34896136D01*
X88580336Y-34904863D01*
X88546977Y-34918558D01*
X88504287Y-34938841D01*
X88471103Y-34955405D01*
X88419898Y-34981759D01*
X88382245Y-35002951D01*
X88354065Y-35021834D01*
X88331280Y-35041267D01*
X88309814Y-35064104D01*
X88300806Y-35074685D01*
X88276350Y-35102224D01*
X88255400Y-35122766D01*
X88241813Y-35132597D01*
X88240284Y-35132952D01*
X88231908Y-35123915D01*
X88228326Y-35096126D01*
X88228179Y-35086354D01*
X88231093Y-35039703D01*
X88241204Y-35000432D01*
X88260569Y-34966152D01*
X88291243Y-34934472D01*
X88335284Y-34903000D01*
X88394746Y-34869346D01*
X88430419Y-34851194D01*
X88481021Y-34826497D01*
X88518691Y-34809499D01*
X88547593Y-34798795D01*
X88571889Y-34792980D01*
X88595741Y-34790648D01*
X88610680Y-34790339D01*
X88649021Y-34792128D01*
G37*
G36*
X88139018Y-31680740D02*
G01*
X88140301Y-31693402D01*
X88136011Y-31718564D01*
X88127648Y-31750697D01*
X88116712Y-31784270D01*
X88104700Y-31813755D01*
X88100885Y-31821404D01*
X88091269Y-31850141D01*
X88085144Y-31890583D01*
X88082326Y-31938461D01*
X88082635Y-31989507D01*
X88085886Y-32039454D01*
X88091899Y-32084035D01*
X88100490Y-32118983D01*
X88111478Y-32140028D01*
X88114607Y-32142636D01*
X88123467Y-32154855D01*
X88135221Y-32178868D01*
X88147121Y-32207944D01*
X88156422Y-32235348D01*
X88160378Y-32254347D01*
X88160386Y-32254887D01*
X88152794Y-32264935D01*
X88133184Y-32266134D01*
X88106337Y-32259277D01*
X88077032Y-32245156D01*
X88068530Y-32239660D01*
X88039296Y-32217974D01*
X88017862Y-32196962D01*
X88002991Y-32173115D01*
X87993446Y-32142923D01*
X87987989Y-32102880D01*
X87985382Y-32049475D01*
X87984584Y-32001682D01*
X87984018Y-31937190D01*
X87983986Y-31888990D01*
X87984710Y-31854007D01*
X87986412Y-31829168D01*
X87989313Y-31811400D01*
X87993635Y-31797629D01*
X87999601Y-31784781D01*
X88000350Y-31783325D01*
X88018781Y-31756262D01*
X88044406Y-31729278D01*
X88073245Y-31705316D01*
X88101321Y-31687320D01*
X88124654Y-31678233D01*
X88139018Y-31680740D01*
G37*
G36*
X85384878Y-32071792D02*
G01*
X85398816Y-32097375D01*
X85419720Y-32137293D01*
X85446814Y-32190018D01*
X85479321Y-32254021D01*
X85516466Y-32327774D01*
X85557470Y-32409748D01*
X85601559Y-32498414D01*
X85647671Y-32591668D01*
X85707413Y-32712812D01*
X85759159Y-32817751D01*
X85803475Y-32907654D01*
X85840927Y-32983686D01*
X85872079Y-33047017D01*
X85897498Y-33098812D01*
X85917748Y-33140241D01*
X85933396Y-33172470D01*
X85945006Y-33196667D01*
X85953145Y-33213999D01*
X85958377Y-33225634D01*
X85961267Y-33232740D01*
X85962383Y-33236484D01*
X85962288Y-33238033D01*
X85961548Y-33238555D01*
X85961090Y-33238813D01*
X85950776Y-33244187D01*
X85929182Y-33254400D01*
X85918648Y-33259228D01*
X85886009Y-33274282D01*
X85848086Y-33292074D01*
X85832105Y-33299666D01*
X85804700Y-33312306D01*
X85784974Y-33320573D01*
X85778845Y-33322443D01*
X85773701Y-33314004D01*
X85760631Y-33289644D01*
X85740355Y-33250774D01*
X85713591Y-33198805D01*
X85681060Y-33135146D01*
X85643480Y-33061208D01*
X85601572Y-32978401D01*
X85556054Y-32888136D01*
X85507646Y-32791822D01*
X85479586Y-32735855D01*
X85430019Y-32636779D01*
X85383175Y-32542905D01*
X85339751Y-32455644D01*
X85300446Y-32376412D01*
X85265957Y-32306621D01*
X85236981Y-32247685D01*
X85214217Y-32201018D01*
X85198362Y-32168033D01*
X85190114Y-32150144D01*
X85189079Y-32147246D01*
X85216401Y-32131576D01*
X85250920Y-32113890D01*
X85288270Y-32096147D01*
X85324089Y-32080309D01*
X85354012Y-32068335D01*
X85373674Y-32062185D01*
X85378683Y-32062074D01*
X85384878Y-32071792D01*
G37*
G36*
X85845531Y-35254301D02*
G01*
X85870868Y-35266784D01*
X85902269Y-35284334D01*
X85935328Y-35304270D01*
X85965638Y-35323908D01*
X85988792Y-35340569D01*
X86000383Y-35351570D01*
X86000958Y-35353184D01*
X85996648Y-35364816D01*
X85984345Y-35391753D01*
X85964991Y-35432117D01*
X85939527Y-35484030D01*
X85908894Y-35545614D01*
X85874034Y-35614990D01*
X85835889Y-35690280D01*
X85795400Y-35769607D01*
X85753507Y-35851091D01*
X85711154Y-35932856D01*
X85691299Y-35970956D01*
X85655058Y-36040490D01*
X85615584Y-36116450D01*
X85574665Y-36195379D01*
X85534086Y-36273821D01*
X85495634Y-36348320D01*
X85461096Y-36415419D01*
X85432257Y-36471663D01*
X85413994Y-36507496D01*
X85388380Y-36554729D01*
X85368713Y-36583702D01*
X85354896Y-36594552D01*
X85353478Y-36594636D01*
X85338363Y-36589669D01*
X85311293Y-36577144D01*
X85277004Y-36559328D01*
X85260165Y-36550010D01*
X85225856Y-36530527D01*
X85198558Y-36514795D01*
X85182219Y-36505102D01*
X85179391Y-36503231D01*
X85181306Y-36497109D01*
X85189048Y-36479985D01*
X85202933Y-36451239D01*
X85223277Y-36410249D01*
X85250394Y-36356395D01*
X85284601Y-36289054D01*
X85326211Y-36207608D01*
X85375542Y-36111433D01*
X85432907Y-35999910D01*
X85498624Y-35872417D01*
X85567728Y-35738550D01*
X85621789Y-35633937D01*
X85667692Y-35545253D01*
X85706134Y-35471203D01*
X85737810Y-35410493D01*
X85763417Y-35361827D01*
X85783651Y-35323910D01*
X85799210Y-35295447D01*
X85810788Y-35275144D01*
X85819084Y-35261704D01*
X85824792Y-35253834D01*
X85828610Y-35250237D01*
X85830665Y-35249565D01*
X85845531Y-35254301D01*
G37*
G36*
X84498328Y-33571568D02*
G01*
X84520044Y-33590459D01*
X84548289Y-33618194D01*
X84580190Y-33651704D01*
X84612874Y-33687920D01*
X84643469Y-33723775D01*
X84669100Y-33756200D01*
X84680939Y-33772786D01*
X84727718Y-33848165D01*
X84764365Y-33921641D01*
X84792676Y-33998241D01*
X84814448Y-34082989D01*
X84831475Y-34180911D01*
X84834435Y-34202264D01*
X84840874Y-34254571D01*
X84843973Y-34294961D01*
X84843752Y-34330591D01*
X84840233Y-34368617D01*
X84835050Y-34405619D01*
X84819014Y-34497844D01*
X84800059Y-34576043D01*
X84776198Y-34645536D01*
X84745444Y-34711644D01*
X84705810Y-34779684D01*
X84681307Y-34817184D01*
X84657903Y-34848969D01*
X84628115Y-34885081D01*
X84594833Y-34922514D01*
X84560945Y-34958266D01*
X84529340Y-34989332D01*
X84502907Y-35012708D01*
X84484534Y-35025390D01*
X84479739Y-35026808D01*
X84466956Y-35019961D01*
X84445264Y-35001572D01*
X84418278Y-34974873D01*
X84402307Y-34957615D01*
X84375137Y-34926813D01*
X84353207Y-34900976D01*
X84339569Y-34883751D01*
X84336692Y-34879226D01*
X84340947Y-34867808D01*
X84355613Y-34847809D01*
X84371675Y-34829796D01*
X84436267Y-34752618D01*
X84492690Y-34666046D01*
X84537927Y-34575467D01*
X84568960Y-34486268D01*
X84572764Y-34470948D01*
X84581941Y-34414246D01*
X84586967Y-34345803D01*
X84587841Y-34272580D01*
X84584559Y-34201537D01*
X84577116Y-34139634D01*
X84572926Y-34118785D01*
X84549214Y-34042398D01*
X84514284Y-33962894D01*
X84471284Y-33885929D01*
X84423362Y-33817159D01*
X84375242Y-33763712D01*
X84356483Y-33743107D01*
X84345921Y-33725833D01*
X84345068Y-33721870D01*
X84351301Y-33709178D01*
X84367707Y-33686910D01*
X84390851Y-33658899D01*
X84417297Y-33628981D01*
X84443608Y-33600990D01*
X84466349Y-33578759D01*
X84482084Y-33566124D01*
X84486013Y-33564589D01*
X84498328Y-33571568D01*
G37*
G36*
X87763376Y-35971932D02*
G01*
X87765611Y-35985199D01*
X87762945Y-36010542D01*
X87756766Y-36041717D01*
X87748463Y-36072484D01*
X87739425Y-36096599D01*
X87733540Y-36106042D01*
X87730386Y-36118547D01*
X87727723Y-36146733D01*
X87725768Y-36186917D01*
X87724738Y-36235416D01*
X87724634Y-36257237D01*
X87724757Y-36312503D01*
X87725464Y-36351840D01*
X87727256Y-36378688D01*
X87730638Y-36396485D01*
X87736113Y-36408671D01*
X87744184Y-36418684D01*
X87748980Y-36423580D01*
X87786108Y-36448140D01*
X87828416Y-36454813D01*
X87864382Y-36446352D01*
X87886230Y-36435979D01*
X87902431Y-36423792D01*
X87913822Y-36406912D01*
X87921244Y-36382460D01*
X87925536Y-36347558D01*
X87927538Y-36299326D01*
X87928088Y-36234886D01*
X87928095Y-36227837D01*
X87928807Y-36145305D01*
X87930855Y-36081454D01*
X87934291Y-36035640D01*
X87939169Y-36007220D01*
X87945541Y-35995549D01*
X87947141Y-35995165D01*
X87963369Y-36003147D01*
X87983855Y-36024052D01*
X88004531Y-36053318D01*
X88013752Y-36069827D01*
X88021955Y-36087868D01*
X88027685Y-36106907D01*
X88031373Y-36130785D01*
X88033450Y-36163344D01*
X88034349Y-36208427D01*
X88034508Y-36254748D01*
X88034036Y-36315693D01*
X88032416Y-36360681D01*
X88029345Y-36393102D01*
X88024517Y-36416347D01*
X88018596Y-36431859D01*
X87983346Y-36485191D01*
X87936828Y-36526098D01*
X87882482Y-36552857D01*
X87823746Y-36563749D01*
X87766899Y-36557802D01*
X87719616Y-36536811D01*
X87674315Y-36500074D01*
X87646304Y-36466934D01*
X87618114Y-36428020D01*
X87618274Y-36262431D01*
X87618502Y-36201288D01*
X87619296Y-36156115D01*
X87621019Y-36123516D01*
X87624037Y-36100094D01*
X87628715Y-36082454D01*
X87635416Y-36067199D01*
X87640178Y-36058451D01*
X87658047Y-36034669D01*
X87683000Y-36010792D01*
X87710627Y-35989916D01*
X87736520Y-35975137D01*
X87756272Y-35969550D01*
X87763376Y-35971932D01*
G37*
G36*
X85414470Y-30163115D02*
G01*
X85438039Y-30182485D01*
X85468786Y-30211592D01*
X85504212Y-30247771D01*
X85541819Y-30288362D01*
X85579109Y-30330701D01*
X85613583Y-30372125D01*
X85642743Y-30409971D01*
X85654815Y-30427113D01*
X85694593Y-30493067D01*
X85732069Y-30568037D01*
X85764299Y-30645282D01*
X85788337Y-30718063D01*
X85796540Y-30751513D01*
X85804815Y-30789819D01*
X85813155Y-30826250D01*
X85817653Y-30844630D01*
X85822426Y-30875441D01*
X85824800Y-30918151D01*
X85825016Y-30968803D01*
X85823311Y-31023439D01*
X85819924Y-31078101D01*
X85815096Y-31128833D01*
X85809064Y-31171676D01*
X85802067Y-31202672D01*
X85795155Y-31217159D01*
X85788942Y-31232142D01*
X85787920Y-31242329D01*
X85784496Y-31261583D01*
X85775412Y-31293473D01*
X85762449Y-31332754D01*
X85747389Y-31374184D01*
X85732014Y-31412518D01*
X85723920Y-31430701D01*
X85705720Y-31465042D01*
X85680228Y-31506976D01*
X85649449Y-31553808D01*
X85615383Y-31602843D01*
X85580035Y-31651384D01*
X85545405Y-31696736D01*
X85513498Y-31736203D01*
X85486315Y-31767091D01*
X85465858Y-31786703D01*
X85455141Y-31792496D01*
X85443100Y-31786365D01*
X85420580Y-31769858D01*
X85391272Y-31745799D01*
X85370886Y-31727952D01*
X85340119Y-31699905D01*
X85315253Y-31676373D01*
X85299556Y-31660495D01*
X85295830Y-31655801D01*
X85300797Y-31646079D01*
X85316616Y-31625610D01*
X85340689Y-31597583D01*
X85364744Y-31571223D01*
X85439134Y-31482535D01*
X85496484Y-31394113D01*
X85522074Y-31342210D01*
X85545773Y-31285634D01*
X85563185Y-31238129D01*
X85575260Y-31194684D01*
X85582954Y-31150288D01*
X85587218Y-31099932D01*
X85589005Y-31038604D01*
X85589291Y-30988760D01*
X85588595Y-30915893D01*
X85585779Y-30857528D01*
X85579931Y-30808839D01*
X85570140Y-30765000D01*
X85555493Y-30721182D01*
X85535078Y-30672561D01*
X85525618Y-30651821D01*
X85511565Y-30620789D01*
X85501461Y-30597215D01*
X85497419Y-30586038D01*
X85497413Y-30585926D01*
X85491261Y-30570845D01*
X85474584Y-30544981D01*
X85450048Y-30511732D01*
X85420320Y-30474495D01*
X85388067Y-30436666D01*
X85355955Y-30401643D01*
X85340234Y-30385703D01*
X85309705Y-30354726D01*
X85285535Y-30328295D01*
X85270418Y-30309485D01*
X85266706Y-30301765D01*
X85276048Y-30286571D01*
X85294612Y-30263021D01*
X85318823Y-30235007D01*
X85345101Y-30206421D01*
X85369870Y-30181154D01*
X85389551Y-30163098D01*
X85400567Y-30156145D01*
X85400577Y-30156145D01*
X85414470Y-30163115D01*
G37*
G36*
X86718257Y-33489378D02*
G01*
X86730417Y-33495628D01*
X86746359Y-33507029D01*
X86766877Y-33524337D01*
X86792764Y-33548310D01*
X86824816Y-33579704D01*
X86863827Y-33619275D01*
X86910590Y-33667781D01*
X86965901Y-33725978D01*
X87030553Y-33794624D01*
X87105341Y-33874473D01*
X87191060Y-33966284D01*
X87288503Y-34070813D01*
X87385709Y-34175130D01*
X87466675Y-34262139D01*
X87537559Y-34338575D01*
X87597820Y-34403850D01*
X87646917Y-34457374D01*
X87684311Y-34498558D01*
X87709461Y-34526812D01*
X87721525Y-34541149D01*
X87733234Y-34568529D01*
X87725775Y-34593933D01*
X87716858Y-34603846D01*
X87707588Y-34609659D01*
X87692580Y-34614031D01*
X87669090Y-34617223D01*
X87634375Y-34619497D01*
X87585693Y-34621112D01*
X87522644Y-34622293D01*
X87345889Y-34624940D01*
X87406643Y-34712092D01*
X87445300Y-34762812D01*
X87495070Y-34821000D01*
X87552540Y-34883249D01*
X87614296Y-34946153D01*
X87676924Y-35006306D01*
X87737010Y-35060300D01*
X87791141Y-35104729D01*
X87823890Y-35128468D01*
X87858796Y-35152648D01*
X87886716Y-35173498D01*
X87904277Y-35188406D01*
X87908621Y-35194117D01*
X87901912Y-35204646D01*
X87884342Y-35223638D01*
X87860254Y-35246482D01*
X87828154Y-35279999D01*
X87791088Y-35326103D01*
X87752482Y-35379926D01*
X87715762Y-35436601D01*
X87684355Y-35491260D01*
X87674784Y-35509965D01*
X87657805Y-35554019D01*
X87645471Y-35603740D01*
X87642531Y-35623747D01*
X87636734Y-35661575D01*
X87629180Y-35681406D01*
X87622664Y-35685291D01*
X87611742Y-35678757D01*
X87589742Y-35660643D01*
X87559161Y-35633178D01*
X87522496Y-35598595D01*
X87489824Y-35566667D01*
X87378849Y-35451041D01*
X87282104Y-35337544D01*
X87195987Y-35221200D01*
X87116898Y-35097031D01*
X87041237Y-34960058D01*
X87017916Y-34914221D01*
X86954375Y-34787108D01*
X86889418Y-34860961D01*
X86840015Y-34916948D01*
X86801521Y-34959691D01*
X86772111Y-34990540D01*
X86749964Y-35010847D01*
X86733258Y-35021963D01*
X86720170Y-35025239D01*
X86708876Y-35022026D01*
X86697556Y-35013674D01*
X86691211Y-35007896D01*
X86678208Y-34988329D01*
X86662842Y-34953363D01*
X86646271Y-34906643D01*
X86629656Y-34851814D01*
X86614156Y-34792523D01*
X86600932Y-34732412D01*
X86597098Y-34712092D01*
X86588800Y-34666082D01*
X86580585Y-34620822D01*
X86573909Y-34584313D01*
X86572471Y-34576522D01*
X86566339Y-34530952D01*
X86561609Y-34470821D01*
X86558394Y-34400894D01*
X86556808Y-34325934D01*
X86556963Y-34250706D01*
X86558973Y-34179972D01*
X86561893Y-34131078D01*
X86575889Y-33991393D01*
X86595386Y-33857112D01*
X86619530Y-33733666D01*
X86633535Y-33675950D01*
X86648348Y-33619831D01*
X86659470Y-33579236D01*
X86667931Y-33550908D01*
X86674762Y-33531589D01*
X86680993Y-33518020D01*
X86686373Y-33508909D01*
X86691542Y-33500754D01*
X86696520Y-33493968D01*
X86702102Y-33489305D01*
X86709083Y-33487523D01*
X86718257Y-33489378D01*
G37*
G36*
X91828385Y-33487121D02*
G01*
X91840731Y-33489413D01*
X91852135Y-33497371D01*
X91863132Y-33512617D01*
X91874254Y-33536774D01*
X91886038Y-33571462D01*
X91899017Y-33618305D01*
X91913725Y-33678925D01*
X91930698Y-33754943D01*
X91950469Y-33847982D01*
X91955989Y-33874463D01*
X91962474Y-33913291D01*
X91969095Y-33966412D01*
X91975301Y-34028766D01*
X91980540Y-34095291D01*
X91981309Y-34106869D01*
X91982325Y-34133313D01*
X91983064Y-34173918D01*
X91983528Y-34224366D01*
X91983722Y-34280343D01*
X91983648Y-34337532D01*
X91983310Y-34391617D01*
X91982711Y-34438283D01*
X91981854Y-34473214D01*
X91981022Y-34489370D01*
X91974577Y-34562582D01*
X91968913Y-34619086D01*
X91963728Y-34661513D01*
X91958722Y-34692492D01*
X91956671Y-34702409D01*
X91950162Y-34731591D01*
X91941345Y-34771220D01*
X91932102Y-34812836D01*
X91931895Y-34813770D01*
X91912455Y-34892362D01*
X91893040Y-34952276D01*
X91873330Y-34994198D01*
X91853002Y-35018813D01*
X91831854Y-35026808D01*
X91816176Y-35019799D01*
X91790408Y-34998540D01*
X91754194Y-34962683D01*
X91707181Y-34911879D01*
X91655924Y-34853758D01*
X91626413Y-34821423D01*
X91604613Y-34801040D01*
X91592141Y-34794032D01*
X91589992Y-34795656D01*
X91584356Y-34809277D01*
X91572068Y-34836268D01*
X91554991Y-34872606D01*
X91536762Y-34910605D01*
X91461494Y-35055350D01*
X91380928Y-35188183D01*
X91291963Y-35313393D01*
X91191501Y-35435269D01*
X91076444Y-35558100D01*
X91049552Y-35584998D01*
X90906386Y-35714784D01*
X90751837Y-35831648D01*
X90584468Y-35936502D01*
X90402840Y-36030260D01*
X90233925Y-36102797D01*
X90187185Y-36121276D01*
X90145644Y-36137822D01*
X90113307Y-36150830D01*
X90094180Y-36158697D01*
X90092266Y-36159524D01*
X90073866Y-36167119D01*
X90043639Y-36179075D01*
X90007874Y-36192905D01*
X90005114Y-36193959D01*
X89949671Y-36216049D01*
X89888003Y-36242142D01*
X89824086Y-36270408D01*
X89761893Y-36299013D01*
X89705400Y-36326128D01*
X89658582Y-36349920D01*
X89625412Y-36368558D01*
X89623146Y-36369974D01*
X89548835Y-36419920D01*
X89480457Y-36472626D01*
X89411115Y-36533569D01*
X89379350Y-36563608D01*
X89335585Y-36603967D01*
X89302913Y-36629971D01*
X89280321Y-36642385D01*
X89272831Y-36643740D01*
X89256950Y-36638133D01*
X89233091Y-36620785D01*
X89199872Y-36590548D01*
X89157802Y-36548236D01*
X89066938Y-36464875D01*
X88961651Y-36388413D01*
X88840795Y-36318178D01*
X88703224Y-36253497D01*
X88564327Y-36199530D01*
X88511936Y-36180220D01*
X88450095Y-36156422D01*
X88384421Y-36130391D01*
X88320531Y-36104380D01*
X88264044Y-36080644D01*
X88223337Y-36062705D01*
X88193107Y-36047810D01*
X88157098Y-36028494D01*
X88119159Y-36007033D01*
X88083140Y-35985704D01*
X88052891Y-35966784D01*
X88032259Y-35952547D01*
X88025075Y-35945464D01*
X88032486Y-35937662D01*
X88052350Y-35922505D01*
X88080731Y-35902953D01*
X88087787Y-35898316D01*
X88121297Y-35874337D01*
X88151552Y-35847222D01*
X88181506Y-35813602D01*
X88214114Y-35770109D01*
X88252329Y-35713375D01*
X88259003Y-35703089D01*
X88290276Y-35653467D01*
X88312056Y-35614504D01*
X88326122Y-35581111D01*
X88334253Y-35548198D01*
X88338229Y-35510676D01*
X88339647Y-35472437D01*
X88341675Y-35380628D01*
X88490703Y-35380428D01*
X88548028Y-35380191D01*
X88589976Y-35379303D01*
X88620534Y-35377228D01*
X88643692Y-35373433D01*
X88663439Y-35367384D01*
X88683762Y-35358548D01*
X88695090Y-35353063D01*
X88765446Y-35308241D01*
X88823805Y-35248532D01*
X88870667Y-35173413D01*
X88873586Y-35167448D01*
X88890424Y-35134129D01*
X88904740Y-35108816D01*
X88914162Y-35095602D01*
X88915839Y-35094593D01*
X88927426Y-35101136D01*
X88934199Y-35108057D01*
X88959287Y-35126842D01*
X88999640Y-35143566D01*
X89051175Y-35156962D01*
X89109804Y-35165760D01*
X89123909Y-35167003D01*
X89176902Y-35168410D01*
X89238017Y-35165863D01*
X89301758Y-35159999D01*
X89362627Y-35151453D01*
X89415128Y-35140859D01*
X89453698Y-35128881D01*
X89491196Y-35106806D01*
X89530435Y-35073567D01*
X89564960Y-35035426D01*
X89588318Y-34998645D01*
X89588626Y-34997967D01*
X89600808Y-34974383D01*
X89610948Y-34960544D01*
X89613714Y-34959023D01*
X89619522Y-34967678D01*
X89626895Y-34990121D01*
X89632758Y-35014704D01*
X89657321Y-35106344D01*
X89690233Y-35182307D01*
X89732527Y-35244846D01*
X89744434Y-35258374D01*
X89803743Y-35311642D01*
X89869824Y-35349608D01*
X89944769Y-35372976D01*
X90030668Y-35382451D01*
X90106791Y-35380639D01*
X90159758Y-35375081D01*
X90217945Y-35366079D01*
X90275572Y-35354795D01*
X90326859Y-35342388D01*
X90366026Y-35330022D01*
X90373090Y-35327141D01*
X90488562Y-35273909D01*
X90591196Y-35220816D01*
X90678986Y-35168975D01*
X90749932Y-35119494D01*
X90755591Y-35115061D01*
X90789883Y-35087336D01*
X90828920Y-35054900D01*
X90868766Y-35021119D01*
X90905489Y-34989361D01*
X90935156Y-34962995D01*
X90953833Y-34945386D01*
X90954146Y-34945066D01*
X91005721Y-34888868D01*
X91060492Y-34823767D01*
X91112189Y-34757450D01*
X91148097Y-34707250D01*
X91203879Y-34624940D01*
X91024767Y-34620098D01*
X90947872Y-34617481D01*
X90889343Y-34613534D01*
X90848178Y-34607108D01*
X90823376Y-34597054D01*
X90813937Y-34582222D01*
X90818859Y-34561462D01*
X90837141Y-34533626D01*
X90867782Y-34497564D01*
X90893581Y-34469459D01*
X90920195Y-34440907D01*
X90957695Y-34400734D01*
X91003730Y-34351454D01*
X91055950Y-34295584D01*
X91112004Y-34235638D01*
X91169541Y-34174132D01*
X91196193Y-34145651D01*
X91259388Y-34078043D01*
X91327297Y-34005244D01*
X91396437Y-33930999D01*
X91463323Y-33859052D01*
X91524473Y-33793147D01*
X91576404Y-33737029D01*
X91583536Y-33729304D01*
X91643551Y-33664292D01*
X91691846Y-33612097D01*
X91729843Y-33571312D01*
X91758964Y-33540531D01*
X91780634Y-33518347D01*
X91796273Y-33503351D01*
X91807304Y-33494138D01*
X91815151Y-33489300D01*
X91821235Y-33487429D01*
X91826980Y-33487119D01*
X91828385Y-33487121D01*
G37*
G36*
X89334132Y-29805056D02*
G01*
X89356315Y-29808347D01*
X89468655Y-29831204D01*
X89566455Y-29862512D01*
X89653340Y-29904013D01*
X89732939Y-29957450D01*
X89808877Y-30024564D01*
X89811166Y-30026836D01*
X89889840Y-30118376D01*
X89952509Y-30219254D01*
X89998781Y-30327394D01*
X90028259Y-30440723D01*
X90040550Y-30557166D01*
X90035259Y-30674650D01*
X90011990Y-30791101D01*
X89975835Y-30892210D01*
X89923309Y-30989801D01*
X89855444Y-31080271D01*
X89775240Y-31160580D01*
X89685698Y-31227693D01*
X89597459Y-31275254D01*
X89544707Y-31298583D01*
X89547347Y-31475334D01*
X89549986Y-31652084D01*
X90193944Y-31658090D01*
X90337891Y-31659517D01*
X90463684Y-31660968D01*
X90572538Y-31662496D01*
X90665666Y-31664150D01*
X90744281Y-31665983D01*
X90809598Y-31668044D01*
X90862830Y-31670386D01*
X90905190Y-31673058D01*
X90937893Y-31676111D01*
X90962152Y-31679598D01*
X90979181Y-31683568D01*
X90990193Y-31688073D01*
X90995126Y-31691723D01*
X90999152Y-31705177D01*
X91002441Y-31734326D01*
X91004966Y-31775514D01*
X91006700Y-31825081D01*
X91007617Y-31879370D01*
X91007688Y-31934723D01*
X91006888Y-31987481D01*
X91005190Y-32033987D01*
X91002567Y-32070582D01*
X90998991Y-32093609D01*
X90998096Y-32096434D01*
X90989933Y-32112605D01*
X90977631Y-32125190D01*
X90958769Y-32134752D01*
X90930924Y-32141850D01*
X90891675Y-32147045D01*
X90838602Y-32150896D01*
X90769282Y-32153963D01*
X90745907Y-32154783D01*
X90675330Y-32157236D01*
X90592226Y-32160244D01*
X90503418Y-32163553D01*
X90415728Y-32166908D01*
X90335980Y-32170056D01*
X90334355Y-32170121D01*
X90259591Y-32173073D01*
X90171504Y-32176450D01*
X90076126Y-32180028D01*
X89979490Y-32183582D01*
X89887629Y-32186887D01*
X89840493Y-32188546D01*
X89770078Y-32191017D01*
X89706206Y-32193289D01*
X89651368Y-32195272D01*
X89608058Y-32196875D01*
X89578767Y-32198005D01*
X89565990Y-32198572D01*
X89565660Y-32198602D01*
X89564893Y-32208018D01*
X89564681Y-32234179D01*
X89564995Y-32274473D01*
X89565805Y-32326287D01*
X89567081Y-32387007D01*
X89568382Y-32438874D01*
X89570204Y-32507516D01*
X89572397Y-32591129D01*
X89574849Y-32685327D01*
X89577445Y-32785719D01*
X89580073Y-32887917D01*
X89582617Y-32987533D01*
X89584115Y-33046518D01*
X89589399Y-33253848D01*
X89594347Y-33445178D01*
X89598949Y-33620093D01*
X89603191Y-33778177D01*
X89607064Y-33919016D01*
X89610555Y-34042193D01*
X89613653Y-34147295D01*
X89616347Y-34233906D01*
X89618625Y-34301611D01*
X89618827Y-34307265D01*
X89624823Y-34473769D01*
X89590868Y-34544513D01*
X89574157Y-34579965D01*
X89560435Y-34610240D01*
X89552180Y-34629838D01*
X89551333Y-34632203D01*
X89540596Y-34647422D01*
X89526745Y-34644479D01*
X89517223Y-34631892D01*
X89497335Y-34611407D01*
X89463009Y-34592495D01*
X89419169Y-34577155D01*
X89370739Y-34567386D01*
X89354173Y-34565694D01*
X89314185Y-34564580D01*
X89263674Y-34565808D01*
X89211309Y-34569100D01*
X89191694Y-34570941D01*
X89149126Y-34575385D01*
X89112916Y-34579129D01*
X89087985Y-34581668D01*
X89080333Y-34582415D01*
X89064633Y-34587011D01*
X89037424Y-34597793D01*
X89004592Y-34612427D01*
X89004528Y-34612457D01*
X88973689Y-34626137D01*
X88950395Y-34635021D01*
X88939420Y-34637300D01*
X88939253Y-34637183D01*
X88937949Y-34635125D01*
X88936814Y-34631104D01*
X88935861Y-34624194D01*
X88935103Y-34613471D01*
X88934553Y-34598011D01*
X88934224Y-34576890D01*
X88934128Y-34549181D01*
X88934279Y-34513961D01*
X88934690Y-34470305D01*
X88935373Y-34417289D01*
X88936341Y-34353988D01*
X88937608Y-34279477D01*
X88939186Y-34192832D01*
X88941088Y-34093127D01*
X88943327Y-33979440D01*
X88945917Y-33850844D01*
X88948869Y-33706415D01*
X88952197Y-33545229D01*
X88955914Y-33366360D01*
X88959252Y-33206297D01*
X88961144Y-33121297D01*
X88963352Y-33031368D01*
X88965740Y-32941539D01*
X88968168Y-32856842D01*
X88970499Y-32782307D01*
X88972259Y-32731802D01*
X88974653Y-32656535D01*
X88976655Y-32572171D01*
X88978120Y-32486663D01*
X88978900Y-32407960D01*
X88978980Y-32368740D01*
X88978655Y-32305711D01*
X88977808Y-32259563D01*
X88976229Y-32227814D01*
X88973705Y-32207980D01*
X88970027Y-32197578D01*
X88964982Y-32194126D01*
X88964130Y-32194055D01*
X88939870Y-32193087D01*
X88900514Y-32191278D01*
X88850305Y-32188845D01*
X88793485Y-32186003D01*
X88734297Y-32182970D01*
X88676983Y-32179960D01*
X88625787Y-32177190D01*
X88584950Y-32174876D01*
X88570610Y-32174012D01*
X88482122Y-32168511D01*
X88487091Y-32070076D01*
X88488523Y-31985254D01*
X88484486Y-31904540D01*
X88475440Y-31831692D01*
X88461847Y-31770468D01*
X88444778Y-31725785D01*
X88431723Y-31698173D01*
X88424509Y-31677926D01*
X88424238Y-31670678D01*
X88434815Y-31668989D01*
X88461742Y-31666812D01*
X88502009Y-31664282D01*
X88552609Y-31661534D01*
X88610533Y-31658703D01*
X88672774Y-31655923D01*
X88736322Y-31653329D01*
X88798171Y-31651057D01*
X88855311Y-31649240D01*
X88904735Y-31648014D01*
X88940892Y-31647524D01*
X88999964Y-31647243D01*
X89006092Y-31518935D01*
X89008881Y-31467107D01*
X89012050Y-31418713D01*
X89015223Y-31378913D01*
X89018026Y-31352866D01*
X89018236Y-31351452D01*
X89024251Y-31312276D01*
X88933668Y-31260888D01*
X88883904Y-31232100D01*
X88849013Y-31210300D01*
X88826632Y-31193637D01*
X88814400Y-31180266D01*
X88809954Y-31168337D01*
X88809807Y-31163984D01*
X88817334Y-31153414D01*
X88837679Y-31133581D01*
X88868108Y-31106761D01*
X88905884Y-31075230D01*
X88948272Y-31041265D01*
X88992536Y-31007140D01*
X89035941Y-30975134D01*
X89041893Y-30970881D01*
X89052805Y-30965536D01*
X89067916Y-30964182D01*
X89091163Y-30967230D01*
X89126484Y-30975091D01*
X89157816Y-30982985D01*
X89210482Y-30996028D01*
X89250317Y-31003846D01*
X89283088Y-31006622D01*
X89314562Y-31004538D01*
X89350505Y-30997774D01*
X89382564Y-30990065D01*
X89466812Y-30960329D01*
X89538578Y-30916070D01*
X89598551Y-30856703D01*
X89647419Y-30781645D01*
X89661262Y-30753253D01*
X89674846Y-30721407D01*
X89683425Y-30694262D01*
X89688124Y-30665489D01*
X89690069Y-30628756D01*
X89690398Y-30589389D01*
X89689063Y-30532212D01*
X89684566Y-30488375D01*
X89676168Y-30452001D01*
X89671338Y-30437638D01*
X89634991Y-30357123D01*
X89590203Y-30292631D01*
X89535536Y-30242132D01*
X89530619Y-30238584D01*
X89487226Y-30209545D01*
X89449060Y-30189099D01*
X89411136Y-30175947D01*
X89368468Y-30168792D01*
X89316069Y-30166336D01*
X89255955Y-30167083D01*
X89192392Y-30169797D01*
X89147937Y-30173976D01*
X89122674Y-30179611D01*
X89117606Y-30182603D01*
X89097656Y-30193316D01*
X89088262Y-30194707D01*
X89068950Y-30202129D01*
X89041742Y-30222225D01*
X89009755Y-30251738D01*
X88976108Y-30287412D01*
X88943919Y-30325992D01*
X88916306Y-30364221D01*
X88900382Y-30390882D01*
X88883760Y-30423264D01*
X88873024Y-30448617D01*
X88866866Y-30472953D01*
X88863972Y-30502283D01*
X88863032Y-30542617D01*
X88862912Y-30562683D01*
X88863425Y-30610196D01*
X88865180Y-30655068D01*
X88867865Y-30690851D01*
X88869773Y-30705159D01*
X88877093Y-30745957D01*
X88821355Y-30787239D01*
X88786441Y-30813715D01*
X88744655Y-30846300D01*
X88704020Y-30878721D01*
X88696986Y-30884431D01*
X88665655Y-30909102D01*
X88639395Y-30928210D01*
X88622136Y-30938966D01*
X88618210Y-30940342D01*
X88603974Y-30931229D01*
X88587388Y-30905574D01*
X88569493Y-30865902D01*
X88551332Y-30814738D01*
X88533947Y-30754608D01*
X88523069Y-30709751D01*
X88514416Y-30650402D01*
X88511687Y-30581056D01*
X88514476Y-30507698D01*
X88522377Y-30436315D01*
X88534982Y-30372894D01*
X88548856Y-30330277D01*
X88608083Y-30210882D01*
X88679617Y-30105502D01*
X88762671Y-30014771D01*
X88856458Y-29939326D01*
X88960191Y-29879801D01*
X89073082Y-29836832D01*
X89191694Y-29811418D01*
X89239594Y-29805217D01*
X89274942Y-29802171D01*
X89304276Y-29802158D01*
X89334132Y-29805056D01*
G37*
G36*
X78445828Y-29746817D02*
G01*
X78548137Y-29746941D01*
X78661501Y-29747147D01*
X78784733Y-29747433D01*
X78916646Y-29747799D01*
X79056054Y-29748243D01*
X79201767Y-29748764D01*
X79328980Y-29749263D01*
X80515217Y-29754105D01*
X80518249Y-31506831D01*
X80518560Y-31724637D01*
X80518770Y-31958261D01*
X80518883Y-32204964D01*
X80518901Y-32462004D01*
X80518827Y-32726642D01*
X80518665Y-32996135D01*
X80518416Y-33267744D01*
X80518085Y-33538728D01*
X80517673Y-33806346D01*
X80517184Y-34067857D01*
X80516620Y-34320522D01*
X80515985Y-34561598D01*
X80515280Y-34788347D01*
X80514639Y-34965422D01*
X80507996Y-36671288D01*
X80438980Y-36678237D01*
X80419934Y-36679192D01*
X80383085Y-36680117D01*
X80329998Y-36681006D01*
X80262237Y-36681853D01*
X80181365Y-36682655D01*
X80088947Y-36683405D01*
X79986547Y-36684100D01*
X79875730Y-36684733D01*
X79758060Y-36685300D01*
X79635100Y-36685796D01*
X79508416Y-36686215D01*
X79379570Y-36686552D01*
X79250129Y-36686803D01*
X79121655Y-36686963D01*
X78995713Y-36687025D01*
X78873868Y-36686986D01*
X78757683Y-36686840D01*
X78648723Y-36686582D01*
X78548552Y-36686207D01*
X78458733Y-36685710D01*
X78380833Y-36685085D01*
X78367886Y-36684956D01*
X78118534Y-36682371D01*
X78118534Y-36246819D01*
X78533195Y-36246819D01*
X79286958Y-36249359D01*
X79406103Y-36249790D01*
X79519633Y-36250258D01*
X79626060Y-36250752D01*
X79723896Y-36251265D01*
X79811653Y-36251785D01*
X79887841Y-36252303D01*
X79950974Y-36252810D01*
X79999561Y-36253296D01*
X80032116Y-36253752D01*
X80047149Y-36254168D01*
X80047985Y-36254261D01*
X80049413Y-36245358D01*
X80050748Y-36218920D01*
X80051962Y-36176775D01*
X80053027Y-36120756D01*
X80053915Y-36052691D01*
X80054600Y-35974413D01*
X80055051Y-35887751D01*
X80055243Y-35794536D01*
X80055247Y-35777285D01*
X80055247Y-35297948D01*
X79931216Y-35297948D01*
X79807185Y-35297948D01*
X79804622Y-35619927D01*
X79803799Y-35697104D01*
X79802640Y-35768090D01*
X79801214Y-35830566D01*
X79799591Y-35882212D01*
X79797839Y-35920711D01*
X79796029Y-35943743D01*
X79794795Y-35949393D01*
X79783232Y-35951631D01*
X79755491Y-35953314D01*
X79714759Y-35954360D01*
X79664220Y-35954684D01*
X79609094Y-35954235D01*
X79430657Y-35951589D01*
X79428053Y-35651398D01*
X79425449Y-35351208D01*
X79290062Y-35348179D01*
X79154676Y-35345150D01*
X79154676Y-35645764D01*
X79154676Y-35946378D01*
X79132888Y-35951752D01*
X79115996Y-35953425D01*
X79083618Y-35954529D01*
X79039631Y-35955009D01*
X78987909Y-35954805D01*
X78956162Y-35954357D01*
X78801225Y-35951589D01*
X78798676Y-35624768D01*
X78796126Y-35297948D01*
X78670368Y-35297948D01*
X78544611Y-35297948D01*
X78544278Y-35615085D01*
X78544016Y-35700820D01*
X78543440Y-35788477D01*
X78542596Y-35874016D01*
X78541535Y-35953401D01*
X78540304Y-36022594D01*
X78538952Y-36077556D01*
X78538570Y-36089520D01*
X78533195Y-36246819D01*
X78118534Y-36246819D01*
X78118534Y-34548749D01*
X78545863Y-34548749D01*
X78549824Y-34614064D01*
X78557985Y-34666360D01*
X78584109Y-34749854D01*
X78621806Y-34825581D01*
X78668972Y-34890399D01*
X78723504Y-34941168D01*
X78756048Y-34962059D01*
X78844822Y-35000786D01*
X78934874Y-35020541D01*
X79027969Y-35021555D01*
X79109509Y-35008164D01*
X79181605Y-34985630D01*
X79242624Y-34953793D01*
X79294810Y-34910502D01*
X79340404Y-34853608D01*
X79381650Y-34780961D01*
X79408229Y-34721776D01*
X79415494Y-34698841D01*
X79424358Y-34663124D01*
X79433369Y-34620969D01*
X79441079Y-34578721D01*
X79441436Y-34576522D01*
X79446160Y-34552079D01*
X79453887Y-34516828D01*
X79462206Y-34481479D01*
X79485887Y-34416519D01*
X79521164Y-34366535D01*
X79567213Y-34332166D01*
X79623209Y-34314047D01*
X79681481Y-34312164D01*
X79735404Y-34324292D01*
X79778619Y-34351640D01*
X79813037Y-34395558D01*
X79821315Y-34410920D01*
X79831503Y-34433354D01*
X79837848Y-34454720D01*
X79841018Y-34480202D01*
X79841685Y-34514985D01*
X79840636Y-34560483D01*
X79838705Y-34608400D01*
X79835527Y-34643184D01*
X79829708Y-34671071D01*
X79819853Y-34698294D01*
X79804568Y-34731088D01*
X79800742Y-34738853D01*
X79776129Y-34782591D01*
X79745973Y-34827731D01*
X79716559Y-34864909D01*
X79714940Y-34866699D01*
X79665763Y-34920506D01*
X79756407Y-35016504D01*
X79789819Y-35051566D01*
X79818410Y-35080961D01*
X79839617Y-35102097D01*
X79850877Y-35112386D01*
X79851892Y-35112970D01*
X79861500Y-35107474D01*
X79879672Y-35093160D01*
X79886751Y-35087070D01*
X79944126Y-35027452D01*
X79993319Y-34955872D01*
X80035519Y-34870195D01*
X80071921Y-34768286D01*
X80079936Y-34741143D01*
X80088608Y-34697324D01*
X80094326Y-34640714D01*
X80097093Y-34576729D01*
X80096912Y-34510786D01*
X80093785Y-34448302D01*
X80087714Y-34394691D01*
X80079777Y-34358642D01*
X80041208Y-34255797D01*
X79995262Y-34170466D01*
X79941180Y-34101961D01*
X79878202Y-34049592D01*
X79805569Y-34012673D01*
X79722520Y-33990515D01*
X79666147Y-33983934D01*
X79567471Y-33984528D01*
X79479821Y-34000645D01*
X79403006Y-34032462D01*
X79336834Y-34080159D01*
X79281114Y-34143912D01*
X79235652Y-34223899D01*
X79200259Y-34320299D01*
X79174741Y-34433289D01*
X79173481Y-34440838D01*
X79158390Y-34520027D01*
X79141304Y-34582542D01*
X79121065Y-34631061D01*
X79096510Y-34668259D01*
X79066482Y-34696812D01*
X79060670Y-34701054D01*
X79011471Y-34725044D01*
X78959496Y-34732127D01*
X78908790Y-34723003D01*
X78863401Y-34698372D01*
X78828660Y-34660899D01*
X78803511Y-34606458D01*
X78792063Y-34542277D01*
X78793786Y-34471756D01*
X78808154Y-34398297D01*
X78834637Y-34325298D01*
X78872708Y-34256161D01*
X78896626Y-34223221D01*
X78931224Y-34179794D01*
X78904959Y-34152103D01*
X78885602Y-34132905D01*
X78856838Y-34105804D01*
X78823841Y-34075647D01*
X78812190Y-34065214D01*
X78745685Y-34006017D01*
X78708321Y-34049181D01*
X78678862Y-34088692D01*
X78646811Y-34140686D01*
X78615432Y-34199184D01*
X78587991Y-34258208D01*
X78572285Y-34298297D01*
X78559805Y-34347314D01*
X78551086Y-34409387D01*
X78546361Y-34478527D01*
X78545863Y-34548749D01*
X78118534Y-34548749D01*
X78118534Y-33729210D01*
X78563978Y-33729210D01*
X79309613Y-33729210D01*
X80055247Y-33729210D01*
X80055247Y-33574424D01*
X80055247Y-33419637D01*
X79781687Y-33417066D01*
X79508126Y-33414494D01*
X79502594Y-33230506D01*
X79500238Y-33161415D01*
X79497511Y-33107748D01*
X79493882Y-33065565D01*
X79488818Y-33030925D01*
X79481788Y-32999885D01*
X79472260Y-32968505D01*
X79464039Y-32944841D01*
X79446126Y-32906184D01*
X79419858Y-32862711D01*
X79390030Y-32821517D01*
X79361437Y-32789699D01*
X79355811Y-32784681D01*
X79294071Y-32742307D01*
X79223114Y-32712223D01*
X79140319Y-32693560D01*
X79058249Y-32686008D01*
X78959068Y-32690152D01*
X78868746Y-32711283D01*
X78788133Y-32748754D01*
X78718080Y-32801920D01*
X78659439Y-32870134D01*
X78613061Y-32952748D01*
X78579795Y-33049116D01*
X78579641Y-33049721D01*
X78575075Y-33070837D01*
X78571451Y-33096047D01*
X78568672Y-33127670D01*
X78566638Y-33168023D01*
X78565252Y-33219425D01*
X78564416Y-33284195D01*
X78564032Y-33364650D01*
X78563978Y-33420118D01*
X78563978Y-33729210D01*
X78118534Y-33729210D01*
X78118534Y-33420118D01*
X78118534Y-33216853D01*
X78118546Y-32898366D01*
X78118582Y-32598739D01*
X78118645Y-32317466D01*
X78118737Y-32054042D01*
X78118800Y-31926291D01*
X78547901Y-31926291D01*
X78548238Y-32040378D01*
X78562720Y-32141739D01*
X78588732Y-32234485D01*
X78626478Y-32315026D01*
X78678564Y-32388237D01*
X78716301Y-32429191D01*
X78746763Y-32458555D01*
X78773118Y-32481792D01*
X78791905Y-32495972D01*
X78798611Y-32498943D01*
X78810273Y-32491277D01*
X78828134Y-32471819D01*
X78844801Y-32449705D01*
X78871133Y-32413141D01*
X78900422Y-32374393D01*
X78914645Y-32356360D01*
X78950595Y-32311800D01*
X78908418Y-32266709D01*
X78861178Y-32205621D01*
X78826429Y-32138514D01*
X78804486Y-32068420D01*
X78795659Y-31998368D01*
X78800262Y-31931389D01*
X78818606Y-31870512D01*
X78851006Y-31818767D01*
X78861087Y-31807864D01*
X78891411Y-31782709D01*
X78923855Y-31768871D01*
X78965590Y-31763702D01*
X78981313Y-31763446D01*
X79036558Y-31769097D01*
X79081538Y-31786822D01*
X79117054Y-31817780D01*
X79143906Y-31863127D01*
X79162894Y-31924022D01*
X79174818Y-32001623D01*
X79178479Y-32048742D01*
X79181139Y-32091724D01*
X79183651Y-32126780D01*
X79185704Y-32149893D01*
X79186848Y-32157138D01*
X79196814Y-32158144D01*
X79222302Y-32159229D01*
X79259469Y-32160264D01*
X79304470Y-32161118D01*
X79305034Y-32161126D01*
X79420974Y-32162868D01*
X79426917Y-32038205D01*
X79429968Y-31983845D01*
X79433572Y-31944598D01*
X79438464Y-31916214D01*
X79445382Y-31894438D01*
X79455059Y-31875019D01*
X79455181Y-31874807D01*
X79485447Y-31828774D01*
X79517917Y-31794885D01*
X79559060Y-31766390D01*
X79559233Y-31766288D01*
X79584864Y-31752964D01*
X79608760Y-31746212D01*
X79638633Y-31744572D01*
X79667864Y-31745721D01*
X79723187Y-31754047D01*
X79766672Y-31773360D01*
X79800385Y-31805660D01*
X79826393Y-31852947D01*
X79846763Y-31917221D01*
X79847300Y-31919399D01*
X79856186Y-31960289D01*
X79859323Y-31992473D01*
X79857060Y-32025626D01*
X79852223Y-32055861D01*
X79832074Y-32130363D01*
X79800176Y-32201333D01*
X79759468Y-32263113D01*
X79725605Y-32299406D01*
X79701295Y-32321974D01*
X79684023Y-32339365D01*
X79677588Y-32347710D01*
X79682238Y-32357739D01*
X79694707Y-32380364D01*
X79712775Y-32411620D01*
X79723585Y-32429866D01*
X79746260Y-32468114D01*
X79767086Y-32503729D01*
X79782642Y-32530846D01*
X79786454Y-32537690D01*
X79803326Y-32568492D01*
X79848856Y-32536365D01*
X79882752Y-32510491D01*
X79916870Y-32481451D01*
X79930453Y-32468713D01*
X79956515Y-32440076D01*
X79984852Y-32404542D01*
X80001147Y-32381769D01*
X80016724Y-32356857D01*
X80030512Y-32330003D01*
X80044051Y-32297359D01*
X80058882Y-32255076D01*
X80076546Y-32199309D01*
X80083954Y-32174997D01*
X80090329Y-32142968D01*
X80095223Y-32097121D01*
X80098429Y-32042964D01*
X80099738Y-31986005D01*
X80098941Y-31931750D01*
X80095830Y-31885709D01*
X80095126Y-31879648D01*
X80085906Y-31816694D01*
X80074695Y-31766067D01*
X80059401Y-31720730D01*
X80037936Y-31673643D01*
X80028518Y-31655330D01*
X79984817Y-31584649D01*
X79935295Y-31530450D01*
X79876599Y-31490200D01*
X79805374Y-31461366D01*
X79754525Y-31448339D01*
X79666587Y-31438555D01*
X79582679Y-31446846D01*
X79504750Y-31472283D01*
X79434747Y-31513936D01*
X79374618Y-31570877D01*
X79326312Y-31642177D01*
X79319296Y-31655904D01*
X79303501Y-31683390D01*
X79289150Y-31700028D01*
X79281878Y-31702970D01*
X79271475Y-31693177D01*
X79258575Y-31670533D01*
X79249700Y-31649584D01*
X79221833Y-31597448D01*
X79179781Y-31547138D01*
X79128455Y-31503693D01*
X79079821Y-31475283D01*
X79030207Y-31457855D01*
X78975165Y-31447289D01*
X78921363Y-31444248D01*
X78875471Y-31449395D01*
X78861573Y-31453604D01*
X78796511Y-31481053D01*
X78745989Y-31509484D01*
X78705351Y-31542450D01*
X78669941Y-31583505D01*
X78646538Y-31617757D01*
X78597444Y-31712524D01*
X78564435Y-31816187D01*
X78547901Y-31926291D01*
X78118800Y-31926291D01*
X78118858Y-31807959D01*
X78119012Y-31578712D01*
X78119198Y-31365793D01*
X78119421Y-31168696D01*
X78119680Y-30986916D01*
X78119979Y-30819946D01*
X78120318Y-30667279D01*
X78120329Y-30663255D01*
X78556031Y-30663255D01*
X78556904Y-30738147D01*
X78570728Y-30845202D01*
X78600304Y-30941230D01*
X78645443Y-31025938D01*
X78705954Y-31099031D01*
X78781649Y-31160214D01*
X78854485Y-31201088D01*
X78886243Y-31215701D01*
X78910910Y-31226317D01*
X78923528Y-31230810D01*
X78923890Y-31230842D01*
X78930713Y-31222606D01*
X78940493Y-31201780D01*
X78945114Y-31189694D01*
X78969571Y-31120854D01*
X78987705Y-31068026D01*
X79000100Y-31029132D01*
X79007344Y-31002089D01*
X79010021Y-30984820D01*
X79008718Y-30975243D01*
X79006327Y-30972363D01*
X78990856Y-30963153D01*
X78966228Y-30949911D01*
X78957946Y-30945660D01*
X78927429Y-30925799D01*
X78897502Y-30899724D01*
X78891011Y-30892771D01*
X78867609Y-30860638D01*
X78844620Y-30819945D01*
X78824837Y-30776770D01*
X78811056Y-30737195D01*
X78806067Y-30707997D01*
X78815208Y-30647321D01*
X78840818Y-30591632D01*
X78880182Y-30544744D01*
X78930581Y-30510470D01*
X78953477Y-30501061D01*
X79011774Y-30488054D01*
X79067333Y-30490835D01*
X79123943Y-30510054D01*
X79174799Y-30539197D01*
X79196758Y-30554122D01*
X79216991Y-30569141D01*
X79237113Y-30585965D01*
X79258739Y-30606306D01*
X79283487Y-30631878D01*
X79312969Y-30664391D01*
X79348804Y-30705558D01*
X79392605Y-30757092D01*
X79445988Y-30820704D01*
X79488759Y-30871939D01*
X79537400Y-30930087D01*
X79586252Y-30988144D01*
X79632640Y-31042958D01*
X79673892Y-31091377D01*
X79707332Y-31130247D01*
X79724681Y-31150111D01*
X79795983Y-31230849D01*
X79944982Y-31230849D01*
X80093982Y-31230849D01*
X80093982Y-30703095D01*
X80093982Y-30175340D01*
X79957534Y-30175340D01*
X79821087Y-30175340D01*
X79822948Y-30473110D01*
X79823545Y-30573283D01*
X79823939Y-30655772D01*
X79824090Y-30722259D01*
X79823959Y-30774427D01*
X79823507Y-30813958D01*
X79822694Y-30842534D01*
X79821480Y-30861838D01*
X79819826Y-30873552D01*
X79817692Y-30879359D01*
X79815039Y-30880940D01*
X79813369Y-30880627D01*
X79804734Y-30872230D01*
X79785899Y-30850397D01*
X79758418Y-30817085D01*
X79723845Y-30774249D01*
X79683737Y-30723845D01*
X79639648Y-30667828D01*
X79593133Y-30608155D01*
X79545748Y-30546780D01*
X79499047Y-30485660D01*
X79493301Y-30478091D01*
X79422669Y-30390400D01*
X79355764Y-30318277D01*
X79293434Y-30262541D01*
X79236529Y-30224011D01*
X79222418Y-30216765D01*
X79135785Y-30185171D01*
X79047008Y-30170618D01*
X78958796Y-30172663D01*
X78873857Y-30190860D01*
X78794898Y-30224765D01*
X78724628Y-30273934D01*
X78694214Y-30303437D01*
X78635963Y-30379191D01*
X78593723Y-30463757D01*
X78567182Y-30558117D01*
X78556031Y-30663255D01*
X78120329Y-30663255D01*
X78120699Y-30528409D01*
X78121125Y-30402829D01*
X78121597Y-30290034D01*
X78122116Y-30189516D01*
X78122685Y-30100770D01*
X78123306Y-30023289D01*
X78123979Y-29956567D01*
X78124707Y-29900097D01*
X78125492Y-29853373D01*
X78126335Y-29815888D01*
X78127238Y-29787137D01*
X78128203Y-29766612D01*
X78129232Y-29753808D01*
X78130326Y-29748218D01*
X78130638Y-29747878D01*
X78141679Y-29747480D01*
X78170899Y-29747172D01*
X78217111Y-29746953D01*
X78279128Y-29746822D01*
X78355763Y-29746777D01*
X78445828Y-29746817D01*
G37*
%TD*%
M02*
