M48
; DRILL file KiCad 10.0.5-10.0.5~ubuntu24.04.1 date 2026-08-25T15:28:16
; FORMAT={-:-/ absolute / metric / decimal}
; #@! TF.CreationDate,2026-08-25T15:28:16+02:00
; #@! TF.GenerationSoftware,Kicad,Pcbnew,10.0.5-10.0.5~ubuntu24.04.1
; #@! TF.FileFunction,Plated,1,2,PTH
FMAT,2
METRIC
; #@! TA.AperFunction,Plated,PTH,ViaDrill
T1C0.300
; #@! TA.AperFunction,Plated,PTH,ComponentDrill
T2C1.000
%
G90
G05
T1
X73.45Y-44.5
X73.45Y-49.65
T2
X70.866Y-35.56
X70.866Y-38.1
X70.866Y-40.64
X70.866Y-43.18
X70.866Y-45.72
X70.866Y-48.26
X70.866Y-50.8
X70.866Y-53.34
X70.866Y-55.88
X70.866Y-58.42
X70.866Y-60.96
X70.866Y-63.5
X76.2Y-25.4
X76.2Y-27.94
X76.2Y-30.48
X76.2Y-33.02
X76.2Y-35.56
X76.2Y-38.1
X76.2Y-40.64
X76.2Y-43.18
X76.2Y-45.72
X76.2Y-48.26
X76.2Y-50.8
X76.2Y-53.34
X76.2Y-55.88
X76.2Y-58.42
X76.2Y-60.96
X76.2Y-63.5
X76.2Y-66.04
X76.2Y-68.58
X76.2Y-71.12
X76.2Y-73.66
X76.2Y-76.2
X76.2Y-78.74
X93.726Y-35.56
X93.726Y-38.1
X93.726Y-40.64
X93.726Y-43.18
X93.726Y-45.72
X93.726Y-48.26
X93.726Y-50.8
X93.726Y-53.34
X93.726Y-55.88
X93.726Y-58.42
X93.726Y-60.96
X93.726Y-63.5
X101.6Y-25.4
X101.6Y-27.94
X101.6Y-30.48
X101.6Y-33.02
X101.6Y-35.56
X101.6Y-38.1
X101.6Y-40.64
X101.6Y-43.18
X101.6Y-45.72
X101.6Y-48.26
X101.6Y-50.8
X101.6Y-53.34
X101.6Y-55.88
X101.6Y-58.42
X101.6Y-60.96
X101.6Y-63.5
X101.6Y-66.04
X101.6Y-68.58
X101.6Y-71.12
X101.6Y-73.66
X101.6Y-76.2
X101.6Y-78.74
M30
