%TF.GenerationSoftware,KiCad,Pcbnew,10.0.5-10.0.5~ubuntu24.04.1*%
%TF.CreationDate,2026-08-25T15:28:09+02:00*%
%TF.ProjectId,T190_adapter,54313930-5f61-4646-9170-7465722e6b69,rev?*%
%TF.SameCoordinates,Original*%
%TF.FileFunction,Legend,Bot*%
%TF.FilePolarity,Positive*%
%FSLAX46Y46*%
G04 Gerber Fmt 4.6, Leading zero omitted, Abs format (unit mm)*
G04 Created by KiCad (PCBNEW 10.0.5-10.0.5~ubuntu24.04.1) date 2026-08-25 15:28:09*
%MOMM*%
%LPD*%
G01*
G04 APERTURE LIST*
%ADD10C,0.150000*%
%ADD11C,0.120000*%
G04 APERTURE END LIST*
D10*
X80140133Y-24219819D02*
X80140133Y-24934104D01*
X80140133Y-24934104D02*
X80187752Y-25076961D01*
X80187752Y-25076961D02*
X80282990Y-25172200D01*
X80282990Y-25172200D02*
X80425847Y-25219819D01*
X80425847Y-25219819D02*
X80521085Y-25219819D01*
X79140133Y-25219819D02*
X79711561Y-25219819D01*
X79425847Y-25219819D02*
X79425847Y-24219819D01*
X79425847Y-24219819D02*
X79521085Y-24362676D01*
X79521085Y-24362676D02*
X79616323Y-24457914D01*
X79616323Y-24457914D02*
X79711561Y-24505533D01*
X98732933Y-24042019D02*
X98732933Y-24756304D01*
X98732933Y-24756304D02*
X98780552Y-24899161D01*
X98780552Y-24899161D02*
X98875790Y-24994400D01*
X98875790Y-24994400D02*
X99018647Y-25042019D01*
X99018647Y-25042019D02*
X99113885Y-25042019D01*
X98304361Y-24137257D02*
X98256742Y-24089638D01*
X98256742Y-24089638D02*
X98161504Y-24042019D01*
X98161504Y-24042019D02*
X97923409Y-24042019D01*
X97923409Y-24042019D02*
X97828171Y-24089638D01*
X97828171Y-24089638D02*
X97780552Y-24137257D01*
X97780552Y-24137257D02*
X97732933Y-24232495D01*
X97732933Y-24232495D02*
X97732933Y-24327733D01*
X97732933Y-24327733D02*
X97780552Y-24470590D01*
X97780552Y-24470590D02*
X98351980Y-25042019D01*
X98351980Y-25042019D02*
X97732933Y-25042019D01*
%TO.C,J1*%
D11*
X74820000Y-26670000D02*
X74820000Y-80120000D01*
X77580000Y-24020000D02*
X76200000Y-24020000D01*
X77580000Y-25400000D02*
X77580000Y-24020000D01*
X77580000Y-26670000D02*
X74820000Y-26670000D01*
X77580000Y-26670000D02*
X77580000Y-80120000D01*
X77580000Y-80120000D02*
X74820000Y-80120000D01*
%TO.C,J2*%
X100220000Y-26670000D02*
X100220000Y-80120000D01*
X102980000Y-24020000D02*
X101600000Y-24020000D01*
X102980000Y-25400000D02*
X102980000Y-24020000D01*
X102980000Y-26670000D02*
X100220000Y-26670000D01*
X102980000Y-26670000D02*
X102980000Y-80120000D01*
X102980000Y-80120000D02*
X100220000Y-80120000D01*
%TD*%
M02*
