%TF.GenerationSoftware,KiCad,Pcbnew,10.0.5-10.0.5~ubuntu24.04.1*%
%TF.CreationDate,2026-08-14T17:16:52+02:00*%
%TF.ProjectId,stamps3_adapter,7374616d-7073-4335-9f61-646170746572,rev?*%
%TF.SameCoordinates,Original*%
%TF.FileFunction,Copper,L2,Bot*%
%TF.FilePolarity,Positive*%
%FSLAX46Y46*%
G04 Gerber Fmt 4.6, Leading zero omitted, Abs format (unit mm)*
G04 Created by KiCad (PCBNEW 10.0.5-10.0.5~ubuntu24.04.1) date 2026-08-14 17:16:52*
%MOMM*%
%LPD*%
G01*
G04 APERTURE LIST*
%TA.AperFunction,ComponentPad*%
%ADD10R,1.700000X1.700000*%
%TD*%
%TA.AperFunction,ComponentPad*%
%ADD11C,1.700000*%
%TD*%
%TA.AperFunction,Conductor*%
%ADD12C,0.508000*%
%TD*%
%TA.AperFunction,Conductor*%
%ADD13C,0.762000*%
%TD*%
G04 APERTURE END LIST*
D10*
%TO.P,J3,1,Pin_1_1*%
%TO.N,/G1*%
X81280000Y-48260000D03*
D11*
%TO.P,J3,2,Pin_2_2*%
%TO.N,/G3*%
X81280000Y-50800000D03*
%TO.P,J3,3,Pin_3_3*%
%TO.N,/G5*%
X81280000Y-53340000D03*
%TO.P,J3,4,Pin_4_4*%
%TO.N,/G7*%
X81280000Y-55880000D03*
%TO.P,J3,5,Pin_5_5*%
%TO.N,/G9*%
X81280000Y-58420000D03*
%TO.P,J3,6,Pin_6_6*%
%TO.N,GND*%
X81280000Y-60960000D03*
%TO.P,J3,7,Pin_7_7*%
%TO.N,+5V*%
X81280000Y-63500000D03*
%TO.P,J3,8,Pin_8_8*%
%TO.N,/G13*%
X81280000Y-66040000D03*
%TO.P,J3,9,Pin_9_9*%
%TO.N,/G15*%
X81280000Y-68580000D03*
%TD*%
D10*
%TO.P,J4,1,Pin_1_1*%
%TO.N,+3.3V*%
X96520000Y-55880000D03*
D11*
%TO.P,J4,2,Pin_2_2*%
%TO.N,/G43*%
X96520000Y-58420000D03*
%TO.P,J4,3,Pin_3_3*%
%TO.N,/G44*%
X96520000Y-60960000D03*
%TO.P,J4,4,Pin_4_4*%
%TO.N,/EN*%
X96520000Y-63500000D03*
%TO.P,J4,5,Pin_5_5*%
%TO.N,/G0*%
X96520000Y-66040000D03*
%TO.P,J4,6,Pin_6_6*%
%TO.N,GND*%
X96520000Y-68580000D03*
%TD*%
D10*
%TO.P,J1,1,Pin_1_1*%
%TO.N,+3.3V*%
X76200000Y-25400000D03*
D11*
%TO.P,J1,2,Pin_2_2*%
X76200000Y-27940000D03*
%TO.P,J1,3,Pin_3_3*%
%TO.N,/RST*%
X76200000Y-30480000D03*
%TO.P,J1,4,Pin_4_4*%
%TO.N,/IO4*%
X76200000Y-33020000D03*
%TO.P,J1,5,Pin_5_5*%
%TO.N,/IO5*%
X76200000Y-35560000D03*
%TO.P,J1,6,Pin_6_6*%
%TO.N,/IO6*%
X76200000Y-38100000D03*
%TO.P,J1,7,Pin_7_7*%
%TO.N,/IO7*%
X76200000Y-40640000D03*
%TO.P,J1,8,Pin_8_8*%
%TO.N,/G1*%
X76200000Y-43180000D03*
%TO.P,J1,9,Pin_9_9*%
%TO.N,/G3*%
X76200000Y-45720000D03*
%TO.P,J1,10,Pin_10_10*%
%TO.N,/G5*%
X76200000Y-48260000D03*
%TO.P,J1,11,Pin_11_11*%
%TO.N,/G7*%
X76200000Y-50800000D03*
%TO.P,J1,12,Pin_12_12*%
%TO.N,/IO8*%
X76200000Y-53340000D03*
%TO.P,J1,13,Pin_13_13*%
%TO.N,/IO3*%
X76200000Y-55880000D03*
%TO.P,J1,14,Pin_14_14*%
%TO.N,/IO46*%
X76200000Y-58420000D03*
%TO.P,J1,15,Pin_15_15*%
%TO.N,/IO9*%
X76200000Y-60960000D03*
%TO.P,J1,16,Pin_16_16*%
%TO.N,/G9*%
X76200000Y-63500000D03*
%TO.P,J1,17,Pin_17_17*%
%TO.N,/G13*%
X76200000Y-66040000D03*
%TO.P,J1,18,Pin_18_18*%
%TO.N,/G15*%
X76200000Y-68580000D03*
%TO.P,J1,19,Pin_19_19*%
%TO.N,/G44*%
X76200000Y-71120000D03*
%TO.P,J1,20,Pin_20_20*%
%TO.N,/IO14*%
X76200000Y-73660000D03*
%TO.P,J1,21,Pin_21_21*%
%TO.N,+5V*%
X76200000Y-76200000D03*
%TO.P,J1,22,Pin_22_22*%
%TO.N,GND*%
X76200000Y-78740000D03*
%TD*%
D10*
%TO.P,J2,1,Pin_1_1*%
%TO.N,GND*%
X101600000Y-25400000D03*
D11*
%TO.P,J2,2,Pin_2_2*%
%TO.N,/IO43*%
X101600000Y-27940000D03*
%TO.P,J2,3,Pin_3_3*%
%TO.N,/IO44*%
X101600000Y-30480000D03*
%TO.P,J2,4,Pin_4_4*%
%TO.N,/IO1*%
X101600000Y-33020000D03*
%TO.P,J2,5,Pin_5_5*%
%TO.N,/IO2*%
X101600000Y-35560000D03*
%TO.P,J2,6,Pin_6_6*%
%TO.N,/IO42*%
X101600000Y-38100000D03*
%TO.P,J2,7,Pin_7_7*%
%TO.N,/IO41*%
X101600000Y-40640000D03*
%TO.P,J2,8,Pin_8_8*%
%TO.N,/IO40*%
X101600000Y-43180000D03*
%TO.P,J2,9,Pin_9_9*%
%TO.N,/IO39*%
X101600000Y-45720000D03*
%TO.P,J2,10,Pin_10_10*%
%TO.N,/IO38*%
X101600000Y-48260000D03*
%TO.P,J2,11,Pin_11_11*%
%TO.N,/IO37*%
X101600000Y-50800000D03*
%TO.P,J2,12,Pin_12_12*%
%TO.N,/IO36*%
X101600000Y-53340000D03*
%TO.P,J2,13,Pin_13_13*%
%TO.N,/IO35*%
X101600000Y-55880000D03*
%TO.P,J2,14,Pin_14_14*%
%TO.N,/IO0*%
X101600000Y-58420000D03*
%TO.P,J2,15,Pin_15_15*%
%TO.N,/IO45*%
X101600000Y-60960000D03*
%TO.P,J2,16,Pin_16_16*%
%TO.N,/IO48*%
X101600000Y-63500000D03*
%TO.P,J2,17,Pin_17_17*%
%TO.N,/IO47*%
X101600000Y-66040000D03*
%TO.P,J2,18,Pin_18_18*%
%TO.N,/IO21*%
X101600000Y-68580000D03*
%TO.P,J2,19,Pin_19_19*%
%TO.N,/IO20*%
X101600000Y-71120000D03*
%TO.P,J2,20,Pin_20_20*%
%TO.N,/IO19*%
X101600000Y-73660000D03*
%TO.P,J2,21,Pin_21_21*%
%TO.N,GND*%
X101600000Y-76200000D03*
%TO.P,J2,22,Pin_22_22*%
X101600000Y-78740000D03*
%TD*%
%TO.N,/G1*%
D12*
X76200000Y-43180000D02*
X81280000Y-48260000D01*
%TO.N,/G3*%
X76200000Y-45720000D02*
X81280000Y-50800000D01*
%TO.N,/G5*%
X76200000Y-48260000D02*
X81280000Y-53340000D01*
%TO.N,/G7*%
X76200000Y-50800000D02*
X81280000Y-55880000D01*
%TO.N,/G9*%
X76200000Y-63500000D02*
X76300000Y-63400000D01*
X78150000Y-59900000D02*
X79630000Y-58420000D01*
X78150000Y-63400000D02*
X78150000Y-59900000D01*
X79630000Y-58420000D02*
X81280000Y-58420000D01*
X76300000Y-63400000D02*
X78150000Y-63400000D01*
%TO.N,/G13*%
X76200000Y-66040000D02*
X81280000Y-66040000D01*
%TO.N,/G15*%
X76200000Y-68580000D02*
X81280000Y-68580000D01*
%TO.N,+3.3V*%
D13*
X76200000Y-25400000D02*
X76200000Y-27940000D01*
X89450000Y-47750000D02*
X96520000Y-54820000D01*
X76200000Y-27940000D02*
X87890000Y-27940000D01*
X96520000Y-54820000D02*
X96520000Y-55880000D01*
X87890000Y-27940000D02*
X89450000Y-29500000D01*
X89450000Y-29500000D02*
X89450000Y-47750000D01*
%TO.N,/G44*%
D12*
X93770000Y-66870000D02*
X89520000Y-71120000D01*
X95160000Y-60960000D02*
X96520000Y-60960000D01*
X89520000Y-71120000D02*
X76200000Y-71120000D01*
X95150000Y-60950000D02*
X95160000Y-60960000D01*
X93750000Y-66850000D02*
X93750000Y-62350000D01*
X93770000Y-66870000D02*
X93750000Y-66850000D01*
X93750000Y-62350000D02*
X95150000Y-60950000D01*
%TD*%
M02*
