%TF.GenerationSoftware,KiCad,Pcbnew,10.0.5-10.0.5~ubuntu24.04.1*%
%TF.CreationDate,2026-08-25T15:18:28+02:00*%
%TF.ProjectId,stamps3_adapter,7374616d-7073-4335-9f61-646170746572,rev?*%
%TF.SameCoordinates,Original*%
%TF.FileFunction,Copper,L1,Top*%
%TF.FilePolarity,Positive*%
%FSLAX46Y46*%
G04 Gerber Fmt 4.6, Leading zero omitted, Abs format (unit mm)*
G04 Created by KiCad (PCBNEW 10.0.5-10.0.5~ubuntu24.04.1) date 2026-08-25 15:18:28*
%MOMM*%
%LPD*%
G01*
G04 APERTURE LIST*
%TA.AperFunction,ComponentPad*%
%ADD10R,1.700000X1.700000*%
%TD*%
%TA.AperFunction,ComponentPad*%
%ADD11C,1.700000*%
%TD*%
%TA.AperFunction,Conductor*%
%ADD12C,0.762000*%
%TD*%
G04 APERTURE END LIST*
D10*
%TO.P,J3,1,Pin_1_1*%
%TO.N,/G1*%
X81280000Y-48260000D03*
D11*
%TO.P,J3,2,Pin_2_2*%
%TO.N,/G3*%
X81280000Y-50800000D03*
%TO.P,J3,3,Pin_3_3*%
%TO.N,/G5*%
X81280000Y-53340000D03*
%TO.P,J3,4,Pin_4_4*%
%TO.N,/G7*%
X81280000Y-55880000D03*
%TO.P,J3,5,Pin_5_5*%
%TO.N,/G9*%
X81280000Y-58420000D03*
%TO.P,J3,6,Pin_6_6*%
%TO.N,GND*%
X81280000Y-60960000D03*
%TO.P,J3,7,Pin_7_7*%
%TO.N,+5V*%
X81280000Y-63500000D03*
%TO.P,J3,8,Pin_8_8*%
%TO.N,/G13*%
X81280000Y-66040000D03*
%TO.P,J3,9,Pin_9_9*%
%TO.N,/G15*%
X81280000Y-68580000D03*
%TD*%
D10*
%TO.P,J4,1,Pin_1_1*%
%TO.N,+3.3V*%
X96520000Y-55880000D03*
D11*
%TO.P,J4,2,Pin_2_2*%
%TO.N,/G43*%
X96520000Y-58420000D03*
%TO.P,J4,3,Pin_3_3*%
%TO.N,/G44*%
X96520000Y-60960000D03*
%TO.P,J4,4,Pin_4_4*%
%TO.N,/EN*%
X96520000Y-63500000D03*
%TO.P,J4,5,Pin_5_5*%
%TO.N,/G0*%
X96520000Y-66040000D03*
%TO.P,J4,6,Pin_6_6*%
%TO.N,GND*%
X96520000Y-68580000D03*
%TD*%
D10*
%TO.P,J1,1,Pin_1_1*%
%TO.N,+3.3V*%
X76200000Y-25400000D03*
D11*
%TO.P,J1,2,Pin_2_2*%
X76200000Y-27940000D03*
%TO.P,J1,3,Pin_3_3*%
%TO.N,/RST*%
X76200000Y-30480000D03*
%TO.P,J1,4,Pin_4_4*%
%TO.N,/IO4*%
X76200000Y-33020000D03*
%TO.P,J1,5,Pin_5_5*%
%TO.N,/IO5*%
X76200000Y-35560000D03*
%TO.P,J1,6,Pin_6_6*%
%TO.N,/IO6*%
X76200000Y-38100000D03*
%TO.P,J1,7,Pin_7_7*%
%TO.N,/IO7*%
X76200000Y-40640000D03*
%TO.P,J1,8,Pin_8_8*%
%TO.N,/G1*%
X76200000Y-43180000D03*
%TO.P,J1,9,Pin_9_9*%
%TO.N,/G3*%
X76200000Y-45720000D03*
%TO.P,J1,10,Pin_10_10*%
%TO.N,/G5*%
X76200000Y-48260000D03*
%TO.P,J1,11,Pin_11_11*%
%TO.N,/G7*%
X76200000Y-50800000D03*
%TO.P,J1,12,Pin_12_12*%
%TO.N,/IO8*%
X76200000Y-53340000D03*
%TO.P,J1,13,Pin_13_13*%
%TO.N,/IO3*%
X76200000Y-55880000D03*
%TO.P,J1,14,Pin_14_14*%
%TO.N,/IO46*%
X76200000Y-58420000D03*
%TO.P,J1,15,Pin_15_15*%
%TO.N,/IO9*%
X76200000Y-60960000D03*
%TO.P,J1,16,Pin_16_16*%
%TO.N,/G9*%
X76200000Y-63500000D03*
%TO.P,J1,17,Pin_17_17*%
%TO.N,/G13*%
X76200000Y-66040000D03*
%TO.P,J1,18,Pin_18_18*%
%TO.N,/G15*%
X76200000Y-68580000D03*
%TO.P,J1,19,Pin_19_19*%
%TO.N,/G44*%
X76200000Y-71120000D03*
%TO.P,J1,20,Pin_20_20*%
%TO.N,/IO14*%
X76200000Y-73660000D03*
%TO.P,J1,21,Pin_21_21*%
%TO.N,+5V*%
X76200000Y-76200000D03*
%TO.P,J1,22,Pin_22_22*%
%TO.N,GND*%
X76200000Y-78740000D03*
%TD*%
D10*
%TO.P,J2,1,Pin_1_1*%
%TO.N,GND*%
X101600000Y-25400000D03*
D11*
%TO.P,J2,2,Pin_2_2*%
%TO.N,/IO43*%
X101600000Y-27940000D03*
%TO.P,J2,3,Pin_3_3*%
%TO.N,/IO44*%
X101600000Y-30480000D03*
%TO.P,J2,4,Pin_4_4*%
%TO.N,/IO1*%
X101600000Y-33020000D03*
%TO.P,J2,5,Pin_5_5*%
%TO.N,/IO2*%
X101600000Y-35560000D03*
%TO.P,J2,6,Pin_6_6*%
%TO.N,/IO42*%
X101600000Y-38100000D03*
%TO.P,J2,7,Pin_7_7*%
%TO.N,/IO41*%
X101600000Y-40640000D03*
%TO.P,J2,8,Pin_8_8*%
%TO.N,/IO40*%
X101600000Y-43180000D03*
%TO.P,J2,9,Pin_9_9*%
%TO.N,/IO39*%
X101600000Y-45720000D03*
%TO.P,J2,10,Pin_10_10*%
%TO.N,/IO38*%
X101600000Y-48260000D03*
%TO.P,J2,11,Pin_11_11*%
%TO.N,/IO37*%
X101600000Y-50800000D03*
%TO.P,J2,12,Pin_12_12*%
%TO.N,/IO36*%
X101600000Y-53340000D03*
%TO.P,J2,13,Pin_13_13*%
%TO.N,/IO35*%
X101600000Y-55880000D03*
%TO.P,J2,14,Pin_14_14*%
%TO.N,/IO0*%
X101600000Y-58420000D03*
%TO.P,J2,15,Pin_15_15*%
%TO.N,/IO45*%
X101600000Y-60960000D03*
%TO.P,J2,16,Pin_16_16*%
%TO.N,/IO48*%
X101600000Y-63500000D03*
%TO.P,J2,17,Pin_17_17*%
%TO.N,/IO47*%
X101600000Y-66040000D03*
%TO.P,J2,18,Pin_18_18*%
%TO.N,/IO21*%
X101600000Y-68580000D03*
%TO.P,J2,19,Pin_19_19*%
%TO.N,/IO20*%
X101600000Y-71120000D03*
%TO.P,J2,20,Pin_20_20*%
%TO.N,/IO19*%
X101600000Y-73660000D03*
%TO.P,J2,21,Pin_21_21*%
%TO.N,GND*%
X101600000Y-76200000D03*
%TO.P,J2,22,Pin_22_22*%
X101600000Y-78740000D03*
%TD*%
%TO.N,+5V*%
D12*
X76200000Y-76200000D02*
X83100000Y-76200000D01*
X83000000Y-63500000D02*
X81280000Y-63500000D01*
X83100000Y-76200000D02*
X84950000Y-74350000D01*
X84950000Y-65450000D02*
X83000000Y-63500000D01*
X84950000Y-74350000D02*
X84950000Y-65450000D01*
%TD*%
%TA.AperFunction,Conductor*%
%TO.N,GND*%
G36*
X103392539Y-23520185D02*
G01*
X103438294Y-23572989D01*
X103449500Y-23624500D01*
X103449500Y-80475500D01*
X103429815Y-80542539D01*
X103377011Y-80588294D01*
X103325500Y-80599500D01*
X74624500Y-80599500D01*
X74557461Y-80579815D01*
X74511706Y-80527011D01*
X74500500Y-80475500D01*
X74500500Y-24502135D01*
X74849500Y-24502135D01*
X74849500Y-26297870D01*
X74849501Y-26297876D01*
X74855908Y-26357483D01*
X74906202Y-26492328D01*
X74906206Y-26492335D01*
X74992452Y-26607544D01*
X74992455Y-26607547D01*
X75107664Y-26693793D01*
X75107671Y-26693797D01*
X75239082Y-26742810D01*
X75295016Y-26784681D01*
X75319433Y-26850145D01*
X75304582Y-26918418D01*
X75283431Y-26946673D01*
X75169889Y-27060215D01*
X75044951Y-27232179D01*
X74948444Y-27421585D01*
X74882753Y-27623760D01*
X74849500Y-27833713D01*
X74849500Y-28046286D01*
X74882753Y-28256239D01*
X74948444Y-28458414D01*
X75044951Y-28647820D01*
X75169890Y-28819786D01*
X75320213Y-28970109D01*
X75492182Y-29095050D01*
X75500946Y-29099516D01*
X75551742Y-29147491D01*
X75568536Y-29215312D01*
X75545998Y-29281447D01*
X75500946Y-29320484D01*
X75492182Y-29324949D01*
X75320213Y-29449890D01*
X75169890Y-29600213D01*
X75044951Y-29772179D01*
X74948444Y-29961585D01*
X74882753Y-30163760D01*
X74849500Y-30373713D01*
X74849500Y-30586286D01*
X74882753Y-30796239D01*
X74948444Y-30998414D01*
X75044951Y-31187820D01*
X75169890Y-31359786D01*
X75320213Y-31510109D01*
X75492182Y-31635050D01*
X75500946Y-31639516D01*
X75551742Y-31687491D01*
X75568536Y-31755312D01*
X75545998Y-31821447D01*
X75500946Y-31860484D01*
X75492182Y-31864949D01*
X75320213Y-31989890D01*
X75169890Y-32140213D01*
X75044951Y-32312179D01*
X74948444Y-32501585D01*
X74882753Y-32703760D01*
X74849500Y-32913713D01*
X74849500Y-33126286D01*
X74882753Y-33336239D01*
X74948444Y-33538414D01*
X75044951Y-33727820D01*
X75169890Y-33899786D01*
X75320213Y-34050109D01*
X75492182Y-34175050D01*
X75500946Y-34179516D01*
X75551742Y-34227491D01*
X75568536Y-34295312D01*
X75545998Y-34361447D01*
X75500946Y-34400484D01*
X75492182Y-34404949D01*
X75320213Y-34529890D01*
X75169890Y-34680213D01*
X75044951Y-34852179D01*
X74948444Y-35041585D01*
X74882753Y-35243760D01*
X74849500Y-35453713D01*
X74849500Y-35666286D01*
X74882753Y-35876239D01*
X74948444Y-36078414D01*
X75044951Y-36267820D01*
X75169890Y-36439786D01*
X75320213Y-36590109D01*
X75492182Y-36715050D01*
X75500946Y-36719516D01*
X75551742Y-36767491D01*
X75568536Y-36835312D01*
X75545998Y-36901447D01*
X75500946Y-36940484D01*
X75492182Y-36944949D01*
X75320213Y-37069890D01*
X75169890Y-37220213D01*
X75044951Y-37392179D01*
X74948444Y-37581585D01*
X74882753Y-37783760D01*
X74849500Y-37993713D01*
X74849500Y-38206286D01*
X74882753Y-38416239D01*
X74948444Y-38618414D01*
X75044951Y-38807820D01*
X75169890Y-38979786D01*
X75320213Y-39130109D01*
X75492182Y-39255050D01*
X75500946Y-39259516D01*
X75551742Y-39307491D01*
X75568536Y-39375312D01*
X75545998Y-39441447D01*
X75500946Y-39480484D01*
X75492182Y-39484949D01*
X75320213Y-39609890D01*
X75169890Y-39760213D01*
X75044951Y-39932179D01*
X74948444Y-40121585D01*
X74882753Y-40323760D01*
X74849500Y-40533713D01*
X74849500Y-40746286D01*
X74882753Y-40956239D01*
X74948444Y-41158414D01*
X75044951Y-41347820D01*
X75169890Y-41519786D01*
X75320213Y-41670109D01*
X75492182Y-41795050D01*
X75500946Y-41799516D01*
X75551742Y-41847491D01*
X75568536Y-41915312D01*
X75545998Y-41981447D01*
X75500946Y-42020484D01*
X75492182Y-42024949D01*
X75320213Y-42149890D01*
X75169890Y-42300213D01*
X75044951Y-42472179D01*
X74948444Y-42661585D01*
X74882753Y-42863760D01*
X74849500Y-43073713D01*
X74849500Y-43286286D01*
X74882753Y-43496239D01*
X74948444Y-43698414D01*
X75044951Y-43887820D01*
X75169890Y-44059786D01*
X75320213Y-44210109D01*
X75492182Y-44335050D01*
X75500946Y-44339516D01*
X75551742Y-44387491D01*
X75568536Y-44455312D01*
X75545998Y-44521447D01*
X75500946Y-44560484D01*
X75492182Y-44564949D01*
X75320213Y-44689890D01*
X75169890Y-44840213D01*
X75044951Y-45012179D01*
X74948444Y-45201585D01*
X74882753Y-45403760D01*
X74849500Y-45613713D01*
X74849500Y-45826286D01*
X74882753Y-46036239D01*
X74948444Y-46238414D01*
X75044951Y-46427820D01*
X75169890Y-46599786D01*
X75320213Y-46750109D01*
X75492182Y-46875050D01*
X75500946Y-46879516D01*
X75551742Y-46927491D01*
X75568536Y-46995312D01*
X75545998Y-47061447D01*
X75500946Y-47100484D01*
X75492182Y-47104949D01*
X75320213Y-47229890D01*
X75169890Y-47380213D01*
X75044951Y-47552179D01*
X74948444Y-47741585D01*
X74882753Y-47943760D01*
X74849500Y-48153713D01*
X74849500Y-48366286D01*
X74882753Y-48576239D01*
X74948444Y-48778414D01*
X75044951Y-48967820D01*
X75169890Y-49139786D01*
X75320213Y-49290109D01*
X75492182Y-49415050D01*
X75500946Y-49419516D01*
X75551742Y-49467491D01*
X75568536Y-49535312D01*
X75545998Y-49601447D01*
X75500946Y-49640484D01*
X75492182Y-49644949D01*
X75320213Y-49769890D01*
X75169890Y-49920213D01*
X75044951Y-50092179D01*
X74948444Y-50281585D01*
X74882753Y-50483760D01*
X74849500Y-50693713D01*
X74849500Y-50906286D01*
X74882753Y-51116239D01*
X74948444Y-51318414D01*
X75044951Y-51507820D01*
X75169890Y-51679786D01*
X75320213Y-51830109D01*
X75492182Y-51955050D01*
X75500946Y-51959516D01*
X75551742Y-52007491D01*
X75568536Y-52075312D01*
X75545998Y-52141447D01*
X75500946Y-52180484D01*
X75492182Y-52184949D01*
X75320213Y-52309890D01*
X75169890Y-52460213D01*
X75044951Y-52632179D01*
X74948444Y-52821585D01*
X74882753Y-53023760D01*
X74849500Y-53233713D01*
X74849500Y-53446286D01*
X74882753Y-53656239D01*
X74948444Y-53858414D01*
X75044951Y-54047820D01*
X75169890Y-54219786D01*
X75320213Y-54370109D01*
X75492182Y-54495050D01*
X75500946Y-54499516D01*
X75551742Y-54547491D01*
X75568536Y-54615312D01*
X75545998Y-54681447D01*
X75500946Y-54720484D01*
X75492182Y-54724949D01*
X75320213Y-54849890D01*
X75169890Y-55000213D01*
X75044951Y-55172179D01*
X74948444Y-55361585D01*
X74882753Y-55563760D01*
X74849500Y-55773713D01*
X74849500Y-55986286D01*
X74882753Y-56196239D01*
X74948444Y-56398414D01*
X75044951Y-56587820D01*
X75169890Y-56759786D01*
X75320213Y-56910109D01*
X75492182Y-57035050D01*
X75500946Y-57039516D01*
X75551742Y-57087491D01*
X75568536Y-57155312D01*
X75545998Y-57221447D01*
X75500946Y-57260484D01*
X75492182Y-57264949D01*
X75320213Y-57389890D01*
X75169890Y-57540213D01*
X75044951Y-57712179D01*
X74948444Y-57901585D01*
X74882753Y-58103760D01*
X74849500Y-58313713D01*
X74849500Y-58526286D01*
X74882753Y-58736239D01*
X74948444Y-58938414D01*
X75044951Y-59127820D01*
X75169890Y-59299786D01*
X75320213Y-59450109D01*
X75492182Y-59575050D01*
X75500946Y-59579516D01*
X75551742Y-59627491D01*
X75568536Y-59695312D01*
X75545998Y-59761447D01*
X75500946Y-59800484D01*
X75492182Y-59804949D01*
X75320213Y-59929890D01*
X75169890Y-60080213D01*
X75044951Y-60252179D01*
X74948444Y-60441585D01*
X74882753Y-60643760D01*
X74849500Y-60853713D01*
X74849500Y-61066286D01*
X74882753Y-61276239D01*
X74948444Y-61478414D01*
X75044951Y-61667820D01*
X75169890Y-61839786D01*
X75320213Y-61990109D01*
X75492182Y-62115050D01*
X75500946Y-62119516D01*
X75551742Y-62167491D01*
X75568536Y-62235312D01*
X75545998Y-62301447D01*
X75500946Y-62340484D01*
X75492182Y-62344949D01*
X75320213Y-62469890D01*
X75169890Y-62620213D01*
X75044951Y-62792179D01*
X74948444Y-62981585D01*
X74882753Y-63183760D01*
X74849500Y-63393713D01*
X74849500Y-63606286D01*
X74882753Y-63816239D01*
X74948444Y-64018414D01*
X75044951Y-64207820D01*
X75169890Y-64379786D01*
X75320213Y-64530109D01*
X75492182Y-64655050D01*
X75500946Y-64659516D01*
X75551742Y-64707491D01*
X75568536Y-64775312D01*
X75545998Y-64841447D01*
X75500946Y-64880484D01*
X75492182Y-64884949D01*
X75320213Y-65009890D01*
X75169890Y-65160213D01*
X75044951Y-65332179D01*
X74948444Y-65521585D01*
X74882753Y-65723760D01*
X74849500Y-65933713D01*
X74849500Y-66146286D01*
X74882753Y-66356239D01*
X74948444Y-66558414D01*
X75044951Y-66747820D01*
X75169890Y-66919786D01*
X75320213Y-67070109D01*
X75492182Y-67195050D01*
X75500946Y-67199516D01*
X75551742Y-67247491D01*
X75568536Y-67315312D01*
X75545998Y-67381447D01*
X75500946Y-67420484D01*
X75492182Y-67424949D01*
X75320213Y-67549890D01*
X75169890Y-67700213D01*
X75044951Y-67872179D01*
X74948444Y-68061585D01*
X74882753Y-68263760D01*
X74849500Y-68473713D01*
X74849500Y-68686286D01*
X74882753Y-68896239D01*
X74948444Y-69098414D01*
X75044951Y-69287820D01*
X75169890Y-69459786D01*
X75320213Y-69610109D01*
X75492182Y-69735050D01*
X75500946Y-69739516D01*
X75551742Y-69787491D01*
X75568536Y-69855312D01*
X75545998Y-69921447D01*
X75500946Y-69960484D01*
X75492182Y-69964949D01*
X75320213Y-70089890D01*
X75169890Y-70240213D01*
X75044951Y-70412179D01*
X74948444Y-70601585D01*
X74882753Y-70803760D01*
X74849500Y-71013713D01*
X74849500Y-71226286D01*
X74882753Y-71436239D01*
X74948444Y-71638414D01*
X75044951Y-71827820D01*
X75169890Y-71999786D01*
X75320213Y-72150109D01*
X75492182Y-72275050D01*
X75500946Y-72279516D01*
X75551742Y-72327491D01*
X75568536Y-72395312D01*
X75545998Y-72461447D01*
X75500946Y-72500484D01*
X75492182Y-72504949D01*
X75320213Y-72629890D01*
X75169890Y-72780213D01*
X75044951Y-72952179D01*
X74948444Y-73141585D01*
X74882753Y-73343760D01*
X74849500Y-73553713D01*
X74849500Y-73766286D01*
X74882753Y-73976239D01*
X74948444Y-74178414D01*
X75044951Y-74367820D01*
X75169890Y-74539786D01*
X75320213Y-74690109D01*
X75492182Y-74815050D01*
X75500946Y-74819516D01*
X75551742Y-74867491D01*
X75568536Y-74935312D01*
X75545998Y-75001447D01*
X75500946Y-75040484D01*
X75492182Y-75044949D01*
X75320213Y-75169890D01*
X75169890Y-75320213D01*
X75044951Y-75492179D01*
X74948444Y-75681585D01*
X74882753Y-75883760D01*
X74849500Y-76093713D01*
X74849500Y-76306286D01*
X74882753Y-76516239D01*
X74948444Y-76718414D01*
X75044951Y-76907820D01*
X75169890Y-77079786D01*
X75320213Y-77230109D01*
X75492179Y-77355048D01*
X75492181Y-77355049D01*
X75492184Y-77355051D01*
X75501493Y-77359794D01*
X75552290Y-77407766D01*
X75569087Y-77475587D01*
X75546552Y-77541722D01*
X75501505Y-77580760D01*
X75492446Y-77585376D01*
X75492440Y-77585380D01*
X75438282Y-77624727D01*
X75438282Y-77624728D01*
X76070591Y-78257037D01*
X76007007Y-78274075D01*
X75892993Y-78339901D01*
X75799901Y-78432993D01*
X75734075Y-78547007D01*
X75717037Y-78610591D01*
X75084728Y-77978282D01*
X75084727Y-77978282D01*
X75045380Y-78032439D01*
X74948904Y-78221782D01*
X74883242Y-78423869D01*
X74883242Y-78423872D01*
X74850000Y-78633753D01*
X74850000Y-78846246D01*
X74883242Y-79056127D01*
X74883242Y-79056130D01*
X74948904Y-79258217D01*
X75045375Y-79447550D01*
X75084728Y-79501716D01*
X75717037Y-78869408D01*
X75734075Y-78932993D01*
X75799901Y-79047007D01*
X75892993Y-79140099D01*
X76007007Y-79205925D01*
X76070590Y-79222962D01*
X75438282Y-79855269D01*
X75438282Y-79855270D01*
X75492449Y-79894624D01*
X75681782Y-79991095D01*
X75883870Y-80056757D01*
X76093754Y-80090000D01*
X76306246Y-80090000D01*
X76516127Y-80056757D01*
X76516130Y-80056757D01*
X76718217Y-79991095D01*
X76907554Y-79894622D01*
X76961716Y-79855270D01*
X76961717Y-79855270D01*
X76329408Y-79222962D01*
X76392993Y-79205925D01*
X76507007Y-79140099D01*
X76600099Y-79047007D01*
X76665925Y-78932993D01*
X76682962Y-78869408D01*
X77315270Y-79501717D01*
X77315270Y-79501716D01*
X77354622Y-79447554D01*
X77451095Y-79258217D01*
X77516757Y-79056130D01*
X77516757Y-79056127D01*
X77550000Y-78846246D01*
X77550000Y-78633753D01*
X77516757Y-78423872D01*
X77516757Y-78423869D01*
X77451095Y-78221782D01*
X77354624Y-78032449D01*
X77315270Y-77978282D01*
X77315269Y-77978282D01*
X76682962Y-78610590D01*
X76665925Y-78547007D01*
X76600099Y-78432993D01*
X76507007Y-78339901D01*
X76392993Y-78274075D01*
X76329409Y-78257037D01*
X76961716Y-77624728D01*
X76907547Y-77585373D01*
X76907547Y-77585372D01*
X76898500Y-77580763D01*
X76847706Y-77532788D01*
X76830912Y-77464966D01*
X76853451Y-77398832D01*
X76898508Y-77359793D01*
X76907816Y-77355051D01*
X76987007Y-77297515D01*
X77079786Y-77230109D01*
X77079788Y-77230106D01*
X77079792Y-77230104D01*
X77192077Y-77117819D01*
X77253400Y-77084334D01*
X77279758Y-77081500D01*
X83186823Y-77081500D01*
X83301393Y-77058709D01*
X83357124Y-77047624D01*
X83437335Y-77014399D01*
X83517543Y-76981177D01*
X83517544Y-76981176D01*
X83517547Y-76981175D01*
X83661924Y-76884706D01*
X84039623Y-76507007D01*
X84545431Y-76001200D01*
X85634703Y-74911927D01*
X85634704Y-74911926D01*
X85634706Y-74911924D01*
X85731175Y-74767547D01*
X85797624Y-74607124D01*
X85831500Y-74436821D01*
X85831500Y-74263179D01*
X85831500Y-65363180D01*
X85825334Y-65332184D01*
X85797624Y-65192876D01*
X85784093Y-65160208D01*
X85731178Y-65032459D01*
X85731171Y-65032446D01*
X85634707Y-64888078D01*
X85579141Y-64832512D01*
X85511923Y-64765294D01*
X85126415Y-64379786D01*
X83561927Y-62815296D01*
X83561926Y-62815295D01*
X83417543Y-62718822D01*
X83257128Y-62652377D01*
X83257118Y-62652374D01*
X83086823Y-62618500D01*
X83086821Y-62618500D01*
X83086820Y-62618500D01*
X82359758Y-62618500D01*
X82292719Y-62598815D01*
X82272077Y-62582181D01*
X82159786Y-62469890D01*
X81987817Y-62344949D01*
X81978504Y-62340204D01*
X81927707Y-62292230D01*
X81910912Y-62224409D01*
X81933449Y-62158274D01*
X81978507Y-62119232D01*
X81987555Y-62114622D01*
X82041716Y-62075270D01*
X82041717Y-62075270D01*
X81409408Y-61442962D01*
X81472993Y-61425925D01*
X81587007Y-61360099D01*
X81680099Y-61267007D01*
X81745925Y-61152993D01*
X81762962Y-61089409D01*
X82395270Y-61721717D01*
X82395270Y-61721716D01*
X82434622Y-61667554D01*
X82531095Y-61478217D01*
X82596757Y-61276130D01*
X82596757Y-61276127D01*
X82630000Y-61066246D01*
X82630000Y-60853753D01*
X82596757Y-60643872D01*
X82596757Y-60643869D01*
X82531095Y-60441782D01*
X82434624Y-60252449D01*
X82395270Y-60198282D01*
X82395269Y-60198282D01*
X81762962Y-60830590D01*
X81745925Y-60767007D01*
X81680099Y-60652993D01*
X81587007Y-60559901D01*
X81472993Y-60494075D01*
X81409409Y-60477037D01*
X82041716Y-59844728D01*
X81987547Y-59805373D01*
X81987547Y-59805372D01*
X81978500Y-59800763D01*
X81927706Y-59752788D01*
X81910912Y-59684966D01*
X81933451Y-59618832D01*
X81978508Y-59579793D01*
X81987816Y-59575051D01*
X82067007Y-59517515D01*
X82159786Y-59450109D01*
X82159788Y-59450106D01*
X82159792Y-59450104D01*
X82310104Y-59299792D01*
X82310106Y-59299788D01*
X82310109Y-59299786D01*
X82435048Y-59127820D01*
X82435047Y-59127820D01*
X82435051Y-59127816D01*
X82531557Y-58938412D01*
X82597246Y-58736243D01*
X82630500Y-58526287D01*
X82630500Y-58313713D01*
X82597246Y-58103757D01*
X82531557Y-57901588D01*
X82435051Y-57712184D01*
X82435049Y-57712181D01*
X82435048Y-57712179D01*
X82310109Y-57540213D01*
X82159786Y-57389890D01*
X81987820Y-57264951D01*
X81987115Y-57264591D01*
X81979054Y-57260485D01*
X81928259Y-57212512D01*
X81911463Y-57144692D01*
X81933999Y-57078556D01*
X81979054Y-57039515D01*
X81987816Y-57035051D01*
X82074138Y-56972335D01*
X82159786Y-56910109D01*
X82159788Y-56910106D01*
X82159792Y-56910104D01*
X82310104Y-56759792D01*
X82310106Y-56759788D01*
X82310109Y-56759786D01*
X82435048Y-56587820D01*
X82435047Y-56587820D01*
X82435051Y-56587816D01*
X82531557Y-56398412D01*
X82597246Y-56196243D01*
X82630500Y-55986287D01*
X82630500Y-55773713D01*
X82597246Y-55563757D01*
X82531557Y-55361588D01*
X82435051Y-55172184D01*
X82310104Y-55000208D01*
X82292031Y-54982135D01*
X95169500Y-54982135D01*
X95169500Y-56777870D01*
X95169501Y-56777876D01*
X95175908Y-56837483D01*
X95226202Y-56972328D01*
X95226206Y-56972335D01*
X95312452Y-57087544D01*
X95312455Y-57087547D01*
X95427664Y-57173793D01*
X95427671Y-57173797D01*
X95559082Y-57222810D01*
X95615016Y-57264681D01*
X95639433Y-57330145D01*
X95624582Y-57398418D01*
X95603431Y-57426673D01*
X95489889Y-57540215D01*
X95364951Y-57712179D01*
X95268444Y-57901585D01*
X95202753Y-58103760D01*
X95169500Y-58313713D01*
X95169500Y-58526286D01*
X95202753Y-58736239D01*
X95268444Y-58938414D01*
X95364951Y-59127820D01*
X95489890Y-59299786D01*
X95640213Y-59450109D01*
X95812182Y-59575050D01*
X95820946Y-59579516D01*
X95871742Y-59627491D01*
X95888536Y-59695312D01*
X95865998Y-59761447D01*
X95820946Y-59800484D01*
X95812182Y-59804949D01*
X95640213Y-59929890D01*
X95489890Y-60080213D01*
X95364951Y-60252179D01*
X95268444Y-60441585D01*
X95202753Y-60643760D01*
X95169500Y-60853713D01*
X95169500Y-61066286D01*
X95202753Y-61276239D01*
X95268444Y-61478414D01*
X95364951Y-61667820D01*
X95489890Y-61839786D01*
X95640213Y-61990109D01*
X95812182Y-62115050D01*
X95820946Y-62119516D01*
X95871742Y-62167491D01*
X95888536Y-62235312D01*
X95865998Y-62301447D01*
X95820946Y-62340484D01*
X95812182Y-62344949D01*
X95640213Y-62469890D01*
X95489890Y-62620213D01*
X95364951Y-62792179D01*
X95268444Y-62981585D01*
X95202753Y-63183760D01*
X95169500Y-63393713D01*
X95169500Y-63606286D01*
X95202753Y-63816239D01*
X95268444Y-64018414D01*
X95364951Y-64207820D01*
X95489890Y-64379786D01*
X95640213Y-64530109D01*
X95812182Y-64655050D01*
X95820946Y-64659516D01*
X95871742Y-64707491D01*
X95888536Y-64775312D01*
X95865998Y-64841447D01*
X95820946Y-64880484D01*
X95812182Y-64884949D01*
X95640213Y-65009890D01*
X95489890Y-65160213D01*
X95364951Y-65332179D01*
X95268444Y-65521585D01*
X95202753Y-65723760D01*
X95169500Y-65933713D01*
X95169500Y-66146286D01*
X95202753Y-66356239D01*
X95268444Y-66558414D01*
X95364951Y-66747820D01*
X95489890Y-66919786D01*
X95640213Y-67070109D01*
X95812179Y-67195048D01*
X95812181Y-67195049D01*
X95812184Y-67195051D01*
X95821493Y-67199794D01*
X95872290Y-67247766D01*
X95889087Y-67315587D01*
X95866552Y-67381722D01*
X95821505Y-67420760D01*
X95812446Y-67425376D01*
X95812440Y-67425380D01*
X95758282Y-67464727D01*
X95758282Y-67464728D01*
X96390591Y-68097037D01*
X96327007Y-68114075D01*
X96212993Y-68179901D01*
X96119901Y-68272993D01*
X96054075Y-68387007D01*
X96037037Y-68450591D01*
X95404728Y-67818282D01*
X95404727Y-67818282D01*
X95365380Y-67872439D01*
X95268904Y-68061782D01*
X95203242Y-68263869D01*
X95203242Y-68263872D01*
X95170000Y-68473753D01*
X95170000Y-68686246D01*
X95203242Y-68896127D01*
X95203242Y-68896130D01*
X95268904Y-69098217D01*
X95365375Y-69287550D01*
X95404728Y-69341716D01*
X96037037Y-68709408D01*
X96054075Y-68772993D01*
X96119901Y-68887007D01*
X96212993Y-68980099D01*
X96327007Y-69045925D01*
X96390590Y-69062962D01*
X95758282Y-69695269D01*
X95758282Y-69695270D01*
X95812449Y-69734624D01*
X96001782Y-69831095D01*
X96203870Y-69896757D01*
X96413754Y-69930000D01*
X96626246Y-69930000D01*
X96836127Y-69896757D01*
X96836130Y-69896757D01*
X97038217Y-69831095D01*
X97227554Y-69734622D01*
X97281716Y-69695270D01*
X97281717Y-69695270D01*
X96649408Y-69062962D01*
X96712993Y-69045925D01*
X96827007Y-68980099D01*
X96920099Y-68887007D01*
X96985925Y-68772993D01*
X97002962Y-68709409D01*
X97635270Y-69341717D01*
X97635270Y-69341716D01*
X97674622Y-69287554D01*
X97771095Y-69098217D01*
X97836757Y-68896130D01*
X97836757Y-68896127D01*
X97870000Y-68686246D01*
X97870000Y-68473753D01*
X97836757Y-68263872D01*
X97836757Y-68263869D01*
X97771095Y-68061782D01*
X97674624Y-67872449D01*
X97635270Y-67818282D01*
X97635269Y-67818282D01*
X97002962Y-68450590D01*
X96985925Y-68387007D01*
X96920099Y-68272993D01*
X96827007Y-68179901D01*
X96712993Y-68114075D01*
X96649409Y-68097037D01*
X97281716Y-67464728D01*
X97227547Y-67425373D01*
X97227547Y-67425372D01*
X97218500Y-67420763D01*
X97167706Y-67372788D01*
X97150912Y-67304966D01*
X97173451Y-67238832D01*
X97218508Y-67199793D01*
X97227816Y-67195051D01*
X97307007Y-67137515D01*
X97399786Y-67070109D01*
X97399788Y-67070106D01*
X97399792Y-67070104D01*
X97550104Y-66919792D01*
X97550106Y-66919788D01*
X97550109Y-66919786D01*
X97675048Y-66747820D01*
X97675047Y-66747820D01*
X97675051Y-66747816D01*
X97771557Y-66558412D01*
X97837246Y-66356243D01*
X97870500Y-66146287D01*
X97870500Y-65933713D01*
X97837246Y-65723757D01*
X97771557Y-65521588D01*
X97675051Y-65332184D01*
X97675049Y-65332181D01*
X97675048Y-65332179D01*
X97550109Y-65160213D01*
X97399786Y-65009890D01*
X97227820Y-64884951D01*
X97227115Y-64884591D01*
X97219054Y-64880485D01*
X97168259Y-64832512D01*
X97151463Y-64764692D01*
X97173999Y-64698556D01*
X97219054Y-64659515D01*
X97227816Y-64655051D01*
X97249789Y-64639086D01*
X97399786Y-64530109D01*
X97399788Y-64530106D01*
X97399792Y-64530104D01*
X97550104Y-64379792D01*
X97550106Y-64379788D01*
X97550109Y-64379786D01*
X97675048Y-64207820D01*
X97675047Y-64207820D01*
X97675051Y-64207816D01*
X97771557Y-64018412D01*
X97837246Y-63816243D01*
X97870500Y-63606287D01*
X97870500Y-63393713D01*
X97837246Y-63183757D01*
X97771557Y-62981588D01*
X97675051Y-62792184D01*
X97675049Y-62792181D01*
X97675048Y-62792179D01*
X97550109Y-62620213D01*
X97399786Y-62469890D01*
X97227820Y-62344951D01*
X97227115Y-62344591D01*
X97219054Y-62340485D01*
X97168259Y-62292512D01*
X97151463Y-62224692D01*
X97173999Y-62158556D01*
X97219054Y-62119515D01*
X97227816Y-62115051D01*
X97282572Y-62075269D01*
X97399786Y-61990109D01*
X97399788Y-61990106D01*
X97399792Y-61990104D01*
X97550104Y-61839792D01*
X97550106Y-61839788D01*
X97550109Y-61839786D01*
X97675048Y-61667820D01*
X97675047Y-61667820D01*
X97675051Y-61667816D01*
X97771557Y-61478412D01*
X97837246Y-61276243D01*
X97870500Y-61066287D01*
X97870500Y-60853713D01*
X97837246Y-60643757D01*
X97771557Y-60441588D01*
X97675051Y-60252184D01*
X97675049Y-60252181D01*
X97675048Y-60252179D01*
X97550109Y-60080213D01*
X97399786Y-59929890D01*
X97227820Y-59804951D01*
X97219600Y-59800763D01*
X97219054Y-59800485D01*
X97168259Y-59752512D01*
X97151463Y-59684692D01*
X97173999Y-59618556D01*
X97219054Y-59579515D01*
X97227816Y-59575051D01*
X97249789Y-59559086D01*
X97399786Y-59450109D01*
X97399788Y-59450106D01*
X97399792Y-59450104D01*
X97550104Y-59299792D01*
X97550106Y-59299788D01*
X97550109Y-59299786D01*
X97675048Y-59127820D01*
X97675047Y-59127820D01*
X97675051Y-59127816D01*
X97771557Y-58938412D01*
X97837246Y-58736243D01*
X97870500Y-58526287D01*
X97870500Y-58313713D01*
X97837246Y-58103757D01*
X97771557Y-57901588D01*
X97675051Y-57712184D01*
X97675049Y-57712181D01*
X97675048Y-57712179D01*
X97550109Y-57540213D01*
X97436569Y-57426673D01*
X97403084Y-57365350D01*
X97408068Y-57295658D01*
X97449940Y-57239725D01*
X97480915Y-57222810D01*
X97612331Y-57173796D01*
X97727546Y-57087546D01*
X97813796Y-56972331D01*
X97864091Y-56837483D01*
X97870500Y-56777873D01*
X97870499Y-54982128D01*
X97864091Y-54922517D01*
X97813796Y-54787669D01*
X97813795Y-54787668D01*
X97813793Y-54787664D01*
X97727547Y-54672455D01*
X97727544Y-54672452D01*
X97612335Y-54586206D01*
X97612328Y-54586202D01*
X97477482Y-54535908D01*
X97477483Y-54535908D01*
X97417883Y-54529501D01*
X97417881Y-54529500D01*
X97417873Y-54529500D01*
X97417864Y-54529500D01*
X95622129Y-54529500D01*
X95622123Y-54529501D01*
X95562516Y-54535908D01*
X95427671Y-54586202D01*
X95427664Y-54586206D01*
X95312455Y-54672452D01*
X95312452Y-54672455D01*
X95226206Y-54787664D01*
X95226202Y-54787671D01*
X95175908Y-54922517D01*
X95169501Y-54982116D01*
X95169501Y-54982123D01*
X95169500Y-54982135D01*
X82292031Y-54982135D01*
X82159792Y-54849896D01*
X82159786Y-54849890D01*
X81987820Y-54724951D01*
X81987115Y-54724591D01*
X81979054Y-54720485D01*
X81928259Y-54672512D01*
X81911463Y-54604692D01*
X81933999Y-54538556D01*
X81979054Y-54499515D01*
X81987816Y-54495051D01*
X82009789Y-54479086D01*
X82159786Y-54370109D01*
X82159788Y-54370106D01*
X82159792Y-54370104D01*
X82310104Y-54219792D01*
X82310106Y-54219788D01*
X82310109Y-54219786D01*
X82435048Y-54047820D01*
X82435047Y-54047820D01*
X82435051Y-54047816D01*
X82531557Y-53858412D01*
X82597246Y-53656243D01*
X82630500Y-53446287D01*
X82630500Y-53233713D01*
X82597246Y-53023757D01*
X82531557Y-52821588D01*
X82435051Y-52632184D01*
X82435049Y-52632181D01*
X82435048Y-52632179D01*
X82310109Y-52460213D01*
X82159786Y-52309890D01*
X81987820Y-52184951D01*
X81987115Y-52184591D01*
X81979054Y-52180485D01*
X81928259Y-52132512D01*
X81911463Y-52064692D01*
X81933999Y-51998556D01*
X81979054Y-51959515D01*
X81987816Y-51955051D01*
X82009789Y-51939086D01*
X82159786Y-51830109D01*
X82159788Y-51830106D01*
X82159792Y-51830104D01*
X82310104Y-51679792D01*
X82310106Y-51679788D01*
X82310109Y-51679786D01*
X82435048Y-51507820D01*
X82435047Y-51507820D01*
X82435051Y-51507816D01*
X82531557Y-51318412D01*
X82597246Y-51116243D01*
X82630500Y-50906287D01*
X82630500Y-50693713D01*
X82597246Y-50483757D01*
X82531557Y-50281588D01*
X82435051Y-50092184D01*
X82435049Y-50092181D01*
X82435048Y-50092179D01*
X82310109Y-49920213D01*
X82196569Y-49806673D01*
X82163084Y-49745350D01*
X82168068Y-49675658D01*
X82209940Y-49619725D01*
X82240915Y-49602810D01*
X82372331Y-49553796D01*
X82487546Y-49467546D01*
X82573796Y-49352331D01*
X82624091Y-49217483D01*
X82630500Y-49157873D01*
X82630499Y-47362128D01*
X82624091Y-47302517D01*
X82573796Y-47167669D01*
X82573795Y-47167668D01*
X82573793Y-47167664D01*
X82487547Y-47052455D01*
X82487544Y-47052452D01*
X82372335Y-46966206D01*
X82372328Y-46966202D01*
X82237482Y-46915908D01*
X82237483Y-46915908D01*
X82177883Y-46909501D01*
X82177881Y-46909500D01*
X82177873Y-46909500D01*
X82177864Y-46909500D01*
X80382129Y-46909500D01*
X80382123Y-46909501D01*
X80322516Y-46915908D01*
X80187671Y-46966202D01*
X80187664Y-46966206D01*
X80072455Y-47052452D01*
X80072452Y-47052455D01*
X79986206Y-47167664D01*
X79986202Y-47167671D01*
X79935908Y-47302517D01*
X79929501Y-47362116D01*
X79929501Y-47362123D01*
X79929500Y-47362135D01*
X79929500Y-49157870D01*
X79929501Y-49157876D01*
X79935908Y-49217483D01*
X79986202Y-49352328D01*
X79986206Y-49352335D01*
X80072452Y-49467544D01*
X80072455Y-49467547D01*
X80187664Y-49553793D01*
X80187671Y-49553797D01*
X80319082Y-49602810D01*
X80375016Y-49644681D01*
X80399433Y-49710145D01*
X80384582Y-49778418D01*
X80363431Y-49806673D01*
X80249889Y-49920215D01*
X80124951Y-50092179D01*
X80028444Y-50281585D01*
X79962753Y-50483760D01*
X79929500Y-50693713D01*
X79929500Y-50906286D01*
X79962753Y-51116239D01*
X80028444Y-51318414D01*
X80124951Y-51507820D01*
X80249890Y-51679786D01*
X80400213Y-51830109D01*
X80572182Y-51955050D01*
X80580946Y-51959516D01*
X80631742Y-52007491D01*
X80648536Y-52075312D01*
X80625998Y-52141447D01*
X80580946Y-52180484D01*
X80572182Y-52184949D01*
X80400213Y-52309890D01*
X80249890Y-52460213D01*
X80124951Y-52632179D01*
X80028444Y-52821585D01*
X79962753Y-53023760D01*
X79929500Y-53233713D01*
X79929500Y-53446286D01*
X79962753Y-53656239D01*
X80028444Y-53858414D01*
X80124951Y-54047820D01*
X80249890Y-54219786D01*
X80400213Y-54370109D01*
X80572182Y-54495050D01*
X80580946Y-54499516D01*
X80631742Y-54547491D01*
X80648536Y-54615312D01*
X80625998Y-54681447D01*
X80580946Y-54720484D01*
X80572182Y-54724949D01*
X80400213Y-54849890D01*
X80249890Y-55000213D01*
X80124951Y-55172179D01*
X80028444Y-55361585D01*
X79962753Y-55563760D01*
X79929500Y-55773713D01*
X79929500Y-55986286D01*
X79962753Y-56196239D01*
X80028444Y-56398414D01*
X80124951Y-56587820D01*
X80249890Y-56759786D01*
X80400213Y-56910109D01*
X80572182Y-57035050D01*
X80580946Y-57039516D01*
X80631742Y-57087491D01*
X80648536Y-57155312D01*
X80625998Y-57221447D01*
X80580946Y-57260484D01*
X80572182Y-57264949D01*
X80400213Y-57389890D01*
X80249890Y-57540213D01*
X80124951Y-57712179D01*
X80028444Y-57901585D01*
X79962753Y-58103760D01*
X79929500Y-58313713D01*
X79929500Y-58526286D01*
X79962753Y-58736239D01*
X80028444Y-58938414D01*
X80124951Y-59127820D01*
X80249890Y-59299786D01*
X80400213Y-59450109D01*
X80572179Y-59575048D01*
X80572181Y-59575049D01*
X80572184Y-59575051D01*
X80581493Y-59579794D01*
X80632290Y-59627766D01*
X80649087Y-59695587D01*
X80626552Y-59761722D01*
X80581505Y-59800760D01*
X80572446Y-59805376D01*
X80572440Y-59805380D01*
X80518282Y-59844727D01*
X80518282Y-59844728D01*
X81150591Y-60477037D01*
X81087007Y-60494075D01*
X80972993Y-60559901D01*
X80879901Y-60652993D01*
X80814075Y-60767007D01*
X80797037Y-60830591D01*
X80164728Y-60198282D01*
X80164727Y-60198282D01*
X80125380Y-60252439D01*
X80028904Y-60441782D01*
X79963242Y-60643869D01*
X79963242Y-60643872D01*
X79930000Y-60853753D01*
X79930000Y-61066246D01*
X79963242Y-61276127D01*
X79963242Y-61276130D01*
X80028904Y-61478217D01*
X80125375Y-61667550D01*
X80164728Y-61721716D01*
X80797037Y-61089408D01*
X80814075Y-61152993D01*
X80879901Y-61267007D01*
X80972993Y-61360099D01*
X81087007Y-61425925D01*
X81150590Y-61442962D01*
X80518282Y-62075269D01*
X80518282Y-62075270D01*
X80572452Y-62114626D01*
X80572451Y-62114626D01*
X80581495Y-62119234D01*
X80632292Y-62167208D01*
X80649087Y-62235029D01*
X80626550Y-62301164D01*
X80581499Y-62340202D01*
X80572182Y-62344949D01*
X80400213Y-62469890D01*
X80249890Y-62620213D01*
X80124951Y-62792179D01*
X80028444Y-62981585D01*
X79962753Y-63183760D01*
X79929500Y-63393713D01*
X79929500Y-63606286D01*
X79962753Y-63816239D01*
X80028444Y-64018414D01*
X80124951Y-64207820D01*
X80249890Y-64379786D01*
X80400213Y-64530109D01*
X80572182Y-64655050D01*
X80580946Y-64659516D01*
X80631742Y-64707491D01*
X80648536Y-64775312D01*
X80625998Y-64841447D01*
X80580946Y-64880484D01*
X80572182Y-64884949D01*
X80400213Y-65009890D01*
X80249890Y-65160213D01*
X80124951Y-65332179D01*
X80028444Y-65521585D01*
X79962753Y-65723760D01*
X79929500Y-65933713D01*
X79929500Y-66146286D01*
X79962753Y-66356239D01*
X80028444Y-66558414D01*
X80124951Y-66747820D01*
X80249890Y-66919786D01*
X80400213Y-67070109D01*
X80572182Y-67195050D01*
X80580946Y-67199516D01*
X80631742Y-67247491D01*
X80648536Y-67315312D01*
X80625998Y-67381447D01*
X80580946Y-67420484D01*
X80572182Y-67424949D01*
X80400213Y-67549890D01*
X80249890Y-67700213D01*
X80124951Y-67872179D01*
X80028444Y-68061585D01*
X79962753Y-68263760D01*
X79929500Y-68473713D01*
X79929500Y-68686286D01*
X79962753Y-68896239D01*
X80028444Y-69098414D01*
X80124951Y-69287820D01*
X80249890Y-69459786D01*
X80400213Y-69610109D01*
X80572179Y-69735048D01*
X80572181Y-69735049D01*
X80572184Y-69735051D01*
X80761588Y-69831557D01*
X80963757Y-69897246D01*
X81173713Y-69930500D01*
X81173714Y-69930500D01*
X81386286Y-69930500D01*
X81386287Y-69930500D01*
X81596243Y-69897246D01*
X81798412Y-69831557D01*
X81987816Y-69735051D01*
X82042572Y-69695269D01*
X82159786Y-69610109D01*
X82159788Y-69610106D01*
X82159792Y-69610104D01*
X82310104Y-69459792D01*
X82310106Y-69459788D01*
X82310109Y-69459786D01*
X82435048Y-69287820D01*
X82435047Y-69287820D01*
X82435051Y-69287816D01*
X82531557Y-69098412D01*
X82597246Y-68896243D01*
X82630500Y-68686287D01*
X82630500Y-68473713D01*
X82597246Y-68263757D01*
X82531557Y-68061588D01*
X82435051Y-67872184D01*
X82435049Y-67872181D01*
X82435048Y-67872179D01*
X82310109Y-67700213D01*
X82159786Y-67549890D01*
X81987820Y-67424951D01*
X81979600Y-67420763D01*
X81979054Y-67420485D01*
X81928259Y-67372512D01*
X81911463Y-67304692D01*
X81933999Y-67238556D01*
X81979054Y-67199515D01*
X81987816Y-67195051D01*
X82009789Y-67179086D01*
X82159786Y-67070109D01*
X82159788Y-67070106D01*
X82159792Y-67070104D01*
X82310104Y-66919792D01*
X82310106Y-66919788D01*
X82310109Y-66919786D01*
X82435048Y-66747820D01*
X82435047Y-66747820D01*
X82435051Y-66747816D01*
X82531557Y-66558412D01*
X82597246Y-66356243D01*
X82630500Y-66146287D01*
X82630500Y-65933713D01*
X82597246Y-65723757D01*
X82531557Y-65521588D01*
X82435051Y-65332184D01*
X82435049Y-65332181D01*
X82435048Y-65332179D01*
X82310109Y-65160213D01*
X82159786Y-65009890D01*
X81987820Y-64884951D01*
X81987115Y-64884591D01*
X81979054Y-64880485D01*
X81928259Y-64832512D01*
X81911463Y-64764692D01*
X81933999Y-64698556D01*
X81979054Y-64659515D01*
X81987816Y-64655051D01*
X82009789Y-64639086D01*
X82159786Y-64530109D01*
X82159788Y-64530106D01*
X82159792Y-64530104D01*
X82272077Y-64417819D01*
X82333400Y-64384334D01*
X82359758Y-64381500D01*
X82583508Y-64381500D01*
X82650547Y-64401185D01*
X82671189Y-64417819D01*
X84032181Y-65778810D01*
X84065666Y-65840133D01*
X84068500Y-65866491D01*
X84068500Y-73933508D01*
X84048815Y-74000547D01*
X84032181Y-74021189D01*
X82771189Y-75282181D01*
X82709866Y-75315666D01*
X82683508Y-75318500D01*
X77279758Y-75318500D01*
X77212719Y-75298815D01*
X77192077Y-75282181D01*
X77079786Y-75169890D01*
X76907820Y-75044951D01*
X76899600Y-75040763D01*
X76899054Y-75040485D01*
X76848259Y-74992512D01*
X76831463Y-74924692D01*
X76853999Y-74858556D01*
X76899054Y-74819515D01*
X76907816Y-74815051D01*
X76973206Y-74767543D01*
X77079786Y-74690109D01*
X77079788Y-74690106D01*
X77079792Y-74690104D01*
X77230104Y-74539792D01*
X77230106Y-74539788D01*
X77230109Y-74539786D01*
X77355048Y-74367820D01*
X77355047Y-74367820D01*
X77355051Y-74367816D01*
X77451557Y-74178412D01*
X77517246Y-73976243D01*
X77550500Y-73766287D01*
X77550500Y-73553713D01*
X77517246Y-73343757D01*
X77451557Y-73141588D01*
X77355051Y-72952184D01*
X77355049Y-72952181D01*
X77355048Y-72952179D01*
X77230109Y-72780213D01*
X77079786Y-72629890D01*
X76907820Y-72504951D01*
X76907115Y-72504591D01*
X76899054Y-72500485D01*
X76848259Y-72452512D01*
X76831463Y-72384692D01*
X76853999Y-72318556D01*
X76899054Y-72279515D01*
X76907816Y-72275051D01*
X76929789Y-72259086D01*
X77079786Y-72150109D01*
X77079788Y-72150106D01*
X77079792Y-72150104D01*
X77230104Y-71999792D01*
X77230106Y-71999788D01*
X77230109Y-71999786D01*
X77355048Y-71827820D01*
X77355047Y-71827820D01*
X77355051Y-71827816D01*
X77451557Y-71638412D01*
X77517246Y-71436243D01*
X77550500Y-71226287D01*
X77550500Y-71013713D01*
X77517246Y-70803757D01*
X77451557Y-70601588D01*
X77355051Y-70412184D01*
X77355049Y-70412181D01*
X77355048Y-70412179D01*
X77230109Y-70240213D01*
X77079786Y-70089890D01*
X76907820Y-69964951D01*
X76907115Y-69964591D01*
X76899054Y-69960485D01*
X76848259Y-69912512D01*
X76831463Y-69844692D01*
X76853999Y-69778556D01*
X76899054Y-69739515D01*
X76907816Y-69735051D01*
X76962572Y-69695269D01*
X77079786Y-69610109D01*
X77079788Y-69610106D01*
X77079792Y-69610104D01*
X77230104Y-69459792D01*
X77230106Y-69459788D01*
X77230109Y-69459786D01*
X77355048Y-69287820D01*
X77355047Y-69287820D01*
X77355051Y-69287816D01*
X77451557Y-69098412D01*
X77517246Y-68896243D01*
X77550500Y-68686287D01*
X77550500Y-68473713D01*
X77517246Y-68263757D01*
X77451557Y-68061588D01*
X77355051Y-67872184D01*
X77355049Y-67872181D01*
X77355048Y-67872179D01*
X77230109Y-67700213D01*
X77079786Y-67549890D01*
X76907820Y-67424951D01*
X76899600Y-67420763D01*
X76899054Y-67420485D01*
X76848259Y-67372512D01*
X76831463Y-67304692D01*
X76853999Y-67238556D01*
X76899054Y-67199515D01*
X76907816Y-67195051D01*
X76929789Y-67179086D01*
X77079786Y-67070109D01*
X77079788Y-67070106D01*
X77079792Y-67070104D01*
X77230104Y-66919792D01*
X77230106Y-66919788D01*
X77230109Y-66919786D01*
X77355048Y-66747820D01*
X77355047Y-66747820D01*
X77355051Y-66747816D01*
X77451557Y-66558412D01*
X77517246Y-66356243D01*
X77550500Y-66146287D01*
X77550500Y-65933713D01*
X77517246Y-65723757D01*
X77451557Y-65521588D01*
X77355051Y-65332184D01*
X77355049Y-65332181D01*
X77355048Y-65332179D01*
X77230109Y-65160213D01*
X77079786Y-65009890D01*
X76907820Y-64884951D01*
X76907115Y-64884591D01*
X76899054Y-64880485D01*
X76848259Y-64832512D01*
X76831463Y-64764692D01*
X76853999Y-64698556D01*
X76899054Y-64659515D01*
X76907816Y-64655051D01*
X76929789Y-64639086D01*
X77079786Y-64530109D01*
X77079788Y-64530106D01*
X77079792Y-64530104D01*
X77230104Y-64379792D01*
X77230106Y-64379788D01*
X77230109Y-64379786D01*
X77355048Y-64207820D01*
X77355047Y-64207820D01*
X77355051Y-64207816D01*
X77451557Y-64018412D01*
X77517246Y-63816243D01*
X77550500Y-63606287D01*
X77550500Y-63393713D01*
X77517246Y-63183757D01*
X77451557Y-62981588D01*
X77355051Y-62792184D01*
X77355049Y-62792181D01*
X77355048Y-62792179D01*
X77230109Y-62620213D01*
X77079786Y-62469890D01*
X76907820Y-62344951D01*
X76907115Y-62344591D01*
X76899054Y-62340485D01*
X76848259Y-62292512D01*
X76831463Y-62224692D01*
X76853999Y-62158556D01*
X76899054Y-62119515D01*
X76907816Y-62115051D01*
X76962572Y-62075269D01*
X77079786Y-61990109D01*
X77079788Y-61990106D01*
X77079792Y-61990104D01*
X77230104Y-61839792D01*
X77230106Y-61839788D01*
X77230109Y-61839786D01*
X77355048Y-61667820D01*
X77355047Y-61667820D01*
X77355051Y-61667816D01*
X77451557Y-61478412D01*
X77517246Y-61276243D01*
X77550500Y-61066287D01*
X77550500Y-60853713D01*
X77517246Y-60643757D01*
X77451557Y-60441588D01*
X77355051Y-60252184D01*
X77355049Y-60252181D01*
X77355048Y-60252179D01*
X77230109Y-60080213D01*
X77079786Y-59929890D01*
X76907820Y-59804951D01*
X76899600Y-59800763D01*
X76899054Y-59800485D01*
X76848259Y-59752512D01*
X76831463Y-59684692D01*
X76853999Y-59618556D01*
X76899054Y-59579515D01*
X76907816Y-59575051D01*
X76929789Y-59559086D01*
X77079786Y-59450109D01*
X77079788Y-59450106D01*
X77079792Y-59450104D01*
X77230104Y-59299792D01*
X77230106Y-59299788D01*
X77230109Y-59299786D01*
X77355048Y-59127820D01*
X77355047Y-59127820D01*
X77355051Y-59127816D01*
X77451557Y-58938412D01*
X77517246Y-58736243D01*
X77550500Y-58526287D01*
X77550500Y-58313713D01*
X77517246Y-58103757D01*
X77451557Y-57901588D01*
X77355051Y-57712184D01*
X77355049Y-57712181D01*
X77355048Y-57712179D01*
X77230109Y-57540213D01*
X77079786Y-57389890D01*
X76907820Y-57264951D01*
X76907115Y-57264591D01*
X76899054Y-57260485D01*
X76848259Y-57212512D01*
X76831463Y-57144692D01*
X76853999Y-57078556D01*
X76899054Y-57039515D01*
X76907816Y-57035051D01*
X76994138Y-56972335D01*
X77079786Y-56910109D01*
X77079788Y-56910106D01*
X77079792Y-56910104D01*
X77230104Y-56759792D01*
X77230106Y-56759788D01*
X77230109Y-56759786D01*
X77355048Y-56587820D01*
X77355047Y-56587820D01*
X77355051Y-56587816D01*
X77451557Y-56398412D01*
X77517246Y-56196243D01*
X77550500Y-55986287D01*
X77550500Y-55773713D01*
X77517246Y-55563757D01*
X77451557Y-55361588D01*
X77355051Y-55172184D01*
X77355049Y-55172181D01*
X77355048Y-55172179D01*
X77230109Y-55000213D01*
X77079786Y-54849890D01*
X76907820Y-54724951D01*
X76907115Y-54724591D01*
X76899054Y-54720485D01*
X76848259Y-54672512D01*
X76831463Y-54604692D01*
X76853999Y-54538556D01*
X76899054Y-54499515D01*
X76907816Y-54495051D01*
X76929789Y-54479086D01*
X77079786Y-54370109D01*
X77079788Y-54370106D01*
X77079792Y-54370104D01*
X77230104Y-54219792D01*
X77230106Y-54219788D01*
X77230109Y-54219786D01*
X77355048Y-54047820D01*
X77355047Y-54047820D01*
X77355051Y-54047816D01*
X77451557Y-53858412D01*
X77517246Y-53656243D01*
X77550500Y-53446287D01*
X77550500Y-53233713D01*
X77517246Y-53023757D01*
X77451557Y-52821588D01*
X77355051Y-52632184D01*
X77355049Y-52632181D01*
X77355048Y-52632179D01*
X77230109Y-52460213D01*
X77079786Y-52309890D01*
X76907820Y-52184951D01*
X76907115Y-52184591D01*
X76899054Y-52180485D01*
X76848259Y-52132512D01*
X76831463Y-52064692D01*
X76853999Y-51998556D01*
X76899054Y-51959515D01*
X76907816Y-51955051D01*
X76929789Y-51939086D01*
X77079786Y-51830109D01*
X77079788Y-51830106D01*
X77079792Y-51830104D01*
X77230104Y-51679792D01*
X77230106Y-51679788D01*
X77230109Y-51679786D01*
X77355048Y-51507820D01*
X77355047Y-51507820D01*
X77355051Y-51507816D01*
X77451557Y-51318412D01*
X77517246Y-51116243D01*
X77550500Y-50906287D01*
X77550500Y-50693713D01*
X77517246Y-50483757D01*
X77451557Y-50281588D01*
X77355051Y-50092184D01*
X77355049Y-50092181D01*
X77355048Y-50092179D01*
X77230109Y-49920213D01*
X77079786Y-49769890D01*
X76907820Y-49644951D01*
X76907115Y-49644591D01*
X76899054Y-49640485D01*
X76848259Y-49592512D01*
X76831463Y-49524692D01*
X76853999Y-49458556D01*
X76899054Y-49419515D01*
X76907816Y-49415051D01*
X76994138Y-49352335D01*
X77079786Y-49290109D01*
X77079788Y-49290106D01*
X77079792Y-49290104D01*
X77230104Y-49139792D01*
X77230106Y-49139788D01*
X77230109Y-49139786D01*
X77355048Y-48967820D01*
X77355047Y-48967820D01*
X77355051Y-48967816D01*
X77451557Y-48778412D01*
X77517246Y-48576243D01*
X77550500Y-48366287D01*
X77550500Y-48153713D01*
X77517246Y-47943757D01*
X77451557Y-47741588D01*
X77355051Y-47552184D01*
X77230104Y-47380208D01*
X77079792Y-47229896D01*
X77079786Y-47229890D01*
X76907820Y-47104951D01*
X76907115Y-47104591D01*
X76899054Y-47100485D01*
X76848259Y-47052512D01*
X76831463Y-46984692D01*
X76853999Y-46918556D01*
X76899054Y-46879515D01*
X76907816Y-46875051D01*
X76929789Y-46859086D01*
X77079786Y-46750109D01*
X77079788Y-46750106D01*
X77079792Y-46750104D01*
X77230104Y-46599792D01*
X77230106Y-46599788D01*
X77230109Y-46599786D01*
X77355048Y-46427820D01*
X77355047Y-46427820D01*
X77355051Y-46427816D01*
X77451557Y-46238412D01*
X77517246Y-46036243D01*
X77550500Y-45826287D01*
X77550500Y-45613713D01*
X77517246Y-45403757D01*
X77451557Y-45201588D01*
X77355051Y-45012184D01*
X77355049Y-45012181D01*
X77355048Y-45012179D01*
X77230109Y-44840213D01*
X77079786Y-44689890D01*
X76907820Y-44564951D01*
X76907115Y-44564591D01*
X76899054Y-44560485D01*
X76848259Y-44512512D01*
X76831463Y-44444692D01*
X76853999Y-44378556D01*
X76899054Y-44339515D01*
X76907816Y-44335051D01*
X76929789Y-44319086D01*
X77079786Y-44210109D01*
X77079788Y-44210106D01*
X77079792Y-44210104D01*
X77230104Y-44059792D01*
X77230106Y-44059788D01*
X77230109Y-44059786D01*
X77355048Y-43887820D01*
X77355047Y-43887820D01*
X77355051Y-43887816D01*
X77451557Y-43698412D01*
X77517246Y-43496243D01*
X77550500Y-43286287D01*
X77550500Y-43073713D01*
X77517246Y-42863757D01*
X77451557Y-42661588D01*
X77355051Y-42472184D01*
X77355049Y-42472181D01*
X77355048Y-42472179D01*
X77230109Y-42300213D01*
X77079786Y-42149890D01*
X76907820Y-42024951D01*
X76907115Y-42024591D01*
X76899054Y-42020485D01*
X76848259Y-41972512D01*
X76831463Y-41904692D01*
X76853999Y-41838556D01*
X76899054Y-41799515D01*
X76907816Y-41795051D01*
X76929789Y-41779086D01*
X77079786Y-41670109D01*
X77079788Y-41670106D01*
X77079792Y-41670104D01*
X77230104Y-41519792D01*
X77230106Y-41519788D01*
X77230109Y-41519786D01*
X77355048Y-41347820D01*
X77355047Y-41347820D01*
X77355051Y-41347816D01*
X77451557Y-41158412D01*
X77517246Y-40956243D01*
X77550500Y-40746287D01*
X77550500Y-40533713D01*
X77517246Y-40323757D01*
X77451557Y-40121588D01*
X77355051Y-39932184D01*
X77355049Y-39932181D01*
X77355048Y-39932179D01*
X77230109Y-39760213D01*
X77079786Y-39609890D01*
X76907820Y-39484951D01*
X76907115Y-39484591D01*
X76899054Y-39480485D01*
X76848259Y-39432512D01*
X76831463Y-39364692D01*
X76853999Y-39298556D01*
X76899054Y-39259515D01*
X76907816Y-39255051D01*
X76929789Y-39239086D01*
X77079786Y-39130109D01*
X77079788Y-39130106D01*
X77079792Y-39130104D01*
X77230104Y-38979792D01*
X77230106Y-38979788D01*
X77230109Y-38979786D01*
X77355048Y-38807820D01*
X77355047Y-38807820D01*
X77355051Y-38807816D01*
X77451557Y-38618412D01*
X77517246Y-38416243D01*
X77550500Y-38206287D01*
X77550500Y-37993713D01*
X77517246Y-37783757D01*
X77451557Y-37581588D01*
X77355051Y-37392184D01*
X77355049Y-37392181D01*
X77355048Y-37392179D01*
X77230109Y-37220213D01*
X77079786Y-37069890D01*
X76907820Y-36944951D01*
X76907115Y-36944591D01*
X76899054Y-36940485D01*
X76848259Y-36892512D01*
X76831463Y-36824692D01*
X76853999Y-36758556D01*
X76899054Y-36719515D01*
X76907816Y-36715051D01*
X76929789Y-36699086D01*
X77079786Y-36590109D01*
X77079788Y-36590106D01*
X77079792Y-36590104D01*
X77230104Y-36439792D01*
X77230106Y-36439788D01*
X77230109Y-36439786D01*
X77355048Y-36267820D01*
X77355047Y-36267820D01*
X77355051Y-36267816D01*
X77451557Y-36078412D01*
X77517246Y-35876243D01*
X77550500Y-35666287D01*
X77550500Y-35453713D01*
X77517246Y-35243757D01*
X77451557Y-35041588D01*
X77355051Y-34852184D01*
X77355049Y-34852181D01*
X77355048Y-34852179D01*
X77230109Y-34680213D01*
X77079786Y-34529890D01*
X76907820Y-34404951D01*
X76907115Y-34404591D01*
X76899054Y-34400485D01*
X76848259Y-34352512D01*
X76831463Y-34284692D01*
X76853999Y-34218556D01*
X76899054Y-34179515D01*
X76907816Y-34175051D01*
X76929789Y-34159086D01*
X77079786Y-34050109D01*
X77079788Y-34050106D01*
X77079792Y-34050104D01*
X77230104Y-33899792D01*
X77230106Y-33899788D01*
X77230109Y-33899786D01*
X77355048Y-33727820D01*
X77355047Y-33727820D01*
X77355051Y-33727816D01*
X77451557Y-33538412D01*
X77517246Y-33336243D01*
X77550500Y-33126287D01*
X77550500Y-32913713D01*
X77517246Y-32703757D01*
X77451557Y-32501588D01*
X77355051Y-32312184D01*
X77355049Y-32312181D01*
X77355048Y-32312179D01*
X77230109Y-32140213D01*
X77079786Y-31989890D01*
X76907820Y-31864951D01*
X76907115Y-31864591D01*
X76899054Y-31860485D01*
X76848259Y-31812512D01*
X76831463Y-31744692D01*
X76853999Y-31678556D01*
X76899054Y-31639515D01*
X76907816Y-31635051D01*
X76929789Y-31619086D01*
X77079786Y-31510109D01*
X77079788Y-31510106D01*
X77079792Y-31510104D01*
X77230104Y-31359792D01*
X77230106Y-31359788D01*
X77230109Y-31359786D01*
X77355048Y-31187820D01*
X77355047Y-31187820D01*
X77355051Y-31187816D01*
X77451557Y-30998412D01*
X77517246Y-30796243D01*
X77550500Y-30586287D01*
X77550500Y-30373713D01*
X77517246Y-30163757D01*
X77451557Y-29961588D01*
X77355051Y-29772184D01*
X77355049Y-29772181D01*
X77355048Y-29772179D01*
X77230109Y-29600213D01*
X77079786Y-29449890D01*
X76907820Y-29324951D01*
X76907115Y-29324591D01*
X76899054Y-29320485D01*
X76848259Y-29272512D01*
X76831463Y-29204692D01*
X76853999Y-29138556D01*
X76899054Y-29099515D01*
X76907816Y-29095051D01*
X76929789Y-29079086D01*
X77079786Y-28970109D01*
X77079788Y-28970106D01*
X77079792Y-28970104D01*
X77230104Y-28819792D01*
X77230106Y-28819788D01*
X77230109Y-28819786D01*
X77355048Y-28647820D01*
X77355047Y-28647820D01*
X77355051Y-28647816D01*
X77451557Y-28458412D01*
X77517246Y-28256243D01*
X77550500Y-28046287D01*
X77550500Y-27833713D01*
X100249500Y-27833713D01*
X100249500Y-28046286D01*
X100282753Y-28256239D01*
X100348444Y-28458414D01*
X100444951Y-28647820D01*
X100569890Y-28819786D01*
X100720213Y-28970109D01*
X100892182Y-29095050D01*
X100900946Y-29099516D01*
X100951742Y-29147491D01*
X100968536Y-29215312D01*
X100945998Y-29281447D01*
X100900946Y-29320484D01*
X100892182Y-29324949D01*
X100720213Y-29449890D01*
X100569890Y-29600213D01*
X100444951Y-29772179D01*
X100348444Y-29961585D01*
X100282753Y-30163760D01*
X100249500Y-30373713D01*
X100249500Y-30586286D01*
X100282753Y-30796239D01*
X100348444Y-30998414D01*
X100444951Y-31187820D01*
X100569890Y-31359786D01*
X100720213Y-31510109D01*
X100892182Y-31635050D01*
X100900946Y-31639516D01*
X100951742Y-31687491D01*
X100968536Y-31755312D01*
X100945998Y-31821447D01*
X100900946Y-31860484D01*
X100892182Y-31864949D01*
X100720213Y-31989890D01*
X100569890Y-32140213D01*
X100444951Y-32312179D01*
X100348444Y-32501585D01*
X100282753Y-32703760D01*
X100249500Y-32913713D01*
X100249500Y-33126286D01*
X100282753Y-33336239D01*
X100348444Y-33538414D01*
X100444951Y-33727820D01*
X100569890Y-33899786D01*
X100720213Y-34050109D01*
X100892182Y-34175050D01*
X100900946Y-34179516D01*
X100951742Y-34227491D01*
X100968536Y-34295312D01*
X100945998Y-34361447D01*
X100900946Y-34400484D01*
X100892182Y-34404949D01*
X100720213Y-34529890D01*
X100569890Y-34680213D01*
X100444951Y-34852179D01*
X100348444Y-35041585D01*
X100282753Y-35243760D01*
X100249500Y-35453713D01*
X100249500Y-35666286D01*
X100282753Y-35876239D01*
X100348444Y-36078414D01*
X100444951Y-36267820D01*
X100569890Y-36439786D01*
X100720213Y-36590109D01*
X100892182Y-36715050D01*
X100900946Y-36719516D01*
X100951742Y-36767491D01*
X100968536Y-36835312D01*
X100945998Y-36901447D01*
X100900946Y-36940484D01*
X100892182Y-36944949D01*
X100720213Y-37069890D01*
X100569890Y-37220213D01*
X100444951Y-37392179D01*
X100348444Y-37581585D01*
X100282753Y-37783760D01*
X100249500Y-37993713D01*
X100249500Y-38206286D01*
X100282753Y-38416239D01*
X100348444Y-38618414D01*
X100444951Y-38807820D01*
X100569890Y-38979786D01*
X100720213Y-39130109D01*
X100892182Y-39255050D01*
X100900946Y-39259516D01*
X100951742Y-39307491D01*
X100968536Y-39375312D01*
X100945998Y-39441447D01*
X100900946Y-39480484D01*
X100892182Y-39484949D01*
X100720213Y-39609890D01*
X100569890Y-39760213D01*
X100444951Y-39932179D01*
X100348444Y-40121585D01*
X100282753Y-40323760D01*
X100249500Y-40533713D01*
X100249500Y-40746286D01*
X100282753Y-40956239D01*
X100348444Y-41158414D01*
X100444951Y-41347820D01*
X100569890Y-41519786D01*
X100720213Y-41670109D01*
X100892182Y-41795050D01*
X100900946Y-41799516D01*
X100951742Y-41847491D01*
X100968536Y-41915312D01*
X100945998Y-41981447D01*
X100900946Y-42020484D01*
X100892182Y-42024949D01*
X100720213Y-42149890D01*
X100569890Y-42300213D01*
X100444951Y-42472179D01*
X100348444Y-42661585D01*
X100282753Y-42863760D01*
X100249500Y-43073713D01*
X100249500Y-43286286D01*
X100282753Y-43496239D01*
X100348444Y-43698414D01*
X100444951Y-43887820D01*
X100569890Y-44059786D01*
X100720213Y-44210109D01*
X100892182Y-44335050D01*
X100900946Y-44339516D01*
X100951742Y-44387491D01*
X100968536Y-44455312D01*
X100945998Y-44521447D01*
X100900946Y-44560484D01*
X100892182Y-44564949D01*
X100720213Y-44689890D01*
X100569890Y-44840213D01*
X100444951Y-45012179D01*
X100348444Y-45201585D01*
X100282753Y-45403760D01*
X100249500Y-45613713D01*
X100249500Y-45826286D01*
X100282753Y-46036239D01*
X100348444Y-46238414D01*
X100444951Y-46427820D01*
X100569890Y-46599786D01*
X100720213Y-46750109D01*
X100892182Y-46875050D01*
X100900946Y-46879516D01*
X100951742Y-46927491D01*
X100968536Y-46995312D01*
X100945998Y-47061447D01*
X100900946Y-47100484D01*
X100892182Y-47104949D01*
X100720213Y-47229890D01*
X100569890Y-47380213D01*
X100444951Y-47552179D01*
X100348444Y-47741585D01*
X100282753Y-47943760D01*
X100249500Y-48153713D01*
X100249500Y-48366286D01*
X100282753Y-48576239D01*
X100348444Y-48778414D01*
X100444951Y-48967820D01*
X100569890Y-49139786D01*
X100720213Y-49290109D01*
X100892182Y-49415050D01*
X100900946Y-49419516D01*
X100951742Y-49467491D01*
X100968536Y-49535312D01*
X100945998Y-49601447D01*
X100900946Y-49640484D01*
X100892182Y-49644949D01*
X100720213Y-49769890D01*
X100569890Y-49920213D01*
X100444951Y-50092179D01*
X100348444Y-50281585D01*
X100282753Y-50483760D01*
X100249500Y-50693713D01*
X100249500Y-50906286D01*
X100282753Y-51116239D01*
X100348444Y-51318414D01*
X100444951Y-51507820D01*
X100569890Y-51679786D01*
X100720213Y-51830109D01*
X100892182Y-51955050D01*
X100900946Y-51959516D01*
X100951742Y-52007491D01*
X100968536Y-52075312D01*
X100945998Y-52141447D01*
X100900946Y-52180484D01*
X100892182Y-52184949D01*
X100720213Y-52309890D01*
X100569890Y-52460213D01*
X100444951Y-52632179D01*
X100348444Y-52821585D01*
X100282753Y-53023760D01*
X100249500Y-53233713D01*
X100249500Y-53446286D01*
X100282753Y-53656239D01*
X100348444Y-53858414D01*
X100444951Y-54047820D01*
X100569890Y-54219786D01*
X100720213Y-54370109D01*
X100892182Y-54495050D01*
X100900946Y-54499516D01*
X100951742Y-54547491D01*
X100968536Y-54615312D01*
X100945998Y-54681447D01*
X100900946Y-54720484D01*
X100892182Y-54724949D01*
X100720213Y-54849890D01*
X100569890Y-55000213D01*
X100444951Y-55172179D01*
X100348444Y-55361585D01*
X100282753Y-55563760D01*
X100249500Y-55773713D01*
X100249500Y-55986286D01*
X100282753Y-56196239D01*
X100348444Y-56398414D01*
X100444951Y-56587820D01*
X100569890Y-56759786D01*
X100720213Y-56910109D01*
X100892182Y-57035050D01*
X100900946Y-57039516D01*
X100951742Y-57087491D01*
X100968536Y-57155312D01*
X100945998Y-57221447D01*
X100900946Y-57260484D01*
X100892182Y-57264949D01*
X100720213Y-57389890D01*
X100569890Y-57540213D01*
X100444951Y-57712179D01*
X100348444Y-57901585D01*
X100282753Y-58103760D01*
X100249500Y-58313713D01*
X100249500Y-58526286D01*
X100282753Y-58736239D01*
X100348444Y-58938414D01*
X100444951Y-59127820D01*
X100569890Y-59299786D01*
X100720213Y-59450109D01*
X100892182Y-59575050D01*
X100900946Y-59579516D01*
X100951742Y-59627491D01*
X100968536Y-59695312D01*
X100945998Y-59761447D01*
X100900946Y-59800484D01*
X100892182Y-59804949D01*
X100720213Y-59929890D01*
X100569890Y-60080213D01*
X100444951Y-60252179D01*
X100348444Y-60441585D01*
X100282753Y-60643760D01*
X100249500Y-60853713D01*
X100249500Y-61066286D01*
X100282753Y-61276239D01*
X100348444Y-61478414D01*
X100444951Y-61667820D01*
X100569890Y-61839786D01*
X100720213Y-61990109D01*
X100892182Y-62115050D01*
X100900946Y-62119516D01*
X100951742Y-62167491D01*
X100968536Y-62235312D01*
X100945998Y-62301447D01*
X100900946Y-62340484D01*
X100892182Y-62344949D01*
X100720213Y-62469890D01*
X100569890Y-62620213D01*
X100444951Y-62792179D01*
X100348444Y-62981585D01*
X100282753Y-63183760D01*
X100249500Y-63393713D01*
X100249500Y-63606286D01*
X100282753Y-63816239D01*
X100348444Y-64018414D01*
X100444951Y-64207820D01*
X100569890Y-64379786D01*
X100720213Y-64530109D01*
X100892182Y-64655050D01*
X100900946Y-64659516D01*
X100951742Y-64707491D01*
X100968536Y-64775312D01*
X100945998Y-64841447D01*
X100900946Y-64880484D01*
X100892182Y-64884949D01*
X100720213Y-65009890D01*
X100569890Y-65160213D01*
X100444951Y-65332179D01*
X100348444Y-65521585D01*
X100282753Y-65723760D01*
X100249500Y-65933713D01*
X100249500Y-66146286D01*
X100282753Y-66356239D01*
X100348444Y-66558414D01*
X100444951Y-66747820D01*
X100569890Y-66919786D01*
X100720213Y-67070109D01*
X100892182Y-67195050D01*
X100900946Y-67199516D01*
X100951742Y-67247491D01*
X100968536Y-67315312D01*
X100945998Y-67381447D01*
X100900946Y-67420484D01*
X100892182Y-67424949D01*
X100720213Y-67549890D01*
X100569890Y-67700213D01*
X100444951Y-67872179D01*
X100348444Y-68061585D01*
X100282753Y-68263760D01*
X100249500Y-68473713D01*
X100249500Y-68686286D01*
X100282753Y-68896239D01*
X100348444Y-69098414D01*
X100444951Y-69287820D01*
X100569890Y-69459786D01*
X100720213Y-69610109D01*
X100892182Y-69735050D01*
X100900946Y-69739516D01*
X100951742Y-69787491D01*
X100968536Y-69855312D01*
X100945998Y-69921447D01*
X100900946Y-69960484D01*
X100892182Y-69964949D01*
X100720213Y-70089890D01*
X100569890Y-70240213D01*
X100444951Y-70412179D01*
X100348444Y-70601585D01*
X100282753Y-70803760D01*
X100249500Y-71013713D01*
X100249500Y-71226286D01*
X100282753Y-71436239D01*
X100348444Y-71638414D01*
X100444951Y-71827820D01*
X100569890Y-71999786D01*
X100720213Y-72150109D01*
X100892182Y-72275050D01*
X100900946Y-72279516D01*
X100951742Y-72327491D01*
X100968536Y-72395312D01*
X100945998Y-72461447D01*
X100900946Y-72500484D01*
X100892182Y-72504949D01*
X100720213Y-72629890D01*
X100569890Y-72780213D01*
X100444951Y-72952179D01*
X100348444Y-73141585D01*
X100282753Y-73343760D01*
X100249500Y-73553713D01*
X100249500Y-73766286D01*
X100282753Y-73976239D01*
X100348444Y-74178414D01*
X100444951Y-74367820D01*
X100569890Y-74539786D01*
X100720213Y-74690109D01*
X100892179Y-74815048D01*
X100892181Y-74815049D01*
X100892184Y-74815051D01*
X100901493Y-74819794D01*
X100952290Y-74867766D01*
X100969087Y-74935587D01*
X100946552Y-75001722D01*
X100901505Y-75040760D01*
X100892446Y-75045376D01*
X100892440Y-75045380D01*
X100838282Y-75084727D01*
X100838282Y-75084728D01*
X101470591Y-75717037D01*
X101407007Y-75734075D01*
X101292993Y-75799901D01*
X101199901Y-75892993D01*
X101134075Y-76007007D01*
X101117037Y-76070591D01*
X100484728Y-75438282D01*
X100484727Y-75438282D01*
X100445380Y-75492439D01*
X100348904Y-75681782D01*
X100283242Y-75883869D01*
X100283242Y-75883872D01*
X100250000Y-76093753D01*
X100250000Y-76306246D01*
X100283242Y-76516127D01*
X100283242Y-76516130D01*
X100348904Y-76718217D01*
X100445375Y-76907550D01*
X100484728Y-76961716D01*
X101117037Y-76329408D01*
X101134075Y-76392993D01*
X101199901Y-76507007D01*
X101292993Y-76600099D01*
X101407007Y-76665925D01*
X101470590Y-76682962D01*
X100838282Y-77315269D01*
X100838282Y-77315270D01*
X100892452Y-77354626D01*
X100902048Y-77359516D01*
X100952844Y-77407491D01*
X100969638Y-77475312D01*
X100947100Y-77541447D01*
X100902051Y-77580483D01*
X100892440Y-77585380D01*
X100838282Y-77624727D01*
X100838282Y-77624728D01*
X101470591Y-78257037D01*
X101407007Y-78274075D01*
X101292993Y-78339901D01*
X101199901Y-78432993D01*
X101134075Y-78547007D01*
X101117037Y-78610591D01*
X100484728Y-77978282D01*
X100484727Y-77978282D01*
X100445380Y-78032439D01*
X100348904Y-78221782D01*
X100283242Y-78423869D01*
X100283242Y-78423872D01*
X100250000Y-78633753D01*
X100250000Y-78846246D01*
X100283242Y-79056127D01*
X100283242Y-79056130D01*
X100348904Y-79258217D01*
X100445375Y-79447550D01*
X100484728Y-79501716D01*
X101117037Y-78869408D01*
X101134075Y-78932993D01*
X101199901Y-79047007D01*
X101292993Y-79140099D01*
X101407007Y-79205925D01*
X101470590Y-79222962D01*
X100838282Y-79855269D01*
X100838282Y-79855270D01*
X100892449Y-79894624D01*
X101081782Y-79991095D01*
X101283870Y-80056757D01*
X101493754Y-80090000D01*
X101706246Y-80090000D01*
X101916127Y-80056757D01*
X101916130Y-80056757D01*
X102118217Y-79991095D01*
X102307554Y-79894622D01*
X102361716Y-79855270D01*
X102361717Y-79855270D01*
X101729408Y-79222962D01*
X101792993Y-79205925D01*
X101907007Y-79140099D01*
X102000099Y-79047007D01*
X102065925Y-78932993D01*
X102082962Y-78869409D01*
X102715270Y-79501717D01*
X102715270Y-79501716D01*
X102754622Y-79447554D01*
X102851095Y-79258217D01*
X102916757Y-79056130D01*
X102916757Y-79056127D01*
X102950000Y-78846246D01*
X102950000Y-78633753D01*
X102916757Y-78423872D01*
X102916757Y-78423869D01*
X102851095Y-78221782D01*
X102754624Y-78032449D01*
X102715270Y-77978282D01*
X102715269Y-77978282D01*
X102082962Y-78610590D01*
X102065925Y-78547007D01*
X102000099Y-78432993D01*
X101907007Y-78339901D01*
X101792993Y-78274075D01*
X101729409Y-78257037D01*
X102361716Y-77624728D01*
X102307550Y-77585375D01*
X102297954Y-77580486D01*
X102247157Y-77532512D01*
X102230361Y-77464692D01*
X102252897Y-77398556D01*
X102297954Y-77359514D01*
X102307554Y-77354622D01*
X102361716Y-77315270D01*
X102361717Y-77315270D01*
X101729408Y-76682962D01*
X101792993Y-76665925D01*
X101907007Y-76600099D01*
X102000099Y-76507007D01*
X102065925Y-76392993D01*
X102082962Y-76329409D01*
X102715270Y-76961717D01*
X102715270Y-76961716D01*
X102754622Y-76907554D01*
X102851095Y-76718217D01*
X102916757Y-76516130D01*
X102916757Y-76516127D01*
X102950000Y-76306246D01*
X102950000Y-76093753D01*
X102916757Y-75883872D01*
X102916757Y-75883869D01*
X102851095Y-75681782D01*
X102754624Y-75492449D01*
X102715270Y-75438282D01*
X102715269Y-75438282D01*
X102082962Y-76070590D01*
X102065925Y-76007007D01*
X102000099Y-75892993D01*
X101907007Y-75799901D01*
X101792993Y-75734075D01*
X101729409Y-75717037D01*
X102361716Y-75084728D01*
X102307547Y-75045373D01*
X102307547Y-75045372D01*
X102298500Y-75040763D01*
X102247706Y-74992788D01*
X102230912Y-74924966D01*
X102253451Y-74858832D01*
X102298508Y-74819793D01*
X102307816Y-74815051D01*
X102387007Y-74757515D01*
X102479786Y-74690109D01*
X102479788Y-74690106D01*
X102479792Y-74690104D01*
X102630104Y-74539792D01*
X102630106Y-74539788D01*
X102630109Y-74539786D01*
X102755048Y-74367820D01*
X102755047Y-74367820D01*
X102755051Y-74367816D01*
X102851557Y-74178412D01*
X102917246Y-73976243D01*
X102950500Y-73766287D01*
X102950500Y-73553713D01*
X102917246Y-73343757D01*
X102851557Y-73141588D01*
X102755051Y-72952184D01*
X102755049Y-72952181D01*
X102755048Y-72952179D01*
X102630109Y-72780213D01*
X102479786Y-72629890D01*
X102307820Y-72504951D01*
X102307115Y-72504591D01*
X102299054Y-72500485D01*
X102248259Y-72452512D01*
X102231463Y-72384692D01*
X102253999Y-72318556D01*
X102299054Y-72279515D01*
X102307816Y-72275051D01*
X102329789Y-72259086D01*
X102479786Y-72150109D01*
X102479788Y-72150106D01*
X102479792Y-72150104D01*
X102630104Y-71999792D01*
X102630106Y-71999788D01*
X102630109Y-71999786D01*
X102755048Y-71827820D01*
X102755047Y-71827820D01*
X102755051Y-71827816D01*
X102851557Y-71638412D01*
X102917246Y-71436243D01*
X102950500Y-71226287D01*
X102950500Y-71013713D01*
X102917246Y-70803757D01*
X102851557Y-70601588D01*
X102755051Y-70412184D01*
X102755049Y-70412181D01*
X102755048Y-70412179D01*
X102630109Y-70240213D01*
X102479786Y-70089890D01*
X102307820Y-69964951D01*
X102307115Y-69964591D01*
X102299054Y-69960485D01*
X102248259Y-69912512D01*
X102231463Y-69844692D01*
X102253999Y-69778556D01*
X102299054Y-69739515D01*
X102307816Y-69735051D01*
X102362572Y-69695269D01*
X102479786Y-69610109D01*
X102479788Y-69610106D01*
X102479792Y-69610104D01*
X102630104Y-69459792D01*
X102630106Y-69459788D01*
X102630109Y-69459786D01*
X102755048Y-69287820D01*
X102755047Y-69287820D01*
X102755051Y-69287816D01*
X102851557Y-69098412D01*
X102917246Y-68896243D01*
X102950500Y-68686287D01*
X102950500Y-68473713D01*
X102917246Y-68263757D01*
X102851557Y-68061588D01*
X102755051Y-67872184D01*
X102755049Y-67872181D01*
X102755048Y-67872179D01*
X102630109Y-67700213D01*
X102479786Y-67549890D01*
X102307820Y-67424951D01*
X102299600Y-67420763D01*
X102299054Y-67420485D01*
X102248259Y-67372512D01*
X102231463Y-67304692D01*
X102253999Y-67238556D01*
X102299054Y-67199515D01*
X102307816Y-67195051D01*
X102329789Y-67179086D01*
X102479786Y-67070109D01*
X102479788Y-67070106D01*
X102479792Y-67070104D01*
X102630104Y-66919792D01*
X102630106Y-66919788D01*
X102630109Y-66919786D01*
X102755048Y-66747820D01*
X102755047Y-66747820D01*
X102755051Y-66747816D01*
X102851557Y-66558412D01*
X102917246Y-66356243D01*
X102950500Y-66146287D01*
X102950500Y-65933713D01*
X102917246Y-65723757D01*
X102851557Y-65521588D01*
X102755051Y-65332184D01*
X102755049Y-65332181D01*
X102755048Y-65332179D01*
X102630109Y-65160213D01*
X102479786Y-65009890D01*
X102307820Y-64884951D01*
X102307115Y-64884591D01*
X102299054Y-64880485D01*
X102248259Y-64832512D01*
X102231463Y-64764692D01*
X102253999Y-64698556D01*
X102299054Y-64659515D01*
X102307816Y-64655051D01*
X102329789Y-64639086D01*
X102479786Y-64530109D01*
X102479788Y-64530106D01*
X102479792Y-64530104D01*
X102630104Y-64379792D01*
X102630106Y-64379788D01*
X102630109Y-64379786D01*
X102755048Y-64207820D01*
X102755047Y-64207820D01*
X102755051Y-64207816D01*
X102851557Y-64018412D01*
X102917246Y-63816243D01*
X102950500Y-63606287D01*
X102950500Y-63393713D01*
X102917246Y-63183757D01*
X102851557Y-62981588D01*
X102755051Y-62792184D01*
X102755049Y-62792181D01*
X102755048Y-62792179D01*
X102630109Y-62620213D01*
X102479786Y-62469890D01*
X102307820Y-62344951D01*
X102307115Y-62344591D01*
X102299054Y-62340485D01*
X102248259Y-62292512D01*
X102231463Y-62224692D01*
X102253999Y-62158556D01*
X102299054Y-62119515D01*
X102307816Y-62115051D01*
X102362572Y-62075269D01*
X102479786Y-61990109D01*
X102479788Y-61990106D01*
X102479792Y-61990104D01*
X102630104Y-61839792D01*
X102630106Y-61839788D01*
X102630109Y-61839786D01*
X102755048Y-61667820D01*
X102755047Y-61667820D01*
X102755051Y-61667816D01*
X102851557Y-61478412D01*
X102917246Y-61276243D01*
X102950500Y-61066287D01*
X102950500Y-60853713D01*
X102917246Y-60643757D01*
X102851557Y-60441588D01*
X102755051Y-60252184D01*
X102755049Y-60252181D01*
X102755048Y-60252179D01*
X102630109Y-60080213D01*
X102479786Y-59929890D01*
X102307820Y-59804951D01*
X102299600Y-59800763D01*
X102299054Y-59800485D01*
X102248259Y-59752512D01*
X102231463Y-59684692D01*
X102253999Y-59618556D01*
X102299054Y-59579515D01*
X102307816Y-59575051D01*
X102329789Y-59559086D01*
X102479786Y-59450109D01*
X102479788Y-59450106D01*
X102479792Y-59450104D01*
X102630104Y-59299792D01*
X102630106Y-59299788D01*
X102630109Y-59299786D01*
X102755048Y-59127820D01*
X102755047Y-59127820D01*
X102755051Y-59127816D01*
X102851557Y-58938412D01*
X102917246Y-58736243D01*
X102950500Y-58526287D01*
X102950500Y-58313713D01*
X102917246Y-58103757D01*
X102851557Y-57901588D01*
X102755051Y-57712184D01*
X102755049Y-57712181D01*
X102755048Y-57712179D01*
X102630109Y-57540213D01*
X102479786Y-57389890D01*
X102307820Y-57264951D01*
X102307115Y-57264591D01*
X102299054Y-57260485D01*
X102248259Y-57212512D01*
X102231463Y-57144692D01*
X102253999Y-57078556D01*
X102299054Y-57039515D01*
X102307816Y-57035051D01*
X102394138Y-56972335D01*
X102479786Y-56910109D01*
X102479788Y-56910106D01*
X102479792Y-56910104D01*
X102630104Y-56759792D01*
X102630106Y-56759788D01*
X102630109Y-56759786D01*
X102755048Y-56587820D01*
X102755047Y-56587820D01*
X102755051Y-56587816D01*
X102851557Y-56398412D01*
X102917246Y-56196243D01*
X102950500Y-55986287D01*
X102950500Y-55773713D01*
X102917246Y-55563757D01*
X102851557Y-55361588D01*
X102755051Y-55172184D01*
X102755049Y-55172181D01*
X102755048Y-55172179D01*
X102630109Y-55000213D01*
X102479786Y-54849890D01*
X102307820Y-54724951D01*
X102307115Y-54724591D01*
X102299054Y-54720485D01*
X102248259Y-54672512D01*
X102231463Y-54604692D01*
X102253999Y-54538556D01*
X102299054Y-54499515D01*
X102307816Y-54495051D01*
X102329789Y-54479086D01*
X102479786Y-54370109D01*
X102479788Y-54370106D01*
X102479792Y-54370104D01*
X102630104Y-54219792D01*
X102630106Y-54219788D01*
X102630109Y-54219786D01*
X102755048Y-54047820D01*
X102755047Y-54047820D01*
X102755051Y-54047816D01*
X102851557Y-53858412D01*
X102917246Y-53656243D01*
X102950500Y-53446287D01*
X102950500Y-53233713D01*
X102917246Y-53023757D01*
X102851557Y-52821588D01*
X102755051Y-52632184D01*
X102755049Y-52632181D01*
X102755048Y-52632179D01*
X102630109Y-52460213D01*
X102479786Y-52309890D01*
X102307820Y-52184951D01*
X102307115Y-52184591D01*
X102299054Y-52180485D01*
X102248259Y-52132512D01*
X102231463Y-52064692D01*
X102253999Y-51998556D01*
X102299054Y-51959515D01*
X102307816Y-51955051D01*
X102329789Y-51939086D01*
X102479786Y-51830109D01*
X102479788Y-51830106D01*
X102479792Y-51830104D01*
X102630104Y-51679792D01*
X102630106Y-51679788D01*
X102630109Y-51679786D01*
X102755048Y-51507820D01*
X102755047Y-51507820D01*
X102755051Y-51507816D01*
X102851557Y-51318412D01*
X102917246Y-51116243D01*
X102950500Y-50906287D01*
X102950500Y-50693713D01*
X102917246Y-50483757D01*
X102851557Y-50281588D01*
X102755051Y-50092184D01*
X102755049Y-50092181D01*
X102755048Y-50092179D01*
X102630109Y-49920213D01*
X102479786Y-49769890D01*
X102307820Y-49644951D01*
X102307115Y-49644591D01*
X102299054Y-49640485D01*
X102248259Y-49592512D01*
X102231463Y-49524692D01*
X102253999Y-49458556D01*
X102299054Y-49419515D01*
X102307816Y-49415051D01*
X102394138Y-49352335D01*
X102479786Y-49290109D01*
X102479788Y-49290106D01*
X102479792Y-49290104D01*
X102630104Y-49139792D01*
X102630106Y-49139788D01*
X102630109Y-49139786D01*
X102755048Y-48967820D01*
X102755047Y-48967820D01*
X102755051Y-48967816D01*
X102851557Y-48778412D01*
X102917246Y-48576243D01*
X102950500Y-48366287D01*
X102950500Y-48153713D01*
X102917246Y-47943757D01*
X102851557Y-47741588D01*
X102755051Y-47552184D01*
X102755049Y-47552181D01*
X102755048Y-47552179D01*
X102630109Y-47380213D01*
X102479786Y-47229890D01*
X102307820Y-47104951D01*
X102307115Y-47104591D01*
X102299054Y-47100485D01*
X102248259Y-47052512D01*
X102231463Y-46984692D01*
X102253999Y-46918556D01*
X102299054Y-46879515D01*
X102307816Y-46875051D01*
X102329789Y-46859086D01*
X102479786Y-46750109D01*
X102479788Y-46750106D01*
X102479792Y-46750104D01*
X102630104Y-46599792D01*
X102630106Y-46599788D01*
X102630109Y-46599786D01*
X102755048Y-46427820D01*
X102755047Y-46427820D01*
X102755051Y-46427816D01*
X102851557Y-46238412D01*
X102917246Y-46036243D01*
X102950500Y-45826287D01*
X102950500Y-45613713D01*
X102917246Y-45403757D01*
X102851557Y-45201588D01*
X102755051Y-45012184D01*
X102755049Y-45012181D01*
X102755048Y-45012179D01*
X102630109Y-44840213D01*
X102479786Y-44689890D01*
X102307820Y-44564951D01*
X102307115Y-44564591D01*
X102299054Y-44560485D01*
X102248259Y-44512512D01*
X102231463Y-44444692D01*
X102253999Y-44378556D01*
X102299054Y-44339515D01*
X102307816Y-44335051D01*
X102329789Y-44319086D01*
X102479786Y-44210109D01*
X102479788Y-44210106D01*
X102479792Y-44210104D01*
X102630104Y-44059792D01*
X102630106Y-44059788D01*
X102630109Y-44059786D01*
X102755048Y-43887820D01*
X102755047Y-43887820D01*
X102755051Y-43887816D01*
X102851557Y-43698412D01*
X102917246Y-43496243D01*
X102950500Y-43286287D01*
X102950500Y-43073713D01*
X102917246Y-42863757D01*
X102851557Y-42661588D01*
X102755051Y-42472184D01*
X102755049Y-42472181D01*
X102755048Y-42472179D01*
X102630109Y-42300213D01*
X102479786Y-42149890D01*
X102307820Y-42024951D01*
X102307115Y-42024591D01*
X102299054Y-42020485D01*
X102248259Y-41972512D01*
X102231463Y-41904692D01*
X102253999Y-41838556D01*
X102299054Y-41799515D01*
X102307816Y-41795051D01*
X102329789Y-41779086D01*
X102479786Y-41670109D01*
X102479788Y-41670106D01*
X102479792Y-41670104D01*
X102630104Y-41519792D01*
X102630106Y-41519788D01*
X102630109Y-41519786D01*
X102755048Y-41347820D01*
X102755047Y-41347820D01*
X102755051Y-41347816D01*
X102851557Y-41158412D01*
X102917246Y-40956243D01*
X102950500Y-40746287D01*
X102950500Y-40533713D01*
X102917246Y-40323757D01*
X102851557Y-40121588D01*
X102755051Y-39932184D01*
X102755049Y-39932181D01*
X102755048Y-39932179D01*
X102630109Y-39760213D01*
X102479786Y-39609890D01*
X102307820Y-39484951D01*
X102307115Y-39484591D01*
X102299054Y-39480485D01*
X102248259Y-39432512D01*
X102231463Y-39364692D01*
X102253999Y-39298556D01*
X102299054Y-39259515D01*
X102307816Y-39255051D01*
X102329789Y-39239086D01*
X102479786Y-39130109D01*
X102479788Y-39130106D01*
X102479792Y-39130104D01*
X102630104Y-38979792D01*
X102630106Y-38979788D01*
X102630109Y-38979786D01*
X102755048Y-38807820D01*
X102755047Y-38807820D01*
X102755051Y-38807816D01*
X102851557Y-38618412D01*
X102917246Y-38416243D01*
X102950500Y-38206287D01*
X102950500Y-37993713D01*
X102917246Y-37783757D01*
X102851557Y-37581588D01*
X102755051Y-37392184D01*
X102755049Y-37392181D01*
X102755048Y-37392179D01*
X102630109Y-37220213D01*
X102479786Y-37069890D01*
X102307820Y-36944951D01*
X102307115Y-36944591D01*
X102299054Y-36940485D01*
X102248259Y-36892512D01*
X102231463Y-36824692D01*
X102253999Y-36758556D01*
X102299054Y-36719515D01*
X102307816Y-36715051D01*
X102329789Y-36699086D01*
X102479786Y-36590109D01*
X102479788Y-36590106D01*
X102479792Y-36590104D01*
X102630104Y-36439792D01*
X102630106Y-36439788D01*
X102630109Y-36439786D01*
X102755048Y-36267820D01*
X102755047Y-36267820D01*
X102755051Y-36267816D01*
X102851557Y-36078412D01*
X102917246Y-35876243D01*
X102950500Y-35666287D01*
X102950500Y-35453713D01*
X102917246Y-35243757D01*
X102851557Y-35041588D01*
X102755051Y-34852184D01*
X102755049Y-34852181D01*
X102755048Y-34852179D01*
X102630109Y-34680213D01*
X102479786Y-34529890D01*
X102307820Y-34404951D01*
X102307115Y-34404591D01*
X102299054Y-34400485D01*
X102248259Y-34352512D01*
X102231463Y-34284692D01*
X102253999Y-34218556D01*
X102299054Y-34179515D01*
X102307816Y-34175051D01*
X102329789Y-34159086D01*
X102479786Y-34050109D01*
X102479788Y-34050106D01*
X102479792Y-34050104D01*
X102630104Y-33899792D01*
X102630106Y-33899788D01*
X102630109Y-33899786D01*
X102755048Y-33727820D01*
X102755047Y-33727820D01*
X102755051Y-33727816D01*
X102851557Y-33538412D01*
X102917246Y-33336243D01*
X102950500Y-33126287D01*
X102950500Y-32913713D01*
X102917246Y-32703757D01*
X102851557Y-32501588D01*
X102755051Y-32312184D01*
X102755049Y-32312181D01*
X102755048Y-32312179D01*
X102630109Y-32140213D01*
X102479786Y-31989890D01*
X102307820Y-31864951D01*
X102307115Y-31864591D01*
X102299054Y-31860485D01*
X102248259Y-31812512D01*
X102231463Y-31744692D01*
X102253999Y-31678556D01*
X102299054Y-31639515D01*
X102307816Y-31635051D01*
X102329789Y-31619086D01*
X102479786Y-31510109D01*
X102479788Y-31510106D01*
X102479792Y-31510104D01*
X102630104Y-31359792D01*
X102630106Y-31359788D01*
X102630109Y-31359786D01*
X102755048Y-31187820D01*
X102755047Y-31187820D01*
X102755051Y-31187816D01*
X102851557Y-30998412D01*
X102917246Y-30796243D01*
X102950500Y-30586287D01*
X102950500Y-30373713D01*
X102917246Y-30163757D01*
X102851557Y-29961588D01*
X102755051Y-29772184D01*
X102755049Y-29772181D01*
X102755048Y-29772179D01*
X102630109Y-29600213D01*
X102479786Y-29449890D01*
X102307820Y-29324951D01*
X102307115Y-29324591D01*
X102299054Y-29320485D01*
X102248259Y-29272512D01*
X102231463Y-29204692D01*
X102253999Y-29138556D01*
X102299054Y-29099515D01*
X102307816Y-29095051D01*
X102329789Y-29079086D01*
X102479786Y-28970109D01*
X102479788Y-28970106D01*
X102479792Y-28970104D01*
X102630104Y-28819792D01*
X102630106Y-28819788D01*
X102630109Y-28819786D01*
X102755048Y-28647820D01*
X102755047Y-28647820D01*
X102755051Y-28647816D01*
X102851557Y-28458412D01*
X102917246Y-28256243D01*
X102950500Y-28046287D01*
X102950500Y-27833713D01*
X102917246Y-27623757D01*
X102851557Y-27421588D01*
X102755051Y-27232184D01*
X102755049Y-27232181D01*
X102755048Y-27232179D01*
X102630109Y-27060213D01*
X102516181Y-26946285D01*
X102482696Y-26884962D01*
X102487680Y-26815270D01*
X102529552Y-26759337D01*
X102560529Y-26742422D01*
X102692086Y-26693354D01*
X102692093Y-26693350D01*
X102807187Y-26607190D01*
X102807190Y-26607187D01*
X102893350Y-26492093D01*
X102893354Y-26492086D01*
X102943596Y-26357379D01*
X102943598Y-26357372D01*
X102949999Y-26297844D01*
X102950000Y-26297827D01*
X102950000Y-25650000D01*
X102033012Y-25650000D01*
X102065925Y-25592993D01*
X102100000Y-25465826D01*
X102100000Y-25334174D01*
X102065925Y-25207007D01*
X102033012Y-25150000D01*
X102950000Y-25150000D01*
X102950000Y-24502172D01*
X102949999Y-24502155D01*
X102943598Y-24442627D01*
X102943596Y-24442620D01*
X102893354Y-24307913D01*
X102893350Y-24307906D01*
X102807190Y-24192812D01*
X102807187Y-24192809D01*
X102692093Y-24106649D01*
X102692086Y-24106645D01*
X102557379Y-24056403D01*
X102557372Y-24056401D01*
X102497844Y-24050000D01*
X101850000Y-24050000D01*
X101850000Y-24966988D01*
X101792993Y-24934075D01*
X101665826Y-24900000D01*
X101534174Y-24900000D01*
X101407007Y-24934075D01*
X101350000Y-24966988D01*
X101350000Y-24050000D01*
X100702155Y-24050000D01*
X100642627Y-24056401D01*
X100642620Y-24056403D01*
X100507913Y-24106645D01*
X100507906Y-24106649D01*
X100392812Y-24192809D01*
X100392809Y-24192812D01*
X100306649Y-24307906D01*
X100306645Y-24307913D01*
X100256403Y-24442620D01*
X100256401Y-24442627D01*
X100250000Y-24502155D01*
X100250000Y-25150000D01*
X101166988Y-25150000D01*
X101134075Y-25207007D01*
X101100000Y-25334174D01*
X101100000Y-25465826D01*
X101134075Y-25592993D01*
X101166988Y-25650000D01*
X100250000Y-25650000D01*
X100250000Y-26297844D01*
X100256401Y-26357372D01*
X100256403Y-26357379D01*
X100306645Y-26492086D01*
X100306649Y-26492093D01*
X100392809Y-26607187D01*
X100392812Y-26607190D01*
X100507906Y-26693350D01*
X100507913Y-26693354D01*
X100639470Y-26742422D01*
X100695404Y-26784293D01*
X100719821Y-26849758D01*
X100704969Y-26918031D01*
X100683819Y-26946285D01*
X100569889Y-27060215D01*
X100444951Y-27232179D01*
X100348444Y-27421585D01*
X100282753Y-27623760D01*
X100249500Y-27833713D01*
X77550500Y-27833713D01*
X77517246Y-27623757D01*
X77451557Y-27421588D01*
X77355051Y-27232184D01*
X77355049Y-27232181D01*
X77355048Y-27232179D01*
X77230109Y-27060213D01*
X77116569Y-26946673D01*
X77083084Y-26885350D01*
X77088068Y-26815658D01*
X77129940Y-26759725D01*
X77160915Y-26742810D01*
X77292331Y-26693796D01*
X77407546Y-26607546D01*
X77493796Y-26492331D01*
X77544091Y-26357483D01*
X77550500Y-26297873D01*
X77550499Y-24502128D01*
X77544091Y-24442517D01*
X77493884Y-24307906D01*
X77493797Y-24307671D01*
X77493793Y-24307664D01*
X77407547Y-24192455D01*
X77407544Y-24192452D01*
X77292335Y-24106206D01*
X77292328Y-24106202D01*
X77157482Y-24055908D01*
X77157483Y-24055908D01*
X77097883Y-24049501D01*
X77097881Y-24049500D01*
X77097873Y-24049500D01*
X77097864Y-24049500D01*
X75302129Y-24049500D01*
X75302123Y-24049501D01*
X75242516Y-24055908D01*
X75107671Y-24106202D01*
X75107664Y-24106206D01*
X74992455Y-24192452D01*
X74992452Y-24192455D01*
X74906206Y-24307664D01*
X74906202Y-24307671D01*
X74855908Y-24442517D01*
X74849501Y-24502116D01*
X74849501Y-24502123D01*
X74849500Y-24502135D01*
X74500500Y-24502135D01*
X74500500Y-23624500D01*
X74520185Y-23557461D01*
X74572989Y-23511706D01*
X74624500Y-23500500D01*
X103325500Y-23500500D01*
X103392539Y-23520185D01*
G37*
%TD.AperFunction*%
%TD*%
M02*
