%TF.GenerationSoftware,KiCad,Pcbnew,10.0.5-10.0.5~ubuntu24.04.1*%
%TF.CreationDate,2026-08-25T15:18:28+02:00*%
%TF.ProjectId,stamps3_adapter,7374616d-7073-4335-9f61-646170746572,rev?*%
%TF.SameCoordinates,Original*%
%TF.FileFunction,Legend,Top*%
%TF.FilePolarity,Positive*%
%FSLAX46Y46*%
G04 Gerber Fmt 4.6, Leading zero omitted, Abs format (unit mm)*
G04 Created by KiCad (PCBNEW 10.0.5-10.0.5~ubuntu24.04.1) date 2026-08-25 15:18:28*
%MOMM*%
%LPD*%
G01*
G04 APERTURE LIST*
%ADD10C,0.200000*%
%ADD11C,0.250000*%
%ADD12C,0.150000*%
%ADD13C,0.300000*%
%ADD14C,0.120000*%
%ADD15C,0.000000*%
G04 APERTURE END LIST*
D10*
X84959047Y-29084442D02*
X85140476Y-29144918D01*
X85140476Y-29144918D02*
X85442857Y-29144918D01*
X85442857Y-29144918D02*
X85563809Y-29084442D01*
X85563809Y-29084442D02*
X85624285Y-29023965D01*
X85624285Y-29023965D02*
X85684762Y-28903013D01*
X85684762Y-28903013D02*
X85684762Y-28782061D01*
X85684762Y-28782061D02*
X85624285Y-28661108D01*
X85624285Y-28661108D02*
X85563809Y-28600632D01*
X85563809Y-28600632D02*
X85442857Y-28540156D01*
X85442857Y-28540156D02*
X85200952Y-28479680D01*
X85200952Y-28479680D02*
X85080000Y-28419203D01*
X85080000Y-28419203D02*
X85019523Y-28358727D01*
X85019523Y-28358727D02*
X84959047Y-28237775D01*
X84959047Y-28237775D02*
X84959047Y-28116822D01*
X84959047Y-28116822D02*
X85019523Y-27995870D01*
X85019523Y-27995870D02*
X85080000Y-27935394D01*
X85080000Y-27935394D02*
X85200952Y-27874918D01*
X85200952Y-27874918D02*
X85503333Y-27874918D01*
X85503333Y-27874918D02*
X85684762Y-27935394D01*
X86047619Y-28298251D02*
X86531428Y-28298251D01*
X86229047Y-27874918D02*
X86229047Y-28963489D01*
X86229047Y-28963489D02*
X86289524Y-29084442D01*
X86289524Y-29084442D02*
X86410476Y-29144918D01*
X86410476Y-29144918D02*
X86531428Y-29144918D01*
X87499047Y-29144918D02*
X87499047Y-28479680D01*
X87499047Y-28479680D02*
X87438571Y-28358727D01*
X87438571Y-28358727D02*
X87317619Y-28298251D01*
X87317619Y-28298251D02*
X87075714Y-28298251D01*
X87075714Y-28298251D02*
X86954761Y-28358727D01*
X87499047Y-29084442D02*
X87378095Y-29144918D01*
X87378095Y-29144918D02*
X87075714Y-29144918D01*
X87075714Y-29144918D02*
X86954761Y-29084442D01*
X86954761Y-29084442D02*
X86894285Y-28963489D01*
X86894285Y-28963489D02*
X86894285Y-28842537D01*
X86894285Y-28842537D02*
X86954761Y-28721584D01*
X86954761Y-28721584D02*
X87075714Y-28661108D01*
X87075714Y-28661108D02*
X87378095Y-28661108D01*
X87378095Y-28661108D02*
X87499047Y-28600632D01*
X88103809Y-29144918D02*
X88103809Y-28298251D01*
X88103809Y-28419203D02*
X88164286Y-28358727D01*
X88164286Y-28358727D02*
X88285238Y-28298251D01*
X88285238Y-28298251D02*
X88466667Y-28298251D01*
X88466667Y-28298251D02*
X88587619Y-28358727D01*
X88587619Y-28358727D02*
X88648095Y-28479680D01*
X88648095Y-28479680D02*
X88648095Y-29144918D01*
X88648095Y-28479680D02*
X88708571Y-28358727D01*
X88708571Y-28358727D02*
X88829524Y-28298251D01*
X88829524Y-28298251D02*
X89010952Y-28298251D01*
X89010952Y-28298251D02*
X89131905Y-28358727D01*
X89131905Y-28358727D02*
X89192381Y-28479680D01*
X89192381Y-28479680D02*
X89192381Y-29144918D01*
X89797142Y-28298251D02*
X89797142Y-29568251D01*
X89797142Y-28358727D02*
X89918095Y-28298251D01*
X89918095Y-28298251D02*
X90160000Y-28298251D01*
X90160000Y-28298251D02*
X90280952Y-28358727D01*
X90280952Y-28358727D02*
X90341428Y-28419203D01*
X90341428Y-28419203D02*
X90401904Y-28540156D01*
X90401904Y-28540156D02*
X90401904Y-28903013D01*
X90401904Y-28903013D02*
X90341428Y-29023965D01*
X90341428Y-29023965D02*
X90280952Y-29084442D01*
X90280952Y-29084442D02*
X90160000Y-29144918D01*
X90160000Y-29144918D02*
X89918095Y-29144918D01*
X89918095Y-29144918D02*
X89797142Y-29084442D01*
X90885714Y-29084442D02*
X91067143Y-29144918D01*
X91067143Y-29144918D02*
X91369524Y-29144918D01*
X91369524Y-29144918D02*
X91490476Y-29084442D01*
X91490476Y-29084442D02*
X91550952Y-29023965D01*
X91550952Y-29023965D02*
X91611429Y-28903013D01*
X91611429Y-28903013D02*
X91611429Y-28782061D01*
X91611429Y-28782061D02*
X91550952Y-28661108D01*
X91550952Y-28661108D02*
X91490476Y-28600632D01*
X91490476Y-28600632D02*
X91369524Y-28540156D01*
X91369524Y-28540156D02*
X91127619Y-28479680D01*
X91127619Y-28479680D02*
X91006667Y-28419203D01*
X91006667Y-28419203D02*
X90946190Y-28358727D01*
X90946190Y-28358727D02*
X90885714Y-28237775D01*
X90885714Y-28237775D02*
X90885714Y-28116822D01*
X90885714Y-28116822D02*
X90946190Y-27995870D01*
X90946190Y-27995870D02*
X91006667Y-27935394D01*
X91006667Y-27935394D02*
X91127619Y-27874918D01*
X91127619Y-27874918D02*
X91430000Y-27874918D01*
X91430000Y-27874918D02*
X91611429Y-27935394D01*
X92034762Y-27874918D02*
X92820953Y-27874918D01*
X92820953Y-27874918D02*
X92397619Y-28358727D01*
X92397619Y-28358727D02*
X92579048Y-28358727D01*
X92579048Y-28358727D02*
X92700000Y-28419203D01*
X92700000Y-28419203D02*
X92760476Y-28479680D01*
X92760476Y-28479680D02*
X92820953Y-28600632D01*
X92820953Y-28600632D02*
X92820953Y-28903013D01*
X92820953Y-28903013D02*
X92760476Y-29023965D01*
X92760476Y-29023965D02*
X92700000Y-29084442D01*
X92700000Y-29084442D02*
X92579048Y-29144918D01*
X92579048Y-29144918D02*
X92216191Y-29144918D01*
X92216191Y-29144918D02*
X92095238Y-29084442D01*
X92095238Y-29084442D02*
X92034762Y-29023965D01*
X80241905Y-30342880D02*
X80725714Y-30342880D01*
X80423333Y-29919547D02*
X80423333Y-31008118D01*
X80423333Y-31008118D02*
X80483810Y-31129071D01*
X80483810Y-31129071D02*
X80604762Y-31189547D01*
X80604762Y-31189547D02*
X80725714Y-31189547D01*
X81330476Y-31189547D02*
X81209524Y-31129071D01*
X81209524Y-31129071D02*
X81149047Y-31068594D01*
X81149047Y-31068594D02*
X81088571Y-30947642D01*
X81088571Y-30947642D02*
X81088571Y-30584785D01*
X81088571Y-30584785D02*
X81149047Y-30463832D01*
X81149047Y-30463832D02*
X81209524Y-30403356D01*
X81209524Y-30403356D02*
X81330476Y-30342880D01*
X81330476Y-30342880D02*
X81511905Y-30342880D01*
X81511905Y-30342880D02*
X81632857Y-30403356D01*
X81632857Y-30403356D02*
X81693333Y-30463832D01*
X81693333Y-30463832D02*
X81753809Y-30584785D01*
X81753809Y-30584785D02*
X81753809Y-30947642D01*
X81753809Y-30947642D02*
X81693333Y-31068594D01*
X81693333Y-31068594D02*
X81632857Y-31129071D01*
X81632857Y-31129071D02*
X81511905Y-31189547D01*
X81511905Y-31189547D02*
X81330476Y-31189547D01*
X83689048Y-30524309D02*
X83870476Y-30584785D01*
X83870476Y-30584785D02*
X83930953Y-30645261D01*
X83930953Y-30645261D02*
X83991429Y-30766213D01*
X83991429Y-30766213D02*
X83991429Y-30947642D01*
X83991429Y-30947642D02*
X83930953Y-31068594D01*
X83930953Y-31068594D02*
X83870476Y-31129071D01*
X83870476Y-31129071D02*
X83749524Y-31189547D01*
X83749524Y-31189547D02*
X83265714Y-31189547D01*
X83265714Y-31189547D02*
X83265714Y-29919547D01*
X83265714Y-29919547D02*
X83689048Y-29919547D01*
X83689048Y-29919547D02*
X83810000Y-29980023D01*
X83810000Y-29980023D02*
X83870476Y-30040499D01*
X83870476Y-30040499D02*
X83930953Y-30161451D01*
X83930953Y-30161451D02*
X83930953Y-30282404D01*
X83930953Y-30282404D02*
X83870476Y-30403356D01*
X83870476Y-30403356D02*
X83810000Y-30463832D01*
X83810000Y-30463832D02*
X83689048Y-30524309D01*
X83689048Y-30524309D02*
X83265714Y-30524309D01*
X84535714Y-31189547D02*
X84535714Y-30342880D01*
X84535714Y-29919547D02*
X84475238Y-29980023D01*
X84475238Y-29980023D02*
X84535714Y-30040499D01*
X84535714Y-30040499D02*
X84596191Y-29980023D01*
X84596191Y-29980023D02*
X84535714Y-29919547D01*
X84535714Y-29919547D02*
X84535714Y-30040499D01*
X84959048Y-30342880D02*
X85442857Y-30342880D01*
X85140476Y-29919547D02*
X85140476Y-31008118D01*
X85140476Y-31008118D02*
X85200953Y-31129071D01*
X85200953Y-31129071D02*
X85321905Y-31189547D01*
X85321905Y-31189547D02*
X85442857Y-31189547D01*
X86833809Y-31189547D02*
X86833809Y-29919547D01*
X86833809Y-29919547D02*
X87317619Y-29919547D01*
X87317619Y-29919547D02*
X87438571Y-29980023D01*
X87438571Y-29980023D02*
X87499048Y-30040499D01*
X87499048Y-30040499D02*
X87559524Y-30161451D01*
X87559524Y-30161451D02*
X87559524Y-30342880D01*
X87559524Y-30342880D02*
X87499048Y-30463832D01*
X87499048Y-30463832D02*
X87438571Y-30524309D01*
X87438571Y-30524309D02*
X87317619Y-30584785D01*
X87317619Y-30584785D02*
X86833809Y-30584785D01*
X88103809Y-31189547D02*
X88103809Y-30342880D01*
X88103809Y-29919547D02*
X88043333Y-29980023D01*
X88043333Y-29980023D02*
X88103809Y-30040499D01*
X88103809Y-30040499D02*
X88164286Y-29980023D01*
X88164286Y-29980023D02*
X88103809Y-29919547D01*
X88103809Y-29919547D02*
X88103809Y-30040499D01*
X88708571Y-31189547D02*
X88708571Y-30342880D01*
X88708571Y-30584785D02*
X88769048Y-30463832D01*
X88769048Y-30463832D02*
X88829524Y-30403356D01*
X88829524Y-30403356D02*
X88950476Y-30342880D01*
X88950476Y-30342880D02*
X89071429Y-30342880D01*
X90039047Y-31189547D02*
X90039047Y-30524309D01*
X90039047Y-30524309D02*
X89978571Y-30403356D01*
X89978571Y-30403356D02*
X89857619Y-30342880D01*
X89857619Y-30342880D02*
X89615714Y-30342880D01*
X89615714Y-30342880D02*
X89494761Y-30403356D01*
X90039047Y-31129071D02*
X89918095Y-31189547D01*
X89918095Y-31189547D02*
X89615714Y-31189547D01*
X89615714Y-31189547D02*
X89494761Y-31129071D01*
X89494761Y-31129071D02*
X89434285Y-31008118D01*
X89434285Y-31008118D02*
X89434285Y-30887166D01*
X89434285Y-30887166D02*
X89494761Y-30766213D01*
X89494761Y-30766213D02*
X89615714Y-30705737D01*
X89615714Y-30705737D02*
X89918095Y-30705737D01*
X89918095Y-30705737D02*
X90039047Y-30645261D01*
X90462381Y-30342880D02*
X90946190Y-30342880D01*
X90643809Y-29919547D02*
X90643809Y-31008118D01*
X90643809Y-31008118D02*
X90704286Y-31129071D01*
X90704286Y-31129071D02*
X90825238Y-31189547D01*
X90825238Y-31189547D02*
X90946190Y-31189547D01*
X91853333Y-31129071D02*
X91732381Y-31189547D01*
X91732381Y-31189547D02*
X91490476Y-31189547D01*
X91490476Y-31189547D02*
X91369523Y-31129071D01*
X91369523Y-31129071D02*
X91309047Y-31008118D01*
X91309047Y-31008118D02*
X91309047Y-30524309D01*
X91309047Y-30524309D02*
X91369523Y-30403356D01*
X91369523Y-30403356D02*
X91490476Y-30342880D01*
X91490476Y-30342880D02*
X91732381Y-30342880D01*
X91732381Y-30342880D02*
X91853333Y-30403356D01*
X91853333Y-30403356D02*
X91913809Y-30524309D01*
X91913809Y-30524309D02*
X91913809Y-30645261D01*
X91913809Y-30645261D02*
X91309047Y-30766213D01*
X93425713Y-31189547D02*
X93425713Y-29919547D01*
X93425713Y-29919547D02*
X93728094Y-29919547D01*
X93728094Y-29919547D02*
X93909523Y-29980023D01*
X93909523Y-29980023D02*
X94030475Y-30100975D01*
X94030475Y-30100975D02*
X94090952Y-30221928D01*
X94090952Y-30221928D02*
X94151428Y-30463832D01*
X94151428Y-30463832D02*
X94151428Y-30645261D01*
X94151428Y-30645261D02*
X94090952Y-30887166D01*
X94090952Y-30887166D02*
X94030475Y-31008118D01*
X94030475Y-31008118D02*
X93909523Y-31129071D01*
X93909523Y-31129071D02*
X93728094Y-31189547D01*
X93728094Y-31189547D02*
X93425713Y-31189547D01*
X94877142Y-31189547D02*
X94756190Y-31129071D01*
X94756190Y-31129071D02*
X94695713Y-31068594D01*
X94695713Y-31068594D02*
X94635237Y-30947642D01*
X94635237Y-30947642D02*
X94635237Y-30584785D01*
X94635237Y-30584785D02*
X94695713Y-30463832D01*
X94695713Y-30463832D02*
X94756190Y-30403356D01*
X94756190Y-30403356D02*
X94877142Y-30342880D01*
X94877142Y-30342880D02*
X95058571Y-30342880D01*
X95058571Y-30342880D02*
X95179523Y-30403356D01*
X95179523Y-30403356D02*
X95239999Y-30463832D01*
X95239999Y-30463832D02*
X95300475Y-30584785D01*
X95300475Y-30584785D02*
X95300475Y-30947642D01*
X95300475Y-30947642D02*
X95239999Y-31068594D01*
X95239999Y-31068594D02*
X95179523Y-31129071D01*
X95179523Y-31129071D02*
X95058571Y-31189547D01*
X95058571Y-31189547D02*
X94877142Y-31189547D01*
X96389047Y-31129071D02*
X96268095Y-31189547D01*
X96268095Y-31189547D02*
X96026190Y-31189547D01*
X96026190Y-31189547D02*
X95905238Y-31129071D01*
X95905238Y-31129071D02*
X95844761Y-31068594D01*
X95844761Y-31068594D02*
X95784285Y-30947642D01*
X95784285Y-30947642D02*
X95784285Y-30584785D01*
X95784285Y-30584785D02*
X95844761Y-30463832D01*
X95844761Y-30463832D02*
X95905238Y-30403356D01*
X95905238Y-30403356D02*
X96026190Y-30342880D01*
X96026190Y-30342880D02*
X96268095Y-30342880D01*
X96268095Y-30342880D02*
X96389047Y-30403356D01*
X96933332Y-31189547D02*
X96933332Y-29919547D01*
X97054285Y-30705737D02*
X97417142Y-31189547D01*
X97417142Y-30342880D02*
X96933332Y-30826690D01*
X86954762Y-31964176D02*
X87378095Y-33234176D01*
X87378095Y-33234176D02*
X87801429Y-31964176D01*
X88890000Y-33234176D02*
X88164285Y-33234176D01*
X88527142Y-33234176D02*
X88527142Y-31964176D01*
X88527142Y-31964176D02*
X88406190Y-32145604D01*
X88406190Y-32145604D02*
X88285238Y-32266557D01*
X88285238Y-32266557D02*
X88164285Y-32327033D01*
X89434285Y-33113223D02*
X89494762Y-33173700D01*
X89494762Y-33173700D02*
X89434285Y-33234176D01*
X89434285Y-33234176D02*
X89373809Y-33173700D01*
X89373809Y-33173700D02*
X89434285Y-33113223D01*
X89434285Y-33113223D02*
X89434285Y-33234176D01*
X90280952Y-31964176D02*
X90401905Y-31964176D01*
X90401905Y-31964176D02*
X90522857Y-32024652D01*
X90522857Y-32024652D02*
X90583333Y-32085128D01*
X90583333Y-32085128D02*
X90643809Y-32206080D01*
X90643809Y-32206080D02*
X90704286Y-32447985D01*
X90704286Y-32447985D02*
X90704286Y-32750366D01*
X90704286Y-32750366D02*
X90643809Y-32992271D01*
X90643809Y-32992271D02*
X90583333Y-33113223D01*
X90583333Y-33113223D02*
X90522857Y-33173700D01*
X90522857Y-33173700D02*
X90401905Y-33234176D01*
X90401905Y-33234176D02*
X90280952Y-33234176D01*
X90280952Y-33234176D02*
X90160000Y-33173700D01*
X90160000Y-33173700D02*
X90099524Y-33113223D01*
X90099524Y-33113223D02*
X90039047Y-32992271D01*
X90039047Y-32992271D02*
X89978571Y-32750366D01*
X89978571Y-32750366D02*
X89978571Y-32447985D01*
X89978571Y-32447985D02*
X90039047Y-32206080D01*
X90039047Y-32206080D02*
X90099524Y-32085128D01*
X90099524Y-32085128D02*
X90160000Y-32024652D01*
X90160000Y-32024652D02*
X90280952Y-31964176D01*
D11*
X85200901Y-71636152D02*
X85200901Y-73692342D01*
X85200901Y-73692342D02*
X85315187Y-73934247D01*
X85315187Y-73934247D02*
X85429473Y-74055200D01*
X85429473Y-74055200D02*
X85658044Y-74176152D01*
X85658044Y-74176152D02*
X86115187Y-74176152D01*
X86115187Y-74176152D02*
X86343758Y-74055200D01*
X86343758Y-74055200D02*
X86458044Y-73934247D01*
X86458044Y-73934247D02*
X86572330Y-73692342D01*
X86572330Y-73692342D02*
X86572330Y-71636152D01*
X87600901Y-74055200D02*
X87943759Y-74176152D01*
X87943759Y-74176152D02*
X88515187Y-74176152D01*
X88515187Y-74176152D02*
X88743759Y-74055200D01*
X88743759Y-74055200D02*
X88858044Y-73934247D01*
X88858044Y-73934247D02*
X88972330Y-73692342D01*
X88972330Y-73692342D02*
X88972330Y-73450438D01*
X88972330Y-73450438D02*
X88858044Y-73208533D01*
X88858044Y-73208533D02*
X88743759Y-73087580D01*
X88743759Y-73087580D02*
X88515187Y-72966628D01*
X88515187Y-72966628D02*
X88058044Y-72845676D01*
X88058044Y-72845676D02*
X87829473Y-72724723D01*
X87829473Y-72724723D02*
X87715187Y-72603771D01*
X87715187Y-72603771D02*
X87600901Y-72361866D01*
X87600901Y-72361866D02*
X87600901Y-72119961D01*
X87600901Y-72119961D02*
X87715187Y-71878057D01*
X87715187Y-71878057D02*
X87829473Y-71757104D01*
X87829473Y-71757104D02*
X88058044Y-71636152D01*
X88058044Y-71636152D02*
X88629473Y-71636152D01*
X88629473Y-71636152D02*
X88972330Y-71757104D01*
X90800901Y-72845676D02*
X91143758Y-72966628D01*
X91143758Y-72966628D02*
X91258044Y-73087580D01*
X91258044Y-73087580D02*
X91372330Y-73329485D01*
X91372330Y-73329485D02*
X91372330Y-73692342D01*
X91372330Y-73692342D02*
X91258044Y-73934247D01*
X91258044Y-73934247D02*
X91143758Y-74055200D01*
X91143758Y-74055200D02*
X90915187Y-74176152D01*
X90915187Y-74176152D02*
X90000901Y-74176152D01*
X90000901Y-74176152D02*
X90000901Y-71636152D01*
X90000901Y-71636152D02*
X90800901Y-71636152D01*
X90800901Y-71636152D02*
X91029473Y-71757104D01*
X91029473Y-71757104D02*
X91143758Y-71878057D01*
X91143758Y-71878057D02*
X91258044Y-72119961D01*
X91258044Y-72119961D02*
X91258044Y-72361866D01*
X91258044Y-72361866D02*
X91143758Y-72603771D01*
X91143758Y-72603771D02*
X91029473Y-72724723D01*
X91029473Y-72724723D02*
X90800901Y-72845676D01*
X90800901Y-72845676D02*
X90000901Y-72845676D01*
D12*
X80946666Y-44944819D02*
X80946666Y-45659104D01*
X80946666Y-45659104D02*
X80899047Y-45801961D01*
X80899047Y-45801961D02*
X80803809Y-45897200D01*
X80803809Y-45897200D02*
X80660952Y-45944819D01*
X80660952Y-45944819D02*
X80565714Y-45944819D01*
X81327619Y-44944819D02*
X81946666Y-44944819D01*
X81946666Y-44944819D02*
X81613333Y-45325771D01*
X81613333Y-45325771D02*
X81756190Y-45325771D01*
X81756190Y-45325771D02*
X81851428Y-45373390D01*
X81851428Y-45373390D02*
X81899047Y-45421009D01*
X81899047Y-45421009D02*
X81946666Y-45516247D01*
X81946666Y-45516247D02*
X81946666Y-45754342D01*
X81946666Y-45754342D02*
X81899047Y-45849580D01*
X81899047Y-45849580D02*
X81851428Y-45897200D01*
X81851428Y-45897200D02*
X81756190Y-45944819D01*
X81756190Y-45944819D02*
X81470476Y-45944819D01*
X81470476Y-45944819D02*
X81375238Y-45897200D01*
X81375238Y-45897200D02*
X81327619Y-45849580D01*
X96186666Y-52564819D02*
X96186666Y-53279104D01*
X96186666Y-53279104D02*
X96139047Y-53421961D01*
X96139047Y-53421961D02*
X96043809Y-53517200D01*
X96043809Y-53517200D02*
X95900952Y-53564819D01*
X95900952Y-53564819D02*
X95805714Y-53564819D01*
X97091428Y-52898152D02*
X97091428Y-53564819D01*
X96853333Y-52517200D02*
X96615238Y-53231485D01*
X96615238Y-53231485D02*
X97234285Y-53231485D01*
%TO.C,G2*%
D13*
X84465000Y-65610000D02*
X93355000Y-65610000D01*
X93355000Y-70690000D01*
X84465000Y-70690000D01*
X84465000Y-65610000D01*
%TO.C,J3*%
D14*
X79950000Y-49530000D02*
X79950000Y-69910000D01*
X79950000Y-49530000D02*
X82610000Y-49530000D01*
X79950000Y-69910000D02*
X82610000Y-69910000D01*
X81280000Y-46930000D02*
X82610000Y-46930000D01*
X82610000Y-46930000D02*
X82610000Y-48260000D01*
X82610000Y-49530000D02*
X82610000Y-69910000D01*
%TO.C,J4*%
X95190000Y-57150000D02*
X95190000Y-69910000D01*
X95190000Y-57150000D02*
X97850000Y-57150000D01*
X95190000Y-69910000D02*
X97850000Y-69910000D01*
X96520000Y-54550000D02*
X97850000Y-54550000D01*
X97850000Y-54550000D02*
X97850000Y-55880000D01*
X97850000Y-57150000D02*
X97850000Y-69910000D01*
D15*
%TO.C,G1*%
G36*
X84525880Y-41832473D02*
G01*
X84521038Y-41837315D01*
X84516197Y-41832473D01*
X84521038Y-41827632D01*
X84525880Y-41832473D01*
G37*
G36*
X93328244Y-37319930D02*
G01*
X93323402Y-37324772D01*
X93318560Y-37319930D01*
X93323402Y-37315089D01*
X93328244Y-37319930D01*
G37*
G36*
X93560650Y-36748600D02*
G01*
X93555808Y-36753442D01*
X93550966Y-36748600D01*
X93555808Y-36743758D01*
X93560650Y-36748600D01*
G37*
G36*
X85516025Y-41955641D02*
G01*
X85634649Y-41958360D01*
X85634649Y-42534532D01*
X85634649Y-43110704D01*
X85516025Y-43113423D01*
X85397401Y-43116142D01*
X85397401Y-42534532D01*
X85397401Y-41952922D01*
X85516025Y-41955641D01*
G37*
G36*
X85624965Y-40898009D02*
G01*
X85624965Y-41580701D01*
X85511118Y-41583429D01*
X85397271Y-41586158D01*
X85399757Y-40900738D01*
X85402243Y-40215317D01*
X85513604Y-40215317D01*
X85624965Y-40215317D01*
X85624965Y-40898009D01*
G37*
G36*
X85629807Y-39150125D02*
G01*
X85629807Y-39842500D01*
X85513604Y-39842500D01*
X85397401Y-39842500D01*
X85397401Y-39150125D01*
X85397401Y-38457750D01*
X85513604Y-38457750D01*
X85629807Y-38457750D01*
X85629807Y-39150125D01*
G37*
G36*
X87721458Y-36482185D02*
G01*
X87721458Y-36588821D01*
X87354333Y-36588821D01*
X86987209Y-36588821D01*
X86982030Y-36552508D01*
X86980329Y-36523729D01*
X86981032Y-36484733D01*
X86983600Y-36448409D01*
X86990348Y-36380624D01*
X87355903Y-36378087D01*
X87721458Y-36375550D01*
X87721458Y-36482185D01*
G37*
G36*
X88575137Y-38150296D02*
G01*
X88576547Y-38191200D01*
X88576149Y-38233586D01*
X88575502Y-38247132D01*
X88572551Y-38293129D01*
X88215919Y-38293129D01*
X87859287Y-38293129D01*
X87853435Y-38271341D01*
X87851372Y-38251349D01*
X87851325Y-38218684D01*
X87853276Y-38179931D01*
X87853698Y-38174505D01*
X87859812Y-38099458D01*
X88215816Y-38099458D01*
X88571819Y-38099458D01*
X88575137Y-38150296D01*
G37*
G36*
X87721458Y-38196293D02*
G01*
X87721458Y-38293129D01*
X87355096Y-38293129D01*
X87272695Y-38292964D01*
X87196429Y-38292494D01*
X87128456Y-38291755D01*
X87070934Y-38290787D01*
X87026020Y-38289625D01*
X86995872Y-38288307D01*
X86982647Y-38286871D01*
X86982279Y-38286673D01*
X86979462Y-38274742D01*
X86977268Y-38248103D01*
X86976007Y-38211412D01*
X86975823Y-38189838D01*
X86975823Y-38099458D01*
X87348640Y-38099458D01*
X87721458Y-38099458D01*
X87721458Y-38196293D01*
G37*
G36*
X94193992Y-39629813D02*
G01*
X94212401Y-39637801D01*
X94241937Y-39650266D01*
X94281462Y-39666120D01*
X94322781Y-39682080D01*
X94325652Y-39683162D01*
X94372418Y-39701917D01*
X94403481Y-39717919D01*
X94421808Y-39733572D01*
X94430365Y-39751277D01*
X94432171Y-39769437D01*
X94426790Y-39799687D01*
X94410106Y-39817456D01*
X94381302Y-39822797D01*
X94339567Y-39815758D01*
X94284084Y-39796392D01*
X94248183Y-39780854D01*
X94156189Y-39738992D01*
X94153306Y-39679385D01*
X94152502Y-39644130D01*
X94156704Y-39625743D01*
X94169379Y-39621783D01*
X94193992Y-39629813D01*
G37*
G36*
X88830448Y-41587844D02*
G01*
X88832669Y-41607482D01*
X88833716Y-41640303D01*
X88833434Y-41680151D01*
X88833084Y-41692062D01*
X88830226Y-41774372D01*
X88474097Y-41776912D01*
X88378843Y-41777478D01*
X88301280Y-41777648D01*
X88239736Y-41777374D01*
X88192537Y-41776610D01*
X88158011Y-41775305D01*
X88134486Y-41773413D01*
X88120288Y-41770885D01*
X88113745Y-41767672D01*
X88112999Y-41766502D01*
X88111109Y-41751586D01*
X88110181Y-41722374D01*
X88110319Y-41683917D01*
X88110836Y-41662284D01*
X88113642Y-41571017D01*
X88469299Y-41568477D01*
X88824956Y-41565937D01*
X88830448Y-41587844D01*
G37*
G36*
X83563345Y-39525422D02*
G01*
X83603423Y-39530418D01*
X83632090Y-39539432D01*
X83657258Y-39555164D01*
X83662415Y-39559231D01*
X83688450Y-39583671D01*
X83710267Y-39609792D01*
X83714976Y-39617019D01*
X83726867Y-39647456D01*
X83736996Y-39693118D01*
X83744766Y-39749894D01*
X83749581Y-39813676D01*
X83750896Y-39864288D01*
X83751195Y-39939336D01*
X83523631Y-39939336D01*
X83296067Y-39939336D01*
X83296042Y-39849763D01*
X83300137Y-39761794D01*
X83312737Y-39689986D01*
X83334231Y-39632914D01*
X83365012Y-39589153D01*
X83368404Y-39585666D01*
X83413496Y-39550732D01*
X83465685Y-39530483D01*
X83528152Y-39523936D01*
X83563345Y-39525422D01*
G37*
G36*
X88592979Y-36476213D02*
G01*
X88592979Y-36576880D01*
X88566349Y-36582175D01*
X88550557Y-36583456D01*
X88517856Y-36584679D01*
X88470702Y-36585801D01*
X88411555Y-36586779D01*
X88342871Y-36587571D01*
X88267109Y-36588135D01*
X88207843Y-36588380D01*
X88116165Y-36588506D01*
X88042118Y-36588291D01*
X87983968Y-36587670D01*
X87939981Y-36586582D01*
X87908423Y-36584964D01*
X87887561Y-36582754D01*
X87875659Y-36579888D01*
X87870985Y-36576305D01*
X87870953Y-36576224D01*
X87869045Y-36561255D01*
X87868102Y-36531997D01*
X87868231Y-36493510D01*
X87868746Y-36471892D01*
X87871553Y-36380624D01*
X88232266Y-36378086D01*
X88592979Y-36375547D01*
X88592979Y-36476213D01*
G37*
G36*
X87583015Y-41567969D02*
G01*
X87668845Y-41568475D01*
X88026490Y-41571017D01*
X88026490Y-41672694D01*
X88026490Y-41774372D01*
X87672673Y-41776910D01*
X87574078Y-41777452D01*
X87493421Y-41777503D01*
X87429279Y-41777027D01*
X87380229Y-41775989D01*
X87344847Y-41774353D01*
X87321711Y-41772083D01*
X87309395Y-41769143D01*
X87307118Y-41767711D01*
X87301850Y-41753017D01*
X87298075Y-41724667D01*
X87295904Y-41688322D01*
X87295447Y-41649645D01*
X87296813Y-41614295D01*
X87300113Y-41587936D01*
X87303438Y-41578159D01*
X87309571Y-41574869D01*
X87324382Y-41572260D01*
X87349425Y-41570289D01*
X87386255Y-41568916D01*
X87436427Y-41568099D01*
X87501496Y-41567797D01*
X87583015Y-41567969D01*
G37*
G36*
X89337518Y-36377769D02*
G01*
X89386547Y-36378634D01*
X89422392Y-36380051D01*
X89446597Y-36382062D01*
X89460709Y-36384705D01*
X89466127Y-36387767D01*
X89469591Y-36402439D01*
X89472294Y-36431347D01*
X89473831Y-36469366D01*
X89474035Y-36488138D01*
X89474184Y-36576285D01*
X89374927Y-36582490D01*
X89338144Y-36584160D01*
X89285781Y-36585660D01*
X89221626Y-36586928D01*
X89149467Y-36587899D01*
X89073090Y-36588512D01*
X89003437Y-36588703D01*
X88731203Y-36588712D01*
X88726098Y-36537928D01*
X88724282Y-36496524D01*
X88725641Y-36451133D01*
X88727192Y-36433884D01*
X88733391Y-36380624D01*
X89095879Y-36378084D01*
X89193729Y-36377534D01*
X89273760Y-36377416D01*
X89337518Y-36377769D01*
G37*
G36*
X88590911Y-43214971D02*
G01*
X88591559Y-43261973D01*
X88590034Y-43292339D01*
X88586077Y-43308703D01*
X88581227Y-43313416D01*
X88568972Y-43314450D01*
X88539606Y-43315682D01*
X88495385Y-43317057D01*
X88438562Y-43318515D01*
X88371393Y-43319999D01*
X88296132Y-43321450D01*
X88217377Y-43322775D01*
X88122628Y-43324139D01*
X88045573Y-43324950D01*
X87984546Y-43325174D01*
X87937881Y-43324777D01*
X87903911Y-43323727D01*
X87880971Y-43321989D01*
X87867393Y-43319530D01*
X87861512Y-43316316D01*
X87861120Y-43315598D01*
X87859277Y-43300810D01*
X87858385Y-43271707D01*
X87858542Y-43233323D01*
X87859063Y-43211655D01*
X87861870Y-43120388D01*
X88225003Y-43120388D01*
X88588137Y-43120388D01*
X88590911Y-43214971D01*
G37*
G36*
X88823334Y-39933694D02*
G01*
X88823928Y-39982476D01*
X88822182Y-40014549D01*
X88817860Y-40032455D01*
X88813650Y-40037644D01*
X88801390Y-40039464D01*
X88772018Y-40041145D01*
X88727790Y-40042636D01*
X88670961Y-40043888D01*
X88603787Y-40044851D01*
X88528523Y-40045474D01*
X88449842Y-40045707D01*
X88354895Y-40045623D01*
X88277662Y-40045246D01*
X88216493Y-40044516D01*
X88169737Y-40043374D01*
X88135743Y-40041763D01*
X88112862Y-40039622D01*
X88099440Y-40036893D01*
X88093829Y-40033518D01*
X88093586Y-40033024D01*
X88091717Y-40018163D01*
X88090804Y-39988999D01*
X88090950Y-39950574D01*
X88091469Y-39928926D01*
X88094275Y-39837658D01*
X88457409Y-39837658D01*
X88820543Y-39837658D01*
X88823334Y-39933694D01*
G37*
G36*
X89466217Y-43148400D02*
G01*
X89467662Y-43175421D01*
X89467605Y-43213104D01*
X89466259Y-43249094D01*
X89462439Y-43316702D01*
X89427156Y-43322537D01*
X89409174Y-43323936D01*
X89374387Y-43325222D01*
X89325359Y-43326352D01*
X89264652Y-43327283D01*
X89194829Y-43327974D01*
X89118452Y-43328383D01*
X89064749Y-43328478D01*
X88973353Y-43328373D01*
X88899616Y-43327948D01*
X88841833Y-43327138D01*
X88798298Y-43325878D01*
X88767305Y-43324103D01*
X88747149Y-43321746D01*
X88736124Y-43318742D01*
X88732701Y-43315754D01*
X88730832Y-43300893D01*
X88729919Y-43271728D01*
X88730065Y-43233303D01*
X88730584Y-43211655D01*
X88733391Y-43120388D01*
X89097873Y-43117852D01*
X89462354Y-43115315D01*
X89466217Y-43148400D01*
G37*
G36*
X93191593Y-37719964D02*
G01*
X93192863Y-37721799D01*
X93203288Y-37756023D01*
X93195962Y-37797425D01*
X93171010Y-37845740D01*
X93128561Y-37900703D01*
X93084323Y-37947103D01*
X93033548Y-37993443D01*
X92985421Y-38031119D01*
X92941977Y-38059005D01*
X92905249Y-38075981D01*
X92877272Y-38080920D01*
X92860079Y-38072701D01*
X92859228Y-38071438D01*
X92858823Y-38057590D01*
X92864359Y-38033643D01*
X92867064Y-38025419D01*
X92878829Y-38003536D01*
X92902049Y-37973252D01*
X92937753Y-37933372D01*
X92986966Y-37882704D01*
X93006966Y-37862800D01*
X93060423Y-37810393D01*
X93102121Y-37770726D01*
X93133697Y-37742555D01*
X93156794Y-37724638D01*
X93173049Y-37715729D01*
X93184102Y-37714586D01*
X93191593Y-37719964D01*
G37*
G36*
X86840984Y-36476944D02*
G01*
X86839703Y-36518552D01*
X86837822Y-36552806D01*
X86835637Y-36575141D01*
X86834234Y-36581043D01*
X86823788Y-36582807D01*
X86796145Y-36584432D01*
X86753477Y-36585869D01*
X86697952Y-36587073D01*
X86631743Y-36587998D01*
X86557019Y-36588596D01*
X86475950Y-36588820D01*
X86471402Y-36588821D01*
X86375480Y-36588700D01*
X86297288Y-36588299D01*
X86235191Y-36587560D01*
X86187553Y-36586425D01*
X86152741Y-36584837D01*
X86129117Y-36582737D01*
X86115046Y-36580068D01*
X86108894Y-36576771D01*
X86108454Y-36575990D01*
X86106585Y-36561129D01*
X86105672Y-36531965D01*
X86105818Y-36493540D01*
X86106337Y-36471892D01*
X86109144Y-36380624D01*
X86476035Y-36380624D01*
X86842927Y-36380624D01*
X86840984Y-36476944D01*
G37*
G36*
X87657148Y-43117947D02*
G01*
X87687835Y-43118821D01*
X87701223Y-43120112D01*
X87710636Y-43124233D01*
X87716543Y-43131865D01*
X87719592Y-43146750D01*
X87720427Y-43172630D01*
X87719695Y-43213248D01*
X87719367Y-43225244D01*
X87716616Y-43323743D01*
X87358324Y-43325460D01*
X87276572Y-43325721D01*
X87200725Y-43325711D01*
X87133012Y-43325449D01*
X87075660Y-43324956D01*
X87030899Y-43324250D01*
X87000956Y-43323352D01*
X86988060Y-43322280D01*
X86987928Y-43322232D01*
X86981660Y-43312137D01*
X86977745Y-43286856D01*
X86975976Y-43244686D01*
X86975823Y-43222513D01*
X86975823Y-43127739D01*
X87328075Y-43120610D01*
X87409569Y-43119150D01*
X87485545Y-43118150D01*
X87553681Y-43117614D01*
X87611656Y-43117546D01*
X87657148Y-43117947D01*
G37*
G36*
X92962184Y-38879424D02*
G01*
X92997965Y-38895068D01*
X93038310Y-38922736D01*
X93085390Y-38963879D01*
X93131397Y-39009566D01*
X93175635Y-39056180D01*
X93207569Y-39092535D01*
X93229103Y-39121535D01*
X93242143Y-39146079D01*
X93248594Y-39169069D01*
X93250339Y-39190709D01*
X93248484Y-39215610D01*
X93239768Y-39225481D01*
X93220860Y-39221748D01*
X93200371Y-39212112D01*
X93180366Y-39198285D01*
X93150439Y-39173212D01*
X93113615Y-39139876D01*
X93072923Y-39101262D01*
X93031387Y-39060356D01*
X92992036Y-39020141D01*
X92957896Y-38983602D01*
X92931994Y-38953724D01*
X92917356Y-38933491D01*
X92916835Y-38932520D01*
X92903940Y-38901471D01*
X92904624Y-38882845D01*
X92919242Y-38874919D01*
X92928797Y-38874356D01*
X92962184Y-38879424D01*
G37*
G36*
X94262598Y-39811741D02*
G01*
X94306285Y-39834588D01*
X94354719Y-39870685D01*
X94387029Y-39900061D01*
X94422924Y-39934032D01*
X94459751Y-39967291D01*
X94491495Y-39994461D01*
X94501941Y-40002822D01*
X94529631Y-40029296D01*
X94552943Y-40060623D01*
X94569233Y-40091991D01*
X94575857Y-40118586D01*
X94573042Y-40132263D01*
X94556587Y-40141458D01*
X94528029Y-40138530D01*
X94490070Y-40123844D01*
X94482571Y-40120045D01*
X94447218Y-40097816D01*
X94404212Y-40065286D01*
X94358562Y-40026807D01*
X94315278Y-39986732D01*
X94279372Y-39949411D01*
X94262491Y-39928867D01*
X94245435Y-39901141D01*
X94231613Y-39870187D01*
X94222376Y-39840685D01*
X94219075Y-39817311D01*
X94223061Y-39804745D01*
X94226361Y-39803766D01*
X94262598Y-39811741D01*
G37*
G36*
X94637215Y-39918485D02*
G01*
X94647745Y-39927231D01*
X94657505Y-39943507D01*
X94672195Y-39974803D01*
X94690560Y-40017791D01*
X94711344Y-40069140D01*
X94733292Y-40125523D01*
X94755149Y-40183609D01*
X94775659Y-40240071D01*
X94793569Y-40291579D01*
X94807622Y-40334804D01*
X94816563Y-40366416D01*
X94819206Y-40381980D01*
X94811910Y-40415215D01*
X94792761Y-40436589D01*
X94769108Y-40442881D01*
X94744282Y-40436278D01*
X94730166Y-40425935D01*
X94715549Y-40402905D01*
X94708221Y-40384780D01*
X94699174Y-40357584D01*
X94689246Y-40331520D01*
X94650659Y-40235948D01*
X94618251Y-40152628D01*
X94592404Y-40082632D01*
X94573502Y-40027034D01*
X94561926Y-39986905D01*
X94558057Y-39963529D01*
X94566005Y-39936794D01*
X94585847Y-39918755D01*
X94611584Y-39911843D01*
X94637215Y-39918485D01*
G37*
G36*
X92726926Y-41928730D02*
G01*
X92736083Y-41943771D01*
X92741960Y-41971357D01*
X92743996Y-42004859D01*
X92741630Y-42037648D01*
X92737608Y-42055009D01*
X92717503Y-42101985D01*
X92687364Y-42155196D01*
X92650526Y-42210106D01*
X92610324Y-42262179D01*
X92570094Y-42306878D01*
X92533172Y-42339668D01*
X92523300Y-42346465D01*
X92493142Y-42363728D01*
X92475345Y-42368795D01*
X92467460Y-42361944D01*
X92466460Y-42352965D01*
X92470324Y-42322904D01*
X92482505Y-42287235D01*
X92504159Y-42243551D01*
X92536443Y-42189447D01*
X92568761Y-42139934D01*
X92597226Y-42096749D01*
X92621370Y-42058795D01*
X92639297Y-42029154D01*
X92649117Y-42010909D01*
X92650394Y-42007059D01*
X92656510Y-41992889D01*
X92671693Y-41973074D01*
X92691193Y-41952475D01*
X92710263Y-41935953D01*
X92724153Y-41928366D01*
X92726926Y-41928730D01*
G37*
G36*
X93097658Y-39200334D02*
G01*
X93123313Y-39207950D01*
X93159676Y-39221726D01*
X93209572Y-39242563D01*
X93233944Y-39253072D01*
X93282448Y-39274619D01*
X93324366Y-39294207D01*
X93356590Y-39310306D01*
X93376006Y-39321383D01*
X93380251Y-39325066D01*
X93381691Y-39340267D01*
X93380587Y-39366814D01*
X93379256Y-39380747D01*
X93373928Y-39410253D01*
X93365618Y-39423777D01*
X93358456Y-39425602D01*
X93343188Y-39421956D01*
X93314649Y-39412538D01*
X93277479Y-39398942D01*
X93250775Y-39388577D01*
X93180524Y-39359471D01*
X93123155Y-39333164D01*
X93080352Y-39310499D01*
X93053796Y-39292322D01*
X93048572Y-39287083D01*
X93040940Y-39267601D01*
X93039450Y-39241012D01*
X93039497Y-39240505D01*
X93046452Y-39214901D01*
X93063738Y-39201281D01*
X93067167Y-39199987D01*
X93079885Y-39197980D01*
X93097658Y-39200334D01*
G37*
G36*
X93282773Y-41565248D02*
G01*
X93285359Y-41580302D01*
X93277292Y-41604780D01*
X93261005Y-41633831D01*
X93238933Y-41662603D01*
X93228434Y-41673523D01*
X93205628Y-41691408D01*
X93170449Y-41714251D01*
X93128087Y-41738842D01*
X93092275Y-41757737D01*
X93042146Y-41781949D01*
X93003369Y-41797951D01*
X92970708Y-41807527D01*
X92938925Y-41812464D01*
X92929367Y-41813265D01*
X92895459Y-41814740D01*
X92868607Y-41814179D01*
X92856170Y-41812147D01*
X92845094Y-41799675D01*
X92850057Y-41781331D01*
X92869315Y-41758917D01*
X92901126Y-41734234D01*
X92943746Y-41709084D01*
X92966906Y-41697665D01*
X93007282Y-41678353D01*
X93055836Y-41654366D01*
X93103648Y-41630126D01*
X93115205Y-41624147D01*
X93175022Y-41594671D01*
X93223211Y-41574368D01*
X93258422Y-41563712D01*
X93279308Y-41563177D01*
X93282773Y-41565248D01*
G37*
G36*
X93839448Y-41170157D02*
G01*
X93881128Y-41174777D01*
X93906854Y-41182431D01*
X93933312Y-41199665D01*
X93953784Y-41219310D01*
X93964160Y-41236839D01*
X93963585Y-41244891D01*
X93948317Y-41254214D01*
X93915959Y-41262534D01*
X93868781Y-41269336D01*
X93846315Y-41271512D01*
X93759663Y-41279559D01*
X93686651Y-41287656D01*
X93628743Y-41295606D01*
X93587402Y-41303210D01*
X93565491Y-41309626D01*
X93539358Y-41319974D01*
X93506923Y-41331508D01*
X93474305Y-41342219D01*
X93447621Y-41350099D01*
X93433038Y-41353137D01*
X93425225Y-41345806D01*
X93425080Y-41344084D01*
X93432624Y-41314510D01*
X93452480Y-41280075D01*
X93480484Y-41246096D01*
X93512474Y-41217891D01*
X93534079Y-41204865D01*
X93568887Y-41193013D01*
X93616175Y-41183224D01*
X93671409Y-41175771D01*
X93730055Y-41170927D01*
X93787579Y-41168965D01*
X93839448Y-41170157D01*
G37*
G36*
X94638500Y-40290550D02*
G01*
X94646705Y-40300600D01*
X94658105Y-40323164D01*
X94665680Y-40341574D01*
X94673486Y-40366011D01*
X94678774Y-40393671D01*
X94681957Y-40428782D01*
X94683452Y-40475570D01*
X94683709Y-40525192D01*
X94683425Y-40579602D01*
X94682375Y-40618783D01*
X94679958Y-40646871D01*
X94675575Y-40668004D01*
X94668624Y-40686318D01*
X94658504Y-40705950D01*
X94657088Y-40708520D01*
X94637348Y-40741022D01*
X94622179Y-40756710D01*
X94609124Y-40756818D01*
X94595724Y-40742578D01*
X94594090Y-40740137D01*
X94580638Y-40708548D01*
X94570301Y-40662448D01*
X94563320Y-40606479D01*
X94559933Y-40545282D01*
X94560381Y-40483498D01*
X94564903Y-40425769D01*
X94573738Y-40376737D01*
X94575076Y-40371739D01*
X94586647Y-40343364D01*
X94603269Y-40316998D01*
X94621062Y-40297609D01*
X94636144Y-40290166D01*
X94638500Y-40290550D01*
G37*
G36*
X87280096Y-40124551D02*
G01*
X87299859Y-40126349D01*
X87310623Y-40130397D01*
X87315840Y-40137259D01*
X87318251Y-40144815D01*
X87319251Y-40158035D01*
X87320203Y-40188983D01*
X87321091Y-40236018D01*
X87321900Y-40297501D01*
X87322616Y-40371790D01*
X87323224Y-40457247D01*
X87323711Y-40552231D01*
X87324061Y-40655103D01*
X87324259Y-40764222D01*
X87324299Y-40827803D01*
X87324432Y-41488707D01*
X87207925Y-41488707D01*
X87153579Y-41488037D01*
X87116581Y-41485895D01*
X87094956Y-41482085D01*
X87086794Y-41476602D01*
X87086054Y-41465112D01*
X87085423Y-41435853D01*
X87084903Y-41390425D01*
X87084502Y-41330425D01*
X87084223Y-41257453D01*
X87084072Y-41173108D01*
X87084054Y-41078987D01*
X87084174Y-40976690D01*
X87084436Y-40867815D01*
X87084677Y-40796332D01*
X87087184Y-40128165D01*
X87199759Y-40125448D01*
X87247880Y-40124438D01*
X87280096Y-40124551D01*
G37*
G36*
X92433456Y-42160415D02*
G01*
X92448217Y-42172877D01*
X92454020Y-42197013D01*
X92451984Y-42235578D01*
X92449090Y-42256542D01*
X92442484Y-42296838D01*
X92433593Y-42347084D01*
X92423186Y-42403351D01*
X92412030Y-42461705D01*
X92400893Y-42518216D01*
X92390542Y-42568953D01*
X92381744Y-42609984D01*
X92375267Y-42637377D01*
X92373567Y-42643415D01*
X92357388Y-42672193D01*
X92334033Y-42686529D01*
X92308050Y-42684993D01*
X92287572Y-42670447D01*
X92280064Y-42659302D01*
X92275407Y-42644097D01*
X92273826Y-42622805D01*
X92275548Y-42593402D01*
X92280798Y-42553863D01*
X92289802Y-42502164D01*
X92302785Y-42436279D01*
X92319974Y-42354183D01*
X92325932Y-42326335D01*
X92334491Y-42285761D01*
X92341990Y-42248967D01*
X92347020Y-42222888D01*
X92347563Y-42219816D01*
X92360721Y-42183761D01*
X92384227Y-42162263D01*
X92408620Y-42156873D01*
X92433456Y-42160415D01*
G37*
G36*
X94312386Y-41209640D02*
G01*
X94328216Y-41220486D01*
X94329776Y-41222419D01*
X94342470Y-41244336D01*
X94340934Y-41262991D01*
X94324408Y-41285383D01*
X94322757Y-41287177D01*
X94294460Y-41306798D01*
X94249030Y-41323986D01*
X94233184Y-41328315D01*
X94190419Y-41339319D01*
X94147027Y-41350689D01*
X94117455Y-41358599D01*
X94030514Y-41381524D01*
X93960618Y-41398300D01*
X93906522Y-41409151D01*
X93866982Y-41414301D01*
X93840753Y-41413974D01*
X93829369Y-41410448D01*
X93816390Y-41393048D01*
X93812564Y-41366649D01*
X93817857Y-41339299D01*
X93829751Y-41321089D01*
X93846238Y-41312162D01*
X93876662Y-41300768D01*
X93916056Y-41288642D01*
X93943533Y-41281336D01*
X93999288Y-41267312D01*
X94062447Y-41251259D01*
X94121679Y-41236061D01*
X94136822Y-41232143D01*
X94202122Y-41216403D01*
X94251625Y-41207483D01*
X94287618Y-41205267D01*
X94312386Y-41209640D01*
G37*
G36*
X92846870Y-37869543D02*
G01*
X92855888Y-37882405D01*
X92859934Y-37896475D01*
X92860567Y-37915620D01*
X92857321Y-37942091D01*
X92849729Y-37978142D01*
X92837324Y-38026024D01*
X92819639Y-38087988D01*
X92798853Y-38157559D01*
X92784512Y-38205072D01*
X92771221Y-38249345D01*
X92760571Y-38285067D01*
X92754647Y-38305205D01*
X92736125Y-38354521D01*
X92714131Y-38385489D01*
X92688019Y-38398918D01*
X92679380Y-38399648D01*
X92654409Y-38394548D01*
X92639319Y-38376218D01*
X92638630Y-38374739D01*
X92634134Y-38346657D01*
X92638407Y-38301847D01*
X92651364Y-38240806D01*
X92672918Y-38164032D01*
X92677925Y-38147876D01*
X92689783Y-38109612D01*
X92704618Y-38061031D01*
X92719915Y-38010388D01*
X92725895Y-37990414D01*
X92739605Y-37948236D01*
X92753590Y-37911498D01*
X92765815Y-37885283D01*
X92771533Y-37876632D01*
X92796428Y-37860096D01*
X92823680Y-37857880D01*
X92846870Y-37869543D01*
G37*
G36*
X92914898Y-41594694D02*
G01*
X92925272Y-41610366D01*
X92927110Y-41624549D01*
X92921984Y-41642488D01*
X92908707Y-41665765D01*
X92886092Y-41695964D01*
X92852952Y-41734668D01*
X92808099Y-41783460D01*
X92750348Y-41843923D01*
X92749498Y-41844802D01*
X92699163Y-41896554D01*
X92660125Y-41935795D01*
X92630474Y-41964175D01*
X92608298Y-41983349D01*
X92591687Y-41994970D01*
X92578731Y-42000689D01*
X92567600Y-42002160D01*
X92542664Y-41998394D01*
X92526445Y-41990315D01*
X92517739Y-41972453D01*
X92514824Y-41951721D01*
X92517207Y-41940449D01*
X92525329Y-41925374D01*
X92540650Y-41904759D01*
X92564629Y-41876869D01*
X92598725Y-41839966D01*
X92644399Y-41792316D01*
X92677000Y-41758835D01*
X92723607Y-41711741D01*
X92766880Y-41669119D01*
X92804643Y-41633022D01*
X92834722Y-41605508D01*
X92854941Y-41588630D01*
X92861622Y-41584390D01*
X92890480Y-41582001D01*
X92914898Y-41594694D01*
G37*
G36*
X85501500Y-36676121D02*
G01*
X85545369Y-36676869D01*
X85582551Y-36678775D01*
X85608452Y-36681528D01*
X85617766Y-36683994D01*
X85620137Y-36689180D01*
X85622168Y-36702246D01*
X85623875Y-36724302D01*
X85625271Y-36756459D01*
X85626373Y-36799828D01*
X85627194Y-36855520D01*
X85627750Y-36924645D01*
X85628055Y-37008314D01*
X85628124Y-37107638D01*
X85627973Y-37223728D01*
X85627616Y-37357695D01*
X85627449Y-37407693D01*
X85624965Y-38123667D01*
X85523288Y-38125482D01*
X85479938Y-38125778D01*
X85443298Y-38125141D01*
X85418025Y-38123702D01*
X85409506Y-38122255D01*
X85407138Y-38117494D01*
X85405079Y-38104594D01*
X85403309Y-38082465D01*
X85401812Y-38050019D01*
X85400567Y-38006166D01*
X85399558Y-37949819D01*
X85398766Y-37879888D01*
X85398173Y-37795284D01*
X85397761Y-37694919D01*
X85397512Y-37577704D01*
X85397407Y-37442550D01*
X85397401Y-37396592D01*
X85397401Y-36675973D01*
X85501500Y-36676121D01*
G37*
G36*
X92834317Y-38253132D02*
G01*
X92857455Y-38275931D01*
X92880083Y-38309416D01*
X92880379Y-38309944D01*
X92885521Y-38327848D01*
X92889195Y-38361231D01*
X92891476Y-38411271D01*
X92892440Y-38479147D01*
X92892483Y-38500451D01*
X92892406Y-38561383D01*
X92891906Y-38606104D01*
X92890587Y-38637771D01*
X92888050Y-38659540D01*
X92883897Y-38674569D01*
X92877729Y-38686014D01*
X92869147Y-38697031D01*
X92867414Y-38699096D01*
X92848893Y-38718030D01*
X92833843Y-38728263D01*
X92831100Y-38728853D01*
X92821101Y-38720625D01*
X92808790Y-38699861D01*
X92803425Y-38687698D01*
X92796836Y-38666771D01*
X92791998Y-38639684D01*
X92788624Y-38603215D01*
X92786425Y-38554145D01*
X92785113Y-38489251D01*
X92785022Y-38481959D01*
X92784653Y-38404916D01*
X92785765Y-38345366D01*
X92788586Y-38301477D01*
X92793343Y-38271416D01*
X92800263Y-38253349D01*
X92809573Y-38245443D01*
X92814405Y-38244711D01*
X92834317Y-38253132D01*
G37*
G36*
X93603188Y-41366036D02*
G01*
X93615694Y-41382139D01*
X93618751Y-41403191D01*
X93610020Y-41435555D01*
X93584653Y-41459348D01*
X93543883Y-41473459D01*
X93539886Y-41474153D01*
X93509648Y-41479895D01*
X93468842Y-41488702D01*
X93425652Y-41498800D01*
X93420238Y-41500127D01*
X93363320Y-41513733D01*
X93306063Y-41526653D01*
X93252262Y-41538108D01*
X93205717Y-41547317D01*
X93170224Y-41553498D01*
X93149583Y-41555871D01*
X93149098Y-41555876D01*
X93123899Y-41550974D01*
X93112785Y-41546032D01*
X93099201Y-41527310D01*
X93095838Y-41502974D01*
X93099191Y-41479537D01*
X93111145Y-41461612D01*
X93134543Y-41447296D01*
X93172230Y-41434685D01*
X93212258Y-41425053D01*
X93258117Y-41414774D01*
X93306254Y-41403654D01*
X93342769Y-41394941D01*
X93380665Y-41386423D01*
X93428550Y-41376701D01*
X93477289Y-41367614D01*
X93486826Y-41365950D01*
X93540924Y-41358554D01*
X93578988Y-41358378D01*
X93603188Y-41366036D01*
G37*
G36*
X94526408Y-40903531D02*
G01*
X94529006Y-40910749D01*
X94522362Y-40935003D01*
X94505727Y-40964294D01*
X94484051Y-40991332D01*
X94462477Y-41008728D01*
X94445254Y-41019387D01*
X94416422Y-41039080D01*
X94379800Y-41065132D01*
X94339205Y-41094866D01*
X94333380Y-41099202D01*
X94292512Y-41128675D01*
X94254844Y-41154012D01*
X94224213Y-41172754D01*
X94204456Y-41182443D01*
X94202652Y-41182967D01*
X94175602Y-41189812D01*
X94157178Y-41194925D01*
X94144980Y-41196271D01*
X94142196Y-41186772D01*
X94144776Y-41170536D01*
X94163045Y-41122813D01*
X94197251Y-41075288D01*
X94244365Y-41032071D01*
X94249860Y-41028007D01*
X94276985Y-41008029D01*
X94297389Y-40992391D01*
X94306284Y-40984826D01*
X94316390Y-40977251D01*
X94338533Y-40962685D01*
X94368153Y-40944119D01*
X94371735Y-40941922D01*
X94410071Y-40921758D01*
X94448494Y-40907086D01*
X94483217Y-40898657D01*
X94510451Y-40897221D01*
X94526408Y-40903531D01*
G37*
G36*
X86420974Y-43117248D02*
G01*
X86491645Y-43117687D01*
X86835411Y-43120388D01*
X86838202Y-43216423D01*
X86838797Y-43265206D01*
X86837051Y-43297278D01*
X86832728Y-43315185D01*
X86828519Y-43320373D01*
X86814975Y-43322936D01*
X86784972Y-43325027D01*
X86741191Y-43326658D01*
X86686319Y-43327841D01*
X86623040Y-43328591D01*
X86554036Y-43328920D01*
X86481993Y-43328841D01*
X86409594Y-43328366D01*
X86339525Y-43327508D01*
X86274468Y-43326281D01*
X86217108Y-43324697D01*
X86170130Y-43322768D01*
X86136217Y-43320509D01*
X86118053Y-43317931D01*
X86115922Y-43316964D01*
X86109711Y-43300425D01*
X86105758Y-43266730D01*
X86104305Y-43217986D01*
X86104302Y-43215471D01*
X86104588Y-43173246D01*
X86106039Y-43146498D01*
X86109544Y-43131340D01*
X86115995Y-43123886D01*
X86126090Y-43120293D01*
X86140609Y-43119133D01*
X86172130Y-43118212D01*
X86218291Y-43117545D01*
X86276727Y-43117152D01*
X86345076Y-43117047D01*
X86420974Y-43117248D01*
G37*
G36*
X94803487Y-40644578D02*
G01*
X94815659Y-40664389D01*
X94817761Y-40688324D01*
X94809166Y-40719477D01*
X94789245Y-40760945D01*
X94774585Y-40786954D01*
X94748212Y-40832380D01*
X94719605Y-40881855D01*
X94694306Y-40925792D01*
X94690801Y-40931901D01*
X94656858Y-40990375D01*
X94630260Y-41034355D01*
X94609322Y-41066479D01*
X94592361Y-41089386D01*
X94584180Y-41098943D01*
X94559819Y-41115763D01*
X94532705Y-41120397D01*
X94509498Y-41112602D01*
X94500296Y-41102001D01*
X94492046Y-41080943D01*
X94490272Y-41070262D01*
X94495349Y-41052552D01*
X94509653Y-41021296D01*
X94531799Y-40979147D01*
X94560398Y-40928759D01*
X94590458Y-40878642D01*
X94614981Y-40838273D01*
X94639383Y-40797379D01*
X94659055Y-40763698D01*
X94661923Y-40758673D01*
X94683793Y-40720289D01*
X94698833Y-40694615D01*
X94709708Y-40677481D01*
X94719082Y-40664715D01*
X94729621Y-40652150D01*
X94731063Y-40650489D01*
X94756865Y-40630626D01*
X94782401Y-40629698D01*
X94803487Y-40644578D01*
G37*
G36*
X92574084Y-41794858D02*
G01*
X92577730Y-41798520D01*
X92574435Y-41810957D01*
X92557273Y-41834683D01*
X92527179Y-41868497D01*
X92507223Y-41889168D01*
X92449302Y-41952592D01*
X92399626Y-42016367D01*
X92359718Y-42077948D01*
X92331100Y-42134788D01*
X92315293Y-42184343D01*
X92312717Y-42214412D01*
X92311878Y-42251171D01*
X92306269Y-42282953D01*
X92297190Y-42304783D01*
X92287281Y-42311810D01*
X92274310Y-42304231D01*
X92258233Y-42285405D01*
X92254158Y-42279195D01*
X92241071Y-42254351D01*
X92234271Y-42234275D01*
X92234001Y-42231349D01*
X92228569Y-42214317D01*
X92224317Y-42210133D01*
X92215007Y-42193618D01*
X92215266Y-42163988D01*
X92224492Y-42124609D01*
X92242085Y-42078847D01*
X92251155Y-42059854D01*
X92278450Y-42010828D01*
X92311563Y-41959151D01*
X92347304Y-41909151D01*
X92382480Y-41865153D01*
X92413899Y-41831484D01*
X92429496Y-41818131D01*
X92455522Y-41804583D01*
X92488801Y-41794714D01*
X92523524Y-41789292D01*
X92553888Y-41789084D01*
X92574084Y-41794858D01*
G37*
G36*
X90568427Y-40790918D02*
G01*
X90568349Y-40929324D01*
X90568102Y-41049394D01*
X90567671Y-41152161D01*
X90567035Y-41238654D01*
X90566180Y-41309905D01*
X90565086Y-41366945D01*
X90563736Y-41410806D01*
X90562113Y-41442518D01*
X90560199Y-41463112D01*
X90557977Y-41473621D01*
X90556792Y-41475387D01*
X90542750Y-41478735D01*
X90513938Y-41482136D01*
X90474949Y-41485131D01*
X90442079Y-41486825D01*
X90338999Y-41491072D01*
X90332753Y-41439050D01*
X90331503Y-41418805D01*
X90330393Y-41381439D01*
X90329423Y-41329046D01*
X90328593Y-41263722D01*
X90327904Y-41187560D01*
X90327357Y-41102656D01*
X90326951Y-41011103D01*
X90326687Y-40914997D01*
X90326566Y-40816432D01*
X90326587Y-40717502D01*
X90326752Y-40620302D01*
X90327061Y-40526927D01*
X90327514Y-40439470D01*
X90328112Y-40360028D01*
X90328854Y-40290693D01*
X90329742Y-40233561D01*
X90330776Y-40190727D01*
X90331956Y-40164284D01*
X90332496Y-40158568D01*
X90338654Y-40113640D01*
X90453540Y-40113640D01*
X90568427Y-40113640D01*
X90568427Y-40790918D01*
G37*
G36*
X92711179Y-38588615D02*
G01*
X92730872Y-38604987D01*
X92751141Y-38634907D01*
X92773642Y-38680528D01*
X92784739Y-38706279D01*
X92799125Y-38739969D01*
X92819110Y-38785819D01*
X92842291Y-38838356D01*
X92866262Y-38892104D01*
X92871759Y-38904339D01*
X92894779Y-38956099D01*
X92910524Y-38993617D01*
X92919977Y-39020168D01*
X92924125Y-39039029D01*
X92923952Y-39053475D01*
X92920528Y-39066539D01*
X92911200Y-39087172D01*
X92902651Y-39096777D01*
X92902012Y-39096865D01*
X92886198Y-39099617D01*
X92881171Y-39101102D01*
X92862648Y-39101031D01*
X92846056Y-39096413D01*
X92828122Y-39081954D01*
X92811734Y-39057411D01*
X92808829Y-39051021D01*
X92800190Y-39030738D01*
X92785192Y-38996265D01*
X92765370Y-38951095D01*
X92742256Y-38898725D01*
X92717386Y-38842650D01*
X92717265Y-38842378D01*
X92684772Y-38767104D01*
X92661438Y-38707242D01*
X92647102Y-38661229D01*
X92641601Y-38627503D01*
X92644772Y-38604499D01*
X92656454Y-38590653D01*
X92676484Y-38584403D01*
X92690406Y-38583636D01*
X92711179Y-38588615D01*
G37*
G36*
X94472986Y-39593060D02*
G01*
X94503836Y-39601223D01*
X94535889Y-39616966D01*
X94572095Y-39642037D01*
X94615403Y-39678186D01*
X94665802Y-39724370D01*
X94719395Y-39779182D01*
X94756918Y-39828435D01*
X94779883Y-39874703D01*
X94789797Y-39920555D01*
X94790463Y-39936744D01*
X94786629Y-39971122D01*
X94776715Y-40005747D01*
X94763097Y-40034546D01*
X94748157Y-40051446D01*
X94744940Y-40052960D01*
X94735966Y-40046749D01*
X94723607Y-40027260D01*
X94715394Y-40009900D01*
X94702135Y-39975236D01*
X94691471Y-39941502D01*
X94688575Y-39929823D01*
X94675600Y-39900438D01*
X94649648Y-39864335D01*
X94614311Y-39824830D01*
X94573177Y-39785235D01*
X94529836Y-39748866D01*
X94487880Y-39719038D01*
X94450898Y-39699063D01*
X94432171Y-39693106D01*
X94400113Y-39684619D01*
X94366413Y-39672020D01*
X94336153Y-39657708D01*
X94314418Y-39644080D01*
X94306284Y-39633699D01*
X94315155Y-39621267D01*
X94338585Y-39609237D01*
X94371795Y-39599142D01*
X94410011Y-39592510D01*
X94440390Y-39590727D01*
X94472986Y-39593060D01*
G37*
G36*
X87611215Y-39836667D02*
G01*
X87682586Y-39836855D01*
X87752985Y-39837187D01*
X87819564Y-39837654D01*
X87879477Y-39838247D01*
X87929875Y-39838957D01*
X87967913Y-39839776D01*
X87990743Y-39840694D01*
X87995357Y-39841148D01*
X87998265Y-39850736D01*
X88000104Y-39875554D01*
X88000677Y-39911486D01*
X88000199Y-39941757D01*
X87997440Y-40041013D01*
X87949022Y-40047428D01*
X87927895Y-40048966D01*
X87891262Y-40050291D01*
X87842019Y-40051396D01*
X87783062Y-40052274D01*
X87717288Y-40052918D01*
X87647592Y-40053324D01*
X87576871Y-40053484D01*
X87508022Y-40053391D01*
X87443941Y-40053041D01*
X87387524Y-40052425D01*
X87341667Y-40051539D01*
X87309267Y-40050375D01*
X87293220Y-40048927D01*
X87292960Y-40048863D01*
X87285250Y-40044591D01*
X87280273Y-40034268D01*
X87277458Y-40014372D01*
X87276233Y-39981382D01*
X87276014Y-39944376D01*
X87276014Y-39844317D01*
X87322011Y-39839055D01*
X87339426Y-39838194D01*
X87372951Y-39837530D01*
X87419740Y-39837055D01*
X87476945Y-39836758D01*
X87541719Y-39836632D01*
X87611215Y-39836667D01*
G37*
G36*
X94011104Y-41421725D02*
G01*
X94011990Y-41422629D01*
X94011025Y-41436282D01*
X94001790Y-41460171D01*
X93987126Y-41488668D01*
X93969873Y-41516145D01*
X93955854Y-41533892D01*
X93933487Y-41551174D01*
X93899630Y-41565976D01*
X93852224Y-41578878D01*
X93789215Y-41590462D01*
X93723663Y-41599481D01*
X93669000Y-41606199D01*
X93630524Y-41610703D01*
X93605195Y-41613106D01*
X93589974Y-41613519D01*
X93581820Y-41612052D01*
X93577694Y-41608818D01*
X93575175Y-41604909D01*
X93561392Y-41596510D01*
X93552139Y-41595226D01*
X93533280Y-41588588D01*
X93510102Y-41572305D01*
X93488736Y-41551819D01*
X93475316Y-41532575D01*
X93473498Y-41525423D01*
X93481450Y-41513940D01*
X93505870Y-41505740D01*
X93547600Y-41500668D01*
X93607484Y-41498572D01*
X93621580Y-41498497D01*
X93675982Y-41496021D01*
X93734361Y-41489406D01*
X93790895Y-41479657D01*
X93839759Y-41467781D01*
X93875131Y-41454783D01*
X93875366Y-41454666D01*
X93904532Y-41442460D01*
X93938084Y-41431798D01*
X93970626Y-41423944D01*
X93996765Y-41420165D01*
X94011104Y-41421725D01*
G37*
G36*
X92386268Y-38188050D02*
G01*
X92426452Y-38189450D01*
X92450400Y-38191796D01*
X92456723Y-38194381D01*
X92450039Y-38207407D01*
X92440697Y-38216896D01*
X92428929Y-38227804D01*
X92419281Y-38240433D01*
X92411511Y-38256754D01*
X92405375Y-38278740D01*
X92400633Y-38308364D01*
X92397042Y-38347597D01*
X92394360Y-38398413D01*
X92392344Y-38462782D01*
X92390753Y-38542678D01*
X92389417Y-38634475D01*
X92388938Y-38670788D01*
X92284839Y-38669365D01*
X92234634Y-38668171D01*
X92184933Y-38666130D01*
X92143056Y-38663579D01*
X92125311Y-38662007D01*
X92097000Y-38658647D01*
X92075369Y-38653807D01*
X92059474Y-38645082D01*
X92048369Y-38630064D01*
X92041106Y-38606348D01*
X92036740Y-38571526D01*
X92034325Y-38523193D01*
X92032914Y-38458942D01*
X92032377Y-38425656D01*
X92030852Y-38352676D01*
X92030352Y-38296619D01*
X92033078Y-38255231D01*
X92041232Y-38226256D01*
X92057015Y-38207439D01*
X92082628Y-38196523D01*
X92120274Y-38191254D01*
X92172153Y-38189377D01*
X92240467Y-38188635D01*
X92264046Y-38188304D01*
X92331562Y-38187650D01*
X92386268Y-38188050D01*
G37*
G36*
X92750743Y-38989252D02*
G01*
X92764685Y-39010900D01*
X92779439Y-39040558D01*
X92792406Y-39073025D01*
X92800693Y-39101707D01*
X92810635Y-39121341D01*
X92832256Y-39149918D01*
X92862235Y-39184128D01*
X92897250Y-39220662D01*
X92933983Y-39256209D01*
X92969111Y-39287459D01*
X92999317Y-39311102D01*
X93021278Y-39323829D01*
X93024476Y-39324792D01*
X93057783Y-39333989D01*
X93093487Y-39346670D01*
X93126809Y-39360750D01*
X93152969Y-39374144D01*
X93167187Y-39384765D01*
X93168465Y-39387624D01*
X93159572Y-39403943D01*
X93135948Y-39417748D01*
X93102177Y-39427960D01*
X93062841Y-39433500D01*
X93022524Y-39433288D01*
X92994210Y-39428658D01*
X92968874Y-39416825D01*
X92934287Y-39393277D01*
X92893737Y-39361056D01*
X92850512Y-39323209D01*
X92807899Y-39282778D01*
X92769186Y-39242809D01*
X92737662Y-39206346D01*
X92716613Y-39176433D01*
X92712031Y-39167382D01*
X92702708Y-39133478D01*
X92699632Y-39094604D01*
X92702111Y-39055359D01*
X92709448Y-39020340D01*
X92720950Y-38994145D01*
X92735921Y-38981370D01*
X92740216Y-38980813D01*
X92750743Y-38989252D01*
G37*
G36*
X93505828Y-37289442D02*
G01*
X93520171Y-37298568D01*
X93525256Y-37303747D01*
X93536353Y-37318034D01*
X93541802Y-37332098D01*
X93540353Y-37347505D01*
X93530755Y-37365824D01*
X93511760Y-37388621D01*
X93482117Y-37417465D01*
X93440576Y-37453922D01*
X93385887Y-37499561D01*
X93337683Y-37538975D01*
X93293568Y-37574919D01*
X93250473Y-37610108D01*
X93212690Y-37641030D01*
X93184512Y-37664176D01*
X93179226Y-37668539D01*
X93134117Y-37705314D01*
X93100677Y-37731058D01*
X93076084Y-37747587D01*
X93057512Y-37756719D01*
X93042140Y-37760269D01*
X93036235Y-37760533D01*
X93007651Y-37751837D01*
X92993581Y-37736798D01*
X92983633Y-37711416D01*
X92984219Y-37693563D01*
X92995453Y-37676621D01*
X93020230Y-37650540D01*
X93056284Y-37617373D01*
X93101351Y-37579173D01*
X93153169Y-37537995D01*
X93169389Y-37525597D01*
X93198368Y-37503159D01*
X93237813Y-37471946D01*
X93283261Y-37435521D01*
X93330250Y-37397448D01*
X93347373Y-37383460D01*
X93398334Y-37342584D01*
X93437348Y-37313781D01*
X93466727Y-37296013D01*
X93488784Y-37288245D01*
X93505828Y-37289442D01*
G37*
G36*
X94837884Y-40233232D02*
G01*
X94867681Y-40244666D01*
X94899261Y-40264218D01*
X94927017Y-40288768D01*
X94936674Y-40300486D01*
X94956656Y-40334112D01*
X94970689Y-40373267D01*
X94979320Y-40421191D01*
X94983094Y-40481127D01*
X94982558Y-40556313D01*
X94982104Y-40570111D01*
X94978744Y-40634024D01*
X94973099Y-40682777D01*
X94963992Y-40720544D01*
X94950250Y-40751500D01*
X94930698Y-40779819D01*
X94919328Y-40793225D01*
X94897469Y-40811245D01*
X94868512Y-40826777D01*
X94837590Y-40838167D01*
X94809839Y-40843764D01*
X94790393Y-40841914D01*
X94784839Y-40836521D01*
X94787488Y-40822892D01*
X94798900Y-40797541D01*
X94816989Y-40764789D01*
X94828628Y-40745815D01*
X94877615Y-40668656D01*
X94877615Y-40535705D01*
X94877381Y-40481631D01*
X94876308Y-40442869D01*
X94873837Y-40415363D01*
X94869412Y-40395061D01*
X94862474Y-40377908D01*
X94853719Y-40361978D01*
X94835278Y-40326778D01*
X94818781Y-40289329D01*
X94815268Y-40279951D01*
X94806991Y-40254136D01*
X94806069Y-40240747D01*
X94812527Y-40234283D01*
X94815476Y-40233036D01*
X94837884Y-40233232D01*
G37*
G36*
X93053623Y-37533599D02*
G01*
X93072184Y-37541861D01*
X93084743Y-37553544D01*
X93086140Y-37559199D01*
X93043880Y-37589690D01*
X93009993Y-37611271D01*
X92978278Y-37627787D01*
X92968162Y-37632372D01*
X92939464Y-37648869D01*
X92904727Y-37674663D01*
X92866799Y-37706908D01*
X92828529Y-37742757D01*
X92792767Y-37779362D01*
X92762361Y-37813878D01*
X92740161Y-37843456D01*
X92729017Y-37865250D01*
X92728401Y-37871954D01*
X92727161Y-37887406D01*
X92721893Y-37913586D01*
X92714378Y-37942743D01*
X92706715Y-37966309D01*
X92693295Y-37987997D01*
X92677417Y-37990505D01*
X92659542Y-37973794D01*
X92657054Y-37970145D01*
X92638474Y-37924479D01*
X92634571Y-37867318D01*
X92640475Y-37822045D01*
X92645540Y-37799202D01*
X92652036Y-37780373D01*
X92662343Y-37762271D01*
X92678838Y-37741607D01*
X92703901Y-37715093D01*
X92739911Y-37679441D01*
X92752635Y-37667027D01*
X92792378Y-37629725D01*
X92831158Y-37595842D01*
X92865139Y-37568564D01*
X92890485Y-37551079D01*
X92895447Y-37548403D01*
X92932231Y-37535908D01*
X92975184Y-37529116D01*
X93017812Y-37528266D01*
X93053623Y-37533599D01*
G37*
G36*
X94685113Y-41021054D02*
G01*
X94688008Y-41023250D01*
X94701805Y-41045618D01*
X94708832Y-41080763D01*
X94708646Y-41123159D01*
X94700802Y-41167277D01*
X94699854Y-41170634D01*
X94684640Y-41207809D01*
X94659888Y-41243806D01*
X94623198Y-41281316D01*
X94572174Y-41323025D01*
X94547918Y-41340977D01*
X94478202Y-41387596D01*
X94417685Y-41419145D01*
X94364217Y-41436246D01*
X94315648Y-41439522D01*
X94269828Y-41429598D01*
X94258155Y-41424955D01*
X94227829Y-41409022D01*
X94203758Y-41391391D01*
X94190970Y-41375963D01*
X94190082Y-41372132D01*
X94190768Y-41368814D01*
X94194914Y-41365768D01*
X94205646Y-41362094D01*
X94226094Y-41356897D01*
X94259385Y-41349277D01*
X94305215Y-41339098D01*
X94353345Y-41325628D01*
X94397427Y-41306132D01*
X94445866Y-41276831D01*
X94450469Y-41273757D01*
X94498604Y-41241140D01*
X94533642Y-41216141D01*
X94558680Y-41195750D01*
X94576812Y-41176961D01*
X94591134Y-41156765D01*
X94604742Y-41132153D01*
X94612921Y-41115889D01*
X94635978Y-41070523D01*
X94652914Y-41040591D01*
X94665541Y-41023858D01*
X94675670Y-41018091D01*
X94685113Y-41021054D01*
G37*
G36*
X93139021Y-41312128D02*
G01*
X93167739Y-41319596D01*
X93196336Y-41335366D01*
X93199937Y-41337757D01*
X93223949Y-41357105D01*
X93238706Y-41375294D01*
X93241092Y-41382809D01*
X93238381Y-41391773D01*
X93227803Y-41397968D01*
X93205695Y-41402520D01*
X93168391Y-41406557D01*
X93162037Y-41407120D01*
X93128105Y-41410761D01*
X93099125Y-41416136D01*
X93070336Y-41424863D01*
X93036977Y-41438558D01*
X92994287Y-41458841D01*
X92961103Y-41475405D01*
X92909898Y-41501759D01*
X92872245Y-41522951D01*
X92844065Y-41541834D01*
X92821280Y-41561267D01*
X92799814Y-41584104D01*
X92790806Y-41594685D01*
X92766350Y-41622224D01*
X92745400Y-41642766D01*
X92731813Y-41652597D01*
X92730284Y-41652952D01*
X92721908Y-41643915D01*
X92718326Y-41616126D01*
X92718179Y-41606354D01*
X92721093Y-41559703D01*
X92731204Y-41520432D01*
X92750569Y-41486152D01*
X92781243Y-41454472D01*
X92825284Y-41423000D01*
X92884746Y-41389346D01*
X92920419Y-41371194D01*
X92971021Y-41346497D01*
X93008691Y-41329499D01*
X93037593Y-41318795D01*
X93061889Y-41312980D01*
X93085741Y-41310648D01*
X93100680Y-41310339D01*
X93139021Y-41312128D01*
G37*
G36*
X92629018Y-38200740D02*
G01*
X92630301Y-38213402D01*
X92626011Y-38238564D01*
X92617648Y-38270697D01*
X92606712Y-38304270D01*
X92594700Y-38333755D01*
X92590885Y-38341404D01*
X92581269Y-38370141D01*
X92575144Y-38410583D01*
X92572326Y-38458461D01*
X92572635Y-38509507D01*
X92575886Y-38559454D01*
X92581899Y-38604035D01*
X92590490Y-38638983D01*
X92601478Y-38660028D01*
X92604607Y-38662636D01*
X92613467Y-38674855D01*
X92625221Y-38698868D01*
X92637121Y-38727944D01*
X92646422Y-38755348D01*
X92650378Y-38774347D01*
X92650386Y-38774887D01*
X92642794Y-38784935D01*
X92623184Y-38786134D01*
X92596337Y-38779277D01*
X92567032Y-38765156D01*
X92558530Y-38759660D01*
X92529296Y-38737974D01*
X92507862Y-38716962D01*
X92492991Y-38693115D01*
X92483446Y-38662923D01*
X92477989Y-38622880D01*
X92475382Y-38569475D01*
X92474584Y-38521682D01*
X92474018Y-38457190D01*
X92473986Y-38408990D01*
X92474710Y-38374007D01*
X92476412Y-38349168D01*
X92479313Y-38331400D01*
X92483635Y-38317629D01*
X92489601Y-38304781D01*
X92490350Y-38303325D01*
X92508781Y-38276262D01*
X92534406Y-38249278D01*
X92563245Y-38225316D01*
X92591321Y-38207320D01*
X92614654Y-38198233D01*
X92629018Y-38200740D01*
G37*
G36*
X89874878Y-38591792D02*
G01*
X89888816Y-38617375D01*
X89909720Y-38657293D01*
X89936814Y-38710018D01*
X89969321Y-38774021D01*
X90006466Y-38847774D01*
X90047470Y-38929748D01*
X90091559Y-39018414D01*
X90137671Y-39111668D01*
X90197413Y-39232812D01*
X90249159Y-39337751D01*
X90293475Y-39427654D01*
X90330927Y-39503686D01*
X90362079Y-39567017D01*
X90387498Y-39618812D01*
X90407748Y-39660241D01*
X90423396Y-39692470D01*
X90435006Y-39716667D01*
X90443145Y-39733999D01*
X90448377Y-39745634D01*
X90451267Y-39752740D01*
X90452383Y-39756484D01*
X90452288Y-39758033D01*
X90451548Y-39758555D01*
X90451090Y-39758813D01*
X90440776Y-39764187D01*
X90419182Y-39774400D01*
X90408648Y-39779228D01*
X90376009Y-39794282D01*
X90338086Y-39812074D01*
X90322105Y-39819666D01*
X90294700Y-39832306D01*
X90274974Y-39840573D01*
X90268845Y-39842443D01*
X90263701Y-39834004D01*
X90250631Y-39809644D01*
X90230355Y-39770774D01*
X90203591Y-39718805D01*
X90171060Y-39655146D01*
X90133480Y-39581208D01*
X90091572Y-39498401D01*
X90046054Y-39408136D01*
X89997646Y-39311822D01*
X89969586Y-39255855D01*
X89920019Y-39156779D01*
X89873175Y-39062905D01*
X89829751Y-38975644D01*
X89790446Y-38896412D01*
X89755957Y-38826621D01*
X89726981Y-38767685D01*
X89704217Y-38721018D01*
X89688362Y-38688033D01*
X89680114Y-38670144D01*
X89679079Y-38667246D01*
X89706401Y-38651576D01*
X89740920Y-38633890D01*
X89778270Y-38616147D01*
X89814089Y-38600309D01*
X89844012Y-38588335D01*
X89863674Y-38582185D01*
X89868683Y-38582074D01*
X89874878Y-38591792D01*
G37*
G36*
X90335531Y-41774301D02*
G01*
X90360868Y-41786784D01*
X90392269Y-41804334D01*
X90425328Y-41824270D01*
X90455638Y-41843908D01*
X90478792Y-41860569D01*
X90490383Y-41871570D01*
X90490958Y-41873184D01*
X90486648Y-41884816D01*
X90474345Y-41911753D01*
X90454991Y-41952117D01*
X90429527Y-42004030D01*
X90398894Y-42065614D01*
X90364034Y-42134990D01*
X90325889Y-42210280D01*
X90285400Y-42289607D01*
X90243507Y-42371091D01*
X90201154Y-42452856D01*
X90181299Y-42490956D01*
X90145058Y-42560490D01*
X90105584Y-42636450D01*
X90064665Y-42715379D01*
X90024086Y-42793821D01*
X89985634Y-42868320D01*
X89951096Y-42935419D01*
X89922257Y-42991663D01*
X89903994Y-43027496D01*
X89878380Y-43074729D01*
X89858713Y-43103702D01*
X89844896Y-43114552D01*
X89843478Y-43114636D01*
X89828363Y-43109669D01*
X89801293Y-43097144D01*
X89767004Y-43079328D01*
X89750165Y-43070010D01*
X89715856Y-43050527D01*
X89688558Y-43034795D01*
X89672219Y-43025102D01*
X89669391Y-43023231D01*
X89671306Y-43017109D01*
X89679048Y-42999985D01*
X89692933Y-42971239D01*
X89713277Y-42930249D01*
X89740394Y-42876395D01*
X89774601Y-42809054D01*
X89816211Y-42727608D01*
X89865542Y-42631433D01*
X89922907Y-42519910D01*
X89988624Y-42392417D01*
X90057728Y-42258550D01*
X90111789Y-42153937D01*
X90157692Y-42065253D01*
X90196134Y-41991203D01*
X90227810Y-41930493D01*
X90253417Y-41881827D01*
X90273651Y-41843910D01*
X90289210Y-41815447D01*
X90300788Y-41795144D01*
X90309084Y-41781704D01*
X90314792Y-41773834D01*
X90318610Y-41770237D01*
X90320665Y-41769565D01*
X90335531Y-41774301D01*
G37*
G36*
X88988328Y-40091568D02*
G01*
X89010044Y-40110459D01*
X89038289Y-40138194D01*
X89070190Y-40171704D01*
X89102874Y-40207920D01*
X89133469Y-40243775D01*
X89159100Y-40276200D01*
X89170939Y-40292786D01*
X89217718Y-40368165D01*
X89254365Y-40441641D01*
X89282676Y-40518241D01*
X89304448Y-40602989D01*
X89321475Y-40700911D01*
X89324435Y-40722264D01*
X89330874Y-40774571D01*
X89333973Y-40814961D01*
X89333752Y-40850591D01*
X89330233Y-40888617D01*
X89325050Y-40925619D01*
X89309014Y-41017844D01*
X89290059Y-41096043D01*
X89266198Y-41165536D01*
X89235444Y-41231644D01*
X89195810Y-41299684D01*
X89171307Y-41337184D01*
X89147903Y-41368969D01*
X89118115Y-41405081D01*
X89084833Y-41442514D01*
X89050945Y-41478266D01*
X89019340Y-41509332D01*
X88992907Y-41532708D01*
X88974534Y-41545390D01*
X88969739Y-41546808D01*
X88956956Y-41539961D01*
X88935264Y-41521572D01*
X88908278Y-41494873D01*
X88892307Y-41477615D01*
X88865137Y-41446813D01*
X88843207Y-41420976D01*
X88829569Y-41403751D01*
X88826692Y-41399226D01*
X88830947Y-41387808D01*
X88845613Y-41367809D01*
X88861675Y-41349796D01*
X88926267Y-41272618D01*
X88982690Y-41186046D01*
X89027927Y-41095467D01*
X89058960Y-41006268D01*
X89062764Y-40990948D01*
X89071941Y-40934246D01*
X89076967Y-40865803D01*
X89077841Y-40792580D01*
X89074559Y-40721537D01*
X89067116Y-40659634D01*
X89062926Y-40638785D01*
X89039214Y-40562398D01*
X89004284Y-40482894D01*
X88961284Y-40405929D01*
X88913362Y-40337159D01*
X88865242Y-40283712D01*
X88846483Y-40263107D01*
X88835921Y-40245833D01*
X88835068Y-40241870D01*
X88841301Y-40229178D01*
X88857707Y-40206910D01*
X88880851Y-40178899D01*
X88907297Y-40148981D01*
X88933608Y-40120990D01*
X88956349Y-40098759D01*
X88972084Y-40086124D01*
X88976013Y-40084589D01*
X88988328Y-40091568D01*
G37*
G36*
X92253376Y-42491932D02*
G01*
X92255611Y-42505199D01*
X92252945Y-42530542D01*
X92246766Y-42561717D01*
X92238463Y-42592484D01*
X92229425Y-42616599D01*
X92223540Y-42626042D01*
X92220386Y-42638547D01*
X92217723Y-42666733D01*
X92215768Y-42706917D01*
X92214738Y-42755416D01*
X92214634Y-42777237D01*
X92214757Y-42832503D01*
X92215464Y-42871840D01*
X92217256Y-42898688D01*
X92220638Y-42916485D01*
X92226113Y-42928671D01*
X92234184Y-42938684D01*
X92238980Y-42943580D01*
X92276108Y-42968140D01*
X92318416Y-42974813D01*
X92354382Y-42966352D01*
X92376230Y-42955979D01*
X92392431Y-42943792D01*
X92403822Y-42926912D01*
X92411244Y-42902460D01*
X92415536Y-42867558D01*
X92417538Y-42819326D01*
X92418088Y-42754886D01*
X92418095Y-42747837D01*
X92418807Y-42665305D01*
X92420855Y-42601454D01*
X92424291Y-42555640D01*
X92429169Y-42527220D01*
X92435541Y-42515549D01*
X92437141Y-42515165D01*
X92453369Y-42523147D01*
X92473855Y-42544052D01*
X92494531Y-42573318D01*
X92503752Y-42589827D01*
X92511955Y-42607868D01*
X92517685Y-42626907D01*
X92521373Y-42650785D01*
X92523450Y-42683344D01*
X92524349Y-42728427D01*
X92524508Y-42774748D01*
X92524036Y-42835693D01*
X92522416Y-42880681D01*
X92519345Y-42913102D01*
X92514517Y-42936347D01*
X92508596Y-42951859D01*
X92473346Y-43005191D01*
X92426828Y-43046098D01*
X92372482Y-43072857D01*
X92313746Y-43083749D01*
X92256899Y-43077802D01*
X92209616Y-43056811D01*
X92164315Y-43020074D01*
X92136304Y-42986934D01*
X92108114Y-42948020D01*
X92108274Y-42782431D01*
X92108502Y-42721288D01*
X92109296Y-42676115D01*
X92111019Y-42643516D01*
X92114037Y-42620094D01*
X92118715Y-42602454D01*
X92125416Y-42587199D01*
X92130178Y-42578451D01*
X92148047Y-42554669D01*
X92173000Y-42530792D01*
X92200627Y-42509916D01*
X92226520Y-42495137D01*
X92246272Y-42489550D01*
X92253376Y-42491932D01*
G37*
G36*
X89904470Y-36683115D02*
G01*
X89928039Y-36702485D01*
X89958786Y-36731592D01*
X89994212Y-36767771D01*
X90031819Y-36808362D01*
X90069109Y-36850701D01*
X90103583Y-36892125D01*
X90132743Y-36929971D01*
X90144815Y-36947113D01*
X90184593Y-37013067D01*
X90222069Y-37088037D01*
X90254299Y-37165282D01*
X90278337Y-37238063D01*
X90286540Y-37271513D01*
X90294815Y-37309819D01*
X90303155Y-37346250D01*
X90307653Y-37364630D01*
X90312426Y-37395441D01*
X90314800Y-37438151D01*
X90315016Y-37488803D01*
X90313311Y-37543439D01*
X90309924Y-37598101D01*
X90305096Y-37648833D01*
X90299064Y-37691676D01*
X90292067Y-37722672D01*
X90285155Y-37737159D01*
X90278942Y-37752142D01*
X90277920Y-37762329D01*
X90274496Y-37781583D01*
X90265412Y-37813473D01*
X90252449Y-37852754D01*
X90237389Y-37894184D01*
X90222014Y-37932518D01*
X90213920Y-37950701D01*
X90195720Y-37985042D01*
X90170228Y-38026976D01*
X90139449Y-38073808D01*
X90105383Y-38122843D01*
X90070035Y-38171384D01*
X90035405Y-38216736D01*
X90003498Y-38256203D01*
X89976315Y-38287091D01*
X89955858Y-38306703D01*
X89945141Y-38312496D01*
X89933100Y-38306365D01*
X89910580Y-38289858D01*
X89881272Y-38265799D01*
X89860886Y-38247952D01*
X89830119Y-38219905D01*
X89805253Y-38196373D01*
X89789556Y-38180495D01*
X89785830Y-38175801D01*
X89790797Y-38166079D01*
X89806616Y-38145610D01*
X89830689Y-38117583D01*
X89854744Y-38091223D01*
X89929134Y-38002535D01*
X89986484Y-37914113D01*
X90012074Y-37862210D01*
X90035773Y-37805634D01*
X90053185Y-37758129D01*
X90065260Y-37714684D01*
X90072954Y-37670288D01*
X90077218Y-37619932D01*
X90079005Y-37558604D01*
X90079291Y-37508760D01*
X90078595Y-37435893D01*
X90075779Y-37377528D01*
X90069931Y-37328839D01*
X90060140Y-37285000D01*
X90045493Y-37241182D01*
X90025078Y-37192561D01*
X90015618Y-37171821D01*
X90001565Y-37140789D01*
X89991461Y-37117215D01*
X89987419Y-37106038D01*
X89987413Y-37105926D01*
X89981261Y-37090845D01*
X89964584Y-37064981D01*
X89940048Y-37031732D01*
X89910320Y-36994495D01*
X89878067Y-36956666D01*
X89845955Y-36921643D01*
X89830234Y-36905703D01*
X89799705Y-36874726D01*
X89775535Y-36848295D01*
X89760418Y-36829485D01*
X89756706Y-36821765D01*
X89766048Y-36806571D01*
X89784612Y-36783021D01*
X89808823Y-36755007D01*
X89835101Y-36726421D01*
X89859870Y-36701154D01*
X89879551Y-36683098D01*
X89890567Y-36676145D01*
X89890577Y-36676145D01*
X89904470Y-36683115D01*
G37*
G36*
X91208257Y-40009378D02*
G01*
X91220417Y-40015628D01*
X91236359Y-40027029D01*
X91256877Y-40044337D01*
X91282764Y-40068310D01*
X91314816Y-40099704D01*
X91353827Y-40139275D01*
X91400590Y-40187781D01*
X91455901Y-40245978D01*
X91520553Y-40314624D01*
X91595341Y-40394473D01*
X91681060Y-40486284D01*
X91778503Y-40590813D01*
X91875709Y-40695130D01*
X91956675Y-40782139D01*
X92027559Y-40858575D01*
X92087820Y-40923850D01*
X92136917Y-40977374D01*
X92174311Y-41018558D01*
X92199461Y-41046812D01*
X92211525Y-41061149D01*
X92223234Y-41088529D01*
X92215775Y-41113933D01*
X92206858Y-41123846D01*
X92197588Y-41129659D01*
X92182580Y-41134031D01*
X92159090Y-41137223D01*
X92124375Y-41139497D01*
X92075693Y-41141112D01*
X92012644Y-41142293D01*
X91835889Y-41144940D01*
X91896643Y-41232092D01*
X91935300Y-41282812D01*
X91985070Y-41341000D01*
X92042540Y-41403249D01*
X92104296Y-41466153D01*
X92166924Y-41526306D01*
X92227010Y-41580300D01*
X92281141Y-41624729D01*
X92313890Y-41648468D01*
X92348796Y-41672648D01*
X92376716Y-41693498D01*
X92394277Y-41708406D01*
X92398621Y-41714117D01*
X92391912Y-41724646D01*
X92374342Y-41743638D01*
X92350254Y-41766482D01*
X92318154Y-41799999D01*
X92281088Y-41846103D01*
X92242482Y-41899926D01*
X92205762Y-41956601D01*
X92174355Y-42011260D01*
X92164784Y-42029965D01*
X92147805Y-42074019D01*
X92135471Y-42123740D01*
X92132531Y-42143747D01*
X92126734Y-42181575D01*
X92119180Y-42201406D01*
X92112664Y-42205291D01*
X92101742Y-42198757D01*
X92079742Y-42180643D01*
X92049161Y-42153178D01*
X92012496Y-42118595D01*
X91979824Y-42086667D01*
X91868849Y-41971041D01*
X91772104Y-41857544D01*
X91685987Y-41741200D01*
X91606898Y-41617031D01*
X91531237Y-41480058D01*
X91507916Y-41434221D01*
X91444375Y-41307108D01*
X91379418Y-41380961D01*
X91330015Y-41436948D01*
X91291521Y-41479691D01*
X91262111Y-41510540D01*
X91239964Y-41530847D01*
X91223258Y-41541963D01*
X91210170Y-41545239D01*
X91198876Y-41542026D01*
X91187556Y-41533674D01*
X91181211Y-41527896D01*
X91168208Y-41508329D01*
X91152842Y-41473363D01*
X91136271Y-41426643D01*
X91119656Y-41371814D01*
X91104156Y-41312523D01*
X91090932Y-41252412D01*
X91087098Y-41232092D01*
X91078800Y-41186082D01*
X91070585Y-41140822D01*
X91063909Y-41104313D01*
X91062471Y-41096522D01*
X91056339Y-41050952D01*
X91051609Y-40990821D01*
X91048394Y-40920894D01*
X91046808Y-40845934D01*
X91046963Y-40770706D01*
X91048973Y-40699972D01*
X91051893Y-40651078D01*
X91065889Y-40511393D01*
X91085386Y-40377112D01*
X91109530Y-40253666D01*
X91123535Y-40195950D01*
X91138348Y-40139831D01*
X91149470Y-40099236D01*
X91157931Y-40070908D01*
X91164762Y-40051589D01*
X91170993Y-40038020D01*
X91176373Y-40028909D01*
X91181542Y-40020754D01*
X91186520Y-40013968D01*
X91192102Y-40009305D01*
X91199083Y-40007523D01*
X91208257Y-40009378D01*
G37*
G36*
X96318385Y-40007121D02*
G01*
X96330731Y-40009413D01*
X96342135Y-40017371D01*
X96353132Y-40032617D01*
X96364254Y-40056774D01*
X96376038Y-40091462D01*
X96389017Y-40138305D01*
X96403725Y-40198925D01*
X96420698Y-40274943D01*
X96440469Y-40367982D01*
X96445989Y-40394463D01*
X96452474Y-40433291D01*
X96459095Y-40486412D01*
X96465301Y-40548766D01*
X96470540Y-40615291D01*
X96471309Y-40626869D01*
X96472325Y-40653313D01*
X96473064Y-40693918D01*
X96473528Y-40744366D01*
X96473722Y-40800343D01*
X96473648Y-40857532D01*
X96473310Y-40911617D01*
X96472711Y-40958283D01*
X96471854Y-40993214D01*
X96471022Y-41009370D01*
X96464577Y-41082582D01*
X96458913Y-41139086D01*
X96453728Y-41181513D01*
X96448722Y-41212492D01*
X96446671Y-41222409D01*
X96440162Y-41251591D01*
X96431345Y-41291220D01*
X96422102Y-41332836D01*
X96421895Y-41333770D01*
X96402455Y-41412362D01*
X96383040Y-41472276D01*
X96363330Y-41514198D01*
X96343002Y-41538813D01*
X96321854Y-41546808D01*
X96306176Y-41539799D01*
X96280408Y-41518540D01*
X96244194Y-41482683D01*
X96197181Y-41431879D01*
X96145924Y-41373758D01*
X96116413Y-41341423D01*
X96094613Y-41321040D01*
X96082141Y-41314032D01*
X96079992Y-41315656D01*
X96074356Y-41329277D01*
X96062068Y-41356268D01*
X96044991Y-41392606D01*
X96026762Y-41430605D01*
X95951494Y-41575350D01*
X95870928Y-41708183D01*
X95781963Y-41833393D01*
X95681501Y-41955269D01*
X95566444Y-42078100D01*
X95539552Y-42104998D01*
X95396386Y-42234784D01*
X95241837Y-42351648D01*
X95074468Y-42456502D01*
X94892840Y-42550260D01*
X94723925Y-42622797D01*
X94677185Y-42641276D01*
X94635644Y-42657822D01*
X94603307Y-42670830D01*
X94584180Y-42678697D01*
X94582266Y-42679524D01*
X94563866Y-42687119D01*
X94533639Y-42699075D01*
X94497874Y-42712905D01*
X94495114Y-42713959D01*
X94439671Y-42736049D01*
X94378003Y-42762142D01*
X94314086Y-42790408D01*
X94251893Y-42819013D01*
X94195400Y-42846128D01*
X94148582Y-42869920D01*
X94115412Y-42888558D01*
X94113146Y-42889974D01*
X94038835Y-42939920D01*
X93970457Y-42992626D01*
X93901115Y-43053569D01*
X93869350Y-43083608D01*
X93825585Y-43123967D01*
X93792913Y-43149971D01*
X93770321Y-43162385D01*
X93762831Y-43163740D01*
X93746950Y-43158133D01*
X93723091Y-43140785D01*
X93689872Y-43110548D01*
X93647802Y-43068236D01*
X93556938Y-42984875D01*
X93451651Y-42908413D01*
X93330795Y-42838178D01*
X93193224Y-42773497D01*
X93054327Y-42719530D01*
X93001936Y-42700220D01*
X92940095Y-42676422D01*
X92874421Y-42650391D01*
X92810531Y-42624380D01*
X92754044Y-42600644D01*
X92713337Y-42582705D01*
X92683107Y-42567810D01*
X92647098Y-42548494D01*
X92609159Y-42527033D01*
X92573140Y-42505704D01*
X92542891Y-42486784D01*
X92522259Y-42472547D01*
X92515075Y-42465464D01*
X92522486Y-42457662D01*
X92542350Y-42442505D01*
X92570731Y-42422953D01*
X92577787Y-42418316D01*
X92611297Y-42394337D01*
X92641552Y-42367222D01*
X92671506Y-42333602D01*
X92704114Y-42290109D01*
X92742329Y-42233375D01*
X92749003Y-42223089D01*
X92780276Y-42173467D01*
X92802056Y-42134504D01*
X92816122Y-42101111D01*
X92824253Y-42068198D01*
X92828229Y-42030676D01*
X92829647Y-41992437D01*
X92831675Y-41900628D01*
X92980703Y-41900428D01*
X93038028Y-41900191D01*
X93079976Y-41899303D01*
X93110534Y-41897228D01*
X93133692Y-41893433D01*
X93153439Y-41887384D01*
X93173762Y-41878548D01*
X93185090Y-41873063D01*
X93255446Y-41828241D01*
X93313805Y-41768532D01*
X93360667Y-41693413D01*
X93363586Y-41687448D01*
X93380424Y-41654129D01*
X93394740Y-41628816D01*
X93404162Y-41615602D01*
X93405839Y-41614593D01*
X93417426Y-41621136D01*
X93424199Y-41628057D01*
X93449287Y-41646842D01*
X93489640Y-41663566D01*
X93541175Y-41676962D01*
X93599804Y-41685760D01*
X93613909Y-41687003D01*
X93666902Y-41688410D01*
X93728017Y-41685863D01*
X93791758Y-41679999D01*
X93852627Y-41671453D01*
X93905128Y-41660859D01*
X93943698Y-41648881D01*
X93981196Y-41626806D01*
X94020435Y-41593567D01*
X94054960Y-41555426D01*
X94078318Y-41518645D01*
X94078626Y-41517967D01*
X94090808Y-41494383D01*
X94100948Y-41480544D01*
X94103714Y-41479023D01*
X94109522Y-41487678D01*
X94116895Y-41510121D01*
X94122758Y-41534704D01*
X94147321Y-41626344D01*
X94180233Y-41702307D01*
X94222527Y-41764846D01*
X94234434Y-41778374D01*
X94293743Y-41831642D01*
X94359824Y-41869608D01*
X94434769Y-41892976D01*
X94520668Y-41902451D01*
X94596791Y-41900639D01*
X94649758Y-41895081D01*
X94707945Y-41886079D01*
X94765572Y-41874795D01*
X94816859Y-41862388D01*
X94856026Y-41850022D01*
X94863090Y-41847141D01*
X94978562Y-41793909D01*
X95081196Y-41740816D01*
X95168986Y-41688975D01*
X95239932Y-41639494D01*
X95245591Y-41635061D01*
X95279883Y-41607336D01*
X95318920Y-41574900D01*
X95358766Y-41541119D01*
X95395489Y-41509361D01*
X95425156Y-41482995D01*
X95443833Y-41465386D01*
X95444146Y-41465066D01*
X95495721Y-41408868D01*
X95550492Y-41343767D01*
X95602189Y-41277450D01*
X95638097Y-41227250D01*
X95693879Y-41144940D01*
X95514767Y-41140098D01*
X95437872Y-41137481D01*
X95379343Y-41133534D01*
X95338178Y-41127108D01*
X95313376Y-41117054D01*
X95303937Y-41102222D01*
X95308859Y-41081462D01*
X95327141Y-41053626D01*
X95357782Y-41017564D01*
X95383581Y-40989459D01*
X95410195Y-40960907D01*
X95447695Y-40920734D01*
X95493730Y-40871454D01*
X95545950Y-40815584D01*
X95602004Y-40755638D01*
X95659541Y-40694132D01*
X95686193Y-40665651D01*
X95749388Y-40598043D01*
X95817297Y-40525244D01*
X95886437Y-40450999D01*
X95953323Y-40379052D01*
X96014473Y-40313147D01*
X96066404Y-40257029D01*
X96073536Y-40249304D01*
X96133551Y-40184292D01*
X96181846Y-40132097D01*
X96219843Y-40091312D01*
X96248964Y-40060531D01*
X96270634Y-40038347D01*
X96286273Y-40023351D01*
X96297304Y-40014138D01*
X96305151Y-40009300D01*
X96311235Y-40007429D01*
X96316980Y-40007119D01*
X96318385Y-40007121D01*
G37*
G36*
X93824132Y-36325056D02*
G01*
X93846315Y-36328347D01*
X93958655Y-36351204D01*
X94056455Y-36382512D01*
X94143340Y-36424013D01*
X94222939Y-36477450D01*
X94298877Y-36544564D01*
X94301166Y-36546836D01*
X94379840Y-36638376D01*
X94442509Y-36739254D01*
X94488781Y-36847394D01*
X94518259Y-36960723D01*
X94530550Y-37077166D01*
X94525259Y-37194650D01*
X94501990Y-37311101D01*
X94465835Y-37412210D01*
X94413309Y-37509801D01*
X94345444Y-37600271D01*
X94265240Y-37680580D01*
X94175698Y-37747693D01*
X94087459Y-37795254D01*
X94034707Y-37818583D01*
X94037347Y-37995334D01*
X94039986Y-38172084D01*
X94683944Y-38178090D01*
X94827891Y-38179517D01*
X94953684Y-38180968D01*
X95062538Y-38182496D01*
X95155666Y-38184150D01*
X95234281Y-38185983D01*
X95299598Y-38188044D01*
X95352830Y-38190386D01*
X95395190Y-38193058D01*
X95427893Y-38196111D01*
X95452152Y-38199598D01*
X95469181Y-38203568D01*
X95480193Y-38208073D01*
X95485126Y-38211723D01*
X95489152Y-38225177D01*
X95492441Y-38254326D01*
X95494966Y-38295514D01*
X95496700Y-38345081D01*
X95497617Y-38399370D01*
X95497688Y-38454723D01*
X95496888Y-38507481D01*
X95495190Y-38553987D01*
X95492567Y-38590582D01*
X95488991Y-38613609D01*
X95488096Y-38616434D01*
X95479933Y-38632605D01*
X95467631Y-38645190D01*
X95448769Y-38654752D01*
X95420924Y-38661850D01*
X95381675Y-38667045D01*
X95328602Y-38670896D01*
X95259282Y-38673963D01*
X95235907Y-38674783D01*
X95165330Y-38677236D01*
X95082226Y-38680244D01*
X94993418Y-38683553D01*
X94905728Y-38686908D01*
X94825980Y-38690056D01*
X94824355Y-38690121D01*
X94749591Y-38693073D01*
X94661504Y-38696450D01*
X94566126Y-38700028D01*
X94469490Y-38703582D01*
X94377629Y-38706887D01*
X94330493Y-38708546D01*
X94260078Y-38711017D01*
X94196206Y-38713289D01*
X94141368Y-38715272D01*
X94098058Y-38716875D01*
X94068767Y-38718005D01*
X94055990Y-38718572D01*
X94055660Y-38718602D01*
X94054893Y-38728018D01*
X94054681Y-38754179D01*
X94054995Y-38794473D01*
X94055805Y-38846287D01*
X94057081Y-38907007D01*
X94058382Y-38958874D01*
X94060204Y-39027516D01*
X94062397Y-39111129D01*
X94064849Y-39205327D01*
X94067445Y-39305719D01*
X94070073Y-39407917D01*
X94072617Y-39507533D01*
X94074115Y-39566518D01*
X94079399Y-39773848D01*
X94084347Y-39965178D01*
X94088949Y-40140093D01*
X94093191Y-40298177D01*
X94097064Y-40439016D01*
X94100555Y-40562193D01*
X94103653Y-40667295D01*
X94106347Y-40753906D01*
X94108625Y-40821611D01*
X94108827Y-40827265D01*
X94114823Y-40993769D01*
X94080868Y-41064513D01*
X94064157Y-41099965D01*
X94050435Y-41130240D01*
X94042180Y-41149838D01*
X94041333Y-41152203D01*
X94030596Y-41167422D01*
X94016745Y-41164479D01*
X94007223Y-41151892D01*
X93987335Y-41131407D01*
X93953009Y-41112495D01*
X93909169Y-41097155D01*
X93860739Y-41087386D01*
X93844173Y-41085694D01*
X93804185Y-41084580D01*
X93753674Y-41085808D01*
X93701309Y-41089100D01*
X93681694Y-41090941D01*
X93639126Y-41095385D01*
X93602916Y-41099129D01*
X93577985Y-41101668D01*
X93570333Y-41102415D01*
X93554633Y-41107011D01*
X93527424Y-41117793D01*
X93494592Y-41132427D01*
X93494528Y-41132457D01*
X93463689Y-41146137D01*
X93440395Y-41155021D01*
X93429420Y-41157300D01*
X93429253Y-41157183D01*
X93427949Y-41155125D01*
X93426814Y-41151104D01*
X93425861Y-41144194D01*
X93425103Y-41133471D01*
X93424553Y-41118011D01*
X93424224Y-41096890D01*
X93424128Y-41069181D01*
X93424279Y-41033961D01*
X93424690Y-40990305D01*
X93425373Y-40937289D01*
X93426341Y-40873988D01*
X93427608Y-40799477D01*
X93429186Y-40712832D01*
X93431088Y-40613127D01*
X93433327Y-40499440D01*
X93435917Y-40370844D01*
X93438869Y-40226415D01*
X93442197Y-40065229D01*
X93445914Y-39886360D01*
X93449252Y-39726297D01*
X93451144Y-39641297D01*
X93453352Y-39551368D01*
X93455740Y-39461539D01*
X93458168Y-39376842D01*
X93460499Y-39302307D01*
X93462259Y-39251802D01*
X93464653Y-39176535D01*
X93466655Y-39092171D01*
X93468120Y-39006663D01*
X93468900Y-38927960D01*
X93468980Y-38888740D01*
X93468655Y-38825711D01*
X93467808Y-38779563D01*
X93466229Y-38747814D01*
X93463705Y-38727980D01*
X93460027Y-38717578D01*
X93454982Y-38714126D01*
X93454130Y-38714055D01*
X93429870Y-38713087D01*
X93390514Y-38711278D01*
X93340305Y-38708845D01*
X93283485Y-38706003D01*
X93224297Y-38702970D01*
X93166983Y-38699960D01*
X93115787Y-38697190D01*
X93074950Y-38694876D01*
X93060610Y-38694012D01*
X92972122Y-38688511D01*
X92977091Y-38590076D01*
X92978523Y-38505254D01*
X92974486Y-38424540D01*
X92965440Y-38351692D01*
X92951847Y-38290468D01*
X92934778Y-38245785D01*
X92921723Y-38218173D01*
X92914509Y-38197926D01*
X92914238Y-38190678D01*
X92924815Y-38188989D01*
X92951742Y-38186812D01*
X92992009Y-38184282D01*
X93042609Y-38181534D01*
X93100533Y-38178703D01*
X93162774Y-38175923D01*
X93226322Y-38173329D01*
X93288171Y-38171057D01*
X93345311Y-38169240D01*
X93394735Y-38168014D01*
X93430892Y-38167524D01*
X93489964Y-38167243D01*
X93496092Y-38038935D01*
X93498881Y-37987107D01*
X93502050Y-37938713D01*
X93505223Y-37898913D01*
X93508026Y-37872866D01*
X93508236Y-37871452D01*
X93514251Y-37832276D01*
X93423668Y-37780888D01*
X93373904Y-37752100D01*
X93339013Y-37730300D01*
X93316632Y-37713637D01*
X93304400Y-37700266D01*
X93299954Y-37688337D01*
X93299807Y-37683984D01*
X93307334Y-37673414D01*
X93327679Y-37653581D01*
X93358108Y-37626761D01*
X93395884Y-37595230D01*
X93438272Y-37561265D01*
X93482536Y-37527140D01*
X93525941Y-37495134D01*
X93531893Y-37490881D01*
X93542805Y-37485536D01*
X93557916Y-37484182D01*
X93581163Y-37487230D01*
X93616484Y-37495091D01*
X93647816Y-37502985D01*
X93700482Y-37516028D01*
X93740317Y-37523846D01*
X93773088Y-37526622D01*
X93804562Y-37524538D01*
X93840505Y-37517774D01*
X93872564Y-37510065D01*
X93956812Y-37480329D01*
X94028578Y-37436070D01*
X94088551Y-37376703D01*
X94137419Y-37301645D01*
X94151262Y-37273253D01*
X94164846Y-37241407D01*
X94173425Y-37214262D01*
X94178124Y-37185489D01*
X94180069Y-37148756D01*
X94180398Y-37109389D01*
X94179063Y-37052212D01*
X94174566Y-37008375D01*
X94166168Y-36972001D01*
X94161338Y-36957638D01*
X94124991Y-36877123D01*
X94080203Y-36812631D01*
X94025536Y-36762132D01*
X94020619Y-36758584D01*
X93977226Y-36729545D01*
X93939060Y-36709099D01*
X93901136Y-36695947D01*
X93858468Y-36688792D01*
X93806069Y-36686336D01*
X93745955Y-36687083D01*
X93682392Y-36689797D01*
X93637937Y-36693976D01*
X93612674Y-36699611D01*
X93607606Y-36702603D01*
X93587656Y-36713316D01*
X93578262Y-36714707D01*
X93558950Y-36722129D01*
X93531742Y-36742225D01*
X93499755Y-36771738D01*
X93466108Y-36807412D01*
X93433919Y-36845992D01*
X93406306Y-36884221D01*
X93390382Y-36910882D01*
X93373760Y-36943264D01*
X93363024Y-36968617D01*
X93356866Y-36992953D01*
X93353972Y-37022283D01*
X93353032Y-37062617D01*
X93352912Y-37082683D01*
X93353425Y-37130196D01*
X93355180Y-37175068D01*
X93357865Y-37210851D01*
X93359773Y-37225159D01*
X93367093Y-37265957D01*
X93311355Y-37307239D01*
X93276441Y-37333715D01*
X93234655Y-37366300D01*
X93194020Y-37398721D01*
X93186986Y-37404431D01*
X93155655Y-37429102D01*
X93129395Y-37448210D01*
X93112136Y-37458966D01*
X93108210Y-37460342D01*
X93093974Y-37451229D01*
X93077388Y-37425574D01*
X93059493Y-37385902D01*
X93041332Y-37334738D01*
X93023947Y-37274608D01*
X93013069Y-37229751D01*
X93004416Y-37170402D01*
X93001687Y-37101056D01*
X93004476Y-37027698D01*
X93012377Y-36956315D01*
X93024982Y-36892894D01*
X93038856Y-36850277D01*
X93098083Y-36730882D01*
X93169617Y-36625502D01*
X93252671Y-36534771D01*
X93346458Y-36459326D01*
X93450191Y-36399801D01*
X93563082Y-36356832D01*
X93681694Y-36331418D01*
X93729594Y-36325217D01*
X93764942Y-36322171D01*
X93794276Y-36322158D01*
X93824132Y-36325056D01*
G37*
G36*
X82935828Y-36266817D02*
G01*
X83038137Y-36266941D01*
X83151501Y-36267147D01*
X83274733Y-36267433D01*
X83406646Y-36267799D01*
X83546054Y-36268243D01*
X83691767Y-36268764D01*
X83818980Y-36269263D01*
X85005217Y-36274105D01*
X85008249Y-38026831D01*
X85008560Y-38244637D01*
X85008770Y-38478261D01*
X85008883Y-38724964D01*
X85008901Y-38982004D01*
X85008827Y-39246642D01*
X85008665Y-39516135D01*
X85008416Y-39787744D01*
X85008085Y-40058728D01*
X85007673Y-40326346D01*
X85007184Y-40587857D01*
X85006620Y-40840522D01*
X85005985Y-41081598D01*
X85005280Y-41308347D01*
X85004639Y-41485422D01*
X84997996Y-43191288D01*
X84928980Y-43198237D01*
X84909934Y-43199192D01*
X84873085Y-43200117D01*
X84819998Y-43201006D01*
X84752237Y-43201853D01*
X84671365Y-43202655D01*
X84578947Y-43203405D01*
X84476547Y-43204100D01*
X84365730Y-43204733D01*
X84248060Y-43205300D01*
X84125100Y-43205796D01*
X83998416Y-43206215D01*
X83869570Y-43206552D01*
X83740129Y-43206803D01*
X83611655Y-43206963D01*
X83485713Y-43207025D01*
X83363868Y-43206986D01*
X83247683Y-43206840D01*
X83138723Y-43206582D01*
X83038552Y-43206207D01*
X82948733Y-43205710D01*
X82870833Y-43205085D01*
X82857886Y-43204956D01*
X82608534Y-43202371D01*
X82608534Y-42766819D01*
X83023195Y-42766819D01*
X83776958Y-42769359D01*
X83896103Y-42769790D01*
X84009633Y-42770258D01*
X84116060Y-42770752D01*
X84213896Y-42771265D01*
X84301653Y-42771785D01*
X84377841Y-42772303D01*
X84440974Y-42772810D01*
X84489561Y-42773296D01*
X84522116Y-42773752D01*
X84537149Y-42774168D01*
X84537985Y-42774261D01*
X84539413Y-42765358D01*
X84540748Y-42738920D01*
X84541962Y-42696775D01*
X84543027Y-42640756D01*
X84543915Y-42572691D01*
X84544600Y-42494413D01*
X84545051Y-42407751D01*
X84545243Y-42314536D01*
X84545247Y-42297285D01*
X84545247Y-41817948D01*
X84421216Y-41817948D01*
X84297185Y-41817948D01*
X84294622Y-42139927D01*
X84293799Y-42217104D01*
X84292640Y-42288090D01*
X84291214Y-42350566D01*
X84289591Y-42402212D01*
X84287839Y-42440711D01*
X84286029Y-42463743D01*
X84284795Y-42469393D01*
X84273232Y-42471631D01*
X84245491Y-42473314D01*
X84204759Y-42474360D01*
X84154220Y-42474684D01*
X84099094Y-42474235D01*
X83920657Y-42471589D01*
X83918053Y-42171398D01*
X83915449Y-41871208D01*
X83780062Y-41868179D01*
X83644676Y-41865150D01*
X83644676Y-42165764D01*
X83644676Y-42466378D01*
X83622888Y-42471752D01*
X83605996Y-42473425D01*
X83573618Y-42474529D01*
X83529631Y-42475009D01*
X83477909Y-42474805D01*
X83446162Y-42474357D01*
X83291225Y-42471589D01*
X83288676Y-42144768D01*
X83286126Y-41817948D01*
X83160368Y-41817948D01*
X83034611Y-41817948D01*
X83034278Y-42135085D01*
X83034016Y-42220820D01*
X83033440Y-42308477D01*
X83032596Y-42394016D01*
X83031535Y-42473401D01*
X83030304Y-42542594D01*
X83028952Y-42597556D01*
X83028570Y-42609520D01*
X83023195Y-42766819D01*
X82608534Y-42766819D01*
X82608534Y-41068749D01*
X83035863Y-41068749D01*
X83039824Y-41134064D01*
X83047985Y-41186360D01*
X83074109Y-41269854D01*
X83111806Y-41345581D01*
X83158972Y-41410399D01*
X83213504Y-41461168D01*
X83246048Y-41482059D01*
X83334822Y-41520786D01*
X83424874Y-41540541D01*
X83517969Y-41541555D01*
X83599509Y-41528164D01*
X83671605Y-41505630D01*
X83732624Y-41473793D01*
X83784810Y-41430502D01*
X83830404Y-41373608D01*
X83871650Y-41300961D01*
X83898229Y-41241776D01*
X83905494Y-41218841D01*
X83914358Y-41183124D01*
X83923369Y-41140969D01*
X83931079Y-41098721D01*
X83931436Y-41096522D01*
X83936160Y-41072079D01*
X83943887Y-41036828D01*
X83952206Y-41001479D01*
X83975887Y-40936519D01*
X84011164Y-40886535D01*
X84057213Y-40852166D01*
X84113209Y-40834047D01*
X84171481Y-40832164D01*
X84225404Y-40844292D01*
X84268619Y-40871640D01*
X84303037Y-40915558D01*
X84311315Y-40930920D01*
X84321503Y-40953354D01*
X84327848Y-40974720D01*
X84331018Y-41000202D01*
X84331685Y-41034985D01*
X84330636Y-41080483D01*
X84328705Y-41128400D01*
X84325527Y-41163184D01*
X84319708Y-41191071D01*
X84309853Y-41218294D01*
X84294568Y-41251088D01*
X84290742Y-41258853D01*
X84266129Y-41302591D01*
X84235973Y-41347731D01*
X84206559Y-41384909D01*
X84204940Y-41386699D01*
X84155763Y-41440506D01*
X84246407Y-41536504D01*
X84279819Y-41571566D01*
X84308410Y-41600961D01*
X84329617Y-41622097D01*
X84340877Y-41632386D01*
X84341892Y-41632970D01*
X84351500Y-41627474D01*
X84369672Y-41613160D01*
X84376751Y-41607070D01*
X84434126Y-41547452D01*
X84483319Y-41475872D01*
X84525519Y-41390195D01*
X84561921Y-41288286D01*
X84569936Y-41261143D01*
X84578608Y-41217324D01*
X84584326Y-41160714D01*
X84587093Y-41096729D01*
X84586912Y-41030786D01*
X84583785Y-40968302D01*
X84577714Y-40914691D01*
X84569777Y-40878642D01*
X84531208Y-40775797D01*
X84485262Y-40690466D01*
X84431180Y-40621961D01*
X84368202Y-40569592D01*
X84295569Y-40532673D01*
X84212520Y-40510515D01*
X84156147Y-40503934D01*
X84057471Y-40504528D01*
X83969821Y-40520645D01*
X83893006Y-40552462D01*
X83826834Y-40600159D01*
X83771114Y-40663912D01*
X83725652Y-40743899D01*
X83690259Y-40840299D01*
X83664741Y-40953289D01*
X83663481Y-40960838D01*
X83648390Y-41040027D01*
X83631304Y-41102542D01*
X83611065Y-41151061D01*
X83586510Y-41188259D01*
X83556482Y-41216812D01*
X83550670Y-41221054D01*
X83501471Y-41245044D01*
X83449496Y-41252127D01*
X83398790Y-41243003D01*
X83353401Y-41218372D01*
X83318660Y-41180899D01*
X83293511Y-41126458D01*
X83282063Y-41062277D01*
X83283786Y-40991756D01*
X83298154Y-40918297D01*
X83324637Y-40845298D01*
X83362708Y-40776161D01*
X83386626Y-40743221D01*
X83421224Y-40699794D01*
X83394959Y-40672103D01*
X83375602Y-40652905D01*
X83346838Y-40625804D01*
X83313841Y-40595647D01*
X83302190Y-40585214D01*
X83235685Y-40526017D01*
X83198321Y-40569181D01*
X83168862Y-40608692D01*
X83136811Y-40660686D01*
X83105432Y-40719184D01*
X83077991Y-40778208D01*
X83062285Y-40818297D01*
X83049805Y-40867314D01*
X83041086Y-40929387D01*
X83036361Y-40998527D01*
X83035863Y-41068749D01*
X82608534Y-41068749D01*
X82608534Y-40249210D01*
X83053978Y-40249210D01*
X83799613Y-40249210D01*
X84545247Y-40249210D01*
X84545247Y-40094424D01*
X84545247Y-39939637D01*
X84271687Y-39937066D01*
X83998126Y-39934494D01*
X83992594Y-39750506D01*
X83990238Y-39681415D01*
X83987511Y-39627748D01*
X83983882Y-39585565D01*
X83978818Y-39550925D01*
X83971788Y-39519885D01*
X83962260Y-39488505D01*
X83954039Y-39464841D01*
X83936126Y-39426184D01*
X83909858Y-39382711D01*
X83880030Y-39341517D01*
X83851437Y-39309699D01*
X83845811Y-39304681D01*
X83784071Y-39262307D01*
X83713114Y-39232223D01*
X83630319Y-39213560D01*
X83548249Y-39206008D01*
X83449068Y-39210152D01*
X83358746Y-39231283D01*
X83278133Y-39268754D01*
X83208080Y-39321920D01*
X83149439Y-39390134D01*
X83103061Y-39472748D01*
X83069795Y-39569116D01*
X83069641Y-39569721D01*
X83065075Y-39590837D01*
X83061451Y-39616047D01*
X83058672Y-39647670D01*
X83056638Y-39688023D01*
X83055252Y-39739425D01*
X83054416Y-39804195D01*
X83054032Y-39884650D01*
X83053978Y-39940118D01*
X83053978Y-40249210D01*
X82608534Y-40249210D01*
X82608534Y-39940118D01*
X82608534Y-39736853D01*
X82608546Y-39418366D01*
X82608582Y-39118739D01*
X82608645Y-38837466D01*
X82608737Y-38574042D01*
X82608800Y-38446291D01*
X83037901Y-38446291D01*
X83038238Y-38560378D01*
X83052720Y-38661739D01*
X83078732Y-38754485D01*
X83116478Y-38835026D01*
X83168564Y-38908237D01*
X83206301Y-38949191D01*
X83236763Y-38978555D01*
X83263118Y-39001792D01*
X83281905Y-39015972D01*
X83288611Y-39018943D01*
X83300273Y-39011277D01*
X83318134Y-38991819D01*
X83334801Y-38969705D01*
X83361133Y-38933141D01*
X83390422Y-38894393D01*
X83404645Y-38876360D01*
X83440595Y-38831800D01*
X83398418Y-38786709D01*
X83351178Y-38725621D01*
X83316429Y-38658514D01*
X83294486Y-38588420D01*
X83285659Y-38518368D01*
X83290262Y-38451389D01*
X83308606Y-38390512D01*
X83341006Y-38338767D01*
X83351087Y-38327864D01*
X83381411Y-38302709D01*
X83413855Y-38288871D01*
X83455590Y-38283702D01*
X83471313Y-38283446D01*
X83526558Y-38289097D01*
X83571538Y-38306822D01*
X83607054Y-38337780D01*
X83633906Y-38383127D01*
X83652894Y-38444022D01*
X83664818Y-38521623D01*
X83668479Y-38568742D01*
X83671139Y-38611724D01*
X83673651Y-38646780D01*
X83675704Y-38669893D01*
X83676848Y-38677138D01*
X83686814Y-38678144D01*
X83712302Y-38679229D01*
X83749469Y-38680264D01*
X83794470Y-38681118D01*
X83795034Y-38681126D01*
X83910974Y-38682868D01*
X83916917Y-38558205D01*
X83919968Y-38503845D01*
X83923572Y-38464598D01*
X83928464Y-38436214D01*
X83935382Y-38414438D01*
X83945059Y-38395019D01*
X83945181Y-38394807D01*
X83975447Y-38348774D01*
X84007917Y-38314885D01*
X84049060Y-38286390D01*
X84049233Y-38286288D01*
X84074864Y-38272964D01*
X84098760Y-38266212D01*
X84128633Y-38264572D01*
X84157864Y-38265721D01*
X84213187Y-38274047D01*
X84256672Y-38293360D01*
X84290385Y-38325660D01*
X84316393Y-38372947D01*
X84336763Y-38437221D01*
X84337300Y-38439399D01*
X84346186Y-38480289D01*
X84349323Y-38512473D01*
X84347060Y-38545626D01*
X84342223Y-38575861D01*
X84322074Y-38650363D01*
X84290176Y-38721333D01*
X84249468Y-38783113D01*
X84215605Y-38819406D01*
X84191295Y-38841974D01*
X84174023Y-38859365D01*
X84167588Y-38867710D01*
X84172238Y-38877739D01*
X84184707Y-38900364D01*
X84202775Y-38931620D01*
X84213585Y-38949866D01*
X84236260Y-38988114D01*
X84257086Y-39023729D01*
X84272642Y-39050846D01*
X84276454Y-39057690D01*
X84293326Y-39088492D01*
X84338856Y-39056365D01*
X84372752Y-39030491D01*
X84406870Y-39001451D01*
X84420453Y-38988713D01*
X84446515Y-38960076D01*
X84474852Y-38924542D01*
X84491147Y-38901769D01*
X84506724Y-38876857D01*
X84520512Y-38850003D01*
X84534051Y-38817359D01*
X84548882Y-38775076D01*
X84566546Y-38719309D01*
X84573954Y-38694997D01*
X84580329Y-38662968D01*
X84585223Y-38617121D01*
X84588429Y-38562964D01*
X84589738Y-38506005D01*
X84588941Y-38451750D01*
X84585830Y-38405709D01*
X84585126Y-38399648D01*
X84575906Y-38336694D01*
X84564695Y-38286067D01*
X84549401Y-38240730D01*
X84527936Y-38193643D01*
X84518518Y-38175330D01*
X84474817Y-38104649D01*
X84425295Y-38050450D01*
X84366599Y-38010200D01*
X84295374Y-37981366D01*
X84244525Y-37968339D01*
X84156587Y-37958555D01*
X84072679Y-37966846D01*
X83994750Y-37992283D01*
X83924747Y-38033936D01*
X83864618Y-38090877D01*
X83816312Y-38162177D01*
X83809296Y-38175904D01*
X83793501Y-38203390D01*
X83779150Y-38220028D01*
X83771878Y-38222970D01*
X83761475Y-38213177D01*
X83748575Y-38190533D01*
X83739700Y-38169584D01*
X83711833Y-38117448D01*
X83669781Y-38067138D01*
X83618455Y-38023693D01*
X83569821Y-37995283D01*
X83520207Y-37977855D01*
X83465165Y-37967289D01*
X83411363Y-37964248D01*
X83365471Y-37969395D01*
X83351573Y-37973604D01*
X83286511Y-38001053D01*
X83235989Y-38029484D01*
X83195351Y-38062450D01*
X83159941Y-38103505D01*
X83136538Y-38137757D01*
X83087444Y-38232524D01*
X83054435Y-38336187D01*
X83037901Y-38446291D01*
X82608800Y-38446291D01*
X82608858Y-38327959D01*
X82609012Y-38098712D01*
X82609198Y-37885793D01*
X82609421Y-37688696D01*
X82609680Y-37506916D01*
X82609979Y-37339946D01*
X82610318Y-37187279D01*
X82610329Y-37183255D01*
X83046031Y-37183255D01*
X83046904Y-37258147D01*
X83060728Y-37365202D01*
X83090304Y-37461230D01*
X83135443Y-37545938D01*
X83195954Y-37619031D01*
X83271649Y-37680214D01*
X83344485Y-37721088D01*
X83376243Y-37735701D01*
X83400910Y-37746317D01*
X83413528Y-37750810D01*
X83413890Y-37750842D01*
X83420713Y-37742606D01*
X83430493Y-37721780D01*
X83435114Y-37709694D01*
X83459571Y-37640854D01*
X83477705Y-37588026D01*
X83490100Y-37549132D01*
X83497344Y-37522089D01*
X83500021Y-37504820D01*
X83498718Y-37495243D01*
X83496327Y-37492363D01*
X83480856Y-37483153D01*
X83456228Y-37469911D01*
X83447946Y-37465660D01*
X83417429Y-37445799D01*
X83387502Y-37419724D01*
X83381011Y-37412771D01*
X83357609Y-37380638D01*
X83334620Y-37339945D01*
X83314837Y-37296770D01*
X83301056Y-37257195D01*
X83296067Y-37227997D01*
X83305208Y-37167321D01*
X83330818Y-37111632D01*
X83370182Y-37064744D01*
X83420581Y-37030470D01*
X83443477Y-37021061D01*
X83501774Y-37008054D01*
X83557333Y-37010835D01*
X83613943Y-37030054D01*
X83664799Y-37059197D01*
X83686758Y-37074122D01*
X83706991Y-37089141D01*
X83727113Y-37105965D01*
X83748739Y-37126306D01*
X83773487Y-37151878D01*
X83802969Y-37184391D01*
X83838804Y-37225558D01*
X83882605Y-37277092D01*
X83935988Y-37340704D01*
X83978759Y-37391939D01*
X84027400Y-37450087D01*
X84076252Y-37508144D01*
X84122640Y-37562958D01*
X84163892Y-37611377D01*
X84197332Y-37650247D01*
X84214681Y-37670111D01*
X84285983Y-37750849D01*
X84434982Y-37750849D01*
X84583982Y-37750849D01*
X84583982Y-37223095D01*
X84583982Y-36695340D01*
X84447534Y-36695340D01*
X84311087Y-36695340D01*
X84312948Y-36993110D01*
X84313545Y-37093283D01*
X84313939Y-37175772D01*
X84314090Y-37242259D01*
X84313959Y-37294427D01*
X84313507Y-37333958D01*
X84312694Y-37362534D01*
X84311480Y-37381838D01*
X84309826Y-37393552D01*
X84307692Y-37399359D01*
X84305039Y-37400940D01*
X84303369Y-37400627D01*
X84294734Y-37392230D01*
X84275899Y-37370397D01*
X84248418Y-37337085D01*
X84213845Y-37294249D01*
X84173737Y-37243845D01*
X84129648Y-37187828D01*
X84083133Y-37128155D01*
X84035748Y-37066780D01*
X83989047Y-37005660D01*
X83983301Y-36998091D01*
X83912669Y-36910400D01*
X83845764Y-36838277D01*
X83783434Y-36782541D01*
X83726529Y-36744011D01*
X83712418Y-36736765D01*
X83625785Y-36705171D01*
X83537008Y-36690618D01*
X83448796Y-36692663D01*
X83363857Y-36710860D01*
X83284898Y-36744765D01*
X83214628Y-36793934D01*
X83184214Y-36823437D01*
X83125963Y-36899191D01*
X83083723Y-36983757D01*
X83057182Y-37078117D01*
X83046031Y-37183255D01*
X82610329Y-37183255D01*
X82610699Y-37048409D01*
X82611125Y-36922829D01*
X82611597Y-36810034D01*
X82612116Y-36709516D01*
X82612685Y-36620770D01*
X82613306Y-36543289D01*
X82613979Y-36476567D01*
X82614707Y-36420097D01*
X82615492Y-36373373D01*
X82616335Y-36335888D01*
X82617238Y-36307137D01*
X82618203Y-36286612D01*
X82619232Y-36273808D01*
X82620326Y-36268218D01*
X82620638Y-36267878D01*
X82631679Y-36267480D01*
X82660899Y-36267172D01*
X82707111Y-36266953D01*
X82769128Y-36266822D01*
X82845763Y-36266777D01*
X82935828Y-36266817D01*
G37*
%TD*%
M02*
