%TF.GenerationSoftware,KiCad,Pcbnew,10.0.5-10.0.5~ubuntu24.04.1*%
%TF.CreationDate,2026-08-25T15:18:28+02:00*%
%TF.ProjectId,stamps3_adapter,7374616d-7073-4335-9f61-646170746572,rev?*%
%TF.SameCoordinates,Original*%
%TF.FileFunction,Soldermask,Bot*%
%TF.FilePolarity,Negative*%
%FSLAX46Y46*%
G04 Gerber Fmt 4.6, Leading zero omitted, Abs format (unit mm)*
G04 Created by KiCad (PCBNEW 10.0.5-10.0.5~ubuntu24.04.1) date 2026-08-25 15:18:28*
%MOMM*%
%LPD*%
G01*
G04 APERTURE LIST*
%ADD10R,1.700000X1.700000*%
%ADD11C,1.700000*%
G04 APERTURE END LIST*
D10*
%TO.C,J3*%
X81280000Y-48260000D03*
D11*
X81280000Y-50800000D03*
X81280000Y-53340000D03*
X81280000Y-55880000D03*
X81280000Y-58420000D03*
X81280000Y-60960000D03*
X81280000Y-63500000D03*
X81280000Y-66040000D03*
X81280000Y-68580000D03*
%TD*%
D10*
%TO.C,J4*%
X96520000Y-55880000D03*
D11*
X96520000Y-58420000D03*
X96520000Y-60960000D03*
X96520000Y-63500000D03*
X96520000Y-66040000D03*
X96520000Y-68580000D03*
%TD*%
D10*
%TO.C,J1*%
X76200000Y-25400000D03*
D11*
X76200000Y-27940000D03*
X76200000Y-30480000D03*
X76200000Y-33020000D03*
X76200000Y-35560000D03*
X76200000Y-38100000D03*
X76200000Y-40640000D03*
X76200000Y-43180000D03*
X76200000Y-45720000D03*
X76200000Y-48260000D03*
X76200000Y-50800000D03*
X76200000Y-53340000D03*
X76200000Y-55880000D03*
X76200000Y-58420000D03*
X76200000Y-60960000D03*
X76200000Y-63500000D03*
X76200000Y-66040000D03*
X76200000Y-68580000D03*
X76200000Y-71120000D03*
X76200000Y-73660000D03*
X76200000Y-76200000D03*
X76200000Y-78740000D03*
%TD*%
D10*
%TO.C,J2*%
X101600000Y-25400000D03*
D11*
X101600000Y-27940000D03*
X101600000Y-30480000D03*
X101600000Y-33020000D03*
X101600000Y-35560000D03*
X101600000Y-38100000D03*
X101600000Y-40640000D03*
X101600000Y-43180000D03*
X101600000Y-45720000D03*
X101600000Y-48260000D03*
X101600000Y-50800000D03*
X101600000Y-53340000D03*
X101600000Y-55880000D03*
X101600000Y-58420000D03*
X101600000Y-60960000D03*
X101600000Y-63500000D03*
X101600000Y-66040000D03*
X101600000Y-68580000D03*
X101600000Y-71120000D03*
X101600000Y-73660000D03*
X101600000Y-76200000D03*
X101600000Y-78740000D03*
%TD*%
M02*
