%TF.GenerationSoftware,KiCad,Pcbnew,10.0.5-10.0.5~ubuntu24.04.1*%
%TF.CreationDate,2026-08-14T17:16:52+02:00*%
%TF.ProjectId,stamps3_adapter,7374616d-7073-4335-9f61-646170746572,rev?*%
%TF.SameCoordinates,Original*%
%TF.FileFunction,Legend,Top*%
%TF.FilePolarity,Positive*%
%FSLAX46Y46*%
G04 Gerber Fmt 4.6, Leading zero omitted, Abs format (unit mm)*
G04 Created by KiCad (PCBNEW 10.0.5-10.0.5~ubuntu24.04.1) date 2026-08-14 17:16:52*
%MOMM*%
%LPD*%
G01*
G04 APERTURE LIST*
%ADD10C,0.200000*%
%ADD11C,0.150000*%
%ADD12C,0.120000*%
%ADD13C,0.000000*%
G04 APERTURE END LIST*
D10*
X85019847Y-34419442D02*
X85201276Y-34479918D01*
X85201276Y-34479918D02*
X85503657Y-34479918D01*
X85503657Y-34479918D02*
X85624609Y-34419442D01*
X85624609Y-34419442D02*
X85685085Y-34358965D01*
X85685085Y-34358965D02*
X85745562Y-34238013D01*
X85745562Y-34238013D02*
X85745562Y-34117061D01*
X85745562Y-34117061D02*
X85685085Y-33996108D01*
X85685085Y-33996108D02*
X85624609Y-33935632D01*
X85624609Y-33935632D02*
X85503657Y-33875156D01*
X85503657Y-33875156D02*
X85261752Y-33814680D01*
X85261752Y-33814680D02*
X85140800Y-33754203D01*
X85140800Y-33754203D02*
X85080323Y-33693727D01*
X85080323Y-33693727D02*
X85019847Y-33572775D01*
X85019847Y-33572775D02*
X85019847Y-33451822D01*
X85019847Y-33451822D02*
X85080323Y-33330870D01*
X85080323Y-33330870D02*
X85140800Y-33270394D01*
X85140800Y-33270394D02*
X85261752Y-33209918D01*
X85261752Y-33209918D02*
X85564133Y-33209918D01*
X85564133Y-33209918D02*
X85745562Y-33270394D01*
X86108419Y-33633251D02*
X86592228Y-33633251D01*
X86289847Y-33209918D02*
X86289847Y-34298489D01*
X86289847Y-34298489D02*
X86350324Y-34419442D01*
X86350324Y-34419442D02*
X86471276Y-34479918D01*
X86471276Y-34479918D02*
X86592228Y-34479918D01*
X87559847Y-34479918D02*
X87559847Y-33814680D01*
X87559847Y-33814680D02*
X87499371Y-33693727D01*
X87499371Y-33693727D02*
X87378419Y-33633251D01*
X87378419Y-33633251D02*
X87136514Y-33633251D01*
X87136514Y-33633251D02*
X87015561Y-33693727D01*
X87559847Y-34419442D02*
X87438895Y-34479918D01*
X87438895Y-34479918D02*
X87136514Y-34479918D01*
X87136514Y-34479918D02*
X87015561Y-34419442D01*
X87015561Y-34419442D02*
X86955085Y-34298489D01*
X86955085Y-34298489D02*
X86955085Y-34177537D01*
X86955085Y-34177537D02*
X87015561Y-34056584D01*
X87015561Y-34056584D02*
X87136514Y-33996108D01*
X87136514Y-33996108D02*
X87438895Y-33996108D01*
X87438895Y-33996108D02*
X87559847Y-33935632D01*
X88164609Y-34479918D02*
X88164609Y-33633251D01*
X88164609Y-33754203D02*
X88225086Y-33693727D01*
X88225086Y-33693727D02*
X88346038Y-33633251D01*
X88346038Y-33633251D02*
X88527467Y-33633251D01*
X88527467Y-33633251D02*
X88648419Y-33693727D01*
X88648419Y-33693727D02*
X88708895Y-33814680D01*
X88708895Y-33814680D02*
X88708895Y-34479918D01*
X88708895Y-33814680D02*
X88769371Y-33693727D01*
X88769371Y-33693727D02*
X88890324Y-33633251D01*
X88890324Y-33633251D02*
X89071752Y-33633251D01*
X89071752Y-33633251D02*
X89192705Y-33693727D01*
X89192705Y-33693727D02*
X89253181Y-33814680D01*
X89253181Y-33814680D02*
X89253181Y-34479918D01*
X89857942Y-33633251D02*
X89857942Y-34903251D01*
X89857942Y-33693727D02*
X89978895Y-33633251D01*
X89978895Y-33633251D02*
X90220800Y-33633251D01*
X90220800Y-33633251D02*
X90341752Y-33693727D01*
X90341752Y-33693727D02*
X90402228Y-33754203D01*
X90402228Y-33754203D02*
X90462704Y-33875156D01*
X90462704Y-33875156D02*
X90462704Y-34238013D01*
X90462704Y-34238013D02*
X90402228Y-34358965D01*
X90402228Y-34358965D02*
X90341752Y-34419442D01*
X90341752Y-34419442D02*
X90220800Y-34479918D01*
X90220800Y-34479918D02*
X89978895Y-34479918D01*
X89978895Y-34479918D02*
X89857942Y-34419442D01*
X90946514Y-34419442D02*
X91127943Y-34479918D01*
X91127943Y-34479918D02*
X91430324Y-34479918D01*
X91430324Y-34479918D02*
X91551276Y-34419442D01*
X91551276Y-34419442D02*
X91611752Y-34358965D01*
X91611752Y-34358965D02*
X91672229Y-34238013D01*
X91672229Y-34238013D02*
X91672229Y-34117061D01*
X91672229Y-34117061D02*
X91611752Y-33996108D01*
X91611752Y-33996108D02*
X91551276Y-33935632D01*
X91551276Y-33935632D02*
X91430324Y-33875156D01*
X91430324Y-33875156D02*
X91188419Y-33814680D01*
X91188419Y-33814680D02*
X91067467Y-33754203D01*
X91067467Y-33754203D02*
X91006990Y-33693727D01*
X91006990Y-33693727D02*
X90946514Y-33572775D01*
X90946514Y-33572775D02*
X90946514Y-33451822D01*
X90946514Y-33451822D02*
X91006990Y-33330870D01*
X91006990Y-33330870D02*
X91067467Y-33270394D01*
X91067467Y-33270394D02*
X91188419Y-33209918D01*
X91188419Y-33209918D02*
X91490800Y-33209918D01*
X91490800Y-33209918D02*
X91672229Y-33270394D01*
X92095562Y-33209918D02*
X92881753Y-33209918D01*
X92881753Y-33209918D02*
X92458419Y-33693727D01*
X92458419Y-33693727D02*
X92639848Y-33693727D01*
X92639848Y-33693727D02*
X92760800Y-33754203D01*
X92760800Y-33754203D02*
X92821276Y-33814680D01*
X92821276Y-33814680D02*
X92881753Y-33935632D01*
X92881753Y-33935632D02*
X92881753Y-34238013D01*
X92881753Y-34238013D02*
X92821276Y-34358965D01*
X92821276Y-34358965D02*
X92760800Y-34419442D01*
X92760800Y-34419442D02*
X92639848Y-34479918D01*
X92639848Y-34479918D02*
X92276991Y-34479918D01*
X92276991Y-34479918D02*
X92156038Y-34419442D01*
X92156038Y-34419442D02*
X92095562Y-34358965D01*
X80302705Y-35677880D02*
X80786514Y-35677880D01*
X80484133Y-35254547D02*
X80484133Y-36343118D01*
X80484133Y-36343118D02*
X80544610Y-36464071D01*
X80544610Y-36464071D02*
X80665562Y-36524547D01*
X80665562Y-36524547D02*
X80786514Y-36524547D01*
X81391276Y-36524547D02*
X81270324Y-36464071D01*
X81270324Y-36464071D02*
X81209847Y-36403594D01*
X81209847Y-36403594D02*
X81149371Y-36282642D01*
X81149371Y-36282642D02*
X81149371Y-35919785D01*
X81149371Y-35919785D02*
X81209847Y-35798832D01*
X81209847Y-35798832D02*
X81270324Y-35738356D01*
X81270324Y-35738356D02*
X81391276Y-35677880D01*
X81391276Y-35677880D02*
X81572705Y-35677880D01*
X81572705Y-35677880D02*
X81693657Y-35738356D01*
X81693657Y-35738356D02*
X81754133Y-35798832D01*
X81754133Y-35798832D02*
X81814609Y-35919785D01*
X81814609Y-35919785D02*
X81814609Y-36282642D01*
X81814609Y-36282642D02*
X81754133Y-36403594D01*
X81754133Y-36403594D02*
X81693657Y-36464071D01*
X81693657Y-36464071D02*
X81572705Y-36524547D01*
X81572705Y-36524547D02*
X81391276Y-36524547D01*
X83749848Y-35859309D02*
X83931276Y-35919785D01*
X83931276Y-35919785D02*
X83991753Y-35980261D01*
X83991753Y-35980261D02*
X84052229Y-36101213D01*
X84052229Y-36101213D02*
X84052229Y-36282642D01*
X84052229Y-36282642D02*
X83991753Y-36403594D01*
X83991753Y-36403594D02*
X83931276Y-36464071D01*
X83931276Y-36464071D02*
X83810324Y-36524547D01*
X83810324Y-36524547D02*
X83326514Y-36524547D01*
X83326514Y-36524547D02*
X83326514Y-35254547D01*
X83326514Y-35254547D02*
X83749848Y-35254547D01*
X83749848Y-35254547D02*
X83870800Y-35315023D01*
X83870800Y-35315023D02*
X83931276Y-35375499D01*
X83931276Y-35375499D02*
X83991753Y-35496451D01*
X83991753Y-35496451D02*
X83991753Y-35617404D01*
X83991753Y-35617404D02*
X83931276Y-35738356D01*
X83931276Y-35738356D02*
X83870800Y-35798832D01*
X83870800Y-35798832D02*
X83749848Y-35859309D01*
X83749848Y-35859309D02*
X83326514Y-35859309D01*
X84596514Y-36524547D02*
X84596514Y-35677880D01*
X84596514Y-35254547D02*
X84536038Y-35315023D01*
X84536038Y-35315023D02*
X84596514Y-35375499D01*
X84596514Y-35375499D02*
X84656991Y-35315023D01*
X84656991Y-35315023D02*
X84596514Y-35254547D01*
X84596514Y-35254547D02*
X84596514Y-35375499D01*
X85019848Y-35677880D02*
X85503657Y-35677880D01*
X85201276Y-35254547D02*
X85201276Y-36343118D01*
X85201276Y-36343118D02*
X85261753Y-36464071D01*
X85261753Y-36464071D02*
X85382705Y-36524547D01*
X85382705Y-36524547D02*
X85503657Y-36524547D01*
X86894609Y-36524547D02*
X86894609Y-35254547D01*
X86894609Y-35254547D02*
X87378419Y-35254547D01*
X87378419Y-35254547D02*
X87499371Y-35315023D01*
X87499371Y-35315023D02*
X87559848Y-35375499D01*
X87559848Y-35375499D02*
X87620324Y-35496451D01*
X87620324Y-35496451D02*
X87620324Y-35677880D01*
X87620324Y-35677880D02*
X87559848Y-35798832D01*
X87559848Y-35798832D02*
X87499371Y-35859309D01*
X87499371Y-35859309D02*
X87378419Y-35919785D01*
X87378419Y-35919785D02*
X86894609Y-35919785D01*
X88164609Y-36524547D02*
X88164609Y-35677880D01*
X88164609Y-35254547D02*
X88104133Y-35315023D01*
X88104133Y-35315023D02*
X88164609Y-35375499D01*
X88164609Y-35375499D02*
X88225086Y-35315023D01*
X88225086Y-35315023D02*
X88164609Y-35254547D01*
X88164609Y-35254547D02*
X88164609Y-35375499D01*
X88769371Y-36524547D02*
X88769371Y-35677880D01*
X88769371Y-35919785D02*
X88829848Y-35798832D01*
X88829848Y-35798832D02*
X88890324Y-35738356D01*
X88890324Y-35738356D02*
X89011276Y-35677880D01*
X89011276Y-35677880D02*
X89132229Y-35677880D01*
X90099847Y-36524547D02*
X90099847Y-35859309D01*
X90099847Y-35859309D02*
X90039371Y-35738356D01*
X90039371Y-35738356D02*
X89918419Y-35677880D01*
X89918419Y-35677880D02*
X89676514Y-35677880D01*
X89676514Y-35677880D02*
X89555561Y-35738356D01*
X90099847Y-36464071D02*
X89978895Y-36524547D01*
X89978895Y-36524547D02*
X89676514Y-36524547D01*
X89676514Y-36524547D02*
X89555561Y-36464071D01*
X89555561Y-36464071D02*
X89495085Y-36343118D01*
X89495085Y-36343118D02*
X89495085Y-36222166D01*
X89495085Y-36222166D02*
X89555561Y-36101213D01*
X89555561Y-36101213D02*
X89676514Y-36040737D01*
X89676514Y-36040737D02*
X89978895Y-36040737D01*
X89978895Y-36040737D02*
X90099847Y-35980261D01*
X90523181Y-35677880D02*
X91006990Y-35677880D01*
X90704609Y-35254547D02*
X90704609Y-36343118D01*
X90704609Y-36343118D02*
X90765086Y-36464071D01*
X90765086Y-36464071D02*
X90886038Y-36524547D01*
X90886038Y-36524547D02*
X91006990Y-36524547D01*
X91914133Y-36464071D02*
X91793181Y-36524547D01*
X91793181Y-36524547D02*
X91551276Y-36524547D01*
X91551276Y-36524547D02*
X91430323Y-36464071D01*
X91430323Y-36464071D02*
X91369847Y-36343118D01*
X91369847Y-36343118D02*
X91369847Y-35859309D01*
X91369847Y-35859309D02*
X91430323Y-35738356D01*
X91430323Y-35738356D02*
X91551276Y-35677880D01*
X91551276Y-35677880D02*
X91793181Y-35677880D01*
X91793181Y-35677880D02*
X91914133Y-35738356D01*
X91914133Y-35738356D02*
X91974609Y-35859309D01*
X91974609Y-35859309D02*
X91974609Y-35980261D01*
X91974609Y-35980261D02*
X91369847Y-36101213D01*
X93486513Y-36524547D02*
X93486513Y-35254547D01*
X93486513Y-35254547D02*
X93788894Y-35254547D01*
X93788894Y-35254547D02*
X93970323Y-35315023D01*
X93970323Y-35315023D02*
X94091275Y-35435975D01*
X94091275Y-35435975D02*
X94151752Y-35556928D01*
X94151752Y-35556928D02*
X94212228Y-35798832D01*
X94212228Y-35798832D02*
X94212228Y-35980261D01*
X94212228Y-35980261D02*
X94151752Y-36222166D01*
X94151752Y-36222166D02*
X94091275Y-36343118D01*
X94091275Y-36343118D02*
X93970323Y-36464071D01*
X93970323Y-36464071D02*
X93788894Y-36524547D01*
X93788894Y-36524547D02*
X93486513Y-36524547D01*
X94937942Y-36524547D02*
X94816990Y-36464071D01*
X94816990Y-36464071D02*
X94756513Y-36403594D01*
X94756513Y-36403594D02*
X94696037Y-36282642D01*
X94696037Y-36282642D02*
X94696037Y-35919785D01*
X94696037Y-35919785D02*
X94756513Y-35798832D01*
X94756513Y-35798832D02*
X94816990Y-35738356D01*
X94816990Y-35738356D02*
X94937942Y-35677880D01*
X94937942Y-35677880D02*
X95119371Y-35677880D01*
X95119371Y-35677880D02*
X95240323Y-35738356D01*
X95240323Y-35738356D02*
X95300799Y-35798832D01*
X95300799Y-35798832D02*
X95361275Y-35919785D01*
X95361275Y-35919785D02*
X95361275Y-36282642D01*
X95361275Y-36282642D02*
X95300799Y-36403594D01*
X95300799Y-36403594D02*
X95240323Y-36464071D01*
X95240323Y-36464071D02*
X95119371Y-36524547D01*
X95119371Y-36524547D02*
X94937942Y-36524547D01*
X96449847Y-36464071D02*
X96328895Y-36524547D01*
X96328895Y-36524547D02*
X96086990Y-36524547D01*
X96086990Y-36524547D02*
X95966038Y-36464071D01*
X95966038Y-36464071D02*
X95905561Y-36403594D01*
X95905561Y-36403594D02*
X95845085Y-36282642D01*
X95845085Y-36282642D02*
X95845085Y-35919785D01*
X95845085Y-35919785D02*
X95905561Y-35798832D01*
X95905561Y-35798832D02*
X95966038Y-35738356D01*
X95966038Y-35738356D02*
X96086990Y-35677880D01*
X96086990Y-35677880D02*
X96328895Y-35677880D01*
X96328895Y-35677880D02*
X96449847Y-35738356D01*
X96994132Y-36524547D02*
X96994132Y-35254547D01*
X97115085Y-36040737D02*
X97477942Y-36524547D01*
X97477942Y-35677880D02*
X96994132Y-36161690D01*
X87015562Y-37299176D02*
X87438895Y-38569176D01*
X87438895Y-38569176D02*
X87862229Y-37299176D01*
X88950800Y-38569176D02*
X88225085Y-38569176D01*
X88587942Y-38569176D02*
X88587942Y-37299176D01*
X88587942Y-37299176D02*
X88466990Y-37480604D01*
X88466990Y-37480604D02*
X88346038Y-37601557D01*
X88346038Y-37601557D02*
X88225085Y-37662033D01*
X89495085Y-38448223D02*
X89555562Y-38508700D01*
X89555562Y-38508700D02*
X89495085Y-38569176D01*
X89495085Y-38569176D02*
X89434609Y-38508700D01*
X89434609Y-38508700D02*
X89495085Y-38448223D01*
X89495085Y-38448223D02*
X89495085Y-38569176D01*
X90341752Y-37299176D02*
X90462705Y-37299176D01*
X90462705Y-37299176D02*
X90583657Y-37359652D01*
X90583657Y-37359652D02*
X90644133Y-37420128D01*
X90644133Y-37420128D02*
X90704609Y-37541080D01*
X90704609Y-37541080D02*
X90765086Y-37782985D01*
X90765086Y-37782985D02*
X90765086Y-38085366D01*
X90765086Y-38085366D02*
X90704609Y-38327271D01*
X90704609Y-38327271D02*
X90644133Y-38448223D01*
X90644133Y-38448223D02*
X90583657Y-38508700D01*
X90583657Y-38508700D02*
X90462705Y-38569176D01*
X90462705Y-38569176D02*
X90341752Y-38569176D01*
X90341752Y-38569176D02*
X90220800Y-38508700D01*
X90220800Y-38508700D02*
X90160324Y-38448223D01*
X90160324Y-38448223D02*
X90099847Y-38327271D01*
X90099847Y-38327271D02*
X90039371Y-38085366D01*
X90039371Y-38085366D02*
X90039371Y-37782985D01*
X90039371Y-37782985D02*
X90099847Y-37541080D01*
X90099847Y-37541080D02*
X90160324Y-37420128D01*
X90160324Y-37420128D02*
X90220800Y-37359652D01*
X90220800Y-37359652D02*
X90341752Y-37299176D01*
D11*
X80946666Y-44944819D02*
X80946666Y-45659104D01*
X80946666Y-45659104D02*
X80899047Y-45801961D01*
X80899047Y-45801961D02*
X80803809Y-45897200D01*
X80803809Y-45897200D02*
X80660952Y-45944819D01*
X80660952Y-45944819D02*
X80565714Y-45944819D01*
X81327619Y-44944819D02*
X81946666Y-44944819D01*
X81946666Y-44944819D02*
X81613333Y-45325771D01*
X81613333Y-45325771D02*
X81756190Y-45325771D01*
X81756190Y-45325771D02*
X81851428Y-45373390D01*
X81851428Y-45373390D02*
X81899047Y-45421009D01*
X81899047Y-45421009D02*
X81946666Y-45516247D01*
X81946666Y-45516247D02*
X81946666Y-45754342D01*
X81946666Y-45754342D02*
X81899047Y-45849580D01*
X81899047Y-45849580D02*
X81851428Y-45897200D01*
X81851428Y-45897200D02*
X81756190Y-45944819D01*
X81756190Y-45944819D02*
X81470476Y-45944819D01*
X81470476Y-45944819D02*
X81375238Y-45897200D01*
X81375238Y-45897200D02*
X81327619Y-45849580D01*
X96186666Y-52564819D02*
X96186666Y-53279104D01*
X96186666Y-53279104D02*
X96139047Y-53421961D01*
X96139047Y-53421961D02*
X96043809Y-53517200D01*
X96043809Y-53517200D02*
X95900952Y-53564819D01*
X95900952Y-53564819D02*
X95805714Y-53564819D01*
X97091428Y-52898152D02*
X97091428Y-53564819D01*
X96853333Y-52517200D02*
X96615238Y-53231485D01*
X96615238Y-53231485D02*
X97234285Y-53231485D01*
%TO.C,J3*%
D12*
X79950000Y-49530000D02*
X79950000Y-69910000D01*
X79950000Y-49530000D02*
X82610000Y-49530000D01*
X79950000Y-69910000D02*
X82610000Y-69910000D01*
X81280000Y-46930000D02*
X82610000Y-46930000D01*
X82610000Y-46930000D02*
X82610000Y-48260000D01*
X82610000Y-49530000D02*
X82610000Y-69910000D01*
%TO.C,J4*%
X95190000Y-57150000D02*
X95190000Y-69910000D01*
X95190000Y-57150000D02*
X97850000Y-57150000D01*
X95190000Y-69910000D02*
X97850000Y-69910000D01*
X96520000Y-54550000D02*
X97850000Y-54550000D01*
X97850000Y-54550000D02*
X97850000Y-55880000D01*
X97850000Y-57150000D02*
X97850000Y-69910000D01*
D13*
%TO.C,G1*%
G36*
X84213346Y-77701696D02*
G01*
X84208504Y-77706538D01*
X84203663Y-77701696D01*
X84208504Y-77696855D01*
X84213346Y-77701696D01*
G37*
G36*
X93015710Y-73189153D02*
G01*
X93010868Y-73193995D01*
X93006026Y-73189153D01*
X93010868Y-73184312D01*
X93015710Y-73189153D01*
G37*
G36*
X93248116Y-72617823D02*
G01*
X93243274Y-72622665D01*
X93238432Y-72617823D01*
X93243274Y-72612981D01*
X93248116Y-72617823D01*
G37*
G36*
X85203491Y-77824864D02*
G01*
X85322115Y-77827583D01*
X85322115Y-78403755D01*
X85322115Y-78979927D01*
X85203491Y-78982646D01*
X85084867Y-78985365D01*
X85084867Y-78403755D01*
X85084867Y-77822145D01*
X85203491Y-77824864D01*
G37*
G36*
X85312431Y-76767232D02*
G01*
X85312431Y-77449924D01*
X85198584Y-77452652D01*
X85084737Y-77455381D01*
X85087223Y-76769961D01*
X85089709Y-76084540D01*
X85201070Y-76084540D01*
X85312431Y-76084540D01*
X85312431Y-76767232D01*
G37*
G36*
X85317273Y-75019348D02*
G01*
X85317273Y-75711723D01*
X85201070Y-75711723D01*
X85084867Y-75711723D01*
X85084867Y-75019348D01*
X85084867Y-74326973D01*
X85201070Y-74326973D01*
X85317273Y-74326973D01*
X85317273Y-75019348D01*
G37*
G36*
X87408924Y-72351408D02*
G01*
X87408924Y-72458044D01*
X87041799Y-72458044D01*
X86674675Y-72458044D01*
X86669496Y-72421731D01*
X86667795Y-72392952D01*
X86668498Y-72353956D01*
X86671066Y-72317632D01*
X86677814Y-72249847D01*
X87043369Y-72247310D01*
X87408924Y-72244773D01*
X87408924Y-72351408D01*
G37*
G36*
X88262603Y-74019519D02*
G01*
X88264013Y-74060423D01*
X88263615Y-74102809D01*
X88262968Y-74116355D01*
X88260017Y-74162352D01*
X87903385Y-74162352D01*
X87546753Y-74162352D01*
X87540901Y-74140564D01*
X87538838Y-74120572D01*
X87538791Y-74087907D01*
X87540742Y-74049154D01*
X87541164Y-74043728D01*
X87547278Y-73968681D01*
X87903282Y-73968681D01*
X88259285Y-73968681D01*
X88262603Y-74019519D01*
G37*
G36*
X87408924Y-74065516D02*
G01*
X87408924Y-74162352D01*
X87042562Y-74162352D01*
X86960161Y-74162187D01*
X86883895Y-74161717D01*
X86815922Y-74160978D01*
X86758400Y-74160010D01*
X86713486Y-74158848D01*
X86683338Y-74157530D01*
X86670113Y-74156094D01*
X86669745Y-74155896D01*
X86666928Y-74143965D01*
X86664734Y-74117326D01*
X86663473Y-74080635D01*
X86663289Y-74059061D01*
X86663289Y-73968681D01*
X87036106Y-73968681D01*
X87408924Y-73968681D01*
X87408924Y-74065516D01*
G37*
G36*
X93881458Y-75499036D02*
G01*
X93899867Y-75507024D01*
X93929403Y-75519489D01*
X93968928Y-75535343D01*
X94010247Y-75551303D01*
X94013118Y-75552385D01*
X94059884Y-75571140D01*
X94090947Y-75587142D01*
X94109274Y-75602795D01*
X94117831Y-75620500D01*
X94119637Y-75638660D01*
X94114256Y-75668910D01*
X94097572Y-75686679D01*
X94068768Y-75692020D01*
X94027033Y-75684981D01*
X93971550Y-75665615D01*
X93935649Y-75650077D01*
X93843655Y-75608215D01*
X93840772Y-75548608D01*
X93839968Y-75513353D01*
X93844170Y-75494966D01*
X93856845Y-75491006D01*
X93881458Y-75499036D01*
G37*
G36*
X88517914Y-77457067D02*
G01*
X88520135Y-77476705D01*
X88521182Y-77509526D01*
X88520900Y-77549374D01*
X88520550Y-77561285D01*
X88517692Y-77643595D01*
X88161563Y-77646135D01*
X88066309Y-77646701D01*
X87988746Y-77646871D01*
X87927202Y-77646597D01*
X87880003Y-77645833D01*
X87845477Y-77644528D01*
X87821952Y-77642636D01*
X87807754Y-77640108D01*
X87801211Y-77636895D01*
X87800465Y-77635725D01*
X87798575Y-77620809D01*
X87797647Y-77591597D01*
X87797785Y-77553140D01*
X87798302Y-77531507D01*
X87801108Y-77440240D01*
X88156765Y-77437700D01*
X88512422Y-77435160D01*
X88517914Y-77457067D01*
G37*
G36*
X83250811Y-75394645D02*
G01*
X83290889Y-75399641D01*
X83319556Y-75408655D01*
X83344724Y-75424387D01*
X83349881Y-75428454D01*
X83375916Y-75452894D01*
X83397733Y-75479015D01*
X83402442Y-75486242D01*
X83414333Y-75516679D01*
X83424462Y-75562341D01*
X83432232Y-75619117D01*
X83437047Y-75682899D01*
X83438362Y-75733511D01*
X83438661Y-75808559D01*
X83211097Y-75808559D01*
X82983533Y-75808559D01*
X82983508Y-75718986D01*
X82987603Y-75631017D01*
X83000203Y-75559209D01*
X83021697Y-75502137D01*
X83052478Y-75458376D01*
X83055870Y-75454889D01*
X83100962Y-75419955D01*
X83153151Y-75399706D01*
X83215618Y-75393159D01*
X83250811Y-75394645D01*
G37*
G36*
X88280445Y-72345436D02*
G01*
X88280445Y-72446103D01*
X88253815Y-72451398D01*
X88238023Y-72452679D01*
X88205322Y-72453902D01*
X88158168Y-72455024D01*
X88099021Y-72456002D01*
X88030337Y-72456794D01*
X87954575Y-72457358D01*
X87895309Y-72457603D01*
X87803631Y-72457729D01*
X87729584Y-72457514D01*
X87671434Y-72456893D01*
X87627447Y-72455805D01*
X87595889Y-72454187D01*
X87575027Y-72451977D01*
X87563125Y-72449111D01*
X87558451Y-72445528D01*
X87558419Y-72445447D01*
X87556511Y-72430478D01*
X87555568Y-72401220D01*
X87555697Y-72362733D01*
X87556212Y-72341115D01*
X87559019Y-72249847D01*
X87919732Y-72247309D01*
X88280445Y-72244770D01*
X88280445Y-72345436D01*
G37*
G36*
X87270481Y-77437192D02*
G01*
X87356311Y-77437698D01*
X87713956Y-77440240D01*
X87713956Y-77541917D01*
X87713956Y-77643595D01*
X87360139Y-77646133D01*
X87261544Y-77646675D01*
X87180887Y-77646726D01*
X87116745Y-77646250D01*
X87067695Y-77645212D01*
X87032313Y-77643576D01*
X87009177Y-77641306D01*
X86996861Y-77638366D01*
X86994584Y-77636934D01*
X86989316Y-77622240D01*
X86985541Y-77593890D01*
X86983370Y-77557545D01*
X86982913Y-77518868D01*
X86984279Y-77483518D01*
X86987579Y-77457159D01*
X86990904Y-77447382D01*
X86997037Y-77444092D01*
X87011848Y-77441483D01*
X87036891Y-77439512D01*
X87073721Y-77438139D01*
X87123893Y-77437322D01*
X87188962Y-77437020D01*
X87270481Y-77437192D01*
G37*
G36*
X89024984Y-72246992D02*
G01*
X89074013Y-72247857D01*
X89109858Y-72249274D01*
X89134063Y-72251285D01*
X89148175Y-72253928D01*
X89153593Y-72256990D01*
X89157057Y-72271662D01*
X89159760Y-72300570D01*
X89161297Y-72338589D01*
X89161501Y-72357361D01*
X89161650Y-72445508D01*
X89062393Y-72451713D01*
X89025610Y-72453383D01*
X88973247Y-72454883D01*
X88909092Y-72456151D01*
X88836933Y-72457122D01*
X88760556Y-72457735D01*
X88690903Y-72457926D01*
X88418669Y-72457935D01*
X88413564Y-72407151D01*
X88411748Y-72365747D01*
X88413107Y-72320356D01*
X88414658Y-72303107D01*
X88420857Y-72249847D01*
X88783345Y-72247307D01*
X88881195Y-72246757D01*
X88961226Y-72246639D01*
X89024984Y-72246992D01*
G37*
G36*
X88278377Y-79084194D02*
G01*
X88279025Y-79131196D01*
X88277500Y-79161562D01*
X88273543Y-79177926D01*
X88268693Y-79182639D01*
X88256438Y-79183673D01*
X88227072Y-79184905D01*
X88182851Y-79186280D01*
X88126028Y-79187738D01*
X88058859Y-79189222D01*
X87983598Y-79190673D01*
X87904843Y-79191998D01*
X87810094Y-79193362D01*
X87733039Y-79194173D01*
X87672012Y-79194397D01*
X87625347Y-79194000D01*
X87591377Y-79192950D01*
X87568437Y-79191212D01*
X87554859Y-79188753D01*
X87548978Y-79185539D01*
X87548586Y-79184821D01*
X87546743Y-79170033D01*
X87545851Y-79140930D01*
X87546008Y-79102546D01*
X87546529Y-79080878D01*
X87549336Y-78989611D01*
X87912469Y-78989611D01*
X88275603Y-78989611D01*
X88278377Y-79084194D01*
G37*
G36*
X88510800Y-75802917D02*
G01*
X88511394Y-75851699D01*
X88509648Y-75883772D01*
X88505326Y-75901678D01*
X88501116Y-75906867D01*
X88488856Y-75908687D01*
X88459484Y-75910368D01*
X88415256Y-75911859D01*
X88358427Y-75913111D01*
X88291253Y-75914074D01*
X88215989Y-75914697D01*
X88137308Y-75914930D01*
X88042361Y-75914846D01*
X87965128Y-75914469D01*
X87903959Y-75913739D01*
X87857203Y-75912597D01*
X87823209Y-75910986D01*
X87800328Y-75908845D01*
X87786906Y-75906116D01*
X87781295Y-75902741D01*
X87781052Y-75902247D01*
X87779183Y-75887386D01*
X87778270Y-75858222D01*
X87778416Y-75819797D01*
X87778935Y-75798149D01*
X87781741Y-75706881D01*
X88144875Y-75706881D01*
X88508009Y-75706881D01*
X88510800Y-75802917D01*
G37*
G36*
X89153683Y-79017623D02*
G01*
X89155128Y-79044644D01*
X89155071Y-79082327D01*
X89153725Y-79118317D01*
X89149905Y-79185925D01*
X89114622Y-79191760D01*
X89096640Y-79193159D01*
X89061853Y-79194445D01*
X89012825Y-79195575D01*
X88952118Y-79196506D01*
X88882295Y-79197197D01*
X88805918Y-79197606D01*
X88752215Y-79197701D01*
X88660819Y-79197596D01*
X88587082Y-79197171D01*
X88529299Y-79196361D01*
X88485764Y-79195101D01*
X88454771Y-79193326D01*
X88434615Y-79190969D01*
X88423590Y-79187965D01*
X88420167Y-79184977D01*
X88418298Y-79170116D01*
X88417385Y-79140951D01*
X88417531Y-79102526D01*
X88418050Y-79080878D01*
X88420857Y-78989611D01*
X88785339Y-78987075D01*
X89149820Y-78984538D01*
X89153683Y-79017623D01*
G37*
G36*
X92879059Y-73589187D02*
G01*
X92880329Y-73591022D01*
X92890754Y-73625246D01*
X92883428Y-73666648D01*
X92858476Y-73714963D01*
X92816027Y-73769926D01*
X92771789Y-73816326D01*
X92721014Y-73862666D01*
X92672887Y-73900342D01*
X92629443Y-73928228D01*
X92592715Y-73945204D01*
X92564738Y-73950143D01*
X92547545Y-73941924D01*
X92546694Y-73940661D01*
X92546289Y-73926813D01*
X92551825Y-73902866D01*
X92554530Y-73894642D01*
X92566295Y-73872759D01*
X92589515Y-73842475D01*
X92625219Y-73802595D01*
X92674432Y-73751927D01*
X92694432Y-73732023D01*
X92747889Y-73679616D01*
X92789587Y-73639949D01*
X92821163Y-73611778D01*
X92844260Y-73593861D01*
X92860515Y-73584952D01*
X92871568Y-73583809D01*
X92879059Y-73589187D01*
G37*
G36*
X86528450Y-72346167D02*
G01*
X86527169Y-72387775D01*
X86525288Y-72422029D01*
X86523103Y-72444364D01*
X86521700Y-72450266D01*
X86511254Y-72452030D01*
X86483611Y-72453655D01*
X86440943Y-72455092D01*
X86385418Y-72456296D01*
X86319209Y-72457221D01*
X86244485Y-72457819D01*
X86163416Y-72458043D01*
X86158868Y-72458044D01*
X86062946Y-72457923D01*
X85984754Y-72457522D01*
X85922657Y-72456783D01*
X85875019Y-72455648D01*
X85840207Y-72454060D01*
X85816583Y-72451960D01*
X85802512Y-72449291D01*
X85796360Y-72445994D01*
X85795920Y-72445213D01*
X85794051Y-72430352D01*
X85793138Y-72401188D01*
X85793284Y-72362763D01*
X85793803Y-72341115D01*
X85796610Y-72249847D01*
X86163501Y-72249847D01*
X86530393Y-72249847D01*
X86528450Y-72346167D01*
G37*
G36*
X87344614Y-78987170D02*
G01*
X87375301Y-78988044D01*
X87388689Y-78989335D01*
X87398102Y-78993456D01*
X87404009Y-79001088D01*
X87407058Y-79015973D01*
X87407893Y-79041853D01*
X87407161Y-79082471D01*
X87406833Y-79094467D01*
X87404082Y-79192966D01*
X87045790Y-79194683D01*
X86964038Y-79194944D01*
X86888191Y-79194934D01*
X86820478Y-79194672D01*
X86763126Y-79194179D01*
X86718365Y-79193473D01*
X86688422Y-79192575D01*
X86675526Y-79191503D01*
X86675394Y-79191455D01*
X86669126Y-79181360D01*
X86665211Y-79156079D01*
X86663442Y-79113909D01*
X86663289Y-79091736D01*
X86663289Y-78996962D01*
X87015541Y-78989833D01*
X87097035Y-78988373D01*
X87173011Y-78987373D01*
X87241147Y-78986837D01*
X87299122Y-78986769D01*
X87344614Y-78987170D01*
G37*
G36*
X92649650Y-74748647D02*
G01*
X92685431Y-74764291D01*
X92725776Y-74791959D01*
X92772856Y-74833102D01*
X92818863Y-74878789D01*
X92863101Y-74925403D01*
X92895035Y-74961758D01*
X92916569Y-74990758D01*
X92929609Y-75015302D01*
X92936060Y-75038292D01*
X92937805Y-75059932D01*
X92935950Y-75084833D01*
X92927234Y-75094704D01*
X92908326Y-75090971D01*
X92887837Y-75081335D01*
X92867832Y-75067508D01*
X92837905Y-75042435D01*
X92801081Y-75009099D01*
X92760389Y-74970485D01*
X92718853Y-74929579D01*
X92679502Y-74889364D01*
X92645362Y-74852825D01*
X92619460Y-74822947D01*
X92604822Y-74802714D01*
X92604301Y-74801743D01*
X92591406Y-74770694D01*
X92592090Y-74752068D01*
X92606708Y-74744142D01*
X92616263Y-74743579D01*
X92649650Y-74748647D01*
G37*
G36*
X93950064Y-75680964D02*
G01*
X93993751Y-75703811D01*
X94042185Y-75739908D01*
X94074495Y-75769284D01*
X94110390Y-75803255D01*
X94147217Y-75836514D01*
X94178961Y-75863684D01*
X94189407Y-75872045D01*
X94217097Y-75898519D01*
X94240409Y-75929846D01*
X94256699Y-75961214D01*
X94263323Y-75987809D01*
X94260508Y-76001486D01*
X94244053Y-76010681D01*
X94215495Y-76007753D01*
X94177536Y-75993067D01*
X94170037Y-75989268D01*
X94134684Y-75967039D01*
X94091678Y-75934509D01*
X94046028Y-75896030D01*
X94002744Y-75855955D01*
X93966838Y-75818634D01*
X93949957Y-75798090D01*
X93932901Y-75770364D01*
X93919079Y-75739410D01*
X93909842Y-75709908D01*
X93906541Y-75686534D01*
X93910527Y-75673968D01*
X93913827Y-75672989D01*
X93950064Y-75680964D01*
G37*
G36*
X94324681Y-75787708D02*
G01*
X94335211Y-75796454D01*
X94344971Y-75812730D01*
X94359661Y-75844026D01*
X94378026Y-75887014D01*
X94398810Y-75938363D01*
X94420758Y-75994746D01*
X94442615Y-76052832D01*
X94463125Y-76109294D01*
X94481035Y-76160802D01*
X94495088Y-76204027D01*
X94504029Y-76235639D01*
X94506672Y-76251203D01*
X94499376Y-76284438D01*
X94480227Y-76305812D01*
X94456574Y-76312104D01*
X94431748Y-76305501D01*
X94417632Y-76295158D01*
X94403015Y-76272128D01*
X94395687Y-76254003D01*
X94386640Y-76226807D01*
X94376712Y-76200743D01*
X94338125Y-76105171D01*
X94305717Y-76021851D01*
X94279870Y-75951855D01*
X94260968Y-75896257D01*
X94249392Y-75856128D01*
X94245523Y-75832752D01*
X94253471Y-75806017D01*
X94273313Y-75787978D01*
X94299050Y-75781066D01*
X94324681Y-75787708D01*
G37*
G36*
X92414392Y-77797953D02*
G01*
X92423549Y-77812994D01*
X92429426Y-77840580D01*
X92431462Y-77874082D01*
X92429096Y-77906871D01*
X92425074Y-77924232D01*
X92404969Y-77971208D01*
X92374830Y-78024419D01*
X92337992Y-78079329D01*
X92297790Y-78131402D01*
X92257560Y-78176101D01*
X92220638Y-78208891D01*
X92210766Y-78215688D01*
X92180608Y-78232951D01*
X92162811Y-78238018D01*
X92154926Y-78231167D01*
X92153926Y-78222188D01*
X92157790Y-78192127D01*
X92169971Y-78156458D01*
X92191625Y-78112774D01*
X92223909Y-78058670D01*
X92256227Y-78009157D01*
X92284692Y-77965972D01*
X92308836Y-77928018D01*
X92326763Y-77898377D01*
X92336583Y-77880132D01*
X92337860Y-77876282D01*
X92343976Y-77862112D01*
X92359159Y-77842297D01*
X92378659Y-77821698D01*
X92397729Y-77805176D01*
X92411619Y-77797589D01*
X92414392Y-77797953D01*
G37*
G36*
X92785124Y-75069557D02*
G01*
X92810779Y-75077173D01*
X92847142Y-75090949D01*
X92897038Y-75111786D01*
X92921410Y-75122295D01*
X92969914Y-75143842D01*
X93011832Y-75163430D01*
X93044056Y-75179529D01*
X93063472Y-75190606D01*
X93067717Y-75194289D01*
X93069157Y-75209490D01*
X93068053Y-75236037D01*
X93066722Y-75249970D01*
X93061394Y-75279476D01*
X93053084Y-75293000D01*
X93045922Y-75294825D01*
X93030654Y-75291179D01*
X93002115Y-75281761D01*
X92964945Y-75268165D01*
X92938241Y-75257800D01*
X92867990Y-75228694D01*
X92810621Y-75202387D01*
X92767818Y-75179722D01*
X92741262Y-75161545D01*
X92736038Y-75156306D01*
X92728406Y-75136824D01*
X92726916Y-75110235D01*
X92726963Y-75109728D01*
X92733918Y-75084124D01*
X92751204Y-75070504D01*
X92754633Y-75069210D01*
X92767351Y-75067203D01*
X92785124Y-75069557D01*
G37*
G36*
X92970239Y-77434471D02*
G01*
X92972825Y-77449525D01*
X92964758Y-77474003D01*
X92948471Y-77503054D01*
X92926399Y-77531826D01*
X92915900Y-77542746D01*
X92893094Y-77560631D01*
X92857915Y-77583474D01*
X92815553Y-77608065D01*
X92779741Y-77626960D01*
X92729612Y-77651172D01*
X92690835Y-77667174D01*
X92658174Y-77676750D01*
X92626391Y-77681687D01*
X92616833Y-77682488D01*
X92582925Y-77683963D01*
X92556073Y-77683402D01*
X92543636Y-77681370D01*
X92532560Y-77668898D01*
X92537523Y-77650554D01*
X92556781Y-77628140D01*
X92588592Y-77603457D01*
X92631212Y-77578307D01*
X92654372Y-77566888D01*
X92694748Y-77547576D01*
X92743302Y-77523589D01*
X92791114Y-77499349D01*
X92802671Y-77493370D01*
X92862488Y-77463894D01*
X92910677Y-77443591D01*
X92945888Y-77432935D01*
X92966774Y-77432400D01*
X92970239Y-77434471D01*
G37*
G36*
X93526914Y-77039380D02*
G01*
X93568594Y-77044000D01*
X93594320Y-77051654D01*
X93620778Y-77068888D01*
X93641250Y-77088533D01*
X93651626Y-77106062D01*
X93651051Y-77114114D01*
X93635783Y-77123437D01*
X93603425Y-77131757D01*
X93556247Y-77138559D01*
X93533781Y-77140735D01*
X93447129Y-77148782D01*
X93374117Y-77156879D01*
X93316209Y-77164829D01*
X93274868Y-77172433D01*
X93252957Y-77178849D01*
X93226824Y-77189197D01*
X93194389Y-77200731D01*
X93161771Y-77211442D01*
X93135087Y-77219322D01*
X93120504Y-77222360D01*
X93112691Y-77215029D01*
X93112546Y-77213307D01*
X93120090Y-77183733D01*
X93139946Y-77149298D01*
X93167950Y-77115319D01*
X93199940Y-77087114D01*
X93221545Y-77074088D01*
X93256353Y-77062236D01*
X93303641Y-77052447D01*
X93358875Y-77044994D01*
X93417521Y-77040150D01*
X93475045Y-77038188D01*
X93526914Y-77039380D01*
G37*
G36*
X94325966Y-76159773D02*
G01*
X94334171Y-76169823D01*
X94345571Y-76192387D01*
X94353146Y-76210797D01*
X94360952Y-76235234D01*
X94366240Y-76262894D01*
X94369423Y-76298005D01*
X94370918Y-76344793D01*
X94371175Y-76394415D01*
X94370891Y-76448825D01*
X94369841Y-76488006D01*
X94367424Y-76516094D01*
X94363041Y-76537227D01*
X94356090Y-76555541D01*
X94345970Y-76575173D01*
X94344554Y-76577743D01*
X94324814Y-76610245D01*
X94309645Y-76625933D01*
X94296590Y-76626041D01*
X94283190Y-76611801D01*
X94281556Y-76609360D01*
X94268104Y-76577771D01*
X94257767Y-76531671D01*
X94250786Y-76475702D01*
X94247399Y-76414505D01*
X94247847Y-76352721D01*
X94252369Y-76294992D01*
X94261204Y-76245960D01*
X94262542Y-76240962D01*
X94274113Y-76212587D01*
X94290735Y-76186221D01*
X94308528Y-76166832D01*
X94323610Y-76159389D01*
X94325966Y-76159773D01*
G37*
G36*
X86967562Y-75993774D02*
G01*
X86987325Y-75995572D01*
X86998089Y-75999620D01*
X87003306Y-76006482D01*
X87005717Y-76014038D01*
X87006717Y-76027258D01*
X87007669Y-76058206D01*
X87008557Y-76105241D01*
X87009366Y-76166724D01*
X87010082Y-76241013D01*
X87010690Y-76326470D01*
X87011177Y-76421454D01*
X87011527Y-76524326D01*
X87011725Y-76633445D01*
X87011765Y-76697026D01*
X87011898Y-77357930D01*
X86895391Y-77357930D01*
X86841045Y-77357260D01*
X86804047Y-77355118D01*
X86782422Y-77351308D01*
X86774260Y-77345825D01*
X86773520Y-77334335D01*
X86772889Y-77305076D01*
X86772369Y-77259648D01*
X86771968Y-77199648D01*
X86771689Y-77126676D01*
X86771538Y-77042331D01*
X86771520Y-76948210D01*
X86771640Y-76845913D01*
X86771902Y-76737038D01*
X86772143Y-76665555D01*
X86774650Y-75997388D01*
X86887225Y-75994671D01*
X86935346Y-75993661D01*
X86967562Y-75993774D01*
G37*
G36*
X92120922Y-78029638D02*
G01*
X92135683Y-78042100D01*
X92141486Y-78066236D01*
X92139450Y-78104801D01*
X92136556Y-78125765D01*
X92129950Y-78166061D01*
X92121059Y-78216307D01*
X92110652Y-78272574D01*
X92099496Y-78330928D01*
X92088359Y-78387439D01*
X92078008Y-78438176D01*
X92069210Y-78479207D01*
X92062733Y-78506600D01*
X92061033Y-78512638D01*
X92044854Y-78541416D01*
X92021499Y-78555752D01*
X91995516Y-78554216D01*
X91975038Y-78539670D01*
X91967530Y-78528525D01*
X91962873Y-78513320D01*
X91961292Y-78492028D01*
X91963014Y-78462625D01*
X91968264Y-78423086D01*
X91977268Y-78371387D01*
X91990251Y-78305502D01*
X92007440Y-78223406D01*
X92013398Y-78195558D01*
X92021957Y-78154984D01*
X92029456Y-78118190D01*
X92034486Y-78092111D01*
X92035029Y-78089039D01*
X92048187Y-78052984D01*
X92071693Y-78031486D01*
X92096086Y-78026096D01*
X92120922Y-78029638D01*
G37*
G36*
X93999852Y-77078863D02*
G01*
X94015682Y-77089709D01*
X94017242Y-77091642D01*
X94029936Y-77113559D01*
X94028400Y-77132214D01*
X94011874Y-77154606D01*
X94010223Y-77156400D01*
X93981926Y-77176021D01*
X93936496Y-77193209D01*
X93920650Y-77197538D01*
X93877885Y-77208542D01*
X93834493Y-77219912D01*
X93804921Y-77227822D01*
X93717980Y-77250747D01*
X93648084Y-77267523D01*
X93593988Y-77278374D01*
X93554448Y-77283524D01*
X93528219Y-77283197D01*
X93516835Y-77279671D01*
X93503856Y-77262271D01*
X93500030Y-77235872D01*
X93505323Y-77208522D01*
X93517217Y-77190312D01*
X93533704Y-77181385D01*
X93564128Y-77169991D01*
X93603522Y-77157865D01*
X93630999Y-77150559D01*
X93686754Y-77136535D01*
X93749913Y-77120482D01*
X93809145Y-77105284D01*
X93824288Y-77101366D01*
X93889588Y-77085626D01*
X93939091Y-77076706D01*
X93975084Y-77074490D01*
X93999852Y-77078863D01*
G37*
G36*
X92534336Y-73738766D02*
G01*
X92543354Y-73751628D01*
X92547400Y-73765698D01*
X92548033Y-73784843D01*
X92544787Y-73811314D01*
X92537195Y-73847365D01*
X92524790Y-73895247D01*
X92507105Y-73957211D01*
X92486319Y-74026782D01*
X92471978Y-74074295D01*
X92458687Y-74118568D01*
X92448037Y-74154290D01*
X92442113Y-74174428D01*
X92423591Y-74223744D01*
X92401597Y-74254712D01*
X92375485Y-74268141D01*
X92366846Y-74268871D01*
X92341875Y-74263771D01*
X92326785Y-74245441D01*
X92326096Y-74243962D01*
X92321600Y-74215880D01*
X92325873Y-74171070D01*
X92338830Y-74110029D01*
X92360384Y-74033255D01*
X92365391Y-74017099D01*
X92377249Y-73978835D01*
X92392084Y-73930254D01*
X92407381Y-73879611D01*
X92413361Y-73859637D01*
X92427071Y-73817459D01*
X92441056Y-73780721D01*
X92453281Y-73754506D01*
X92458999Y-73745855D01*
X92483894Y-73729319D01*
X92511146Y-73727103D01*
X92534336Y-73738766D01*
G37*
G36*
X92602364Y-77463917D02*
G01*
X92612738Y-77479589D01*
X92614576Y-77493772D01*
X92609450Y-77511711D01*
X92596173Y-77534988D01*
X92573558Y-77565187D01*
X92540418Y-77603891D01*
X92495565Y-77652683D01*
X92437814Y-77713146D01*
X92436964Y-77714025D01*
X92386629Y-77765777D01*
X92347591Y-77805018D01*
X92317940Y-77833398D01*
X92295764Y-77852572D01*
X92279153Y-77864193D01*
X92266197Y-77869912D01*
X92255066Y-77871383D01*
X92230130Y-77867617D01*
X92213911Y-77859538D01*
X92205205Y-77841676D01*
X92202290Y-77820944D01*
X92204673Y-77809672D01*
X92212795Y-77794597D01*
X92228116Y-77773982D01*
X92252095Y-77746092D01*
X92286191Y-77709189D01*
X92331865Y-77661539D01*
X92364466Y-77628058D01*
X92411073Y-77580964D01*
X92454346Y-77538342D01*
X92492109Y-77502245D01*
X92522188Y-77474731D01*
X92542407Y-77457853D01*
X92549088Y-77453613D01*
X92577946Y-77451224D01*
X92602364Y-77463917D01*
G37*
G36*
X85188966Y-72545344D02*
G01*
X85232835Y-72546092D01*
X85270017Y-72547998D01*
X85295918Y-72550751D01*
X85305232Y-72553217D01*
X85307603Y-72558403D01*
X85309634Y-72571469D01*
X85311341Y-72593525D01*
X85312737Y-72625682D01*
X85313839Y-72669051D01*
X85314660Y-72724743D01*
X85315216Y-72793868D01*
X85315521Y-72877537D01*
X85315590Y-72976861D01*
X85315439Y-73092951D01*
X85315082Y-73226918D01*
X85314915Y-73276916D01*
X85312431Y-73992890D01*
X85210754Y-73994705D01*
X85167404Y-73995001D01*
X85130764Y-73994364D01*
X85105491Y-73992925D01*
X85096972Y-73991478D01*
X85094604Y-73986717D01*
X85092545Y-73973817D01*
X85090775Y-73951688D01*
X85089278Y-73919242D01*
X85088033Y-73875389D01*
X85087024Y-73819042D01*
X85086232Y-73749111D01*
X85085639Y-73664507D01*
X85085227Y-73564142D01*
X85084978Y-73446927D01*
X85084873Y-73311773D01*
X85084867Y-73265815D01*
X85084867Y-72545196D01*
X85188966Y-72545344D01*
G37*
G36*
X92521783Y-74122355D02*
G01*
X92544921Y-74145154D01*
X92567549Y-74178639D01*
X92567845Y-74179167D01*
X92572987Y-74197071D01*
X92576661Y-74230454D01*
X92578942Y-74280494D01*
X92579906Y-74348370D01*
X92579949Y-74369674D01*
X92579872Y-74430606D01*
X92579372Y-74475327D01*
X92578053Y-74506994D01*
X92575516Y-74528763D01*
X92571363Y-74543792D01*
X92565195Y-74555237D01*
X92556613Y-74566254D01*
X92554880Y-74568319D01*
X92536359Y-74587253D01*
X92521309Y-74597486D01*
X92518566Y-74598076D01*
X92508567Y-74589848D01*
X92496256Y-74569084D01*
X92490891Y-74556921D01*
X92484302Y-74535994D01*
X92479464Y-74508907D01*
X92476090Y-74472438D01*
X92473891Y-74423368D01*
X92472579Y-74358474D01*
X92472488Y-74351182D01*
X92472119Y-74274139D01*
X92473231Y-74214589D01*
X92476052Y-74170700D01*
X92480809Y-74140639D01*
X92487729Y-74122572D01*
X92497039Y-74114666D01*
X92501871Y-74113934D01*
X92521783Y-74122355D01*
G37*
G36*
X93290654Y-77235259D02*
G01*
X93303160Y-77251362D01*
X93306217Y-77272414D01*
X93297486Y-77304778D01*
X93272119Y-77328571D01*
X93231349Y-77342682D01*
X93227352Y-77343376D01*
X93197114Y-77349118D01*
X93156308Y-77357925D01*
X93113118Y-77368023D01*
X93107704Y-77369350D01*
X93050786Y-77382956D01*
X92993529Y-77395876D01*
X92939728Y-77407331D01*
X92893183Y-77416540D01*
X92857690Y-77422721D01*
X92837049Y-77425094D01*
X92836564Y-77425099D01*
X92811365Y-77420197D01*
X92800251Y-77415255D01*
X92786667Y-77396533D01*
X92783304Y-77372197D01*
X92786657Y-77348760D01*
X92798611Y-77330835D01*
X92822009Y-77316519D01*
X92859696Y-77303908D01*
X92899724Y-77294276D01*
X92945583Y-77283997D01*
X92993720Y-77272877D01*
X93030235Y-77264164D01*
X93068131Y-77255646D01*
X93116016Y-77245924D01*
X93164755Y-77236837D01*
X93174292Y-77235173D01*
X93228390Y-77227777D01*
X93266454Y-77227601D01*
X93290654Y-77235259D01*
G37*
G36*
X94213874Y-76772754D02*
G01*
X94216472Y-76779972D01*
X94209828Y-76804226D01*
X94193193Y-76833517D01*
X94171517Y-76860555D01*
X94149943Y-76877951D01*
X94132720Y-76888610D01*
X94103888Y-76908303D01*
X94067266Y-76934355D01*
X94026671Y-76964089D01*
X94020846Y-76968425D01*
X93979978Y-76997898D01*
X93942310Y-77023235D01*
X93911679Y-77041977D01*
X93891922Y-77051666D01*
X93890118Y-77052190D01*
X93863068Y-77059035D01*
X93844644Y-77064148D01*
X93832446Y-77065494D01*
X93829662Y-77055995D01*
X93832242Y-77039759D01*
X93850511Y-76992036D01*
X93884717Y-76944511D01*
X93931831Y-76901294D01*
X93937326Y-76897230D01*
X93964451Y-76877252D01*
X93984855Y-76861614D01*
X93993750Y-76854049D01*
X94003856Y-76846474D01*
X94025999Y-76831908D01*
X94055619Y-76813342D01*
X94059201Y-76811145D01*
X94097537Y-76790981D01*
X94135960Y-76776309D01*
X94170683Y-76767880D01*
X94197917Y-76766444D01*
X94213874Y-76772754D01*
G37*
G36*
X86108440Y-78986471D02*
G01*
X86179111Y-78986910D01*
X86522877Y-78989611D01*
X86525668Y-79085646D01*
X86526263Y-79134429D01*
X86524517Y-79166501D01*
X86520194Y-79184408D01*
X86515985Y-79189596D01*
X86502441Y-79192159D01*
X86472438Y-79194250D01*
X86428657Y-79195881D01*
X86373785Y-79197064D01*
X86310506Y-79197814D01*
X86241502Y-79198143D01*
X86169459Y-79198064D01*
X86097060Y-79197589D01*
X86026991Y-79196731D01*
X85961934Y-79195504D01*
X85904574Y-79193920D01*
X85857596Y-79191991D01*
X85823683Y-79189732D01*
X85805519Y-79187154D01*
X85803388Y-79186187D01*
X85797177Y-79169648D01*
X85793224Y-79135953D01*
X85791771Y-79087209D01*
X85791768Y-79084694D01*
X85792054Y-79042469D01*
X85793505Y-79015721D01*
X85797010Y-79000563D01*
X85803461Y-78993109D01*
X85813556Y-78989516D01*
X85828075Y-78988356D01*
X85859596Y-78987435D01*
X85905757Y-78986768D01*
X85964193Y-78986375D01*
X86032542Y-78986270D01*
X86108440Y-78986471D01*
G37*
G36*
X94490953Y-76513801D02*
G01*
X94503125Y-76533612D01*
X94505227Y-76557547D01*
X94496632Y-76588700D01*
X94476711Y-76630168D01*
X94462051Y-76656177D01*
X94435678Y-76701603D01*
X94407071Y-76751078D01*
X94381772Y-76795015D01*
X94378267Y-76801124D01*
X94344324Y-76859598D01*
X94317726Y-76903578D01*
X94296788Y-76935702D01*
X94279827Y-76958609D01*
X94271646Y-76968166D01*
X94247285Y-76984986D01*
X94220171Y-76989620D01*
X94196964Y-76981825D01*
X94187762Y-76971224D01*
X94179512Y-76950166D01*
X94177738Y-76939485D01*
X94182815Y-76921775D01*
X94197119Y-76890519D01*
X94219265Y-76848370D01*
X94247864Y-76797982D01*
X94277924Y-76747865D01*
X94302447Y-76707496D01*
X94326849Y-76666602D01*
X94346521Y-76632921D01*
X94349389Y-76627896D01*
X94371259Y-76589512D01*
X94386299Y-76563838D01*
X94397174Y-76546704D01*
X94406548Y-76533938D01*
X94417087Y-76521373D01*
X94418529Y-76519712D01*
X94444331Y-76499849D01*
X94469867Y-76498921D01*
X94490953Y-76513801D01*
G37*
G36*
X92261550Y-77664081D02*
G01*
X92265196Y-77667743D01*
X92261901Y-77680180D01*
X92244739Y-77703906D01*
X92214645Y-77737720D01*
X92194689Y-77758391D01*
X92136768Y-77821815D01*
X92087092Y-77885590D01*
X92047184Y-77947171D01*
X92018566Y-78004011D01*
X92002759Y-78053566D01*
X92000183Y-78083635D01*
X91999344Y-78120394D01*
X91993735Y-78152176D01*
X91984656Y-78174006D01*
X91974747Y-78181033D01*
X91961776Y-78173454D01*
X91945699Y-78154628D01*
X91941624Y-78148418D01*
X91928537Y-78123574D01*
X91921737Y-78103498D01*
X91921467Y-78100572D01*
X91916035Y-78083540D01*
X91911783Y-78079356D01*
X91902473Y-78062841D01*
X91902732Y-78033211D01*
X91911958Y-77993832D01*
X91929551Y-77948070D01*
X91938621Y-77929077D01*
X91965916Y-77880051D01*
X91999029Y-77828374D01*
X92034770Y-77778374D01*
X92069946Y-77734376D01*
X92101365Y-77700707D01*
X92116962Y-77687354D01*
X92142988Y-77673806D01*
X92176267Y-77663937D01*
X92210990Y-77658515D01*
X92241354Y-77658307D01*
X92261550Y-77664081D01*
G37*
G36*
X90255893Y-76660141D02*
G01*
X90255815Y-76798547D01*
X90255568Y-76918617D01*
X90255137Y-77021384D01*
X90254501Y-77107877D01*
X90253646Y-77179128D01*
X90252552Y-77236168D01*
X90251202Y-77280029D01*
X90249579Y-77311741D01*
X90247665Y-77332335D01*
X90245443Y-77342844D01*
X90244258Y-77344610D01*
X90230216Y-77347958D01*
X90201404Y-77351359D01*
X90162415Y-77354354D01*
X90129545Y-77356048D01*
X90026465Y-77360295D01*
X90020219Y-77308273D01*
X90018969Y-77288028D01*
X90017859Y-77250662D01*
X90016889Y-77198269D01*
X90016059Y-77132945D01*
X90015370Y-77056783D01*
X90014823Y-76971879D01*
X90014417Y-76880326D01*
X90014153Y-76784220D01*
X90014032Y-76685655D01*
X90014053Y-76586725D01*
X90014218Y-76489525D01*
X90014527Y-76396150D01*
X90014980Y-76308693D01*
X90015578Y-76229251D01*
X90016320Y-76159916D01*
X90017208Y-76102784D01*
X90018242Y-76059950D01*
X90019422Y-76033507D01*
X90019962Y-76027791D01*
X90026120Y-75982863D01*
X90141006Y-75982863D01*
X90255893Y-75982863D01*
X90255893Y-76660141D01*
G37*
G36*
X92398645Y-74457838D02*
G01*
X92418338Y-74474210D01*
X92438607Y-74504130D01*
X92461108Y-74549751D01*
X92472205Y-74575502D01*
X92486591Y-74609192D01*
X92506576Y-74655042D01*
X92529757Y-74707579D01*
X92553728Y-74761327D01*
X92559225Y-74773562D01*
X92582245Y-74825322D01*
X92597990Y-74862840D01*
X92607443Y-74889391D01*
X92611591Y-74908252D01*
X92611418Y-74922698D01*
X92607994Y-74935762D01*
X92598666Y-74956395D01*
X92590117Y-74966000D01*
X92589478Y-74966088D01*
X92573664Y-74968840D01*
X92568637Y-74970325D01*
X92550114Y-74970254D01*
X92533522Y-74965636D01*
X92515588Y-74951177D01*
X92499200Y-74926634D01*
X92496295Y-74920244D01*
X92487656Y-74899961D01*
X92472658Y-74865488D01*
X92452836Y-74820318D01*
X92429722Y-74767948D01*
X92404852Y-74711873D01*
X92404731Y-74711601D01*
X92372238Y-74636327D01*
X92348904Y-74576465D01*
X92334568Y-74530452D01*
X92329067Y-74496726D01*
X92332238Y-74473722D01*
X92343920Y-74459876D01*
X92363950Y-74453626D01*
X92377872Y-74452859D01*
X92398645Y-74457838D01*
G37*
G36*
X94160452Y-75462283D02*
G01*
X94191302Y-75470446D01*
X94223355Y-75486189D01*
X94259561Y-75511260D01*
X94302869Y-75547409D01*
X94353268Y-75593593D01*
X94406861Y-75648405D01*
X94444384Y-75697658D01*
X94467349Y-75743926D01*
X94477263Y-75789778D01*
X94477929Y-75805967D01*
X94474095Y-75840345D01*
X94464181Y-75874970D01*
X94450563Y-75903769D01*
X94435623Y-75920669D01*
X94432406Y-75922183D01*
X94423432Y-75915972D01*
X94411073Y-75896483D01*
X94402860Y-75879123D01*
X94389601Y-75844459D01*
X94378937Y-75810725D01*
X94376041Y-75799046D01*
X94363066Y-75769661D01*
X94337114Y-75733558D01*
X94301777Y-75694053D01*
X94260643Y-75654458D01*
X94217302Y-75618089D01*
X94175346Y-75588261D01*
X94138364Y-75568286D01*
X94119637Y-75562329D01*
X94087579Y-75553842D01*
X94053879Y-75541243D01*
X94023619Y-75526931D01*
X94001884Y-75513303D01*
X93993750Y-75502922D01*
X94002621Y-75490490D01*
X94026051Y-75478460D01*
X94059261Y-75468365D01*
X94097477Y-75461733D01*
X94127856Y-75459950D01*
X94160452Y-75462283D01*
G37*
G36*
X87298681Y-75705890D02*
G01*
X87370052Y-75706078D01*
X87440451Y-75706410D01*
X87507030Y-75706877D01*
X87566943Y-75707470D01*
X87617341Y-75708180D01*
X87655379Y-75708999D01*
X87678209Y-75709917D01*
X87682823Y-75710371D01*
X87685731Y-75719959D01*
X87687570Y-75744777D01*
X87688143Y-75780709D01*
X87687665Y-75810980D01*
X87684906Y-75910236D01*
X87636488Y-75916651D01*
X87615361Y-75918189D01*
X87578728Y-75919514D01*
X87529485Y-75920619D01*
X87470528Y-75921497D01*
X87404754Y-75922141D01*
X87335058Y-75922547D01*
X87264337Y-75922707D01*
X87195488Y-75922614D01*
X87131407Y-75922264D01*
X87074990Y-75921648D01*
X87029133Y-75920762D01*
X86996733Y-75919598D01*
X86980686Y-75918150D01*
X86980426Y-75918086D01*
X86972716Y-75913814D01*
X86967739Y-75903491D01*
X86964924Y-75883595D01*
X86963699Y-75850605D01*
X86963480Y-75813599D01*
X86963480Y-75713540D01*
X87009477Y-75708278D01*
X87026892Y-75707417D01*
X87060417Y-75706753D01*
X87107206Y-75706278D01*
X87164411Y-75705981D01*
X87229185Y-75705855D01*
X87298681Y-75705890D01*
G37*
G36*
X93698570Y-77290948D02*
G01*
X93699456Y-77291852D01*
X93698491Y-77305505D01*
X93689256Y-77329394D01*
X93674592Y-77357891D01*
X93657339Y-77385368D01*
X93643320Y-77403115D01*
X93620953Y-77420397D01*
X93587096Y-77435199D01*
X93539690Y-77448101D01*
X93476681Y-77459685D01*
X93411129Y-77468704D01*
X93356466Y-77475422D01*
X93317990Y-77479926D01*
X93292661Y-77482329D01*
X93277440Y-77482742D01*
X93269286Y-77481275D01*
X93265160Y-77478041D01*
X93262641Y-77474132D01*
X93248858Y-77465733D01*
X93239605Y-77464449D01*
X93220746Y-77457811D01*
X93197568Y-77441528D01*
X93176202Y-77421042D01*
X93162782Y-77401798D01*
X93160964Y-77394646D01*
X93168916Y-77383163D01*
X93193336Y-77374963D01*
X93235066Y-77369891D01*
X93294950Y-77367795D01*
X93309046Y-77367720D01*
X93363448Y-77365244D01*
X93421827Y-77358629D01*
X93478361Y-77348880D01*
X93527225Y-77337004D01*
X93562597Y-77324006D01*
X93562832Y-77323889D01*
X93591998Y-77311683D01*
X93625550Y-77301021D01*
X93658092Y-77293167D01*
X93684231Y-77289388D01*
X93698570Y-77290948D01*
G37*
G36*
X92073734Y-74057273D02*
G01*
X92113918Y-74058673D01*
X92137866Y-74061019D01*
X92144189Y-74063604D01*
X92137505Y-74076630D01*
X92128163Y-74086119D01*
X92116395Y-74097027D01*
X92106747Y-74109656D01*
X92098977Y-74125977D01*
X92092841Y-74147963D01*
X92088099Y-74177587D01*
X92084508Y-74216820D01*
X92081826Y-74267636D01*
X92079810Y-74332005D01*
X92078219Y-74411901D01*
X92076883Y-74503698D01*
X92076404Y-74540011D01*
X91972305Y-74538588D01*
X91922100Y-74537394D01*
X91872399Y-74535353D01*
X91830522Y-74532802D01*
X91812777Y-74531230D01*
X91784466Y-74527870D01*
X91762835Y-74523030D01*
X91746940Y-74514305D01*
X91735835Y-74499287D01*
X91728572Y-74475571D01*
X91724206Y-74440749D01*
X91721791Y-74392416D01*
X91720380Y-74328165D01*
X91719843Y-74294879D01*
X91718318Y-74221899D01*
X91717818Y-74165842D01*
X91720544Y-74124454D01*
X91728698Y-74095479D01*
X91744481Y-74076662D01*
X91770094Y-74065746D01*
X91807740Y-74060477D01*
X91859619Y-74058600D01*
X91927933Y-74057858D01*
X91951512Y-74057527D01*
X92019028Y-74056873D01*
X92073734Y-74057273D01*
G37*
G36*
X92438209Y-74858475D02*
G01*
X92452151Y-74880123D01*
X92466905Y-74909781D01*
X92479872Y-74942248D01*
X92488159Y-74970930D01*
X92498101Y-74990564D01*
X92519722Y-75019141D01*
X92549701Y-75053351D01*
X92584716Y-75089885D01*
X92621449Y-75125432D01*
X92656577Y-75156682D01*
X92686783Y-75180325D01*
X92708744Y-75193052D01*
X92711942Y-75194015D01*
X92745249Y-75203212D01*
X92780953Y-75215893D01*
X92814275Y-75229973D01*
X92840435Y-75243367D01*
X92854653Y-75253988D01*
X92855931Y-75256847D01*
X92847038Y-75273166D01*
X92823414Y-75286971D01*
X92789643Y-75297183D01*
X92750307Y-75302723D01*
X92709990Y-75302511D01*
X92681676Y-75297881D01*
X92656340Y-75286048D01*
X92621753Y-75262500D01*
X92581203Y-75230279D01*
X92537978Y-75192432D01*
X92495365Y-75152001D01*
X92456652Y-75112032D01*
X92425128Y-75075569D01*
X92404079Y-75045656D01*
X92399497Y-75036605D01*
X92390174Y-75002701D01*
X92387098Y-74963827D01*
X92389577Y-74924582D01*
X92396914Y-74889563D01*
X92408416Y-74863368D01*
X92423387Y-74850593D01*
X92427682Y-74850036D01*
X92438209Y-74858475D01*
G37*
G36*
X93193294Y-73158665D02*
G01*
X93207637Y-73167791D01*
X93212722Y-73172970D01*
X93223819Y-73187257D01*
X93229268Y-73201321D01*
X93227819Y-73216728D01*
X93218221Y-73235047D01*
X93199226Y-73257844D01*
X93169583Y-73286688D01*
X93128042Y-73323145D01*
X93073353Y-73368784D01*
X93025149Y-73408198D01*
X92981034Y-73444142D01*
X92937939Y-73479331D01*
X92900156Y-73510253D01*
X92871978Y-73533399D01*
X92866692Y-73537762D01*
X92821583Y-73574537D01*
X92788143Y-73600281D01*
X92763550Y-73616810D01*
X92744978Y-73625942D01*
X92729606Y-73629492D01*
X92723701Y-73629756D01*
X92695117Y-73621060D01*
X92681047Y-73606021D01*
X92671099Y-73580639D01*
X92671685Y-73562786D01*
X92682919Y-73545844D01*
X92707696Y-73519763D01*
X92743750Y-73486596D01*
X92788817Y-73448396D01*
X92840635Y-73407218D01*
X92856855Y-73394820D01*
X92885834Y-73372382D01*
X92925279Y-73341169D01*
X92970727Y-73304744D01*
X93017716Y-73266671D01*
X93034839Y-73252683D01*
X93085800Y-73211807D01*
X93124814Y-73183004D01*
X93154193Y-73165236D01*
X93176250Y-73157468D01*
X93193294Y-73158665D01*
G37*
G36*
X94525350Y-76102455D02*
G01*
X94555147Y-76113889D01*
X94586727Y-76133441D01*
X94614483Y-76157991D01*
X94624140Y-76169709D01*
X94644122Y-76203335D01*
X94658155Y-76242490D01*
X94666786Y-76290414D01*
X94670560Y-76350350D01*
X94670024Y-76425536D01*
X94669570Y-76439334D01*
X94666210Y-76503247D01*
X94660565Y-76552000D01*
X94651458Y-76589767D01*
X94637716Y-76620723D01*
X94618164Y-76649042D01*
X94606794Y-76662448D01*
X94584935Y-76680468D01*
X94555978Y-76696000D01*
X94525056Y-76707390D01*
X94497305Y-76712987D01*
X94477859Y-76711137D01*
X94472305Y-76705744D01*
X94474954Y-76692115D01*
X94486366Y-76666764D01*
X94504455Y-76634012D01*
X94516094Y-76615038D01*
X94565081Y-76537879D01*
X94565081Y-76404928D01*
X94564847Y-76350854D01*
X94563774Y-76312092D01*
X94561303Y-76284586D01*
X94556878Y-76264284D01*
X94549940Y-76247131D01*
X94541185Y-76231201D01*
X94522744Y-76196001D01*
X94506247Y-76158552D01*
X94502734Y-76149174D01*
X94494457Y-76123359D01*
X94493535Y-76109970D01*
X94499993Y-76103506D01*
X94502942Y-76102259D01*
X94525350Y-76102455D01*
G37*
G36*
X92741089Y-73402822D02*
G01*
X92759650Y-73411084D01*
X92772209Y-73422767D01*
X92773606Y-73428422D01*
X92731346Y-73458913D01*
X92697459Y-73480494D01*
X92665744Y-73497010D01*
X92655628Y-73501595D01*
X92626930Y-73518092D01*
X92592193Y-73543886D01*
X92554265Y-73576131D01*
X92515995Y-73611980D01*
X92480233Y-73648585D01*
X92449827Y-73683101D01*
X92427627Y-73712679D01*
X92416483Y-73734473D01*
X92415867Y-73741177D01*
X92414627Y-73756629D01*
X92409359Y-73782809D01*
X92401844Y-73811966D01*
X92394181Y-73835532D01*
X92380761Y-73857220D01*
X92364883Y-73859728D01*
X92347008Y-73843017D01*
X92344520Y-73839368D01*
X92325940Y-73793702D01*
X92322037Y-73736541D01*
X92327941Y-73691268D01*
X92333006Y-73668425D01*
X92339502Y-73649596D01*
X92349809Y-73631494D01*
X92366304Y-73610830D01*
X92391367Y-73584316D01*
X92427377Y-73548664D01*
X92440101Y-73536250D01*
X92479844Y-73498948D01*
X92518624Y-73465065D01*
X92552605Y-73437787D01*
X92577951Y-73420302D01*
X92582913Y-73417626D01*
X92619697Y-73405131D01*
X92662650Y-73398339D01*
X92705278Y-73397489D01*
X92741089Y-73402822D01*
G37*
G36*
X94372579Y-76890277D02*
G01*
X94375474Y-76892473D01*
X94389271Y-76914841D01*
X94396298Y-76949986D01*
X94396112Y-76992382D01*
X94388268Y-77036500D01*
X94387320Y-77039857D01*
X94372106Y-77077032D01*
X94347354Y-77113029D01*
X94310664Y-77150539D01*
X94259640Y-77192248D01*
X94235384Y-77210200D01*
X94165668Y-77256819D01*
X94105151Y-77288368D01*
X94051683Y-77305469D01*
X94003114Y-77308745D01*
X93957294Y-77298821D01*
X93945621Y-77294178D01*
X93915295Y-77278245D01*
X93891224Y-77260614D01*
X93878436Y-77245186D01*
X93877548Y-77241355D01*
X93878234Y-77238037D01*
X93882380Y-77234991D01*
X93893112Y-77231317D01*
X93913560Y-77226120D01*
X93946851Y-77218500D01*
X93992681Y-77208321D01*
X94040811Y-77194851D01*
X94084893Y-77175355D01*
X94133332Y-77146054D01*
X94137935Y-77142980D01*
X94186070Y-77110363D01*
X94221108Y-77085364D01*
X94246146Y-77064973D01*
X94264278Y-77046184D01*
X94278600Y-77025988D01*
X94292208Y-77001376D01*
X94300387Y-76985112D01*
X94323444Y-76939746D01*
X94340380Y-76909814D01*
X94353007Y-76893081D01*
X94363136Y-76887314D01*
X94372579Y-76890277D01*
G37*
G36*
X92826487Y-77181351D02*
G01*
X92855205Y-77188819D01*
X92883802Y-77204589D01*
X92887403Y-77206980D01*
X92911415Y-77226328D01*
X92926172Y-77244517D01*
X92928558Y-77252032D01*
X92925847Y-77260996D01*
X92915269Y-77267191D01*
X92893161Y-77271743D01*
X92855857Y-77275780D01*
X92849503Y-77276343D01*
X92815571Y-77279984D01*
X92786591Y-77285359D01*
X92757802Y-77294086D01*
X92724443Y-77307781D01*
X92681753Y-77328064D01*
X92648569Y-77344628D01*
X92597364Y-77370982D01*
X92559711Y-77392174D01*
X92531531Y-77411057D01*
X92508746Y-77430490D01*
X92487280Y-77453327D01*
X92478272Y-77463908D01*
X92453816Y-77491447D01*
X92432866Y-77511989D01*
X92419279Y-77521820D01*
X92417750Y-77522175D01*
X92409374Y-77513138D01*
X92405792Y-77485349D01*
X92405645Y-77475577D01*
X92408559Y-77428926D01*
X92418670Y-77389655D01*
X92438035Y-77355375D01*
X92468709Y-77323695D01*
X92512750Y-77292223D01*
X92572212Y-77258569D01*
X92607885Y-77240417D01*
X92658487Y-77215720D01*
X92696157Y-77198722D01*
X92725059Y-77188018D01*
X92749355Y-77182203D01*
X92773207Y-77179871D01*
X92788146Y-77179562D01*
X92826487Y-77181351D01*
G37*
G36*
X92316484Y-74069963D02*
G01*
X92317767Y-74082625D01*
X92313477Y-74107787D01*
X92305114Y-74139920D01*
X92294178Y-74173493D01*
X92282166Y-74202978D01*
X92278351Y-74210627D01*
X92268735Y-74239364D01*
X92262610Y-74279806D01*
X92259792Y-74327684D01*
X92260101Y-74378730D01*
X92263352Y-74428677D01*
X92269365Y-74473258D01*
X92277956Y-74508206D01*
X92288944Y-74529251D01*
X92292073Y-74531859D01*
X92300933Y-74544078D01*
X92312687Y-74568091D01*
X92324587Y-74597167D01*
X92333888Y-74624571D01*
X92337844Y-74643570D01*
X92337852Y-74644110D01*
X92330260Y-74654158D01*
X92310650Y-74655357D01*
X92283803Y-74648500D01*
X92254498Y-74634379D01*
X92245996Y-74628883D01*
X92216762Y-74607197D01*
X92195328Y-74586185D01*
X92180457Y-74562338D01*
X92170912Y-74532146D01*
X92165455Y-74492103D01*
X92162848Y-74438698D01*
X92162050Y-74390905D01*
X92161484Y-74326413D01*
X92161452Y-74278213D01*
X92162176Y-74243230D01*
X92163878Y-74218391D01*
X92166779Y-74200623D01*
X92171101Y-74186852D01*
X92177067Y-74174004D01*
X92177816Y-74172548D01*
X92196247Y-74145485D01*
X92221872Y-74118501D01*
X92250711Y-74094539D01*
X92278787Y-74076543D01*
X92302120Y-74067456D01*
X92316484Y-74069963D01*
G37*
G36*
X89562344Y-74461015D02*
G01*
X89576282Y-74486598D01*
X89597186Y-74526516D01*
X89624280Y-74579241D01*
X89656787Y-74643244D01*
X89693932Y-74716997D01*
X89734936Y-74798971D01*
X89779025Y-74887637D01*
X89825137Y-74980891D01*
X89884879Y-75102035D01*
X89936625Y-75206974D01*
X89980941Y-75296877D01*
X90018393Y-75372909D01*
X90049545Y-75436240D01*
X90074964Y-75488035D01*
X90095214Y-75529464D01*
X90110862Y-75561693D01*
X90122472Y-75585890D01*
X90130611Y-75603222D01*
X90135843Y-75614857D01*
X90138733Y-75621963D01*
X90139849Y-75625707D01*
X90139754Y-75627256D01*
X90139014Y-75627778D01*
X90138556Y-75628036D01*
X90128242Y-75633410D01*
X90106648Y-75643623D01*
X90096114Y-75648451D01*
X90063475Y-75663505D01*
X90025552Y-75681297D01*
X90009571Y-75688889D01*
X89982166Y-75701529D01*
X89962440Y-75709796D01*
X89956311Y-75711666D01*
X89951167Y-75703227D01*
X89938097Y-75678867D01*
X89917821Y-75639997D01*
X89891057Y-75588028D01*
X89858526Y-75524369D01*
X89820946Y-75450431D01*
X89779038Y-75367624D01*
X89733520Y-75277359D01*
X89685112Y-75181045D01*
X89657052Y-75125078D01*
X89607485Y-75026002D01*
X89560641Y-74932128D01*
X89517217Y-74844867D01*
X89477912Y-74765635D01*
X89443423Y-74695844D01*
X89414447Y-74636908D01*
X89391683Y-74590241D01*
X89375828Y-74557256D01*
X89367580Y-74539367D01*
X89366545Y-74536469D01*
X89393867Y-74520799D01*
X89428386Y-74503113D01*
X89465736Y-74485370D01*
X89501555Y-74469532D01*
X89531478Y-74457558D01*
X89551140Y-74451408D01*
X89556149Y-74451297D01*
X89562344Y-74461015D01*
G37*
G36*
X90022997Y-77643524D02*
G01*
X90048334Y-77656007D01*
X90079735Y-77673557D01*
X90112794Y-77693493D01*
X90143104Y-77713131D01*
X90166258Y-77729792D01*
X90177849Y-77740793D01*
X90178424Y-77742407D01*
X90174114Y-77754039D01*
X90161811Y-77780976D01*
X90142457Y-77821340D01*
X90116993Y-77873253D01*
X90086360Y-77934837D01*
X90051500Y-78004213D01*
X90013355Y-78079503D01*
X89972866Y-78158830D01*
X89930973Y-78240314D01*
X89888620Y-78322079D01*
X89868765Y-78360179D01*
X89832524Y-78429713D01*
X89793050Y-78505673D01*
X89752131Y-78584602D01*
X89711552Y-78663044D01*
X89673100Y-78737543D01*
X89638562Y-78804642D01*
X89609723Y-78860886D01*
X89591460Y-78896719D01*
X89565846Y-78943952D01*
X89546179Y-78972925D01*
X89532362Y-78983775D01*
X89530944Y-78983859D01*
X89515829Y-78978892D01*
X89488759Y-78966367D01*
X89454470Y-78948551D01*
X89437631Y-78939233D01*
X89403322Y-78919750D01*
X89376024Y-78904018D01*
X89359685Y-78894325D01*
X89356857Y-78892454D01*
X89358772Y-78886332D01*
X89366514Y-78869208D01*
X89380399Y-78840462D01*
X89400743Y-78799472D01*
X89427860Y-78745618D01*
X89462067Y-78678277D01*
X89503677Y-78596831D01*
X89553008Y-78500656D01*
X89610373Y-78389133D01*
X89676090Y-78261640D01*
X89745194Y-78127773D01*
X89799255Y-78023160D01*
X89845158Y-77934476D01*
X89883600Y-77860426D01*
X89915276Y-77799716D01*
X89940883Y-77751050D01*
X89961117Y-77713133D01*
X89976676Y-77684670D01*
X89988254Y-77664367D01*
X89996550Y-77650927D01*
X90002258Y-77643057D01*
X90006076Y-77639460D01*
X90008131Y-77638788D01*
X90022997Y-77643524D01*
G37*
G36*
X88675794Y-75960791D02*
G01*
X88697510Y-75979682D01*
X88725755Y-76007417D01*
X88757656Y-76040927D01*
X88790340Y-76077143D01*
X88820935Y-76112998D01*
X88846566Y-76145423D01*
X88858405Y-76162009D01*
X88905184Y-76237388D01*
X88941831Y-76310864D01*
X88970142Y-76387464D01*
X88991914Y-76472212D01*
X89008941Y-76570134D01*
X89011901Y-76591487D01*
X89018340Y-76643794D01*
X89021439Y-76684184D01*
X89021218Y-76719814D01*
X89017699Y-76757840D01*
X89012516Y-76794842D01*
X88996480Y-76887067D01*
X88977525Y-76965266D01*
X88953664Y-77034759D01*
X88922910Y-77100867D01*
X88883276Y-77168907D01*
X88858773Y-77206407D01*
X88835369Y-77238192D01*
X88805581Y-77274304D01*
X88772299Y-77311737D01*
X88738411Y-77347489D01*
X88706806Y-77378555D01*
X88680373Y-77401931D01*
X88662000Y-77414613D01*
X88657205Y-77416031D01*
X88644422Y-77409184D01*
X88622730Y-77390795D01*
X88595744Y-77364096D01*
X88579773Y-77346838D01*
X88552603Y-77316036D01*
X88530673Y-77290199D01*
X88517035Y-77272974D01*
X88514158Y-77268449D01*
X88518413Y-77257031D01*
X88533079Y-77237032D01*
X88549141Y-77219019D01*
X88613733Y-77141841D01*
X88670156Y-77055269D01*
X88715393Y-76964690D01*
X88746426Y-76875491D01*
X88750230Y-76860171D01*
X88759407Y-76803469D01*
X88764433Y-76735026D01*
X88765307Y-76661803D01*
X88762025Y-76590760D01*
X88754582Y-76528857D01*
X88750392Y-76508008D01*
X88726680Y-76431621D01*
X88691750Y-76352117D01*
X88648750Y-76275152D01*
X88600828Y-76206382D01*
X88552708Y-76152935D01*
X88533949Y-76132330D01*
X88523387Y-76115056D01*
X88522534Y-76111093D01*
X88528767Y-76098401D01*
X88545173Y-76076133D01*
X88568317Y-76048122D01*
X88594763Y-76018204D01*
X88621074Y-75990213D01*
X88643815Y-75967982D01*
X88659550Y-75955347D01*
X88663479Y-75953812D01*
X88675794Y-75960791D01*
G37*
G36*
X91940842Y-78361155D02*
G01*
X91943077Y-78374422D01*
X91940411Y-78399765D01*
X91934232Y-78430940D01*
X91925929Y-78461707D01*
X91916891Y-78485822D01*
X91911006Y-78495265D01*
X91907852Y-78507770D01*
X91905189Y-78535956D01*
X91903234Y-78576140D01*
X91902204Y-78624639D01*
X91902100Y-78646460D01*
X91902223Y-78701726D01*
X91902930Y-78741063D01*
X91904722Y-78767911D01*
X91908104Y-78785708D01*
X91913579Y-78797894D01*
X91921650Y-78807907D01*
X91926446Y-78812803D01*
X91963574Y-78837363D01*
X92005882Y-78844036D01*
X92041848Y-78835575D01*
X92063696Y-78825202D01*
X92079897Y-78813015D01*
X92091288Y-78796135D01*
X92098710Y-78771683D01*
X92103002Y-78736781D01*
X92105004Y-78688549D01*
X92105554Y-78624109D01*
X92105561Y-78617060D01*
X92106273Y-78534528D01*
X92108321Y-78470677D01*
X92111757Y-78424863D01*
X92116635Y-78396443D01*
X92123007Y-78384772D01*
X92124607Y-78384388D01*
X92140835Y-78392370D01*
X92161321Y-78413275D01*
X92181997Y-78442541D01*
X92191218Y-78459050D01*
X92199421Y-78477091D01*
X92205151Y-78496130D01*
X92208839Y-78520008D01*
X92210916Y-78552567D01*
X92211815Y-78597650D01*
X92211974Y-78643971D01*
X92211502Y-78704916D01*
X92209882Y-78749904D01*
X92206811Y-78782325D01*
X92201983Y-78805570D01*
X92196062Y-78821082D01*
X92160812Y-78874414D01*
X92114294Y-78915321D01*
X92059948Y-78942080D01*
X92001212Y-78952972D01*
X91944365Y-78947025D01*
X91897082Y-78926034D01*
X91851781Y-78889297D01*
X91823770Y-78856157D01*
X91795580Y-78817243D01*
X91795740Y-78651654D01*
X91795968Y-78590511D01*
X91796762Y-78545338D01*
X91798485Y-78512739D01*
X91801503Y-78489317D01*
X91806181Y-78471677D01*
X91812882Y-78456422D01*
X91817644Y-78447674D01*
X91835513Y-78423892D01*
X91860466Y-78400015D01*
X91888093Y-78379139D01*
X91913986Y-78364360D01*
X91933738Y-78358773D01*
X91940842Y-78361155D01*
G37*
G36*
X89591936Y-72552338D02*
G01*
X89615505Y-72571708D01*
X89646252Y-72600815D01*
X89681678Y-72636994D01*
X89719285Y-72677585D01*
X89756575Y-72719924D01*
X89791049Y-72761348D01*
X89820209Y-72799194D01*
X89832281Y-72816336D01*
X89872059Y-72882290D01*
X89909535Y-72957260D01*
X89941765Y-73034505D01*
X89965803Y-73107286D01*
X89974006Y-73140736D01*
X89982281Y-73179042D01*
X89990621Y-73215473D01*
X89995119Y-73233853D01*
X89999892Y-73264664D01*
X90002266Y-73307374D01*
X90002482Y-73358026D01*
X90000777Y-73412662D01*
X89997390Y-73467324D01*
X89992562Y-73518056D01*
X89986530Y-73560899D01*
X89979533Y-73591895D01*
X89972621Y-73606382D01*
X89966408Y-73621365D01*
X89965386Y-73631552D01*
X89961962Y-73650806D01*
X89952878Y-73682696D01*
X89939915Y-73721977D01*
X89924855Y-73763407D01*
X89909480Y-73801741D01*
X89901386Y-73819924D01*
X89883186Y-73854265D01*
X89857694Y-73896199D01*
X89826915Y-73943031D01*
X89792849Y-73992066D01*
X89757501Y-74040607D01*
X89722871Y-74085959D01*
X89690964Y-74125426D01*
X89663781Y-74156314D01*
X89643324Y-74175926D01*
X89632607Y-74181719D01*
X89620566Y-74175588D01*
X89598046Y-74159081D01*
X89568738Y-74135022D01*
X89548352Y-74117175D01*
X89517585Y-74089128D01*
X89492719Y-74065596D01*
X89477022Y-74049718D01*
X89473296Y-74045024D01*
X89478263Y-74035302D01*
X89494082Y-74014833D01*
X89518155Y-73986806D01*
X89542210Y-73960446D01*
X89616600Y-73871758D01*
X89673950Y-73783336D01*
X89699540Y-73731433D01*
X89723239Y-73674857D01*
X89740651Y-73627352D01*
X89752726Y-73583907D01*
X89760420Y-73539511D01*
X89764684Y-73489155D01*
X89766471Y-73427827D01*
X89766757Y-73377983D01*
X89766061Y-73305116D01*
X89763245Y-73246751D01*
X89757397Y-73198062D01*
X89747606Y-73154223D01*
X89732959Y-73110405D01*
X89712544Y-73061784D01*
X89703084Y-73041044D01*
X89689031Y-73010012D01*
X89678927Y-72986438D01*
X89674885Y-72975261D01*
X89674879Y-72975149D01*
X89668727Y-72960068D01*
X89652050Y-72934204D01*
X89627514Y-72900955D01*
X89597786Y-72863718D01*
X89565533Y-72825889D01*
X89533421Y-72790866D01*
X89517700Y-72774926D01*
X89487171Y-72743949D01*
X89463001Y-72717518D01*
X89447884Y-72698708D01*
X89444172Y-72690988D01*
X89453514Y-72675794D01*
X89472078Y-72652244D01*
X89496289Y-72624230D01*
X89522567Y-72595644D01*
X89547336Y-72570377D01*
X89567017Y-72552321D01*
X89578033Y-72545368D01*
X89578043Y-72545368D01*
X89591936Y-72552338D01*
G37*
G36*
X90895723Y-75878601D02*
G01*
X90907883Y-75884851D01*
X90923825Y-75896252D01*
X90944343Y-75913560D01*
X90970230Y-75937533D01*
X91002282Y-75968927D01*
X91041293Y-76008498D01*
X91088056Y-76057004D01*
X91143367Y-76115201D01*
X91208019Y-76183847D01*
X91282807Y-76263696D01*
X91368526Y-76355507D01*
X91465969Y-76460036D01*
X91563175Y-76564353D01*
X91644141Y-76651362D01*
X91715025Y-76727798D01*
X91775286Y-76793073D01*
X91824383Y-76846597D01*
X91861777Y-76887781D01*
X91886927Y-76916035D01*
X91898991Y-76930372D01*
X91910700Y-76957752D01*
X91903241Y-76983156D01*
X91894324Y-76993069D01*
X91885054Y-76998882D01*
X91870046Y-77003254D01*
X91846556Y-77006446D01*
X91811841Y-77008720D01*
X91763159Y-77010335D01*
X91700110Y-77011516D01*
X91523355Y-77014163D01*
X91584109Y-77101315D01*
X91622766Y-77152035D01*
X91672536Y-77210223D01*
X91730006Y-77272472D01*
X91791762Y-77335376D01*
X91854390Y-77395529D01*
X91914476Y-77449523D01*
X91968607Y-77493952D01*
X92001356Y-77517691D01*
X92036262Y-77541871D01*
X92064182Y-77562721D01*
X92081743Y-77577629D01*
X92086087Y-77583340D01*
X92079378Y-77593869D01*
X92061808Y-77612861D01*
X92037720Y-77635705D01*
X92005620Y-77669222D01*
X91968554Y-77715326D01*
X91929948Y-77769149D01*
X91893228Y-77825824D01*
X91861821Y-77880483D01*
X91852250Y-77899188D01*
X91835271Y-77943242D01*
X91822937Y-77992963D01*
X91819997Y-78012970D01*
X91814200Y-78050798D01*
X91806646Y-78070629D01*
X91800130Y-78074514D01*
X91789208Y-78067980D01*
X91767208Y-78049866D01*
X91736627Y-78022401D01*
X91699962Y-77987818D01*
X91667290Y-77955890D01*
X91556315Y-77840264D01*
X91459570Y-77726767D01*
X91373453Y-77610423D01*
X91294364Y-77486254D01*
X91218703Y-77349281D01*
X91195382Y-77303444D01*
X91131841Y-77176331D01*
X91066884Y-77250184D01*
X91017481Y-77306171D01*
X90978987Y-77348914D01*
X90949577Y-77379763D01*
X90927430Y-77400070D01*
X90910724Y-77411186D01*
X90897636Y-77414462D01*
X90886342Y-77411249D01*
X90875022Y-77402897D01*
X90868677Y-77397119D01*
X90855674Y-77377552D01*
X90840308Y-77342586D01*
X90823737Y-77295866D01*
X90807122Y-77241037D01*
X90791622Y-77181746D01*
X90778398Y-77121635D01*
X90774564Y-77101315D01*
X90766266Y-77055305D01*
X90758051Y-77010045D01*
X90751375Y-76973536D01*
X90749937Y-76965745D01*
X90743805Y-76920175D01*
X90739075Y-76860044D01*
X90735860Y-76790117D01*
X90734274Y-76715157D01*
X90734429Y-76639929D01*
X90736439Y-76569195D01*
X90739359Y-76520301D01*
X90753355Y-76380616D01*
X90772852Y-76246335D01*
X90796996Y-76122889D01*
X90811001Y-76065173D01*
X90825814Y-76009054D01*
X90836936Y-75968459D01*
X90845397Y-75940131D01*
X90852228Y-75920812D01*
X90858459Y-75907243D01*
X90863839Y-75898132D01*
X90869008Y-75889977D01*
X90873986Y-75883191D01*
X90879568Y-75878528D01*
X90886549Y-75876746D01*
X90895723Y-75878601D01*
G37*
G36*
X96005851Y-75876344D02*
G01*
X96018197Y-75878636D01*
X96029601Y-75886594D01*
X96040598Y-75901840D01*
X96051720Y-75925997D01*
X96063504Y-75960685D01*
X96076483Y-76007528D01*
X96091191Y-76068148D01*
X96108164Y-76144166D01*
X96127935Y-76237205D01*
X96133455Y-76263686D01*
X96139940Y-76302514D01*
X96146561Y-76355635D01*
X96152767Y-76417989D01*
X96158006Y-76484514D01*
X96158775Y-76496092D01*
X96159791Y-76522536D01*
X96160530Y-76563141D01*
X96160994Y-76613589D01*
X96161188Y-76669566D01*
X96161114Y-76726755D01*
X96160776Y-76780840D01*
X96160177Y-76827506D01*
X96159320Y-76862437D01*
X96158488Y-76878593D01*
X96152043Y-76951805D01*
X96146379Y-77008309D01*
X96141194Y-77050736D01*
X96136188Y-77081715D01*
X96134137Y-77091632D01*
X96127628Y-77120814D01*
X96118811Y-77160443D01*
X96109568Y-77202059D01*
X96109361Y-77202993D01*
X96089921Y-77281585D01*
X96070506Y-77341499D01*
X96050796Y-77383421D01*
X96030468Y-77408036D01*
X96009320Y-77416031D01*
X95993642Y-77409022D01*
X95967874Y-77387763D01*
X95931660Y-77351906D01*
X95884647Y-77301102D01*
X95833390Y-77242981D01*
X95803879Y-77210646D01*
X95782079Y-77190263D01*
X95769607Y-77183255D01*
X95767458Y-77184879D01*
X95761822Y-77198500D01*
X95749534Y-77225491D01*
X95732457Y-77261829D01*
X95714228Y-77299828D01*
X95638960Y-77444573D01*
X95558394Y-77577406D01*
X95469429Y-77702616D01*
X95368967Y-77824492D01*
X95253910Y-77947323D01*
X95227018Y-77974221D01*
X95083852Y-78104007D01*
X94929303Y-78220871D01*
X94761934Y-78325725D01*
X94580306Y-78419483D01*
X94411391Y-78492020D01*
X94364651Y-78510499D01*
X94323110Y-78527045D01*
X94290773Y-78540053D01*
X94271646Y-78547920D01*
X94269732Y-78548747D01*
X94251332Y-78556342D01*
X94221105Y-78568298D01*
X94185340Y-78582128D01*
X94182580Y-78583182D01*
X94127137Y-78605272D01*
X94065469Y-78631365D01*
X94001552Y-78659631D01*
X93939359Y-78688236D01*
X93882866Y-78715351D01*
X93836048Y-78739143D01*
X93802878Y-78757781D01*
X93800612Y-78759197D01*
X93726301Y-78809143D01*
X93657923Y-78861849D01*
X93588581Y-78922792D01*
X93556816Y-78952831D01*
X93513051Y-78993190D01*
X93480379Y-79019194D01*
X93457787Y-79031608D01*
X93450297Y-79032963D01*
X93434416Y-79027356D01*
X93410557Y-79010008D01*
X93377338Y-78979771D01*
X93335268Y-78937459D01*
X93244404Y-78854098D01*
X93139117Y-78777636D01*
X93018261Y-78707401D01*
X92880690Y-78642720D01*
X92741793Y-78588753D01*
X92689402Y-78569443D01*
X92627561Y-78545645D01*
X92561887Y-78519614D01*
X92497997Y-78493603D01*
X92441510Y-78469867D01*
X92400803Y-78451928D01*
X92370573Y-78437033D01*
X92334564Y-78417717D01*
X92296625Y-78396256D01*
X92260606Y-78374927D01*
X92230357Y-78356007D01*
X92209725Y-78341770D01*
X92202541Y-78334687D01*
X92209952Y-78326885D01*
X92229816Y-78311728D01*
X92258197Y-78292176D01*
X92265253Y-78287539D01*
X92298763Y-78263560D01*
X92329018Y-78236445D01*
X92358972Y-78202825D01*
X92391580Y-78159332D01*
X92429795Y-78102598D01*
X92436469Y-78092312D01*
X92467742Y-78042690D01*
X92489522Y-78003727D01*
X92503588Y-77970334D01*
X92511719Y-77937421D01*
X92515695Y-77899899D01*
X92517113Y-77861660D01*
X92519141Y-77769851D01*
X92668169Y-77769651D01*
X92725494Y-77769414D01*
X92767442Y-77768526D01*
X92798000Y-77766451D01*
X92821158Y-77762656D01*
X92840905Y-77756607D01*
X92861228Y-77747771D01*
X92872556Y-77742286D01*
X92942912Y-77697464D01*
X93001271Y-77637755D01*
X93048133Y-77562636D01*
X93051052Y-77556671D01*
X93067890Y-77523352D01*
X93082206Y-77498039D01*
X93091628Y-77484825D01*
X93093305Y-77483816D01*
X93104892Y-77490359D01*
X93111665Y-77497280D01*
X93136753Y-77516065D01*
X93177106Y-77532789D01*
X93228641Y-77546185D01*
X93287270Y-77554983D01*
X93301375Y-77556226D01*
X93354368Y-77557633D01*
X93415483Y-77555086D01*
X93479224Y-77549222D01*
X93540093Y-77540676D01*
X93592594Y-77530082D01*
X93631164Y-77518104D01*
X93668662Y-77496029D01*
X93707901Y-77462790D01*
X93742426Y-77424649D01*
X93765784Y-77387868D01*
X93766092Y-77387190D01*
X93778274Y-77363606D01*
X93788414Y-77349767D01*
X93791180Y-77348246D01*
X93796988Y-77356901D01*
X93804361Y-77379344D01*
X93810224Y-77403927D01*
X93834787Y-77495567D01*
X93867699Y-77571530D01*
X93909993Y-77634069D01*
X93921900Y-77647597D01*
X93981209Y-77700865D01*
X94047290Y-77738831D01*
X94122235Y-77762199D01*
X94208134Y-77771674D01*
X94284257Y-77769862D01*
X94337224Y-77764304D01*
X94395411Y-77755302D01*
X94453038Y-77744018D01*
X94504325Y-77731611D01*
X94543492Y-77719245D01*
X94550556Y-77716364D01*
X94666028Y-77663132D01*
X94768662Y-77610039D01*
X94856452Y-77558198D01*
X94927398Y-77508717D01*
X94933057Y-77504284D01*
X94967349Y-77476559D01*
X95006386Y-77444123D01*
X95046232Y-77410342D01*
X95082955Y-77378584D01*
X95112622Y-77352218D01*
X95131299Y-77334609D01*
X95131612Y-77334289D01*
X95183187Y-77278091D01*
X95237958Y-77212990D01*
X95289655Y-77146673D01*
X95325563Y-77096473D01*
X95381345Y-77014163D01*
X95202233Y-77009321D01*
X95125338Y-77006704D01*
X95066809Y-77002757D01*
X95025644Y-76996331D01*
X95000842Y-76986277D01*
X94991403Y-76971445D01*
X94996325Y-76950685D01*
X95014607Y-76922849D01*
X95045248Y-76886787D01*
X95071047Y-76858682D01*
X95097661Y-76830130D01*
X95135161Y-76789957D01*
X95181196Y-76740677D01*
X95233416Y-76684807D01*
X95289470Y-76624861D01*
X95347007Y-76563355D01*
X95373659Y-76534874D01*
X95436854Y-76467266D01*
X95504763Y-76394467D01*
X95573903Y-76320222D01*
X95640789Y-76248275D01*
X95701939Y-76182370D01*
X95753870Y-76126252D01*
X95761002Y-76118527D01*
X95821017Y-76053515D01*
X95869312Y-76001320D01*
X95907309Y-75960535D01*
X95936430Y-75929754D01*
X95958100Y-75907570D01*
X95973739Y-75892574D01*
X95984770Y-75883361D01*
X95992617Y-75878523D01*
X95998701Y-75876652D01*
X96004446Y-75876342D01*
X96005851Y-75876344D01*
G37*
G36*
X93511598Y-72194279D02*
G01*
X93533781Y-72197570D01*
X93646121Y-72220427D01*
X93743921Y-72251735D01*
X93830806Y-72293236D01*
X93910405Y-72346673D01*
X93986343Y-72413787D01*
X93988632Y-72416059D01*
X94067306Y-72507599D01*
X94129975Y-72608477D01*
X94176247Y-72716617D01*
X94205725Y-72829946D01*
X94218016Y-72946389D01*
X94212725Y-73063873D01*
X94189456Y-73180324D01*
X94153301Y-73281433D01*
X94100775Y-73379024D01*
X94032910Y-73469494D01*
X93952706Y-73549803D01*
X93863164Y-73616916D01*
X93774925Y-73664477D01*
X93722173Y-73687806D01*
X93724813Y-73864557D01*
X93727452Y-74041307D01*
X94371410Y-74047313D01*
X94515357Y-74048740D01*
X94641150Y-74050191D01*
X94750004Y-74051719D01*
X94843132Y-74053373D01*
X94921747Y-74055206D01*
X94987064Y-74057267D01*
X95040296Y-74059609D01*
X95082656Y-74062281D01*
X95115359Y-74065334D01*
X95139618Y-74068821D01*
X95156647Y-74072791D01*
X95167659Y-74077296D01*
X95172592Y-74080946D01*
X95176618Y-74094400D01*
X95179907Y-74123549D01*
X95182432Y-74164737D01*
X95184166Y-74214304D01*
X95185083Y-74268593D01*
X95185154Y-74323946D01*
X95184354Y-74376704D01*
X95182656Y-74423210D01*
X95180033Y-74459805D01*
X95176457Y-74482832D01*
X95175562Y-74485657D01*
X95167399Y-74501828D01*
X95155097Y-74514413D01*
X95136235Y-74523975D01*
X95108390Y-74531073D01*
X95069141Y-74536268D01*
X95016068Y-74540119D01*
X94946748Y-74543186D01*
X94923373Y-74544006D01*
X94852796Y-74546459D01*
X94769692Y-74549467D01*
X94680884Y-74552776D01*
X94593194Y-74556131D01*
X94513446Y-74559279D01*
X94511821Y-74559344D01*
X94437057Y-74562296D01*
X94348970Y-74565673D01*
X94253592Y-74569251D01*
X94156956Y-74572805D01*
X94065095Y-74576110D01*
X94017959Y-74577769D01*
X93947544Y-74580240D01*
X93883672Y-74582512D01*
X93828834Y-74584495D01*
X93785524Y-74586098D01*
X93756233Y-74587228D01*
X93743456Y-74587795D01*
X93743126Y-74587825D01*
X93742359Y-74597241D01*
X93742147Y-74623402D01*
X93742461Y-74663696D01*
X93743271Y-74715510D01*
X93744547Y-74776230D01*
X93745848Y-74828097D01*
X93747670Y-74896739D01*
X93749863Y-74980352D01*
X93752315Y-75074550D01*
X93754911Y-75174942D01*
X93757539Y-75277140D01*
X93760083Y-75376756D01*
X93761581Y-75435741D01*
X93766865Y-75643071D01*
X93771813Y-75834401D01*
X93776415Y-76009316D01*
X93780657Y-76167400D01*
X93784530Y-76308239D01*
X93788021Y-76431416D01*
X93791119Y-76536518D01*
X93793813Y-76623129D01*
X93796091Y-76690834D01*
X93796293Y-76696488D01*
X93802289Y-76862992D01*
X93768334Y-76933736D01*
X93751623Y-76969188D01*
X93737901Y-76999463D01*
X93729646Y-77019061D01*
X93728799Y-77021426D01*
X93718062Y-77036645D01*
X93704211Y-77033702D01*
X93694689Y-77021115D01*
X93674801Y-77000630D01*
X93640475Y-76981718D01*
X93596635Y-76966378D01*
X93548205Y-76956609D01*
X93531639Y-76954917D01*
X93491651Y-76953803D01*
X93441140Y-76955031D01*
X93388775Y-76958323D01*
X93369160Y-76960164D01*
X93326592Y-76964608D01*
X93290382Y-76968352D01*
X93265451Y-76970891D01*
X93257799Y-76971638D01*
X93242099Y-76976234D01*
X93214890Y-76987016D01*
X93182058Y-77001650D01*
X93181994Y-77001680D01*
X93151155Y-77015360D01*
X93127861Y-77024244D01*
X93116886Y-77026523D01*
X93116719Y-77026406D01*
X93115415Y-77024348D01*
X93114280Y-77020327D01*
X93113327Y-77013417D01*
X93112569Y-77002694D01*
X93112019Y-76987234D01*
X93111690Y-76966113D01*
X93111594Y-76938404D01*
X93111745Y-76903184D01*
X93112156Y-76859528D01*
X93112839Y-76806512D01*
X93113807Y-76743211D01*
X93115074Y-76668700D01*
X93116652Y-76582055D01*
X93118554Y-76482350D01*
X93120793Y-76368663D01*
X93123383Y-76240067D01*
X93126335Y-76095638D01*
X93129663Y-75934452D01*
X93133380Y-75755583D01*
X93136718Y-75595520D01*
X93138610Y-75510520D01*
X93140818Y-75420591D01*
X93143206Y-75330762D01*
X93145634Y-75246065D01*
X93147965Y-75171530D01*
X93149725Y-75121025D01*
X93152119Y-75045758D01*
X93154121Y-74961394D01*
X93155586Y-74875886D01*
X93156366Y-74797183D01*
X93156446Y-74757963D01*
X93156121Y-74694934D01*
X93155274Y-74648786D01*
X93153695Y-74617037D01*
X93151171Y-74597203D01*
X93147493Y-74586801D01*
X93142448Y-74583349D01*
X93141596Y-74583278D01*
X93117336Y-74582310D01*
X93077980Y-74580501D01*
X93027771Y-74578068D01*
X92970951Y-74575226D01*
X92911763Y-74572193D01*
X92854449Y-74569183D01*
X92803253Y-74566413D01*
X92762416Y-74564099D01*
X92748076Y-74563235D01*
X92659588Y-74557734D01*
X92664557Y-74459299D01*
X92665989Y-74374477D01*
X92661952Y-74293763D01*
X92652906Y-74220915D01*
X92639313Y-74159691D01*
X92622244Y-74115008D01*
X92609189Y-74087396D01*
X92601975Y-74067149D01*
X92601704Y-74059901D01*
X92612281Y-74058212D01*
X92639208Y-74056035D01*
X92679475Y-74053505D01*
X92730075Y-74050757D01*
X92787999Y-74047926D01*
X92850240Y-74045146D01*
X92913788Y-74042552D01*
X92975637Y-74040280D01*
X93032777Y-74038463D01*
X93082201Y-74037237D01*
X93118358Y-74036747D01*
X93177430Y-74036466D01*
X93183558Y-73908158D01*
X93186347Y-73856330D01*
X93189516Y-73807936D01*
X93192689Y-73768136D01*
X93195492Y-73742089D01*
X93195702Y-73740675D01*
X93201717Y-73701499D01*
X93111134Y-73650111D01*
X93061370Y-73621323D01*
X93026479Y-73599523D01*
X93004098Y-73582860D01*
X92991866Y-73569489D01*
X92987420Y-73557560D01*
X92987273Y-73553207D01*
X92994800Y-73542637D01*
X93015145Y-73522804D01*
X93045574Y-73495984D01*
X93083350Y-73464453D01*
X93125738Y-73430488D01*
X93170002Y-73396363D01*
X93213407Y-73364357D01*
X93219359Y-73360104D01*
X93230271Y-73354759D01*
X93245382Y-73353405D01*
X93268629Y-73356453D01*
X93303950Y-73364314D01*
X93335282Y-73372208D01*
X93387948Y-73385251D01*
X93427783Y-73393069D01*
X93460554Y-73395845D01*
X93492028Y-73393761D01*
X93527971Y-73386997D01*
X93560030Y-73379288D01*
X93644278Y-73349552D01*
X93716044Y-73305293D01*
X93776017Y-73245926D01*
X93824885Y-73170868D01*
X93838728Y-73142476D01*
X93852312Y-73110630D01*
X93860891Y-73083485D01*
X93865590Y-73054712D01*
X93867535Y-73017979D01*
X93867864Y-72978612D01*
X93866529Y-72921435D01*
X93862032Y-72877598D01*
X93853634Y-72841224D01*
X93848804Y-72826861D01*
X93812457Y-72746346D01*
X93767669Y-72681854D01*
X93713002Y-72631355D01*
X93708085Y-72627807D01*
X93664692Y-72598768D01*
X93626526Y-72578322D01*
X93588602Y-72565170D01*
X93545934Y-72558015D01*
X93493535Y-72555559D01*
X93433421Y-72556306D01*
X93369858Y-72559020D01*
X93325403Y-72563199D01*
X93300140Y-72568834D01*
X93295072Y-72571826D01*
X93275122Y-72582539D01*
X93265728Y-72583930D01*
X93246416Y-72591352D01*
X93219208Y-72611448D01*
X93187221Y-72640961D01*
X93153574Y-72676635D01*
X93121385Y-72715215D01*
X93093772Y-72753444D01*
X93077848Y-72780105D01*
X93061226Y-72812487D01*
X93050490Y-72837840D01*
X93044332Y-72862176D01*
X93041438Y-72891506D01*
X93040498Y-72931840D01*
X93040378Y-72951906D01*
X93040891Y-72999419D01*
X93042646Y-73044291D01*
X93045331Y-73080074D01*
X93047239Y-73094382D01*
X93054559Y-73135180D01*
X92998821Y-73176462D01*
X92963907Y-73202938D01*
X92922121Y-73235523D01*
X92881486Y-73267944D01*
X92874452Y-73273654D01*
X92843121Y-73298325D01*
X92816861Y-73317433D01*
X92799602Y-73328189D01*
X92795676Y-73329565D01*
X92781440Y-73320452D01*
X92764854Y-73294797D01*
X92746959Y-73255125D01*
X92728798Y-73203961D01*
X92711413Y-73143831D01*
X92700535Y-73098974D01*
X92691882Y-73039625D01*
X92689153Y-72970279D01*
X92691942Y-72896921D01*
X92699843Y-72825538D01*
X92712448Y-72762117D01*
X92726322Y-72719500D01*
X92785549Y-72600105D01*
X92857083Y-72494725D01*
X92940137Y-72403994D01*
X93033924Y-72328549D01*
X93137657Y-72269024D01*
X93250548Y-72226055D01*
X93369160Y-72200641D01*
X93417060Y-72194440D01*
X93452408Y-72191394D01*
X93481742Y-72191381D01*
X93511598Y-72194279D01*
G37*
G36*
X82623294Y-72136040D02*
G01*
X82725603Y-72136164D01*
X82838967Y-72136370D01*
X82962199Y-72136656D01*
X83094112Y-72137022D01*
X83233520Y-72137466D01*
X83379233Y-72137987D01*
X83506446Y-72138486D01*
X84692683Y-72143328D01*
X84695715Y-73896054D01*
X84696026Y-74113860D01*
X84696236Y-74347484D01*
X84696349Y-74594187D01*
X84696367Y-74851227D01*
X84696293Y-75115865D01*
X84696131Y-75385358D01*
X84695882Y-75656967D01*
X84695551Y-75927951D01*
X84695139Y-76195569D01*
X84694650Y-76457080D01*
X84694086Y-76709745D01*
X84693451Y-76950821D01*
X84692746Y-77177570D01*
X84692105Y-77354645D01*
X84685462Y-79060511D01*
X84616446Y-79067460D01*
X84597400Y-79068415D01*
X84560551Y-79069340D01*
X84507464Y-79070229D01*
X84439703Y-79071076D01*
X84358831Y-79071878D01*
X84266413Y-79072628D01*
X84164013Y-79073323D01*
X84053196Y-79073956D01*
X83935526Y-79074523D01*
X83812566Y-79075019D01*
X83685882Y-79075438D01*
X83557036Y-79075775D01*
X83427595Y-79076026D01*
X83299121Y-79076186D01*
X83173179Y-79076248D01*
X83051334Y-79076209D01*
X82935149Y-79076063D01*
X82826189Y-79075805D01*
X82726018Y-79075430D01*
X82636199Y-79074933D01*
X82558299Y-79074308D01*
X82545352Y-79074179D01*
X82296000Y-79071594D01*
X82296000Y-78636042D01*
X82710661Y-78636042D01*
X83464424Y-78638582D01*
X83583569Y-78639013D01*
X83697099Y-78639481D01*
X83803526Y-78639975D01*
X83901362Y-78640488D01*
X83989119Y-78641008D01*
X84065307Y-78641526D01*
X84128440Y-78642033D01*
X84177027Y-78642519D01*
X84209582Y-78642975D01*
X84224615Y-78643391D01*
X84225451Y-78643484D01*
X84226879Y-78634581D01*
X84228214Y-78608143D01*
X84229428Y-78565998D01*
X84230493Y-78509979D01*
X84231381Y-78441914D01*
X84232066Y-78363636D01*
X84232517Y-78276974D01*
X84232709Y-78183759D01*
X84232713Y-78166508D01*
X84232713Y-77687171D01*
X84108682Y-77687171D01*
X83984651Y-77687171D01*
X83982088Y-78009150D01*
X83981265Y-78086327D01*
X83980106Y-78157313D01*
X83978680Y-78219789D01*
X83977057Y-78271435D01*
X83975305Y-78309934D01*
X83973495Y-78332966D01*
X83972261Y-78338616D01*
X83960698Y-78340854D01*
X83932957Y-78342537D01*
X83892225Y-78343583D01*
X83841686Y-78343907D01*
X83786560Y-78343458D01*
X83608123Y-78340812D01*
X83605519Y-78040621D01*
X83602915Y-77740431D01*
X83467528Y-77737402D01*
X83332142Y-77734373D01*
X83332142Y-78034987D01*
X83332142Y-78335601D01*
X83310354Y-78340975D01*
X83293462Y-78342648D01*
X83261084Y-78343752D01*
X83217097Y-78344232D01*
X83165375Y-78344028D01*
X83133628Y-78343580D01*
X82978691Y-78340812D01*
X82976142Y-78013991D01*
X82973592Y-77687171D01*
X82847834Y-77687171D01*
X82722077Y-77687171D01*
X82721744Y-78004308D01*
X82721482Y-78090043D01*
X82720906Y-78177700D01*
X82720062Y-78263239D01*
X82719001Y-78342624D01*
X82717770Y-78411817D01*
X82716418Y-78466779D01*
X82716036Y-78478743D01*
X82710661Y-78636042D01*
X82296000Y-78636042D01*
X82296000Y-76937972D01*
X82723329Y-76937972D01*
X82727290Y-77003287D01*
X82735451Y-77055583D01*
X82761575Y-77139077D01*
X82799272Y-77214804D01*
X82846438Y-77279622D01*
X82900970Y-77330391D01*
X82933514Y-77351282D01*
X83022288Y-77390009D01*
X83112340Y-77409764D01*
X83205435Y-77410778D01*
X83286975Y-77397387D01*
X83359071Y-77374853D01*
X83420090Y-77343016D01*
X83472276Y-77299725D01*
X83517870Y-77242831D01*
X83559116Y-77170184D01*
X83585695Y-77110999D01*
X83592960Y-77088064D01*
X83601824Y-77052347D01*
X83610835Y-77010192D01*
X83618545Y-76967944D01*
X83618902Y-76965745D01*
X83623626Y-76941302D01*
X83631353Y-76906051D01*
X83639672Y-76870702D01*
X83663353Y-76805742D01*
X83698630Y-76755758D01*
X83744679Y-76721389D01*
X83800675Y-76703270D01*
X83858947Y-76701387D01*
X83912870Y-76713515D01*
X83956085Y-76740863D01*
X83990503Y-76784781D01*
X83998781Y-76800143D01*
X84008969Y-76822577D01*
X84015314Y-76843943D01*
X84018484Y-76869425D01*
X84019151Y-76904208D01*
X84018102Y-76949706D01*
X84016171Y-76997623D01*
X84012993Y-77032407D01*
X84007174Y-77060294D01*
X83997319Y-77087517D01*
X83982034Y-77120311D01*
X83978208Y-77128076D01*
X83953595Y-77171814D01*
X83923439Y-77216954D01*
X83894025Y-77254132D01*
X83892406Y-77255922D01*
X83843229Y-77309729D01*
X83933873Y-77405727D01*
X83967285Y-77440789D01*
X83995876Y-77470184D01*
X84017083Y-77491320D01*
X84028343Y-77501609D01*
X84029358Y-77502193D01*
X84038966Y-77496697D01*
X84057138Y-77482383D01*
X84064217Y-77476293D01*
X84121592Y-77416675D01*
X84170785Y-77345095D01*
X84212985Y-77259418D01*
X84249387Y-77157509D01*
X84257402Y-77130366D01*
X84266074Y-77086547D01*
X84271792Y-77029937D01*
X84274559Y-76965952D01*
X84274378Y-76900009D01*
X84271251Y-76837525D01*
X84265180Y-76783914D01*
X84257243Y-76747865D01*
X84218674Y-76645020D01*
X84172728Y-76559689D01*
X84118646Y-76491184D01*
X84055668Y-76438815D01*
X83983035Y-76401896D01*
X83899986Y-76379738D01*
X83843613Y-76373157D01*
X83744937Y-76373751D01*
X83657287Y-76389868D01*
X83580472Y-76421685D01*
X83514300Y-76469382D01*
X83458580Y-76533135D01*
X83413118Y-76613122D01*
X83377725Y-76709522D01*
X83352207Y-76822512D01*
X83350947Y-76830061D01*
X83335856Y-76909250D01*
X83318770Y-76971765D01*
X83298531Y-77020284D01*
X83273976Y-77057482D01*
X83243948Y-77086035D01*
X83238136Y-77090277D01*
X83188937Y-77114267D01*
X83136962Y-77121350D01*
X83086256Y-77112226D01*
X83040867Y-77087595D01*
X83006126Y-77050122D01*
X82980977Y-76995681D01*
X82969529Y-76931500D01*
X82971252Y-76860979D01*
X82985620Y-76787520D01*
X83012103Y-76714521D01*
X83050174Y-76645384D01*
X83074092Y-76612444D01*
X83108690Y-76569017D01*
X83082425Y-76541326D01*
X83063068Y-76522128D01*
X83034304Y-76495027D01*
X83001307Y-76464870D01*
X82989656Y-76454437D01*
X82923151Y-76395240D01*
X82885787Y-76438404D01*
X82856328Y-76477915D01*
X82824277Y-76529909D01*
X82792898Y-76588407D01*
X82765457Y-76647431D01*
X82749751Y-76687520D01*
X82737271Y-76736537D01*
X82728552Y-76798610D01*
X82723827Y-76867750D01*
X82723329Y-76937972D01*
X82296000Y-76937972D01*
X82296000Y-76118433D01*
X82741444Y-76118433D01*
X83487079Y-76118433D01*
X84232713Y-76118433D01*
X84232713Y-75963647D01*
X84232713Y-75808860D01*
X83959153Y-75806289D01*
X83685592Y-75803717D01*
X83680060Y-75619729D01*
X83677704Y-75550638D01*
X83674977Y-75496971D01*
X83671348Y-75454788D01*
X83666284Y-75420148D01*
X83659254Y-75389108D01*
X83649726Y-75357728D01*
X83641505Y-75334064D01*
X83623592Y-75295407D01*
X83597324Y-75251934D01*
X83567496Y-75210740D01*
X83538903Y-75178922D01*
X83533277Y-75173904D01*
X83471537Y-75131530D01*
X83400580Y-75101446D01*
X83317785Y-75082783D01*
X83235715Y-75075231D01*
X83136534Y-75079375D01*
X83046212Y-75100506D01*
X82965599Y-75137977D01*
X82895546Y-75191143D01*
X82836905Y-75259357D01*
X82790527Y-75341971D01*
X82757261Y-75438339D01*
X82757107Y-75438944D01*
X82752541Y-75460060D01*
X82748917Y-75485270D01*
X82746138Y-75516893D01*
X82744104Y-75557246D01*
X82742718Y-75608648D01*
X82741882Y-75673418D01*
X82741498Y-75753873D01*
X82741444Y-75809341D01*
X82741444Y-76118433D01*
X82296000Y-76118433D01*
X82296000Y-75809341D01*
X82296000Y-75606076D01*
X82296012Y-75287589D01*
X82296048Y-74987962D01*
X82296111Y-74706689D01*
X82296203Y-74443265D01*
X82296266Y-74315514D01*
X82725367Y-74315514D01*
X82725704Y-74429601D01*
X82740186Y-74530962D01*
X82766198Y-74623708D01*
X82803944Y-74704249D01*
X82856030Y-74777460D01*
X82893767Y-74818414D01*
X82924229Y-74847778D01*
X82950584Y-74871015D01*
X82969371Y-74885195D01*
X82976077Y-74888166D01*
X82987739Y-74880500D01*
X83005600Y-74861042D01*
X83022267Y-74838928D01*
X83048599Y-74802364D01*
X83077888Y-74763616D01*
X83092111Y-74745583D01*
X83128061Y-74701023D01*
X83085884Y-74655932D01*
X83038644Y-74594844D01*
X83003895Y-74527737D01*
X82981952Y-74457643D01*
X82973125Y-74387591D01*
X82977728Y-74320612D01*
X82996072Y-74259735D01*
X83028472Y-74207990D01*
X83038553Y-74197087D01*
X83068877Y-74171932D01*
X83101321Y-74158094D01*
X83143056Y-74152925D01*
X83158779Y-74152669D01*
X83214024Y-74158320D01*
X83259004Y-74176045D01*
X83294520Y-74207003D01*
X83321372Y-74252350D01*
X83340360Y-74313245D01*
X83352284Y-74390846D01*
X83355945Y-74437965D01*
X83358605Y-74480947D01*
X83361117Y-74516003D01*
X83363170Y-74539116D01*
X83364314Y-74546361D01*
X83374280Y-74547367D01*
X83399768Y-74548452D01*
X83436935Y-74549487D01*
X83481936Y-74550341D01*
X83482500Y-74550349D01*
X83598440Y-74552091D01*
X83604383Y-74427428D01*
X83607434Y-74373068D01*
X83611038Y-74333821D01*
X83615930Y-74305437D01*
X83622848Y-74283661D01*
X83632525Y-74264242D01*
X83632647Y-74264030D01*
X83662913Y-74217997D01*
X83695383Y-74184108D01*
X83736526Y-74155613D01*
X83736699Y-74155511D01*
X83762330Y-74142187D01*
X83786226Y-74135435D01*
X83816099Y-74133795D01*
X83845330Y-74134944D01*
X83900653Y-74143270D01*
X83944138Y-74162583D01*
X83977851Y-74194883D01*
X84003859Y-74242170D01*
X84024229Y-74306444D01*
X84024766Y-74308622D01*
X84033652Y-74349512D01*
X84036789Y-74381696D01*
X84034526Y-74414849D01*
X84029689Y-74445084D01*
X84009540Y-74519586D01*
X83977642Y-74590556D01*
X83936934Y-74652336D01*
X83903071Y-74688629D01*
X83878761Y-74711197D01*
X83861489Y-74728588D01*
X83855054Y-74736933D01*
X83859704Y-74746962D01*
X83872173Y-74769587D01*
X83890241Y-74800843D01*
X83901051Y-74819089D01*
X83923726Y-74857337D01*
X83944552Y-74892952D01*
X83960108Y-74920069D01*
X83963920Y-74926913D01*
X83980792Y-74957715D01*
X84026322Y-74925588D01*
X84060218Y-74899714D01*
X84094336Y-74870674D01*
X84107919Y-74857936D01*
X84133981Y-74829299D01*
X84162318Y-74793765D01*
X84178613Y-74770992D01*
X84194190Y-74746080D01*
X84207978Y-74719226D01*
X84221517Y-74686582D01*
X84236348Y-74644299D01*
X84254012Y-74588532D01*
X84261420Y-74564220D01*
X84267795Y-74532191D01*
X84272689Y-74486344D01*
X84275895Y-74432187D01*
X84277204Y-74375228D01*
X84276407Y-74320973D01*
X84273296Y-74274932D01*
X84272592Y-74268871D01*
X84263372Y-74205917D01*
X84252161Y-74155290D01*
X84236867Y-74109953D01*
X84215402Y-74062866D01*
X84205984Y-74044553D01*
X84162283Y-73973872D01*
X84112761Y-73919673D01*
X84054065Y-73879423D01*
X83982840Y-73850589D01*
X83931991Y-73837562D01*
X83844053Y-73827778D01*
X83760145Y-73836069D01*
X83682216Y-73861506D01*
X83612213Y-73903159D01*
X83552084Y-73960100D01*
X83503778Y-74031400D01*
X83496762Y-74045127D01*
X83480967Y-74072613D01*
X83466616Y-74089251D01*
X83459344Y-74092193D01*
X83448941Y-74082400D01*
X83436041Y-74059756D01*
X83427166Y-74038807D01*
X83399299Y-73986671D01*
X83357247Y-73936361D01*
X83305921Y-73892916D01*
X83257287Y-73864506D01*
X83207673Y-73847078D01*
X83152631Y-73836512D01*
X83098829Y-73833471D01*
X83052937Y-73838618D01*
X83039039Y-73842827D01*
X82973977Y-73870276D01*
X82923455Y-73898707D01*
X82882817Y-73931673D01*
X82847407Y-73972728D01*
X82824004Y-74006980D01*
X82774910Y-74101747D01*
X82741901Y-74205410D01*
X82725367Y-74315514D01*
X82296266Y-74315514D01*
X82296324Y-74197182D01*
X82296478Y-73967935D01*
X82296664Y-73755016D01*
X82296887Y-73557919D01*
X82297146Y-73376139D01*
X82297445Y-73209169D01*
X82297784Y-73056502D01*
X82297795Y-73052478D01*
X82733497Y-73052478D01*
X82734370Y-73127370D01*
X82748194Y-73234425D01*
X82777770Y-73330453D01*
X82822909Y-73415161D01*
X82883420Y-73488254D01*
X82959115Y-73549437D01*
X83031951Y-73590311D01*
X83063709Y-73604924D01*
X83088376Y-73615540D01*
X83100994Y-73620033D01*
X83101356Y-73620065D01*
X83108179Y-73611829D01*
X83117959Y-73591003D01*
X83122580Y-73578917D01*
X83147037Y-73510077D01*
X83165171Y-73457249D01*
X83177566Y-73418355D01*
X83184810Y-73391312D01*
X83187487Y-73374043D01*
X83186184Y-73364466D01*
X83183793Y-73361586D01*
X83168322Y-73352376D01*
X83143694Y-73339134D01*
X83135412Y-73334883D01*
X83104895Y-73315022D01*
X83074968Y-73288947D01*
X83068477Y-73281994D01*
X83045075Y-73249861D01*
X83022086Y-73209168D01*
X83002303Y-73165993D01*
X82988522Y-73126418D01*
X82983533Y-73097220D01*
X82992674Y-73036544D01*
X83018284Y-72980855D01*
X83057648Y-72933967D01*
X83108047Y-72899693D01*
X83130943Y-72890284D01*
X83189240Y-72877277D01*
X83244799Y-72880058D01*
X83301409Y-72899277D01*
X83352265Y-72928420D01*
X83374224Y-72943345D01*
X83394457Y-72958364D01*
X83414579Y-72975188D01*
X83436205Y-72995529D01*
X83460953Y-73021101D01*
X83490435Y-73053614D01*
X83526270Y-73094781D01*
X83570071Y-73146315D01*
X83623454Y-73209927D01*
X83666225Y-73261162D01*
X83714866Y-73319310D01*
X83763718Y-73377367D01*
X83810106Y-73432181D01*
X83851358Y-73480600D01*
X83884798Y-73519470D01*
X83902147Y-73539334D01*
X83973449Y-73620072D01*
X84122448Y-73620072D01*
X84271448Y-73620072D01*
X84271448Y-73092318D01*
X84271448Y-72564563D01*
X84135000Y-72564563D01*
X83998553Y-72564563D01*
X84000414Y-72862333D01*
X84001011Y-72962506D01*
X84001405Y-73044995D01*
X84001556Y-73111482D01*
X84001425Y-73163650D01*
X84000973Y-73203181D01*
X84000160Y-73231757D01*
X83998946Y-73251061D01*
X83997292Y-73262775D01*
X83995158Y-73268582D01*
X83992505Y-73270163D01*
X83990835Y-73269850D01*
X83982200Y-73261453D01*
X83963365Y-73239620D01*
X83935884Y-73206308D01*
X83901311Y-73163472D01*
X83861203Y-73113068D01*
X83817114Y-73057051D01*
X83770599Y-72997378D01*
X83723214Y-72936003D01*
X83676513Y-72874883D01*
X83670767Y-72867314D01*
X83600135Y-72779623D01*
X83533230Y-72707500D01*
X83470900Y-72651764D01*
X83413995Y-72613234D01*
X83399884Y-72605988D01*
X83313251Y-72574394D01*
X83224474Y-72559841D01*
X83136262Y-72561886D01*
X83051323Y-72580083D01*
X82972364Y-72613988D01*
X82902094Y-72663157D01*
X82871680Y-72692660D01*
X82813429Y-72768414D01*
X82771189Y-72852980D01*
X82744648Y-72947340D01*
X82733497Y-73052478D01*
X82297795Y-73052478D01*
X82298165Y-72917632D01*
X82298591Y-72792052D01*
X82299063Y-72679257D01*
X82299582Y-72578739D01*
X82300151Y-72489993D01*
X82300772Y-72412512D01*
X82301445Y-72345790D01*
X82302173Y-72289320D01*
X82302958Y-72242596D01*
X82303801Y-72205111D01*
X82304704Y-72176360D01*
X82305669Y-72155835D01*
X82306698Y-72143031D01*
X82307792Y-72137441D01*
X82308104Y-72137101D01*
X82319145Y-72136703D01*
X82348365Y-72136395D01*
X82394577Y-72136176D01*
X82456594Y-72136045D01*
X82533229Y-72136000D01*
X82623294Y-72136040D01*
G37*
%TD*%
M02*
