M48
; DRILL file KiCad 10.0.5-10.0.5~ubuntu24.04.1 date 2026-08-25T15:34:33
; FORMAT={-:-/ absolute / metric / decimal}
; #@! TF.CreationDate,2026-08-25T15:34:33+02:00
; #@! TF.GenerationSoftware,Kicad,Pcbnew,10.0.5-10.0.5~ubuntu24.04.1
; #@! TF.FileFunction,Plated,1,2,PTH
FMAT,2
METRIC
; #@! TA.AperFunction,Plated,PTH,ViaDrill
T1C0.300
; #@! TA.AperFunction,Plated,PTH,ComponentDrill
T2C1.000
%
G90
G05
T1
X80.95Y-47.2
X86.4Y-47.25
T2
X76.2Y-25.4
X76.2Y-27.94
X76.2Y-30.48
X76.2Y-33.02
X76.2Y-35.56
X76.2Y-38.1
X76.2Y-40.64
X76.2Y-43.18
X76.2Y-45.72
X76.2Y-48.26
X76.2Y-50.8
X76.2Y-53.34
X76.2Y-55.88
X76.2Y-58.42
X76.2Y-60.96
X76.2Y-63.5
X76.2Y-66.04
X76.2Y-68.58
X76.2Y-71.12
X76.2Y-73.66
X76.2Y-76.2
X76.2Y-78.74
X82.55Y-30.734
X82.55Y-33.274
X82.55Y-35.814
X82.55Y-38.354
X82.55Y-40.894
X82.55Y-43.434
X82.55Y-45.974
X82.55Y-48.514
X82.55Y-51.054
X82.55Y-53.594
X82.55Y-56.134
X82.55Y-58.674
X82.55Y-61.214
X82.55Y-63.754
X82.55Y-66.294
X82.55Y-68.834
X82.55Y-71.374
X82.55Y-73.914
X101.6Y-25.4
X101.6Y-27.94
X101.6Y-30.48
X101.6Y-33.02
X101.6Y-35.56
X101.6Y-38.1
X101.6Y-40.64
X101.6Y-43.18
X101.6Y-45.72
X101.6Y-48.26
X101.6Y-50.8
X101.6Y-53.34
X101.6Y-55.88
X101.6Y-58.42
X101.6Y-60.96
X101.6Y-63.5
X101.6Y-66.04
X101.6Y-68.58
X101.6Y-71.12
X101.6Y-73.66
X101.6Y-76.2
X101.6Y-78.74
X105.41Y-30.734
X105.41Y-33.274
X105.41Y-35.814
X105.41Y-38.354
X105.41Y-40.894
X105.41Y-43.434
X105.41Y-45.974
X105.41Y-48.514
X105.41Y-51.054
X105.41Y-53.594
X105.41Y-56.134
X105.41Y-58.674
X105.41Y-61.214
X105.41Y-63.754
X105.41Y-66.294
X105.41Y-68.834
X105.41Y-71.374
X105.41Y-73.914
M30
