%TF.GenerationSoftware,KiCad,Pcbnew,10.0.5-10.0.5~ubuntu24.04.1*%
%TF.CreationDate,2026-08-13T15:50:45+02:00*%
%TF.ProjectId,wifilorav4_adapter,77696669-6c6f-4726-9176-345f61646170,rev?*%
%TF.SameCoordinates,Original*%
%TF.FileFunction,Legend,Top*%
%TF.FilePolarity,Positive*%
%FSLAX46Y46*%
G04 Gerber Fmt 4.6, Leading zero omitted, Abs format (unit mm)*
G04 Created by KiCad (PCBNEW 10.0.5-10.0.5~ubuntu24.04.1) date 2026-08-13 15:50:45*
%MOMM*%
%LPD*%
G01*
G04 APERTURE LIST*
%ADD10C,0.125000*%
%ADD11C,0.150000*%
%ADD12C,0.120000*%
%ADD13C,0.000000*%
G04 APERTURE END LIST*
D10*
X88865218Y-55917495D02*
X90135218Y-55615114D01*
X90135218Y-55615114D02*
X89228075Y-55373209D01*
X89228075Y-55373209D02*
X90135218Y-55131304D01*
X90135218Y-55131304D02*
X88865218Y-54828924D01*
X90135218Y-54345114D02*
X89288551Y-54345114D01*
X88865218Y-54345114D02*
X88925694Y-54405590D01*
X88925694Y-54405590D02*
X88986170Y-54345114D01*
X88986170Y-54345114D02*
X88925694Y-54284637D01*
X88925694Y-54284637D02*
X88865218Y-54345114D01*
X88865218Y-54345114D02*
X88986170Y-54345114D01*
X89469980Y-53317018D02*
X89469980Y-53740352D01*
X90135218Y-53740352D02*
X88865218Y-53740352D01*
X88865218Y-53740352D02*
X88865218Y-53135590D01*
X90135218Y-52651781D02*
X89288551Y-52651781D01*
X88865218Y-52651781D02*
X88925694Y-52712257D01*
X88925694Y-52712257D02*
X88986170Y-52651781D01*
X88986170Y-52651781D02*
X88925694Y-52591304D01*
X88925694Y-52591304D02*
X88865218Y-52651781D01*
X88865218Y-52651781D02*
X88986170Y-52651781D01*
X90135218Y-50474638D02*
X90135218Y-51079400D01*
X90135218Y-51079400D02*
X88865218Y-51079400D01*
X90135218Y-49869876D02*
X90074742Y-49990828D01*
X90074742Y-49990828D02*
X90014265Y-50051305D01*
X90014265Y-50051305D02*
X89893313Y-50111781D01*
X89893313Y-50111781D02*
X89530456Y-50111781D01*
X89530456Y-50111781D02*
X89409503Y-50051305D01*
X89409503Y-50051305D02*
X89349027Y-49990828D01*
X89349027Y-49990828D02*
X89288551Y-49869876D01*
X89288551Y-49869876D02*
X89288551Y-49688447D01*
X89288551Y-49688447D02*
X89349027Y-49567495D01*
X89349027Y-49567495D02*
X89409503Y-49507019D01*
X89409503Y-49507019D02*
X89530456Y-49446543D01*
X89530456Y-49446543D02*
X89893313Y-49446543D01*
X89893313Y-49446543D02*
X90014265Y-49507019D01*
X90014265Y-49507019D02*
X90074742Y-49567495D01*
X90074742Y-49567495D02*
X90135218Y-49688447D01*
X90135218Y-49688447D02*
X90135218Y-49869876D01*
X90135218Y-48176542D02*
X89530456Y-48599876D01*
X90135218Y-48902257D02*
X88865218Y-48902257D01*
X88865218Y-48902257D02*
X88865218Y-48418447D01*
X88865218Y-48418447D02*
X88925694Y-48297495D01*
X88925694Y-48297495D02*
X88986170Y-48237018D01*
X88986170Y-48237018D02*
X89107122Y-48176542D01*
X89107122Y-48176542D02*
X89288551Y-48176542D01*
X89288551Y-48176542D02*
X89409503Y-48237018D01*
X89409503Y-48237018D02*
X89469980Y-48297495D01*
X89469980Y-48297495D02*
X89530456Y-48418447D01*
X89530456Y-48418447D02*
X89530456Y-48902257D01*
X90135218Y-47087971D02*
X89469980Y-47087971D01*
X89469980Y-47087971D02*
X89349027Y-47148447D01*
X89349027Y-47148447D02*
X89288551Y-47269399D01*
X89288551Y-47269399D02*
X89288551Y-47511304D01*
X89288551Y-47511304D02*
X89349027Y-47632257D01*
X90074742Y-47087971D02*
X90135218Y-47208923D01*
X90135218Y-47208923D02*
X90135218Y-47511304D01*
X90135218Y-47511304D02*
X90074742Y-47632257D01*
X90074742Y-47632257D02*
X89953789Y-47692733D01*
X89953789Y-47692733D02*
X89832837Y-47692733D01*
X89832837Y-47692733D02*
X89711884Y-47632257D01*
X89711884Y-47632257D02*
X89651408Y-47511304D01*
X89651408Y-47511304D02*
X89651408Y-47208923D01*
X89651408Y-47208923D02*
X89590932Y-47087971D01*
X88865218Y-45697018D02*
X90135218Y-45273685D01*
X90135218Y-45273685D02*
X88865218Y-44850351D01*
X89288551Y-43882733D02*
X90135218Y-43882733D01*
X88804742Y-44185114D02*
X89711884Y-44487495D01*
X89711884Y-44487495D02*
X89711884Y-43701304D01*
X91333180Y-58457494D02*
X91333180Y-57973685D01*
X90909847Y-58276066D02*
X91998418Y-58276066D01*
X91998418Y-58276066D02*
X92119371Y-58215589D01*
X92119371Y-58215589D02*
X92179847Y-58094637D01*
X92179847Y-58094637D02*
X92179847Y-57973685D01*
X92179847Y-57368923D02*
X92119371Y-57489875D01*
X92119371Y-57489875D02*
X92058894Y-57550352D01*
X92058894Y-57550352D02*
X91937942Y-57610828D01*
X91937942Y-57610828D02*
X91575085Y-57610828D01*
X91575085Y-57610828D02*
X91454132Y-57550352D01*
X91454132Y-57550352D02*
X91393656Y-57489875D01*
X91393656Y-57489875D02*
X91333180Y-57368923D01*
X91333180Y-57368923D02*
X91333180Y-57187494D01*
X91333180Y-57187494D02*
X91393656Y-57066542D01*
X91393656Y-57066542D02*
X91454132Y-57006066D01*
X91454132Y-57006066D02*
X91575085Y-56945590D01*
X91575085Y-56945590D02*
X91937942Y-56945590D01*
X91937942Y-56945590D02*
X92058894Y-57006066D01*
X92058894Y-57006066D02*
X92119371Y-57066542D01*
X92119371Y-57066542D02*
X92179847Y-57187494D01*
X92179847Y-57187494D02*
X92179847Y-57368923D01*
X91514609Y-55010351D02*
X91575085Y-54828923D01*
X91575085Y-54828923D02*
X91635561Y-54768446D01*
X91635561Y-54768446D02*
X91756513Y-54707970D01*
X91756513Y-54707970D02*
X91937942Y-54707970D01*
X91937942Y-54707970D02*
X92058894Y-54768446D01*
X92058894Y-54768446D02*
X92119371Y-54828923D01*
X92119371Y-54828923D02*
X92179847Y-54949875D01*
X92179847Y-54949875D02*
X92179847Y-55433685D01*
X92179847Y-55433685D02*
X90909847Y-55433685D01*
X90909847Y-55433685D02*
X90909847Y-55010351D01*
X90909847Y-55010351D02*
X90970323Y-54889399D01*
X90970323Y-54889399D02*
X91030799Y-54828923D01*
X91030799Y-54828923D02*
X91151751Y-54768446D01*
X91151751Y-54768446D02*
X91272704Y-54768446D01*
X91272704Y-54768446D02*
X91393656Y-54828923D01*
X91393656Y-54828923D02*
X91454132Y-54889399D01*
X91454132Y-54889399D02*
X91514609Y-55010351D01*
X91514609Y-55010351D02*
X91514609Y-55433685D01*
X92179847Y-54163685D02*
X91333180Y-54163685D01*
X90909847Y-54163685D02*
X90970323Y-54224161D01*
X90970323Y-54224161D02*
X91030799Y-54163685D01*
X91030799Y-54163685D02*
X90970323Y-54103208D01*
X90970323Y-54103208D02*
X90909847Y-54163685D01*
X90909847Y-54163685D02*
X91030799Y-54163685D01*
X91333180Y-53740351D02*
X91333180Y-53256542D01*
X90909847Y-53558923D02*
X91998418Y-53558923D01*
X91998418Y-53558923D02*
X92119371Y-53498446D01*
X92119371Y-53498446D02*
X92179847Y-53377494D01*
X92179847Y-53377494D02*
X92179847Y-53256542D01*
X92179847Y-51865590D02*
X90909847Y-51865590D01*
X90909847Y-51865590D02*
X90909847Y-51381780D01*
X90909847Y-51381780D02*
X90970323Y-51260828D01*
X90970323Y-51260828D02*
X91030799Y-51200351D01*
X91030799Y-51200351D02*
X91151751Y-51139875D01*
X91151751Y-51139875D02*
X91333180Y-51139875D01*
X91333180Y-51139875D02*
X91454132Y-51200351D01*
X91454132Y-51200351D02*
X91514609Y-51260828D01*
X91514609Y-51260828D02*
X91575085Y-51381780D01*
X91575085Y-51381780D02*
X91575085Y-51865590D01*
X92179847Y-50595590D02*
X91333180Y-50595590D01*
X90909847Y-50595590D02*
X90970323Y-50656066D01*
X90970323Y-50656066D02*
X91030799Y-50595590D01*
X91030799Y-50595590D02*
X90970323Y-50535113D01*
X90970323Y-50535113D02*
X90909847Y-50595590D01*
X90909847Y-50595590D02*
X91030799Y-50595590D01*
X92179847Y-49990828D02*
X91333180Y-49990828D01*
X91575085Y-49990828D02*
X91454132Y-49930351D01*
X91454132Y-49930351D02*
X91393656Y-49869875D01*
X91393656Y-49869875D02*
X91333180Y-49748923D01*
X91333180Y-49748923D02*
X91333180Y-49627970D01*
X92179847Y-48660352D02*
X91514609Y-48660352D01*
X91514609Y-48660352D02*
X91393656Y-48720828D01*
X91393656Y-48720828D02*
X91333180Y-48841780D01*
X91333180Y-48841780D02*
X91333180Y-49083685D01*
X91333180Y-49083685D02*
X91393656Y-49204638D01*
X92119371Y-48660352D02*
X92179847Y-48781304D01*
X92179847Y-48781304D02*
X92179847Y-49083685D01*
X92179847Y-49083685D02*
X92119371Y-49204638D01*
X92119371Y-49204638D02*
X91998418Y-49265114D01*
X91998418Y-49265114D02*
X91877466Y-49265114D01*
X91877466Y-49265114D02*
X91756513Y-49204638D01*
X91756513Y-49204638D02*
X91696037Y-49083685D01*
X91696037Y-49083685D02*
X91696037Y-48781304D01*
X91696037Y-48781304D02*
X91635561Y-48660352D01*
X91333180Y-48237018D02*
X91333180Y-47753209D01*
X90909847Y-48055590D02*
X91998418Y-48055590D01*
X91998418Y-48055590D02*
X92119371Y-47995113D01*
X92119371Y-47995113D02*
X92179847Y-47874161D01*
X92179847Y-47874161D02*
X92179847Y-47753209D01*
X92119371Y-46846066D02*
X92179847Y-46967018D01*
X92179847Y-46967018D02*
X92179847Y-47208923D01*
X92179847Y-47208923D02*
X92119371Y-47329876D01*
X92119371Y-47329876D02*
X91998418Y-47390352D01*
X91998418Y-47390352D02*
X91514609Y-47390352D01*
X91514609Y-47390352D02*
X91393656Y-47329876D01*
X91393656Y-47329876D02*
X91333180Y-47208923D01*
X91333180Y-47208923D02*
X91333180Y-46967018D01*
X91333180Y-46967018D02*
X91393656Y-46846066D01*
X91393656Y-46846066D02*
X91514609Y-46785590D01*
X91514609Y-46785590D02*
X91635561Y-46785590D01*
X91635561Y-46785590D02*
X91756513Y-47390352D01*
X92179847Y-45273686D02*
X90909847Y-45273686D01*
X90909847Y-45273686D02*
X90909847Y-44971305D01*
X90909847Y-44971305D02*
X90970323Y-44789876D01*
X90970323Y-44789876D02*
X91091275Y-44668924D01*
X91091275Y-44668924D02*
X91212228Y-44608447D01*
X91212228Y-44608447D02*
X91454132Y-44547971D01*
X91454132Y-44547971D02*
X91635561Y-44547971D01*
X91635561Y-44547971D02*
X91877466Y-44608447D01*
X91877466Y-44608447D02*
X91998418Y-44668924D01*
X91998418Y-44668924D02*
X92119371Y-44789876D01*
X92119371Y-44789876D02*
X92179847Y-44971305D01*
X92179847Y-44971305D02*
X92179847Y-45273686D01*
X92179847Y-43822257D02*
X92119371Y-43943209D01*
X92119371Y-43943209D02*
X92058894Y-44003686D01*
X92058894Y-44003686D02*
X91937942Y-44064162D01*
X91937942Y-44064162D02*
X91575085Y-44064162D01*
X91575085Y-44064162D02*
X91454132Y-44003686D01*
X91454132Y-44003686D02*
X91393656Y-43943209D01*
X91393656Y-43943209D02*
X91333180Y-43822257D01*
X91333180Y-43822257D02*
X91333180Y-43640828D01*
X91333180Y-43640828D02*
X91393656Y-43519876D01*
X91393656Y-43519876D02*
X91454132Y-43459400D01*
X91454132Y-43459400D02*
X91575085Y-43398924D01*
X91575085Y-43398924D02*
X91937942Y-43398924D01*
X91937942Y-43398924D02*
X92058894Y-43459400D01*
X92058894Y-43459400D02*
X92119371Y-43519876D01*
X92119371Y-43519876D02*
X92179847Y-43640828D01*
X92179847Y-43640828D02*
X92179847Y-43822257D01*
X92119371Y-42310352D02*
X92179847Y-42431304D01*
X92179847Y-42431304D02*
X92179847Y-42673209D01*
X92179847Y-42673209D02*
X92119371Y-42794161D01*
X92119371Y-42794161D02*
X92058894Y-42854638D01*
X92058894Y-42854638D02*
X91937942Y-42915114D01*
X91937942Y-42915114D02*
X91575085Y-42915114D01*
X91575085Y-42915114D02*
X91454132Y-42854638D01*
X91454132Y-42854638D02*
X91393656Y-42794161D01*
X91393656Y-42794161D02*
X91333180Y-42673209D01*
X91333180Y-42673209D02*
X91333180Y-42431304D01*
X91333180Y-42431304D02*
X91393656Y-42310352D01*
X92179847Y-41766067D02*
X90909847Y-41766067D01*
X91696037Y-41645114D02*
X92179847Y-41282257D01*
X91333180Y-41282257D02*
X91816990Y-41766067D01*
X92954476Y-51744637D02*
X94224476Y-51321304D01*
X94224476Y-51321304D02*
X92954476Y-50897970D01*
X94224476Y-49809399D02*
X94224476Y-50535114D01*
X94224476Y-50172257D02*
X92954476Y-50172257D01*
X92954476Y-50172257D02*
X93135904Y-50293209D01*
X93135904Y-50293209D02*
X93256857Y-50414161D01*
X93256857Y-50414161D02*
X93317333Y-50535114D01*
X94103523Y-49265114D02*
X94164000Y-49204637D01*
X94164000Y-49204637D02*
X94224476Y-49265114D01*
X94224476Y-49265114D02*
X94164000Y-49325590D01*
X94164000Y-49325590D02*
X94103523Y-49265114D01*
X94103523Y-49265114D02*
X94224476Y-49265114D01*
X92954476Y-48418447D02*
X92954476Y-48297494D01*
X92954476Y-48297494D02*
X93014952Y-48176542D01*
X93014952Y-48176542D02*
X93075428Y-48116066D01*
X93075428Y-48116066D02*
X93196380Y-48055590D01*
X93196380Y-48055590D02*
X93438285Y-47995113D01*
X93438285Y-47995113D02*
X93740666Y-47995113D01*
X93740666Y-47995113D02*
X93982571Y-48055590D01*
X93982571Y-48055590D02*
X94103523Y-48116066D01*
X94103523Y-48116066D02*
X94164000Y-48176542D01*
X94164000Y-48176542D02*
X94224476Y-48297494D01*
X94224476Y-48297494D02*
X94224476Y-48418447D01*
X94224476Y-48418447D02*
X94164000Y-48539399D01*
X94164000Y-48539399D02*
X94103523Y-48599875D01*
X94103523Y-48599875D02*
X93982571Y-48660352D01*
X93982571Y-48660352D02*
X93740666Y-48720828D01*
X93740666Y-48720828D02*
X93438285Y-48720828D01*
X93438285Y-48720828D02*
X93196380Y-48660352D01*
X93196380Y-48660352D02*
X93075428Y-48599875D01*
X93075428Y-48599875D02*
X93014952Y-48539399D01*
X93014952Y-48539399D02*
X92954476Y-48418447D01*
D11*
X105076666Y-76138819D02*
X105076666Y-76853104D01*
X105076666Y-76853104D02*
X105029047Y-76995961D01*
X105029047Y-76995961D02*
X104933809Y-77091200D01*
X104933809Y-77091200D02*
X104790952Y-77138819D01*
X104790952Y-77138819D02*
X104695714Y-77138819D01*
X105981428Y-76472152D02*
X105981428Y-77138819D01*
X105743333Y-76091200D02*
X105505238Y-76805485D01*
X105505238Y-76805485D02*
X106124285Y-76805485D01*
X82216666Y-76138819D02*
X82216666Y-76853104D01*
X82216666Y-76853104D02*
X82169047Y-76995961D01*
X82169047Y-76995961D02*
X82073809Y-77091200D01*
X82073809Y-77091200D02*
X81930952Y-77138819D01*
X81930952Y-77138819D02*
X81835714Y-77138819D01*
X82597619Y-76138819D02*
X83216666Y-76138819D01*
X83216666Y-76138819D02*
X82883333Y-76519771D01*
X82883333Y-76519771D02*
X83026190Y-76519771D01*
X83026190Y-76519771D02*
X83121428Y-76567390D01*
X83121428Y-76567390D02*
X83169047Y-76615009D01*
X83169047Y-76615009D02*
X83216666Y-76710247D01*
X83216666Y-76710247D02*
X83216666Y-76948342D01*
X83216666Y-76948342D02*
X83169047Y-77043580D01*
X83169047Y-77043580D02*
X83121428Y-77091200D01*
X83121428Y-77091200D02*
X83026190Y-77138819D01*
X83026190Y-77138819D02*
X82740476Y-77138819D01*
X82740476Y-77138819D02*
X82645238Y-77091200D01*
X82645238Y-77091200D02*
X82597619Y-77043580D01*
%TO.C,J4*%
D12*
X104080000Y-72644000D02*
X104080000Y-29404000D01*
X104080000Y-75244000D02*
X104080000Y-73914000D01*
X105410000Y-75244000D02*
X104080000Y-75244000D01*
X106740000Y-29404000D02*
X104080000Y-29404000D01*
X106740000Y-72644000D02*
X104080000Y-72644000D01*
X106740000Y-72644000D02*
X106740000Y-29404000D01*
%TO.C,J3*%
X81220000Y-72644000D02*
X81220000Y-29404000D01*
X81220000Y-75244000D02*
X81220000Y-73914000D01*
X82550000Y-75244000D02*
X81220000Y-75244000D01*
X83880000Y-29404000D02*
X81220000Y-29404000D01*
X83880000Y-72644000D02*
X81220000Y-72644000D01*
X83880000Y-72644000D02*
X83880000Y-29404000D01*
D13*
%TO.C,G1*%
G36*
X87048480Y-77752473D02*
G01*
X87043638Y-77757315D01*
X87038797Y-77752473D01*
X87043638Y-77747632D01*
X87048480Y-77752473D01*
G37*
G36*
X95850844Y-73239930D02*
G01*
X95846002Y-73244772D01*
X95841160Y-73239930D01*
X95846002Y-73235089D01*
X95850844Y-73239930D01*
G37*
G36*
X96083250Y-72668600D02*
G01*
X96078408Y-72673442D01*
X96073566Y-72668600D01*
X96078408Y-72663758D01*
X96083250Y-72668600D01*
G37*
G36*
X88038625Y-77875641D02*
G01*
X88157249Y-77878360D01*
X88157249Y-78454532D01*
X88157249Y-79030704D01*
X88038625Y-79033423D01*
X87920001Y-79036142D01*
X87920001Y-78454532D01*
X87920001Y-77872922D01*
X88038625Y-77875641D01*
G37*
G36*
X88147565Y-76818009D02*
G01*
X88147565Y-77500701D01*
X88033718Y-77503429D01*
X87919871Y-77506158D01*
X87922357Y-76820738D01*
X87924843Y-76135317D01*
X88036204Y-76135317D01*
X88147565Y-76135317D01*
X88147565Y-76818009D01*
G37*
G36*
X88152407Y-75070125D02*
G01*
X88152407Y-75762500D01*
X88036204Y-75762500D01*
X87920001Y-75762500D01*
X87920001Y-75070125D01*
X87920001Y-74377750D01*
X88036204Y-74377750D01*
X88152407Y-74377750D01*
X88152407Y-75070125D01*
G37*
G36*
X90244058Y-72402185D02*
G01*
X90244058Y-72508821D01*
X89876933Y-72508821D01*
X89509809Y-72508821D01*
X89504630Y-72472508D01*
X89502929Y-72443729D01*
X89503632Y-72404733D01*
X89506200Y-72368409D01*
X89512948Y-72300624D01*
X89878503Y-72298087D01*
X90244058Y-72295550D01*
X90244058Y-72402185D01*
G37*
G36*
X91097737Y-74070296D02*
G01*
X91099147Y-74111200D01*
X91098749Y-74153586D01*
X91098102Y-74167132D01*
X91095151Y-74213129D01*
X90738519Y-74213129D01*
X90381887Y-74213129D01*
X90376035Y-74191341D01*
X90373972Y-74171349D01*
X90373925Y-74138684D01*
X90375876Y-74099931D01*
X90376298Y-74094505D01*
X90382412Y-74019458D01*
X90738416Y-74019458D01*
X91094419Y-74019458D01*
X91097737Y-74070296D01*
G37*
G36*
X90244058Y-74116293D02*
G01*
X90244058Y-74213129D01*
X89877696Y-74213129D01*
X89795295Y-74212964D01*
X89719029Y-74212494D01*
X89651056Y-74211755D01*
X89593534Y-74210787D01*
X89548620Y-74209625D01*
X89518472Y-74208307D01*
X89505247Y-74206871D01*
X89504879Y-74206673D01*
X89502062Y-74194742D01*
X89499868Y-74168103D01*
X89498607Y-74131412D01*
X89498423Y-74109838D01*
X89498423Y-74019458D01*
X89871240Y-74019458D01*
X90244058Y-74019458D01*
X90244058Y-74116293D01*
G37*
G36*
X96716592Y-75549813D02*
G01*
X96735001Y-75557801D01*
X96764537Y-75570266D01*
X96804062Y-75586120D01*
X96845381Y-75602080D01*
X96848252Y-75603162D01*
X96895018Y-75621917D01*
X96926081Y-75637919D01*
X96944408Y-75653572D01*
X96952965Y-75671277D01*
X96954771Y-75689437D01*
X96949390Y-75719687D01*
X96932706Y-75737456D01*
X96903902Y-75742797D01*
X96862167Y-75735758D01*
X96806684Y-75716392D01*
X96770783Y-75700854D01*
X96678789Y-75658992D01*
X96675906Y-75599385D01*
X96675102Y-75564130D01*
X96679304Y-75545743D01*
X96691979Y-75541783D01*
X96716592Y-75549813D01*
G37*
G36*
X91353048Y-77507844D02*
G01*
X91355269Y-77527482D01*
X91356316Y-77560303D01*
X91356034Y-77600151D01*
X91355684Y-77612062D01*
X91352826Y-77694372D01*
X90996697Y-77696912D01*
X90901443Y-77697478D01*
X90823880Y-77697648D01*
X90762336Y-77697374D01*
X90715137Y-77696610D01*
X90680611Y-77695305D01*
X90657086Y-77693413D01*
X90642888Y-77690885D01*
X90636345Y-77687672D01*
X90635599Y-77686502D01*
X90633709Y-77671586D01*
X90632781Y-77642374D01*
X90632919Y-77603917D01*
X90633436Y-77582284D01*
X90636242Y-77491017D01*
X90991899Y-77488477D01*
X91347556Y-77485937D01*
X91353048Y-77507844D01*
G37*
G36*
X86085945Y-75445422D02*
G01*
X86126023Y-75450418D01*
X86154690Y-75459432D01*
X86179858Y-75475164D01*
X86185015Y-75479231D01*
X86211050Y-75503671D01*
X86232867Y-75529792D01*
X86237576Y-75537019D01*
X86249467Y-75567456D01*
X86259596Y-75613118D01*
X86267366Y-75669894D01*
X86272181Y-75733676D01*
X86273496Y-75784288D01*
X86273795Y-75859336D01*
X86046231Y-75859336D01*
X85818667Y-75859336D01*
X85818642Y-75769763D01*
X85822737Y-75681794D01*
X85835337Y-75609986D01*
X85856831Y-75552914D01*
X85887612Y-75509153D01*
X85891004Y-75505666D01*
X85936096Y-75470732D01*
X85988285Y-75450483D01*
X86050752Y-75443936D01*
X86085945Y-75445422D01*
G37*
G36*
X91115579Y-72396213D02*
G01*
X91115579Y-72496880D01*
X91088949Y-72502175D01*
X91073157Y-72503456D01*
X91040456Y-72504679D01*
X90993302Y-72505801D01*
X90934155Y-72506779D01*
X90865471Y-72507571D01*
X90789709Y-72508135D01*
X90730443Y-72508380D01*
X90638765Y-72508506D01*
X90564718Y-72508291D01*
X90506568Y-72507670D01*
X90462581Y-72506582D01*
X90431023Y-72504964D01*
X90410161Y-72502754D01*
X90398259Y-72499888D01*
X90393585Y-72496305D01*
X90393553Y-72496224D01*
X90391645Y-72481255D01*
X90390702Y-72451997D01*
X90390831Y-72413510D01*
X90391346Y-72391892D01*
X90394153Y-72300624D01*
X90754866Y-72298086D01*
X91115579Y-72295547D01*
X91115579Y-72396213D01*
G37*
G36*
X90105615Y-77487969D02*
G01*
X90191445Y-77488475D01*
X90549090Y-77491017D01*
X90549090Y-77592694D01*
X90549090Y-77694372D01*
X90195273Y-77696910D01*
X90096678Y-77697452D01*
X90016021Y-77697503D01*
X89951879Y-77697027D01*
X89902829Y-77695989D01*
X89867447Y-77694353D01*
X89844311Y-77692083D01*
X89831995Y-77689143D01*
X89829718Y-77687711D01*
X89824450Y-77673017D01*
X89820675Y-77644667D01*
X89818504Y-77608322D01*
X89818047Y-77569645D01*
X89819413Y-77534295D01*
X89822713Y-77507936D01*
X89826038Y-77498159D01*
X89832171Y-77494869D01*
X89846982Y-77492260D01*
X89872025Y-77490289D01*
X89908855Y-77488916D01*
X89959027Y-77488099D01*
X90024096Y-77487797D01*
X90105615Y-77487969D01*
G37*
G36*
X91860118Y-72297769D02*
G01*
X91909147Y-72298634D01*
X91944992Y-72300051D01*
X91969197Y-72302062D01*
X91983309Y-72304705D01*
X91988727Y-72307767D01*
X91992191Y-72322439D01*
X91994894Y-72351347D01*
X91996431Y-72389366D01*
X91996635Y-72408138D01*
X91996784Y-72496285D01*
X91897527Y-72502490D01*
X91860744Y-72504160D01*
X91808381Y-72505660D01*
X91744226Y-72506928D01*
X91672067Y-72507899D01*
X91595690Y-72508512D01*
X91526037Y-72508703D01*
X91253803Y-72508712D01*
X91248698Y-72457928D01*
X91246882Y-72416524D01*
X91248241Y-72371133D01*
X91249792Y-72353884D01*
X91255991Y-72300624D01*
X91618479Y-72298084D01*
X91716329Y-72297534D01*
X91796360Y-72297416D01*
X91860118Y-72297769D01*
G37*
G36*
X91113511Y-79134971D02*
G01*
X91114159Y-79181973D01*
X91112634Y-79212339D01*
X91108677Y-79228703D01*
X91103827Y-79233416D01*
X91091572Y-79234450D01*
X91062206Y-79235682D01*
X91017985Y-79237057D01*
X90961162Y-79238515D01*
X90893993Y-79239999D01*
X90818732Y-79241450D01*
X90739977Y-79242775D01*
X90645228Y-79244139D01*
X90568173Y-79244950D01*
X90507146Y-79245174D01*
X90460481Y-79244777D01*
X90426511Y-79243727D01*
X90403571Y-79241989D01*
X90389993Y-79239530D01*
X90384112Y-79236316D01*
X90383720Y-79235598D01*
X90381877Y-79220810D01*
X90380985Y-79191707D01*
X90381142Y-79153323D01*
X90381663Y-79131655D01*
X90384470Y-79040388D01*
X90747603Y-79040388D01*
X91110737Y-79040388D01*
X91113511Y-79134971D01*
G37*
G36*
X91345934Y-75853694D02*
G01*
X91346528Y-75902476D01*
X91344782Y-75934549D01*
X91340460Y-75952455D01*
X91336250Y-75957644D01*
X91323990Y-75959464D01*
X91294618Y-75961145D01*
X91250390Y-75962636D01*
X91193561Y-75963888D01*
X91126387Y-75964851D01*
X91051123Y-75965474D01*
X90972442Y-75965707D01*
X90877495Y-75965623D01*
X90800262Y-75965246D01*
X90739093Y-75964516D01*
X90692337Y-75963374D01*
X90658343Y-75961763D01*
X90635462Y-75959622D01*
X90622040Y-75956893D01*
X90616429Y-75953518D01*
X90616186Y-75953024D01*
X90614317Y-75938163D01*
X90613404Y-75908999D01*
X90613550Y-75870574D01*
X90614069Y-75848926D01*
X90616875Y-75757658D01*
X90980009Y-75757658D01*
X91343143Y-75757658D01*
X91345934Y-75853694D01*
G37*
G36*
X91988817Y-79068400D02*
G01*
X91990262Y-79095421D01*
X91990205Y-79133104D01*
X91988859Y-79169094D01*
X91985039Y-79236702D01*
X91949756Y-79242537D01*
X91931774Y-79243936D01*
X91896987Y-79245222D01*
X91847959Y-79246352D01*
X91787252Y-79247283D01*
X91717429Y-79247974D01*
X91641052Y-79248383D01*
X91587349Y-79248478D01*
X91495953Y-79248373D01*
X91422216Y-79247948D01*
X91364433Y-79247138D01*
X91320898Y-79245878D01*
X91289905Y-79244103D01*
X91269749Y-79241746D01*
X91258724Y-79238742D01*
X91255301Y-79235754D01*
X91253432Y-79220893D01*
X91252519Y-79191728D01*
X91252665Y-79153303D01*
X91253184Y-79131655D01*
X91255991Y-79040388D01*
X91620473Y-79037852D01*
X91984954Y-79035315D01*
X91988817Y-79068400D01*
G37*
G36*
X95714193Y-73639964D02*
G01*
X95715463Y-73641799D01*
X95725888Y-73676023D01*
X95718562Y-73717425D01*
X95693610Y-73765740D01*
X95651161Y-73820703D01*
X95606923Y-73867103D01*
X95556148Y-73913443D01*
X95508021Y-73951119D01*
X95464577Y-73979005D01*
X95427849Y-73995981D01*
X95399872Y-74000920D01*
X95382679Y-73992701D01*
X95381828Y-73991438D01*
X95381423Y-73977590D01*
X95386959Y-73953643D01*
X95389664Y-73945419D01*
X95401429Y-73923536D01*
X95424649Y-73893252D01*
X95460353Y-73853372D01*
X95509566Y-73802704D01*
X95529566Y-73782800D01*
X95583023Y-73730393D01*
X95624721Y-73690726D01*
X95656297Y-73662555D01*
X95679394Y-73644638D01*
X95695649Y-73635729D01*
X95706702Y-73634586D01*
X95714193Y-73639964D01*
G37*
G36*
X89363584Y-72396944D02*
G01*
X89362303Y-72438552D01*
X89360422Y-72472806D01*
X89358237Y-72495141D01*
X89356834Y-72501043D01*
X89346388Y-72502807D01*
X89318745Y-72504432D01*
X89276077Y-72505869D01*
X89220552Y-72507073D01*
X89154343Y-72507998D01*
X89079619Y-72508596D01*
X88998550Y-72508820D01*
X88994002Y-72508821D01*
X88898080Y-72508700D01*
X88819888Y-72508299D01*
X88757791Y-72507560D01*
X88710153Y-72506425D01*
X88675341Y-72504837D01*
X88651717Y-72502737D01*
X88637646Y-72500068D01*
X88631494Y-72496771D01*
X88631054Y-72495990D01*
X88629185Y-72481129D01*
X88628272Y-72451965D01*
X88628418Y-72413540D01*
X88628937Y-72391892D01*
X88631744Y-72300624D01*
X88998635Y-72300624D01*
X89365527Y-72300624D01*
X89363584Y-72396944D01*
G37*
G36*
X90179748Y-79037947D02*
G01*
X90210435Y-79038821D01*
X90223823Y-79040112D01*
X90233236Y-79044233D01*
X90239143Y-79051865D01*
X90242192Y-79066750D01*
X90243027Y-79092630D01*
X90242295Y-79133248D01*
X90241967Y-79145244D01*
X90239216Y-79243743D01*
X89880924Y-79245460D01*
X89799172Y-79245721D01*
X89723325Y-79245711D01*
X89655612Y-79245449D01*
X89598260Y-79244956D01*
X89553499Y-79244250D01*
X89523556Y-79243352D01*
X89510660Y-79242280D01*
X89510528Y-79242232D01*
X89504260Y-79232137D01*
X89500345Y-79206856D01*
X89498576Y-79164686D01*
X89498423Y-79142513D01*
X89498423Y-79047739D01*
X89850675Y-79040610D01*
X89932169Y-79039150D01*
X90008145Y-79038150D01*
X90076281Y-79037614D01*
X90134256Y-79037546D01*
X90179748Y-79037947D01*
G37*
G36*
X95484784Y-74799424D02*
G01*
X95520565Y-74815068D01*
X95560910Y-74842736D01*
X95607990Y-74883879D01*
X95653997Y-74929566D01*
X95698235Y-74976180D01*
X95730169Y-75012535D01*
X95751703Y-75041535D01*
X95764743Y-75066079D01*
X95771194Y-75089069D01*
X95772939Y-75110709D01*
X95771084Y-75135610D01*
X95762368Y-75145481D01*
X95743460Y-75141748D01*
X95722971Y-75132112D01*
X95702966Y-75118285D01*
X95673039Y-75093212D01*
X95636215Y-75059876D01*
X95595523Y-75021262D01*
X95553987Y-74980356D01*
X95514636Y-74940141D01*
X95480496Y-74903602D01*
X95454594Y-74873724D01*
X95439956Y-74853491D01*
X95439435Y-74852520D01*
X95426540Y-74821471D01*
X95427224Y-74802845D01*
X95441842Y-74794919D01*
X95451397Y-74794356D01*
X95484784Y-74799424D01*
G37*
G36*
X96785198Y-75731741D02*
G01*
X96828885Y-75754588D01*
X96877319Y-75790685D01*
X96909629Y-75820061D01*
X96945524Y-75854032D01*
X96982351Y-75887291D01*
X97014095Y-75914461D01*
X97024541Y-75922822D01*
X97052231Y-75949296D01*
X97075543Y-75980623D01*
X97091833Y-76011991D01*
X97098457Y-76038586D01*
X97095642Y-76052263D01*
X97079187Y-76061458D01*
X97050629Y-76058530D01*
X97012670Y-76043844D01*
X97005171Y-76040045D01*
X96969818Y-76017816D01*
X96926812Y-75985286D01*
X96881162Y-75946807D01*
X96837878Y-75906732D01*
X96801972Y-75869411D01*
X96785091Y-75848867D01*
X96768035Y-75821141D01*
X96754213Y-75790187D01*
X96744976Y-75760685D01*
X96741675Y-75737311D01*
X96745661Y-75724745D01*
X96748961Y-75723766D01*
X96785198Y-75731741D01*
G37*
G36*
X97159815Y-75838485D02*
G01*
X97170345Y-75847231D01*
X97180105Y-75863507D01*
X97194795Y-75894803D01*
X97213160Y-75937791D01*
X97233944Y-75989140D01*
X97255892Y-76045523D01*
X97277749Y-76103609D01*
X97298259Y-76160071D01*
X97316169Y-76211579D01*
X97330222Y-76254804D01*
X97339163Y-76286416D01*
X97341806Y-76301980D01*
X97334510Y-76335215D01*
X97315361Y-76356589D01*
X97291708Y-76362881D01*
X97266882Y-76356278D01*
X97252766Y-76345935D01*
X97238149Y-76322905D01*
X97230821Y-76304780D01*
X97221774Y-76277584D01*
X97211846Y-76251520D01*
X97173259Y-76155948D01*
X97140851Y-76072628D01*
X97115004Y-76002632D01*
X97096102Y-75947034D01*
X97084526Y-75906905D01*
X97080657Y-75883529D01*
X97088605Y-75856794D01*
X97108447Y-75838755D01*
X97134184Y-75831843D01*
X97159815Y-75838485D01*
G37*
G36*
X95249526Y-77848730D02*
G01*
X95258683Y-77863771D01*
X95264560Y-77891357D01*
X95266596Y-77924859D01*
X95264230Y-77957648D01*
X95260208Y-77975009D01*
X95240103Y-78021985D01*
X95209964Y-78075196D01*
X95173126Y-78130106D01*
X95132924Y-78182179D01*
X95092694Y-78226878D01*
X95055772Y-78259668D01*
X95045900Y-78266465D01*
X95015742Y-78283728D01*
X94997945Y-78288795D01*
X94990060Y-78281944D01*
X94989060Y-78272965D01*
X94992924Y-78242904D01*
X95005105Y-78207235D01*
X95026759Y-78163551D01*
X95059043Y-78109447D01*
X95091361Y-78059934D01*
X95119826Y-78016749D01*
X95143970Y-77978795D01*
X95161897Y-77949154D01*
X95171717Y-77930909D01*
X95172994Y-77927059D01*
X95179110Y-77912889D01*
X95194293Y-77893074D01*
X95213793Y-77872475D01*
X95232863Y-77855953D01*
X95246753Y-77848366D01*
X95249526Y-77848730D01*
G37*
G36*
X95620258Y-75120334D02*
G01*
X95645913Y-75127950D01*
X95682276Y-75141726D01*
X95732172Y-75162563D01*
X95756544Y-75173072D01*
X95805048Y-75194619D01*
X95846966Y-75214207D01*
X95879190Y-75230306D01*
X95898606Y-75241383D01*
X95902851Y-75245066D01*
X95904291Y-75260267D01*
X95903187Y-75286814D01*
X95901856Y-75300747D01*
X95896528Y-75330253D01*
X95888218Y-75343777D01*
X95881056Y-75345602D01*
X95865788Y-75341956D01*
X95837249Y-75332538D01*
X95800079Y-75318942D01*
X95773375Y-75308577D01*
X95703124Y-75279471D01*
X95645755Y-75253164D01*
X95602952Y-75230499D01*
X95576396Y-75212322D01*
X95571172Y-75207083D01*
X95563540Y-75187601D01*
X95562050Y-75161012D01*
X95562097Y-75160505D01*
X95569052Y-75134901D01*
X95586338Y-75121281D01*
X95589767Y-75119987D01*
X95602485Y-75117980D01*
X95620258Y-75120334D01*
G37*
G36*
X95805373Y-77485248D02*
G01*
X95807959Y-77500302D01*
X95799892Y-77524780D01*
X95783605Y-77553831D01*
X95761533Y-77582603D01*
X95751034Y-77593523D01*
X95728228Y-77611408D01*
X95693049Y-77634251D01*
X95650687Y-77658842D01*
X95614875Y-77677737D01*
X95564746Y-77701949D01*
X95525969Y-77717951D01*
X95493308Y-77727527D01*
X95461525Y-77732464D01*
X95451967Y-77733265D01*
X95418059Y-77734740D01*
X95391207Y-77734179D01*
X95378770Y-77732147D01*
X95367694Y-77719675D01*
X95372657Y-77701331D01*
X95391915Y-77678917D01*
X95423726Y-77654234D01*
X95466346Y-77629084D01*
X95489506Y-77617665D01*
X95529882Y-77598353D01*
X95578436Y-77574366D01*
X95626248Y-77550126D01*
X95637805Y-77544147D01*
X95697622Y-77514671D01*
X95745811Y-77494368D01*
X95781022Y-77483712D01*
X95801908Y-77483177D01*
X95805373Y-77485248D01*
G37*
G36*
X96362048Y-77090157D02*
G01*
X96403728Y-77094777D01*
X96429454Y-77102431D01*
X96455912Y-77119665D01*
X96476384Y-77139310D01*
X96486760Y-77156839D01*
X96486185Y-77164891D01*
X96470917Y-77174214D01*
X96438559Y-77182534D01*
X96391381Y-77189336D01*
X96368915Y-77191512D01*
X96282263Y-77199559D01*
X96209251Y-77207656D01*
X96151343Y-77215606D01*
X96110002Y-77223210D01*
X96088091Y-77229626D01*
X96061958Y-77239974D01*
X96029523Y-77251508D01*
X95996905Y-77262219D01*
X95970221Y-77270099D01*
X95955638Y-77273137D01*
X95947825Y-77265806D01*
X95947680Y-77264084D01*
X95955224Y-77234510D01*
X95975080Y-77200075D01*
X96003084Y-77166096D01*
X96035074Y-77137891D01*
X96056679Y-77124865D01*
X96091487Y-77113013D01*
X96138775Y-77103224D01*
X96194009Y-77095771D01*
X96252655Y-77090927D01*
X96310179Y-77088965D01*
X96362048Y-77090157D01*
G37*
G36*
X97161100Y-76210550D02*
G01*
X97169305Y-76220600D01*
X97180705Y-76243164D01*
X97188280Y-76261574D01*
X97196086Y-76286011D01*
X97201374Y-76313671D01*
X97204557Y-76348782D01*
X97206052Y-76395570D01*
X97206309Y-76445192D01*
X97206025Y-76499602D01*
X97204975Y-76538783D01*
X97202558Y-76566871D01*
X97198175Y-76588004D01*
X97191224Y-76606318D01*
X97181104Y-76625950D01*
X97179688Y-76628520D01*
X97159948Y-76661022D01*
X97144779Y-76676710D01*
X97131724Y-76676818D01*
X97118324Y-76662578D01*
X97116690Y-76660137D01*
X97103238Y-76628548D01*
X97092901Y-76582448D01*
X97085920Y-76526479D01*
X97082533Y-76465282D01*
X97082981Y-76403498D01*
X97087503Y-76345769D01*
X97096338Y-76296737D01*
X97097676Y-76291739D01*
X97109247Y-76263364D01*
X97125869Y-76236998D01*
X97143662Y-76217609D01*
X97158744Y-76210166D01*
X97161100Y-76210550D01*
G37*
G36*
X89802696Y-76044551D02*
G01*
X89822459Y-76046349D01*
X89833223Y-76050397D01*
X89838440Y-76057259D01*
X89840851Y-76064815D01*
X89841851Y-76078035D01*
X89842803Y-76108983D01*
X89843691Y-76156018D01*
X89844500Y-76217501D01*
X89845216Y-76291790D01*
X89845824Y-76377247D01*
X89846311Y-76472231D01*
X89846661Y-76575103D01*
X89846859Y-76684222D01*
X89846899Y-76747803D01*
X89847032Y-77408707D01*
X89730525Y-77408707D01*
X89676179Y-77408037D01*
X89639181Y-77405895D01*
X89617556Y-77402085D01*
X89609394Y-77396602D01*
X89608654Y-77385112D01*
X89608023Y-77355853D01*
X89607503Y-77310425D01*
X89607102Y-77250425D01*
X89606823Y-77177453D01*
X89606672Y-77093108D01*
X89606654Y-76998987D01*
X89606774Y-76896690D01*
X89607036Y-76787815D01*
X89607277Y-76716332D01*
X89609784Y-76048165D01*
X89722359Y-76045448D01*
X89770480Y-76044438D01*
X89802696Y-76044551D01*
G37*
G36*
X94956056Y-78080415D02*
G01*
X94970817Y-78092877D01*
X94976620Y-78117013D01*
X94974584Y-78155578D01*
X94971690Y-78176542D01*
X94965084Y-78216838D01*
X94956193Y-78267084D01*
X94945786Y-78323351D01*
X94934630Y-78381705D01*
X94923493Y-78438216D01*
X94913142Y-78488953D01*
X94904344Y-78529984D01*
X94897867Y-78557377D01*
X94896167Y-78563415D01*
X94879988Y-78592193D01*
X94856633Y-78606529D01*
X94830650Y-78604993D01*
X94810172Y-78590447D01*
X94802664Y-78579302D01*
X94798007Y-78564097D01*
X94796426Y-78542805D01*
X94798148Y-78513402D01*
X94803398Y-78473863D01*
X94812402Y-78422164D01*
X94825385Y-78356279D01*
X94842574Y-78274183D01*
X94848532Y-78246335D01*
X94857091Y-78205761D01*
X94864590Y-78168967D01*
X94869620Y-78142888D01*
X94870163Y-78139816D01*
X94883321Y-78103761D01*
X94906827Y-78082263D01*
X94931220Y-78076873D01*
X94956056Y-78080415D01*
G37*
G36*
X96834986Y-77129640D02*
G01*
X96850816Y-77140486D01*
X96852376Y-77142419D01*
X96865070Y-77164336D01*
X96863534Y-77182991D01*
X96847008Y-77205383D01*
X96845357Y-77207177D01*
X96817060Y-77226798D01*
X96771630Y-77243986D01*
X96755784Y-77248315D01*
X96713019Y-77259319D01*
X96669627Y-77270689D01*
X96640055Y-77278599D01*
X96553114Y-77301524D01*
X96483218Y-77318300D01*
X96429122Y-77329151D01*
X96389582Y-77334301D01*
X96363353Y-77333974D01*
X96351969Y-77330448D01*
X96338990Y-77313048D01*
X96335164Y-77286649D01*
X96340457Y-77259299D01*
X96352351Y-77241089D01*
X96368838Y-77232162D01*
X96399262Y-77220768D01*
X96438656Y-77208642D01*
X96466133Y-77201336D01*
X96521888Y-77187312D01*
X96585047Y-77171259D01*
X96644279Y-77156061D01*
X96659422Y-77152143D01*
X96724722Y-77136403D01*
X96774225Y-77127483D01*
X96810218Y-77125267D01*
X96834986Y-77129640D01*
G37*
G36*
X95369470Y-73789543D02*
G01*
X95378488Y-73802405D01*
X95382534Y-73816475D01*
X95383167Y-73835620D01*
X95379921Y-73862091D01*
X95372329Y-73898142D01*
X95359924Y-73946024D01*
X95342239Y-74007988D01*
X95321453Y-74077559D01*
X95307112Y-74125072D01*
X95293821Y-74169345D01*
X95283171Y-74205067D01*
X95277247Y-74225205D01*
X95258725Y-74274521D01*
X95236731Y-74305489D01*
X95210619Y-74318918D01*
X95201980Y-74319648D01*
X95177009Y-74314548D01*
X95161919Y-74296218D01*
X95161230Y-74294739D01*
X95156734Y-74266657D01*
X95161007Y-74221847D01*
X95173964Y-74160806D01*
X95195518Y-74084032D01*
X95200525Y-74067876D01*
X95212383Y-74029612D01*
X95227218Y-73981031D01*
X95242515Y-73930388D01*
X95248495Y-73910414D01*
X95262205Y-73868236D01*
X95276190Y-73831498D01*
X95288415Y-73805283D01*
X95294133Y-73796632D01*
X95319028Y-73780096D01*
X95346280Y-73777880D01*
X95369470Y-73789543D01*
G37*
G36*
X95437498Y-77514694D02*
G01*
X95447872Y-77530366D01*
X95449710Y-77544549D01*
X95444584Y-77562488D01*
X95431307Y-77585765D01*
X95408692Y-77615964D01*
X95375552Y-77654668D01*
X95330699Y-77703460D01*
X95272948Y-77763923D01*
X95272098Y-77764802D01*
X95221763Y-77816554D01*
X95182725Y-77855795D01*
X95153074Y-77884175D01*
X95130898Y-77903349D01*
X95114287Y-77914970D01*
X95101331Y-77920689D01*
X95090200Y-77922160D01*
X95065264Y-77918394D01*
X95049045Y-77910315D01*
X95040339Y-77892453D01*
X95037424Y-77871721D01*
X95039807Y-77860449D01*
X95047929Y-77845374D01*
X95063250Y-77824759D01*
X95087229Y-77796869D01*
X95121325Y-77759966D01*
X95166999Y-77712316D01*
X95199600Y-77678835D01*
X95246207Y-77631741D01*
X95289480Y-77589119D01*
X95327243Y-77553022D01*
X95357322Y-77525508D01*
X95377541Y-77508630D01*
X95384222Y-77504390D01*
X95413080Y-77502001D01*
X95437498Y-77514694D01*
G37*
G36*
X88024100Y-72596121D02*
G01*
X88067969Y-72596869D01*
X88105151Y-72598775D01*
X88131052Y-72601528D01*
X88140366Y-72603994D01*
X88142737Y-72609180D01*
X88144768Y-72622246D01*
X88146475Y-72644302D01*
X88147871Y-72676459D01*
X88148973Y-72719828D01*
X88149794Y-72775520D01*
X88150350Y-72844645D01*
X88150655Y-72928314D01*
X88150724Y-73027638D01*
X88150573Y-73143728D01*
X88150216Y-73277695D01*
X88150049Y-73327693D01*
X88147565Y-74043667D01*
X88045888Y-74045482D01*
X88002538Y-74045778D01*
X87965898Y-74045141D01*
X87940625Y-74043702D01*
X87932106Y-74042255D01*
X87929738Y-74037494D01*
X87927679Y-74024594D01*
X87925909Y-74002465D01*
X87924412Y-73970019D01*
X87923167Y-73926166D01*
X87922158Y-73869819D01*
X87921366Y-73799888D01*
X87920773Y-73715284D01*
X87920361Y-73614919D01*
X87920112Y-73497704D01*
X87920007Y-73362550D01*
X87920001Y-73316592D01*
X87920001Y-72595973D01*
X88024100Y-72596121D01*
G37*
G36*
X95356917Y-74173132D02*
G01*
X95380055Y-74195931D01*
X95402683Y-74229416D01*
X95402979Y-74229944D01*
X95408121Y-74247848D01*
X95411795Y-74281231D01*
X95414076Y-74331271D01*
X95415040Y-74399147D01*
X95415083Y-74420451D01*
X95415006Y-74481383D01*
X95414506Y-74526104D01*
X95413187Y-74557771D01*
X95410650Y-74579540D01*
X95406497Y-74594569D01*
X95400329Y-74606014D01*
X95391747Y-74617031D01*
X95390014Y-74619096D01*
X95371493Y-74638030D01*
X95356443Y-74648263D01*
X95353700Y-74648853D01*
X95343701Y-74640625D01*
X95331390Y-74619861D01*
X95326025Y-74607698D01*
X95319436Y-74586771D01*
X95314598Y-74559684D01*
X95311224Y-74523215D01*
X95309025Y-74474145D01*
X95307713Y-74409251D01*
X95307622Y-74401959D01*
X95307253Y-74324916D01*
X95308365Y-74265366D01*
X95311186Y-74221477D01*
X95315943Y-74191416D01*
X95322863Y-74173349D01*
X95332173Y-74165443D01*
X95337005Y-74164711D01*
X95356917Y-74173132D01*
G37*
G36*
X96125788Y-77286036D02*
G01*
X96138294Y-77302139D01*
X96141351Y-77323191D01*
X96132620Y-77355555D01*
X96107253Y-77379348D01*
X96066483Y-77393459D01*
X96062486Y-77394153D01*
X96032248Y-77399895D01*
X95991442Y-77408702D01*
X95948252Y-77418800D01*
X95942838Y-77420127D01*
X95885920Y-77433733D01*
X95828663Y-77446653D01*
X95774862Y-77458108D01*
X95728317Y-77467317D01*
X95692824Y-77473498D01*
X95672183Y-77475871D01*
X95671698Y-77475876D01*
X95646499Y-77470974D01*
X95635385Y-77466032D01*
X95621801Y-77447310D01*
X95618438Y-77422974D01*
X95621791Y-77399537D01*
X95633745Y-77381612D01*
X95657143Y-77367296D01*
X95694830Y-77354685D01*
X95734858Y-77345053D01*
X95780717Y-77334774D01*
X95828854Y-77323654D01*
X95865369Y-77314941D01*
X95903265Y-77306423D01*
X95951150Y-77296701D01*
X95999889Y-77287614D01*
X96009426Y-77285950D01*
X96063524Y-77278554D01*
X96101588Y-77278378D01*
X96125788Y-77286036D01*
G37*
G36*
X97049008Y-76823531D02*
G01*
X97051606Y-76830749D01*
X97044962Y-76855003D01*
X97028327Y-76884294D01*
X97006651Y-76911332D01*
X96985077Y-76928728D01*
X96967854Y-76939387D01*
X96939022Y-76959080D01*
X96902400Y-76985132D01*
X96861805Y-77014866D01*
X96855980Y-77019202D01*
X96815112Y-77048675D01*
X96777444Y-77074012D01*
X96746813Y-77092754D01*
X96727056Y-77102443D01*
X96725252Y-77102967D01*
X96698202Y-77109812D01*
X96679778Y-77114925D01*
X96667580Y-77116271D01*
X96664796Y-77106772D01*
X96667376Y-77090536D01*
X96685645Y-77042813D01*
X96719851Y-76995288D01*
X96766965Y-76952071D01*
X96772460Y-76948007D01*
X96799585Y-76928029D01*
X96819989Y-76912391D01*
X96828884Y-76904826D01*
X96838990Y-76897251D01*
X96861133Y-76882685D01*
X96890753Y-76864119D01*
X96894335Y-76861922D01*
X96932671Y-76841758D01*
X96971094Y-76827086D01*
X97005817Y-76818657D01*
X97033051Y-76817221D01*
X97049008Y-76823531D01*
G37*
G36*
X88943574Y-79037248D02*
G01*
X89014245Y-79037687D01*
X89358011Y-79040388D01*
X89360802Y-79136423D01*
X89361397Y-79185206D01*
X89359651Y-79217278D01*
X89355328Y-79235185D01*
X89351119Y-79240373D01*
X89337575Y-79242936D01*
X89307572Y-79245027D01*
X89263791Y-79246658D01*
X89208919Y-79247841D01*
X89145640Y-79248591D01*
X89076636Y-79248920D01*
X89004593Y-79248841D01*
X88932194Y-79248366D01*
X88862125Y-79247508D01*
X88797068Y-79246281D01*
X88739708Y-79244697D01*
X88692730Y-79242768D01*
X88658817Y-79240509D01*
X88640653Y-79237931D01*
X88638522Y-79236964D01*
X88632311Y-79220425D01*
X88628358Y-79186730D01*
X88626905Y-79137986D01*
X88626902Y-79135471D01*
X88627188Y-79093246D01*
X88628639Y-79066498D01*
X88632144Y-79051340D01*
X88638595Y-79043886D01*
X88648690Y-79040293D01*
X88663209Y-79039133D01*
X88694730Y-79038212D01*
X88740891Y-79037545D01*
X88799327Y-79037152D01*
X88867676Y-79037047D01*
X88943574Y-79037248D01*
G37*
G36*
X97326087Y-76564578D02*
G01*
X97338259Y-76584389D01*
X97340361Y-76608324D01*
X97331766Y-76639477D01*
X97311845Y-76680945D01*
X97297185Y-76706954D01*
X97270812Y-76752380D01*
X97242205Y-76801855D01*
X97216906Y-76845792D01*
X97213401Y-76851901D01*
X97179458Y-76910375D01*
X97152860Y-76954355D01*
X97131922Y-76986479D01*
X97114961Y-77009386D01*
X97106780Y-77018943D01*
X97082419Y-77035763D01*
X97055305Y-77040397D01*
X97032098Y-77032602D01*
X97022896Y-77022001D01*
X97014646Y-77000943D01*
X97012872Y-76990262D01*
X97017949Y-76972552D01*
X97032253Y-76941296D01*
X97054399Y-76899147D01*
X97082998Y-76848759D01*
X97113058Y-76798642D01*
X97137581Y-76758273D01*
X97161983Y-76717379D01*
X97181655Y-76683698D01*
X97184523Y-76678673D01*
X97206393Y-76640289D01*
X97221433Y-76614615D01*
X97232308Y-76597481D01*
X97241682Y-76584715D01*
X97252221Y-76572150D01*
X97253663Y-76570489D01*
X97279465Y-76550626D01*
X97305001Y-76549698D01*
X97326087Y-76564578D01*
G37*
G36*
X95096684Y-77714858D02*
G01*
X95100330Y-77718520D01*
X95097035Y-77730957D01*
X95079873Y-77754683D01*
X95049779Y-77788497D01*
X95029823Y-77809168D01*
X94971902Y-77872592D01*
X94922226Y-77936367D01*
X94882318Y-77997948D01*
X94853700Y-78054788D01*
X94837893Y-78104343D01*
X94835317Y-78134412D01*
X94834478Y-78171171D01*
X94828869Y-78202953D01*
X94819790Y-78224783D01*
X94809881Y-78231810D01*
X94796910Y-78224231D01*
X94780833Y-78205405D01*
X94776758Y-78199195D01*
X94763671Y-78174351D01*
X94756871Y-78154275D01*
X94756601Y-78151349D01*
X94751169Y-78134317D01*
X94746917Y-78130133D01*
X94737607Y-78113618D01*
X94737866Y-78083988D01*
X94747092Y-78044609D01*
X94764685Y-77998847D01*
X94773755Y-77979854D01*
X94801050Y-77930828D01*
X94834163Y-77879151D01*
X94869904Y-77829151D01*
X94905080Y-77785153D01*
X94936499Y-77751484D01*
X94952096Y-77738131D01*
X94978122Y-77724583D01*
X95011401Y-77714714D01*
X95046124Y-77709292D01*
X95076488Y-77709084D01*
X95096684Y-77714858D01*
G37*
G36*
X93091027Y-76710918D02*
G01*
X93090949Y-76849324D01*
X93090702Y-76969394D01*
X93090271Y-77072161D01*
X93089635Y-77158654D01*
X93088780Y-77229905D01*
X93087686Y-77286945D01*
X93086336Y-77330806D01*
X93084713Y-77362518D01*
X93082799Y-77383112D01*
X93080577Y-77393621D01*
X93079392Y-77395387D01*
X93065350Y-77398735D01*
X93036538Y-77402136D01*
X92997549Y-77405131D01*
X92964679Y-77406825D01*
X92861599Y-77411072D01*
X92855353Y-77359050D01*
X92854103Y-77338805D01*
X92852993Y-77301439D01*
X92852023Y-77249046D01*
X92851193Y-77183722D01*
X92850504Y-77107560D01*
X92849957Y-77022656D01*
X92849551Y-76931103D01*
X92849287Y-76834997D01*
X92849166Y-76736432D01*
X92849187Y-76637502D01*
X92849352Y-76540302D01*
X92849661Y-76446927D01*
X92850114Y-76359470D01*
X92850712Y-76280028D01*
X92851454Y-76210693D01*
X92852342Y-76153561D01*
X92853376Y-76110727D01*
X92854556Y-76084284D01*
X92855096Y-76078568D01*
X92861254Y-76033640D01*
X92976140Y-76033640D01*
X93091027Y-76033640D01*
X93091027Y-76710918D01*
G37*
G36*
X95233779Y-74508615D02*
G01*
X95253472Y-74524987D01*
X95273741Y-74554907D01*
X95296242Y-74600528D01*
X95307339Y-74626279D01*
X95321725Y-74659969D01*
X95341710Y-74705819D01*
X95364891Y-74758356D01*
X95388862Y-74812104D01*
X95394359Y-74824339D01*
X95417379Y-74876099D01*
X95433124Y-74913617D01*
X95442577Y-74940168D01*
X95446725Y-74959029D01*
X95446552Y-74973475D01*
X95443128Y-74986539D01*
X95433800Y-75007172D01*
X95425251Y-75016777D01*
X95424612Y-75016865D01*
X95408798Y-75019617D01*
X95403771Y-75021102D01*
X95385248Y-75021031D01*
X95368656Y-75016413D01*
X95350722Y-75001954D01*
X95334334Y-74977411D01*
X95331429Y-74971021D01*
X95322790Y-74950738D01*
X95307792Y-74916265D01*
X95287970Y-74871095D01*
X95264856Y-74818725D01*
X95239986Y-74762650D01*
X95239865Y-74762378D01*
X95207372Y-74687104D01*
X95184038Y-74627242D01*
X95169702Y-74581229D01*
X95164201Y-74547503D01*
X95167372Y-74524499D01*
X95179054Y-74510653D01*
X95199084Y-74504403D01*
X95213006Y-74503636D01*
X95233779Y-74508615D01*
G37*
G36*
X96995586Y-75513060D02*
G01*
X97026436Y-75521223D01*
X97058489Y-75536966D01*
X97094695Y-75562037D01*
X97138003Y-75598186D01*
X97188402Y-75644370D01*
X97241995Y-75699182D01*
X97279518Y-75748435D01*
X97302483Y-75794703D01*
X97312397Y-75840555D01*
X97313063Y-75856744D01*
X97309229Y-75891122D01*
X97299315Y-75925747D01*
X97285697Y-75954546D01*
X97270757Y-75971446D01*
X97267540Y-75972960D01*
X97258566Y-75966749D01*
X97246207Y-75947260D01*
X97237994Y-75929900D01*
X97224735Y-75895236D01*
X97214071Y-75861502D01*
X97211175Y-75849823D01*
X97198200Y-75820438D01*
X97172248Y-75784335D01*
X97136911Y-75744830D01*
X97095777Y-75705235D01*
X97052436Y-75668866D01*
X97010480Y-75639038D01*
X96973498Y-75619063D01*
X96954771Y-75613106D01*
X96922713Y-75604619D01*
X96889013Y-75592020D01*
X96858753Y-75577708D01*
X96837018Y-75564080D01*
X96828884Y-75553699D01*
X96837755Y-75541267D01*
X96861185Y-75529237D01*
X96894395Y-75519142D01*
X96932611Y-75512510D01*
X96962990Y-75510727D01*
X96995586Y-75513060D01*
G37*
G36*
X90133815Y-75756667D02*
G01*
X90205186Y-75756855D01*
X90275585Y-75757187D01*
X90342164Y-75757654D01*
X90402077Y-75758247D01*
X90452475Y-75758957D01*
X90490513Y-75759776D01*
X90513343Y-75760694D01*
X90517957Y-75761148D01*
X90520865Y-75770736D01*
X90522704Y-75795554D01*
X90523277Y-75831486D01*
X90522799Y-75861757D01*
X90520040Y-75961013D01*
X90471622Y-75967428D01*
X90450495Y-75968966D01*
X90413862Y-75970291D01*
X90364619Y-75971396D01*
X90305662Y-75972274D01*
X90239888Y-75972918D01*
X90170192Y-75973324D01*
X90099471Y-75973484D01*
X90030622Y-75973391D01*
X89966541Y-75973041D01*
X89910124Y-75972425D01*
X89864267Y-75971539D01*
X89831867Y-75970375D01*
X89815820Y-75968927D01*
X89815560Y-75968863D01*
X89807850Y-75964591D01*
X89802873Y-75954268D01*
X89800058Y-75934372D01*
X89798833Y-75901382D01*
X89798614Y-75864376D01*
X89798614Y-75764317D01*
X89844611Y-75759055D01*
X89862026Y-75758194D01*
X89895551Y-75757530D01*
X89942340Y-75757055D01*
X89999545Y-75756758D01*
X90064319Y-75756632D01*
X90133815Y-75756667D01*
G37*
G36*
X96533704Y-77341725D02*
G01*
X96534590Y-77342629D01*
X96533625Y-77356282D01*
X96524390Y-77380171D01*
X96509726Y-77408668D01*
X96492473Y-77436145D01*
X96478454Y-77453892D01*
X96456087Y-77471174D01*
X96422230Y-77485976D01*
X96374824Y-77498878D01*
X96311815Y-77510462D01*
X96246263Y-77519481D01*
X96191600Y-77526199D01*
X96153124Y-77530703D01*
X96127795Y-77533106D01*
X96112574Y-77533519D01*
X96104420Y-77532052D01*
X96100294Y-77528818D01*
X96097775Y-77524909D01*
X96083992Y-77516510D01*
X96074739Y-77515226D01*
X96055880Y-77508588D01*
X96032702Y-77492305D01*
X96011336Y-77471819D01*
X95997916Y-77452575D01*
X95996098Y-77445423D01*
X96004050Y-77433940D01*
X96028470Y-77425740D01*
X96070200Y-77420668D01*
X96130084Y-77418572D01*
X96144180Y-77418497D01*
X96198582Y-77416021D01*
X96256961Y-77409406D01*
X96313495Y-77399657D01*
X96362359Y-77387781D01*
X96397731Y-77374783D01*
X96397966Y-77374666D01*
X96427132Y-77362460D01*
X96460684Y-77351798D01*
X96493226Y-77343944D01*
X96519365Y-77340165D01*
X96533704Y-77341725D01*
G37*
G36*
X94908868Y-74108050D02*
G01*
X94949052Y-74109450D01*
X94973000Y-74111796D01*
X94979323Y-74114381D01*
X94972639Y-74127407D01*
X94963297Y-74136896D01*
X94951529Y-74147804D01*
X94941881Y-74160433D01*
X94934111Y-74176754D01*
X94927975Y-74198740D01*
X94923233Y-74228364D01*
X94919642Y-74267597D01*
X94916960Y-74318413D01*
X94914944Y-74382782D01*
X94913353Y-74462678D01*
X94912017Y-74554475D01*
X94911538Y-74590788D01*
X94807439Y-74589365D01*
X94757234Y-74588171D01*
X94707533Y-74586130D01*
X94665656Y-74583579D01*
X94647911Y-74582007D01*
X94619600Y-74578647D01*
X94597969Y-74573807D01*
X94582074Y-74565082D01*
X94570969Y-74550064D01*
X94563706Y-74526348D01*
X94559340Y-74491526D01*
X94556925Y-74443193D01*
X94555514Y-74378942D01*
X94554977Y-74345656D01*
X94553452Y-74272676D01*
X94552952Y-74216619D01*
X94555678Y-74175231D01*
X94563832Y-74146256D01*
X94579615Y-74127439D01*
X94605228Y-74116523D01*
X94642874Y-74111254D01*
X94694753Y-74109377D01*
X94763067Y-74108635D01*
X94786646Y-74108304D01*
X94854162Y-74107650D01*
X94908868Y-74108050D01*
G37*
G36*
X95273343Y-74909252D02*
G01*
X95287285Y-74930900D01*
X95302039Y-74960558D01*
X95315006Y-74993025D01*
X95323293Y-75021707D01*
X95333235Y-75041341D01*
X95354856Y-75069918D01*
X95384835Y-75104128D01*
X95419850Y-75140662D01*
X95456583Y-75176209D01*
X95491711Y-75207459D01*
X95521917Y-75231102D01*
X95543878Y-75243829D01*
X95547076Y-75244792D01*
X95580383Y-75253989D01*
X95616087Y-75266670D01*
X95649409Y-75280750D01*
X95675569Y-75294144D01*
X95689787Y-75304765D01*
X95691065Y-75307624D01*
X95682172Y-75323943D01*
X95658548Y-75337748D01*
X95624777Y-75347960D01*
X95585441Y-75353500D01*
X95545124Y-75353288D01*
X95516810Y-75348658D01*
X95491474Y-75336825D01*
X95456887Y-75313277D01*
X95416337Y-75281056D01*
X95373112Y-75243209D01*
X95330499Y-75202778D01*
X95291786Y-75162809D01*
X95260262Y-75126346D01*
X95239213Y-75096433D01*
X95234631Y-75087382D01*
X95225308Y-75053478D01*
X95222232Y-75014604D01*
X95224711Y-74975359D01*
X95232048Y-74940340D01*
X95243550Y-74914145D01*
X95258521Y-74901370D01*
X95262816Y-74900813D01*
X95273343Y-74909252D01*
G37*
G36*
X96028428Y-73209442D02*
G01*
X96042771Y-73218568D01*
X96047856Y-73223747D01*
X96058953Y-73238034D01*
X96064402Y-73252098D01*
X96062953Y-73267505D01*
X96053355Y-73285824D01*
X96034360Y-73308621D01*
X96004717Y-73337465D01*
X95963176Y-73373922D01*
X95908487Y-73419561D01*
X95860283Y-73458975D01*
X95816168Y-73494919D01*
X95773073Y-73530108D01*
X95735290Y-73561030D01*
X95707112Y-73584176D01*
X95701826Y-73588539D01*
X95656717Y-73625314D01*
X95623277Y-73651058D01*
X95598684Y-73667587D01*
X95580112Y-73676719D01*
X95564740Y-73680269D01*
X95558835Y-73680533D01*
X95530251Y-73671837D01*
X95516181Y-73656798D01*
X95506233Y-73631416D01*
X95506819Y-73613563D01*
X95518053Y-73596621D01*
X95542830Y-73570540D01*
X95578884Y-73537373D01*
X95623951Y-73499173D01*
X95675769Y-73457995D01*
X95691989Y-73445597D01*
X95720968Y-73423159D01*
X95760413Y-73391946D01*
X95805861Y-73355521D01*
X95852850Y-73317448D01*
X95869973Y-73303460D01*
X95920934Y-73262584D01*
X95959948Y-73233781D01*
X95989327Y-73216013D01*
X96011384Y-73208245D01*
X96028428Y-73209442D01*
G37*
G36*
X97360484Y-76153232D02*
G01*
X97390281Y-76164666D01*
X97421861Y-76184218D01*
X97449617Y-76208768D01*
X97459274Y-76220486D01*
X97479256Y-76254112D01*
X97493289Y-76293267D01*
X97501920Y-76341191D01*
X97505694Y-76401127D01*
X97505158Y-76476313D01*
X97504704Y-76490111D01*
X97501344Y-76554024D01*
X97495699Y-76602777D01*
X97486592Y-76640544D01*
X97472850Y-76671500D01*
X97453298Y-76699819D01*
X97441928Y-76713225D01*
X97420069Y-76731245D01*
X97391112Y-76746777D01*
X97360190Y-76758167D01*
X97332439Y-76763764D01*
X97312993Y-76761914D01*
X97307439Y-76756521D01*
X97310088Y-76742892D01*
X97321500Y-76717541D01*
X97339589Y-76684789D01*
X97351228Y-76665815D01*
X97400215Y-76588656D01*
X97400215Y-76455705D01*
X97399981Y-76401631D01*
X97398908Y-76362869D01*
X97396437Y-76335363D01*
X97392012Y-76315061D01*
X97385074Y-76297908D01*
X97376319Y-76281978D01*
X97357878Y-76246778D01*
X97341381Y-76209329D01*
X97337868Y-76199951D01*
X97329591Y-76174136D01*
X97328669Y-76160747D01*
X97335127Y-76154283D01*
X97338076Y-76153036D01*
X97360484Y-76153232D01*
G37*
G36*
X95576223Y-73453599D02*
G01*
X95594784Y-73461861D01*
X95607343Y-73473544D01*
X95608740Y-73479199D01*
X95566480Y-73509690D01*
X95532593Y-73531271D01*
X95500878Y-73547787D01*
X95490762Y-73552372D01*
X95462064Y-73568869D01*
X95427327Y-73594663D01*
X95389399Y-73626908D01*
X95351129Y-73662757D01*
X95315367Y-73699362D01*
X95284961Y-73733878D01*
X95262761Y-73763456D01*
X95251617Y-73785250D01*
X95251001Y-73791954D01*
X95249761Y-73807406D01*
X95244493Y-73833586D01*
X95236978Y-73862743D01*
X95229315Y-73886309D01*
X95215895Y-73907997D01*
X95200017Y-73910505D01*
X95182142Y-73893794D01*
X95179654Y-73890145D01*
X95161074Y-73844479D01*
X95157171Y-73787318D01*
X95163075Y-73742045D01*
X95168140Y-73719202D01*
X95174636Y-73700373D01*
X95184943Y-73682271D01*
X95201438Y-73661607D01*
X95226501Y-73635093D01*
X95262511Y-73599441D01*
X95275235Y-73587027D01*
X95314978Y-73549725D01*
X95353758Y-73515842D01*
X95387739Y-73488564D01*
X95413085Y-73471079D01*
X95418047Y-73468403D01*
X95454831Y-73455908D01*
X95497784Y-73449116D01*
X95540412Y-73448266D01*
X95576223Y-73453599D01*
G37*
G36*
X97207713Y-76941054D02*
G01*
X97210608Y-76943250D01*
X97224405Y-76965618D01*
X97231432Y-77000763D01*
X97231246Y-77043159D01*
X97223402Y-77087277D01*
X97222454Y-77090634D01*
X97207240Y-77127809D01*
X97182488Y-77163806D01*
X97145798Y-77201316D01*
X97094774Y-77243025D01*
X97070518Y-77260977D01*
X97000802Y-77307596D01*
X96940285Y-77339145D01*
X96886817Y-77356246D01*
X96838248Y-77359522D01*
X96792428Y-77349598D01*
X96780755Y-77344955D01*
X96750429Y-77329022D01*
X96726358Y-77311391D01*
X96713570Y-77295963D01*
X96712682Y-77292132D01*
X96713368Y-77288814D01*
X96717514Y-77285768D01*
X96728246Y-77282094D01*
X96748694Y-77276897D01*
X96781985Y-77269277D01*
X96827815Y-77259098D01*
X96875945Y-77245628D01*
X96920027Y-77226132D01*
X96968466Y-77196831D01*
X96973069Y-77193757D01*
X97021204Y-77161140D01*
X97056242Y-77136141D01*
X97081280Y-77115750D01*
X97099412Y-77096961D01*
X97113734Y-77076765D01*
X97127342Y-77052153D01*
X97135521Y-77035889D01*
X97158578Y-76990523D01*
X97175514Y-76960591D01*
X97188141Y-76943858D01*
X97198270Y-76938091D01*
X97207713Y-76941054D01*
G37*
G36*
X95661621Y-77232128D02*
G01*
X95690339Y-77239596D01*
X95718936Y-77255366D01*
X95722537Y-77257757D01*
X95746549Y-77277105D01*
X95761306Y-77295294D01*
X95763692Y-77302809D01*
X95760981Y-77311773D01*
X95750403Y-77317968D01*
X95728295Y-77322520D01*
X95690991Y-77326557D01*
X95684637Y-77327120D01*
X95650705Y-77330761D01*
X95621725Y-77336136D01*
X95592936Y-77344863D01*
X95559577Y-77358558D01*
X95516887Y-77378841D01*
X95483703Y-77395405D01*
X95432498Y-77421759D01*
X95394845Y-77442951D01*
X95366665Y-77461834D01*
X95343880Y-77481267D01*
X95322414Y-77504104D01*
X95313406Y-77514685D01*
X95288950Y-77542224D01*
X95268000Y-77562766D01*
X95254413Y-77572597D01*
X95252884Y-77572952D01*
X95244508Y-77563915D01*
X95240926Y-77536126D01*
X95240779Y-77526354D01*
X95243693Y-77479703D01*
X95253804Y-77440432D01*
X95273169Y-77406152D01*
X95303843Y-77374472D01*
X95347884Y-77343000D01*
X95407346Y-77309346D01*
X95443019Y-77291194D01*
X95493621Y-77266497D01*
X95531291Y-77249499D01*
X95560193Y-77238795D01*
X95584489Y-77232980D01*
X95608341Y-77230648D01*
X95623280Y-77230339D01*
X95661621Y-77232128D01*
G37*
G36*
X95151618Y-74120740D02*
G01*
X95152901Y-74133402D01*
X95148611Y-74158564D01*
X95140248Y-74190697D01*
X95129312Y-74224270D01*
X95117300Y-74253755D01*
X95113485Y-74261404D01*
X95103869Y-74290141D01*
X95097744Y-74330583D01*
X95094926Y-74378461D01*
X95095235Y-74429507D01*
X95098486Y-74479454D01*
X95104499Y-74524035D01*
X95113090Y-74558983D01*
X95124078Y-74580028D01*
X95127207Y-74582636D01*
X95136067Y-74594855D01*
X95147821Y-74618868D01*
X95159721Y-74647944D01*
X95169022Y-74675348D01*
X95172978Y-74694347D01*
X95172986Y-74694887D01*
X95165394Y-74704935D01*
X95145784Y-74706134D01*
X95118937Y-74699277D01*
X95089632Y-74685156D01*
X95081130Y-74679660D01*
X95051896Y-74657974D01*
X95030462Y-74636962D01*
X95015591Y-74613115D01*
X95006046Y-74582923D01*
X95000589Y-74542880D01*
X94997982Y-74489475D01*
X94997184Y-74441682D01*
X94996618Y-74377190D01*
X94996586Y-74328990D01*
X94997310Y-74294007D01*
X94999012Y-74269168D01*
X95001913Y-74251400D01*
X95006235Y-74237629D01*
X95012201Y-74224781D01*
X95012950Y-74223325D01*
X95031381Y-74196262D01*
X95057006Y-74169278D01*
X95085845Y-74145316D01*
X95113921Y-74127320D01*
X95137254Y-74118233D01*
X95151618Y-74120740D01*
G37*
G36*
X92397478Y-74511792D02*
G01*
X92411416Y-74537375D01*
X92432320Y-74577293D01*
X92459414Y-74630018D01*
X92491921Y-74694021D01*
X92529066Y-74767774D01*
X92570070Y-74849748D01*
X92614159Y-74938414D01*
X92660271Y-75031668D01*
X92720013Y-75152812D01*
X92771759Y-75257751D01*
X92816075Y-75347654D01*
X92853527Y-75423686D01*
X92884679Y-75487017D01*
X92910098Y-75538812D01*
X92930348Y-75580241D01*
X92945996Y-75612470D01*
X92957606Y-75636667D01*
X92965745Y-75653999D01*
X92970977Y-75665634D01*
X92973867Y-75672740D01*
X92974983Y-75676484D01*
X92974888Y-75678033D01*
X92974148Y-75678555D01*
X92973690Y-75678813D01*
X92963376Y-75684187D01*
X92941782Y-75694400D01*
X92931248Y-75699228D01*
X92898609Y-75714282D01*
X92860686Y-75732074D01*
X92844705Y-75739666D01*
X92817300Y-75752306D01*
X92797574Y-75760573D01*
X92791445Y-75762443D01*
X92786301Y-75754004D01*
X92773231Y-75729644D01*
X92752955Y-75690774D01*
X92726191Y-75638805D01*
X92693660Y-75575146D01*
X92656080Y-75501208D01*
X92614172Y-75418401D01*
X92568654Y-75328136D01*
X92520246Y-75231822D01*
X92492186Y-75175855D01*
X92442619Y-75076779D01*
X92395775Y-74982905D01*
X92352351Y-74895644D01*
X92313046Y-74816412D01*
X92278557Y-74746621D01*
X92249581Y-74687685D01*
X92226817Y-74641018D01*
X92210962Y-74608033D01*
X92202714Y-74590144D01*
X92201679Y-74587246D01*
X92229001Y-74571576D01*
X92263520Y-74553890D01*
X92300870Y-74536147D01*
X92336689Y-74520309D01*
X92366612Y-74508335D01*
X92386274Y-74502185D01*
X92391283Y-74502074D01*
X92397478Y-74511792D01*
G37*
G36*
X92858131Y-77694301D02*
G01*
X92883468Y-77706784D01*
X92914869Y-77724334D01*
X92947928Y-77744270D01*
X92978238Y-77763908D01*
X93001392Y-77780569D01*
X93012983Y-77791570D01*
X93013558Y-77793184D01*
X93009248Y-77804816D01*
X92996945Y-77831753D01*
X92977591Y-77872117D01*
X92952127Y-77924030D01*
X92921494Y-77985614D01*
X92886634Y-78054990D01*
X92848489Y-78130280D01*
X92808000Y-78209607D01*
X92766107Y-78291091D01*
X92723754Y-78372856D01*
X92703899Y-78410956D01*
X92667658Y-78480490D01*
X92628184Y-78556450D01*
X92587265Y-78635379D01*
X92546686Y-78713821D01*
X92508234Y-78788320D01*
X92473696Y-78855419D01*
X92444857Y-78911663D01*
X92426594Y-78947496D01*
X92400980Y-78994729D01*
X92381313Y-79023702D01*
X92367496Y-79034552D01*
X92366078Y-79034636D01*
X92350963Y-79029669D01*
X92323893Y-79017144D01*
X92289604Y-78999328D01*
X92272765Y-78990010D01*
X92238456Y-78970527D01*
X92211158Y-78954795D01*
X92194819Y-78945102D01*
X92191991Y-78943231D01*
X92193906Y-78937109D01*
X92201648Y-78919985D01*
X92215533Y-78891239D01*
X92235877Y-78850249D01*
X92262994Y-78796395D01*
X92297201Y-78729054D01*
X92338811Y-78647608D01*
X92388142Y-78551433D01*
X92445507Y-78439910D01*
X92511224Y-78312417D01*
X92580328Y-78178550D01*
X92634389Y-78073937D01*
X92680292Y-77985253D01*
X92718734Y-77911203D01*
X92750410Y-77850493D01*
X92776017Y-77801827D01*
X92796251Y-77763910D01*
X92811810Y-77735447D01*
X92823388Y-77715144D01*
X92831684Y-77701704D01*
X92837392Y-77693834D01*
X92841210Y-77690237D01*
X92843265Y-77689565D01*
X92858131Y-77694301D01*
G37*
G36*
X91510928Y-76011568D02*
G01*
X91532644Y-76030459D01*
X91560889Y-76058194D01*
X91592790Y-76091704D01*
X91625474Y-76127920D01*
X91656069Y-76163775D01*
X91681700Y-76196200D01*
X91693539Y-76212786D01*
X91740318Y-76288165D01*
X91776965Y-76361641D01*
X91805276Y-76438241D01*
X91827048Y-76522989D01*
X91844075Y-76620911D01*
X91847035Y-76642264D01*
X91853474Y-76694571D01*
X91856573Y-76734961D01*
X91856352Y-76770591D01*
X91852833Y-76808617D01*
X91847650Y-76845619D01*
X91831614Y-76937844D01*
X91812659Y-77016043D01*
X91788798Y-77085536D01*
X91758044Y-77151644D01*
X91718410Y-77219684D01*
X91693907Y-77257184D01*
X91670503Y-77288969D01*
X91640715Y-77325081D01*
X91607433Y-77362514D01*
X91573545Y-77398266D01*
X91541940Y-77429332D01*
X91515507Y-77452708D01*
X91497134Y-77465390D01*
X91492339Y-77466808D01*
X91479556Y-77459961D01*
X91457864Y-77441572D01*
X91430878Y-77414873D01*
X91414907Y-77397615D01*
X91387737Y-77366813D01*
X91365807Y-77340976D01*
X91352169Y-77323751D01*
X91349292Y-77319226D01*
X91353547Y-77307808D01*
X91368213Y-77287809D01*
X91384275Y-77269796D01*
X91448867Y-77192618D01*
X91505290Y-77106046D01*
X91550527Y-77015467D01*
X91581560Y-76926268D01*
X91585364Y-76910948D01*
X91594541Y-76854246D01*
X91599567Y-76785803D01*
X91600441Y-76712580D01*
X91597159Y-76641537D01*
X91589716Y-76579634D01*
X91585526Y-76558785D01*
X91561814Y-76482398D01*
X91526884Y-76402894D01*
X91483884Y-76325929D01*
X91435962Y-76257159D01*
X91387842Y-76203712D01*
X91369083Y-76183107D01*
X91358521Y-76165833D01*
X91357668Y-76161870D01*
X91363901Y-76149178D01*
X91380307Y-76126910D01*
X91403451Y-76098899D01*
X91429897Y-76068981D01*
X91456208Y-76040990D01*
X91478949Y-76018759D01*
X91494684Y-76006124D01*
X91498613Y-76004589D01*
X91510928Y-76011568D01*
G37*
G36*
X94775976Y-78411932D02*
G01*
X94778211Y-78425199D01*
X94775545Y-78450542D01*
X94769366Y-78481717D01*
X94761063Y-78512484D01*
X94752025Y-78536599D01*
X94746140Y-78546042D01*
X94742986Y-78558547D01*
X94740323Y-78586733D01*
X94738368Y-78626917D01*
X94737338Y-78675416D01*
X94737234Y-78697237D01*
X94737357Y-78752503D01*
X94738064Y-78791840D01*
X94739856Y-78818688D01*
X94743238Y-78836485D01*
X94748713Y-78848671D01*
X94756784Y-78858684D01*
X94761580Y-78863580D01*
X94798708Y-78888140D01*
X94841016Y-78894813D01*
X94876982Y-78886352D01*
X94898830Y-78875979D01*
X94915031Y-78863792D01*
X94926422Y-78846912D01*
X94933844Y-78822460D01*
X94938136Y-78787558D01*
X94940138Y-78739326D01*
X94940688Y-78674886D01*
X94940695Y-78667837D01*
X94941407Y-78585305D01*
X94943455Y-78521454D01*
X94946891Y-78475640D01*
X94951769Y-78447220D01*
X94958141Y-78435549D01*
X94959741Y-78435165D01*
X94975969Y-78443147D01*
X94996455Y-78464052D01*
X95017131Y-78493318D01*
X95026352Y-78509827D01*
X95034555Y-78527868D01*
X95040285Y-78546907D01*
X95043973Y-78570785D01*
X95046050Y-78603344D01*
X95046949Y-78648427D01*
X95047108Y-78694748D01*
X95046636Y-78755693D01*
X95045016Y-78800681D01*
X95041945Y-78833102D01*
X95037117Y-78856347D01*
X95031196Y-78871859D01*
X94995946Y-78925191D01*
X94949428Y-78966098D01*
X94895082Y-78992857D01*
X94836346Y-79003749D01*
X94779499Y-78997802D01*
X94732216Y-78976811D01*
X94686915Y-78940074D01*
X94658904Y-78906934D01*
X94630714Y-78868020D01*
X94630874Y-78702431D01*
X94631102Y-78641288D01*
X94631896Y-78596115D01*
X94633619Y-78563516D01*
X94636637Y-78540094D01*
X94641315Y-78522454D01*
X94648016Y-78507199D01*
X94652778Y-78498451D01*
X94670647Y-78474669D01*
X94695600Y-78450792D01*
X94723227Y-78429916D01*
X94749120Y-78415137D01*
X94768872Y-78409550D01*
X94775976Y-78411932D01*
G37*
G36*
X92427070Y-72603115D02*
G01*
X92450639Y-72622485D01*
X92481386Y-72651592D01*
X92516812Y-72687771D01*
X92554419Y-72728362D01*
X92591709Y-72770701D01*
X92626183Y-72812125D01*
X92655343Y-72849971D01*
X92667415Y-72867113D01*
X92707193Y-72933067D01*
X92744669Y-73008037D01*
X92776899Y-73085282D01*
X92800937Y-73158063D01*
X92809140Y-73191513D01*
X92817415Y-73229819D01*
X92825755Y-73266250D01*
X92830253Y-73284630D01*
X92835026Y-73315441D01*
X92837400Y-73358151D01*
X92837616Y-73408803D01*
X92835911Y-73463439D01*
X92832524Y-73518101D01*
X92827696Y-73568833D01*
X92821664Y-73611676D01*
X92814667Y-73642672D01*
X92807755Y-73657159D01*
X92801542Y-73672142D01*
X92800520Y-73682329D01*
X92797096Y-73701583D01*
X92788012Y-73733473D01*
X92775049Y-73772754D01*
X92759989Y-73814184D01*
X92744614Y-73852518D01*
X92736520Y-73870701D01*
X92718320Y-73905042D01*
X92692828Y-73946976D01*
X92662049Y-73993808D01*
X92627983Y-74042843D01*
X92592635Y-74091384D01*
X92558005Y-74136736D01*
X92526098Y-74176203D01*
X92498915Y-74207091D01*
X92478458Y-74226703D01*
X92467741Y-74232496D01*
X92455700Y-74226365D01*
X92433180Y-74209858D01*
X92403872Y-74185799D01*
X92383486Y-74167952D01*
X92352719Y-74139905D01*
X92327853Y-74116373D01*
X92312156Y-74100495D01*
X92308430Y-74095801D01*
X92313397Y-74086079D01*
X92329216Y-74065610D01*
X92353289Y-74037583D01*
X92377344Y-74011223D01*
X92451734Y-73922535D01*
X92509084Y-73834113D01*
X92534674Y-73782210D01*
X92558373Y-73725634D01*
X92575785Y-73678129D01*
X92587860Y-73634684D01*
X92595554Y-73590288D01*
X92599818Y-73539932D01*
X92601605Y-73478604D01*
X92601891Y-73428760D01*
X92601195Y-73355893D01*
X92598379Y-73297528D01*
X92592531Y-73248839D01*
X92582740Y-73205000D01*
X92568093Y-73161182D01*
X92547678Y-73112561D01*
X92538218Y-73091821D01*
X92524165Y-73060789D01*
X92514061Y-73037215D01*
X92510019Y-73026038D01*
X92510013Y-73025926D01*
X92503861Y-73010845D01*
X92487184Y-72984981D01*
X92462648Y-72951732D01*
X92432920Y-72914495D01*
X92400667Y-72876666D01*
X92368555Y-72841643D01*
X92352834Y-72825703D01*
X92322305Y-72794726D01*
X92298135Y-72768295D01*
X92283018Y-72749485D01*
X92279306Y-72741765D01*
X92288648Y-72726571D01*
X92307212Y-72703021D01*
X92331423Y-72675007D01*
X92357701Y-72646421D01*
X92382470Y-72621154D01*
X92402151Y-72603098D01*
X92413167Y-72596145D01*
X92413177Y-72596145D01*
X92427070Y-72603115D01*
G37*
G36*
X93730857Y-75929378D02*
G01*
X93743017Y-75935628D01*
X93758959Y-75947029D01*
X93779477Y-75964337D01*
X93805364Y-75988310D01*
X93837416Y-76019704D01*
X93876427Y-76059275D01*
X93923190Y-76107781D01*
X93978501Y-76165978D01*
X94043153Y-76234624D01*
X94117941Y-76314473D01*
X94203660Y-76406284D01*
X94301103Y-76510813D01*
X94398309Y-76615130D01*
X94479275Y-76702139D01*
X94550159Y-76778575D01*
X94610420Y-76843850D01*
X94659517Y-76897374D01*
X94696911Y-76938558D01*
X94722061Y-76966812D01*
X94734125Y-76981149D01*
X94745834Y-77008529D01*
X94738375Y-77033933D01*
X94729458Y-77043846D01*
X94720188Y-77049659D01*
X94705180Y-77054031D01*
X94681690Y-77057223D01*
X94646975Y-77059497D01*
X94598293Y-77061112D01*
X94535244Y-77062293D01*
X94358489Y-77064940D01*
X94419243Y-77152092D01*
X94457900Y-77202812D01*
X94507670Y-77261000D01*
X94565140Y-77323249D01*
X94626896Y-77386153D01*
X94689524Y-77446306D01*
X94749610Y-77500300D01*
X94803741Y-77544729D01*
X94836490Y-77568468D01*
X94871396Y-77592648D01*
X94899316Y-77613498D01*
X94916877Y-77628406D01*
X94921221Y-77634117D01*
X94914512Y-77644646D01*
X94896942Y-77663638D01*
X94872854Y-77686482D01*
X94840754Y-77719999D01*
X94803688Y-77766103D01*
X94765082Y-77819926D01*
X94728362Y-77876601D01*
X94696955Y-77931260D01*
X94687384Y-77949965D01*
X94670405Y-77994019D01*
X94658071Y-78043740D01*
X94655131Y-78063747D01*
X94649334Y-78101575D01*
X94641780Y-78121406D01*
X94635264Y-78125291D01*
X94624342Y-78118757D01*
X94602342Y-78100643D01*
X94571761Y-78073178D01*
X94535096Y-78038595D01*
X94502424Y-78006667D01*
X94391449Y-77891041D01*
X94294704Y-77777544D01*
X94208587Y-77661200D01*
X94129498Y-77537031D01*
X94053837Y-77400058D01*
X94030516Y-77354221D01*
X93966975Y-77227108D01*
X93902018Y-77300961D01*
X93852615Y-77356948D01*
X93814121Y-77399691D01*
X93784711Y-77430540D01*
X93762564Y-77450847D01*
X93745858Y-77461963D01*
X93732770Y-77465239D01*
X93721476Y-77462026D01*
X93710156Y-77453674D01*
X93703811Y-77447896D01*
X93690808Y-77428329D01*
X93675442Y-77393363D01*
X93658871Y-77346643D01*
X93642256Y-77291814D01*
X93626756Y-77232523D01*
X93613532Y-77172412D01*
X93609698Y-77152092D01*
X93601400Y-77106082D01*
X93593185Y-77060822D01*
X93586509Y-77024313D01*
X93585071Y-77016522D01*
X93578939Y-76970952D01*
X93574209Y-76910821D01*
X93570994Y-76840894D01*
X93569408Y-76765934D01*
X93569563Y-76690706D01*
X93571573Y-76619972D01*
X93574493Y-76571078D01*
X93588489Y-76431393D01*
X93607986Y-76297112D01*
X93632130Y-76173666D01*
X93646135Y-76115950D01*
X93660948Y-76059831D01*
X93672070Y-76019236D01*
X93680531Y-75990908D01*
X93687362Y-75971589D01*
X93693593Y-75958020D01*
X93698973Y-75948909D01*
X93704142Y-75940754D01*
X93709120Y-75933968D01*
X93714702Y-75929305D01*
X93721683Y-75927523D01*
X93730857Y-75929378D01*
G37*
G36*
X98840985Y-75927121D02*
G01*
X98853331Y-75929413D01*
X98864735Y-75937371D01*
X98875732Y-75952617D01*
X98886854Y-75976774D01*
X98898638Y-76011462D01*
X98911617Y-76058305D01*
X98926325Y-76118925D01*
X98943298Y-76194943D01*
X98963069Y-76287982D01*
X98968589Y-76314463D01*
X98975074Y-76353291D01*
X98981695Y-76406412D01*
X98987901Y-76468766D01*
X98993140Y-76535291D01*
X98993909Y-76546869D01*
X98994925Y-76573313D01*
X98995664Y-76613918D01*
X98996128Y-76664366D01*
X98996322Y-76720343D01*
X98996248Y-76777532D01*
X98995910Y-76831617D01*
X98995311Y-76878283D01*
X98994454Y-76913214D01*
X98993622Y-76929370D01*
X98987177Y-77002582D01*
X98981513Y-77059086D01*
X98976328Y-77101513D01*
X98971322Y-77132492D01*
X98969271Y-77142409D01*
X98962762Y-77171591D01*
X98953945Y-77211220D01*
X98944702Y-77252836D01*
X98944495Y-77253770D01*
X98925055Y-77332362D01*
X98905640Y-77392276D01*
X98885930Y-77434198D01*
X98865602Y-77458813D01*
X98844454Y-77466808D01*
X98828776Y-77459799D01*
X98803008Y-77438540D01*
X98766794Y-77402683D01*
X98719781Y-77351879D01*
X98668524Y-77293758D01*
X98639013Y-77261423D01*
X98617213Y-77241040D01*
X98604741Y-77234032D01*
X98602592Y-77235656D01*
X98596956Y-77249277D01*
X98584668Y-77276268D01*
X98567591Y-77312606D01*
X98549362Y-77350605D01*
X98474094Y-77495350D01*
X98393528Y-77628183D01*
X98304563Y-77753393D01*
X98204101Y-77875269D01*
X98089044Y-77998100D01*
X98062152Y-78024998D01*
X97918986Y-78154784D01*
X97764437Y-78271648D01*
X97597068Y-78376502D01*
X97415440Y-78470260D01*
X97246525Y-78542797D01*
X97199785Y-78561276D01*
X97158244Y-78577822D01*
X97125907Y-78590830D01*
X97106780Y-78598697D01*
X97104866Y-78599524D01*
X97086466Y-78607119D01*
X97056239Y-78619075D01*
X97020474Y-78632905D01*
X97017714Y-78633959D01*
X96962271Y-78656049D01*
X96900603Y-78682142D01*
X96836686Y-78710408D01*
X96774493Y-78739013D01*
X96718000Y-78766128D01*
X96671182Y-78789920D01*
X96638012Y-78808558D01*
X96635746Y-78809974D01*
X96561435Y-78859920D01*
X96493057Y-78912626D01*
X96423715Y-78973569D01*
X96391950Y-79003608D01*
X96348185Y-79043967D01*
X96315513Y-79069971D01*
X96292921Y-79082385D01*
X96285431Y-79083740D01*
X96269550Y-79078133D01*
X96245691Y-79060785D01*
X96212472Y-79030548D01*
X96170402Y-78988236D01*
X96079538Y-78904875D01*
X95974251Y-78828413D01*
X95853395Y-78758178D01*
X95715824Y-78693497D01*
X95576927Y-78639530D01*
X95524536Y-78620220D01*
X95462695Y-78596422D01*
X95397021Y-78570391D01*
X95333131Y-78544380D01*
X95276644Y-78520644D01*
X95235937Y-78502705D01*
X95205707Y-78487810D01*
X95169698Y-78468494D01*
X95131759Y-78447033D01*
X95095740Y-78425704D01*
X95065491Y-78406784D01*
X95044859Y-78392547D01*
X95037675Y-78385464D01*
X95045086Y-78377662D01*
X95064950Y-78362505D01*
X95093331Y-78342953D01*
X95100387Y-78338316D01*
X95133897Y-78314337D01*
X95164152Y-78287222D01*
X95194106Y-78253602D01*
X95226714Y-78210109D01*
X95264929Y-78153375D01*
X95271603Y-78143089D01*
X95302876Y-78093467D01*
X95324656Y-78054504D01*
X95338722Y-78021111D01*
X95346853Y-77988198D01*
X95350829Y-77950676D01*
X95352247Y-77912437D01*
X95354275Y-77820628D01*
X95503303Y-77820428D01*
X95560628Y-77820191D01*
X95602576Y-77819303D01*
X95633134Y-77817228D01*
X95656292Y-77813433D01*
X95676039Y-77807384D01*
X95696362Y-77798548D01*
X95707690Y-77793063D01*
X95778046Y-77748241D01*
X95836405Y-77688532D01*
X95883267Y-77613413D01*
X95886186Y-77607448D01*
X95903024Y-77574129D01*
X95917340Y-77548816D01*
X95926762Y-77535602D01*
X95928439Y-77534593D01*
X95940026Y-77541136D01*
X95946799Y-77548057D01*
X95971887Y-77566842D01*
X96012240Y-77583566D01*
X96063775Y-77596962D01*
X96122404Y-77605760D01*
X96136509Y-77607003D01*
X96189502Y-77608410D01*
X96250617Y-77605863D01*
X96314358Y-77599999D01*
X96375227Y-77591453D01*
X96427728Y-77580859D01*
X96466298Y-77568881D01*
X96503796Y-77546806D01*
X96543035Y-77513567D01*
X96577560Y-77475426D01*
X96600918Y-77438645D01*
X96601226Y-77437967D01*
X96613408Y-77414383D01*
X96623548Y-77400544D01*
X96626314Y-77399023D01*
X96632122Y-77407678D01*
X96639495Y-77430121D01*
X96645358Y-77454704D01*
X96669921Y-77546344D01*
X96702833Y-77622307D01*
X96745127Y-77684846D01*
X96757034Y-77698374D01*
X96816343Y-77751642D01*
X96882424Y-77789608D01*
X96957369Y-77812976D01*
X97043268Y-77822451D01*
X97119391Y-77820639D01*
X97172358Y-77815081D01*
X97230545Y-77806079D01*
X97288172Y-77794795D01*
X97339459Y-77782388D01*
X97378626Y-77770022D01*
X97385690Y-77767141D01*
X97501162Y-77713909D01*
X97603796Y-77660816D01*
X97691586Y-77608975D01*
X97762532Y-77559494D01*
X97768191Y-77555061D01*
X97802483Y-77527336D01*
X97841520Y-77494900D01*
X97881366Y-77461119D01*
X97918089Y-77429361D01*
X97947756Y-77402995D01*
X97966433Y-77385386D01*
X97966746Y-77385066D01*
X98018321Y-77328868D01*
X98073092Y-77263767D01*
X98124789Y-77197450D01*
X98160697Y-77147250D01*
X98216479Y-77064940D01*
X98037367Y-77060098D01*
X97960472Y-77057481D01*
X97901943Y-77053534D01*
X97860778Y-77047108D01*
X97835976Y-77037054D01*
X97826537Y-77022222D01*
X97831459Y-77001462D01*
X97849741Y-76973626D01*
X97880382Y-76937564D01*
X97906181Y-76909459D01*
X97932795Y-76880907D01*
X97970295Y-76840734D01*
X98016330Y-76791454D01*
X98068550Y-76735584D01*
X98124604Y-76675638D01*
X98182141Y-76614132D01*
X98208793Y-76585651D01*
X98271988Y-76518043D01*
X98339897Y-76445244D01*
X98409037Y-76370999D01*
X98475923Y-76299052D01*
X98537073Y-76233147D01*
X98589004Y-76177029D01*
X98596136Y-76169304D01*
X98656151Y-76104292D01*
X98704446Y-76052097D01*
X98742443Y-76011312D01*
X98771564Y-75980531D01*
X98793234Y-75958347D01*
X98808873Y-75943351D01*
X98819904Y-75934138D01*
X98827751Y-75929300D01*
X98833835Y-75927429D01*
X98839580Y-75927119D01*
X98840985Y-75927121D01*
G37*
G36*
X96346732Y-72245056D02*
G01*
X96368915Y-72248347D01*
X96481255Y-72271204D01*
X96579055Y-72302512D01*
X96665940Y-72344013D01*
X96745539Y-72397450D01*
X96821477Y-72464564D01*
X96823766Y-72466836D01*
X96902440Y-72558376D01*
X96965109Y-72659254D01*
X97011381Y-72767394D01*
X97040859Y-72880723D01*
X97053150Y-72997166D01*
X97047859Y-73114650D01*
X97024590Y-73231101D01*
X96988435Y-73332210D01*
X96935909Y-73429801D01*
X96868044Y-73520271D01*
X96787840Y-73600580D01*
X96698298Y-73667693D01*
X96610059Y-73715254D01*
X96557307Y-73738583D01*
X96559947Y-73915334D01*
X96562586Y-74092084D01*
X97206544Y-74098090D01*
X97350491Y-74099517D01*
X97476284Y-74100968D01*
X97585138Y-74102496D01*
X97678266Y-74104150D01*
X97756881Y-74105983D01*
X97822198Y-74108044D01*
X97875430Y-74110386D01*
X97917790Y-74113058D01*
X97950493Y-74116111D01*
X97974752Y-74119598D01*
X97991781Y-74123568D01*
X98002793Y-74128073D01*
X98007726Y-74131723D01*
X98011752Y-74145177D01*
X98015041Y-74174326D01*
X98017566Y-74215514D01*
X98019300Y-74265081D01*
X98020217Y-74319370D01*
X98020288Y-74374723D01*
X98019488Y-74427481D01*
X98017790Y-74473987D01*
X98015167Y-74510582D01*
X98011591Y-74533609D01*
X98010696Y-74536434D01*
X98002533Y-74552605D01*
X97990231Y-74565190D01*
X97971369Y-74574752D01*
X97943524Y-74581850D01*
X97904275Y-74587045D01*
X97851202Y-74590896D01*
X97781882Y-74593963D01*
X97758507Y-74594783D01*
X97687930Y-74597236D01*
X97604826Y-74600244D01*
X97516018Y-74603553D01*
X97428328Y-74606908D01*
X97348580Y-74610056D01*
X97346955Y-74610121D01*
X97272191Y-74613073D01*
X97184104Y-74616450D01*
X97088726Y-74620028D01*
X96992090Y-74623582D01*
X96900229Y-74626887D01*
X96853093Y-74628546D01*
X96782678Y-74631017D01*
X96718806Y-74633289D01*
X96663968Y-74635272D01*
X96620658Y-74636875D01*
X96591367Y-74638005D01*
X96578590Y-74638572D01*
X96578260Y-74638602D01*
X96577493Y-74648018D01*
X96577281Y-74674179D01*
X96577595Y-74714473D01*
X96578405Y-74766287D01*
X96579681Y-74827007D01*
X96580982Y-74878874D01*
X96582804Y-74947516D01*
X96584997Y-75031129D01*
X96587449Y-75125327D01*
X96590045Y-75225719D01*
X96592673Y-75327917D01*
X96595217Y-75427533D01*
X96596715Y-75486518D01*
X96601999Y-75693848D01*
X96606947Y-75885178D01*
X96611549Y-76060093D01*
X96615791Y-76218177D01*
X96619664Y-76359016D01*
X96623155Y-76482193D01*
X96626253Y-76587295D01*
X96628947Y-76673906D01*
X96631225Y-76741611D01*
X96631427Y-76747265D01*
X96637423Y-76913769D01*
X96603468Y-76984513D01*
X96586757Y-77019965D01*
X96573035Y-77050240D01*
X96564780Y-77069838D01*
X96563933Y-77072203D01*
X96553196Y-77087422D01*
X96539345Y-77084479D01*
X96529823Y-77071892D01*
X96509935Y-77051407D01*
X96475609Y-77032495D01*
X96431769Y-77017155D01*
X96383339Y-77007386D01*
X96366773Y-77005694D01*
X96326785Y-77004580D01*
X96276274Y-77005808D01*
X96223909Y-77009100D01*
X96204294Y-77010941D01*
X96161726Y-77015385D01*
X96125516Y-77019129D01*
X96100585Y-77021668D01*
X96092933Y-77022415D01*
X96077233Y-77027011D01*
X96050024Y-77037793D01*
X96017192Y-77052427D01*
X96017128Y-77052457D01*
X95986289Y-77066137D01*
X95962995Y-77075021D01*
X95952020Y-77077300D01*
X95951853Y-77077183D01*
X95950549Y-77075125D01*
X95949414Y-77071104D01*
X95948461Y-77064194D01*
X95947703Y-77053471D01*
X95947153Y-77038011D01*
X95946824Y-77016890D01*
X95946728Y-76989181D01*
X95946879Y-76953961D01*
X95947290Y-76910305D01*
X95947973Y-76857289D01*
X95948941Y-76793988D01*
X95950208Y-76719477D01*
X95951786Y-76632832D01*
X95953688Y-76533127D01*
X95955927Y-76419440D01*
X95958517Y-76290844D01*
X95961469Y-76146415D01*
X95964797Y-75985229D01*
X95968514Y-75806360D01*
X95971852Y-75646297D01*
X95973744Y-75561297D01*
X95975952Y-75471368D01*
X95978340Y-75381539D01*
X95980768Y-75296842D01*
X95983099Y-75222307D01*
X95984859Y-75171802D01*
X95987253Y-75096535D01*
X95989255Y-75012171D01*
X95990720Y-74926663D01*
X95991500Y-74847960D01*
X95991580Y-74808740D01*
X95991255Y-74745711D01*
X95990408Y-74699563D01*
X95988829Y-74667814D01*
X95986305Y-74647980D01*
X95982627Y-74637578D01*
X95977582Y-74634126D01*
X95976730Y-74634055D01*
X95952470Y-74633087D01*
X95913114Y-74631278D01*
X95862905Y-74628845D01*
X95806085Y-74626003D01*
X95746897Y-74622970D01*
X95689583Y-74619960D01*
X95638387Y-74617190D01*
X95597550Y-74614876D01*
X95583210Y-74614012D01*
X95494722Y-74608511D01*
X95499691Y-74510076D01*
X95501123Y-74425254D01*
X95497086Y-74344540D01*
X95488040Y-74271692D01*
X95474447Y-74210468D01*
X95457378Y-74165785D01*
X95444323Y-74138173D01*
X95437109Y-74117926D01*
X95436838Y-74110678D01*
X95447415Y-74108989D01*
X95474342Y-74106812D01*
X95514609Y-74104282D01*
X95565209Y-74101534D01*
X95623133Y-74098703D01*
X95685374Y-74095923D01*
X95748922Y-74093329D01*
X95810771Y-74091057D01*
X95867911Y-74089240D01*
X95917335Y-74088014D01*
X95953492Y-74087524D01*
X96012564Y-74087243D01*
X96018692Y-73958935D01*
X96021481Y-73907107D01*
X96024650Y-73858713D01*
X96027823Y-73818913D01*
X96030626Y-73792866D01*
X96030836Y-73791452D01*
X96036851Y-73752276D01*
X95946268Y-73700888D01*
X95896504Y-73672100D01*
X95861613Y-73650300D01*
X95839232Y-73633637D01*
X95827000Y-73620266D01*
X95822554Y-73608337D01*
X95822407Y-73603984D01*
X95829934Y-73593414D01*
X95850279Y-73573581D01*
X95880708Y-73546761D01*
X95918484Y-73515230D01*
X95960872Y-73481265D01*
X96005136Y-73447140D01*
X96048541Y-73415134D01*
X96054493Y-73410881D01*
X96065405Y-73405536D01*
X96080516Y-73404182D01*
X96103763Y-73407230D01*
X96139084Y-73415091D01*
X96170416Y-73422985D01*
X96223082Y-73436028D01*
X96262917Y-73443846D01*
X96295688Y-73446622D01*
X96327162Y-73444538D01*
X96363105Y-73437774D01*
X96395164Y-73430065D01*
X96479412Y-73400329D01*
X96551178Y-73356070D01*
X96611151Y-73296703D01*
X96660019Y-73221645D01*
X96673862Y-73193253D01*
X96687446Y-73161407D01*
X96696025Y-73134262D01*
X96700724Y-73105489D01*
X96702669Y-73068756D01*
X96702998Y-73029389D01*
X96701663Y-72972212D01*
X96697166Y-72928375D01*
X96688768Y-72892001D01*
X96683938Y-72877638D01*
X96647591Y-72797123D01*
X96602803Y-72732631D01*
X96548136Y-72682132D01*
X96543219Y-72678584D01*
X96499826Y-72649545D01*
X96461660Y-72629099D01*
X96423736Y-72615947D01*
X96381068Y-72608792D01*
X96328669Y-72606336D01*
X96268555Y-72607083D01*
X96204992Y-72609797D01*
X96160537Y-72613976D01*
X96135274Y-72619611D01*
X96130206Y-72622603D01*
X96110256Y-72633316D01*
X96100862Y-72634707D01*
X96081550Y-72642129D01*
X96054342Y-72662225D01*
X96022355Y-72691738D01*
X95988708Y-72727412D01*
X95956519Y-72765992D01*
X95928906Y-72804221D01*
X95912982Y-72830882D01*
X95896360Y-72863264D01*
X95885624Y-72888617D01*
X95879466Y-72912953D01*
X95876572Y-72942283D01*
X95875632Y-72982617D01*
X95875512Y-73002683D01*
X95876025Y-73050196D01*
X95877780Y-73095068D01*
X95880465Y-73130851D01*
X95882373Y-73145159D01*
X95889693Y-73185957D01*
X95833955Y-73227239D01*
X95799041Y-73253715D01*
X95757255Y-73286300D01*
X95716620Y-73318721D01*
X95709586Y-73324431D01*
X95678255Y-73349102D01*
X95651995Y-73368210D01*
X95634736Y-73378966D01*
X95630810Y-73380342D01*
X95616574Y-73371229D01*
X95599988Y-73345574D01*
X95582093Y-73305902D01*
X95563932Y-73254738D01*
X95546547Y-73194608D01*
X95535669Y-73149751D01*
X95527016Y-73090402D01*
X95524287Y-73021056D01*
X95527076Y-72947698D01*
X95534977Y-72876315D01*
X95547582Y-72812894D01*
X95561456Y-72770277D01*
X95620683Y-72650882D01*
X95692217Y-72545502D01*
X95775271Y-72454771D01*
X95869058Y-72379326D01*
X95972791Y-72319801D01*
X96085682Y-72276832D01*
X96204294Y-72251418D01*
X96252194Y-72245217D01*
X96287542Y-72242171D01*
X96316876Y-72242158D01*
X96346732Y-72245056D01*
G37*
G36*
X85458428Y-72186817D02*
G01*
X85560737Y-72186941D01*
X85674101Y-72187147D01*
X85797333Y-72187433D01*
X85929246Y-72187799D01*
X86068654Y-72188243D01*
X86214367Y-72188764D01*
X86341580Y-72189263D01*
X87527817Y-72194105D01*
X87530849Y-73946831D01*
X87531160Y-74164637D01*
X87531370Y-74398261D01*
X87531483Y-74644964D01*
X87531501Y-74902004D01*
X87531427Y-75166642D01*
X87531265Y-75436135D01*
X87531016Y-75707744D01*
X87530685Y-75978728D01*
X87530273Y-76246346D01*
X87529784Y-76507857D01*
X87529220Y-76760522D01*
X87528585Y-77001598D01*
X87527880Y-77228347D01*
X87527239Y-77405422D01*
X87520596Y-79111288D01*
X87451580Y-79118237D01*
X87432534Y-79119192D01*
X87395685Y-79120117D01*
X87342598Y-79121006D01*
X87274837Y-79121853D01*
X87193965Y-79122655D01*
X87101547Y-79123405D01*
X86999147Y-79124100D01*
X86888330Y-79124733D01*
X86770660Y-79125300D01*
X86647700Y-79125796D01*
X86521016Y-79126215D01*
X86392170Y-79126552D01*
X86262729Y-79126803D01*
X86134255Y-79126963D01*
X86008313Y-79127025D01*
X85886468Y-79126986D01*
X85770283Y-79126840D01*
X85661323Y-79126582D01*
X85561152Y-79126207D01*
X85471333Y-79125710D01*
X85393433Y-79125085D01*
X85380486Y-79124956D01*
X85131134Y-79122371D01*
X85131134Y-78686819D01*
X85545795Y-78686819D01*
X86299558Y-78689359D01*
X86418703Y-78689790D01*
X86532233Y-78690258D01*
X86638660Y-78690752D01*
X86736496Y-78691265D01*
X86824253Y-78691785D01*
X86900441Y-78692303D01*
X86963574Y-78692810D01*
X87012161Y-78693296D01*
X87044716Y-78693752D01*
X87059749Y-78694168D01*
X87060585Y-78694261D01*
X87062013Y-78685358D01*
X87063348Y-78658920D01*
X87064562Y-78616775D01*
X87065627Y-78560756D01*
X87066515Y-78492691D01*
X87067200Y-78414413D01*
X87067651Y-78327751D01*
X87067843Y-78234536D01*
X87067847Y-78217285D01*
X87067847Y-77737948D01*
X86943816Y-77737948D01*
X86819785Y-77737948D01*
X86817222Y-78059927D01*
X86816399Y-78137104D01*
X86815240Y-78208090D01*
X86813814Y-78270566D01*
X86812191Y-78322212D01*
X86810439Y-78360711D01*
X86808629Y-78383743D01*
X86807395Y-78389393D01*
X86795832Y-78391631D01*
X86768091Y-78393314D01*
X86727359Y-78394360D01*
X86676820Y-78394684D01*
X86621694Y-78394235D01*
X86443257Y-78391589D01*
X86440653Y-78091398D01*
X86438049Y-77791208D01*
X86302662Y-77788179D01*
X86167276Y-77785150D01*
X86167276Y-78085764D01*
X86167276Y-78386378D01*
X86145488Y-78391752D01*
X86128596Y-78393425D01*
X86096218Y-78394529D01*
X86052231Y-78395009D01*
X86000509Y-78394805D01*
X85968762Y-78394357D01*
X85813825Y-78391589D01*
X85811276Y-78064768D01*
X85808726Y-77737948D01*
X85682968Y-77737948D01*
X85557211Y-77737948D01*
X85556878Y-78055085D01*
X85556616Y-78140820D01*
X85556040Y-78228477D01*
X85555196Y-78314016D01*
X85554135Y-78393401D01*
X85552904Y-78462594D01*
X85551552Y-78517556D01*
X85551170Y-78529520D01*
X85545795Y-78686819D01*
X85131134Y-78686819D01*
X85131134Y-76988749D01*
X85558463Y-76988749D01*
X85562424Y-77054064D01*
X85570585Y-77106360D01*
X85596709Y-77189854D01*
X85634406Y-77265581D01*
X85681572Y-77330399D01*
X85736104Y-77381168D01*
X85768648Y-77402059D01*
X85857422Y-77440786D01*
X85947474Y-77460541D01*
X86040569Y-77461555D01*
X86122109Y-77448164D01*
X86194205Y-77425630D01*
X86255224Y-77393793D01*
X86307410Y-77350502D01*
X86353004Y-77293608D01*
X86394250Y-77220961D01*
X86420829Y-77161776D01*
X86428094Y-77138841D01*
X86436958Y-77103124D01*
X86445969Y-77060969D01*
X86453679Y-77018721D01*
X86454036Y-77016522D01*
X86458760Y-76992079D01*
X86466487Y-76956828D01*
X86474806Y-76921479D01*
X86498487Y-76856519D01*
X86533764Y-76806535D01*
X86579813Y-76772166D01*
X86635809Y-76754047D01*
X86694081Y-76752164D01*
X86748004Y-76764292D01*
X86791219Y-76791640D01*
X86825637Y-76835558D01*
X86833915Y-76850920D01*
X86844103Y-76873354D01*
X86850448Y-76894720D01*
X86853618Y-76920202D01*
X86854285Y-76954985D01*
X86853236Y-77000483D01*
X86851305Y-77048400D01*
X86848127Y-77083184D01*
X86842308Y-77111071D01*
X86832453Y-77138294D01*
X86817168Y-77171088D01*
X86813342Y-77178853D01*
X86788729Y-77222591D01*
X86758573Y-77267731D01*
X86729159Y-77304909D01*
X86727540Y-77306699D01*
X86678363Y-77360506D01*
X86769007Y-77456504D01*
X86802419Y-77491566D01*
X86831010Y-77520961D01*
X86852217Y-77542097D01*
X86863477Y-77552386D01*
X86864492Y-77552970D01*
X86874100Y-77547474D01*
X86892272Y-77533160D01*
X86899351Y-77527070D01*
X86956726Y-77467452D01*
X87005919Y-77395872D01*
X87048119Y-77310195D01*
X87084521Y-77208286D01*
X87092536Y-77181143D01*
X87101208Y-77137324D01*
X87106926Y-77080714D01*
X87109693Y-77016729D01*
X87109512Y-76950786D01*
X87106385Y-76888302D01*
X87100314Y-76834691D01*
X87092377Y-76798642D01*
X87053808Y-76695797D01*
X87007862Y-76610466D01*
X86953780Y-76541961D01*
X86890802Y-76489592D01*
X86818169Y-76452673D01*
X86735120Y-76430515D01*
X86678747Y-76423934D01*
X86580071Y-76424528D01*
X86492421Y-76440645D01*
X86415606Y-76472462D01*
X86349434Y-76520159D01*
X86293714Y-76583912D01*
X86248252Y-76663899D01*
X86212859Y-76760299D01*
X86187341Y-76873289D01*
X86186081Y-76880838D01*
X86170990Y-76960027D01*
X86153904Y-77022542D01*
X86133665Y-77071061D01*
X86109110Y-77108259D01*
X86079082Y-77136812D01*
X86073270Y-77141054D01*
X86024071Y-77165044D01*
X85972096Y-77172127D01*
X85921390Y-77163003D01*
X85876001Y-77138372D01*
X85841260Y-77100899D01*
X85816111Y-77046458D01*
X85804663Y-76982277D01*
X85806386Y-76911756D01*
X85820754Y-76838297D01*
X85847237Y-76765298D01*
X85885308Y-76696161D01*
X85909226Y-76663221D01*
X85943824Y-76619794D01*
X85917559Y-76592103D01*
X85898202Y-76572905D01*
X85869438Y-76545804D01*
X85836441Y-76515647D01*
X85824790Y-76505214D01*
X85758285Y-76446017D01*
X85720921Y-76489181D01*
X85691462Y-76528692D01*
X85659411Y-76580686D01*
X85628032Y-76639184D01*
X85600591Y-76698208D01*
X85584885Y-76738297D01*
X85572405Y-76787314D01*
X85563686Y-76849387D01*
X85558961Y-76918527D01*
X85558463Y-76988749D01*
X85131134Y-76988749D01*
X85131134Y-76169210D01*
X85576578Y-76169210D01*
X86322213Y-76169210D01*
X87067847Y-76169210D01*
X87067847Y-76014424D01*
X87067847Y-75859637D01*
X86794287Y-75857066D01*
X86520726Y-75854494D01*
X86515194Y-75670506D01*
X86512838Y-75601415D01*
X86510111Y-75547748D01*
X86506482Y-75505565D01*
X86501418Y-75470925D01*
X86494388Y-75439885D01*
X86484860Y-75408505D01*
X86476639Y-75384841D01*
X86458726Y-75346184D01*
X86432458Y-75302711D01*
X86402630Y-75261517D01*
X86374037Y-75229699D01*
X86368411Y-75224681D01*
X86306671Y-75182307D01*
X86235714Y-75152223D01*
X86152919Y-75133560D01*
X86070849Y-75126008D01*
X85971668Y-75130152D01*
X85881346Y-75151283D01*
X85800733Y-75188754D01*
X85730680Y-75241920D01*
X85672039Y-75310134D01*
X85625661Y-75392748D01*
X85592395Y-75489116D01*
X85592241Y-75489721D01*
X85587675Y-75510837D01*
X85584051Y-75536047D01*
X85581272Y-75567670D01*
X85579238Y-75608023D01*
X85577852Y-75659425D01*
X85577016Y-75724195D01*
X85576632Y-75804650D01*
X85576578Y-75860118D01*
X85576578Y-76169210D01*
X85131134Y-76169210D01*
X85131134Y-75860118D01*
X85131134Y-75656853D01*
X85131146Y-75338366D01*
X85131182Y-75038739D01*
X85131245Y-74757466D01*
X85131337Y-74494042D01*
X85131400Y-74366291D01*
X85560501Y-74366291D01*
X85560838Y-74480378D01*
X85575320Y-74581739D01*
X85601332Y-74674485D01*
X85639078Y-74755026D01*
X85691164Y-74828237D01*
X85728901Y-74869191D01*
X85759363Y-74898555D01*
X85785718Y-74921792D01*
X85804505Y-74935972D01*
X85811211Y-74938943D01*
X85822873Y-74931277D01*
X85840734Y-74911819D01*
X85857401Y-74889705D01*
X85883733Y-74853141D01*
X85913022Y-74814393D01*
X85927245Y-74796360D01*
X85963195Y-74751800D01*
X85921018Y-74706709D01*
X85873778Y-74645621D01*
X85839029Y-74578514D01*
X85817086Y-74508420D01*
X85808259Y-74438368D01*
X85812862Y-74371389D01*
X85831206Y-74310512D01*
X85863606Y-74258767D01*
X85873687Y-74247864D01*
X85904011Y-74222709D01*
X85936455Y-74208871D01*
X85978190Y-74203702D01*
X85993913Y-74203446D01*
X86049158Y-74209097D01*
X86094138Y-74226822D01*
X86129654Y-74257780D01*
X86156506Y-74303127D01*
X86175494Y-74364022D01*
X86187418Y-74441623D01*
X86191079Y-74488742D01*
X86193739Y-74531724D01*
X86196251Y-74566780D01*
X86198304Y-74589893D01*
X86199448Y-74597138D01*
X86209414Y-74598144D01*
X86234902Y-74599229D01*
X86272069Y-74600264D01*
X86317070Y-74601118D01*
X86317634Y-74601126D01*
X86433574Y-74602868D01*
X86439517Y-74478205D01*
X86442568Y-74423845D01*
X86446172Y-74384598D01*
X86451064Y-74356214D01*
X86457982Y-74334438D01*
X86467659Y-74315019D01*
X86467781Y-74314807D01*
X86498047Y-74268774D01*
X86530517Y-74234885D01*
X86571660Y-74206390D01*
X86571833Y-74206288D01*
X86597464Y-74192964D01*
X86621360Y-74186212D01*
X86651233Y-74184572D01*
X86680464Y-74185721D01*
X86735787Y-74194047D01*
X86779272Y-74213360D01*
X86812985Y-74245660D01*
X86838993Y-74292947D01*
X86859363Y-74357221D01*
X86859900Y-74359399D01*
X86868786Y-74400289D01*
X86871923Y-74432473D01*
X86869660Y-74465626D01*
X86864823Y-74495861D01*
X86844674Y-74570363D01*
X86812776Y-74641333D01*
X86772068Y-74703113D01*
X86738205Y-74739406D01*
X86713895Y-74761974D01*
X86696623Y-74779365D01*
X86690188Y-74787710D01*
X86694838Y-74797739D01*
X86707307Y-74820364D01*
X86725375Y-74851620D01*
X86736185Y-74869866D01*
X86758860Y-74908114D01*
X86779686Y-74943729D01*
X86795242Y-74970846D01*
X86799054Y-74977690D01*
X86815926Y-75008492D01*
X86861456Y-74976365D01*
X86895352Y-74950491D01*
X86929470Y-74921451D01*
X86943053Y-74908713D01*
X86969115Y-74880076D01*
X86997452Y-74844542D01*
X87013747Y-74821769D01*
X87029324Y-74796857D01*
X87043112Y-74770003D01*
X87056651Y-74737359D01*
X87071482Y-74695076D01*
X87089146Y-74639309D01*
X87096554Y-74614997D01*
X87102929Y-74582968D01*
X87107823Y-74537121D01*
X87111029Y-74482964D01*
X87112338Y-74426005D01*
X87111541Y-74371750D01*
X87108430Y-74325709D01*
X87107726Y-74319648D01*
X87098506Y-74256694D01*
X87087295Y-74206067D01*
X87072001Y-74160730D01*
X87050536Y-74113643D01*
X87041118Y-74095330D01*
X86997417Y-74024649D01*
X86947895Y-73970450D01*
X86889199Y-73930200D01*
X86817974Y-73901366D01*
X86767125Y-73888339D01*
X86679187Y-73878555D01*
X86595279Y-73886846D01*
X86517350Y-73912283D01*
X86447347Y-73953936D01*
X86387218Y-74010877D01*
X86338912Y-74082177D01*
X86331896Y-74095904D01*
X86316101Y-74123390D01*
X86301750Y-74140028D01*
X86294478Y-74142970D01*
X86284075Y-74133177D01*
X86271175Y-74110533D01*
X86262300Y-74089584D01*
X86234433Y-74037448D01*
X86192381Y-73987138D01*
X86141055Y-73943693D01*
X86092421Y-73915283D01*
X86042807Y-73897855D01*
X85987765Y-73887289D01*
X85933963Y-73884248D01*
X85888071Y-73889395D01*
X85874173Y-73893604D01*
X85809111Y-73921053D01*
X85758589Y-73949484D01*
X85717951Y-73982450D01*
X85682541Y-74023505D01*
X85659138Y-74057757D01*
X85610044Y-74152524D01*
X85577035Y-74256187D01*
X85560501Y-74366291D01*
X85131400Y-74366291D01*
X85131458Y-74247959D01*
X85131612Y-74018712D01*
X85131798Y-73805793D01*
X85132021Y-73608696D01*
X85132280Y-73426916D01*
X85132579Y-73259946D01*
X85132918Y-73107279D01*
X85132929Y-73103255D01*
X85568631Y-73103255D01*
X85569504Y-73178147D01*
X85583328Y-73285202D01*
X85612904Y-73381230D01*
X85658043Y-73465938D01*
X85718554Y-73539031D01*
X85794249Y-73600214D01*
X85867085Y-73641088D01*
X85898843Y-73655701D01*
X85923510Y-73666317D01*
X85936128Y-73670810D01*
X85936490Y-73670842D01*
X85943313Y-73662606D01*
X85953093Y-73641780D01*
X85957714Y-73629694D01*
X85982171Y-73560854D01*
X86000305Y-73508026D01*
X86012700Y-73469132D01*
X86019944Y-73442089D01*
X86022621Y-73424820D01*
X86021318Y-73415243D01*
X86018927Y-73412363D01*
X86003456Y-73403153D01*
X85978828Y-73389911D01*
X85970546Y-73385660D01*
X85940029Y-73365799D01*
X85910102Y-73339724D01*
X85903611Y-73332771D01*
X85880209Y-73300638D01*
X85857220Y-73259945D01*
X85837437Y-73216770D01*
X85823656Y-73177195D01*
X85818667Y-73147997D01*
X85827808Y-73087321D01*
X85853418Y-73031632D01*
X85892782Y-72984744D01*
X85943181Y-72950470D01*
X85966077Y-72941061D01*
X86024374Y-72928054D01*
X86079933Y-72930835D01*
X86136543Y-72950054D01*
X86187399Y-72979197D01*
X86209358Y-72994122D01*
X86229591Y-73009141D01*
X86249713Y-73025965D01*
X86271339Y-73046306D01*
X86296087Y-73071878D01*
X86325569Y-73104391D01*
X86361404Y-73145558D01*
X86405205Y-73197092D01*
X86458588Y-73260704D01*
X86501359Y-73311939D01*
X86550000Y-73370087D01*
X86598852Y-73428144D01*
X86645240Y-73482958D01*
X86686492Y-73531377D01*
X86719932Y-73570247D01*
X86737281Y-73590111D01*
X86808583Y-73670849D01*
X86957582Y-73670849D01*
X87106582Y-73670849D01*
X87106582Y-73143095D01*
X87106582Y-72615340D01*
X86970134Y-72615340D01*
X86833687Y-72615340D01*
X86835548Y-72913110D01*
X86836145Y-73013283D01*
X86836539Y-73095772D01*
X86836690Y-73162259D01*
X86836559Y-73214427D01*
X86836107Y-73253958D01*
X86835294Y-73282534D01*
X86834080Y-73301838D01*
X86832426Y-73313552D01*
X86830292Y-73319359D01*
X86827639Y-73320940D01*
X86825969Y-73320627D01*
X86817334Y-73312230D01*
X86798499Y-73290397D01*
X86771018Y-73257085D01*
X86736445Y-73214249D01*
X86696337Y-73163845D01*
X86652248Y-73107828D01*
X86605733Y-73048155D01*
X86558348Y-72986780D01*
X86511647Y-72925660D01*
X86505901Y-72918091D01*
X86435269Y-72830400D01*
X86368364Y-72758277D01*
X86306034Y-72702541D01*
X86249129Y-72664011D01*
X86235018Y-72656765D01*
X86148385Y-72625171D01*
X86059608Y-72610618D01*
X85971396Y-72612663D01*
X85886457Y-72630860D01*
X85807498Y-72664765D01*
X85737228Y-72713934D01*
X85706814Y-72743437D01*
X85648563Y-72819191D01*
X85606323Y-72903757D01*
X85579782Y-72998117D01*
X85568631Y-73103255D01*
X85132929Y-73103255D01*
X85133299Y-72968409D01*
X85133725Y-72842829D01*
X85134197Y-72730034D01*
X85134716Y-72629516D01*
X85135285Y-72540770D01*
X85135906Y-72463289D01*
X85136579Y-72396567D01*
X85137307Y-72340097D01*
X85138092Y-72293373D01*
X85138935Y-72255888D01*
X85139838Y-72227137D01*
X85140803Y-72206612D01*
X85141832Y-72193808D01*
X85142926Y-72188218D01*
X85143238Y-72187878D01*
X85154279Y-72187480D01*
X85183499Y-72187172D01*
X85229711Y-72186953D01*
X85291728Y-72186822D01*
X85368363Y-72186777D01*
X85458428Y-72186817D01*
G37*
%TD*%
M02*
