%TF.GenerationSoftware,KiCad,Pcbnew,10.0.5-10.0.5~ubuntu24.04.1*%
%TF.CreationDate,2026-08-25T15:34:29+02:00*%
%TF.ProjectId,wifilorav4_adapter,77696669-6c6f-4726-9176-345f61646170,rev?*%
%TF.SameCoordinates,Original*%
%TF.FileFunction,Legend,Top*%
%TF.FilePolarity,Positive*%
%FSLAX46Y46*%
G04 Gerber Fmt 4.6, Leading zero omitted, Abs format (unit mm)*
G04 Created by KiCad (PCBNEW 10.0.5-10.0.5~ubuntu24.04.1) date 2026-08-25 15:34:29*
%MOMM*%
%LPD*%
G01*
G04 APERTURE LIST*
%ADD10C,0.125000*%
%ADD11C,0.250000*%
%ADD12C,0.150000*%
%ADD13C,0.300000*%
%ADD14C,0.120000*%
%ADD15C,0.000000*%
G04 APERTURE END LIST*
D10*
X88865218Y-55917495D02*
X90135218Y-55615114D01*
X90135218Y-55615114D02*
X89228075Y-55373209D01*
X89228075Y-55373209D02*
X90135218Y-55131304D01*
X90135218Y-55131304D02*
X88865218Y-54828924D01*
X90135218Y-54345114D02*
X89288551Y-54345114D01*
X88865218Y-54345114D02*
X88925694Y-54405590D01*
X88925694Y-54405590D02*
X88986170Y-54345114D01*
X88986170Y-54345114D02*
X88925694Y-54284637D01*
X88925694Y-54284637D02*
X88865218Y-54345114D01*
X88865218Y-54345114D02*
X88986170Y-54345114D01*
X89469980Y-53317018D02*
X89469980Y-53740352D01*
X90135218Y-53740352D02*
X88865218Y-53740352D01*
X88865218Y-53740352D02*
X88865218Y-53135590D01*
X90135218Y-52651781D02*
X89288551Y-52651781D01*
X88865218Y-52651781D02*
X88925694Y-52712257D01*
X88925694Y-52712257D02*
X88986170Y-52651781D01*
X88986170Y-52651781D02*
X88925694Y-52591304D01*
X88925694Y-52591304D02*
X88865218Y-52651781D01*
X88865218Y-52651781D02*
X88986170Y-52651781D01*
X90135218Y-50474638D02*
X90135218Y-51079400D01*
X90135218Y-51079400D02*
X88865218Y-51079400D01*
X90135218Y-49869876D02*
X90074742Y-49990828D01*
X90074742Y-49990828D02*
X90014265Y-50051305D01*
X90014265Y-50051305D02*
X89893313Y-50111781D01*
X89893313Y-50111781D02*
X89530456Y-50111781D01*
X89530456Y-50111781D02*
X89409503Y-50051305D01*
X89409503Y-50051305D02*
X89349027Y-49990828D01*
X89349027Y-49990828D02*
X89288551Y-49869876D01*
X89288551Y-49869876D02*
X89288551Y-49688447D01*
X89288551Y-49688447D02*
X89349027Y-49567495D01*
X89349027Y-49567495D02*
X89409503Y-49507019D01*
X89409503Y-49507019D02*
X89530456Y-49446543D01*
X89530456Y-49446543D02*
X89893313Y-49446543D01*
X89893313Y-49446543D02*
X90014265Y-49507019D01*
X90014265Y-49507019D02*
X90074742Y-49567495D01*
X90074742Y-49567495D02*
X90135218Y-49688447D01*
X90135218Y-49688447D02*
X90135218Y-49869876D01*
X90135218Y-48176542D02*
X89530456Y-48599876D01*
X90135218Y-48902257D02*
X88865218Y-48902257D01*
X88865218Y-48902257D02*
X88865218Y-48418447D01*
X88865218Y-48418447D02*
X88925694Y-48297495D01*
X88925694Y-48297495D02*
X88986170Y-48237018D01*
X88986170Y-48237018D02*
X89107122Y-48176542D01*
X89107122Y-48176542D02*
X89288551Y-48176542D01*
X89288551Y-48176542D02*
X89409503Y-48237018D01*
X89409503Y-48237018D02*
X89469980Y-48297495D01*
X89469980Y-48297495D02*
X89530456Y-48418447D01*
X89530456Y-48418447D02*
X89530456Y-48902257D01*
X90135218Y-47087971D02*
X89469980Y-47087971D01*
X89469980Y-47087971D02*
X89349027Y-47148447D01*
X89349027Y-47148447D02*
X89288551Y-47269399D01*
X89288551Y-47269399D02*
X89288551Y-47511304D01*
X89288551Y-47511304D02*
X89349027Y-47632257D01*
X90074742Y-47087971D02*
X90135218Y-47208923D01*
X90135218Y-47208923D02*
X90135218Y-47511304D01*
X90135218Y-47511304D02*
X90074742Y-47632257D01*
X90074742Y-47632257D02*
X89953789Y-47692733D01*
X89953789Y-47692733D02*
X89832837Y-47692733D01*
X89832837Y-47692733D02*
X89711884Y-47632257D01*
X89711884Y-47632257D02*
X89651408Y-47511304D01*
X89651408Y-47511304D02*
X89651408Y-47208923D01*
X89651408Y-47208923D02*
X89590932Y-47087971D01*
X88865218Y-45697018D02*
X90135218Y-45273685D01*
X90135218Y-45273685D02*
X88865218Y-44850351D01*
X89288551Y-43882733D02*
X90135218Y-43882733D01*
X88804742Y-44185114D02*
X89711884Y-44487495D01*
X89711884Y-44487495D02*
X89711884Y-43701304D01*
X91333180Y-58457494D02*
X91333180Y-57973685D01*
X90909847Y-58276066D02*
X91998418Y-58276066D01*
X91998418Y-58276066D02*
X92119371Y-58215589D01*
X92119371Y-58215589D02*
X92179847Y-58094637D01*
X92179847Y-58094637D02*
X92179847Y-57973685D01*
X92179847Y-57368923D02*
X92119371Y-57489875D01*
X92119371Y-57489875D02*
X92058894Y-57550352D01*
X92058894Y-57550352D02*
X91937942Y-57610828D01*
X91937942Y-57610828D02*
X91575085Y-57610828D01*
X91575085Y-57610828D02*
X91454132Y-57550352D01*
X91454132Y-57550352D02*
X91393656Y-57489875D01*
X91393656Y-57489875D02*
X91333180Y-57368923D01*
X91333180Y-57368923D02*
X91333180Y-57187494D01*
X91333180Y-57187494D02*
X91393656Y-57066542D01*
X91393656Y-57066542D02*
X91454132Y-57006066D01*
X91454132Y-57006066D02*
X91575085Y-56945590D01*
X91575085Y-56945590D02*
X91937942Y-56945590D01*
X91937942Y-56945590D02*
X92058894Y-57006066D01*
X92058894Y-57006066D02*
X92119371Y-57066542D01*
X92119371Y-57066542D02*
X92179847Y-57187494D01*
X92179847Y-57187494D02*
X92179847Y-57368923D01*
X91514609Y-55010351D02*
X91575085Y-54828923D01*
X91575085Y-54828923D02*
X91635561Y-54768446D01*
X91635561Y-54768446D02*
X91756513Y-54707970D01*
X91756513Y-54707970D02*
X91937942Y-54707970D01*
X91937942Y-54707970D02*
X92058894Y-54768446D01*
X92058894Y-54768446D02*
X92119371Y-54828923D01*
X92119371Y-54828923D02*
X92179847Y-54949875D01*
X92179847Y-54949875D02*
X92179847Y-55433685D01*
X92179847Y-55433685D02*
X90909847Y-55433685D01*
X90909847Y-55433685D02*
X90909847Y-55010351D01*
X90909847Y-55010351D02*
X90970323Y-54889399D01*
X90970323Y-54889399D02*
X91030799Y-54828923D01*
X91030799Y-54828923D02*
X91151751Y-54768446D01*
X91151751Y-54768446D02*
X91272704Y-54768446D01*
X91272704Y-54768446D02*
X91393656Y-54828923D01*
X91393656Y-54828923D02*
X91454132Y-54889399D01*
X91454132Y-54889399D02*
X91514609Y-55010351D01*
X91514609Y-55010351D02*
X91514609Y-55433685D01*
X92179847Y-54163685D02*
X91333180Y-54163685D01*
X90909847Y-54163685D02*
X90970323Y-54224161D01*
X90970323Y-54224161D02*
X91030799Y-54163685D01*
X91030799Y-54163685D02*
X90970323Y-54103208D01*
X90970323Y-54103208D02*
X90909847Y-54163685D01*
X90909847Y-54163685D02*
X91030799Y-54163685D01*
X91333180Y-53740351D02*
X91333180Y-53256542D01*
X90909847Y-53558923D02*
X91998418Y-53558923D01*
X91998418Y-53558923D02*
X92119371Y-53498446D01*
X92119371Y-53498446D02*
X92179847Y-53377494D01*
X92179847Y-53377494D02*
X92179847Y-53256542D01*
X92179847Y-51865590D02*
X90909847Y-51865590D01*
X90909847Y-51865590D02*
X90909847Y-51381780D01*
X90909847Y-51381780D02*
X90970323Y-51260828D01*
X90970323Y-51260828D02*
X91030799Y-51200351D01*
X91030799Y-51200351D02*
X91151751Y-51139875D01*
X91151751Y-51139875D02*
X91333180Y-51139875D01*
X91333180Y-51139875D02*
X91454132Y-51200351D01*
X91454132Y-51200351D02*
X91514609Y-51260828D01*
X91514609Y-51260828D02*
X91575085Y-51381780D01*
X91575085Y-51381780D02*
X91575085Y-51865590D01*
X92179847Y-50595590D02*
X91333180Y-50595590D01*
X90909847Y-50595590D02*
X90970323Y-50656066D01*
X90970323Y-50656066D02*
X91030799Y-50595590D01*
X91030799Y-50595590D02*
X90970323Y-50535113D01*
X90970323Y-50535113D02*
X90909847Y-50595590D01*
X90909847Y-50595590D02*
X91030799Y-50595590D01*
X92179847Y-49990828D02*
X91333180Y-49990828D01*
X91575085Y-49990828D02*
X91454132Y-49930351D01*
X91454132Y-49930351D02*
X91393656Y-49869875D01*
X91393656Y-49869875D02*
X91333180Y-49748923D01*
X91333180Y-49748923D02*
X91333180Y-49627970D01*
X92179847Y-48660352D02*
X91514609Y-48660352D01*
X91514609Y-48660352D02*
X91393656Y-48720828D01*
X91393656Y-48720828D02*
X91333180Y-48841780D01*
X91333180Y-48841780D02*
X91333180Y-49083685D01*
X91333180Y-49083685D02*
X91393656Y-49204638D01*
X92119371Y-48660352D02*
X92179847Y-48781304D01*
X92179847Y-48781304D02*
X92179847Y-49083685D01*
X92179847Y-49083685D02*
X92119371Y-49204638D01*
X92119371Y-49204638D02*
X91998418Y-49265114D01*
X91998418Y-49265114D02*
X91877466Y-49265114D01*
X91877466Y-49265114D02*
X91756513Y-49204638D01*
X91756513Y-49204638D02*
X91696037Y-49083685D01*
X91696037Y-49083685D02*
X91696037Y-48781304D01*
X91696037Y-48781304D02*
X91635561Y-48660352D01*
X91333180Y-48237018D02*
X91333180Y-47753209D01*
X90909847Y-48055590D02*
X91998418Y-48055590D01*
X91998418Y-48055590D02*
X92119371Y-47995113D01*
X92119371Y-47995113D02*
X92179847Y-47874161D01*
X92179847Y-47874161D02*
X92179847Y-47753209D01*
X92119371Y-46846066D02*
X92179847Y-46967018D01*
X92179847Y-46967018D02*
X92179847Y-47208923D01*
X92179847Y-47208923D02*
X92119371Y-47329876D01*
X92119371Y-47329876D02*
X91998418Y-47390352D01*
X91998418Y-47390352D02*
X91514609Y-47390352D01*
X91514609Y-47390352D02*
X91393656Y-47329876D01*
X91393656Y-47329876D02*
X91333180Y-47208923D01*
X91333180Y-47208923D02*
X91333180Y-46967018D01*
X91333180Y-46967018D02*
X91393656Y-46846066D01*
X91393656Y-46846066D02*
X91514609Y-46785590D01*
X91514609Y-46785590D02*
X91635561Y-46785590D01*
X91635561Y-46785590D02*
X91756513Y-47390352D01*
X92179847Y-45273686D02*
X90909847Y-45273686D01*
X90909847Y-45273686D02*
X90909847Y-44971305D01*
X90909847Y-44971305D02*
X90970323Y-44789876D01*
X90970323Y-44789876D02*
X91091275Y-44668924D01*
X91091275Y-44668924D02*
X91212228Y-44608447D01*
X91212228Y-44608447D02*
X91454132Y-44547971D01*
X91454132Y-44547971D02*
X91635561Y-44547971D01*
X91635561Y-44547971D02*
X91877466Y-44608447D01*
X91877466Y-44608447D02*
X91998418Y-44668924D01*
X91998418Y-44668924D02*
X92119371Y-44789876D01*
X92119371Y-44789876D02*
X92179847Y-44971305D01*
X92179847Y-44971305D02*
X92179847Y-45273686D01*
X92179847Y-43822257D02*
X92119371Y-43943209D01*
X92119371Y-43943209D02*
X92058894Y-44003686D01*
X92058894Y-44003686D02*
X91937942Y-44064162D01*
X91937942Y-44064162D02*
X91575085Y-44064162D01*
X91575085Y-44064162D02*
X91454132Y-44003686D01*
X91454132Y-44003686D02*
X91393656Y-43943209D01*
X91393656Y-43943209D02*
X91333180Y-43822257D01*
X91333180Y-43822257D02*
X91333180Y-43640828D01*
X91333180Y-43640828D02*
X91393656Y-43519876D01*
X91393656Y-43519876D02*
X91454132Y-43459400D01*
X91454132Y-43459400D02*
X91575085Y-43398924D01*
X91575085Y-43398924D02*
X91937942Y-43398924D01*
X91937942Y-43398924D02*
X92058894Y-43459400D01*
X92058894Y-43459400D02*
X92119371Y-43519876D01*
X92119371Y-43519876D02*
X92179847Y-43640828D01*
X92179847Y-43640828D02*
X92179847Y-43822257D01*
X92119371Y-42310352D02*
X92179847Y-42431304D01*
X92179847Y-42431304D02*
X92179847Y-42673209D01*
X92179847Y-42673209D02*
X92119371Y-42794161D01*
X92119371Y-42794161D02*
X92058894Y-42854638D01*
X92058894Y-42854638D02*
X91937942Y-42915114D01*
X91937942Y-42915114D02*
X91575085Y-42915114D01*
X91575085Y-42915114D02*
X91454132Y-42854638D01*
X91454132Y-42854638D02*
X91393656Y-42794161D01*
X91393656Y-42794161D02*
X91333180Y-42673209D01*
X91333180Y-42673209D02*
X91333180Y-42431304D01*
X91333180Y-42431304D02*
X91393656Y-42310352D01*
X92179847Y-41766067D02*
X90909847Y-41766067D01*
X91696037Y-41645114D02*
X92179847Y-41282257D01*
X91333180Y-41282257D02*
X91816990Y-41766067D01*
X92954476Y-51744637D02*
X94224476Y-51321304D01*
X94224476Y-51321304D02*
X92954476Y-50897970D01*
X94224476Y-49809399D02*
X94224476Y-50535114D01*
X94224476Y-50172257D02*
X92954476Y-50172257D01*
X92954476Y-50172257D02*
X93135904Y-50293209D01*
X93135904Y-50293209D02*
X93256857Y-50414161D01*
X93256857Y-50414161D02*
X93317333Y-50535114D01*
X94103523Y-49265114D02*
X94164000Y-49204637D01*
X94164000Y-49204637D02*
X94224476Y-49265114D01*
X94224476Y-49265114D02*
X94164000Y-49325590D01*
X94164000Y-49325590D02*
X94103523Y-49265114D01*
X94103523Y-49265114D02*
X94224476Y-49265114D01*
X92954476Y-48418447D02*
X92954476Y-48297494D01*
X92954476Y-48297494D02*
X93014952Y-48176542D01*
X93014952Y-48176542D02*
X93075428Y-48116066D01*
X93075428Y-48116066D02*
X93196380Y-48055590D01*
X93196380Y-48055590D02*
X93438285Y-47995113D01*
X93438285Y-47995113D02*
X93740666Y-47995113D01*
X93740666Y-47995113D02*
X93982571Y-48055590D01*
X93982571Y-48055590D02*
X94103523Y-48116066D01*
X94103523Y-48116066D02*
X94164000Y-48176542D01*
X94164000Y-48176542D02*
X94224476Y-48297494D01*
X94224476Y-48297494D02*
X94224476Y-48418447D01*
X94224476Y-48418447D02*
X94164000Y-48539399D01*
X94164000Y-48539399D02*
X94103523Y-48599875D01*
X94103523Y-48599875D02*
X93982571Y-48660352D01*
X93982571Y-48660352D02*
X93740666Y-48720828D01*
X93740666Y-48720828D02*
X93438285Y-48720828D01*
X93438285Y-48720828D02*
X93196380Y-48660352D01*
X93196380Y-48660352D02*
X93075428Y-48599875D01*
X93075428Y-48599875D02*
X93014952Y-48539399D01*
X93014952Y-48539399D02*
X92954476Y-48418447D01*
D11*
X87455901Y-76656152D02*
X87455901Y-78712342D01*
X87455901Y-78712342D02*
X87570187Y-78954247D01*
X87570187Y-78954247D02*
X87684473Y-79075200D01*
X87684473Y-79075200D02*
X87913044Y-79196152D01*
X87913044Y-79196152D02*
X88370187Y-79196152D01*
X88370187Y-79196152D02*
X88598758Y-79075200D01*
X88598758Y-79075200D02*
X88713044Y-78954247D01*
X88713044Y-78954247D02*
X88827330Y-78712342D01*
X88827330Y-78712342D02*
X88827330Y-76656152D01*
X89855901Y-79075200D02*
X90198759Y-79196152D01*
X90198759Y-79196152D02*
X90770187Y-79196152D01*
X90770187Y-79196152D02*
X90998759Y-79075200D01*
X90998759Y-79075200D02*
X91113044Y-78954247D01*
X91113044Y-78954247D02*
X91227330Y-78712342D01*
X91227330Y-78712342D02*
X91227330Y-78470438D01*
X91227330Y-78470438D02*
X91113044Y-78228533D01*
X91113044Y-78228533D02*
X90998759Y-78107580D01*
X90998759Y-78107580D02*
X90770187Y-77986628D01*
X90770187Y-77986628D02*
X90313044Y-77865676D01*
X90313044Y-77865676D02*
X90084473Y-77744723D01*
X90084473Y-77744723D02*
X89970187Y-77623771D01*
X89970187Y-77623771D02*
X89855901Y-77381866D01*
X89855901Y-77381866D02*
X89855901Y-77139961D01*
X89855901Y-77139961D02*
X89970187Y-76898057D01*
X89970187Y-76898057D02*
X90084473Y-76777104D01*
X90084473Y-76777104D02*
X90313044Y-76656152D01*
X90313044Y-76656152D02*
X90884473Y-76656152D01*
X90884473Y-76656152D02*
X91227330Y-76777104D01*
X93055901Y-77865676D02*
X93398758Y-77986628D01*
X93398758Y-77986628D02*
X93513044Y-78107580D01*
X93513044Y-78107580D02*
X93627330Y-78349485D01*
X93627330Y-78349485D02*
X93627330Y-78712342D01*
X93627330Y-78712342D02*
X93513044Y-78954247D01*
X93513044Y-78954247D02*
X93398758Y-79075200D01*
X93398758Y-79075200D02*
X93170187Y-79196152D01*
X93170187Y-79196152D02*
X92255901Y-79196152D01*
X92255901Y-79196152D02*
X92255901Y-76656152D01*
X92255901Y-76656152D02*
X93055901Y-76656152D01*
X93055901Y-76656152D02*
X93284473Y-76777104D01*
X93284473Y-76777104D02*
X93398758Y-76898057D01*
X93398758Y-76898057D02*
X93513044Y-77139961D01*
X93513044Y-77139961D02*
X93513044Y-77381866D01*
X93513044Y-77381866D02*
X93398758Y-77623771D01*
X93398758Y-77623771D02*
X93284473Y-77744723D01*
X93284473Y-77744723D02*
X93055901Y-77865676D01*
X93055901Y-77865676D02*
X92255901Y-77865676D01*
D12*
X105076666Y-76138819D02*
X105076666Y-76853104D01*
X105076666Y-76853104D02*
X105029047Y-76995961D01*
X105029047Y-76995961D02*
X104933809Y-77091200D01*
X104933809Y-77091200D02*
X104790952Y-77138819D01*
X104790952Y-77138819D02*
X104695714Y-77138819D01*
X105981428Y-76472152D02*
X105981428Y-77138819D01*
X105743333Y-76091200D02*
X105505238Y-76805485D01*
X105505238Y-76805485D02*
X106124285Y-76805485D01*
X82216666Y-76138819D02*
X82216666Y-76853104D01*
X82216666Y-76853104D02*
X82169047Y-76995961D01*
X82169047Y-76995961D02*
X82073809Y-77091200D01*
X82073809Y-77091200D02*
X81930952Y-77138819D01*
X81930952Y-77138819D02*
X81835714Y-77138819D01*
X82597619Y-76138819D02*
X83216666Y-76138819D01*
X83216666Y-76138819D02*
X82883333Y-76519771D01*
X82883333Y-76519771D02*
X83026190Y-76519771D01*
X83026190Y-76519771D02*
X83121428Y-76567390D01*
X83121428Y-76567390D02*
X83169047Y-76615009D01*
X83169047Y-76615009D02*
X83216666Y-76710247D01*
X83216666Y-76710247D02*
X83216666Y-76948342D01*
X83216666Y-76948342D02*
X83169047Y-77043580D01*
X83169047Y-77043580D02*
X83121428Y-77091200D01*
X83121428Y-77091200D02*
X83026190Y-77138819D01*
X83026190Y-77138819D02*
X82740476Y-77138819D01*
X82740476Y-77138819D02*
X82645238Y-77091200D01*
X82645238Y-77091200D02*
X82597619Y-77043580D01*
%TO.C,G2*%
D13*
X86720000Y-70630000D02*
X95610000Y-70630000D01*
X95610000Y-75710000D01*
X86720000Y-75710000D01*
X86720000Y-70630000D01*
%TO.C,J4*%
D14*
X104080000Y-72644000D02*
X104080000Y-29404000D01*
X104080000Y-75244000D02*
X104080000Y-73914000D01*
X105410000Y-75244000D02*
X104080000Y-75244000D01*
X106740000Y-29404000D02*
X104080000Y-29404000D01*
X106740000Y-72644000D02*
X104080000Y-72644000D01*
X106740000Y-72644000D02*
X106740000Y-29404000D01*
%TO.C,J3*%
X81220000Y-72644000D02*
X81220000Y-29404000D01*
X81220000Y-75244000D02*
X81220000Y-73914000D01*
X82550000Y-75244000D02*
X81220000Y-75244000D01*
X83880000Y-29404000D02*
X81220000Y-29404000D01*
X83880000Y-72644000D02*
X81220000Y-72644000D01*
X83880000Y-72644000D02*
X83880000Y-29404000D01*
D15*
%TO.C,G1*%
G36*
X86994752Y-35524625D02*
G01*
X86989910Y-35529467D01*
X86985069Y-35524625D01*
X86989910Y-35519784D01*
X86994752Y-35524625D01*
G37*
G36*
X95797116Y-31012082D02*
G01*
X95792274Y-31016924D01*
X95787432Y-31012082D01*
X95792274Y-31007241D01*
X95797116Y-31012082D01*
G37*
G36*
X96029522Y-30440752D02*
G01*
X96024680Y-30445594D01*
X96019838Y-30440752D01*
X96024680Y-30435910D01*
X96029522Y-30440752D01*
G37*
G36*
X87984897Y-35647793D02*
G01*
X88103521Y-35650512D01*
X88103521Y-36226684D01*
X88103521Y-36802856D01*
X87984897Y-36805575D01*
X87866273Y-36808294D01*
X87866273Y-36226684D01*
X87866273Y-35645074D01*
X87984897Y-35647793D01*
G37*
G36*
X88093837Y-34590161D02*
G01*
X88093837Y-35272853D01*
X87979990Y-35275581D01*
X87866143Y-35278310D01*
X87868629Y-34592890D01*
X87871115Y-33907469D01*
X87982476Y-33907469D01*
X88093837Y-33907469D01*
X88093837Y-34590161D01*
G37*
G36*
X88098679Y-32842277D02*
G01*
X88098679Y-33534652D01*
X87982476Y-33534652D01*
X87866273Y-33534652D01*
X87866273Y-32842277D01*
X87866273Y-32149902D01*
X87982476Y-32149902D01*
X88098679Y-32149902D01*
X88098679Y-32842277D01*
G37*
G36*
X90190330Y-30174337D02*
G01*
X90190330Y-30280973D01*
X89823205Y-30280973D01*
X89456081Y-30280973D01*
X89450902Y-30244660D01*
X89449201Y-30215881D01*
X89449904Y-30176885D01*
X89452472Y-30140561D01*
X89459220Y-30072776D01*
X89824775Y-30070239D01*
X90190330Y-30067702D01*
X90190330Y-30174337D01*
G37*
G36*
X91044009Y-31842448D02*
G01*
X91045419Y-31883352D01*
X91045021Y-31925738D01*
X91044374Y-31939284D01*
X91041423Y-31985281D01*
X90684791Y-31985281D01*
X90328159Y-31985281D01*
X90322307Y-31963493D01*
X90320244Y-31943501D01*
X90320197Y-31910836D01*
X90322148Y-31872083D01*
X90322570Y-31866657D01*
X90328684Y-31791610D01*
X90684688Y-31791610D01*
X91040691Y-31791610D01*
X91044009Y-31842448D01*
G37*
G36*
X90190330Y-31888445D02*
G01*
X90190330Y-31985281D01*
X89823968Y-31985281D01*
X89741567Y-31985116D01*
X89665301Y-31984646D01*
X89597328Y-31983907D01*
X89539806Y-31982939D01*
X89494892Y-31981777D01*
X89464744Y-31980459D01*
X89451519Y-31979023D01*
X89451151Y-31978825D01*
X89448334Y-31966894D01*
X89446140Y-31940255D01*
X89444879Y-31903564D01*
X89444695Y-31881990D01*
X89444695Y-31791610D01*
X89817512Y-31791610D01*
X90190330Y-31791610D01*
X90190330Y-31888445D01*
G37*
G36*
X96662864Y-33321965D02*
G01*
X96681273Y-33329953D01*
X96710809Y-33342418D01*
X96750334Y-33358272D01*
X96791653Y-33374232D01*
X96794524Y-33375314D01*
X96841290Y-33394069D01*
X96872353Y-33410071D01*
X96890680Y-33425724D01*
X96899237Y-33443429D01*
X96901043Y-33461589D01*
X96895662Y-33491839D01*
X96878978Y-33509608D01*
X96850174Y-33514949D01*
X96808439Y-33507910D01*
X96752956Y-33488544D01*
X96717055Y-33473006D01*
X96625061Y-33431144D01*
X96622178Y-33371537D01*
X96621374Y-33336282D01*
X96625576Y-33317895D01*
X96638251Y-33313935D01*
X96662864Y-33321965D01*
G37*
G36*
X91299320Y-35279996D02*
G01*
X91301541Y-35299634D01*
X91302588Y-35332455D01*
X91302306Y-35372303D01*
X91301956Y-35384214D01*
X91299098Y-35466524D01*
X90942969Y-35469064D01*
X90847715Y-35469630D01*
X90770152Y-35469800D01*
X90708608Y-35469526D01*
X90661409Y-35468762D01*
X90626883Y-35467457D01*
X90603358Y-35465565D01*
X90589160Y-35463037D01*
X90582617Y-35459824D01*
X90581871Y-35458654D01*
X90579981Y-35443738D01*
X90579053Y-35414526D01*
X90579191Y-35376069D01*
X90579708Y-35354436D01*
X90582514Y-35263169D01*
X90938171Y-35260629D01*
X91293828Y-35258089D01*
X91299320Y-35279996D01*
G37*
G36*
X86032217Y-33217574D02*
G01*
X86072295Y-33222570D01*
X86100962Y-33231584D01*
X86126130Y-33247316D01*
X86131287Y-33251383D01*
X86157322Y-33275823D01*
X86179139Y-33301944D01*
X86183848Y-33309171D01*
X86195739Y-33339608D01*
X86205868Y-33385270D01*
X86213638Y-33442046D01*
X86218453Y-33505828D01*
X86219768Y-33556440D01*
X86220067Y-33631488D01*
X85992503Y-33631488D01*
X85764939Y-33631488D01*
X85764914Y-33541915D01*
X85769009Y-33453946D01*
X85781609Y-33382138D01*
X85803103Y-33325066D01*
X85833884Y-33281305D01*
X85837276Y-33277818D01*
X85882368Y-33242884D01*
X85934557Y-33222635D01*
X85997024Y-33216088D01*
X86032217Y-33217574D01*
G37*
G36*
X91061851Y-30168365D02*
G01*
X91061851Y-30269032D01*
X91035221Y-30274327D01*
X91019429Y-30275608D01*
X90986728Y-30276831D01*
X90939574Y-30277953D01*
X90880427Y-30278931D01*
X90811743Y-30279723D01*
X90735981Y-30280287D01*
X90676715Y-30280532D01*
X90585037Y-30280658D01*
X90510990Y-30280443D01*
X90452840Y-30279822D01*
X90408853Y-30278734D01*
X90377295Y-30277116D01*
X90356433Y-30274906D01*
X90344531Y-30272040D01*
X90339857Y-30268457D01*
X90339825Y-30268376D01*
X90337917Y-30253407D01*
X90336974Y-30224149D01*
X90337103Y-30185662D01*
X90337618Y-30164044D01*
X90340425Y-30072776D01*
X90701138Y-30070238D01*
X91061851Y-30067699D01*
X91061851Y-30168365D01*
G37*
G36*
X90051887Y-35260121D02*
G01*
X90137717Y-35260627D01*
X90495362Y-35263169D01*
X90495362Y-35364846D01*
X90495362Y-35466524D01*
X90141545Y-35469062D01*
X90042950Y-35469604D01*
X89962293Y-35469655D01*
X89898151Y-35469179D01*
X89849101Y-35468141D01*
X89813719Y-35466505D01*
X89790583Y-35464235D01*
X89778267Y-35461295D01*
X89775990Y-35459863D01*
X89770722Y-35445169D01*
X89766947Y-35416819D01*
X89764776Y-35380474D01*
X89764319Y-35341797D01*
X89765685Y-35306447D01*
X89768985Y-35280088D01*
X89772310Y-35270311D01*
X89778443Y-35267021D01*
X89793254Y-35264412D01*
X89818297Y-35262441D01*
X89855127Y-35261068D01*
X89905299Y-35260251D01*
X89970368Y-35259949D01*
X90051887Y-35260121D01*
G37*
G36*
X91806390Y-30069921D02*
G01*
X91855419Y-30070786D01*
X91891264Y-30072203D01*
X91915469Y-30074214D01*
X91929581Y-30076857D01*
X91934999Y-30079919D01*
X91938463Y-30094591D01*
X91941166Y-30123499D01*
X91942703Y-30161518D01*
X91942907Y-30180290D01*
X91943056Y-30268437D01*
X91843799Y-30274642D01*
X91807016Y-30276312D01*
X91754653Y-30277812D01*
X91690498Y-30279080D01*
X91618339Y-30280051D01*
X91541962Y-30280664D01*
X91472309Y-30280855D01*
X91200075Y-30280864D01*
X91194970Y-30230080D01*
X91193154Y-30188676D01*
X91194513Y-30143285D01*
X91196064Y-30126036D01*
X91202263Y-30072776D01*
X91564751Y-30070236D01*
X91662601Y-30069686D01*
X91742632Y-30069568D01*
X91806390Y-30069921D01*
G37*
G36*
X91059783Y-36907123D02*
G01*
X91060431Y-36954125D01*
X91058906Y-36984491D01*
X91054949Y-37000855D01*
X91050099Y-37005568D01*
X91037844Y-37006602D01*
X91008478Y-37007834D01*
X90964257Y-37009209D01*
X90907434Y-37010667D01*
X90840265Y-37012151D01*
X90765004Y-37013602D01*
X90686249Y-37014927D01*
X90591500Y-37016291D01*
X90514445Y-37017102D01*
X90453418Y-37017326D01*
X90406753Y-37016929D01*
X90372783Y-37015879D01*
X90349843Y-37014141D01*
X90336265Y-37011682D01*
X90330384Y-37008468D01*
X90329992Y-37007750D01*
X90328149Y-36992962D01*
X90327257Y-36963859D01*
X90327414Y-36925475D01*
X90327935Y-36903807D01*
X90330742Y-36812540D01*
X90693875Y-36812540D01*
X91057009Y-36812540D01*
X91059783Y-36907123D01*
G37*
G36*
X91292206Y-33625846D02*
G01*
X91292800Y-33674628D01*
X91291054Y-33706701D01*
X91286732Y-33724607D01*
X91282522Y-33729796D01*
X91270262Y-33731616D01*
X91240890Y-33733297D01*
X91196662Y-33734788D01*
X91139833Y-33736040D01*
X91072659Y-33737003D01*
X90997395Y-33737626D01*
X90918714Y-33737859D01*
X90823767Y-33737775D01*
X90746534Y-33737398D01*
X90685365Y-33736668D01*
X90638609Y-33735526D01*
X90604615Y-33733915D01*
X90581734Y-33731774D01*
X90568312Y-33729045D01*
X90562701Y-33725670D01*
X90562458Y-33725176D01*
X90560589Y-33710315D01*
X90559676Y-33681151D01*
X90559822Y-33642726D01*
X90560341Y-33621078D01*
X90563147Y-33529810D01*
X90926281Y-33529810D01*
X91289415Y-33529810D01*
X91292206Y-33625846D01*
G37*
G36*
X91935089Y-36840552D02*
G01*
X91936534Y-36867573D01*
X91936477Y-36905256D01*
X91935131Y-36941246D01*
X91931311Y-37008854D01*
X91896028Y-37014689D01*
X91878046Y-37016088D01*
X91843259Y-37017374D01*
X91794231Y-37018504D01*
X91733524Y-37019435D01*
X91663701Y-37020126D01*
X91587324Y-37020535D01*
X91533621Y-37020630D01*
X91442225Y-37020525D01*
X91368488Y-37020100D01*
X91310705Y-37019290D01*
X91267170Y-37018030D01*
X91236177Y-37016255D01*
X91216021Y-37013898D01*
X91204996Y-37010894D01*
X91201573Y-37007906D01*
X91199704Y-36993045D01*
X91198791Y-36963880D01*
X91198937Y-36925455D01*
X91199456Y-36903807D01*
X91202263Y-36812540D01*
X91566745Y-36810004D01*
X91931226Y-36807467D01*
X91935089Y-36840552D01*
G37*
G36*
X95660465Y-31412116D02*
G01*
X95661735Y-31413951D01*
X95672160Y-31448175D01*
X95664834Y-31489577D01*
X95639882Y-31537892D01*
X95597433Y-31592855D01*
X95553195Y-31639255D01*
X95502420Y-31685595D01*
X95454293Y-31723271D01*
X95410849Y-31751157D01*
X95374121Y-31768133D01*
X95346144Y-31773072D01*
X95328951Y-31764853D01*
X95328100Y-31763590D01*
X95327695Y-31749742D01*
X95333231Y-31725795D01*
X95335936Y-31717571D01*
X95347701Y-31695688D01*
X95370921Y-31665404D01*
X95406625Y-31625524D01*
X95455838Y-31574856D01*
X95475838Y-31554952D01*
X95529295Y-31502545D01*
X95570993Y-31462878D01*
X95602569Y-31434707D01*
X95625666Y-31416790D01*
X95641921Y-31407881D01*
X95652974Y-31406738D01*
X95660465Y-31412116D01*
G37*
G36*
X89309856Y-30169096D02*
G01*
X89308575Y-30210704D01*
X89306694Y-30244958D01*
X89304509Y-30267293D01*
X89303106Y-30273195D01*
X89292660Y-30274959D01*
X89265017Y-30276584D01*
X89222349Y-30278021D01*
X89166824Y-30279225D01*
X89100615Y-30280150D01*
X89025891Y-30280748D01*
X88944822Y-30280972D01*
X88940274Y-30280973D01*
X88844352Y-30280852D01*
X88766160Y-30280451D01*
X88704063Y-30279712D01*
X88656425Y-30278577D01*
X88621613Y-30276989D01*
X88597989Y-30274889D01*
X88583918Y-30272220D01*
X88577766Y-30268923D01*
X88577326Y-30268142D01*
X88575457Y-30253281D01*
X88574544Y-30224117D01*
X88574690Y-30185692D01*
X88575209Y-30164044D01*
X88578016Y-30072776D01*
X88944907Y-30072776D01*
X89311799Y-30072776D01*
X89309856Y-30169096D01*
G37*
G36*
X90126020Y-36810099D02*
G01*
X90156707Y-36810973D01*
X90170095Y-36812264D01*
X90179508Y-36816385D01*
X90185415Y-36824017D01*
X90188464Y-36838902D01*
X90189299Y-36864782D01*
X90188567Y-36905400D01*
X90188239Y-36917396D01*
X90185488Y-37015895D01*
X89827196Y-37017612D01*
X89745444Y-37017873D01*
X89669597Y-37017863D01*
X89601884Y-37017601D01*
X89544532Y-37017108D01*
X89499771Y-37016402D01*
X89469828Y-37015504D01*
X89456932Y-37014432D01*
X89456800Y-37014384D01*
X89450532Y-37004289D01*
X89446617Y-36979008D01*
X89444848Y-36936838D01*
X89444695Y-36914665D01*
X89444695Y-36819891D01*
X89796947Y-36812762D01*
X89878441Y-36811302D01*
X89954417Y-36810302D01*
X90022553Y-36809766D01*
X90080528Y-36809698D01*
X90126020Y-36810099D01*
G37*
G36*
X95431056Y-32571576D02*
G01*
X95466837Y-32587220D01*
X95507182Y-32614888D01*
X95554262Y-32656031D01*
X95600269Y-32701718D01*
X95644507Y-32748332D01*
X95676441Y-32784687D01*
X95697975Y-32813687D01*
X95711015Y-32838231D01*
X95717466Y-32861221D01*
X95719211Y-32882861D01*
X95717356Y-32907762D01*
X95708640Y-32917633D01*
X95689732Y-32913900D01*
X95669243Y-32904264D01*
X95649238Y-32890437D01*
X95619311Y-32865364D01*
X95582487Y-32832028D01*
X95541795Y-32793414D01*
X95500259Y-32752508D01*
X95460908Y-32712293D01*
X95426768Y-32675754D01*
X95400866Y-32645876D01*
X95386228Y-32625643D01*
X95385707Y-32624672D01*
X95372812Y-32593623D01*
X95373496Y-32574997D01*
X95388114Y-32567071D01*
X95397669Y-32566508D01*
X95431056Y-32571576D01*
G37*
G36*
X96731470Y-33503893D02*
G01*
X96775157Y-33526740D01*
X96823591Y-33562837D01*
X96855901Y-33592213D01*
X96891796Y-33626184D01*
X96928623Y-33659443D01*
X96960367Y-33686613D01*
X96970813Y-33694974D01*
X96998503Y-33721448D01*
X97021815Y-33752775D01*
X97038105Y-33784143D01*
X97044729Y-33810738D01*
X97041914Y-33824415D01*
X97025459Y-33833610D01*
X96996901Y-33830682D01*
X96958942Y-33815996D01*
X96951443Y-33812197D01*
X96916090Y-33789968D01*
X96873084Y-33757438D01*
X96827434Y-33718959D01*
X96784150Y-33678884D01*
X96748244Y-33641563D01*
X96731363Y-33621019D01*
X96714307Y-33593293D01*
X96700485Y-33562339D01*
X96691248Y-33532837D01*
X96687947Y-33509463D01*
X96691933Y-33496897D01*
X96695233Y-33495918D01*
X96731470Y-33503893D01*
G37*
G36*
X97106087Y-33610637D02*
G01*
X97116617Y-33619383D01*
X97126377Y-33635659D01*
X97141067Y-33666955D01*
X97159432Y-33709943D01*
X97180216Y-33761292D01*
X97202164Y-33817675D01*
X97224021Y-33875761D01*
X97244531Y-33932223D01*
X97262441Y-33983731D01*
X97276494Y-34026956D01*
X97285435Y-34058568D01*
X97288078Y-34074132D01*
X97280782Y-34107367D01*
X97261633Y-34128741D01*
X97237980Y-34135033D01*
X97213154Y-34128430D01*
X97199038Y-34118087D01*
X97184421Y-34095057D01*
X97177093Y-34076932D01*
X97168046Y-34049736D01*
X97158118Y-34023672D01*
X97119531Y-33928100D01*
X97087123Y-33844780D01*
X97061276Y-33774784D01*
X97042374Y-33719186D01*
X97030798Y-33679057D01*
X97026929Y-33655681D01*
X97034877Y-33628946D01*
X97054719Y-33610907D01*
X97080456Y-33603995D01*
X97106087Y-33610637D01*
G37*
G36*
X95195798Y-35620882D02*
G01*
X95204955Y-35635923D01*
X95210832Y-35663509D01*
X95212868Y-35697011D01*
X95210502Y-35729800D01*
X95206480Y-35747161D01*
X95186375Y-35794137D01*
X95156236Y-35847348D01*
X95119398Y-35902258D01*
X95079196Y-35954331D01*
X95038966Y-35999030D01*
X95002044Y-36031820D01*
X94992172Y-36038617D01*
X94962014Y-36055880D01*
X94944217Y-36060947D01*
X94936332Y-36054096D01*
X94935332Y-36045117D01*
X94939196Y-36015056D01*
X94951377Y-35979387D01*
X94973031Y-35935703D01*
X95005315Y-35881599D01*
X95037633Y-35832086D01*
X95066098Y-35788901D01*
X95090242Y-35750947D01*
X95108169Y-35721306D01*
X95117989Y-35703061D01*
X95119266Y-35699211D01*
X95125382Y-35685041D01*
X95140565Y-35665226D01*
X95160065Y-35644627D01*
X95179135Y-35628105D01*
X95193025Y-35620518D01*
X95195798Y-35620882D01*
G37*
G36*
X95566530Y-32892486D02*
G01*
X95592185Y-32900102D01*
X95628548Y-32913878D01*
X95678444Y-32934715D01*
X95702816Y-32945224D01*
X95751320Y-32966771D01*
X95793238Y-32986359D01*
X95825462Y-33002458D01*
X95844878Y-33013535D01*
X95849123Y-33017218D01*
X95850563Y-33032419D01*
X95849459Y-33058966D01*
X95848128Y-33072899D01*
X95842800Y-33102405D01*
X95834490Y-33115929D01*
X95827328Y-33117754D01*
X95812060Y-33114108D01*
X95783521Y-33104690D01*
X95746351Y-33091094D01*
X95719647Y-33080729D01*
X95649396Y-33051623D01*
X95592027Y-33025316D01*
X95549224Y-33002651D01*
X95522668Y-32984474D01*
X95517444Y-32979235D01*
X95509812Y-32959753D01*
X95508322Y-32933164D01*
X95508369Y-32932657D01*
X95515324Y-32907053D01*
X95532610Y-32893433D01*
X95536039Y-32892139D01*
X95548757Y-32890132D01*
X95566530Y-32892486D01*
G37*
G36*
X95751645Y-35257400D02*
G01*
X95754231Y-35272454D01*
X95746164Y-35296932D01*
X95729877Y-35325983D01*
X95707805Y-35354755D01*
X95697306Y-35365675D01*
X95674500Y-35383560D01*
X95639321Y-35406403D01*
X95596959Y-35430994D01*
X95561147Y-35449889D01*
X95511018Y-35474101D01*
X95472241Y-35490103D01*
X95439580Y-35499679D01*
X95407797Y-35504616D01*
X95398239Y-35505417D01*
X95364331Y-35506892D01*
X95337479Y-35506331D01*
X95325042Y-35504299D01*
X95313966Y-35491827D01*
X95318929Y-35473483D01*
X95338187Y-35451069D01*
X95369998Y-35426386D01*
X95412618Y-35401236D01*
X95435778Y-35389817D01*
X95476154Y-35370505D01*
X95524708Y-35346518D01*
X95572520Y-35322278D01*
X95584077Y-35316299D01*
X95643894Y-35286823D01*
X95692083Y-35266520D01*
X95727294Y-35255864D01*
X95748180Y-35255329D01*
X95751645Y-35257400D01*
G37*
G36*
X96308320Y-34862309D02*
G01*
X96350000Y-34866929D01*
X96375726Y-34874583D01*
X96402184Y-34891817D01*
X96422656Y-34911462D01*
X96433032Y-34928991D01*
X96432457Y-34937043D01*
X96417189Y-34946366D01*
X96384831Y-34954686D01*
X96337653Y-34961488D01*
X96315187Y-34963664D01*
X96228535Y-34971711D01*
X96155523Y-34979808D01*
X96097615Y-34987758D01*
X96056274Y-34995362D01*
X96034363Y-35001778D01*
X96008230Y-35012126D01*
X95975795Y-35023660D01*
X95943177Y-35034371D01*
X95916493Y-35042251D01*
X95901910Y-35045289D01*
X95894097Y-35037958D01*
X95893952Y-35036236D01*
X95901496Y-35006662D01*
X95921352Y-34972227D01*
X95949356Y-34938248D01*
X95981346Y-34910043D01*
X96002951Y-34897017D01*
X96037759Y-34885165D01*
X96085047Y-34875376D01*
X96140281Y-34867923D01*
X96198927Y-34863079D01*
X96256451Y-34861117D01*
X96308320Y-34862309D01*
G37*
G36*
X97107372Y-33982702D02*
G01*
X97115577Y-33992752D01*
X97126977Y-34015316D01*
X97134552Y-34033726D01*
X97142358Y-34058163D01*
X97147646Y-34085823D01*
X97150829Y-34120934D01*
X97152324Y-34167722D01*
X97152581Y-34217344D01*
X97152297Y-34271754D01*
X97151247Y-34310935D01*
X97148830Y-34339023D01*
X97144447Y-34360156D01*
X97137496Y-34378470D01*
X97127376Y-34398102D01*
X97125960Y-34400672D01*
X97106220Y-34433174D01*
X97091051Y-34448862D01*
X97077996Y-34448970D01*
X97064596Y-34434730D01*
X97062962Y-34432289D01*
X97049510Y-34400700D01*
X97039173Y-34354600D01*
X97032192Y-34298631D01*
X97028805Y-34237434D01*
X97029253Y-34175650D01*
X97033775Y-34117921D01*
X97042610Y-34068889D01*
X97043948Y-34063891D01*
X97055519Y-34035516D01*
X97072141Y-34009150D01*
X97089934Y-33989761D01*
X97105016Y-33982318D01*
X97107372Y-33982702D01*
G37*
G36*
X89748968Y-33816703D02*
G01*
X89768731Y-33818501D01*
X89779495Y-33822549D01*
X89784712Y-33829411D01*
X89787123Y-33836967D01*
X89788123Y-33850187D01*
X89789075Y-33881135D01*
X89789963Y-33928170D01*
X89790772Y-33989653D01*
X89791488Y-34063942D01*
X89792096Y-34149399D01*
X89792583Y-34244383D01*
X89792933Y-34347255D01*
X89793131Y-34456374D01*
X89793171Y-34519955D01*
X89793304Y-35180859D01*
X89676797Y-35180859D01*
X89622451Y-35180189D01*
X89585453Y-35178047D01*
X89563828Y-35174237D01*
X89555666Y-35168754D01*
X89554926Y-35157264D01*
X89554295Y-35128005D01*
X89553775Y-35082577D01*
X89553374Y-35022577D01*
X89553095Y-34949605D01*
X89552944Y-34865260D01*
X89552926Y-34771139D01*
X89553046Y-34668842D01*
X89553308Y-34559967D01*
X89553549Y-34488484D01*
X89556056Y-33820317D01*
X89668631Y-33817600D01*
X89716752Y-33816590D01*
X89748968Y-33816703D01*
G37*
G36*
X94902328Y-35852567D02*
G01*
X94917089Y-35865029D01*
X94922892Y-35889165D01*
X94920856Y-35927730D01*
X94917962Y-35948694D01*
X94911356Y-35988990D01*
X94902465Y-36039236D01*
X94892058Y-36095503D01*
X94880902Y-36153857D01*
X94869765Y-36210368D01*
X94859414Y-36261105D01*
X94850616Y-36302136D01*
X94844139Y-36329529D01*
X94842439Y-36335567D01*
X94826260Y-36364345D01*
X94802905Y-36378681D01*
X94776922Y-36377145D01*
X94756444Y-36362599D01*
X94748936Y-36351454D01*
X94744279Y-36336249D01*
X94742698Y-36314957D01*
X94744420Y-36285554D01*
X94749670Y-36246015D01*
X94758674Y-36194316D01*
X94771657Y-36128431D01*
X94788846Y-36046335D01*
X94794804Y-36018487D01*
X94803363Y-35977913D01*
X94810862Y-35941119D01*
X94815892Y-35915040D01*
X94816435Y-35911968D01*
X94829593Y-35875913D01*
X94853099Y-35854415D01*
X94877492Y-35849025D01*
X94902328Y-35852567D01*
G37*
G36*
X96781258Y-34901792D02*
G01*
X96797088Y-34912638D01*
X96798648Y-34914571D01*
X96811342Y-34936488D01*
X96809806Y-34955143D01*
X96793280Y-34977535D01*
X96791629Y-34979329D01*
X96763332Y-34998950D01*
X96717902Y-35016138D01*
X96702056Y-35020467D01*
X96659291Y-35031471D01*
X96615899Y-35042841D01*
X96586327Y-35050751D01*
X96499386Y-35073676D01*
X96429490Y-35090452D01*
X96375394Y-35101303D01*
X96335854Y-35106453D01*
X96309625Y-35106126D01*
X96298241Y-35102600D01*
X96285262Y-35085200D01*
X96281436Y-35058801D01*
X96286729Y-35031451D01*
X96298623Y-35013241D01*
X96315110Y-35004314D01*
X96345534Y-34992920D01*
X96384928Y-34980794D01*
X96412405Y-34973488D01*
X96468160Y-34959464D01*
X96531319Y-34943411D01*
X96590551Y-34928213D01*
X96605694Y-34924295D01*
X96670994Y-34908555D01*
X96720497Y-34899635D01*
X96756490Y-34897419D01*
X96781258Y-34901792D01*
G37*
G36*
X95315742Y-31561695D02*
G01*
X95324760Y-31574557D01*
X95328806Y-31588627D01*
X95329439Y-31607772D01*
X95326193Y-31634243D01*
X95318601Y-31670294D01*
X95306196Y-31718176D01*
X95288511Y-31780140D01*
X95267725Y-31849711D01*
X95253384Y-31897224D01*
X95240093Y-31941497D01*
X95229443Y-31977219D01*
X95223519Y-31997357D01*
X95204997Y-32046673D01*
X95183003Y-32077641D01*
X95156891Y-32091070D01*
X95148252Y-32091800D01*
X95123281Y-32086700D01*
X95108191Y-32068370D01*
X95107502Y-32066891D01*
X95103006Y-32038809D01*
X95107279Y-31993999D01*
X95120236Y-31932958D01*
X95141790Y-31856184D01*
X95146797Y-31840028D01*
X95158655Y-31801764D01*
X95173490Y-31753183D01*
X95188787Y-31702540D01*
X95194767Y-31682566D01*
X95208477Y-31640388D01*
X95222462Y-31603650D01*
X95234687Y-31577435D01*
X95240405Y-31568784D01*
X95265300Y-31552248D01*
X95292552Y-31550032D01*
X95315742Y-31561695D01*
G37*
G36*
X95383770Y-35286846D02*
G01*
X95394144Y-35302518D01*
X95395982Y-35316701D01*
X95390856Y-35334640D01*
X95377579Y-35357917D01*
X95354964Y-35388116D01*
X95321824Y-35426820D01*
X95276971Y-35475612D01*
X95219220Y-35536075D01*
X95218370Y-35536954D01*
X95168035Y-35588706D01*
X95128997Y-35627947D01*
X95099346Y-35656327D01*
X95077170Y-35675501D01*
X95060559Y-35687122D01*
X95047603Y-35692841D01*
X95036472Y-35694312D01*
X95011536Y-35690546D01*
X94995317Y-35682467D01*
X94986611Y-35664605D01*
X94983696Y-35643873D01*
X94986079Y-35632601D01*
X94994201Y-35617526D01*
X95009522Y-35596911D01*
X95033501Y-35569021D01*
X95067597Y-35532118D01*
X95113271Y-35484468D01*
X95145872Y-35450987D01*
X95192479Y-35403893D01*
X95235752Y-35361271D01*
X95273515Y-35325174D01*
X95303594Y-35297660D01*
X95323813Y-35280782D01*
X95330494Y-35276542D01*
X95359352Y-35274153D01*
X95383770Y-35286846D01*
G37*
G36*
X87970372Y-30368273D02*
G01*
X88014241Y-30369021D01*
X88051423Y-30370927D01*
X88077324Y-30373680D01*
X88086638Y-30376146D01*
X88089009Y-30381332D01*
X88091040Y-30394398D01*
X88092747Y-30416454D01*
X88094143Y-30448611D01*
X88095245Y-30491980D01*
X88096066Y-30547672D01*
X88096622Y-30616797D01*
X88096927Y-30700466D01*
X88096996Y-30799790D01*
X88096845Y-30915880D01*
X88096488Y-31049847D01*
X88096321Y-31099845D01*
X88093837Y-31815819D01*
X87992160Y-31817634D01*
X87948810Y-31817930D01*
X87912170Y-31817293D01*
X87886897Y-31815854D01*
X87878378Y-31814407D01*
X87876010Y-31809646D01*
X87873951Y-31796746D01*
X87872181Y-31774617D01*
X87870684Y-31742171D01*
X87869439Y-31698318D01*
X87868430Y-31641971D01*
X87867638Y-31572040D01*
X87867045Y-31487436D01*
X87866633Y-31387071D01*
X87866384Y-31269856D01*
X87866279Y-31134702D01*
X87866273Y-31088744D01*
X87866273Y-30368125D01*
X87970372Y-30368273D01*
G37*
G36*
X95303189Y-31945284D02*
G01*
X95326327Y-31968083D01*
X95348955Y-32001568D01*
X95349251Y-32002096D01*
X95354393Y-32020000D01*
X95358067Y-32053383D01*
X95360348Y-32103423D01*
X95361312Y-32171299D01*
X95361355Y-32192603D01*
X95361278Y-32253535D01*
X95360778Y-32298256D01*
X95359459Y-32329923D01*
X95356922Y-32351692D01*
X95352769Y-32366721D01*
X95346601Y-32378166D01*
X95338019Y-32389183D01*
X95336286Y-32391248D01*
X95317765Y-32410182D01*
X95302715Y-32420415D01*
X95299972Y-32421005D01*
X95289973Y-32412777D01*
X95277662Y-32392013D01*
X95272297Y-32379850D01*
X95265708Y-32358923D01*
X95260870Y-32331836D01*
X95257496Y-32295367D01*
X95255297Y-32246297D01*
X95253985Y-32181403D01*
X95253894Y-32174111D01*
X95253525Y-32097068D01*
X95254637Y-32037518D01*
X95257458Y-31993629D01*
X95262215Y-31963568D01*
X95269135Y-31945501D01*
X95278445Y-31937595D01*
X95283277Y-31936863D01*
X95303189Y-31945284D01*
G37*
G36*
X96072060Y-35058188D02*
G01*
X96084566Y-35074291D01*
X96087623Y-35095343D01*
X96078892Y-35127707D01*
X96053525Y-35151500D01*
X96012755Y-35165611D01*
X96008758Y-35166305D01*
X95978520Y-35172047D01*
X95937714Y-35180854D01*
X95894524Y-35190952D01*
X95889110Y-35192279D01*
X95832192Y-35205885D01*
X95774935Y-35218805D01*
X95721134Y-35230260D01*
X95674589Y-35239469D01*
X95639096Y-35245650D01*
X95618455Y-35248023D01*
X95617970Y-35248028D01*
X95592771Y-35243126D01*
X95581657Y-35238184D01*
X95568073Y-35219462D01*
X95564710Y-35195126D01*
X95568063Y-35171689D01*
X95580017Y-35153764D01*
X95603415Y-35139448D01*
X95641102Y-35126837D01*
X95681130Y-35117205D01*
X95726989Y-35106926D01*
X95775126Y-35095806D01*
X95811641Y-35087093D01*
X95849537Y-35078575D01*
X95897422Y-35068853D01*
X95946161Y-35059766D01*
X95955698Y-35058102D01*
X96009796Y-35050706D01*
X96047860Y-35050530D01*
X96072060Y-35058188D01*
G37*
G36*
X96995280Y-34595683D02*
G01*
X96997878Y-34602901D01*
X96991234Y-34627155D01*
X96974599Y-34656446D01*
X96952923Y-34683484D01*
X96931349Y-34700880D01*
X96914126Y-34711539D01*
X96885294Y-34731232D01*
X96848672Y-34757284D01*
X96808077Y-34787018D01*
X96802252Y-34791354D01*
X96761384Y-34820827D01*
X96723716Y-34846164D01*
X96693085Y-34864906D01*
X96673328Y-34874595D01*
X96671524Y-34875119D01*
X96644474Y-34881964D01*
X96626050Y-34887077D01*
X96613852Y-34888423D01*
X96611068Y-34878924D01*
X96613648Y-34862688D01*
X96631917Y-34814965D01*
X96666123Y-34767440D01*
X96713237Y-34724223D01*
X96718732Y-34720159D01*
X96745857Y-34700181D01*
X96766261Y-34684543D01*
X96775156Y-34676978D01*
X96785262Y-34669403D01*
X96807405Y-34654837D01*
X96837025Y-34636271D01*
X96840607Y-34634074D01*
X96878943Y-34613910D01*
X96917366Y-34599238D01*
X96952089Y-34590809D01*
X96979323Y-34589373D01*
X96995280Y-34595683D01*
G37*
G36*
X88889846Y-36809400D02*
G01*
X88960517Y-36809839D01*
X89304283Y-36812540D01*
X89307074Y-36908575D01*
X89307669Y-36957358D01*
X89305923Y-36989430D01*
X89301600Y-37007337D01*
X89297391Y-37012525D01*
X89283847Y-37015088D01*
X89253844Y-37017179D01*
X89210063Y-37018810D01*
X89155191Y-37019993D01*
X89091912Y-37020743D01*
X89022908Y-37021072D01*
X88950865Y-37020993D01*
X88878466Y-37020518D01*
X88808397Y-37019660D01*
X88743340Y-37018433D01*
X88685980Y-37016849D01*
X88639002Y-37014920D01*
X88605089Y-37012661D01*
X88586925Y-37010083D01*
X88584794Y-37009116D01*
X88578583Y-36992577D01*
X88574630Y-36958882D01*
X88573177Y-36910138D01*
X88573174Y-36907623D01*
X88573460Y-36865398D01*
X88574911Y-36838650D01*
X88578416Y-36823492D01*
X88584867Y-36816038D01*
X88594962Y-36812445D01*
X88609481Y-36811285D01*
X88641002Y-36810364D01*
X88687163Y-36809697D01*
X88745599Y-36809304D01*
X88813948Y-36809199D01*
X88889846Y-36809400D01*
G37*
G36*
X97272359Y-34336730D02*
G01*
X97284531Y-34356541D01*
X97286633Y-34380476D01*
X97278038Y-34411629D01*
X97258117Y-34453097D01*
X97243457Y-34479106D01*
X97217084Y-34524532D01*
X97188477Y-34574007D01*
X97163178Y-34617944D01*
X97159673Y-34624053D01*
X97125730Y-34682527D01*
X97099132Y-34726507D01*
X97078194Y-34758631D01*
X97061233Y-34781538D01*
X97053052Y-34791095D01*
X97028691Y-34807915D01*
X97001577Y-34812549D01*
X96978370Y-34804754D01*
X96969168Y-34794153D01*
X96960918Y-34773095D01*
X96959144Y-34762414D01*
X96964221Y-34744704D01*
X96978525Y-34713448D01*
X97000671Y-34671299D01*
X97029270Y-34620911D01*
X97059330Y-34570794D01*
X97083853Y-34530425D01*
X97108255Y-34489531D01*
X97127927Y-34455850D01*
X97130795Y-34450825D01*
X97152665Y-34412441D01*
X97167705Y-34386767D01*
X97178580Y-34369633D01*
X97187954Y-34356867D01*
X97198493Y-34344302D01*
X97199935Y-34342641D01*
X97225737Y-34322778D01*
X97251273Y-34321850D01*
X97272359Y-34336730D01*
G37*
G36*
X95042956Y-35487010D02*
G01*
X95046602Y-35490672D01*
X95043307Y-35503109D01*
X95026145Y-35526835D01*
X94996051Y-35560649D01*
X94976095Y-35581320D01*
X94918174Y-35644744D01*
X94868498Y-35708519D01*
X94828590Y-35770100D01*
X94799972Y-35826940D01*
X94784165Y-35876495D01*
X94781589Y-35906564D01*
X94780750Y-35943323D01*
X94775141Y-35975105D01*
X94766062Y-35996935D01*
X94756153Y-36003962D01*
X94743182Y-35996383D01*
X94727105Y-35977557D01*
X94723030Y-35971347D01*
X94709943Y-35946503D01*
X94703143Y-35926427D01*
X94702873Y-35923501D01*
X94697441Y-35906469D01*
X94693189Y-35902285D01*
X94683879Y-35885770D01*
X94684138Y-35856140D01*
X94693364Y-35816761D01*
X94710957Y-35770999D01*
X94720027Y-35752006D01*
X94747322Y-35702980D01*
X94780435Y-35651303D01*
X94816176Y-35601303D01*
X94851352Y-35557305D01*
X94882771Y-35523636D01*
X94898368Y-35510283D01*
X94924394Y-35496735D01*
X94957673Y-35486866D01*
X94992396Y-35481444D01*
X95022760Y-35481236D01*
X95042956Y-35487010D01*
G37*
G36*
X93037299Y-34483070D02*
G01*
X93037221Y-34621476D01*
X93036974Y-34741546D01*
X93036543Y-34844313D01*
X93035907Y-34930806D01*
X93035052Y-35002057D01*
X93033958Y-35059097D01*
X93032608Y-35102958D01*
X93030985Y-35134670D01*
X93029071Y-35155264D01*
X93026849Y-35165773D01*
X93025664Y-35167539D01*
X93011622Y-35170887D01*
X92982810Y-35174288D01*
X92943821Y-35177283D01*
X92910951Y-35178977D01*
X92807871Y-35183224D01*
X92801625Y-35131202D01*
X92800375Y-35110957D01*
X92799265Y-35073591D01*
X92798295Y-35021198D01*
X92797465Y-34955874D01*
X92796776Y-34879712D01*
X92796229Y-34794808D01*
X92795823Y-34703255D01*
X92795559Y-34607149D01*
X92795438Y-34508584D01*
X92795459Y-34409654D01*
X92795624Y-34312454D01*
X92795933Y-34219079D01*
X92796386Y-34131622D01*
X92796984Y-34052180D01*
X92797726Y-33982845D01*
X92798614Y-33925713D01*
X92799648Y-33882879D01*
X92800828Y-33856436D01*
X92801368Y-33850720D01*
X92807526Y-33805792D01*
X92922412Y-33805792D01*
X93037299Y-33805792D01*
X93037299Y-34483070D01*
G37*
G36*
X95180051Y-32280767D02*
G01*
X95199744Y-32297139D01*
X95220013Y-32327059D01*
X95242514Y-32372680D01*
X95253611Y-32398431D01*
X95267997Y-32432121D01*
X95287982Y-32477971D01*
X95311163Y-32530508D01*
X95335134Y-32584256D01*
X95340631Y-32596491D01*
X95363651Y-32648251D01*
X95379396Y-32685769D01*
X95388849Y-32712320D01*
X95392997Y-32731181D01*
X95392824Y-32745627D01*
X95389400Y-32758691D01*
X95380072Y-32779324D01*
X95371523Y-32788929D01*
X95370884Y-32789017D01*
X95355070Y-32791769D01*
X95350043Y-32793254D01*
X95331520Y-32793183D01*
X95314928Y-32788565D01*
X95296994Y-32774106D01*
X95280606Y-32749563D01*
X95277701Y-32743173D01*
X95269062Y-32722890D01*
X95254064Y-32688417D01*
X95234242Y-32643247D01*
X95211128Y-32590877D01*
X95186258Y-32534802D01*
X95186137Y-32534530D01*
X95153644Y-32459256D01*
X95130310Y-32399394D01*
X95115974Y-32353381D01*
X95110473Y-32319655D01*
X95113644Y-32296651D01*
X95125326Y-32282805D01*
X95145356Y-32276555D01*
X95159278Y-32275788D01*
X95180051Y-32280767D01*
G37*
G36*
X96941858Y-33285212D02*
G01*
X96972708Y-33293375D01*
X97004761Y-33309118D01*
X97040967Y-33334189D01*
X97084275Y-33370338D01*
X97134674Y-33416522D01*
X97188267Y-33471334D01*
X97225790Y-33520587D01*
X97248755Y-33566855D01*
X97258669Y-33612707D01*
X97259335Y-33628896D01*
X97255501Y-33663274D01*
X97245587Y-33697899D01*
X97231969Y-33726698D01*
X97217029Y-33743598D01*
X97213812Y-33745112D01*
X97204838Y-33738901D01*
X97192479Y-33719412D01*
X97184266Y-33702052D01*
X97171007Y-33667388D01*
X97160343Y-33633654D01*
X97157447Y-33621975D01*
X97144472Y-33592590D01*
X97118520Y-33556487D01*
X97083183Y-33516982D01*
X97042049Y-33477387D01*
X96998708Y-33441018D01*
X96956752Y-33411190D01*
X96919770Y-33391215D01*
X96901043Y-33385258D01*
X96868985Y-33376771D01*
X96835285Y-33364172D01*
X96805025Y-33349860D01*
X96783290Y-33336232D01*
X96775156Y-33325851D01*
X96784027Y-33313419D01*
X96807457Y-33301389D01*
X96840667Y-33291294D01*
X96878883Y-33284662D01*
X96909262Y-33282879D01*
X96941858Y-33285212D01*
G37*
G36*
X90080087Y-33528819D02*
G01*
X90151458Y-33529007D01*
X90221857Y-33529339D01*
X90288436Y-33529806D01*
X90348349Y-33530399D01*
X90398747Y-33531109D01*
X90436785Y-33531928D01*
X90459615Y-33532846D01*
X90464229Y-33533300D01*
X90467137Y-33542888D01*
X90468976Y-33567706D01*
X90469549Y-33603638D01*
X90469071Y-33633909D01*
X90466312Y-33733165D01*
X90417894Y-33739580D01*
X90396767Y-33741118D01*
X90360134Y-33742443D01*
X90310891Y-33743548D01*
X90251934Y-33744426D01*
X90186160Y-33745070D01*
X90116464Y-33745476D01*
X90045743Y-33745636D01*
X89976894Y-33745543D01*
X89912813Y-33745193D01*
X89856396Y-33744577D01*
X89810539Y-33743691D01*
X89778139Y-33742527D01*
X89762092Y-33741079D01*
X89761832Y-33741015D01*
X89754122Y-33736743D01*
X89749145Y-33726420D01*
X89746330Y-33706524D01*
X89745105Y-33673534D01*
X89744886Y-33636528D01*
X89744886Y-33536469D01*
X89790883Y-33531207D01*
X89808298Y-33530346D01*
X89841823Y-33529682D01*
X89888612Y-33529207D01*
X89945817Y-33528910D01*
X90010591Y-33528784D01*
X90080087Y-33528819D01*
G37*
G36*
X96479976Y-35113877D02*
G01*
X96480862Y-35114781D01*
X96479897Y-35128434D01*
X96470662Y-35152323D01*
X96455998Y-35180820D01*
X96438745Y-35208297D01*
X96424726Y-35226044D01*
X96402359Y-35243326D01*
X96368502Y-35258128D01*
X96321096Y-35271030D01*
X96258087Y-35282614D01*
X96192535Y-35291633D01*
X96137872Y-35298351D01*
X96099396Y-35302855D01*
X96074067Y-35305258D01*
X96058846Y-35305671D01*
X96050692Y-35304204D01*
X96046566Y-35300970D01*
X96044047Y-35297061D01*
X96030264Y-35288662D01*
X96021011Y-35287378D01*
X96002152Y-35280740D01*
X95978974Y-35264457D01*
X95957608Y-35243971D01*
X95944188Y-35224727D01*
X95942370Y-35217575D01*
X95950322Y-35206092D01*
X95974742Y-35197892D01*
X96016472Y-35192820D01*
X96076356Y-35190724D01*
X96090452Y-35190649D01*
X96144854Y-35188173D01*
X96203233Y-35181558D01*
X96259767Y-35171809D01*
X96308631Y-35159933D01*
X96344003Y-35146935D01*
X96344238Y-35146818D01*
X96373404Y-35134612D01*
X96406956Y-35123950D01*
X96439498Y-35116096D01*
X96465637Y-35112317D01*
X96479976Y-35113877D01*
G37*
G36*
X94855140Y-31880202D02*
G01*
X94895324Y-31881602D01*
X94919272Y-31883948D01*
X94925595Y-31886533D01*
X94918911Y-31899559D01*
X94909569Y-31909048D01*
X94897801Y-31919956D01*
X94888153Y-31932585D01*
X94880383Y-31948906D01*
X94874247Y-31970892D01*
X94869505Y-32000516D01*
X94865914Y-32039749D01*
X94863232Y-32090565D01*
X94861216Y-32154934D01*
X94859625Y-32234830D01*
X94858289Y-32326627D01*
X94857810Y-32362940D01*
X94753711Y-32361517D01*
X94703506Y-32360323D01*
X94653805Y-32358282D01*
X94611928Y-32355731D01*
X94594183Y-32354159D01*
X94565872Y-32350799D01*
X94544241Y-32345959D01*
X94528346Y-32337234D01*
X94517241Y-32322216D01*
X94509978Y-32298500D01*
X94505612Y-32263678D01*
X94503197Y-32215345D01*
X94501786Y-32151094D01*
X94501249Y-32117808D01*
X94499724Y-32044828D01*
X94499224Y-31988771D01*
X94501950Y-31947383D01*
X94510104Y-31918408D01*
X94525887Y-31899591D01*
X94551500Y-31888675D01*
X94589146Y-31883406D01*
X94641025Y-31881529D01*
X94709339Y-31880787D01*
X94732918Y-31880456D01*
X94800434Y-31879802D01*
X94855140Y-31880202D01*
G37*
G36*
X95219615Y-32681404D02*
G01*
X95233557Y-32703052D01*
X95248311Y-32732710D01*
X95261278Y-32765177D01*
X95269565Y-32793859D01*
X95279507Y-32813493D01*
X95301128Y-32842070D01*
X95331107Y-32876280D01*
X95366122Y-32912814D01*
X95402855Y-32948361D01*
X95437983Y-32979611D01*
X95468189Y-33003254D01*
X95490150Y-33015981D01*
X95493348Y-33016944D01*
X95526655Y-33026141D01*
X95562359Y-33038822D01*
X95595681Y-33052902D01*
X95621841Y-33066296D01*
X95636059Y-33076917D01*
X95637337Y-33079776D01*
X95628444Y-33096095D01*
X95604820Y-33109900D01*
X95571049Y-33120112D01*
X95531713Y-33125652D01*
X95491396Y-33125440D01*
X95463082Y-33120810D01*
X95437746Y-33108977D01*
X95403159Y-33085429D01*
X95362609Y-33053208D01*
X95319384Y-33015361D01*
X95276771Y-32974930D01*
X95238058Y-32934961D01*
X95206534Y-32898498D01*
X95185485Y-32868585D01*
X95180903Y-32859534D01*
X95171580Y-32825630D01*
X95168504Y-32786756D01*
X95170983Y-32747511D01*
X95178320Y-32712492D01*
X95189822Y-32686297D01*
X95204793Y-32673522D01*
X95209088Y-32672965D01*
X95219615Y-32681404D01*
G37*
G36*
X95974700Y-30981594D02*
G01*
X95989043Y-30990720D01*
X95994128Y-30995899D01*
X96005225Y-31010186D01*
X96010674Y-31024250D01*
X96009225Y-31039657D01*
X95999627Y-31057976D01*
X95980632Y-31080773D01*
X95950989Y-31109617D01*
X95909448Y-31146074D01*
X95854759Y-31191713D01*
X95806555Y-31231127D01*
X95762440Y-31267071D01*
X95719345Y-31302260D01*
X95681562Y-31333182D01*
X95653384Y-31356328D01*
X95648098Y-31360691D01*
X95602989Y-31397466D01*
X95569549Y-31423210D01*
X95544956Y-31439739D01*
X95526384Y-31448871D01*
X95511012Y-31452421D01*
X95505107Y-31452685D01*
X95476523Y-31443989D01*
X95462453Y-31428950D01*
X95452505Y-31403568D01*
X95453091Y-31385715D01*
X95464325Y-31368773D01*
X95489102Y-31342692D01*
X95525156Y-31309525D01*
X95570223Y-31271325D01*
X95622041Y-31230147D01*
X95638261Y-31217749D01*
X95667240Y-31195311D01*
X95706685Y-31164098D01*
X95752133Y-31127673D01*
X95799122Y-31089600D01*
X95816245Y-31075612D01*
X95867206Y-31034736D01*
X95906220Y-31005933D01*
X95935599Y-30988165D01*
X95957656Y-30980397D01*
X95974700Y-30981594D01*
G37*
G36*
X97306756Y-33925384D02*
G01*
X97336553Y-33936818D01*
X97368133Y-33956370D01*
X97395889Y-33980920D01*
X97405546Y-33992638D01*
X97425528Y-34026264D01*
X97439561Y-34065419D01*
X97448192Y-34113343D01*
X97451966Y-34173279D01*
X97451430Y-34248465D01*
X97450976Y-34262263D01*
X97447616Y-34326176D01*
X97441971Y-34374929D01*
X97432864Y-34412696D01*
X97419122Y-34443652D01*
X97399570Y-34471971D01*
X97388200Y-34485377D01*
X97366341Y-34503397D01*
X97337384Y-34518929D01*
X97306462Y-34530319D01*
X97278711Y-34535916D01*
X97259265Y-34534066D01*
X97253711Y-34528673D01*
X97256360Y-34515044D01*
X97267772Y-34489693D01*
X97285861Y-34456941D01*
X97297500Y-34437967D01*
X97346487Y-34360808D01*
X97346487Y-34227857D01*
X97346253Y-34173783D01*
X97345180Y-34135021D01*
X97342709Y-34107515D01*
X97338284Y-34087213D01*
X97331346Y-34070060D01*
X97322591Y-34054130D01*
X97304150Y-34018930D01*
X97287653Y-33981481D01*
X97284140Y-33972103D01*
X97275863Y-33946288D01*
X97274941Y-33932899D01*
X97281399Y-33926435D01*
X97284348Y-33925188D01*
X97306756Y-33925384D01*
G37*
G36*
X95522495Y-31225751D02*
G01*
X95541056Y-31234013D01*
X95553615Y-31245696D01*
X95555012Y-31251351D01*
X95512752Y-31281842D01*
X95478865Y-31303423D01*
X95447150Y-31319939D01*
X95437034Y-31324524D01*
X95408336Y-31341021D01*
X95373599Y-31366815D01*
X95335671Y-31399060D01*
X95297401Y-31434909D01*
X95261639Y-31471514D01*
X95231233Y-31506030D01*
X95209033Y-31535608D01*
X95197889Y-31557402D01*
X95197273Y-31564106D01*
X95196033Y-31579558D01*
X95190765Y-31605738D01*
X95183250Y-31634895D01*
X95175587Y-31658461D01*
X95162167Y-31680149D01*
X95146289Y-31682657D01*
X95128414Y-31665946D01*
X95125926Y-31662297D01*
X95107346Y-31616631D01*
X95103443Y-31559470D01*
X95109347Y-31514197D01*
X95114412Y-31491354D01*
X95120908Y-31472525D01*
X95131215Y-31454423D01*
X95147710Y-31433759D01*
X95172773Y-31407245D01*
X95208783Y-31371593D01*
X95221507Y-31359179D01*
X95261250Y-31321877D01*
X95300030Y-31287994D01*
X95334011Y-31260716D01*
X95359357Y-31243231D01*
X95364319Y-31240555D01*
X95401103Y-31228060D01*
X95444056Y-31221268D01*
X95486684Y-31220418D01*
X95522495Y-31225751D01*
G37*
G36*
X97153985Y-34713206D02*
G01*
X97156880Y-34715402D01*
X97170677Y-34737770D01*
X97177704Y-34772915D01*
X97177518Y-34815311D01*
X97169674Y-34859429D01*
X97168726Y-34862786D01*
X97153512Y-34899961D01*
X97128760Y-34935958D01*
X97092070Y-34973468D01*
X97041046Y-35015177D01*
X97016790Y-35033129D01*
X96947074Y-35079748D01*
X96886557Y-35111297D01*
X96833089Y-35128398D01*
X96784520Y-35131674D01*
X96738700Y-35121750D01*
X96727027Y-35117107D01*
X96696701Y-35101174D01*
X96672630Y-35083543D01*
X96659842Y-35068115D01*
X96658954Y-35064284D01*
X96659640Y-35060966D01*
X96663786Y-35057920D01*
X96674518Y-35054246D01*
X96694966Y-35049049D01*
X96728257Y-35041429D01*
X96774087Y-35031250D01*
X96822217Y-35017780D01*
X96866299Y-34998284D01*
X96914738Y-34968983D01*
X96919341Y-34965909D01*
X96967476Y-34933292D01*
X97002514Y-34908293D01*
X97027552Y-34887902D01*
X97045684Y-34869113D01*
X97060006Y-34848917D01*
X97073614Y-34824305D01*
X97081793Y-34808041D01*
X97104850Y-34762675D01*
X97121786Y-34732743D01*
X97134413Y-34716010D01*
X97144542Y-34710243D01*
X97153985Y-34713206D01*
G37*
G36*
X95607893Y-35004280D02*
G01*
X95636611Y-35011748D01*
X95665208Y-35027518D01*
X95668809Y-35029909D01*
X95692821Y-35049257D01*
X95707578Y-35067446D01*
X95709964Y-35074961D01*
X95707253Y-35083925D01*
X95696675Y-35090120D01*
X95674567Y-35094672D01*
X95637263Y-35098709D01*
X95630909Y-35099272D01*
X95596977Y-35102913D01*
X95567997Y-35108288D01*
X95539208Y-35117015D01*
X95505849Y-35130710D01*
X95463159Y-35150993D01*
X95429975Y-35167557D01*
X95378770Y-35193911D01*
X95341117Y-35215103D01*
X95312937Y-35233986D01*
X95290152Y-35253419D01*
X95268686Y-35276256D01*
X95259678Y-35286837D01*
X95235222Y-35314376D01*
X95214272Y-35334918D01*
X95200685Y-35344749D01*
X95199156Y-35345104D01*
X95190780Y-35336067D01*
X95187198Y-35308278D01*
X95187051Y-35298506D01*
X95189965Y-35251855D01*
X95200076Y-35212584D01*
X95219441Y-35178304D01*
X95250115Y-35146624D01*
X95294156Y-35115152D01*
X95353618Y-35081498D01*
X95389291Y-35063346D01*
X95439893Y-35038649D01*
X95477563Y-35021651D01*
X95506465Y-35010947D01*
X95530761Y-35005132D01*
X95554613Y-35002800D01*
X95569552Y-35002491D01*
X95607893Y-35004280D01*
G37*
G36*
X95097890Y-31892892D02*
G01*
X95099173Y-31905554D01*
X95094883Y-31930716D01*
X95086520Y-31962849D01*
X95075584Y-31996422D01*
X95063572Y-32025907D01*
X95059757Y-32033556D01*
X95050141Y-32062293D01*
X95044016Y-32102735D01*
X95041198Y-32150613D01*
X95041507Y-32201659D01*
X95044758Y-32251606D01*
X95050771Y-32296187D01*
X95059362Y-32331135D01*
X95070350Y-32352180D01*
X95073479Y-32354788D01*
X95082339Y-32367007D01*
X95094093Y-32391020D01*
X95105993Y-32420096D01*
X95115294Y-32447500D01*
X95119250Y-32466499D01*
X95119258Y-32467039D01*
X95111666Y-32477087D01*
X95092056Y-32478286D01*
X95065209Y-32471429D01*
X95035904Y-32457308D01*
X95027402Y-32451812D01*
X94998168Y-32430126D01*
X94976734Y-32409114D01*
X94961863Y-32385267D01*
X94952318Y-32355075D01*
X94946861Y-32315032D01*
X94944254Y-32261627D01*
X94943456Y-32213834D01*
X94942890Y-32149342D01*
X94942858Y-32101142D01*
X94943582Y-32066159D01*
X94945284Y-32041320D01*
X94948185Y-32023552D01*
X94952507Y-32009781D01*
X94958473Y-31996933D01*
X94959222Y-31995477D01*
X94977653Y-31968414D01*
X95003278Y-31941430D01*
X95032117Y-31917468D01*
X95060193Y-31899472D01*
X95083526Y-31890385D01*
X95097890Y-31892892D01*
G37*
G36*
X92343750Y-32283944D02*
G01*
X92357688Y-32309527D01*
X92378592Y-32349445D01*
X92405686Y-32402170D01*
X92438193Y-32466173D01*
X92475338Y-32539926D01*
X92516342Y-32621900D01*
X92560431Y-32710566D01*
X92606543Y-32803820D01*
X92666285Y-32924964D01*
X92718031Y-33029903D01*
X92762347Y-33119806D01*
X92799799Y-33195838D01*
X92830951Y-33259169D01*
X92856370Y-33310964D01*
X92876620Y-33352393D01*
X92892268Y-33384622D01*
X92903878Y-33408819D01*
X92912017Y-33426151D01*
X92917249Y-33437786D01*
X92920139Y-33444892D01*
X92921255Y-33448636D01*
X92921160Y-33450185D01*
X92920420Y-33450707D01*
X92919962Y-33450965D01*
X92909648Y-33456339D01*
X92888054Y-33466552D01*
X92877520Y-33471380D01*
X92844881Y-33486434D01*
X92806958Y-33504226D01*
X92790977Y-33511818D01*
X92763572Y-33524458D01*
X92743846Y-33532725D01*
X92737717Y-33534595D01*
X92732573Y-33526156D01*
X92719503Y-33501796D01*
X92699227Y-33462926D01*
X92672463Y-33410957D01*
X92639932Y-33347298D01*
X92602352Y-33273360D01*
X92560444Y-33190553D01*
X92514926Y-33100288D01*
X92466518Y-33003974D01*
X92438458Y-32948007D01*
X92388891Y-32848931D01*
X92342047Y-32755057D01*
X92298623Y-32667796D01*
X92259318Y-32588564D01*
X92224829Y-32518773D01*
X92195853Y-32459837D01*
X92173089Y-32413170D01*
X92157234Y-32380185D01*
X92148986Y-32362296D01*
X92147951Y-32359398D01*
X92175273Y-32343728D01*
X92209792Y-32326042D01*
X92247142Y-32308299D01*
X92282961Y-32292461D01*
X92312884Y-32280487D01*
X92332546Y-32274337D01*
X92337555Y-32274226D01*
X92343750Y-32283944D01*
G37*
G36*
X92804403Y-35466453D02*
G01*
X92829740Y-35478936D01*
X92861141Y-35496486D01*
X92894200Y-35516422D01*
X92924510Y-35536060D01*
X92947664Y-35552721D01*
X92959255Y-35563722D01*
X92959830Y-35565336D01*
X92955520Y-35576968D01*
X92943217Y-35603905D01*
X92923863Y-35644269D01*
X92898399Y-35696182D01*
X92867766Y-35757766D01*
X92832906Y-35827142D01*
X92794761Y-35902432D01*
X92754272Y-35981759D01*
X92712379Y-36063243D01*
X92670026Y-36145008D01*
X92650171Y-36183108D01*
X92613930Y-36252642D01*
X92574456Y-36328602D01*
X92533537Y-36407531D01*
X92492958Y-36485973D01*
X92454506Y-36560472D01*
X92419968Y-36627571D01*
X92391129Y-36683815D01*
X92372866Y-36719648D01*
X92347252Y-36766881D01*
X92327585Y-36795854D01*
X92313768Y-36806704D01*
X92312350Y-36806788D01*
X92297235Y-36801821D01*
X92270165Y-36789296D01*
X92235876Y-36771480D01*
X92219037Y-36762162D01*
X92184728Y-36742679D01*
X92157430Y-36726947D01*
X92141091Y-36717254D01*
X92138263Y-36715383D01*
X92140178Y-36709261D01*
X92147920Y-36692137D01*
X92161805Y-36663391D01*
X92182149Y-36622401D01*
X92209266Y-36568547D01*
X92243473Y-36501206D01*
X92285083Y-36419760D01*
X92334414Y-36323585D01*
X92391779Y-36212062D01*
X92457496Y-36084569D01*
X92526600Y-35950702D01*
X92580661Y-35846089D01*
X92626564Y-35757405D01*
X92665006Y-35683355D01*
X92696682Y-35622645D01*
X92722289Y-35573979D01*
X92742523Y-35536062D01*
X92758082Y-35507599D01*
X92769660Y-35487296D01*
X92777956Y-35473856D01*
X92783664Y-35465986D01*
X92787482Y-35462389D01*
X92789537Y-35461717D01*
X92804403Y-35466453D01*
G37*
G36*
X91457200Y-33783720D02*
G01*
X91478916Y-33802611D01*
X91507161Y-33830346D01*
X91539062Y-33863856D01*
X91571746Y-33900072D01*
X91602341Y-33935927D01*
X91627972Y-33968352D01*
X91639811Y-33984938D01*
X91686590Y-34060317D01*
X91723237Y-34133793D01*
X91751548Y-34210393D01*
X91773320Y-34295141D01*
X91790347Y-34393063D01*
X91793307Y-34414416D01*
X91799746Y-34466723D01*
X91802845Y-34507113D01*
X91802624Y-34542743D01*
X91799105Y-34580769D01*
X91793922Y-34617771D01*
X91777886Y-34709996D01*
X91758931Y-34788195D01*
X91735070Y-34857688D01*
X91704316Y-34923796D01*
X91664682Y-34991836D01*
X91640179Y-35029336D01*
X91616775Y-35061121D01*
X91586987Y-35097233D01*
X91553705Y-35134666D01*
X91519817Y-35170418D01*
X91488212Y-35201484D01*
X91461779Y-35224860D01*
X91443406Y-35237542D01*
X91438611Y-35238960D01*
X91425828Y-35232113D01*
X91404136Y-35213724D01*
X91377150Y-35187025D01*
X91361179Y-35169767D01*
X91334009Y-35138965D01*
X91312079Y-35113128D01*
X91298441Y-35095903D01*
X91295564Y-35091378D01*
X91299819Y-35079960D01*
X91314485Y-35059961D01*
X91330547Y-35041948D01*
X91395139Y-34964770D01*
X91451562Y-34878198D01*
X91496799Y-34787619D01*
X91527832Y-34698420D01*
X91531636Y-34683100D01*
X91540813Y-34626398D01*
X91545839Y-34557955D01*
X91546713Y-34484732D01*
X91543431Y-34413689D01*
X91535988Y-34351786D01*
X91531798Y-34330937D01*
X91508086Y-34254550D01*
X91473156Y-34175046D01*
X91430156Y-34098081D01*
X91382234Y-34029311D01*
X91334114Y-33975864D01*
X91315355Y-33955259D01*
X91304793Y-33937985D01*
X91303940Y-33934022D01*
X91310173Y-33921330D01*
X91326579Y-33899062D01*
X91349723Y-33871051D01*
X91376169Y-33841133D01*
X91402480Y-33813142D01*
X91425221Y-33790911D01*
X91440956Y-33778276D01*
X91444885Y-33776741D01*
X91457200Y-33783720D01*
G37*
G36*
X94722248Y-36184084D02*
G01*
X94724483Y-36197351D01*
X94721817Y-36222694D01*
X94715638Y-36253869D01*
X94707335Y-36284636D01*
X94698297Y-36308751D01*
X94692412Y-36318194D01*
X94689258Y-36330699D01*
X94686595Y-36358885D01*
X94684640Y-36399069D01*
X94683610Y-36447568D01*
X94683506Y-36469389D01*
X94683629Y-36524655D01*
X94684336Y-36563992D01*
X94686128Y-36590840D01*
X94689510Y-36608637D01*
X94694985Y-36620823D01*
X94703056Y-36630836D01*
X94707852Y-36635732D01*
X94744980Y-36660292D01*
X94787288Y-36666965D01*
X94823254Y-36658504D01*
X94845102Y-36648131D01*
X94861303Y-36635944D01*
X94872694Y-36619064D01*
X94880116Y-36594612D01*
X94884408Y-36559710D01*
X94886410Y-36511478D01*
X94886960Y-36447038D01*
X94886967Y-36439989D01*
X94887679Y-36357457D01*
X94889727Y-36293606D01*
X94893163Y-36247792D01*
X94898041Y-36219372D01*
X94904413Y-36207701D01*
X94906013Y-36207317D01*
X94922241Y-36215299D01*
X94942727Y-36236204D01*
X94963403Y-36265470D01*
X94972624Y-36281979D01*
X94980827Y-36300020D01*
X94986557Y-36319059D01*
X94990245Y-36342937D01*
X94992322Y-36375496D01*
X94993221Y-36420579D01*
X94993380Y-36466900D01*
X94992908Y-36527845D01*
X94991288Y-36572833D01*
X94988217Y-36605254D01*
X94983389Y-36628499D01*
X94977468Y-36644011D01*
X94942218Y-36697343D01*
X94895700Y-36738250D01*
X94841354Y-36765009D01*
X94782618Y-36775901D01*
X94725771Y-36769954D01*
X94678488Y-36748963D01*
X94633187Y-36712226D01*
X94605176Y-36679086D01*
X94576986Y-36640172D01*
X94577146Y-36474583D01*
X94577374Y-36413440D01*
X94578168Y-36368267D01*
X94579891Y-36335668D01*
X94582909Y-36312246D01*
X94587587Y-36294606D01*
X94594288Y-36279351D01*
X94599050Y-36270603D01*
X94616919Y-36246821D01*
X94641872Y-36222944D01*
X94669499Y-36202068D01*
X94695392Y-36187289D01*
X94715144Y-36181702D01*
X94722248Y-36184084D01*
G37*
G36*
X92373342Y-30375267D02*
G01*
X92396911Y-30394637D01*
X92427658Y-30423744D01*
X92463084Y-30459923D01*
X92500691Y-30500514D01*
X92537981Y-30542853D01*
X92572455Y-30584277D01*
X92601615Y-30622123D01*
X92613687Y-30639265D01*
X92653465Y-30705219D01*
X92690941Y-30780189D01*
X92723171Y-30857434D01*
X92747209Y-30930215D01*
X92755412Y-30963665D01*
X92763687Y-31001971D01*
X92772027Y-31038402D01*
X92776525Y-31056782D01*
X92781298Y-31087593D01*
X92783672Y-31130303D01*
X92783888Y-31180955D01*
X92782183Y-31235591D01*
X92778796Y-31290253D01*
X92773968Y-31340985D01*
X92767936Y-31383828D01*
X92760939Y-31414824D01*
X92754027Y-31429311D01*
X92747814Y-31444294D01*
X92746792Y-31454481D01*
X92743368Y-31473735D01*
X92734284Y-31505625D01*
X92721321Y-31544906D01*
X92706261Y-31586336D01*
X92690886Y-31624670D01*
X92682792Y-31642853D01*
X92664592Y-31677194D01*
X92639100Y-31719128D01*
X92608321Y-31765960D01*
X92574255Y-31814995D01*
X92538907Y-31863536D01*
X92504277Y-31908888D01*
X92472370Y-31948355D01*
X92445187Y-31979243D01*
X92424730Y-31998855D01*
X92414013Y-32004648D01*
X92401972Y-31998517D01*
X92379452Y-31982010D01*
X92350144Y-31957951D01*
X92329758Y-31940104D01*
X92298991Y-31912057D01*
X92274125Y-31888525D01*
X92258428Y-31872647D01*
X92254702Y-31867953D01*
X92259669Y-31858231D01*
X92275488Y-31837762D01*
X92299561Y-31809735D01*
X92323616Y-31783375D01*
X92398006Y-31694687D01*
X92455356Y-31606265D01*
X92480946Y-31554362D01*
X92504645Y-31497786D01*
X92522057Y-31450281D01*
X92534132Y-31406836D01*
X92541826Y-31362440D01*
X92546090Y-31312084D01*
X92547877Y-31250756D01*
X92548163Y-31200912D01*
X92547467Y-31128045D01*
X92544651Y-31069680D01*
X92538803Y-31020991D01*
X92529012Y-30977152D01*
X92514365Y-30933334D01*
X92493950Y-30884713D01*
X92484490Y-30863973D01*
X92470437Y-30832941D01*
X92460333Y-30809367D01*
X92456291Y-30798190D01*
X92456285Y-30798078D01*
X92450133Y-30782997D01*
X92433456Y-30757133D01*
X92408920Y-30723884D01*
X92379192Y-30686647D01*
X92346939Y-30648818D01*
X92314827Y-30613795D01*
X92299106Y-30597855D01*
X92268577Y-30566878D01*
X92244407Y-30540447D01*
X92229290Y-30521637D01*
X92225578Y-30513917D01*
X92234920Y-30498723D01*
X92253484Y-30475173D01*
X92277695Y-30447159D01*
X92303973Y-30418573D01*
X92328742Y-30393306D01*
X92348423Y-30375250D01*
X92359439Y-30368297D01*
X92359449Y-30368297D01*
X92373342Y-30375267D01*
G37*
G36*
X93677129Y-33701530D02*
G01*
X93689289Y-33707780D01*
X93705231Y-33719181D01*
X93725749Y-33736489D01*
X93751636Y-33760462D01*
X93783688Y-33791856D01*
X93822699Y-33831427D01*
X93869462Y-33879933D01*
X93924773Y-33938130D01*
X93989425Y-34006776D01*
X94064213Y-34086625D01*
X94149932Y-34178436D01*
X94247375Y-34282965D01*
X94344581Y-34387282D01*
X94425547Y-34474291D01*
X94496431Y-34550727D01*
X94556692Y-34616002D01*
X94605789Y-34669526D01*
X94643183Y-34710710D01*
X94668333Y-34738964D01*
X94680397Y-34753301D01*
X94692106Y-34780681D01*
X94684647Y-34806085D01*
X94675730Y-34815998D01*
X94666460Y-34821811D01*
X94651452Y-34826183D01*
X94627962Y-34829375D01*
X94593247Y-34831649D01*
X94544565Y-34833264D01*
X94481516Y-34834445D01*
X94304761Y-34837092D01*
X94365515Y-34924244D01*
X94404172Y-34974964D01*
X94453942Y-35033152D01*
X94511412Y-35095401D01*
X94573168Y-35158305D01*
X94635796Y-35218458D01*
X94695882Y-35272452D01*
X94750013Y-35316881D01*
X94782762Y-35340620D01*
X94817668Y-35364800D01*
X94845588Y-35385650D01*
X94863149Y-35400558D01*
X94867493Y-35406269D01*
X94860784Y-35416798D01*
X94843214Y-35435790D01*
X94819126Y-35458634D01*
X94787026Y-35492151D01*
X94749960Y-35538255D01*
X94711354Y-35592078D01*
X94674634Y-35648753D01*
X94643227Y-35703412D01*
X94633656Y-35722117D01*
X94616677Y-35766171D01*
X94604343Y-35815892D01*
X94601403Y-35835899D01*
X94595606Y-35873727D01*
X94588052Y-35893558D01*
X94581536Y-35897443D01*
X94570614Y-35890909D01*
X94548614Y-35872795D01*
X94518033Y-35845330D01*
X94481368Y-35810747D01*
X94448696Y-35778819D01*
X94337721Y-35663193D01*
X94240976Y-35549696D01*
X94154859Y-35433352D01*
X94075770Y-35309183D01*
X94000109Y-35172210D01*
X93976788Y-35126373D01*
X93913247Y-34999260D01*
X93848290Y-35073113D01*
X93798887Y-35129100D01*
X93760393Y-35171843D01*
X93730983Y-35202692D01*
X93708836Y-35222999D01*
X93692130Y-35234115D01*
X93679042Y-35237391D01*
X93667748Y-35234178D01*
X93656428Y-35225826D01*
X93650083Y-35220048D01*
X93637080Y-35200481D01*
X93621714Y-35165515D01*
X93605143Y-35118795D01*
X93588528Y-35063966D01*
X93573028Y-35004675D01*
X93559804Y-34944564D01*
X93555970Y-34924244D01*
X93547672Y-34878234D01*
X93539457Y-34832974D01*
X93532781Y-34796465D01*
X93531343Y-34788674D01*
X93525211Y-34743104D01*
X93520481Y-34682973D01*
X93517266Y-34613046D01*
X93515680Y-34538086D01*
X93515835Y-34462858D01*
X93517845Y-34392124D01*
X93520765Y-34343230D01*
X93534761Y-34203545D01*
X93554258Y-34069264D01*
X93578402Y-33945818D01*
X93592407Y-33888102D01*
X93607220Y-33831983D01*
X93618342Y-33791388D01*
X93626803Y-33763060D01*
X93633634Y-33743741D01*
X93639865Y-33730172D01*
X93645245Y-33721061D01*
X93650414Y-33712906D01*
X93655392Y-33706120D01*
X93660974Y-33701457D01*
X93667955Y-33699675D01*
X93677129Y-33701530D01*
G37*
G36*
X98787257Y-33699273D02*
G01*
X98799603Y-33701565D01*
X98811007Y-33709523D01*
X98822004Y-33724769D01*
X98833126Y-33748926D01*
X98844910Y-33783614D01*
X98857889Y-33830457D01*
X98872597Y-33891077D01*
X98889570Y-33967095D01*
X98909341Y-34060134D01*
X98914861Y-34086615D01*
X98921346Y-34125443D01*
X98927967Y-34178564D01*
X98934173Y-34240918D01*
X98939412Y-34307443D01*
X98940181Y-34319021D01*
X98941197Y-34345465D01*
X98941936Y-34386070D01*
X98942400Y-34436518D01*
X98942594Y-34492495D01*
X98942520Y-34549684D01*
X98942182Y-34603769D01*
X98941583Y-34650435D01*
X98940726Y-34685366D01*
X98939894Y-34701522D01*
X98933449Y-34774734D01*
X98927785Y-34831238D01*
X98922600Y-34873665D01*
X98917594Y-34904644D01*
X98915543Y-34914561D01*
X98909034Y-34943743D01*
X98900217Y-34983372D01*
X98890974Y-35024988D01*
X98890767Y-35025922D01*
X98871327Y-35104514D01*
X98851912Y-35164428D01*
X98832202Y-35206350D01*
X98811874Y-35230965D01*
X98790726Y-35238960D01*
X98775048Y-35231951D01*
X98749280Y-35210692D01*
X98713066Y-35174835D01*
X98666053Y-35124031D01*
X98614796Y-35065910D01*
X98585285Y-35033575D01*
X98563485Y-35013192D01*
X98551013Y-35006184D01*
X98548864Y-35007808D01*
X98543228Y-35021429D01*
X98530940Y-35048420D01*
X98513863Y-35084758D01*
X98495634Y-35122757D01*
X98420366Y-35267502D01*
X98339800Y-35400335D01*
X98250835Y-35525545D01*
X98150373Y-35647421D01*
X98035316Y-35770252D01*
X98008424Y-35797150D01*
X97865258Y-35926936D01*
X97710709Y-36043800D01*
X97543340Y-36148654D01*
X97361712Y-36242412D01*
X97192797Y-36314949D01*
X97146057Y-36333428D01*
X97104516Y-36349974D01*
X97072179Y-36362982D01*
X97053052Y-36370849D01*
X97051138Y-36371676D01*
X97032738Y-36379271D01*
X97002511Y-36391227D01*
X96966746Y-36405057D01*
X96963986Y-36406111D01*
X96908543Y-36428201D01*
X96846875Y-36454294D01*
X96782958Y-36482560D01*
X96720765Y-36511165D01*
X96664272Y-36538280D01*
X96617454Y-36562072D01*
X96584284Y-36580710D01*
X96582018Y-36582126D01*
X96507707Y-36632072D01*
X96439329Y-36684778D01*
X96369987Y-36745721D01*
X96338222Y-36775760D01*
X96294457Y-36816119D01*
X96261785Y-36842123D01*
X96239193Y-36854537D01*
X96231703Y-36855892D01*
X96215822Y-36850285D01*
X96191963Y-36832937D01*
X96158744Y-36802700D01*
X96116674Y-36760388D01*
X96025810Y-36677027D01*
X95920523Y-36600565D01*
X95799667Y-36530330D01*
X95662096Y-36465649D01*
X95523199Y-36411682D01*
X95470808Y-36392372D01*
X95408967Y-36368574D01*
X95343293Y-36342543D01*
X95279403Y-36316532D01*
X95222916Y-36292796D01*
X95182209Y-36274857D01*
X95151979Y-36259962D01*
X95115970Y-36240646D01*
X95078031Y-36219185D01*
X95042012Y-36197856D01*
X95011763Y-36178936D01*
X94991131Y-36164699D01*
X94983947Y-36157616D01*
X94991358Y-36149814D01*
X95011222Y-36134657D01*
X95039603Y-36115105D01*
X95046659Y-36110468D01*
X95080169Y-36086489D01*
X95110424Y-36059374D01*
X95140378Y-36025754D01*
X95172986Y-35982261D01*
X95211201Y-35925527D01*
X95217875Y-35915241D01*
X95249148Y-35865619D01*
X95270928Y-35826656D01*
X95284994Y-35793263D01*
X95293125Y-35760350D01*
X95297101Y-35722828D01*
X95298519Y-35684589D01*
X95300547Y-35592780D01*
X95449575Y-35592580D01*
X95506900Y-35592343D01*
X95548848Y-35591455D01*
X95579406Y-35589380D01*
X95602564Y-35585585D01*
X95622311Y-35579536D01*
X95642634Y-35570700D01*
X95653962Y-35565215D01*
X95724318Y-35520393D01*
X95782677Y-35460684D01*
X95829539Y-35385565D01*
X95832458Y-35379600D01*
X95849296Y-35346281D01*
X95863612Y-35320968D01*
X95873034Y-35307754D01*
X95874711Y-35306745D01*
X95886298Y-35313288D01*
X95893071Y-35320209D01*
X95918159Y-35338994D01*
X95958512Y-35355718D01*
X96010047Y-35369114D01*
X96068676Y-35377912D01*
X96082781Y-35379155D01*
X96135774Y-35380562D01*
X96196889Y-35378015D01*
X96260630Y-35372151D01*
X96321499Y-35363605D01*
X96374000Y-35353011D01*
X96412570Y-35341033D01*
X96450068Y-35318958D01*
X96489307Y-35285719D01*
X96523832Y-35247578D01*
X96547190Y-35210797D01*
X96547498Y-35210119D01*
X96559680Y-35186535D01*
X96569820Y-35172696D01*
X96572586Y-35171175D01*
X96578394Y-35179830D01*
X96585767Y-35202273D01*
X96591630Y-35226856D01*
X96616193Y-35318496D01*
X96649105Y-35394459D01*
X96691399Y-35456998D01*
X96703306Y-35470526D01*
X96762615Y-35523794D01*
X96828696Y-35561760D01*
X96903641Y-35585128D01*
X96989540Y-35594603D01*
X97065663Y-35592791D01*
X97118630Y-35587233D01*
X97176817Y-35578231D01*
X97234444Y-35566947D01*
X97285731Y-35554540D01*
X97324898Y-35542174D01*
X97331962Y-35539293D01*
X97447434Y-35486061D01*
X97550068Y-35432968D01*
X97637858Y-35381127D01*
X97708804Y-35331646D01*
X97714463Y-35327213D01*
X97748755Y-35299488D01*
X97787792Y-35267052D01*
X97827638Y-35233271D01*
X97864361Y-35201513D01*
X97894028Y-35175147D01*
X97912705Y-35157538D01*
X97913018Y-35157218D01*
X97964593Y-35101020D01*
X98019364Y-35035919D01*
X98071061Y-34969602D01*
X98106969Y-34919402D01*
X98162751Y-34837092D01*
X97983639Y-34832250D01*
X97906744Y-34829633D01*
X97848215Y-34825686D01*
X97807050Y-34819260D01*
X97782248Y-34809206D01*
X97772809Y-34794374D01*
X97777731Y-34773614D01*
X97796013Y-34745778D01*
X97826654Y-34709716D01*
X97852453Y-34681611D01*
X97879067Y-34653059D01*
X97916567Y-34612886D01*
X97962602Y-34563606D01*
X98014822Y-34507736D01*
X98070876Y-34447790D01*
X98128413Y-34386284D01*
X98155065Y-34357803D01*
X98218260Y-34290195D01*
X98286169Y-34217396D01*
X98355309Y-34143151D01*
X98422195Y-34071204D01*
X98483345Y-34005299D01*
X98535276Y-33949181D01*
X98542408Y-33941456D01*
X98602423Y-33876444D01*
X98650718Y-33824249D01*
X98688715Y-33783464D01*
X98717836Y-33752683D01*
X98739506Y-33730499D01*
X98755145Y-33715503D01*
X98766176Y-33706290D01*
X98774023Y-33701452D01*
X98780107Y-33699581D01*
X98785852Y-33699271D01*
X98787257Y-33699273D01*
G37*
G36*
X96293004Y-30017208D02*
G01*
X96315187Y-30020499D01*
X96427527Y-30043356D01*
X96525327Y-30074664D01*
X96612212Y-30116165D01*
X96691811Y-30169602D01*
X96767749Y-30236716D01*
X96770038Y-30238988D01*
X96848712Y-30330528D01*
X96911381Y-30431406D01*
X96957653Y-30539546D01*
X96987131Y-30652875D01*
X96999422Y-30769318D01*
X96994131Y-30886802D01*
X96970862Y-31003253D01*
X96934707Y-31104362D01*
X96882181Y-31201953D01*
X96814316Y-31292423D01*
X96734112Y-31372732D01*
X96644570Y-31439845D01*
X96556331Y-31487406D01*
X96503579Y-31510735D01*
X96506219Y-31687486D01*
X96508858Y-31864236D01*
X97152816Y-31870242D01*
X97296763Y-31871669D01*
X97422556Y-31873120D01*
X97531410Y-31874648D01*
X97624538Y-31876302D01*
X97703153Y-31878135D01*
X97768470Y-31880196D01*
X97821702Y-31882538D01*
X97864062Y-31885210D01*
X97896765Y-31888263D01*
X97921024Y-31891750D01*
X97938053Y-31895720D01*
X97949065Y-31900225D01*
X97953998Y-31903875D01*
X97958024Y-31917329D01*
X97961313Y-31946478D01*
X97963838Y-31987666D01*
X97965572Y-32037233D01*
X97966489Y-32091522D01*
X97966560Y-32146875D01*
X97965760Y-32199633D01*
X97964062Y-32246139D01*
X97961439Y-32282734D01*
X97957863Y-32305761D01*
X97956968Y-32308586D01*
X97948805Y-32324757D01*
X97936503Y-32337342D01*
X97917641Y-32346904D01*
X97889796Y-32354002D01*
X97850547Y-32359197D01*
X97797474Y-32363048D01*
X97728154Y-32366115D01*
X97704779Y-32366935D01*
X97634202Y-32369388D01*
X97551098Y-32372396D01*
X97462290Y-32375705D01*
X97374600Y-32379060D01*
X97294852Y-32382208D01*
X97293227Y-32382273D01*
X97218463Y-32385225D01*
X97130376Y-32388602D01*
X97034998Y-32392180D01*
X96938362Y-32395734D01*
X96846501Y-32399039D01*
X96799365Y-32400698D01*
X96728950Y-32403169D01*
X96665078Y-32405441D01*
X96610240Y-32407424D01*
X96566930Y-32409027D01*
X96537639Y-32410157D01*
X96524862Y-32410724D01*
X96524532Y-32410754D01*
X96523765Y-32420170D01*
X96523553Y-32446331D01*
X96523867Y-32486625D01*
X96524677Y-32538439D01*
X96525953Y-32599159D01*
X96527254Y-32651026D01*
X96529076Y-32719668D01*
X96531269Y-32803281D01*
X96533721Y-32897479D01*
X96536317Y-32997871D01*
X96538945Y-33100069D01*
X96541489Y-33199685D01*
X96542987Y-33258670D01*
X96548271Y-33466000D01*
X96553219Y-33657330D01*
X96557821Y-33832245D01*
X96562063Y-33990329D01*
X96565936Y-34131168D01*
X96569427Y-34254345D01*
X96572525Y-34359447D01*
X96575219Y-34446058D01*
X96577497Y-34513763D01*
X96577699Y-34519417D01*
X96583695Y-34685921D01*
X96549740Y-34756665D01*
X96533029Y-34792117D01*
X96519307Y-34822392D01*
X96511052Y-34841990D01*
X96510205Y-34844355D01*
X96499468Y-34859574D01*
X96485617Y-34856631D01*
X96476095Y-34844044D01*
X96456207Y-34823559D01*
X96421881Y-34804647D01*
X96378041Y-34789307D01*
X96329611Y-34779538D01*
X96313045Y-34777846D01*
X96273057Y-34776732D01*
X96222546Y-34777960D01*
X96170181Y-34781252D01*
X96150566Y-34783093D01*
X96107998Y-34787537D01*
X96071788Y-34791281D01*
X96046857Y-34793820D01*
X96039205Y-34794567D01*
X96023505Y-34799163D01*
X95996296Y-34809945D01*
X95963464Y-34824579D01*
X95963400Y-34824609D01*
X95932561Y-34838289D01*
X95909267Y-34847173D01*
X95898292Y-34849452D01*
X95898125Y-34849335D01*
X95896821Y-34847277D01*
X95895686Y-34843256D01*
X95894733Y-34836346D01*
X95893975Y-34825623D01*
X95893425Y-34810163D01*
X95893096Y-34789042D01*
X95893000Y-34761333D01*
X95893151Y-34726113D01*
X95893562Y-34682457D01*
X95894245Y-34629441D01*
X95895213Y-34566140D01*
X95896480Y-34491629D01*
X95898058Y-34404984D01*
X95899960Y-34305279D01*
X95902199Y-34191592D01*
X95904789Y-34062996D01*
X95907741Y-33918567D01*
X95911069Y-33757381D01*
X95914786Y-33578512D01*
X95918124Y-33418449D01*
X95920016Y-33333449D01*
X95922224Y-33243520D01*
X95924612Y-33153691D01*
X95927040Y-33068994D01*
X95929371Y-32994459D01*
X95931131Y-32943954D01*
X95933525Y-32868687D01*
X95935527Y-32784323D01*
X95936992Y-32698815D01*
X95937772Y-32620112D01*
X95937852Y-32580892D01*
X95937527Y-32517863D01*
X95936680Y-32471715D01*
X95935101Y-32439966D01*
X95932577Y-32420132D01*
X95928899Y-32409730D01*
X95923854Y-32406278D01*
X95923002Y-32406207D01*
X95898742Y-32405239D01*
X95859386Y-32403430D01*
X95809177Y-32400997D01*
X95752357Y-32398155D01*
X95693169Y-32395122D01*
X95635855Y-32392112D01*
X95584659Y-32389342D01*
X95543822Y-32387028D01*
X95529482Y-32386164D01*
X95440994Y-32380663D01*
X95445963Y-32282228D01*
X95447395Y-32197406D01*
X95443358Y-32116692D01*
X95434312Y-32043844D01*
X95420719Y-31982620D01*
X95403650Y-31937937D01*
X95390595Y-31910325D01*
X95383381Y-31890078D01*
X95383110Y-31882830D01*
X95393687Y-31881141D01*
X95420614Y-31878964D01*
X95460881Y-31876434D01*
X95511481Y-31873686D01*
X95569405Y-31870855D01*
X95631646Y-31868075D01*
X95695194Y-31865481D01*
X95757043Y-31863209D01*
X95814183Y-31861392D01*
X95863607Y-31860166D01*
X95899764Y-31859676D01*
X95958836Y-31859395D01*
X95964964Y-31731087D01*
X95967753Y-31679259D01*
X95970922Y-31630865D01*
X95974095Y-31591065D01*
X95976898Y-31565018D01*
X95977108Y-31563604D01*
X95983123Y-31524428D01*
X95892540Y-31473040D01*
X95842776Y-31444252D01*
X95807885Y-31422452D01*
X95785504Y-31405789D01*
X95773272Y-31392418D01*
X95768826Y-31380489D01*
X95768679Y-31376136D01*
X95776206Y-31365566D01*
X95796551Y-31345733D01*
X95826980Y-31318913D01*
X95864756Y-31287382D01*
X95907144Y-31253417D01*
X95951408Y-31219292D01*
X95994813Y-31187286D01*
X96000765Y-31183033D01*
X96011677Y-31177688D01*
X96026788Y-31176334D01*
X96050035Y-31179382D01*
X96085356Y-31187243D01*
X96116688Y-31195137D01*
X96169354Y-31208180D01*
X96209189Y-31215998D01*
X96241960Y-31218774D01*
X96273434Y-31216690D01*
X96309377Y-31209926D01*
X96341436Y-31202217D01*
X96425684Y-31172481D01*
X96497450Y-31128222D01*
X96557423Y-31068855D01*
X96606291Y-30993797D01*
X96620134Y-30965405D01*
X96633718Y-30933559D01*
X96642297Y-30906414D01*
X96646996Y-30877641D01*
X96648941Y-30840908D01*
X96649270Y-30801541D01*
X96647935Y-30744364D01*
X96643438Y-30700527D01*
X96635040Y-30664153D01*
X96630210Y-30649790D01*
X96593863Y-30569275D01*
X96549075Y-30504783D01*
X96494408Y-30454284D01*
X96489491Y-30450736D01*
X96446098Y-30421697D01*
X96407932Y-30401251D01*
X96370008Y-30388099D01*
X96327340Y-30380944D01*
X96274941Y-30378488D01*
X96214827Y-30379235D01*
X96151264Y-30381949D01*
X96106809Y-30386128D01*
X96081546Y-30391763D01*
X96076478Y-30394755D01*
X96056528Y-30405468D01*
X96047134Y-30406859D01*
X96027822Y-30414281D01*
X96000614Y-30434377D01*
X95968627Y-30463890D01*
X95934980Y-30499564D01*
X95902791Y-30538144D01*
X95875178Y-30576373D01*
X95859254Y-30603034D01*
X95842632Y-30635416D01*
X95831896Y-30660769D01*
X95825738Y-30685105D01*
X95822844Y-30714435D01*
X95821904Y-30754769D01*
X95821784Y-30774835D01*
X95822297Y-30822348D01*
X95824052Y-30867220D01*
X95826737Y-30903003D01*
X95828645Y-30917311D01*
X95835965Y-30958109D01*
X95780227Y-30999391D01*
X95745313Y-31025867D01*
X95703527Y-31058452D01*
X95662892Y-31090873D01*
X95655858Y-31096583D01*
X95624527Y-31121254D01*
X95598267Y-31140362D01*
X95581008Y-31151118D01*
X95577082Y-31152494D01*
X95562846Y-31143381D01*
X95546260Y-31117726D01*
X95528365Y-31078054D01*
X95510204Y-31026890D01*
X95492819Y-30966760D01*
X95481941Y-30921903D01*
X95473288Y-30862554D01*
X95470559Y-30793208D01*
X95473348Y-30719850D01*
X95481249Y-30648467D01*
X95493854Y-30585046D01*
X95507728Y-30542429D01*
X95566955Y-30423034D01*
X95638489Y-30317654D01*
X95721543Y-30226923D01*
X95815330Y-30151478D01*
X95919063Y-30091953D01*
X96031954Y-30048984D01*
X96150566Y-30023570D01*
X96198466Y-30017369D01*
X96233814Y-30014323D01*
X96263148Y-30014310D01*
X96293004Y-30017208D01*
G37*
G36*
X85404700Y-29958969D02*
G01*
X85507009Y-29959093D01*
X85620373Y-29959299D01*
X85743605Y-29959585D01*
X85875518Y-29959951D01*
X86014926Y-29960395D01*
X86160639Y-29960916D01*
X86287852Y-29961415D01*
X87474089Y-29966257D01*
X87477121Y-31718983D01*
X87477432Y-31936789D01*
X87477642Y-32170413D01*
X87477755Y-32417116D01*
X87477773Y-32674156D01*
X87477699Y-32938794D01*
X87477537Y-33208287D01*
X87477288Y-33479896D01*
X87476957Y-33750880D01*
X87476545Y-34018498D01*
X87476056Y-34280009D01*
X87475492Y-34532674D01*
X87474857Y-34773750D01*
X87474152Y-35000499D01*
X87473511Y-35177574D01*
X87466868Y-36883440D01*
X87397852Y-36890389D01*
X87378806Y-36891344D01*
X87341957Y-36892269D01*
X87288870Y-36893158D01*
X87221109Y-36894005D01*
X87140237Y-36894807D01*
X87047819Y-36895557D01*
X86945419Y-36896252D01*
X86834602Y-36896885D01*
X86716932Y-36897452D01*
X86593972Y-36897948D01*
X86467288Y-36898367D01*
X86338442Y-36898704D01*
X86209001Y-36898955D01*
X86080527Y-36899115D01*
X85954585Y-36899177D01*
X85832740Y-36899138D01*
X85716555Y-36898992D01*
X85607595Y-36898734D01*
X85507424Y-36898359D01*
X85417605Y-36897862D01*
X85339705Y-36897237D01*
X85326758Y-36897108D01*
X85077406Y-36894523D01*
X85077406Y-36458971D01*
X85492067Y-36458971D01*
X86245830Y-36461511D01*
X86364975Y-36461942D01*
X86478505Y-36462410D01*
X86584932Y-36462904D01*
X86682768Y-36463417D01*
X86770525Y-36463937D01*
X86846713Y-36464455D01*
X86909846Y-36464962D01*
X86958433Y-36465448D01*
X86990988Y-36465904D01*
X87006021Y-36466320D01*
X87006857Y-36466413D01*
X87008285Y-36457510D01*
X87009620Y-36431072D01*
X87010834Y-36388927D01*
X87011899Y-36332908D01*
X87012787Y-36264843D01*
X87013472Y-36186565D01*
X87013923Y-36099903D01*
X87014115Y-36006688D01*
X87014119Y-35989437D01*
X87014119Y-35510100D01*
X86890088Y-35510100D01*
X86766057Y-35510100D01*
X86763494Y-35832079D01*
X86762671Y-35909256D01*
X86761512Y-35980242D01*
X86760086Y-36042718D01*
X86758463Y-36094364D01*
X86756711Y-36132863D01*
X86754901Y-36155895D01*
X86753667Y-36161545D01*
X86742104Y-36163783D01*
X86714363Y-36165466D01*
X86673631Y-36166512D01*
X86623092Y-36166836D01*
X86567966Y-36166387D01*
X86389529Y-36163741D01*
X86386925Y-35863550D01*
X86384321Y-35563360D01*
X86248934Y-35560331D01*
X86113548Y-35557302D01*
X86113548Y-35857916D01*
X86113548Y-36158530D01*
X86091760Y-36163904D01*
X86074868Y-36165577D01*
X86042490Y-36166681D01*
X85998503Y-36167161D01*
X85946781Y-36166957D01*
X85915034Y-36166509D01*
X85760097Y-36163741D01*
X85757548Y-35836920D01*
X85754998Y-35510100D01*
X85629240Y-35510100D01*
X85503483Y-35510100D01*
X85503150Y-35827237D01*
X85502888Y-35912972D01*
X85502312Y-36000629D01*
X85501468Y-36086168D01*
X85500407Y-36165553D01*
X85499176Y-36234746D01*
X85497824Y-36289708D01*
X85497442Y-36301672D01*
X85492067Y-36458971D01*
X85077406Y-36458971D01*
X85077406Y-34760901D01*
X85504735Y-34760901D01*
X85508696Y-34826216D01*
X85516857Y-34878512D01*
X85542981Y-34962006D01*
X85580678Y-35037733D01*
X85627844Y-35102551D01*
X85682376Y-35153320D01*
X85714920Y-35174211D01*
X85803694Y-35212938D01*
X85893746Y-35232693D01*
X85986841Y-35233707D01*
X86068381Y-35220316D01*
X86140477Y-35197782D01*
X86201496Y-35165945D01*
X86253682Y-35122654D01*
X86299276Y-35065760D01*
X86340522Y-34993113D01*
X86367101Y-34933928D01*
X86374366Y-34910993D01*
X86383230Y-34875276D01*
X86392241Y-34833121D01*
X86399951Y-34790873D01*
X86400308Y-34788674D01*
X86405032Y-34764231D01*
X86412759Y-34728980D01*
X86421078Y-34693631D01*
X86444759Y-34628671D01*
X86480036Y-34578687D01*
X86526085Y-34544318D01*
X86582081Y-34526199D01*
X86640353Y-34524316D01*
X86694276Y-34536444D01*
X86737491Y-34563792D01*
X86771909Y-34607710D01*
X86780187Y-34623072D01*
X86790375Y-34645506D01*
X86796720Y-34666872D01*
X86799890Y-34692354D01*
X86800557Y-34727137D01*
X86799508Y-34772635D01*
X86797577Y-34820552D01*
X86794399Y-34855336D01*
X86788580Y-34883223D01*
X86778725Y-34910446D01*
X86763440Y-34943240D01*
X86759614Y-34951005D01*
X86735001Y-34994743D01*
X86704845Y-35039883D01*
X86675431Y-35077061D01*
X86673812Y-35078851D01*
X86624635Y-35132658D01*
X86715279Y-35228656D01*
X86748691Y-35263718D01*
X86777282Y-35293113D01*
X86798489Y-35314249D01*
X86809749Y-35324538D01*
X86810764Y-35325122D01*
X86820372Y-35319626D01*
X86838544Y-35305312D01*
X86845623Y-35299222D01*
X86902998Y-35239604D01*
X86952191Y-35168024D01*
X86994391Y-35082347D01*
X87030793Y-34980438D01*
X87038808Y-34953295D01*
X87047480Y-34909476D01*
X87053198Y-34852866D01*
X87055965Y-34788881D01*
X87055784Y-34722938D01*
X87052657Y-34660454D01*
X87046586Y-34606843D01*
X87038649Y-34570794D01*
X87000080Y-34467949D01*
X86954134Y-34382618D01*
X86900052Y-34314113D01*
X86837074Y-34261744D01*
X86764441Y-34224825D01*
X86681392Y-34202667D01*
X86625019Y-34196086D01*
X86526343Y-34196680D01*
X86438693Y-34212797D01*
X86361878Y-34244614D01*
X86295706Y-34292311D01*
X86239986Y-34356064D01*
X86194524Y-34436051D01*
X86159131Y-34532451D01*
X86133613Y-34645441D01*
X86132353Y-34652990D01*
X86117262Y-34732179D01*
X86100176Y-34794694D01*
X86079937Y-34843213D01*
X86055382Y-34880411D01*
X86025354Y-34908964D01*
X86019542Y-34913206D01*
X85970343Y-34937196D01*
X85918368Y-34944279D01*
X85867662Y-34935155D01*
X85822273Y-34910524D01*
X85787532Y-34873051D01*
X85762383Y-34818610D01*
X85750935Y-34754429D01*
X85752658Y-34683908D01*
X85767026Y-34610449D01*
X85793509Y-34537450D01*
X85831580Y-34468313D01*
X85855498Y-34435373D01*
X85890096Y-34391946D01*
X85863831Y-34364255D01*
X85844474Y-34345057D01*
X85815710Y-34317956D01*
X85782713Y-34287799D01*
X85771062Y-34277366D01*
X85704557Y-34218169D01*
X85667193Y-34261333D01*
X85637734Y-34300844D01*
X85605683Y-34352838D01*
X85574304Y-34411336D01*
X85546863Y-34470360D01*
X85531157Y-34510449D01*
X85518677Y-34559466D01*
X85509958Y-34621539D01*
X85505233Y-34690679D01*
X85504735Y-34760901D01*
X85077406Y-34760901D01*
X85077406Y-33941362D01*
X85522850Y-33941362D01*
X86268485Y-33941362D01*
X87014119Y-33941362D01*
X87014119Y-33786576D01*
X87014119Y-33631789D01*
X86740559Y-33629218D01*
X86466998Y-33626646D01*
X86461466Y-33442658D01*
X86459110Y-33373567D01*
X86456383Y-33319900D01*
X86452754Y-33277717D01*
X86447690Y-33243077D01*
X86440660Y-33212037D01*
X86431132Y-33180657D01*
X86422911Y-33156993D01*
X86404998Y-33118336D01*
X86378730Y-33074863D01*
X86348902Y-33033669D01*
X86320309Y-33001851D01*
X86314683Y-32996833D01*
X86252943Y-32954459D01*
X86181986Y-32924375D01*
X86099191Y-32905712D01*
X86017121Y-32898160D01*
X85917940Y-32902304D01*
X85827618Y-32923435D01*
X85747005Y-32960906D01*
X85676952Y-33014072D01*
X85618311Y-33082286D01*
X85571933Y-33164900D01*
X85538667Y-33261268D01*
X85538513Y-33261873D01*
X85533947Y-33282989D01*
X85530323Y-33308199D01*
X85527544Y-33339822D01*
X85525510Y-33380175D01*
X85524124Y-33431577D01*
X85523288Y-33496347D01*
X85522904Y-33576802D01*
X85522850Y-33632270D01*
X85522850Y-33941362D01*
X85077406Y-33941362D01*
X85077406Y-33632270D01*
X85077406Y-33429005D01*
X85077418Y-33110518D01*
X85077454Y-32810891D01*
X85077517Y-32529618D01*
X85077609Y-32266194D01*
X85077672Y-32138443D01*
X85506773Y-32138443D01*
X85507110Y-32252530D01*
X85521592Y-32353891D01*
X85547604Y-32446637D01*
X85585350Y-32527178D01*
X85637436Y-32600389D01*
X85675173Y-32641343D01*
X85705635Y-32670707D01*
X85731990Y-32693944D01*
X85750777Y-32708124D01*
X85757483Y-32711095D01*
X85769145Y-32703429D01*
X85787006Y-32683971D01*
X85803673Y-32661857D01*
X85830005Y-32625293D01*
X85859294Y-32586545D01*
X85873517Y-32568512D01*
X85909467Y-32523952D01*
X85867290Y-32478861D01*
X85820050Y-32417773D01*
X85785301Y-32350666D01*
X85763358Y-32280572D01*
X85754531Y-32210520D01*
X85759134Y-32143541D01*
X85777478Y-32082664D01*
X85809878Y-32030919D01*
X85819959Y-32020016D01*
X85850283Y-31994861D01*
X85882727Y-31981023D01*
X85924462Y-31975854D01*
X85940185Y-31975598D01*
X85995430Y-31981249D01*
X86040410Y-31998974D01*
X86075926Y-32029932D01*
X86102778Y-32075279D01*
X86121766Y-32136174D01*
X86133690Y-32213775D01*
X86137351Y-32260894D01*
X86140011Y-32303876D01*
X86142523Y-32338932D01*
X86144576Y-32362045D01*
X86145720Y-32369290D01*
X86155686Y-32370296D01*
X86181174Y-32371381D01*
X86218341Y-32372416D01*
X86263342Y-32373270D01*
X86263906Y-32373278D01*
X86379846Y-32375020D01*
X86385789Y-32250357D01*
X86388840Y-32195997D01*
X86392444Y-32156750D01*
X86397336Y-32128366D01*
X86404254Y-32106590D01*
X86413931Y-32087171D01*
X86414053Y-32086959D01*
X86444319Y-32040926D01*
X86476789Y-32007037D01*
X86517932Y-31978542D01*
X86518105Y-31978440D01*
X86543736Y-31965116D01*
X86567632Y-31958364D01*
X86597505Y-31956724D01*
X86626736Y-31957873D01*
X86682059Y-31966199D01*
X86725544Y-31985512D01*
X86759257Y-32017812D01*
X86785265Y-32065099D01*
X86805635Y-32129373D01*
X86806172Y-32131551D01*
X86815058Y-32172441D01*
X86818195Y-32204625D01*
X86815932Y-32237778D01*
X86811095Y-32268013D01*
X86790946Y-32342515D01*
X86759048Y-32413485D01*
X86718340Y-32475265D01*
X86684477Y-32511558D01*
X86660167Y-32534126D01*
X86642895Y-32551517D01*
X86636460Y-32559862D01*
X86641110Y-32569891D01*
X86653579Y-32592516D01*
X86671647Y-32623772D01*
X86682457Y-32642018D01*
X86705132Y-32680266D01*
X86725958Y-32715881D01*
X86741514Y-32742998D01*
X86745326Y-32749842D01*
X86762198Y-32780644D01*
X86807728Y-32748517D01*
X86841624Y-32722643D01*
X86875742Y-32693603D01*
X86889325Y-32680865D01*
X86915387Y-32652228D01*
X86943724Y-32616694D01*
X86960019Y-32593921D01*
X86975596Y-32569009D01*
X86989384Y-32542155D01*
X87002923Y-32509511D01*
X87017754Y-32467228D01*
X87035418Y-32411461D01*
X87042826Y-32387149D01*
X87049201Y-32355120D01*
X87054095Y-32309273D01*
X87057301Y-32255116D01*
X87058610Y-32198157D01*
X87057813Y-32143902D01*
X87054702Y-32097861D01*
X87053998Y-32091800D01*
X87044778Y-32028846D01*
X87033567Y-31978219D01*
X87018273Y-31932882D01*
X86996808Y-31885795D01*
X86987390Y-31867482D01*
X86943689Y-31796801D01*
X86894167Y-31742602D01*
X86835471Y-31702352D01*
X86764246Y-31673518D01*
X86713397Y-31660491D01*
X86625459Y-31650707D01*
X86541551Y-31658998D01*
X86463622Y-31684435D01*
X86393619Y-31726088D01*
X86333490Y-31783029D01*
X86285184Y-31854329D01*
X86278168Y-31868056D01*
X86262373Y-31895542D01*
X86248022Y-31912180D01*
X86240750Y-31915122D01*
X86230347Y-31905329D01*
X86217447Y-31882685D01*
X86208572Y-31861736D01*
X86180705Y-31809600D01*
X86138653Y-31759290D01*
X86087327Y-31715845D01*
X86038693Y-31687435D01*
X85989079Y-31670007D01*
X85934037Y-31659441D01*
X85880235Y-31656400D01*
X85834343Y-31661547D01*
X85820445Y-31665756D01*
X85755383Y-31693205D01*
X85704861Y-31721636D01*
X85664223Y-31754602D01*
X85628813Y-31795657D01*
X85605410Y-31829909D01*
X85556316Y-31924676D01*
X85523307Y-32028339D01*
X85506773Y-32138443D01*
X85077672Y-32138443D01*
X85077730Y-32020111D01*
X85077884Y-31790864D01*
X85078070Y-31577945D01*
X85078293Y-31380848D01*
X85078552Y-31199068D01*
X85078851Y-31032098D01*
X85079190Y-30879431D01*
X85079201Y-30875407D01*
X85514903Y-30875407D01*
X85515776Y-30950299D01*
X85529600Y-31057354D01*
X85559176Y-31153382D01*
X85604315Y-31238090D01*
X85664826Y-31311183D01*
X85740521Y-31372366D01*
X85813357Y-31413240D01*
X85845115Y-31427853D01*
X85869782Y-31438469D01*
X85882400Y-31442962D01*
X85882762Y-31442994D01*
X85889585Y-31434758D01*
X85899365Y-31413932D01*
X85903986Y-31401846D01*
X85928443Y-31333006D01*
X85946577Y-31280178D01*
X85958972Y-31241284D01*
X85966216Y-31214241D01*
X85968893Y-31196972D01*
X85967590Y-31187395D01*
X85965199Y-31184515D01*
X85949728Y-31175305D01*
X85925100Y-31162063D01*
X85916818Y-31157812D01*
X85886301Y-31137951D01*
X85856374Y-31111876D01*
X85849883Y-31104923D01*
X85826481Y-31072790D01*
X85803492Y-31032097D01*
X85783709Y-30988922D01*
X85769928Y-30949347D01*
X85764939Y-30920149D01*
X85774080Y-30859473D01*
X85799690Y-30803784D01*
X85839054Y-30756896D01*
X85889453Y-30722622D01*
X85912349Y-30713213D01*
X85970646Y-30700206D01*
X86026205Y-30702987D01*
X86082815Y-30722206D01*
X86133671Y-30751349D01*
X86155630Y-30766274D01*
X86175863Y-30781293D01*
X86195985Y-30798117D01*
X86217611Y-30818458D01*
X86242359Y-30844030D01*
X86271841Y-30876543D01*
X86307676Y-30917710D01*
X86351477Y-30969244D01*
X86404860Y-31032856D01*
X86447631Y-31084091D01*
X86496272Y-31142239D01*
X86545124Y-31200296D01*
X86591512Y-31255110D01*
X86632764Y-31303529D01*
X86666204Y-31342399D01*
X86683553Y-31362263D01*
X86754855Y-31443001D01*
X86903854Y-31443001D01*
X87052854Y-31443001D01*
X87052854Y-30915247D01*
X87052854Y-30387492D01*
X86916406Y-30387492D01*
X86779959Y-30387492D01*
X86781820Y-30685262D01*
X86782417Y-30785435D01*
X86782811Y-30867924D01*
X86782962Y-30934411D01*
X86782831Y-30986579D01*
X86782379Y-31026110D01*
X86781566Y-31054686D01*
X86780352Y-31073990D01*
X86778698Y-31085704D01*
X86776564Y-31091511D01*
X86773911Y-31093092D01*
X86772241Y-31092779D01*
X86763606Y-31084382D01*
X86744771Y-31062549D01*
X86717290Y-31029237D01*
X86682717Y-30986401D01*
X86642609Y-30935997D01*
X86598520Y-30879980D01*
X86552005Y-30820307D01*
X86504620Y-30758932D01*
X86457919Y-30697812D01*
X86452173Y-30690243D01*
X86381541Y-30602552D01*
X86314636Y-30530429D01*
X86252306Y-30474693D01*
X86195401Y-30436163D01*
X86181290Y-30428917D01*
X86094657Y-30397323D01*
X86005880Y-30382770D01*
X85917668Y-30384815D01*
X85832729Y-30403012D01*
X85753770Y-30436917D01*
X85683500Y-30486086D01*
X85653086Y-30515589D01*
X85594835Y-30591343D01*
X85552595Y-30675909D01*
X85526054Y-30770269D01*
X85514903Y-30875407D01*
X85079201Y-30875407D01*
X85079571Y-30740561D01*
X85079997Y-30614981D01*
X85080469Y-30502186D01*
X85080988Y-30401668D01*
X85081557Y-30312922D01*
X85082178Y-30235441D01*
X85082851Y-30168719D01*
X85083579Y-30112249D01*
X85084364Y-30065525D01*
X85085207Y-30028040D01*
X85086110Y-29999289D01*
X85087075Y-29978764D01*
X85088104Y-29965960D01*
X85089198Y-29960370D01*
X85089510Y-29960030D01*
X85100551Y-29959632D01*
X85129771Y-29959324D01*
X85175983Y-29959105D01*
X85238000Y-29958974D01*
X85314635Y-29958929D01*
X85404700Y-29958969D01*
G37*
%TD*%
M02*
