%TF.GenerationSoftware,KiCad,Pcbnew,10.0.5-10.0.5~ubuntu24.04.1*%
%TF.CreationDate,2026-08-25T15:34:29+02:00*%
%TF.ProjectId,wifilorav4_adapter,77696669-6c6f-4726-9176-345f61646170,rev?*%
%TF.SameCoordinates,Original*%
%TF.FileFunction,Copper,L1,Top*%
%TF.FilePolarity,Positive*%
%FSLAX46Y46*%
G04 Gerber Fmt 4.6, Leading zero omitted, Abs format (unit mm)*
G04 Created by KiCad (PCBNEW 10.0.5-10.0.5~ubuntu24.04.1) date 2026-08-25 15:34:29*
%MOMM*%
%LPD*%
G01*
G04 APERTURE LIST*
%TA.AperFunction,ComponentPad*%
%ADD10R,1.700000X1.700000*%
%TD*%
%TA.AperFunction,ComponentPad*%
%ADD11C,1.700000*%
%TD*%
%TA.AperFunction,ViaPad*%
%ADD12C,0.600000*%
%TD*%
%TA.AperFunction,Conductor*%
%ADD13C,0.254000*%
%TD*%
G04 APERTURE END LIST*
D10*
%TO.P,J4,1,Pin_1_1*%
%TO.N,GND*%
X105410000Y-73914000D03*
D11*
%TO.P,J4,2,Pin_2_2*%
%TO.N,+5V*%
X105410000Y-71374000D03*
%TO.P,J4,3,Pin_3_3*%
%TO.N,/Ve_2*%
X105410000Y-68834000D03*
%TO.P,J4,4,Pin_4_4*%
%TO.N,/Ve_1*%
X105410000Y-66294000D03*
%TO.P,J4,5,Pin_5_5*%
%TO.N,/GPIO44*%
X105410000Y-63754000D03*
%TO.P,J4,6,Pin_6_6*%
%TO.N,/GPIO43*%
X105410000Y-61214000D03*
%TO.P,J4,7,Pin_7_7*%
%TO.N,/SW_RST*%
X105410000Y-58674000D03*
%TO.P,J4,8,Pin_8_8*%
%TO.N,/GPIO0*%
X105410000Y-56134000D03*
%TO.P,J4,9,Pin_9_9*%
%TO.N,/GPIO36*%
X105410000Y-53594000D03*
%TO.P,J4,10,Pin_10_10*%
%TO.N,/GPIO35*%
X105410000Y-51054000D03*
%TO.P,J4,11,Pin_11_11*%
%TO.N,/GPIO34*%
X105410000Y-48514000D03*
%TO.P,J4,12,Pin_12_12*%
%TO.N,/GPIO33*%
X105410000Y-45974000D03*
%TO.P,J4,13,Pin_13_13*%
%TO.N,/GPIO47*%
X105410000Y-43434000D03*
%TO.P,J4,14,Pin_14_14*%
%TO.N,/GPIO48*%
X105410000Y-40894000D03*
%TO.P,J4,15,Pin_15_15*%
%TO.N,/GPIO26*%
X105410000Y-38354000D03*
%TO.P,J4,16,Pin_16_16*%
%TO.N,/GPIO21*%
X105410000Y-35814000D03*
%TO.P,J4,17,Pin_17_17*%
%TO.N,/GPIO20*%
X105410000Y-33274000D03*
%TO.P,J4,18,Pin_18_18*%
%TO.N,/GPIO19*%
X105410000Y-30734000D03*
%TD*%
D10*
%TO.P,J3,1,Pin_1_1*%
%TO.N,GND*%
X82550000Y-73914000D03*
D11*
%TO.P,J3,2,Pin_2_2*%
%TO.N,+3.3V*%
X82550000Y-71374000D03*
%TO.P,J3,3,Pin_3_3*%
X82550000Y-68834000D03*
%TO.P,J3,4,Pin_4_4*%
%TO.N,/GPIO37*%
X82550000Y-66294000D03*
%TO.P,J3,5,Pin_5_5*%
%TO.N,/GPIO46*%
X82550000Y-63754000D03*
%TO.P,J3,6,Pin_6_6*%
%TO.N,/GPIO45*%
X82550000Y-61214000D03*
%TO.P,J3,7,Pin_7_7*%
%TO.N,/GPIO42*%
X82550000Y-58674000D03*
%TO.P,J3,8,Pin_8_8*%
%TO.N,/GPIO41*%
X82550000Y-56134000D03*
%TO.P,J3,9,Pin_9_9*%
%TO.N,/GPIO40*%
X82550000Y-53594000D03*
%TO.P,J3,10,Pin_10_10*%
%TO.N,/GPIO39*%
X82550000Y-51054000D03*
%TO.P,J3,11,Pin_11_11*%
%TO.N,/GPIO38*%
X82550000Y-48514000D03*
%TO.P,J3,12,Pin_12_12*%
%TO.N,/GPIO1*%
X82550000Y-45974000D03*
%TO.P,J3,13,Pin_13_13*%
%TO.N,/GPIO2*%
X82550000Y-43434000D03*
%TO.P,J3,14,Pin_14_14*%
%TO.N,/GPIO3*%
X82550000Y-40894000D03*
%TO.P,J3,15,Pin_15_15*%
%TO.N,/GPIO4*%
X82550000Y-38354000D03*
%TO.P,J3,16,Pin_16_16*%
%TO.N,/GPIO5*%
X82550000Y-35814000D03*
%TO.P,J3,17,Pin_17_17*%
%TO.N,/GPIO6*%
X82550000Y-33274000D03*
%TO.P,J3,18,Pin_18_18*%
%TO.N,/GPIO7*%
X82550000Y-30734000D03*
%TD*%
D10*
%TO.P,J1,1,Pin_1_1*%
%TO.N,+3.3V*%
X76200000Y-25400000D03*
D11*
%TO.P,J1,2,Pin_2_2*%
X76200000Y-27940000D03*
%TO.P,J1,3,Pin_3_3*%
%TO.N,/RST*%
X76200000Y-30480000D03*
%TO.P,J1,4,Pin_4_4*%
%TO.N,/IO4*%
X76200000Y-33020000D03*
%TO.P,J1,5,Pin_5_5*%
%TO.N,/IO5*%
X76200000Y-35560000D03*
%TO.P,J1,6,Pin_6_6*%
%TO.N,/IO6*%
X76200000Y-38100000D03*
%TO.P,J1,7,Pin_7_7*%
%TO.N,/IO7*%
X76200000Y-40640000D03*
%TO.P,J1,8,Pin_8_8*%
%TO.N,/GPIO6*%
X76200000Y-43180000D03*
%TO.P,J1,9,Pin_9_9*%
%TO.N,/GPIO4*%
X76200000Y-45720000D03*
%TO.P,J1,10,Pin_10_10*%
%TO.N,/GPIO48*%
X76200000Y-48260000D03*
%TO.P,J1,11,Pin_11_11*%
%TO.N,/GPIO38*%
X76200000Y-50800000D03*
%TO.P,J1,12,Pin_12_12*%
%TO.N,/IO8*%
X76200000Y-53340000D03*
%TO.P,J1,13,Pin_13_13*%
%TO.N,/IO3*%
X76200000Y-55880000D03*
%TO.P,J1,14,Pin_14_14*%
%TO.N,/IO46*%
X76200000Y-58420000D03*
%TO.P,J1,15,Pin_15_15*%
%TO.N,/IO9*%
X76200000Y-60960000D03*
%TO.P,J1,16,Pin_16_16*%
%TO.N,/GPIO39*%
X76200000Y-63500000D03*
%TO.P,J1,17,Pin_17_17*%
%TO.N,/GPIO40*%
X76200000Y-66040000D03*
%TO.P,J1,18,Pin_18_18*%
%TO.N,/GPIO41*%
X76200000Y-68580000D03*
%TO.P,J1,19,Pin_19_19*%
%TO.N,/GPIO42*%
X76200000Y-71120000D03*
%TO.P,J1,20,Pin_20_20*%
%TO.N,/IO14*%
X76200000Y-73660000D03*
%TO.P,J1,21,Pin_21_21*%
%TO.N,+5V*%
X76200000Y-76200000D03*
%TO.P,J1,22,Pin_22_22*%
%TO.N,GND*%
X76200000Y-78740000D03*
%TD*%
D10*
%TO.P,J2,1,Pin_1_1*%
%TO.N,GND*%
X101600000Y-25400000D03*
D11*
%TO.P,J2,2,Pin_2_2*%
%TO.N,/IO43*%
X101600000Y-27940000D03*
%TO.P,J2,3,Pin_3_3*%
%TO.N,/IO44*%
X101600000Y-30480000D03*
%TO.P,J2,4,Pin_4_4*%
%TO.N,/IO1*%
X101600000Y-33020000D03*
%TO.P,J2,5,Pin_5_5*%
%TO.N,/IO2*%
X101600000Y-35560000D03*
%TO.P,J2,6,Pin_6_6*%
%TO.N,/IO42*%
X101600000Y-38100000D03*
%TO.P,J2,7,Pin_7_7*%
%TO.N,/IO41*%
X101600000Y-40640000D03*
%TO.P,J2,8,Pin_8_8*%
%TO.N,/IO40*%
X101600000Y-43180000D03*
%TO.P,J2,9,Pin_9_9*%
%TO.N,/IO39*%
X101600000Y-45720000D03*
%TO.P,J2,10,Pin_10_10*%
%TO.N,/IO38*%
X101600000Y-48260000D03*
%TO.P,J2,11,Pin_11_11*%
%TO.N,/IO37*%
X101600000Y-50800000D03*
%TO.P,J2,12,Pin_12_12*%
%TO.N,/IO36*%
X101600000Y-53340000D03*
%TO.P,J2,13,Pin_13_13*%
%TO.N,/IO35*%
X101600000Y-55880000D03*
%TO.P,J2,14,Pin_14_14*%
%TO.N,/IO0*%
X101600000Y-58420000D03*
%TO.P,J2,15,Pin_15_15*%
%TO.N,/IO45*%
X101600000Y-60960000D03*
%TO.P,J2,16,Pin_16_16*%
%TO.N,/IO48*%
X101600000Y-63500000D03*
%TO.P,J2,17,Pin_17_17*%
%TO.N,/IO47*%
X101600000Y-66040000D03*
%TO.P,J2,18,Pin_18_18*%
%TO.N,/IO21*%
X101600000Y-68580000D03*
%TO.P,J2,19,Pin_19_19*%
%TO.N,/IO20*%
X101600000Y-71120000D03*
%TO.P,J2,20,Pin_20_20*%
%TO.N,/IO19*%
X101600000Y-73660000D03*
%TO.P,J2,21,Pin_21_21*%
%TO.N,GND*%
X101600000Y-76200000D03*
%TO.P,J2,22,Pin_22_22*%
X101600000Y-78740000D03*
%TD*%
D12*
%TO.N,/GPIO48*%
X80950000Y-47200000D03*
X86400000Y-47250000D03*
%TD*%
%TO.N,/GPIO48*%
D13*
X86350000Y-47200000D02*
X80950000Y-47200000D01*
X86400000Y-47250000D02*
X86350000Y-47200000D01*
%TD*%
%TA.AperFunction,Conductor*%
%TO.N,GND*%
G36*
X75734075Y-78932993D02*
G01*
X75799901Y-79047007D01*
X75892993Y-79140099D01*
X76007007Y-79205925D01*
X76070590Y-79222962D01*
X75438282Y-79855269D01*
X75438282Y-79855271D01*
X75465687Y-79875182D01*
X75508353Y-79930512D01*
X75514332Y-80000125D01*
X75481727Y-80061920D01*
X75420888Y-80096277D01*
X75392802Y-80099500D01*
X74874000Y-80099500D01*
X74806961Y-80079815D01*
X74761206Y-80027011D01*
X74750000Y-79975500D01*
X74750000Y-79384342D01*
X74769685Y-79317303D01*
X74822489Y-79271548D01*
X74891647Y-79261604D01*
X74955203Y-79290629D01*
X74984485Y-79328047D01*
X75045375Y-79447550D01*
X75084728Y-79501716D01*
X75717037Y-78869408D01*
X75734075Y-78932993D01*
G37*
%TD.AperFunction*%
%TA.AperFunction,Conductor*%
G36*
X100253989Y-24169685D02*
G01*
X100299744Y-24222489D01*
X100309688Y-24291647D01*
X100303132Y-24317333D01*
X100256403Y-24442619D01*
X100256401Y-24442627D01*
X100250000Y-24502155D01*
X100250000Y-25150000D01*
X101166988Y-25150000D01*
X101134075Y-25207007D01*
X101100000Y-25334174D01*
X101100000Y-25465826D01*
X101134075Y-25592993D01*
X101166988Y-25650000D01*
X100250000Y-25650000D01*
X100250000Y-26297844D01*
X100256401Y-26357372D01*
X100256403Y-26357379D01*
X100306645Y-26492086D01*
X100306649Y-26492093D01*
X100392809Y-26607187D01*
X100392812Y-26607190D01*
X100507906Y-26693350D01*
X100507913Y-26693354D01*
X100639470Y-26742422D01*
X100695404Y-26784293D01*
X100719821Y-26849758D01*
X100704969Y-26918031D01*
X100683819Y-26946285D01*
X100569889Y-27060215D01*
X100444951Y-27232179D01*
X100348444Y-27421585D01*
X100282753Y-27623760D01*
X100249500Y-27833713D01*
X100249500Y-28046286D01*
X100282753Y-28256239D01*
X100348444Y-28458414D01*
X100444951Y-28647820D01*
X100569890Y-28819786D01*
X100720213Y-28970109D01*
X100892182Y-29095050D01*
X100900946Y-29099516D01*
X100951742Y-29147491D01*
X100968536Y-29215312D01*
X100945998Y-29281447D01*
X100900946Y-29320484D01*
X100892182Y-29324949D01*
X100720213Y-29449890D01*
X100569890Y-29600213D01*
X100444951Y-29772179D01*
X100348444Y-29961585D01*
X100282753Y-30163760D01*
X100249500Y-30373713D01*
X100249500Y-30586286D01*
X100282753Y-30796239D01*
X100348444Y-30998414D01*
X100444951Y-31187820D01*
X100569890Y-31359786D01*
X100720213Y-31510109D01*
X100892182Y-31635050D01*
X100900946Y-31639516D01*
X100951742Y-31687491D01*
X100968536Y-31755312D01*
X100945998Y-31821447D01*
X100900946Y-31860484D01*
X100892182Y-31864949D01*
X100720213Y-31989890D01*
X100569890Y-32140213D01*
X100444951Y-32312179D01*
X100348444Y-32501585D01*
X100282753Y-32703760D01*
X100249500Y-32913713D01*
X100249500Y-33126286D01*
X100282753Y-33336239D01*
X100348444Y-33538414D01*
X100444951Y-33727820D01*
X100569890Y-33899786D01*
X100720213Y-34050109D01*
X100892182Y-34175050D01*
X100900946Y-34179516D01*
X100951742Y-34227491D01*
X100968536Y-34295312D01*
X100945998Y-34361447D01*
X100900946Y-34400484D01*
X100892182Y-34404949D01*
X100720213Y-34529890D01*
X100569890Y-34680213D01*
X100444951Y-34852179D01*
X100348444Y-35041585D01*
X100282753Y-35243760D01*
X100249500Y-35453713D01*
X100249500Y-35666286D01*
X100282753Y-35876239D01*
X100348444Y-36078414D01*
X100444951Y-36267820D01*
X100569890Y-36439786D01*
X100720213Y-36590109D01*
X100892182Y-36715050D01*
X100900946Y-36719516D01*
X100951742Y-36767491D01*
X100968536Y-36835312D01*
X100945998Y-36901447D01*
X100900946Y-36940484D01*
X100892182Y-36944949D01*
X100720213Y-37069890D01*
X100569890Y-37220213D01*
X100444951Y-37392179D01*
X100348444Y-37581585D01*
X100282753Y-37783760D01*
X100249500Y-37993713D01*
X100249500Y-38206286D01*
X100282753Y-38416239D01*
X100348444Y-38618414D01*
X100444951Y-38807820D01*
X100569890Y-38979786D01*
X100720213Y-39130109D01*
X100892182Y-39255050D01*
X100900946Y-39259516D01*
X100951742Y-39307491D01*
X100968536Y-39375312D01*
X100945998Y-39441447D01*
X100900946Y-39480484D01*
X100892182Y-39484949D01*
X100720213Y-39609890D01*
X100569890Y-39760213D01*
X100444951Y-39932179D01*
X100348444Y-40121585D01*
X100282753Y-40323760D01*
X100249500Y-40533713D01*
X100249500Y-40746286D01*
X100282753Y-40956239D01*
X100348444Y-41158414D01*
X100444951Y-41347820D01*
X100569890Y-41519786D01*
X100720213Y-41670109D01*
X100892182Y-41795050D01*
X100900946Y-41799516D01*
X100951742Y-41847491D01*
X100968536Y-41915312D01*
X100945998Y-41981447D01*
X100900946Y-42020484D01*
X100892182Y-42024949D01*
X100720213Y-42149890D01*
X100569890Y-42300213D01*
X100444951Y-42472179D01*
X100348444Y-42661585D01*
X100282753Y-42863760D01*
X100249500Y-43073713D01*
X100249500Y-43286286D01*
X100282753Y-43496239D01*
X100348444Y-43698414D01*
X100444951Y-43887820D01*
X100569890Y-44059786D01*
X100720213Y-44210109D01*
X100892182Y-44335050D01*
X100900946Y-44339516D01*
X100951742Y-44387491D01*
X100968536Y-44455312D01*
X100945998Y-44521447D01*
X100900946Y-44560484D01*
X100892182Y-44564949D01*
X100720213Y-44689890D01*
X100569890Y-44840213D01*
X100444951Y-45012179D01*
X100348444Y-45201585D01*
X100282753Y-45403760D01*
X100249500Y-45613713D01*
X100249500Y-45826286D01*
X100282753Y-46036239D01*
X100348444Y-46238414D01*
X100444951Y-46427820D01*
X100569890Y-46599786D01*
X100720213Y-46750109D01*
X100892182Y-46875050D01*
X100900946Y-46879516D01*
X100951742Y-46927491D01*
X100968536Y-46995312D01*
X100945998Y-47061447D01*
X100900946Y-47100484D01*
X100892182Y-47104949D01*
X100720213Y-47229890D01*
X100569890Y-47380213D01*
X100444951Y-47552179D01*
X100348444Y-47741585D01*
X100282753Y-47943760D01*
X100249500Y-48153713D01*
X100249500Y-48366286D01*
X100282753Y-48576239D01*
X100348444Y-48778414D01*
X100444951Y-48967820D01*
X100569890Y-49139786D01*
X100720213Y-49290109D01*
X100892182Y-49415050D01*
X100900946Y-49419516D01*
X100951742Y-49467491D01*
X100968536Y-49535312D01*
X100945998Y-49601447D01*
X100900946Y-49640484D01*
X100892182Y-49644949D01*
X100720213Y-49769890D01*
X100569890Y-49920213D01*
X100444951Y-50092179D01*
X100348444Y-50281585D01*
X100282753Y-50483760D01*
X100249500Y-50693713D01*
X100249500Y-50906286D01*
X100282753Y-51116239D01*
X100348444Y-51318414D01*
X100444951Y-51507820D01*
X100569890Y-51679786D01*
X100720213Y-51830109D01*
X100892182Y-51955050D01*
X100900946Y-51959516D01*
X100951742Y-52007491D01*
X100968536Y-52075312D01*
X100945998Y-52141447D01*
X100900946Y-52180484D01*
X100892182Y-52184949D01*
X100720213Y-52309890D01*
X100569890Y-52460213D01*
X100444951Y-52632179D01*
X100348444Y-52821585D01*
X100282753Y-53023760D01*
X100249500Y-53233713D01*
X100249500Y-53446286D01*
X100282753Y-53656239D01*
X100348444Y-53858414D01*
X100444951Y-54047820D01*
X100569890Y-54219786D01*
X100720213Y-54370109D01*
X100892182Y-54495050D01*
X100900946Y-54499516D01*
X100951742Y-54547491D01*
X100968536Y-54615312D01*
X100945998Y-54681447D01*
X100900946Y-54720484D01*
X100892182Y-54724949D01*
X100720213Y-54849890D01*
X100569890Y-55000213D01*
X100444951Y-55172179D01*
X100348444Y-55361585D01*
X100282753Y-55563760D01*
X100249500Y-55773713D01*
X100249500Y-55986286D01*
X100282753Y-56196239D01*
X100348444Y-56398414D01*
X100444951Y-56587820D01*
X100569890Y-56759786D01*
X100720213Y-56910109D01*
X100892182Y-57035050D01*
X100900946Y-57039516D01*
X100951742Y-57087491D01*
X100968536Y-57155312D01*
X100945998Y-57221447D01*
X100900946Y-57260484D01*
X100892182Y-57264949D01*
X100720213Y-57389890D01*
X100569890Y-57540213D01*
X100444951Y-57712179D01*
X100348444Y-57901585D01*
X100282753Y-58103760D01*
X100249500Y-58313713D01*
X100249500Y-58526286D01*
X100282753Y-58736239D01*
X100348444Y-58938414D01*
X100444951Y-59127820D01*
X100569890Y-59299786D01*
X100720213Y-59450109D01*
X100892182Y-59575050D01*
X100900946Y-59579516D01*
X100951742Y-59627491D01*
X100968536Y-59695312D01*
X100945998Y-59761447D01*
X100900946Y-59800484D01*
X100892182Y-59804949D01*
X100720213Y-59929890D01*
X100569890Y-60080213D01*
X100444951Y-60252179D01*
X100348444Y-60441585D01*
X100282753Y-60643760D01*
X100249500Y-60853713D01*
X100249500Y-61066286D01*
X100282753Y-61276239D01*
X100348444Y-61478414D01*
X100444951Y-61667820D01*
X100569890Y-61839786D01*
X100720213Y-61990109D01*
X100892182Y-62115050D01*
X100900946Y-62119516D01*
X100951742Y-62167491D01*
X100968536Y-62235312D01*
X100945998Y-62301447D01*
X100900946Y-62340484D01*
X100892182Y-62344949D01*
X100720213Y-62469890D01*
X100569890Y-62620213D01*
X100444951Y-62792179D01*
X100348444Y-62981585D01*
X100282753Y-63183760D01*
X100249500Y-63393713D01*
X100249500Y-63606286D01*
X100282753Y-63816239D01*
X100348444Y-64018414D01*
X100444951Y-64207820D01*
X100569890Y-64379786D01*
X100720213Y-64530109D01*
X100892182Y-64655050D01*
X100900946Y-64659516D01*
X100951742Y-64707491D01*
X100968536Y-64775312D01*
X100945998Y-64841447D01*
X100900946Y-64880484D01*
X100892182Y-64884949D01*
X100720213Y-65009890D01*
X100569890Y-65160213D01*
X100444951Y-65332179D01*
X100348444Y-65521585D01*
X100282753Y-65723760D01*
X100249500Y-65933713D01*
X100249500Y-66146286D01*
X100282753Y-66356239D01*
X100348444Y-66558414D01*
X100444951Y-66747820D01*
X100569890Y-66919786D01*
X100720213Y-67070109D01*
X100892182Y-67195050D01*
X100900946Y-67199516D01*
X100951742Y-67247491D01*
X100968536Y-67315312D01*
X100945998Y-67381447D01*
X100900946Y-67420484D01*
X100892182Y-67424949D01*
X100720213Y-67549890D01*
X100569890Y-67700213D01*
X100444951Y-67872179D01*
X100348444Y-68061585D01*
X100282753Y-68263760D01*
X100249500Y-68473713D01*
X100249500Y-68686286D01*
X100282753Y-68896239D01*
X100348444Y-69098414D01*
X100444951Y-69287820D01*
X100569890Y-69459786D01*
X100720213Y-69610109D01*
X100892182Y-69735050D01*
X100900946Y-69739516D01*
X100951742Y-69787491D01*
X100968536Y-69855312D01*
X100945998Y-69921447D01*
X100900946Y-69960484D01*
X100892182Y-69964949D01*
X100720213Y-70089890D01*
X100569890Y-70240213D01*
X100444951Y-70412179D01*
X100348444Y-70601585D01*
X100282753Y-70803760D01*
X100249500Y-71013713D01*
X100249500Y-71226286D01*
X100282753Y-71436239D01*
X100348444Y-71638414D01*
X100444951Y-71827820D01*
X100569890Y-71999786D01*
X100720213Y-72150109D01*
X100892182Y-72275050D01*
X100900946Y-72279516D01*
X100951742Y-72327491D01*
X100968536Y-72395312D01*
X100945998Y-72461447D01*
X100900946Y-72500484D01*
X100892182Y-72504949D01*
X100720213Y-72629890D01*
X100569890Y-72780213D01*
X100444951Y-72952179D01*
X100348444Y-73141585D01*
X100282753Y-73343760D01*
X100255806Y-73513901D01*
X100249500Y-73553713D01*
X100249500Y-73766287D01*
X100282754Y-73976243D01*
X100343760Y-74164000D01*
X100348444Y-74178414D01*
X100444951Y-74367820D01*
X100569890Y-74539786D01*
X100720213Y-74690109D01*
X100892179Y-74815048D01*
X100892181Y-74815049D01*
X100892184Y-74815051D01*
X100901493Y-74819794D01*
X100952290Y-74867766D01*
X100969087Y-74935587D01*
X100946552Y-75001722D01*
X100901505Y-75040760D01*
X100892446Y-75045376D01*
X100892440Y-75045380D01*
X100838282Y-75084727D01*
X100838282Y-75084728D01*
X101470591Y-75717037D01*
X101407007Y-75734075D01*
X101292993Y-75799901D01*
X101199901Y-75892993D01*
X101134075Y-76007007D01*
X101117037Y-76070591D01*
X100484728Y-75438282D01*
X100484727Y-75438282D01*
X100445380Y-75492439D01*
X100348904Y-75681782D01*
X100283242Y-75883869D01*
X100283242Y-75883872D01*
X100250000Y-76093753D01*
X100250000Y-76306246D01*
X100283242Y-76516127D01*
X100283242Y-76516130D01*
X100348904Y-76718217D01*
X100445375Y-76907550D01*
X100484728Y-76961716D01*
X101117037Y-76329408D01*
X101134075Y-76392993D01*
X101199901Y-76507007D01*
X101292993Y-76600099D01*
X101407007Y-76665925D01*
X101470591Y-76682962D01*
X100869971Y-77283581D01*
X100948711Y-77400895D01*
X100949920Y-77404729D01*
X100952844Y-77407491D01*
X100960343Y-77437778D01*
X100969727Y-77467529D01*
X100968671Y-77471408D01*
X100969638Y-77475312D01*
X100959573Y-77504844D01*
X100951383Y-77534947D01*
X100948397Y-77537640D01*
X100947100Y-77541447D01*
X100902051Y-77580483D01*
X100892440Y-77585380D01*
X100838282Y-77624727D01*
X100838282Y-77624728D01*
X101470591Y-78257037D01*
X101407007Y-78274075D01*
X101292993Y-78339901D01*
X101199901Y-78432993D01*
X101134075Y-78547007D01*
X101117037Y-78610591D01*
X100484728Y-77978282D01*
X100484727Y-77978282D01*
X100445380Y-78032439D01*
X100348904Y-78221782D01*
X100283242Y-78423869D01*
X100283242Y-78423872D01*
X100250000Y-78633753D01*
X100250000Y-78846246D01*
X100283242Y-79056127D01*
X100283242Y-79056130D01*
X100348904Y-79258217D01*
X100445375Y-79447550D01*
X100484728Y-79501716D01*
X101117037Y-78869408D01*
X101134075Y-78932993D01*
X101199901Y-79047007D01*
X101292993Y-79140099D01*
X101407007Y-79205925D01*
X101470590Y-79222962D01*
X100838282Y-79855269D01*
X100838282Y-79855271D01*
X100865687Y-79875182D01*
X100908353Y-79930512D01*
X100914332Y-80000125D01*
X100881727Y-80061920D01*
X100820888Y-80096277D01*
X100792802Y-80099500D01*
X77007198Y-80099500D01*
X76940159Y-80079815D01*
X76894404Y-80027011D01*
X76884460Y-79957853D01*
X76913485Y-79894297D01*
X76934312Y-79875182D01*
X76961716Y-79855270D01*
X76961717Y-79855270D01*
X76329408Y-79222962D01*
X76392993Y-79205925D01*
X76507007Y-79140099D01*
X76600099Y-79047007D01*
X76665925Y-78932993D01*
X76682962Y-78869408D01*
X77315270Y-79501717D01*
X77315270Y-79501716D01*
X77354622Y-79447554D01*
X77451095Y-79258217D01*
X77516757Y-79056130D01*
X77516757Y-79056127D01*
X77550000Y-78846246D01*
X77550000Y-78633753D01*
X77516757Y-78423872D01*
X77516757Y-78423869D01*
X77451095Y-78221782D01*
X77354624Y-78032449D01*
X77315270Y-77978282D01*
X77315269Y-77978282D01*
X76682962Y-78610590D01*
X76665925Y-78547007D01*
X76600099Y-78432993D01*
X76507007Y-78339901D01*
X76392993Y-78274075D01*
X76329409Y-78257037D01*
X76961716Y-77624728D01*
X76907547Y-77585373D01*
X76907547Y-77585372D01*
X76898500Y-77580763D01*
X76847706Y-77532788D01*
X76830912Y-77464966D01*
X76853451Y-77398832D01*
X76898508Y-77359793D01*
X76907816Y-77355051D01*
X77006187Y-77283581D01*
X77079786Y-77230109D01*
X77079788Y-77230106D01*
X77079792Y-77230104D01*
X77230104Y-77079792D01*
X77230106Y-77079788D01*
X77230109Y-77079786D01*
X77355048Y-76907820D01*
X77355047Y-76907820D01*
X77355051Y-76907816D01*
X77451557Y-76718412D01*
X77517246Y-76516243D01*
X77550500Y-76306287D01*
X77550500Y-76093713D01*
X77517246Y-75883757D01*
X77451557Y-75681588D01*
X77355051Y-75492184D01*
X77355049Y-75492181D01*
X77355048Y-75492179D01*
X77230109Y-75320213D01*
X77079786Y-75169890D01*
X76907820Y-75044951D01*
X76899600Y-75040763D01*
X76899054Y-75040485D01*
X76848259Y-74992512D01*
X76831463Y-74924692D01*
X76853999Y-74858556D01*
X76899054Y-74819515D01*
X76907816Y-74815051D01*
X76929789Y-74799086D01*
X77079786Y-74690109D01*
X77079788Y-74690106D01*
X77079792Y-74690104D01*
X77230104Y-74539792D01*
X77230106Y-74539788D01*
X77230109Y-74539786D01*
X77355048Y-74367820D01*
X77355047Y-74367820D01*
X77355051Y-74367816D01*
X77451557Y-74178412D01*
X77517246Y-73976243D01*
X77550500Y-73766287D01*
X77550500Y-73553713D01*
X77517246Y-73343757D01*
X77451557Y-73141588D01*
X77355051Y-72952184D01*
X77355049Y-72952181D01*
X77355048Y-72952179D01*
X77230109Y-72780213D01*
X77079786Y-72629890D01*
X76907820Y-72504951D01*
X76907115Y-72504591D01*
X76899054Y-72500485D01*
X76848259Y-72452512D01*
X76831463Y-72384692D01*
X76853999Y-72318556D01*
X76899054Y-72279515D01*
X76907816Y-72275051D01*
X76937088Y-72253784D01*
X77079786Y-72150109D01*
X77079788Y-72150106D01*
X77079792Y-72150104D01*
X77230104Y-71999792D01*
X77230106Y-71999788D01*
X77230109Y-71999786D01*
X77355048Y-71827820D01*
X77355047Y-71827820D01*
X77355051Y-71827816D01*
X77451557Y-71638412D01*
X77517246Y-71436243D01*
X77550500Y-71226287D01*
X77550500Y-71013713D01*
X77517246Y-70803757D01*
X77451557Y-70601588D01*
X77355051Y-70412184D01*
X77355049Y-70412181D01*
X77355048Y-70412179D01*
X77230109Y-70240213D01*
X77079786Y-70089890D01*
X76907820Y-69964951D01*
X76907115Y-69964591D01*
X76899054Y-69960485D01*
X76848259Y-69912512D01*
X76831463Y-69844692D01*
X76853999Y-69778556D01*
X76899054Y-69739515D01*
X76907816Y-69735051D01*
X76937085Y-69713786D01*
X77079786Y-69610109D01*
X77079788Y-69610106D01*
X77079792Y-69610104D01*
X77230104Y-69459792D01*
X77230106Y-69459788D01*
X77230109Y-69459786D01*
X77355048Y-69287820D01*
X77355047Y-69287820D01*
X77355051Y-69287816D01*
X77451557Y-69098412D01*
X77517246Y-68896243D01*
X77550500Y-68686287D01*
X77550500Y-68473713D01*
X77517246Y-68263757D01*
X77451557Y-68061588D01*
X77355051Y-67872184D01*
X77355049Y-67872181D01*
X77355048Y-67872179D01*
X77230109Y-67700213D01*
X77079786Y-67549890D01*
X76907820Y-67424951D01*
X76907115Y-67424591D01*
X76899054Y-67420485D01*
X76848259Y-67372512D01*
X76831463Y-67304692D01*
X76853999Y-67238556D01*
X76899054Y-67199515D01*
X76907816Y-67195051D01*
X76937085Y-67173786D01*
X77079786Y-67070109D01*
X77079788Y-67070106D01*
X77079792Y-67070104D01*
X77230104Y-66919792D01*
X77230106Y-66919788D01*
X77230109Y-66919786D01*
X77355048Y-66747820D01*
X77355047Y-66747820D01*
X77355051Y-66747816D01*
X77451557Y-66558412D01*
X77517246Y-66356243D01*
X77550500Y-66146287D01*
X77550500Y-65933713D01*
X77517246Y-65723757D01*
X77451557Y-65521588D01*
X77355051Y-65332184D01*
X77355049Y-65332181D01*
X77355048Y-65332179D01*
X77230109Y-65160213D01*
X77079786Y-65009890D01*
X76907820Y-64884951D01*
X76907115Y-64884591D01*
X76899054Y-64880485D01*
X76848259Y-64832512D01*
X76831463Y-64764692D01*
X76853999Y-64698556D01*
X76899054Y-64659515D01*
X76907816Y-64655051D01*
X76937085Y-64633786D01*
X77079786Y-64530109D01*
X77079788Y-64530106D01*
X77079792Y-64530104D01*
X77230104Y-64379792D01*
X77230106Y-64379788D01*
X77230109Y-64379786D01*
X77355048Y-64207820D01*
X77355047Y-64207820D01*
X77355051Y-64207816D01*
X77451557Y-64018412D01*
X77517246Y-63816243D01*
X77550500Y-63606287D01*
X77550500Y-63393713D01*
X77517246Y-63183757D01*
X77451557Y-62981588D01*
X77355051Y-62792184D01*
X77355049Y-62792181D01*
X77355048Y-62792179D01*
X77230109Y-62620213D01*
X77079786Y-62469890D01*
X76907820Y-62344951D01*
X76907115Y-62344591D01*
X76899054Y-62340485D01*
X76848259Y-62292512D01*
X76831463Y-62224692D01*
X76853999Y-62158556D01*
X76899054Y-62119515D01*
X76907816Y-62115051D01*
X76937085Y-62093786D01*
X77079786Y-61990109D01*
X77079788Y-61990106D01*
X77079792Y-61990104D01*
X77230104Y-61839792D01*
X77230106Y-61839788D01*
X77230109Y-61839786D01*
X77355048Y-61667820D01*
X77355047Y-61667820D01*
X77355051Y-61667816D01*
X77451557Y-61478412D01*
X77517246Y-61276243D01*
X77550500Y-61066287D01*
X77550500Y-60853713D01*
X77517246Y-60643757D01*
X77451557Y-60441588D01*
X77355051Y-60252184D01*
X77355049Y-60252181D01*
X77355048Y-60252179D01*
X77230109Y-60080213D01*
X77079786Y-59929890D01*
X76907820Y-59804951D01*
X76907115Y-59804591D01*
X76899054Y-59800485D01*
X76848259Y-59752512D01*
X76831463Y-59684692D01*
X76853999Y-59618556D01*
X76899054Y-59579515D01*
X76907816Y-59575051D01*
X76937085Y-59553786D01*
X77079786Y-59450109D01*
X77079788Y-59450106D01*
X77079792Y-59450104D01*
X77230104Y-59299792D01*
X77230106Y-59299788D01*
X77230109Y-59299786D01*
X77355048Y-59127820D01*
X77355047Y-59127820D01*
X77355051Y-59127816D01*
X77451557Y-58938412D01*
X77517246Y-58736243D01*
X77550500Y-58526287D01*
X77550500Y-58313713D01*
X77517246Y-58103757D01*
X77451557Y-57901588D01*
X77355051Y-57712184D01*
X77355049Y-57712181D01*
X77355048Y-57712179D01*
X77230109Y-57540213D01*
X77079786Y-57389890D01*
X76907820Y-57264951D01*
X76907115Y-57264591D01*
X76899054Y-57260485D01*
X76848259Y-57212512D01*
X76831463Y-57144692D01*
X76853999Y-57078556D01*
X76899054Y-57039515D01*
X76907816Y-57035051D01*
X76937085Y-57013786D01*
X77079786Y-56910109D01*
X77079788Y-56910106D01*
X77079792Y-56910104D01*
X77230104Y-56759792D01*
X77230106Y-56759788D01*
X77230109Y-56759786D01*
X77355048Y-56587820D01*
X77355047Y-56587820D01*
X77355051Y-56587816D01*
X77451557Y-56398412D01*
X77517246Y-56196243D01*
X77550500Y-55986287D01*
X77550500Y-55773713D01*
X77517246Y-55563757D01*
X77451557Y-55361588D01*
X77355051Y-55172184D01*
X77355049Y-55172181D01*
X77355048Y-55172179D01*
X77230109Y-55000213D01*
X77079786Y-54849890D01*
X76907820Y-54724951D01*
X76907115Y-54724591D01*
X76899054Y-54720485D01*
X76848259Y-54672512D01*
X76831463Y-54604692D01*
X76853999Y-54538556D01*
X76899054Y-54499515D01*
X76907816Y-54495051D01*
X76937085Y-54473786D01*
X77079786Y-54370109D01*
X77079788Y-54370106D01*
X77079792Y-54370104D01*
X77230104Y-54219792D01*
X77230106Y-54219788D01*
X77230109Y-54219786D01*
X77355048Y-54047820D01*
X77355047Y-54047820D01*
X77355051Y-54047816D01*
X77451557Y-53858412D01*
X77517246Y-53656243D01*
X77550500Y-53446287D01*
X77550500Y-53233713D01*
X77517246Y-53023757D01*
X77451557Y-52821588D01*
X77355051Y-52632184D01*
X77355049Y-52632181D01*
X77355048Y-52632179D01*
X77230109Y-52460213D01*
X77079786Y-52309890D01*
X76907820Y-52184951D01*
X76907115Y-52184591D01*
X76899054Y-52180485D01*
X76848259Y-52132512D01*
X76831463Y-52064692D01*
X76853999Y-51998556D01*
X76899054Y-51959515D01*
X76907816Y-51955051D01*
X76937085Y-51933786D01*
X77079786Y-51830109D01*
X77079788Y-51830106D01*
X77079792Y-51830104D01*
X77230104Y-51679792D01*
X77230106Y-51679788D01*
X77230109Y-51679786D01*
X77355048Y-51507820D01*
X77355047Y-51507820D01*
X77355051Y-51507816D01*
X77451557Y-51318412D01*
X77517246Y-51116243D01*
X77550500Y-50906287D01*
X77550500Y-50693713D01*
X77517246Y-50483757D01*
X77451557Y-50281588D01*
X77355051Y-50092184D01*
X77355049Y-50092181D01*
X77355048Y-50092179D01*
X77230109Y-49920213D01*
X77079786Y-49769890D01*
X76907820Y-49644951D01*
X76907115Y-49644591D01*
X76899054Y-49640485D01*
X76848259Y-49592512D01*
X76831463Y-49524692D01*
X76853999Y-49458556D01*
X76899054Y-49419515D01*
X76907816Y-49415051D01*
X76937085Y-49393786D01*
X77079786Y-49290109D01*
X77079788Y-49290106D01*
X77079792Y-49290104D01*
X77230104Y-49139792D01*
X77230106Y-49139788D01*
X77230109Y-49139786D01*
X77355048Y-48967820D01*
X77355047Y-48967820D01*
X77355051Y-48967816D01*
X77451557Y-48778412D01*
X77517246Y-48576243D01*
X77550500Y-48366287D01*
X77550500Y-48153713D01*
X77517246Y-47943757D01*
X77451557Y-47741588D01*
X77355051Y-47552184D01*
X77355049Y-47552181D01*
X77355048Y-47552179D01*
X77230109Y-47380213D01*
X77079792Y-47229896D01*
X77060513Y-47215889D01*
X77060509Y-47215886D01*
X76930119Y-47121153D01*
X80149500Y-47121153D01*
X80149500Y-47278846D01*
X80180261Y-47433489D01*
X80180264Y-47433501D01*
X80240602Y-47579172D01*
X80240609Y-47579185D01*
X80328210Y-47710288D01*
X80328213Y-47710292D01*
X80439707Y-47821786D01*
X80439711Y-47821789D01*
X80570814Y-47909390D01*
X80570827Y-47909397D01*
X80716498Y-47969735D01*
X80716503Y-47969737D01*
X80823439Y-47991008D01*
X80871153Y-48000499D01*
X80871156Y-48000500D01*
X80871158Y-48000500D01*
X81028843Y-48000500D01*
X81076561Y-47991008D01*
X81107865Y-47984781D01*
X81177456Y-47991008D01*
X81232634Y-48033870D01*
X81255879Y-48099760D01*
X81249988Y-48144715D01*
X81232754Y-48197755D01*
X81232753Y-48197759D01*
X81199500Y-48407713D01*
X81199500Y-48620286D01*
X81229821Y-48811730D01*
X81232754Y-48830243D01*
X81277454Y-48967816D01*
X81298444Y-49032414D01*
X81394951Y-49221820D01*
X81519890Y-49393786D01*
X81670213Y-49544109D01*
X81842182Y-49669050D01*
X81850946Y-49673516D01*
X81901742Y-49721491D01*
X81918536Y-49789312D01*
X81895998Y-49855447D01*
X81850946Y-49894484D01*
X81842182Y-49898949D01*
X81670213Y-50023890D01*
X81519890Y-50174213D01*
X81394951Y-50346179D01*
X81298444Y-50535585D01*
X81232753Y-50737760D01*
X81199500Y-50947713D01*
X81199500Y-51160286D01*
X81229821Y-51351730D01*
X81232754Y-51370243D01*
X81277454Y-51507816D01*
X81298444Y-51572414D01*
X81394951Y-51761820D01*
X81519890Y-51933786D01*
X81670213Y-52084109D01*
X81842182Y-52209050D01*
X81850946Y-52213516D01*
X81901742Y-52261491D01*
X81918536Y-52329312D01*
X81895998Y-52395447D01*
X81850946Y-52434484D01*
X81842182Y-52438949D01*
X81670213Y-52563890D01*
X81519890Y-52714213D01*
X81394951Y-52886179D01*
X81298444Y-53075585D01*
X81232753Y-53277760D01*
X81199500Y-53487713D01*
X81199500Y-53700286D01*
X81229821Y-53891730D01*
X81232754Y-53910243D01*
X81277454Y-54047816D01*
X81298444Y-54112414D01*
X81394951Y-54301820D01*
X81519890Y-54473786D01*
X81670213Y-54624109D01*
X81842182Y-54749050D01*
X81850946Y-54753516D01*
X81901742Y-54801491D01*
X81918536Y-54869312D01*
X81895998Y-54935447D01*
X81850946Y-54974484D01*
X81842182Y-54978949D01*
X81670213Y-55103890D01*
X81519890Y-55254213D01*
X81394951Y-55426179D01*
X81298444Y-55615585D01*
X81232753Y-55817760D01*
X81199500Y-56027713D01*
X81199500Y-56240286D01*
X81229821Y-56431730D01*
X81232754Y-56450243D01*
X81277454Y-56587816D01*
X81298444Y-56652414D01*
X81394951Y-56841820D01*
X81519890Y-57013786D01*
X81670213Y-57164109D01*
X81842182Y-57289050D01*
X81850946Y-57293516D01*
X81901742Y-57341491D01*
X81918536Y-57409312D01*
X81895998Y-57475447D01*
X81850946Y-57514484D01*
X81842182Y-57518949D01*
X81670213Y-57643890D01*
X81519890Y-57794213D01*
X81394951Y-57966179D01*
X81298444Y-58155585D01*
X81232753Y-58357760D01*
X81199500Y-58567713D01*
X81199500Y-58780286D01*
X81229821Y-58971730D01*
X81232754Y-58990243D01*
X81277454Y-59127816D01*
X81298444Y-59192414D01*
X81394951Y-59381820D01*
X81519890Y-59553786D01*
X81670213Y-59704109D01*
X81842182Y-59829050D01*
X81850946Y-59833516D01*
X81901742Y-59881491D01*
X81918536Y-59949312D01*
X81895998Y-60015447D01*
X81850946Y-60054484D01*
X81842182Y-60058949D01*
X81670213Y-60183890D01*
X81519890Y-60334213D01*
X81394951Y-60506179D01*
X81298444Y-60695585D01*
X81232753Y-60897760D01*
X81199500Y-61107713D01*
X81199500Y-61320286D01*
X81229821Y-61511730D01*
X81232754Y-61530243D01*
X81277454Y-61667816D01*
X81298444Y-61732414D01*
X81394951Y-61921820D01*
X81519890Y-62093786D01*
X81670213Y-62244109D01*
X81842182Y-62369050D01*
X81850946Y-62373516D01*
X81901742Y-62421491D01*
X81918536Y-62489312D01*
X81895998Y-62555447D01*
X81850946Y-62594484D01*
X81842182Y-62598949D01*
X81670213Y-62723890D01*
X81519890Y-62874213D01*
X81394951Y-63046179D01*
X81298444Y-63235585D01*
X81232753Y-63437760D01*
X81199500Y-63647713D01*
X81199500Y-63860286D01*
X81229821Y-64051730D01*
X81232754Y-64070243D01*
X81277454Y-64207816D01*
X81298444Y-64272414D01*
X81394951Y-64461820D01*
X81519890Y-64633786D01*
X81670213Y-64784109D01*
X81842182Y-64909050D01*
X81850946Y-64913516D01*
X81901742Y-64961491D01*
X81918536Y-65029312D01*
X81895998Y-65095447D01*
X81850946Y-65134484D01*
X81842182Y-65138949D01*
X81670213Y-65263890D01*
X81519890Y-65414213D01*
X81394951Y-65586179D01*
X81298444Y-65775585D01*
X81232753Y-65977760D01*
X81199500Y-66187713D01*
X81199500Y-66400286D01*
X81229821Y-66591730D01*
X81232754Y-66610243D01*
X81277454Y-66747816D01*
X81298444Y-66812414D01*
X81394951Y-67001820D01*
X81519890Y-67173786D01*
X81670213Y-67324109D01*
X81842182Y-67449050D01*
X81850946Y-67453516D01*
X81901742Y-67501491D01*
X81918536Y-67569312D01*
X81895998Y-67635447D01*
X81850946Y-67674484D01*
X81842182Y-67678949D01*
X81670213Y-67803890D01*
X81519890Y-67954213D01*
X81394951Y-68126179D01*
X81298444Y-68315585D01*
X81232753Y-68517760D01*
X81199500Y-68727713D01*
X81199500Y-68940286D01*
X81229821Y-69131730D01*
X81232754Y-69150243D01*
X81277454Y-69287816D01*
X81298444Y-69352414D01*
X81394951Y-69541820D01*
X81519890Y-69713786D01*
X81670213Y-69864109D01*
X81842182Y-69989050D01*
X81850946Y-69993516D01*
X81901742Y-70041491D01*
X81918536Y-70109312D01*
X81895998Y-70175447D01*
X81850946Y-70214484D01*
X81842182Y-70218949D01*
X81670213Y-70343890D01*
X81519890Y-70494213D01*
X81394951Y-70666179D01*
X81298444Y-70855585D01*
X81232753Y-71057760D01*
X81199500Y-71267713D01*
X81199500Y-71480286D01*
X81229821Y-71671730D01*
X81232754Y-71690243D01*
X81277454Y-71827816D01*
X81298444Y-71892414D01*
X81394951Y-72081820D01*
X81519890Y-72253786D01*
X81633818Y-72367714D01*
X81667303Y-72429037D01*
X81662319Y-72498729D01*
X81620447Y-72554662D01*
X81589471Y-72571577D01*
X81457912Y-72620646D01*
X81457906Y-72620649D01*
X81342812Y-72706809D01*
X81342809Y-72706812D01*
X81256649Y-72821906D01*
X81256645Y-72821913D01*
X81206403Y-72956620D01*
X81206401Y-72956627D01*
X81200000Y-73016155D01*
X81200000Y-73664000D01*
X82116988Y-73664000D01*
X82084075Y-73721007D01*
X82050000Y-73848174D01*
X82050000Y-73979826D01*
X82084075Y-74106993D01*
X82116988Y-74164000D01*
X81200000Y-74164000D01*
X81200000Y-74811844D01*
X81206401Y-74871372D01*
X81206403Y-74871379D01*
X81256645Y-75006086D01*
X81256649Y-75006093D01*
X81342809Y-75121187D01*
X81342812Y-75121190D01*
X81457906Y-75207350D01*
X81457913Y-75207354D01*
X81592620Y-75257596D01*
X81592627Y-75257598D01*
X81652155Y-75263999D01*
X81652172Y-75264000D01*
X82300000Y-75264000D01*
X82300000Y-74347012D01*
X82357007Y-74379925D01*
X82484174Y-74414000D01*
X82615826Y-74414000D01*
X82742993Y-74379925D01*
X82800000Y-74347012D01*
X82800000Y-75264000D01*
X83447828Y-75264000D01*
X83447844Y-75263999D01*
X83507372Y-75257598D01*
X83507379Y-75257596D01*
X83642086Y-75207354D01*
X83642093Y-75207350D01*
X83757187Y-75121190D01*
X83757190Y-75121187D01*
X83843350Y-75006093D01*
X83843354Y-75006086D01*
X83893596Y-74871379D01*
X83893598Y-74871372D01*
X83899999Y-74811844D01*
X83900000Y-74811827D01*
X83900000Y-74164000D01*
X82983012Y-74164000D01*
X83015925Y-74106993D01*
X83050000Y-73979826D01*
X83050000Y-73848174D01*
X83015925Y-73721007D01*
X82983012Y-73664000D01*
X83900000Y-73664000D01*
X83900000Y-73016172D01*
X83899999Y-73016155D01*
X83893598Y-72956627D01*
X83893596Y-72956620D01*
X83843354Y-72821913D01*
X83843350Y-72821906D01*
X83757190Y-72706812D01*
X83757187Y-72706809D01*
X83642093Y-72620649D01*
X83642088Y-72620646D01*
X83510528Y-72571577D01*
X83454595Y-72529705D01*
X83430178Y-72464241D01*
X83445030Y-72395968D01*
X83466175Y-72367720D01*
X83580104Y-72253792D01*
X83705051Y-72081816D01*
X83801557Y-71892412D01*
X83867246Y-71690243D01*
X83900500Y-71480287D01*
X83900500Y-71267713D01*
X83867246Y-71057757D01*
X83801557Y-70855588D01*
X83705051Y-70666184D01*
X83705049Y-70666181D01*
X83705048Y-70666179D01*
X83580109Y-70494213D01*
X83429786Y-70343890D01*
X83257820Y-70218951D01*
X83257115Y-70218591D01*
X83249054Y-70214485D01*
X83198259Y-70166512D01*
X83181463Y-70098692D01*
X83203999Y-70032556D01*
X83249054Y-69993515D01*
X83257816Y-69989051D01*
X83363164Y-69912512D01*
X83429786Y-69864109D01*
X83429788Y-69864106D01*
X83429792Y-69864104D01*
X83580104Y-69713792D01*
X83580106Y-69713788D01*
X83580109Y-69713786D01*
X83705048Y-69541820D01*
X83705047Y-69541820D01*
X83705051Y-69541816D01*
X83801557Y-69352412D01*
X83867246Y-69150243D01*
X83900500Y-68940287D01*
X83900500Y-68727713D01*
X83867246Y-68517757D01*
X83801557Y-68315588D01*
X83705051Y-68126184D01*
X83705049Y-68126181D01*
X83705048Y-68126179D01*
X83580109Y-67954213D01*
X83429786Y-67803890D01*
X83257820Y-67678951D01*
X83257115Y-67678591D01*
X83249054Y-67674485D01*
X83198259Y-67626512D01*
X83181463Y-67558692D01*
X83203999Y-67492556D01*
X83249054Y-67453515D01*
X83257816Y-67449051D01*
X83363164Y-67372512D01*
X83429786Y-67324109D01*
X83429788Y-67324106D01*
X83429792Y-67324104D01*
X83580104Y-67173792D01*
X83580106Y-67173788D01*
X83580109Y-67173786D01*
X83705048Y-67001820D01*
X83705047Y-67001820D01*
X83705051Y-67001816D01*
X83801557Y-66812412D01*
X83867246Y-66610243D01*
X83900500Y-66400287D01*
X83900500Y-66187713D01*
X83867246Y-65977757D01*
X83801557Y-65775588D01*
X83705051Y-65586184D01*
X83705049Y-65586181D01*
X83705048Y-65586179D01*
X83580109Y-65414213D01*
X83429786Y-65263890D01*
X83257820Y-65138951D01*
X83257115Y-65138591D01*
X83249054Y-65134485D01*
X83198259Y-65086512D01*
X83181463Y-65018692D01*
X83203999Y-64952556D01*
X83249054Y-64913515D01*
X83257816Y-64909051D01*
X83363164Y-64832512D01*
X83429786Y-64784109D01*
X83429788Y-64784106D01*
X83429792Y-64784104D01*
X83580104Y-64633792D01*
X83580106Y-64633788D01*
X83580109Y-64633786D01*
X83705048Y-64461820D01*
X83705047Y-64461820D01*
X83705051Y-64461816D01*
X83801557Y-64272412D01*
X83867246Y-64070243D01*
X83900500Y-63860287D01*
X83900500Y-63647713D01*
X83867246Y-63437757D01*
X83801557Y-63235588D01*
X83705051Y-63046184D01*
X83705049Y-63046181D01*
X83705048Y-63046179D01*
X83580109Y-62874213D01*
X83429786Y-62723890D01*
X83257820Y-62598951D01*
X83257115Y-62598591D01*
X83249054Y-62594485D01*
X83198259Y-62546512D01*
X83181463Y-62478692D01*
X83203999Y-62412556D01*
X83249054Y-62373515D01*
X83257816Y-62369051D01*
X83363164Y-62292512D01*
X83429786Y-62244109D01*
X83429788Y-62244106D01*
X83429792Y-62244104D01*
X83580104Y-62093792D01*
X83580106Y-62093788D01*
X83580109Y-62093786D01*
X83705048Y-61921820D01*
X83705047Y-61921820D01*
X83705051Y-61921816D01*
X83801557Y-61732412D01*
X83867246Y-61530243D01*
X83900500Y-61320287D01*
X83900500Y-61107713D01*
X83867246Y-60897757D01*
X83801557Y-60695588D01*
X83705051Y-60506184D01*
X83705049Y-60506181D01*
X83705048Y-60506179D01*
X83580109Y-60334213D01*
X83429786Y-60183890D01*
X83257820Y-60058951D01*
X83257115Y-60058591D01*
X83249054Y-60054485D01*
X83198259Y-60006512D01*
X83181463Y-59938692D01*
X83203999Y-59872556D01*
X83249054Y-59833515D01*
X83257816Y-59829051D01*
X83363164Y-59752512D01*
X83429786Y-59704109D01*
X83429788Y-59704106D01*
X83429792Y-59704104D01*
X83580104Y-59553792D01*
X83580106Y-59553788D01*
X83580109Y-59553786D01*
X83705048Y-59381820D01*
X83705047Y-59381820D01*
X83705051Y-59381816D01*
X83801557Y-59192412D01*
X83867246Y-58990243D01*
X83900500Y-58780287D01*
X83900500Y-58567713D01*
X83867246Y-58357757D01*
X83801557Y-58155588D01*
X83705051Y-57966184D01*
X83705049Y-57966181D01*
X83705048Y-57966179D01*
X83580109Y-57794213D01*
X83429786Y-57643890D01*
X83257820Y-57518951D01*
X83257115Y-57518591D01*
X83249054Y-57514485D01*
X83198259Y-57466512D01*
X83181463Y-57398692D01*
X83203999Y-57332556D01*
X83249054Y-57293515D01*
X83257816Y-57289051D01*
X83363164Y-57212512D01*
X83429786Y-57164109D01*
X83429788Y-57164106D01*
X83429792Y-57164104D01*
X83580104Y-57013792D01*
X83580106Y-57013788D01*
X83580109Y-57013786D01*
X83705048Y-56841820D01*
X83705047Y-56841820D01*
X83705051Y-56841816D01*
X83801557Y-56652412D01*
X83867246Y-56450243D01*
X83900500Y-56240287D01*
X83900500Y-56027713D01*
X83867246Y-55817757D01*
X83801557Y-55615588D01*
X83705051Y-55426184D01*
X83705049Y-55426181D01*
X83705048Y-55426179D01*
X83580109Y-55254213D01*
X83429786Y-55103890D01*
X83257820Y-54978951D01*
X83257115Y-54978591D01*
X83249054Y-54974485D01*
X83198259Y-54926512D01*
X83181463Y-54858692D01*
X83203999Y-54792556D01*
X83249054Y-54753515D01*
X83257816Y-54749051D01*
X83363164Y-54672512D01*
X83429786Y-54624109D01*
X83429788Y-54624106D01*
X83429792Y-54624104D01*
X83580104Y-54473792D01*
X83580106Y-54473788D01*
X83580109Y-54473786D01*
X83705048Y-54301820D01*
X83705047Y-54301820D01*
X83705051Y-54301816D01*
X83801557Y-54112412D01*
X83867246Y-53910243D01*
X83900500Y-53700287D01*
X83900500Y-53487713D01*
X83867246Y-53277757D01*
X83801557Y-53075588D01*
X83705051Y-52886184D01*
X83705049Y-52886181D01*
X83705048Y-52886179D01*
X83580109Y-52714213D01*
X83429786Y-52563890D01*
X83257820Y-52438951D01*
X83257115Y-52438591D01*
X83249054Y-52434485D01*
X83198259Y-52386512D01*
X83181463Y-52318692D01*
X83203999Y-52252556D01*
X83249054Y-52213515D01*
X83257816Y-52209051D01*
X83363164Y-52132512D01*
X83429786Y-52084109D01*
X83429788Y-52084106D01*
X83429792Y-52084104D01*
X83580104Y-51933792D01*
X83580106Y-51933788D01*
X83580109Y-51933786D01*
X83705048Y-51761820D01*
X83705047Y-51761820D01*
X83705051Y-51761816D01*
X83801557Y-51572412D01*
X83867246Y-51370243D01*
X83900500Y-51160287D01*
X83900500Y-50947713D01*
X83867246Y-50737757D01*
X83801557Y-50535588D01*
X83705051Y-50346184D01*
X83705049Y-50346181D01*
X83705048Y-50346179D01*
X83580109Y-50174213D01*
X83429786Y-50023890D01*
X83257820Y-49898951D01*
X83257115Y-49898591D01*
X83249054Y-49894485D01*
X83198259Y-49846512D01*
X83181463Y-49778692D01*
X83203999Y-49712556D01*
X83249054Y-49673515D01*
X83257816Y-49669051D01*
X83363164Y-49592512D01*
X83429786Y-49544109D01*
X83429788Y-49544106D01*
X83429792Y-49544104D01*
X83580104Y-49393792D01*
X83580106Y-49393788D01*
X83580109Y-49393786D01*
X83705048Y-49221820D01*
X83705047Y-49221820D01*
X83705051Y-49221816D01*
X83801557Y-49032412D01*
X83867246Y-48830243D01*
X83900500Y-48620287D01*
X83900500Y-48407713D01*
X83867246Y-48197757D01*
X83801557Y-47995588D01*
X83801556Y-47995586D01*
X83800051Y-47990954D01*
X83802011Y-47990317D01*
X83795491Y-47929433D01*
X83826792Y-47866967D01*
X83886895Y-47831339D01*
X83917512Y-47827500D01*
X85794059Y-47827500D01*
X85861098Y-47847185D01*
X85881740Y-47863819D01*
X85889707Y-47871786D01*
X85889711Y-47871789D01*
X86020814Y-47959390D01*
X86020827Y-47959397D01*
X86120060Y-48000500D01*
X86166503Y-48019737D01*
X86321153Y-48050499D01*
X86321156Y-48050500D01*
X86321158Y-48050500D01*
X86478844Y-48050500D01*
X86478845Y-48050499D01*
X86633497Y-48019737D01*
X86779179Y-47959394D01*
X86910289Y-47871789D01*
X87021789Y-47760289D01*
X87109394Y-47629179D01*
X87169737Y-47483497D01*
X87200500Y-47328842D01*
X87200500Y-47171158D01*
X87200500Y-47171155D01*
X87200499Y-47171153D01*
X87190553Y-47121153D01*
X87169737Y-47016503D01*
X87167181Y-47010332D01*
X87109397Y-46870827D01*
X87109390Y-46870814D01*
X87021789Y-46739711D01*
X87021786Y-46739707D01*
X86910292Y-46628213D01*
X86910288Y-46628210D01*
X86779185Y-46540609D01*
X86779172Y-46540602D01*
X86633501Y-46480264D01*
X86633489Y-46480261D01*
X86478845Y-46449500D01*
X86478842Y-46449500D01*
X86321158Y-46449500D01*
X86321155Y-46449500D01*
X86166510Y-46480261D01*
X86166498Y-46480264D01*
X86020828Y-46540602D01*
X86020814Y-46540610D01*
X86004366Y-46551601D01*
X85937689Y-46572480D01*
X85935474Y-46572500D01*
X83946206Y-46572500D01*
X83879167Y-46552815D01*
X83833412Y-46500011D01*
X83823468Y-46430853D01*
X83828275Y-46410182D01*
X83831746Y-46399500D01*
X83867246Y-46290243D01*
X83900500Y-46080287D01*
X83900500Y-45867713D01*
X83867246Y-45657757D01*
X83801557Y-45455588D01*
X83705051Y-45266184D01*
X83705049Y-45266181D01*
X83705048Y-45266179D01*
X83580109Y-45094213D01*
X83429786Y-44943890D01*
X83257820Y-44818951D01*
X83257115Y-44818591D01*
X83249054Y-44814485D01*
X83198259Y-44766512D01*
X83181463Y-44698692D01*
X83203999Y-44632556D01*
X83249054Y-44593515D01*
X83257816Y-44589051D01*
X83363164Y-44512512D01*
X83429786Y-44464109D01*
X83429788Y-44464106D01*
X83429792Y-44464104D01*
X83580104Y-44313792D01*
X83580106Y-44313788D01*
X83580109Y-44313786D01*
X83705048Y-44141820D01*
X83705047Y-44141820D01*
X83705051Y-44141816D01*
X83801557Y-43952412D01*
X83867246Y-43750243D01*
X83900500Y-43540287D01*
X83900500Y-43327713D01*
X83867246Y-43117757D01*
X83801557Y-42915588D01*
X83705051Y-42726184D01*
X83705049Y-42726181D01*
X83705048Y-42726179D01*
X83580109Y-42554213D01*
X83429786Y-42403890D01*
X83257820Y-42278951D01*
X83257115Y-42278591D01*
X83249054Y-42274485D01*
X83198259Y-42226512D01*
X83181463Y-42158692D01*
X83203999Y-42092556D01*
X83249054Y-42053515D01*
X83257816Y-42049051D01*
X83363164Y-41972512D01*
X83429786Y-41924109D01*
X83429788Y-41924106D01*
X83429792Y-41924104D01*
X83580104Y-41773792D01*
X83580106Y-41773788D01*
X83580109Y-41773786D01*
X83705048Y-41601820D01*
X83705047Y-41601820D01*
X83705051Y-41601816D01*
X83801557Y-41412412D01*
X83867246Y-41210243D01*
X83900500Y-41000287D01*
X83900500Y-40787713D01*
X83867246Y-40577757D01*
X83801557Y-40375588D01*
X83705051Y-40186184D01*
X83705049Y-40186181D01*
X83705048Y-40186179D01*
X83580109Y-40014213D01*
X83429786Y-39863890D01*
X83257820Y-39738951D01*
X83257115Y-39738591D01*
X83249054Y-39734485D01*
X83198259Y-39686512D01*
X83181463Y-39618692D01*
X83203999Y-39552556D01*
X83249054Y-39513515D01*
X83257816Y-39509051D01*
X83363164Y-39432512D01*
X83429786Y-39384109D01*
X83429788Y-39384106D01*
X83429792Y-39384104D01*
X83580104Y-39233792D01*
X83580106Y-39233788D01*
X83580109Y-39233786D01*
X83705048Y-39061820D01*
X83705047Y-39061820D01*
X83705051Y-39061816D01*
X83801557Y-38872412D01*
X83867246Y-38670243D01*
X83900500Y-38460287D01*
X83900500Y-38247713D01*
X83867246Y-38037757D01*
X83801557Y-37835588D01*
X83705051Y-37646184D01*
X83705049Y-37646181D01*
X83705048Y-37646179D01*
X83580109Y-37474213D01*
X83429786Y-37323890D01*
X83257820Y-37198951D01*
X83257115Y-37198591D01*
X83249054Y-37194485D01*
X83198259Y-37146512D01*
X83181463Y-37078692D01*
X83203999Y-37012556D01*
X83249054Y-36973515D01*
X83257816Y-36969051D01*
X83363164Y-36892512D01*
X83429786Y-36844109D01*
X83429788Y-36844106D01*
X83429792Y-36844104D01*
X83580104Y-36693792D01*
X83580106Y-36693788D01*
X83580109Y-36693786D01*
X83705048Y-36521820D01*
X83705047Y-36521820D01*
X83705051Y-36521816D01*
X83801557Y-36332412D01*
X83867246Y-36130243D01*
X83900500Y-35920287D01*
X83900500Y-35707713D01*
X83867246Y-35497757D01*
X83801557Y-35295588D01*
X83705051Y-35106184D01*
X83705049Y-35106181D01*
X83705048Y-35106179D01*
X83580109Y-34934213D01*
X83429786Y-34783890D01*
X83257820Y-34658951D01*
X83257115Y-34658591D01*
X83249054Y-34654485D01*
X83198259Y-34606512D01*
X83181463Y-34538692D01*
X83203999Y-34472556D01*
X83249054Y-34433515D01*
X83257816Y-34429051D01*
X83363164Y-34352512D01*
X83429786Y-34304109D01*
X83429788Y-34304106D01*
X83429792Y-34304104D01*
X83580104Y-34153792D01*
X83580106Y-34153788D01*
X83580109Y-34153786D01*
X83705048Y-33981820D01*
X83705047Y-33981820D01*
X83705051Y-33981816D01*
X83801557Y-33792412D01*
X83867246Y-33590243D01*
X83900500Y-33380287D01*
X83900500Y-33167713D01*
X83867246Y-32957757D01*
X83801557Y-32755588D01*
X83705051Y-32566184D01*
X83705049Y-32566181D01*
X83705048Y-32566179D01*
X83580109Y-32394213D01*
X83429786Y-32243890D01*
X83257820Y-32118951D01*
X83257115Y-32118591D01*
X83249054Y-32114485D01*
X83198259Y-32066512D01*
X83181463Y-31998692D01*
X83203999Y-31932556D01*
X83249054Y-31893515D01*
X83257816Y-31889051D01*
X83363164Y-31812512D01*
X83429786Y-31764109D01*
X83429788Y-31764106D01*
X83429792Y-31764104D01*
X83580104Y-31613792D01*
X83580106Y-31613788D01*
X83580109Y-31613786D01*
X83705048Y-31441820D01*
X83705047Y-31441820D01*
X83705051Y-31441816D01*
X83801557Y-31252412D01*
X83867246Y-31050243D01*
X83900500Y-30840287D01*
X83900500Y-30627713D01*
X83867246Y-30417757D01*
X83801557Y-30215588D01*
X83705051Y-30026184D01*
X83705049Y-30026181D01*
X83705048Y-30026179D01*
X83580109Y-29854213D01*
X83429786Y-29703890D01*
X83257820Y-29578951D01*
X83068414Y-29482444D01*
X83068413Y-29482443D01*
X83068412Y-29482443D01*
X82866243Y-29416754D01*
X82866241Y-29416753D01*
X82866240Y-29416753D01*
X82704957Y-29391208D01*
X82656287Y-29383500D01*
X82443713Y-29383500D01*
X82395042Y-29391208D01*
X82233760Y-29416753D01*
X82031585Y-29482444D01*
X81842179Y-29578951D01*
X81670213Y-29703890D01*
X81519890Y-29854213D01*
X81394951Y-30026179D01*
X81298444Y-30215585D01*
X81232753Y-30417760D01*
X81199500Y-30627713D01*
X81199500Y-30840286D01*
X81229821Y-31031730D01*
X81232754Y-31050243D01*
X81277454Y-31187816D01*
X81298444Y-31252414D01*
X81394951Y-31441820D01*
X81519890Y-31613786D01*
X81670213Y-31764109D01*
X81842182Y-31889050D01*
X81850946Y-31893516D01*
X81901742Y-31941491D01*
X81918536Y-32009312D01*
X81895998Y-32075447D01*
X81850946Y-32114484D01*
X81842182Y-32118949D01*
X81670213Y-32243890D01*
X81519890Y-32394213D01*
X81394951Y-32566179D01*
X81298444Y-32755585D01*
X81232753Y-32957760D01*
X81199500Y-33167713D01*
X81199500Y-33380286D01*
X81229821Y-33571730D01*
X81232754Y-33590243D01*
X81277454Y-33727816D01*
X81298444Y-33792414D01*
X81394951Y-33981820D01*
X81519890Y-34153786D01*
X81670213Y-34304109D01*
X81842182Y-34429050D01*
X81850946Y-34433516D01*
X81901742Y-34481491D01*
X81918536Y-34549312D01*
X81895998Y-34615447D01*
X81850946Y-34654484D01*
X81842182Y-34658949D01*
X81670213Y-34783890D01*
X81519890Y-34934213D01*
X81394951Y-35106179D01*
X81298444Y-35295585D01*
X81232753Y-35497760D01*
X81199500Y-35707713D01*
X81199500Y-35920286D01*
X81229821Y-36111730D01*
X81232754Y-36130243D01*
X81277454Y-36267816D01*
X81298444Y-36332414D01*
X81394951Y-36521820D01*
X81519890Y-36693786D01*
X81670213Y-36844109D01*
X81842182Y-36969050D01*
X81850946Y-36973516D01*
X81901742Y-37021491D01*
X81918536Y-37089312D01*
X81895998Y-37155447D01*
X81850946Y-37194484D01*
X81842182Y-37198949D01*
X81670213Y-37323890D01*
X81519890Y-37474213D01*
X81394951Y-37646179D01*
X81298444Y-37835585D01*
X81232753Y-38037760D01*
X81199500Y-38247713D01*
X81199500Y-38460286D01*
X81229821Y-38651730D01*
X81232754Y-38670243D01*
X81277454Y-38807816D01*
X81298444Y-38872414D01*
X81394951Y-39061820D01*
X81519890Y-39233786D01*
X81670213Y-39384109D01*
X81842182Y-39509050D01*
X81850946Y-39513516D01*
X81901742Y-39561491D01*
X81918536Y-39629312D01*
X81895998Y-39695447D01*
X81850946Y-39734484D01*
X81842182Y-39738949D01*
X81670213Y-39863890D01*
X81519890Y-40014213D01*
X81394951Y-40186179D01*
X81298444Y-40375585D01*
X81232753Y-40577760D01*
X81199500Y-40787713D01*
X81199500Y-41000286D01*
X81229821Y-41191730D01*
X81232754Y-41210243D01*
X81277454Y-41347816D01*
X81298444Y-41412414D01*
X81394951Y-41601820D01*
X81519890Y-41773786D01*
X81670213Y-41924109D01*
X81842182Y-42049050D01*
X81850946Y-42053516D01*
X81901742Y-42101491D01*
X81918536Y-42169312D01*
X81895998Y-42235447D01*
X81850946Y-42274484D01*
X81842182Y-42278949D01*
X81670213Y-42403890D01*
X81519890Y-42554213D01*
X81394951Y-42726179D01*
X81298444Y-42915585D01*
X81232753Y-43117760D01*
X81199500Y-43327713D01*
X81199500Y-43540286D01*
X81229821Y-43731730D01*
X81232754Y-43750243D01*
X81277454Y-43887816D01*
X81298444Y-43952414D01*
X81394951Y-44141820D01*
X81519890Y-44313786D01*
X81670213Y-44464109D01*
X81842182Y-44589050D01*
X81850946Y-44593516D01*
X81901742Y-44641491D01*
X81918536Y-44709312D01*
X81895998Y-44775447D01*
X81850946Y-44814484D01*
X81842182Y-44818949D01*
X81670213Y-44943890D01*
X81519890Y-45094213D01*
X81394951Y-45266179D01*
X81298444Y-45455585D01*
X81232753Y-45657760D01*
X81199500Y-45867713D01*
X81199500Y-46080286D01*
X81229422Y-46269209D01*
X81220467Y-46338503D01*
X81175471Y-46391955D01*
X81108719Y-46412594D01*
X81082758Y-46410224D01*
X81028845Y-46399500D01*
X81028842Y-46399500D01*
X80871158Y-46399500D01*
X80871155Y-46399500D01*
X80716510Y-46430261D01*
X80716498Y-46430264D01*
X80570827Y-46490602D01*
X80570814Y-46490609D01*
X80439711Y-46578210D01*
X80439707Y-46578213D01*
X80328213Y-46689707D01*
X80328210Y-46689711D01*
X80240609Y-46820814D01*
X80240602Y-46820827D01*
X80180264Y-46966498D01*
X80180261Y-46966510D01*
X80149500Y-47121153D01*
X76930119Y-47121153D01*
X76907816Y-47104949D01*
X76891141Y-47096452D01*
X76883888Y-47091338D01*
X76867463Y-47070649D01*
X76848259Y-47052512D01*
X76846080Y-47043714D01*
X76840445Y-47036616D01*
X76837812Y-47010332D01*
X76831463Y-46984692D01*
X76834386Y-46976113D01*
X76833483Y-46967094D01*
X76845478Y-46943560D01*
X76853999Y-46918556D01*
X76861566Y-46911998D01*
X76865213Y-46904845D01*
X76879327Y-46896608D01*
X76899054Y-46879515D01*
X76907816Y-46875051D01*
X76937085Y-46853786D01*
X77079786Y-46750109D01*
X77079788Y-46750106D01*
X77079792Y-46750104D01*
X77230104Y-46599792D01*
X77230106Y-46599788D01*
X77230109Y-46599786D01*
X77339297Y-46449500D01*
X77355051Y-46427816D01*
X77451557Y-46238412D01*
X77517246Y-46036243D01*
X77550500Y-45826287D01*
X77550500Y-45613713D01*
X77517246Y-45403757D01*
X77451557Y-45201588D01*
X77355051Y-45012184D01*
X77355049Y-45012181D01*
X77355048Y-45012179D01*
X77230109Y-44840213D01*
X77079786Y-44689890D01*
X76907820Y-44564951D01*
X76907115Y-44564591D01*
X76899054Y-44560485D01*
X76848259Y-44512512D01*
X76831463Y-44444692D01*
X76853999Y-44378556D01*
X76899054Y-44339515D01*
X76907816Y-44335051D01*
X76937085Y-44313786D01*
X77079786Y-44210109D01*
X77079788Y-44210106D01*
X77079792Y-44210104D01*
X77230104Y-44059792D01*
X77230106Y-44059788D01*
X77230109Y-44059786D01*
X77355048Y-43887820D01*
X77355047Y-43887820D01*
X77355051Y-43887816D01*
X77451557Y-43698412D01*
X77517246Y-43496243D01*
X77550500Y-43286287D01*
X77550500Y-43073713D01*
X77517246Y-42863757D01*
X77451557Y-42661588D01*
X77355051Y-42472184D01*
X77355049Y-42472181D01*
X77355048Y-42472179D01*
X77230109Y-42300213D01*
X77079786Y-42149890D01*
X76907820Y-42024951D01*
X76907115Y-42024591D01*
X76899054Y-42020485D01*
X76848259Y-41972512D01*
X76831463Y-41904692D01*
X76853999Y-41838556D01*
X76899054Y-41799515D01*
X76907816Y-41795051D01*
X76937085Y-41773786D01*
X77079786Y-41670109D01*
X77079788Y-41670106D01*
X77079792Y-41670104D01*
X77230104Y-41519792D01*
X77230106Y-41519788D01*
X77230109Y-41519786D01*
X77355048Y-41347820D01*
X77355047Y-41347820D01*
X77355051Y-41347816D01*
X77451557Y-41158412D01*
X77517246Y-40956243D01*
X77550500Y-40746287D01*
X77550500Y-40533713D01*
X77517246Y-40323757D01*
X77451557Y-40121588D01*
X77355051Y-39932184D01*
X77355049Y-39932181D01*
X77355048Y-39932179D01*
X77230109Y-39760213D01*
X77079786Y-39609890D01*
X76907820Y-39484951D01*
X76907115Y-39484591D01*
X76899054Y-39480485D01*
X76848259Y-39432512D01*
X76831463Y-39364692D01*
X76853999Y-39298556D01*
X76899054Y-39259515D01*
X76907816Y-39255051D01*
X76937085Y-39233786D01*
X77079786Y-39130109D01*
X77079788Y-39130106D01*
X77079792Y-39130104D01*
X77230104Y-38979792D01*
X77230106Y-38979788D01*
X77230109Y-38979786D01*
X77355048Y-38807820D01*
X77355047Y-38807820D01*
X77355051Y-38807816D01*
X77451557Y-38618412D01*
X77517246Y-38416243D01*
X77550500Y-38206287D01*
X77550500Y-37993713D01*
X77517246Y-37783757D01*
X77451557Y-37581588D01*
X77355051Y-37392184D01*
X77355049Y-37392181D01*
X77355048Y-37392179D01*
X77230109Y-37220213D01*
X77079786Y-37069890D01*
X76907820Y-36944951D01*
X76907115Y-36944591D01*
X76899054Y-36940485D01*
X76848259Y-36892512D01*
X76831463Y-36824692D01*
X76853999Y-36758556D01*
X76899054Y-36719515D01*
X76907816Y-36715051D01*
X76937085Y-36693786D01*
X77079786Y-36590109D01*
X77079788Y-36590106D01*
X77079792Y-36590104D01*
X77230104Y-36439792D01*
X77230106Y-36439788D01*
X77230109Y-36439786D01*
X77355048Y-36267820D01*
X77355047Y-36267820D01*
X77355051Y-36267816D01*
X77451557Y-36078412D01*
X77517246Y-35876243D01*
X77550500Y-35666287D01*
X77550500Y-35453713D01*
X77517246Y-35243757D01*
X77451557Y-35041588D01*
X77355051Y-34852184D01*
X77355049Y-34852181D01*
X77355048Y-34852179D01*
X77230109Y-34680213D01*
X77079786Y-34529890D01*
X76907820Y-34404951D01*
X76907115Y-34404591D01*
X76899054Y-34400485D01*
X76848259Y-34352512D01*
X76831463Y-34284692D01*
X76853999Y-34218556D01*
X76899054Y-34179515D01*
X76907816Y-34175051D01*
X76937085Y-34153786D01*
X77079786Y-34050109D01*
X77079788Y-34050106D01*
X77079792Y-34050104D01*
X77230104Y-33899792D01*
X77230106Y-33899788D01*
X77230109Y-33899786D01*
X77355048Y-33727820D01*
X77355047Y-33727820D01*
X77355051Y-33727816D01*
X77451557Y-33538412D01*
X77517246Y-33336243D01*
X77550500Y-33126287D01*
X77550500Y-32913713D01*
X77517246Y-32703757D01*
X77451557Y-32501588D01*
X77355051Y-32312184D01*
X77355049Y-32312181D01*
X77355048Y-32312179D01*
X77230109Y-32140213D01*
X77079786Y-31989890D01*
X76907820Y-31864951D01*
X76907115Y-31864591D01*
X76899054Y-31860485D01*
X76848259Y-31812512D01*
X76831463Y-31744692D01*
X76853999Y-31678556D01*
X76899054Y-31639515D01*
X76907816Y-31635051D01*
X76937085Y-31613786D01*
X77079786Y-31510109D01*
X77079788Y-31510106D01*
X77079792Y-31510104D01*
X77230104Y-31359792D01*
X77230106Y-31359788D01*
X77230109Y-31359786D01*
X77355048Y-31187820D01*
X77355047Y-31187820D01*
X77355051Y-31187816D01*
X77451557Y-30998412D01*
X77517246Y-30796243D01*
X77550500Y-30586287D01*
X77550500Y-30373713D01*
X77517246Y-30163757D01*
X77451557Y-29961588D01*
X77355051Y-29772184D01*
X77355049Y-29772181D01*
X77355048Y-29772179D01*
X77230109Y-29600213D01*
X77079786Y-29449890D01*
X76907820Y-29324951D01*
X76907115Y-29324591D01*
X76899054Y-29320485D01*
X76848259Y-29272512D01*
X76831463Y-29204692D01*
X76853999Y-29138556D01*
X76899054Y-29099515D01*
X76907816Y-29095051D01*
X76929789Y-29079086D01*
X77079786Y-28970109D01*
X77079788Y-28970106D01*
X77079792Y-28970104D01*
X77230104Y-28819792D01*
X77230106Y-28819788D01*
X77230109Y-28819786D01*
X77355048Y-28647820D01*
X77355047Y-28647820D01*
X77355051Y-28647816D01*
X77451557Y-28458412D01*
X77517246Y-28256243D01*
X77550500Y-28046287D01*
X77550500Y-27833713D01*
X77517246Y-27623757D01*
X77451557Y-27421588D01*
X77355051Y-27232184D01*
X77355049Y-27232181D01*
X77355048Y-27232179D01*
X77230109Y-27060213D01*
X77116569Y-26946673D01*
X77083084Y-26885350D01*
X77088068Y-26815658D01*
X77129940Y-26759725D01*
X77160915Y-26742810D01*
X77292331Y-26693796D01*
X77407546Y-26607546D01*
X77493796Y-26492331D01*
X77544091Y-26357483D01*
X77550500Y-26297873D01*
X77550499Y-24502128D01*
X77544091Y-24442517D01*
X77544091Y-24442516D01*
X77497401Y-24317333D01*
X77492417Y-24247641D01*
X77525902Y-24186318D01*
X77587226Y-24152834D01*
X77613583Y-24150000D01*
X100186950Y-24150000D01*
X100253989Y-24169685D01*
G37*
%TD.AperFunction*%
%TA.AperFunction,Conductor*%
G36*
X107800539Y-24169685D02*
G01*
X107846294Y-24222489D01*
X107857500Y-24274000D01*
X107857500Y-79975500D01*
X107837815Y-80042539D01*
X107785011Y-80088294D01*
X107733500Y-80099500D01*
X102407198Y-80099500D01*
X102340159Y-80079815D01*
X102294404Y-80027011D01*
X102284460Y-79957853D01*
X102313485Y-79894297D01*
X102334312Y-79875182D01*
X102361716Y-79855270D01*
X102361717Y-79855270D01*
X101729408Y-79222962D01*
X101792993Y-79205925D01*
X101907007Y-79140099D01*
X102000099Y-79047007D01*
X102065925Y-78932993D01*
X102082962Y-78869409D01*
X102715270Y-79501717D01*
X102715270Y-79501716D01*
X102754622Y-79447554D01*
X102851095Y-79258217D01*
X102916757Y-79056130D01*
X102916757Y-79056127D01*
X102950000Y-78846246D01*
X102950000Y-78633753D01*
X102916757Y-78423872D01*
X102916757Y-78423869D01*
X102851095Y-78221782D01*
X102754624Y-78032449D01*
X102715270Y-77978282D01*
X102715269Y-77978282D01*
X102082962Y-78610590D01*
X102065925Y-78547007D01*
X102000099Y-78432993D01*
X101907007Y-78339901D01*
X101792993Y-78274075D01*
X101729409Y-78257037D01*
X102361716Y-77624728D01*
X102307550Y-77585375D01*
X102297954Y-77580486D01*
X102247157Y-77532512D01*
X102230361Y-77464692D01*
X102252897Y-77398556D01*
X102297954Y-77359514D01*
X102307554Y-77354622D01*
X102361716Y-77315270D01*
X102361717Y-77315270D01*
X101729408Y-76682962D01*
X101792993Y-76665925D01*
X101907007Y-76600099D01*
X102000099Y-76507007D01*
X102065925Y-76392993D01*
X102082962Y-76329409D01*
X102715270Y-76961717D01*
X102715270Y-76961716D01*
X102754622Y-76907554D01*
X102851095Y-76718217D01*
X102916757Y-76516130D01*
X102916757Y-76516127D01*
X102950000Y-76306246D01*
X102950000Y-76093753D01*
X102916757Y-75883872D01*
X102916757Y-75883869D01*
X102851095Y-75681782D01*
X102754624Y-75492449D01*
X102715270Y-75438282D01*
X102715269Y-75438282D01*
X102082962Y-76070590D01*
X102065925Y-76007007D01*
X102000099Y-75892993D01*
X101907007Y-75799901D01*
X101792993Y-75734075D01*
X101729409Y-75717037D01*
X102361716Y-75084728D01*
X102307547Y-75045373D01*
X102307547Y-75045372D01*
X102298500Y-75040763D01*
X102247706Y-74992788D01*
X102230912Y-74924966D01*
X102253451Y-74858832D01*
X102298508Y-74819793D01*
X102307816Y-74815051D01*
X102387007Y-74757515D01*
X102479786Y-74690109D01*
X102479788Y-74690106D01*
X102479792Y-74690104D01*
X102630104Y-74539792D01*
X102630106Y-74539788D01*
X102630109Y-74539786D01*
X102755048Y-74367820D01*
X102755047Y-74367820D01*
X102755051Y-74367816D01*
X102851557Y-74178412D01*
X102917246Y-73976243D01*
X102950500Y-73766287D01*
X102950500Y-73553713D01*
X102917246Y-73343757D01*
X102851557Y-73141588D01*
X102755051Y-72952184D01*
X102755049Y-72952181D01*
X102755048Y-72952179D01*
X102630109Y-72780213D01*
X102479786Y-72629890D01*
X102307820Y-72504951D01*
X102307115Y-72504591D01*
X102299054Y-72500485D01*
X102248259Y-72452512D01*
X102231463Y-72384692D01*
X102253999Y-72318556D01*
X102299054Y-72279515D01*
X102307816Y-72275051D01*
X102337088Y-72253784D01*
X102479786Y-72150109D01*
X102479788Y-72150106D01*
X102479792Y-72150104D01*
X102630104Y-71999792D01*
X102630106Y-71999788D01*
X102630109Y-71999786D01*
X102755048Y-71827820D01*
X102755047Y-71827820D01*
X102755051Y-71827816D01*
X102851557Y-71638412D01*
X102917246Y-71436243D01*
X102950500Y-71226287D01*
X102950500Y-71013713D01*
X102917246Y-70803757D01*
X102851557Y-70601588D01*
X102755051Y-70412184D01*
X102755049Y-70412181D01*
X102755048Y-70412179D01*
X102630109Y-70240213D01*
X102479786Y-70089890D01*
X102307820Y-69964951D01*
X102307115Y-69964591D01*
X102299054Y-69960485D01*
X102248259Y-69912512D01*
X102231463Y-69844692D01*
X102253999Y-69778556D01*
X102299054Y-69739515D01*
X102307816Y-69735051D01*
X102337085Y-69713786D01*
X102479786Y-69610109D01*
X102479788Y-69610106D01*
X102479792Y-69610104D01*
X102630104Y-69459792D01*
X102630106Y-69459788D01*
X102630109Y-69459786D01*
X102755048Y-69287820D01*
X102755047Y-69287820D01*
X102755051Y-69287816D01*
X102851557Y-69098412D01*
X102917246Y-68896243D01*
X102950500Y-68686287D01*
X102950500Y-68473713D01*
X102917246Y-68263757D01*
X102851557Y-68061588D01*
X102755051Y-67872184D01*
X102755049Y-67872181D01*
X102755048Y-67872179D01*
X102630109Y-67700213D01*
X102479786Y-67549890D01*
X102307820Y-67424951D01*
X102307115Y-67424591D01*
X102299054Y-67420485D01*
X102248259Y-67372512D01*
X102231463Y-67304692D01*
X102253999Y-67238556D01*
X102299054Y-67199515D01*
X102307816Y-67195051D01*
X102337085Y-67173786D01*
X102479786Y-67070109D01*
X102479788Y-67070106D01*
X102479792Y-67070104D01*
X102630104Y-66919792D01*
X102630106Y-66919788D01*
X102630109Y-66919786D01*
X102755048Y-66747820D01*
X102755047Y-66747820D01*
X102755051Y-66747816D01*
X102851557Y-66558412D01*
X102917246Y-66356243D01*
X102950500Y-66146287D01*
X102950500Y-65933713D01*
X102917246Y-65723757D01*
X102851557Y-65521588D01*
X102755051Y-65332184D01*
X102755049Y-65332181D01*
X102755048Y-65332179D01*
X102630109Y-65160213D01*
X102479786Y-65009890D01*
X102307820Y-64884951D01*
X102307115Y-64884591D01*
X102299054Y-64880485D01*
X102248259Y-64832512D01*
X102231463Y-64764692D01*
X102253999Y-64698556D01*
X102299054Y-64659515D01*
X102307816Y-64655051D01*
X102337085Y-64633786D01*
X102479786Y-64530109D01*
X102479788Y-64530106D01*
X102479792Y-64530104D01*
X102630104Y-64379792D01*
X102630106Y-64379788D01*
X102630109Y-64379786D01*
X102755048Y-64207820D01*
X102755047Y-64207820D01*
X102755051Y-64207816D01*
X102851557Y-64018412D01*
X102917246Y-63816243D01*
X102950500Y-63606287D01*
X102950500Y-63393713D01*
X102917246Y-63183757D01*
X102851557Y-62981588D01*
X102755051Y-62792184D01*
X102755049Y-62792181D01*
X102755048Y-62792179D01*
X102630109Y-62620213D01*
X102479786Y-62469890D01*
X102307820Y-62344951D01*
X102307115Y-62344591D01*
X102299054Y-62340485D01*
X102248259Y-62292512D01*
X102231463Y-62224692D01*
X102253999Y-62158556D01*
X102299054Y-62119515D01*
X102307816Y-62115051D01*
X102337085Y-62093786D01*
X102479786Y-61990109D01*
X102479788Y-61990106D01*
X102479792Y-61990104D01*
X102630104Y-61839792D01*
X102630106Y-61839788D01*
X102630109Y-61839786D01*
X102755048Y-61667820D01*
X102755047Y-61667820D01*
X102755051Y-61667816D01*
X102851557Y-61478412D01*
X102917246Y-61276243D01*
X102950500Y-61066287D01*
X102950500Y-60853713D01*
X102917246Y-60643757D01*
X102851557Y-60441588D01*
X102755051Y-60252184D01*
X102755049Y-60252181D01*
X102755048Y-60252179D01*
X102630109Y-60080213D01*
X102479786Y-59929890D01*
X102307820Y-59804951D01*
X102307115Y-59804591D01*
X102299054Y-59800485D01*
X102248259Y-59752512D01*
X102231463Y-59684692D01*
X102253999Y-59618556D01*
X102299054Y-59579515D01*
X102307816Y-59575051D01*
X102337085Y-59553786D01*
X102479786Y-59450109D01*
X102479788Y-59450106D01*
X102479792Y-59450104D01*
X102630104Y-59299792D01*
X102630106Y-59299788D01*
X102630109Y-59299786D01*
X102755048Y-59127820D01*
X102755047Y-59127820D01*
X102755051Y-59127816D01*
X102851557Y-58938412D01*
X102917246Y-58736243D01*
X102950500Y-58526287D01*
X102950500Y-58313713D01*
X102917246Y-58103757D01*
X102851557Y-57901588D01*
X102755051Y-57712184D01*
X102755049Y-57712181D01*
X102755048Y-57712179D01*
X102630109Y-57540213D01*
X102479786Y-57389890D01*
X102307820Y-57264951D01*
X102307115Y-57264591D01*
X102299054Y-57260485D01*
X102248259Y-57212512D01*
X102231463Y-57144692D01*
X102253999Y-57078556D01*
X102299054Y-57039515D01*
X102307816Y-57035051D01*
X102337085Y-57013786D01*
X102479786Y-56910109D01*
X102479788Y-56910106D01*
X102479792Y-56910104D01*
X102630104Y-56759792D01*
X102630106Y-56759788D01*
X102630109Y-56759786D01*
X102755048Y-56587820D01*
X102755047Y-56587820D01*
X102755051Y-56587816D01*
X102851557Y-56398412D01*
X102917246Y-56196243D01*
X102950500Y-55986287D01*
X102950500Y-55773713D01*
X102917246Y-55563757D01*
X102851557Y-55361588D01*
X102755051Y-55172184D01*
X102755049Y-55172181D01*
X102755048Y-55172179D01*
X102630109Y-55000213D01*
X102479786Y-54849890D01*
X102307820Y-54724951D01*
X102307115Y-54724591D01*
X102299054Y-54720485D01*
X102248259Y-54672512D01*
X102231463Y-54604692D01*
X102253999Y-54538556D01*
X102299054Y-54499515D01*
X102307816Y-54495051D01*
X102337085Y-54473786D01*
X102479786Y-54370109D01*
X102479788Y-54370106D01*
X102479792Y-54370104D01*
X102630104Y-54219792D01*
X102630106Y-54219788D01*
X102630109Y-54219786D01*
X102755048Y-54047820D01*
X102755047Y-54047820D01*
X102755051Y-54047816D01*
X102851557Y-53858412D01*
X102917246Y-53656243D01*
X102950500Y-53446287D01*
X102950500Y-53233713D01*
X102917246Y-53023757D01*
X102851557Y-52821588D01*
X102755051Y-52632184D01*
X102755049Y-52632181D01*
X102755048Y-52632179D01*
X102630109Y-52460213D01*
X102479786Y-52309890D01*
X102307820Y-52184951D01*
X102307115Y-52184591D01*
X102299054Y-52180485D01*
X102248259Y-52132512D01*
X102231463Y-52064692D01*
X102253999Y-51998556D01*
X102299054Y-51959515D01*
X102307816Y-51955051D01*
X102337085Y-51933786D01*
X102479786Y-51830109D01*
X102479788Y-51830106D01*
X102479792Y-51830104D01*
X102630104Y-51679792D01*
X102630106Y-51679788D01*
X102630109Y-51679786D01*
X102755048Y-51507820D01*
X102755047Y-51507820D01*
X102755051Y-51507816D01*
X102851557Y-51318412D01*
X102917246Y-51116243D01*
X102950500Y-50906287D01*
X102950500Y-50693713D01*
X102917246Y-50483757D01*
X102851557Y-50281588D01*
X102755051Y-50092184D01*
X102755049Y-50092181D01*
X102755048Y-50092179D01*
X102630109Y-49920213D01*
X102479786Y-49769890D01*
X102307820Y-49644951D01*
X102307115Y-49644591D01*
X102299054Y-49640485D01*
X102248259Y-49592512D01*
X102231463Y-49524692D01*
X102253999Y-49458556D01*
X102299054Y-49419515D01*
X102307816Y-49415051D01*
X102337085Y-49393786D01*
X102479786Y-49290109D01*
X102479788Y-49290106D01*
X102479792Y-49290104D01*
X102630104Y-49139792D01*
X102630106Y-49139788D01*
X102630109Y-49139786D01*
X102755048Y-48967820D01*
X102755047Y-48967820D01*
X102755051Y-48967816D01*
X102851557Y-48778412D01*
X102917246Y-48576243D01*
X102950500Y-48366287D01*
X102950500Y-48153713D01*
X102917246Y-47943757D01*
X102851557Y-47741588D01*
X102755051Y-47552184D01*
X102755049Y-47552181D01*
X102755048Y-47552179D01*
X102630109Y-47380213D01*
X102479786Y-47229890D01*
X102307820Y-47104951D01*
X102307115Y-47104591D01*
X102299054Y-47100485D01*
X102248259Y-47052512D01*
X102231463Y-46984692D01*
X102253999Y-46918556D01*
X102299054Y-46879515D01*
X102307816Y-46875051D01*
X102337085Y-46853786D01*
X102479786Y-46750109D01*
X102479788Y-46750106D01*
X102479792Y-46750104D01*
X102630104Y-46599792D01*
X102630106Y-46599788D01*
X102630109Y-46599786D01*
X102739297Y-46449500D01*
X102755051Y-46427816D01*
X102851557Y-46238412D01*
X102917246Y-46036243D01*
X102950500Y-45826287D01*
X102950500Y-45613713D01*
X102917246Y-45403757D01*
X102851557Y-45201588D01*
X102755051Y-45012184D01*
X102755049Y-45012181D01*
X102755048Y-45012179D01*
X102630109Y-44840213D01*
X102479786Y-44689890D01*
X102307820Y-44564951D01*
X102307115Y-44564591D01*
X102299054Y-44560485D01*
X102248259Y-44512512D01*
X102231463Y-44444692D01*
X102253999Y-44378556D01*
X102299054Y-44339515D01*
X102307816Y-44335051D01*
X102337085Y-44313786D01*
X102479786Y-44210109D01*
X102479788Y-44210106D01*
X102479792Y-44210104D01*
X102630104Y-44059792D01*
X102630106Y-44059788D01*
X102630109Y-44059786D01*
X102755048Y-43887820D01*
X102755047Y-43887820D01*
X102755051Y-43887816D01*
X102851557Y-43698412D01*
X102917246Y-43496243D01*
X102950500Y-43286287D01*
X102950500Y-43073713D01*
X102917246Y-42863757D01*
X102851557Y-42661588D01*
X102755051Y-42472184D01*
X102755049Y-42472181D01*
X102755048Y-42472179D01*
X102630109Y-42300213D01*
X102479786Y-42149890D01*
X102307820Y-42024951D01*
X102307115Y-42024591D01*
X102299054Y-42020485D01*
X102248259Y-41972512D01*
X102231463Y-41904692D01*
X102253999Y-41838556D01*
X102299054Y-41799515D01*
X102307816Y-41795051D01*
X102337085Y-41773786D01*
X102479786Y-41670109D01*
X102479788Y-41670106D01*
X102479792Y-41670104D01*
X102630104Y-41519792D01*
X102630106Y-41519788D01*
X102630109Y-41519786D01*
X102755048Y-41347820D01*
X102755047Y-41347820D01*
X102755051Y-41347816D01*
X102851557Y-41158412D01*
X102917246Y-40956243D01*
X102950500Y-40746287D01*
X102950500Y-40533713D01*
X102917246Y-40323757D01*
X102851557Y-40121588D01*
X102755051Y-39932184D01*
X102755049Y-39932181D01*
X102755048Y-39932179D01*
X102630109Y-39760213D01*
X102479786Y-39609890D01*
X102307820Y-39484951D01*
X102307115Y-39484591D01*
X102299054Y-39480485D01*
X102248259Y-39432512D01*
X102231463Y-39364692D01*
X102253999Y-39298556D01*
X102299054Y-39259515D01*
X102307816Y-39255051D01*
X102337085Y-39233786D01*
X102479786Y-39130109D01*
X102479788Y-39130106D01*
X102479792Y-39130104D01*
X102630104Y-38979792D01*
X102630106Y-38979788D01*
X102630109Y-38979786D01*
X102755048Y-38807820D01*
X102755047Y-38807820D01*
X102755051Y-38807816D01*
X102851557Y-38618412D01*
X102917246Y-38416243D01*
X102950500Y-38206287D01*
X102950500Y-37993713D01*
X102917246Y-37783757D01*
X102851557Y-37581588D01*
X102755051Y-37392184D01*
X102755049Y-37392181D01*
X102755048Y-37392179D01*
X102630109Y-37220213D01*
X102479786Y-37069890D01*
X102307820Y-36944951D01*
X102307115Y-36944591D01*
X102299054Y-36940485D01*
X102248259Y-36892512D01*
X102231463Y-36824692D01*
X102253999Y-36758556D01*
X102299054Y-36719515D01*
X102307816Y-36715051D01*
X102337085Y-36693786D01*
X102479786Y-36590109D01*
X102479788Y-36590106D01*
X102479792Y-36590104D01*
X102630104Y-36439792D01*
X102630106Y-36439788D01*
X102630109Y-36439786D01*
X102755048Y-36267820D01*
X102755047Y-36267820D01*
X102755051Y-36267816D01*
X102851557Y-36078412D01*
X102917246Y-35876243D01*
X102950500Y-35666287D01*
X102950500Y-35453713D01*
X102917246Y-35243757D01*
X102851557Y-35041588D01*
X102755051Y-34852184D01*
X102755049Y-34852181D01*
X102755048Y-34852179D01*
X102630109Y-34680213D01*
X102479786Y-34529890D01*
X102307820Y-34404951D01*
X102307115Y-34404591D01*
X102299054Y-34400485D01*
X102248259Y-34352512D01*
X102231463Y-34284692D01*
X102253999Y-34218556D01*
X102299054Y-34179515D01*
X102307816Y-34175051D01*
X102337085Y-34153786D01*
X102479786Y-34050109D01*
X102479788Y-34050106D01*
X102479792Y-34050104D01*
X102630104Y-33899792D01*
X102630106Y-33899788D01*
X102630109Y-33899786D01*
X102755048Y-33727820D01*
X102755047Y-33727820D01*
X102755051Y-33727816D01*
X102851557Y-33538412D01*
X102917246Y-33336243D01*
X102950500Y-33126287D01*
X102950500Y-32913713D01*
X102917246Y-32703757D01*
X102851557Y-32501588D01*
X102755051Y-32312184D01*
X102755049Y-32312181D01*
X102755048Y-32312179D01*
X102630109Y-32140213D01*
X102479786Y-31989890D01*
X102307820Y-31864951D01*
X102307115Y-31864591D01*
X102299054Y-31860485D01*
X102248259Y-31812512D01*
X102231463Y-31744692D01*
X102253999Y-31678556D01*
X102299054Y-31639515D01*
X102307816Y-31635051D01*
X102337085Y-31613786D01*
X102479786Y-31510109D01*
X102479788Y-31510106D01*
X102479792Y-31510104D01*
X102630104Y-31359792D01*
X102630106Y-31359788D01*
X102630109Y-31359786D01*
X102755048Y-31187820D01*
X102755047Y-31187820D01*
X102755051Y-31187816D01*
X102851557Y-30998412D01*
X102917246Y-30796243D01*
X102943939Y-30627713D01*
X104059500Y-30627713D01*
X104059500Y-30840286D01*
X104089821Y-31031730D01*
X104092754Y-31050243D01*
X104137454Y-31187816D01*
X104158444Y-31252414D01*
X104254951Y-31441820D01*
X104379890Y-31613786D01*
X104530213Y-31764109D01*
X104702182Y-31889050D01*
X104710946Y-31893516D01*
X104761742Y-31941491D01*
X104778536Y-32009312D01*
X104755998Y-32075447D01*
X104710946Y-32114484D01*
X104702182Y-32118949D01*
X104530213Y-32243890D01*
X104379890Y-32394213D01*
X104254951Y-32566179D01*
X104158444Y-32755585D01*
X104092753Y-32957760D01*
X104059500Y-33167713D01*
X104059500Y-33380286D01*
X104089821Y-33571730D01*
X104092754Y-33590243D01*
X104137454Y-33727816D01*
X104158444Y-33792414D01*
X104254951Y-33981820D01*
X104379890Y-34153786D01*
X104530213Y-34304109D01*
X104702182Y-34429050D01*
X104710946Y-34433516D01*
X104761742Y-34481491D01*
X104778536Y-34549312D01*
X104755998Y-34615447D01*
X104710946Y-34654484D01*
X104702182Y-34658949D01*
X104530213Y-34783890D01*
X104379890Y-34934213D01*
X104254951Y-35106179D01*
X104158444Y-35295585D01*
X104092753Y-35497760D01*
X104059500Y-35707713D01*
X104059500Y-35920286D01*
X104089821Y-36111730D01*
X104092754Y-36130243D01*
X104137454Y-36267816D01*
X104158444Y-36332414D01*
X104254951Y-36521820D01*
X104379890Y-36693786D01*
X104530213Y-36844109D01*
X104702182Y-36969050D01*
X104710946Y-36973516D01*
X104761742Y-37021491D01*
X104778536Y-37089312D01*
X104755998Y-37155447D01*
X104710946Y-37194484D01*
X104702182Y-37198949D01*
X104530213Y-37323890D01*
X104379890Y-37474213D01*
X104254951Y-37646179D01*
X104158444Y-37835585D01*
X104092753Y-38037760D01*
X104059500Y-38247713D01*
X104059500Y-38460286D01*
X104089821Y-38651730D01*
X104092754Y-38670243D01*
X104137454Y-38807816D01*
X104158444Y-38872414D01*
X104254951Y-39061820D01*
X104379890Y-39233786D01*
X104530213Y-39384109D01*
X104702182Y-39509050D01*
X104710946Y-39513516D01*
X104761742Y-39561491D01*
X104778536Y-39629312D01*
X104755998Y-39695447D01*
X104710946Y-39734484D01*
X104702182Y-39738949D01*
X104530213Y-39863890D01*
X104379890Y-40014213D01*
X104254951Y-40186179D01*
X104158444Y-40375585D01*
X104092753Y-40577760D01*
X104059500Y-40787713D01*
X104059500Y-41000286D01*
X104089821Y-41191730D01*
X104092754Y-41210243D01*
X104137454Y-41347816D01*
X104158444Y-41412414D01*
X104254951Y-41601820D01*
X104379890Y-41773786D01*
X104530213Y-41924109D01*
X104702182Y-42049050D01*
X104710946Y-42053516D01*
X104761742Y-42101491D01*
X104778536Y-42169312D01*
X104755998Y-42235447D01*
X104710946Y-42274484D01*
X104702182Y-42278949D01*
X104530213Y-42403890D01*
X104379890Y-42554213D01*
X104254951Y-42726179D01*
X104158444Y-42915585D01*
X104092753Y-43117760D01*
X104059500Y-43327713D01*
X104059500Y-43540286D01*
X104089821Y-43731730D01*
X104092754Y-43750243D01*
X104137454Y-43887816D01*
X104158444Y-43952414D01*
X104254951Y-44141820D01*
X104379890Y-44313786D01*
X104530213Y-44464109D01*
X104702182Y-44589050D01*
X104710946Y-44593516D01*
X104761742Y-44641491D01*
X104778536Y-44709312D01*
X104755998Y-44775447D01*
X104710946Y-44814484D01*
X104702182Y-44818949D01*
X104530213Y-44943890D01*
X104379890Y-45094213D01*
X104254951Y-45266179D01*
X104158444Y-45455585D01*
X104092753Y-45657760D01*
X104059500Y-45867713D01*
X104059500Y-46080286D01*
X104089821Y-46271730D01*
X104092754Y-46290243D01*
X104157857Y-46490609D01*
X104158444Y-46492414D01*
X104254951Y-46681820D01*
X104379890Y-46853786D01*
X104530213Y-47004109D01*
X104702182Y-47129050D01*
X104710946Y-47133516D01*
X104761742Y-47181491D01*
X104778536Y-47249312D01*
X104755998Y-47315447D01*
X104710946Y-47354484D01*
X104702182Y-47358949D01*
X104530213Y-47483890D01*
X104379890Y-47634213D01*
X104254951Y-47806179D01*
X104158444Y-47995585D01*
X104092753Y-48197760D01*
X104059500Y-48407713D01*
X104059500Y-48620286D01*
X104089821Y-48811730D01*
X104092754Y-48830243D01*
X104137454Y-48967816D01*
X104158444Y-49032414D01*
X104254951Y-49221820D01*
X104379890Y-49393786D01*
X104530213Y-49544109D01*
X104702182Y-49669050D01*
X104710946Y-49673516D01*
X104761742Y-49721491D01*
X104778536Y-49789312D01*
X104755998Y-49855447D01*
X104710946Y-49894484D01*
X104702182Y-49898949D01*
X104530213Y-50023890D01*
X104379890Y-50174213D01*
X104254951Y-50346179D01*
X104158444Y-50535585D01*
X104092753Y-50737760D01*
X104059500Y-50947713D01*
X104059500Y-51160286D01*
X104089821Y-51351730D01*
X104092754Y-51370243D01*
X104137454Y-51507816D01*
X104158444Y-51572414D01*
X104254951Y-51761820D01*
X104379890Y-51933786D01*
X104530213Y-52084109D01*
X104702182Y-52209050D01*
X104710946Y-52213516D01*
X104761742Y-52261491D01*
X104778536Y-52329312D01*
X104755998Y-52395447D01*
X104710946Y-52434484D01*
X104702182Y-52438949D01*
X104530213Y-52563890D01*
X104379890Y-52714213D01*
X104254951Y-52886179D01*
X104158444Y-53075585D01*
X104092753Y-53277760D01*
X104059500Y-53487713D01*
X104059500Y-53700286D01*
X104089821Y-53891730D01*
X104092754Y-53910243D01*
X104137454Y-54047816D01*
X104158444Y-54112414D01*
X104254951Y-54301820D01*
X104379890Y-54473786D01*
X104530213Y-54624109D01*
X104702182Y-54749050D01*
X104710946Y-54753516D01*
X104761742Y-54801491D01*
X104778536Y-54869312D01*
X104755998Y-54935447D01*
X104710946Y-54974484D01*
X104702182Y-54978949D01*
X104530213Y-55103890D01*
X104379890Y-55254213D01*
X104254951Y-55426179D01*
X104158444Y-55615585D01*
X104092753Y-55817760D01*
X104059500Y-56027713D01*
X104059500Y-56240286D01*
X104089821Y-56431730D01*
X104092754Y-56450243D01*
X104137454Y-56587816D01*
X104158444Y-56652414D01*
X104254951Y-56841820D01*
X104379890Y-57013786D01*
X104530213Y-57164109D01*
X104702182Y-57289050D01*
X104710946Y-57293516D01*
X104761742Y-57341491D01*
X104778536Y-57409312D01*
X104755998Y-57475447D01*
X104710946Y-57514484D01*
X104702182Y-57518949D01*
X104530213Y-57643890D01*
X104379890Y-57794213D01*
X104254951Y-57966179D01*
X104158444Y-58155585D01*
X104092753Y-58357760D01*
X104059500Y-58567713D01*
X104059500Y-58780286D01*
X104089821Y-58971730D01*
X104092754Y-58990243D01*
X104137454Y-59127816D01*
X104158444Y-59192414D01*
X104254951Y-59381820D01*
X104379890Y-59553786D01*
X104530213Y-59704109D01*
X104702182Y-59829050D01*
X104710946Y-59833516D01*
X104761742Y-59881491D01*
X104778536Y-59949312D01*
X104755998Y-60015447D01*
X104710946Y-60054484D01*
X104702182Y-60058949D01*
X104530213Y-60183890D01*
X104379890Y-60334213D01*
X104254951Y-60506179D01*
X104158444Y-60695585D01*
X104092753Y-60897760D01*
X104059500Y-61107713D01*
X104059500Y-61320286D01*
X104089821Y-61511730D01*
X104092754Y-61530243D01*
X104137454Y-61667816D01*
X104158444Y-61732414D01*
X104254951Y-61921820D01*
X104379890Y-62093786D01*
X104530213Y-62244109D01*
X104702182Y-62369050D01*
X104710946Y-62373516D01*
X104761742Y-62421491D01*
X104778536Y-62489312D01*
X104755998Y-62555447D01*
X104710946Y-62594484D01*
X104702182Y-62598949D01*
X104530213Y-62723890D01*
X104379890Y-62874213D01*
X104254951Y-63046179D01*
X104158444Y-63235585D01*
X104092753Y-63437760D01*
X104059500Y-63647713D01*
X104059500Y-63860286D01*
X104089821Y-64051730D01*
X104092754Y-64070243D01*
X104137454Y-64207816D01*
X104158444Y-64272414D01*
X104254951Y-64461820D01*
X104379890Y-64633786D01*
X104530213Y-64784109D01*
X104702182Y-64909050D01*
X104710946Y-64913516D01*
X104761742Y-64961491D01*
X104778536Y-65029312D01*
X104755998Y-65095447D01*
X104710946Y-65134484D01*
X104702182Y-65138949D01*
X104530213Y-65263890D01*
X104379890Y-65414213D01*
X104254951Y-65586179D01*
X104158444Y-65775585D01*
X104092753Y-65977760D01*
X104059500Y-66187713D01*
X104059500Y-66400286D01*
X104089821Y-66591730D01*
X104092754Y-66610243D01*
X104137454Y-66747816D01*
X104158444Y-66812414D01*
X104254951Y-67001820D01*
X104379890Y-67173786D01*
X104530213Y-67324109D01*
X104702182Y-67449050D01*
X104710946Y-67453516D01*
X104761742Y-67501491D01*
X104778536Y-67569312D01*
X104755998Y-67635447D01*
X104710946Y-67674484D01*
X104702182Y-67678949D01*
X104530213Y-67803890D01*
X104379890Y-67954213D01*
X104254951Y-68126179D01*
X104158444Y-68315585D01*
X104092753Y-68517760D01*
X104059500Y-68727713D01*
X104059500Y-68940286D01*
X104089821Y-69131730D01*
X104092754Y-69150243D01*
X104137454Y-69287816D01*
X104158444Y-69352414D01*
X104254951Y-69541820D01*
X104379890Y-69713786D01*
X104530213Y-69864109D01*
X104702182Y-69989050D01*
X104710946Y-69993516D01*
X104761742Y-70041491D01*
X104778536Y-70109312D01*
X104755998Y-70175447D01*
X104710946Y-70214484D01*
X104702182Y-70218949D01*
X104530213Y-70343890D01*
X104379890Y-70494213D01*
X104254951Y-70666179D01*
X104158444Y-70855585D01*
X104092753Y-71057760D01*
X104059500Y-71267713D01*
X104059500Y-71480286D01*
X104089821Y-71671730D01*
X104092754Y-71690243D01*
X104137454Y-71827816D01*
X104158444Y-71892414D01*
X104254951Y-72081820D01*
X104379890Y-72253786D01*
X104493818Y-72367714D01*
X104527303Y-72429037D01*
X104522319Y-72498729D01*
X104480447Y-72554662D01*
X104449471Y-72571577D01*
X104317912Y-72620646D01*
X104317906Y-72620649D01*
X104202812Y-72706809D01*
X104202809Y-72706812D01*
X104116649Y-72821906D01*
X104116645Y-72821913D01*
X104066403Y-72956620D01*
X104066401Y-72956627D01*
X104060000Y-73016155D01*
X104060000Y-73664000D01*
X104976988Y-73664000D01*
X104944075Y-73721007D01*
X104910000Y-73848174D01*
X104910000Y-73979826D01*
X104944075Y-74106993D01*
X104976988Y-74164000D01*
X104060000Y-74164000D01*
X104060000Y-74811844D01*
X104066401Y-74871372D01*
X104066403Y-74871379D01*
X104116645Y-75006086D01*
X104116649Y-75006093D01*
X104202809Y-75121187D01*
X104202812Y-75121190D01*
X104317906Y-75207350D01*
X104317913Y-75207354D01*
X104452620Y-75257596D01*
X104452627Y-75257598D01*
X104512155Y-75263999D01*
X104512172Y-75264000D01*
X105160000Y-75264000D01*
X105160000Y-74347012D01*
X105217007Y-74379925D01*
X105344174Y-74414000D01*
X105475826Y-74414000D01*
X105602993Y-74379925D01*
X105660000Y-74347012D01*
X105660000Y-75264000D01*
X106307828Y-75264000D01*
X106307844Y-75263999D01*
X106367372Y-75257598D01*
X106367379Y-75257596D01*
X106502086Y-75207354D01*
X106502093Y-75207350D01*
X106617187Y-75121190D01*
X106617190Y-75121187D01*
X106703350Y-75006093D01*
X106703354Y-75006086D01*
X106753596Y-74871379D01*
X106753598Y-74871372D01*
X106759999Y-74811844D01*
X106760000Y-74811827D01*
X106760000Y-74164000D01*
X105843012Y-74164000D01*
X105875925Y-74106993D01*
X105910000Y-73979826D01*
X105910000Y-73848174D01*
X105875925Y-73721007D01*
X105843012Y-73664000D01*
X106760000Y-73664000D01*
X106760000Y-73016172D01*
X106759999Y-73016155D01*
X106753598Y-72956627D01*
X106753596Y-72956620D01*
X106703354Y-72821913D01*
X106703350Y-72821906D01*
X106617190Y-72706812D01*
X106617187Y-72706809D01*
X106502093Y-72620649D01*
X106502088Y-72620646D01*
X106370528Y-72571577D01*
X106314595Y-72529705D01*
X106290178Y-72464241D01*
X106305030Y-72395968D01*
X106326175Y-72367720D01*
X106440104Y-72253792D01*
X106565051Y-72081816D01*
X106661557Y-71892412D01*
X106727246Y-71690243D01*
X106760500Y-71480287D01*
X106760500Y-71267713D01*
X106727246Y-71057757D01*
X106661557Y-70855588D01*
X106565051Y-70666184D01*
X106565049Y-70666181D01*
X106565048Y-70666179D01*
X106440109Y-70494213D01*
X106289786Y-70343890D01*
X106117820Y-70218951D01*
X106117115Y-70218591D01*
X106109054Y-70214485D01*
X106058259Y-70166512D01*
X106041463Y-70098692D01*
X106063999Y-70032556D01*
X106109054Y-69993515D01*
X106117816Y-69989051D01*
X106223164Y-69912512D01*
X106289786Y-69864109D01*
X106289788Y-69864106D01*
X106289792Y-69864104D01*
X106440104Y-69713792D01*
X106440106Y-69713788D01*
X106440109Y-69713786D01*
X106565048Y-69541820D01*
X106565047Y-69541820D01*
X106565051Y-69541816D01*
X106661557Y-69352412D01*
X106727246Y-69150243D01*
X106760500Y-68940287D01*
X106760500Y-68727713D01*
X106727246Y-68517757D01*
X106661557Y-68315588D01*
X106565051Y-68126184D01*
X106565049Y-68126181D01*
X106565048Y-68126179D01*
X106440109Y-67954213D01*
X106289786Y-67803890D01*
X106117820Y-67678951D01*
X106117115Y-67678591D01*
X106109054Y-67674485D01*
X106058259Y-67626512D01*
X106041463Y-67558692D01*
X106063999Y-67492556D01*
X106109054Y-67453515D01*
X106117816Y-67449051D01*
X106223164Y-67372512D01*
X106289786Y-67324109D01*
X106289788Y-67324106D01*
X106289792Y-67324104D01*
X106440104Y-67173792D01*
X106440106Y-67173788D01*
X106440109Y-67173786D01*
X106565048Y-67001820D01*
X106565047Y-67001820D01*
X106565051Y-67001816D01*
X106661557Y-66812412D01*
X106727246Y-66610243D01*
X106760500Y-66400287D01*
X106760500Y-66187713D01*
X106727246Y-65977757D01*
X106661557Y-65775588D01*
X106565051Y-65586184D01*
X106565049Y-65586181D01*
X106565048Y-65586179D01*
X106440109Y-65414213D01*
X106289786Y-65263890D01*
X106117820Y-65138951D01*
X106117115Y-65138591D01*
X106109054Y-65134485D01*
X106058259Y-65086512D01*
X106041463Y-65018692D01*
X106063999Y-64952556D01*
X106109054Y-64913515D01*
X106117816Y-64909051D01*
X106223164Y-64832512D01*
X106289786Y-64784109D01*
X106289788Y-64784106D01*
X106289792Y-64784104D01*
X106440104Y-64633792D01*
X106440106Y-64633788D01*
X106440109Y-64633786D01*
X106565048Y-64461820D01*
X106565047Y-64461820D01*
X106565051Y-64461816D01*
X106661557Y-64272412D01*
X106727246Y-64070243D01*
X106760500Y-63860287D01*
X106760500Y-63647713D01*
X106727246Y-63437757D01*
X106661557Y-63235588D01*
X106565051Y-63046184D01*
X106565049Y-63046181D01*
X106565048Y-63046179D01*
X106440109Y-62874213D01*
X106289786Y-62723890D01*
X106117820Y-62598951D01*
X106117115Y-62598591D01*
X106109054Y-62594485D01*
X106058259Y-62546512D01*
X106041463Y-62478692D01*
X106063999Y-62412556D01*
X106109054Y-62373515D01*
X106117816Y-62369051D01*
X106223164Y-62292512D01*
X106289786Y-62244109D01*
X106289788Y-62244106D01*
X106289792Y-62244104D01*
X106440104Y-62093792D01*
X106440106Y-62093788D01*
X106440109Y-62093786D01*
X106565048Y-61921820D01*
X106565047Y-61921820D01*
X106565051Y-61921816D01*
X106661557Y-61732412D01*
X106727246Y-61530243D01*
X106760500Y-61320287D01*
X106760500Y-61107713D01*
X106727246Y-60897757D01*
X106661557Y-60695588D01*
X106565051Y-60506184D01*
X106565049Y-60506181D01*
X106565048Y-60506179D01*
X106440109Y-60334213D01*
X106289786Y-60183890D01*
X106117820Y-60058951D01*
X106117115Y-60058591D01*
X106109054Y-60054485D01*
X106058259Y-60006512D01*
X106041463Y-59938692D01*
X106063999Y-59872556D01*
X106109054Y-59833515D01*
X106117816Y-59829051D01*
X106223164Y-59752512D01*
X106289786Y-59704109D01*
X106289788Y-59704106D01*
X106289792Y-59704104D01*
X106440104Y-59553792D01*
X106440106Y-59553788D01*
X106440109Y-59553786D01*
X106565048Y-59381820D01*
X106565047Y-59381820D01*
X106565051Y-59381816D01*
X106661557Y-59192412D01*
X106727246Y-58990243D01*
X106760500Y-58780287D01*
X106760500Y-58567713D01*
X106727246Y-58357757D01*
X106661557Y-58155588D01*
X106565051Y-57966184D01*
X106565049Y-57966181D01*
X106565048Y-57966179D01*
X106440109Y-57794213D01*
X106289786Y-57643890D01*
X106117820Y-57518951D01*
X106117115Y-57518591D01*
X106109054Y-57514485D01*
X106058259Y-57466512D01*
X106041463Y-57398692D01*
X106063999Y-57332556D01*
X106109054Y-57293515D01*
X106117816Y-57289051D01*
X106223164Y-57212512D01*
X106289786Y-57164109D01*
X106289788Y-57164106D01*
X106289792Y-57164104D01*
X106440104Y-57013792D01*
X106440106Y-57013788D01*
X106440109Y-57013786D01*
X106565048Y-56841820D01*
X106565047Y-56841820D01*
X106565051Y-56841816D01*
X106661557Y-56652412D01*
X106727246Y-56450243D01*
X106760500Y-56240287D01*
X106760500Y-56027713D01*
X106727246Y-55817757D01*
X106661557Y-55615588D01*
X106565051Y-55426184D01*
X106565049Y-55426181D01*
X106565048Y-55426179D01*
X106440109Y-55254213D01*
X106289786Y-55103890D01*
X106117820Y-54978951D01*
X106117115Y-54978591D01*
X106109054Y-54974485D01*
X106058259Y-54926512D01*
X106041463Y-54858692D01*
X106063999Y-54792556D01*
X106109054Y-54753515D01*
X106117816Y-54749051D01*
X106223164Y-54672512D01*
X106289786Y-54624109D01*
X106289788Y-54624106D01*
X106289792Y-54624104D01*
X106440104Y-54473792D01*
X106440106Y-54473788D01*
X106440109Y-54473786D01*
X106565048Y-54301820D01*
X106565047Y-54301820D01*
X106565051Y-54301816D01*
X106661557Y-54112412D01*
X106727246Y-53910243D01*
X106760500Y-53700287D01*
X106760500Y-53487713D01*
X106727246Y-53277757D01*
X106661557Y-53075588D01*
X106565051Y-52886184D01*
X106565049Y-52886181D01*
X106565048Y-52886179D01*
X106440109Y-52714213D01*
X106289786Y-52563890D01*
X106117820Y-52438951D01*
X106117115Y-52438591D01*
X106109054Y-52434485D01*
X106058259Y-52386512D01*
X106041463Y-52318692D01*
X106063999Y-52252556D01*
X106109054Y-52213515D01*
X106117816Y-52209051D01*
X106223164Y-52132512D01*
X106289786Y-52084109D01*
X106289788Y-52084106D01*
X106289792Y-52084104D01*
X106440104Y-51933792D01*
X106440106Y-51933788D01*
X106440109Y-51933786D01*
X106565048Y-51761820D01*
X106565047Y-51761820D01*
X106565051Y-51761816D01*
X106661557Y-51572412D01*
X106727246Y-51370243D01*
X106760500Y-51160287D01*
X106760500Y-50947713D01*
X106727246Y-50737757D01*
X106661557Y-50535588D01*
X106565051Y-50346184D01*
X106565049Y-50346181D01*
X106565048Y-50346179D01*
X106440109Y-50174213D01*
X106289786Y-50023890D01*
X106117820Y-49898951D01*
X106117115Y-49898591D01*
X106109054Y-49894485D01*
X106058259Y-49846512D01*
X106041463Y-49778692D01*
X106063999Y-49712556D01*
X106109054Y-49673515D01*
X106117816Y-49669051D01*
X106223164Y-49592512D01*
X106289786Y-49544109D01*
X106289788Y-49544106D01*
X106289792Y-49544104D01*
X106440104Y-49393792D01*
X106440106Y-49393788D01*
X106440109Y-49393786D01*
X106565048Y-49221820D01*
X106565047Y-49221820D01*
X106565051Y-49221816D01*
X106661557Y-49032412D01*
X106727246Y-48830243D01*
X106760500Y-48620287D01*
X106760500Y-48407713D01*
X106727246Y-48197757D01*
X106661557Y-47995588D01*
X106565051Y-47806184D01*
X106565049Y-47806181D01*
X106565048Y-47806179D01*
X106440109Y-47634213D01*
X106289786Y-47483890D01*
X106117820Y-47358951D01*
X106117115Y-47358591D01*
X106109054Y-47354485D01*
X106058259Y-47306512D01*
X106041463Y-47238692D01*
X106063999Y-47172556D01*
X106109054Y-47133515D01*
X106117816Y-47129051D01*
X106223164Y-47052512D01*
X106289786Y-47004109D01*
X106289788Y-47004106D01*
X106289792Y-47004104D01*
X106440104Y-46853792D01*
X106440106Y-46853788D01*
X106440109Y-46853786D01*
X106565048Y-46681820D01*
X106565047Y-46681820D01*
X106565051Y-46681816D01*
X106661557Y-46492412D01*
X106727246Y-46290243D01*
X106760500Y-46080287D01*
X106760500Y-45867713D01*
X106727246Y-45657757D01*
X106661557Y-45455588D01*
X106565051Y-45266184D01*
X106565049Y-45266181D01*
X106565048Y-45266179D01*
X106440109Y-45094213D01*
X106289786Y-44943890D01*
X106117820Y-44818951D01*
X106117115Y-44818591D01*
X106109054Y-44814485D01*
X106058259Y-44766512D01*
X106041463Y-44698692D01*
X106063999Y-44632556D01*
X106109054Y-44593515D01*
X106117816Y-44589051D01*
X106223164Y-44512512D01*
X106289786Y-44464109D01*
X106289788Y-44464106D01*
X106289792Y-44464104D01*
X106440104Y-44313792D01*
X106440106Y-44313788D01*
X106440109Y-44313786D01*
X106565048Y-44141820D01*
X106565047Y-44141820D01*
X106565051Y-44141816D01*
X106661557Y-43952412D01*
X106727246Y-43750243D01*
X106760500Y-43540287D01*
X106760500Y-43327713D01*
X106727246Y-43117757D01*
X106661557Y-42915588D01*
X106565051Y-42726184D01*
X106565049Y-42726181D01*
X106565048Y-42726179D01*
X106440109Y-42554213D01*
X106289786Y-42403890D01*
X106117820Y-42278951D01*
X106117115Y-42278591D01*
X106109054Y-42274485D01*
X106058259Y-42226512D01*
X106041463Y-42158692D01*
X106063999Y-42092556D01*
X106109054Y-42053515D01*
X106117816Y-42049051D01*
X106223164Y-41972512D01*
X106289786Y-41924109D01*
X106289788Y-41924106D01*
X106289792Y-41924104D01*
X106440104Y-41773792D01*
X106440106Y-41773788D01*
X106440109Y-41773786D01*
X106565048Y-41601820D01*
X106565047Y-41601820D01*
X106565051Y-41601816D01*
X106661557Y-41412412D01*
X106727246Y-41210243D01*
X106760500Y-41000287D01*
X106760500Y-40787713D01*
X106727246Y-40577757D01*
X106661557Y-40375588D01*
X106565051Y-40186184D01*
X106565049Y-40186181D01*
X106565048Y-40186179D01*
X106440109Y-40014213D01*
X106289786Y-39863890D01*
X106117820Y-39738951D01*
X106117115Y-39738591D01*
X106109054Y-39734485D01*
X106058259Y-39686512D01*
X106041463Y-39618692D01*
X106063999Y-39552556D01*
X106109054Y-39513515D01*
X106117816Y-39509051D01*
X106223164Y-39432512D01*
X106289786Y-39384109D01*
X106289788Y-39384106D01*
X106289792Y-39384104D01*
X106440104Y-39233792D01*
X106440106Y-39233788D01*
X106440109Y-39233786D01*
X106565048Y-39061820D01*
X106565047Y-39061820D01*
X106565051Y-39061816D01*
X106661557Y-38872412D01*
X106727246Y-38670243D01*
X106760500Y-38460287D01*
X106760500Y-38247713D01*
X106727246Y-38037757D01*
X106661557Y-37835588D01*
X106565051Y-37646184D01*
X106565049Y-37646181D01*
X106565048Y-37646179D01*
X106440109Y-37474213D01*
X106289786Y-37323890D01*
X106117820Y-37198951D01*
X106117115Y-37198591D01*
X106109054Y-37194485D01*
X106058259Y-37146512D01*
X106041463Y-37078692D01*
X106063999Y-37012556D01*
X106109054Y-36973515D01*
X106117816Y-36969051D01*
X106223164Y-36892512D01*
X106289786Y-36844109D01*
X106289788Y-36844106D01*
X106289792Y-36844104D01*
X106440104Y-36693792D01*
X106440106Y-36693788D01*
X106440109Y-36693786D01*
X106565048Y-36521820D01*
X106565047Y-36521820D01*
X106565051Y-36521816D01*
X106661557Y-36332412D01*
X106727246Y-36130243D01*
X106760500Y-35920287D01*
X106760500Y-35707713D01*
X106727246Y-35497757D01*
X106661557Y-35295588D01*
X106565051Y-35106184D01*
X106565049Y-35106181D01*
X106565048Y-35106179D01*
X106440109Y-34934213D01*
X106289786Y-34783890D01*
X106117820Y-34658951D01*
X106117115Y-34658591D01*
X106109054Y-34654485D01*
X106058259Y-34606512D01*
X106041463Y-34538692D01*
X106063999Y-34472556D01*
X106109054Y-34433515D01*
X106117816Y-34429051D01*
X106223164Y-34352512D01*
X106289786Y-34304109D01*
X106289788Y-34304106D01*
X106289792Y-34304104D01*
X106440104Y-34153792D01*
X106440106Y-34153788D01*
X106440109Y-34153786D01*
X106565048Y-33981820D01*
X106565047Y-33981820D01*
X106565051Y-33981816D01*
X106661557Y-33792412D01*
X106727246Y-33590243D01*
X106760500Y-33380287D01*
X106760500Y-33167713D01*
X106727246Y-32957757D01*
X106661557Y-32755588D01*
X106565051Y-32566184D01*
X106565049Y-32566181D01*
X106565048Y-32566179D01*
X106440109Y-32394213D01*
X106289786Y-32243890D01*
X106117820Y-32118951D01*
X106117115Y-32118591D01*
X106109054Y-32114485D01*
X106058259Y-32066512D01*
X106041463Y-31998692D01*
X106063999Y-31932556D01*
X106109054Y-31893515D01*
X106117816Y-31889051D01*
X106223164Y-31812512D01*
X106289786Y-31764109D01*
X106289788Y-31764106D01*
X106289792Y-31764104D01*
X106440104Y-31613792D01*
X106440106Y-31613788D01*
X106440109Y-31613786D01*
X106565048Y-31441820D01*
X106565047Y-31441820D01*
X106565051Y-31441816D01*
X106661557Y-31252412D01*
X106727246Y-31050243D01*
X106760500Y-30840287D01*
X106760500Y-30627713D01*
X106727246Y-30417757D01*
X106661557Y-30215588D01*
X106565051Y-30026184D01*
X106565049Y-30026181D01*
X106565048Y-30026179D01*
X106440109Y-29854213D01*
X106289786Y-29703890D01*
X106117820Y-29578951D01*
X105928414Y-29482444D01*
X105928413Y-29482443D01*
X105928412Y-29482443D01*
X105726243Y-29416754D01*
X105726241Y-29416753D01*
X105726240Y-29416753D01*
X105564957Y-29391208D01*
X105516287Y-29383500D01*
X105303713Y-29383500D01*
X105255042Y-29391208D01*
X105093760Y-29416753D01*
X104891585Y-29482444D01*
X104702179Y-29578951D01*
X104530213Y-29703890D01*
X104379890Y-29854213D01*
X104254951Y-30026179D01*
X104158444Y-30215585D01*
X104092753Y-30417760D01*
X104059500Y-30627713D01*
X102943939Y-30627713D01*
X102950500Y-30586287D01*
X102950500Y-30373713D01*
X102917246Y-30163757D01*
X102851557Y-29961588D01*
X102755051Y-29772184D01*
X102755049Y-29772181D01*
X102755048Y-29772179D01*
X102630109Y-29600213D01*
X102479786Y-29449890D01*
X102307820Y-29324951D01*
X102307115Y-29324591D01*
X102299054Y-29320485D01*
X102248259Y-29272512D01*
X102231463Y-29204692D01*
X102253999Y-29138556D01*
X102299054Y-29099515D01*
X102307816Y-29095051D01*
X102329789Y-29079086D01*
X102479786Y-28970109D01*
X102479788Y-28970106D01*
X102479792Y-28970104D01*
X102630104Y-28819792D01*
X102630106Y-28819788D01*
X102630109Y-28819786D01*
X102755048Y-28647820D01*
X102755047Y-28647820D01*
X102755051Y-28647816D01*
X102851557Y-28458412D01*
X102917246Y-28256243D01*
X102950500Y-28046287D01*
X102950500Y-27833713D01*
X102917246Y-27623757D01*
X102851557Y-27421588D01*
X102755051Y-27232184D01*
X102755049Y-27232181D01*
X102755048Y-27232179D01*
X102630109Y-27060213D01*
X102516181Y-26946285D01*
X102482696Y-26884962D01*
X102487680Y-26815270D01*
X102529552Y-26759337D01*
X102560529Y-26742422D01*
X102692086Y-26693354D01*
X102692093Y-26693350D01*
X102807187Y-26607190D01*
X102807190Y-26607187D01*
X102893350Y-26492093D01*
X102893354Y-26492086D01*
X102943596Y-26357379D01*
X102943598Y-26357372D01*
X102949999Y-26297844D01*
X102950000Y-26297827D01*
X102950000Y-25650000D01*
X102033012Y-25650000D01*
X102065925Y-25592993D01*
X102100000Y-25465826D01*
X102100000Y-25334174D01*
X102065925Y-25207007D01*
X102033012Y-25150000D01*
X102950000Y-25150000D01*
X102950000Y-24502172D01*
X102949999Y-24502155D01*
X102943598Y-24442627D01*
X102943596Y-24442619D01*
X102896868Y-24317333D01*
X102891884Y-24247641D01*
X102925369Y-24186318D01*
X102986693Y-24152834D01*
X103013050Y-24150000D01*
X107733500Y-24150000D01*
X107800539Y-24169685D01*
G37*
%TD.AperFunction*%
%TA.AperFunction,Conductor*%
G36*
X74955203Y-76751730D02*
G01*
X74984484Y-76789147D01*
X75037397Y-76892996D01*
X75044951Y-76907820D01*
X75169890Y-77079786D01*
X75320213Y-77230109D01*
X75492179Y-77355048D01*
X75492181Y-77355049D01*
X75492184Y-77355051D01*
X75501493Y-77359794D01*
X75552290Y-77407766D01*
X75569087Y-77475587D01*
X75546552Y-77541722D01*
X75501505Y-77580760D01*
X75492446Y-77585376D01*
X75492440Y-77585380D01*
X75438282Y-77624727D01*
X75438282Y-77624728D01*
X76070591Y-78257037D01*
X76007007Y-78274075D01*
X75892993Y-78339901D01*
X75799901Y-78432993D01*
X75734075Y-78547007D01*
X75717037Y-78610591D01*
X75084728Y-77978282D01*
X75084727Y-77978282D01*
X75045380Y-78032440D01*
X75045378Y-78032443D01*
X74984484Y-78151953D01*
X74936510Y-78202748D01*
X74868688Y-78219543D01*
X74802554Y-78197005D01*
X74759103Y-78142290D01*
X74750000Y-78095657D01*
X74750000Y-76845443D01*
X74769685Y-76778404D01*
X74822489Y-76732649D01*
X74891647Y-76722705D01*
X74955203Y-76751730D01*
G37*
%TD.AperFunction*%
%TD*%
M02*
